<?xml version="1.0" standalone="no"?>
<!DOCTYPE svg PUBLIC "-//W3C//DTD SVG 1.1//EN" "http://www.w3.org/Graphics/SVG/1.1/DTD/svg11.dtd" >
<svg>
<metadata>
Created by FontForge 20090914 at Sat Jul  7 00:48:05 2018
 By www-data
Copyright 2015 Google Inc. All Rights Reserved.
</metadata>
<defs>
<font id="NotoSansArabic-Regular" horiz-adv-x="0" >
  <font-face 
    font-family="Noto Sans Arabic"
    font-weight="400"
    font-stretch="normal"
    units-per-em="1000"
    panose-1="2 11 5 2 4 5 4 2 2 4"
    ascent="800"
    descent="-200"
    bbox="-220 -572.999 2372 1114"
    underline-thickness="50"
    underline-position="-75"
    unicode-range="U+000D-U+FEFC"
  />
<missing-glyph horiz-adv-x="600" 
d="M94 0v714h411v-714h-411zM145 51h309v612h-309v-612z" />
    <glyph glyph-name="uniFC43" unicode="&#xfedf;&#xfef0;" horiz-adv-x="996" arabic-form="isolated" 
d="M736 -5l9.00098 82.002c38 0 64.667 3.66699 80 11s24.166 20.166 26.499 38.499s2.83301 44.5 1.5 78.5l-19 509h81l20 -500c2 -47.333 -1.16699 -87.333 -9.5 -120s-27 -57.334 -56 -74.001s-73.5 -25 -133.5 -25zM30.001 -0.998047
c0 24 3.33203 50.668 9.99902 80.001s17.334 61.666 32.001 96.999l72 -28c-10.667 -28 -18.667 -53.667 -24 -77s-8 -45 -8 -65c0 -37.333 10.833 -67.5 32.5 -90.5s50.334 -39.833 86.001 -50.5s74.834 -16 117.501 -16c51.333 0 98.166 5.83301 140.499 17.5
s76.166 27.5 101.499 47.5s38 42 38 66c0 17.333 -13.333 32.333 -40 45s-64 25.667 -112 39l19 83c68.667 -27.333 122.5 -45.833 161.5 -55.5s68.833 -14.5 89.5 -14.5c14 0 24.167 -3.83301 30.5 -11.5s9.5 -16.834 9.5 -27.501s-4.66699 -20.5 -14 -29.5
s-21.333 -13.5 -36 -13.5h-37c0.666992 -6 1.5 -10.833 2.5 -14.5s1.5 -8.5 1.5 -14.5c0 -32.667 -15 -64.167 -45 -94.5s-73.167 -55.166 -129.5 -74.499s-123.833 -29 -202.5 -29c-53.333 0 -102.333 8.33301 -147 25s-80.667 42.167 -108 76.5s-41 77.5 -41 129.5z" />
    <glyph glyph-name="uniFC86" unicode="&#xfee0;&#xfef0;" horiz-adv-x="1036" arabic-form="final" 
d="M736 -5l9.00195 82.002c38 0 64.667 3.66699 80 11s24.166 20.166 26.499 38.499s2.83301 44.5 1.5 78.5l-17 509h83l16 -507c0.666992 -34 6 -60.5 16 -79.5s23.333 -32.167 40 -39.5s35 -11 55 -11c14 0 24.167 -3.83301 30.5 -11.5s9.5 -16.834 9.5 -27.501
s-4.66699 -20.5 -14 -29.5s-21.333 -13.5 -36 -13.5c-34 0 -61 6.5 -81 19.5s-34.333 28.833 -43 47.5c-13.333 -22 -33.833 -38.667 -61.5 -50s-65.834 -17 -114.501 -17zM30.002 -0.998047c0 24 3.33203 50.668 9.99902 80.001s17.334 61.666 32.001 96.999l72 -28
c-10.667 -28 -18.667 -53.667 -24 -77s-8 -45 -8 -65c0 -37.333 10.833 -67.5 32.5 -90.5s50.334 -39.833 86.001 -50.5s74.834 -16 117.501 -16c51.333 0 98.166 5.83301 140.499 17.5s76.166 27.5 101.499 47.5s38 42 38 66c0 17.333 -13.333 32.333 -40 45
s-64 25.667 -112 39l19 83c68.667 -27.333 122.5 -45.833 161.5 -55.5s68.833 -14.5 89.5 -14.5c14 0 24.167 -3.83301 30.5 -11.5s9.5 -16.834 9.5 -27.501s-4.66699 -20.5 -14 -29.5s-21.333 -13.5 -36 -13.5h-37c0.666992 -6 1.5 -10.833 2.5 -14.5s1.5 -8.5 1.5 -14.5
c0 -32.667 -15 -64.167 -45 -94.5s-73.167 -55.166 -129.5 -74.499s-123.833 -29 -202.5 -29c-53.333 0 -102.333 8.33301 -147 25s-80.667 42.167 -108 76.5s-41 77.5 -41 129.5z" />
    <glyph glyph-name="uniFD82" unicode="&#xfee0;&#xfea4;&#xfef0;" horiz-adv-x="1673" arabic-form="final" 
d="M1373 -5l9.00195 82.002c38 0 64.667 3.66699 80 11s24.166 20.166 26.499 38.499s2.83301 44.5 1.5 78.5l-17 509h83l16 -507c0.666992 -34 6 -60.5 16 -79.5s23.333 -32.167 40 -39.5s35 -11 55 -11c14 0 24.167 -3.83301 30.5 -11.5s9.5 -16.834 9.5 -27.501
s-4.66699 -20.5 -14 -29.5s-21.333 -13.5 -36 -13.5c-34 0 -61 6.5 -81 19.5s-34.333 28.833 -43 47.5c-13.333 -22 -33.833 -38.667 -61.5 -50s-65.834 -17 -114.501 -17zM736.002 -4.99805l9.00098 82.002c68.667 0 135.334 10.167 200.001 30.5
s123.667 49.166 177 86.499c-26 22.667 -57.833 41 -95.5 55s-79.167 21 -124.5 21c-16.667 0 -31.334 -0.833008 -44.001 -2.5s-28 -4.5 -46 -8.5l-16 76c37.333 11.333 72.666 17 105.999 17c34.667 0 66 -4.16699 94 -12.5s53.5 -18.5 76.5 -30.5s44.667 -24 65 -36
s40.166 -22.167 59.499 -30.5s39.333 -12.5 60 -12.5h21l7 -72c-20.667 0 -40.667 -2.33301 -60 -7c12.667 -30 30.667 -49.833 54 -59.5s58 -14.5 104 -14.5c14 0 24.167 -3.83301 30.5 -11.5s9.5 -16.834 9.5 -27.501s-4.66699 -20.5 -14 -29.5s-21.333 -13.5 -36 -13.5
c-36 0 -68.167 3.16699 -96.5 9.5s-52.5 19 -72.5 38s-34.667 47.5 -44 85.5c-25.333 -12 -51.166 -25.5 -77.499 -40.5s-55.5 -29.5 -87.5 -43.5s-69 -25.667 -111 -35s-91.333 -14 -148 -14zM30.0029 -0.996094c0 24 3.33203 50.668 9.99902 80.001
s17.334 61.666 32.001 96.999l72 -28c-10.667 -28 -18.667 -53.667 -24 -77s-8 -45 -8 -65c0 -37.333 10.833 -67.5 32.5 -90.5s50.334 -39.833 86.001 -50.5s74.834 -16 117.501 -16c51.333 0 98.166 5.83301 140.499 17.5s76.166 27.5 101.499 47.5s38 42 38 66
c0 17.333 -13.333 32.333 -40 45s-64 25.667 -112 39l19 83c68.667 -27.333 122.5 -45.833 161.5 -55.5s68.833 -14.5 89.5 -14.5c14 0 24.167 -3.83301 30.5 -11.5s9.5 -16.834 9.5 -27.501s-4.66699 -20.5 -14 -29.5s-21.333 -13.5 -36 -13.5h-37
c0.666992 -6 1.5 -10.833 2.5 -14.5s1.5 -8.5 1.5 -14.5c0 -32.667 -15 -64.167 -45 -94.5s-73.167 -55.166 -129.5 -74.499s-123.833 -29 -202.5 -29c-53.333 0 -102.333 8.33301 -147 25s-80.667 42.167 -108 76.5s-41 77.5 -41 129.5z" />
    <glyph glyph-name="uniFDF2" unicode="&#x627;&#xfedf;&#xfee0;&#xfeea;" horiz-adv-x="1284" arabic-form="isolated" 
d="M486 -5c-43.333 0 -80.499 7.50293 -111.499 22.5029s-52.833 41.833 -65.5 80.5c-35.333 -8.66699 -69.666 -12.167 -102.999 -10.5s-63.166 8 -89.499 19s-47.333 26.333 -63 46s-23.5 43.167 -23.5 70.5c0 35.333 11.333 68 34 98s53.334 55.333 92.001 76
s81.334 35 128.001 43l-3 76h81l16 -330c1.33301 -31.333 6.83301 -54.833 16.5 -70.5s23 -26 40 -31s37.5 -7.5 61.5 -7.5c37.333 0 63.666 3.66699 78.999 11s24.166 20.166 26.499 38.499s2.83301 44.5 1.5 78.5l-13 363h83l12 -361c0.666992 -34 6 -60.5 16 -79.5
s23.333 -32.167 40 -39.5s35 -11 55 -11c37.333 0 63.666 3.66699 78.999 11s24.166 20.166 26.499 38.499s2.83301 44.5 1.5 78.5l-19 509h81l20 -500c2 -47.333 -1.16699 -87.333 -9.5 -120s-27 -57.334 -56 -74.001s-73.5 -25 -133.5 -25c-34 0 -60.833 6.5 -80.5 19.5
s-34.167 28.833 -43.5 47.5c-13.333 -22 -33.833 -38.667 -61.5 -50s-65.834 -17 -114.501 -17zM1138 0.00292969l-20 714h81l20 -714h-81zM297.001 174.003l-9 183.001c-38.667 -4.66699 -71.167 -13.5 -97.5 -26.5s-46.5 -28 -60.5 -45s-21 -33.5 -21 -49.5
s6.16699 -28.833 18.5 -38.5s28.166 -16.834 47.499 -21.501s39.833 -7 61.5 -7s41.834 1.66699 60.501 5zM551.001 620.004c-26.667 0 -44.334 8.83496 -53.001 26.502s-13 36.5 -13 56.5c0 7.33301 0.5 15.166 1.5 23.499s2.5 17.833 4.5 28.5l50 14
c-4 -22.667 -6 -41.667 -6 -57c0 -24.667 8.33301 -37 25 -37c10 0 18.333 5.16699 25 15.5s10.334 31.166 11.001 62.499v30l48 18v-61c0 -9.33301 1.83301 -17.5 5.5 -24.5s11.5 -10.5 23.5 -10.5s20 3.66699 24 11s6 16.666 6 27.999s-1.33301 22.833 -4 34.5
s-6.33398 23.167 -11.001 34.5l45 14c6.66699 -13.333 12.167 -28 16.5 -44s6.5 -30.667 6.5 -44c0 -22 -6.16699 -41.833 -18.5 -59.5s-31.5 -26.5 -57.5 -26.5c-21.333 0 -38.666 6 -51.999 18c-6 -15.333 -15.833 -27.666 -29.5 -36.999s-29.5 -14 -47.5 -14z
M586.001 830.006l-6 173h55l6 -173h-55z" />
    <glyph glyph-name="uniFEF5" unicode="&#xfedf;&#xfe82;" horiz-adv-x="678" arabic-form="isolated" 
d="M393 536c0 14.667 -0.999023 32.332 -2.99902 52.999s-4.33301 41.334 -7 62.001s-5.33398 38.334 -8.00098 53.001l86 10c2 -13.333 4 -30.833 6 -52.5s3.83301 -43.334 5.5 -65.001s2.5 -39.167 2.5 -52.5c0 -42 -3.83301 -82.833 -11.5 -122.5
s-20.167 -78.167 -37.5 -115.5c31.333 -32.667 54.333 -62.667 69 -90s22 -54.333 22 -81c0 -19.333 -4.66699 -39.5 -14 -60.5s-26.333 -38.667 -51 -53s-60.334 -21.5 -107.001 -21.5h-230v81c100 71.333 171.333 142.333 214 213c-37.333 33.333 -81.166 69 -131.499 107
l-157.5 116l47 66l158 -119.5c46 -35.667 85.667 -68.5 119 -98.5c10 26.667 17.333 54.167 22 82.5s7 57.833 7 88.5zM234.001 81.998h126.002c34 0 56.333 6.16699 67 18.5s16 26.5 16 42.5c0 12 -4.83301 26 -14.5 42s-23.167 33.333 -40.5 52
c-18.667 -28 -40.834 -55 -66.501 -81s-54.834 -50.667 -87.501 -74zM276.003 638.998c-20 0 -38 3.5 -54 10.5s-30.667 13.833 -44 20.5s-25.666 10 -36.999 10c-12 0 -22.833 -3 -32.5 -9s-19.834 -14.333 -30.501 -25l-38 32c14.667 19.333 30.334 34.5 47.001 45.5
s34.667 16.5 54 16.5c16.667 0 32 -3.33301 46 -10l42 -20c14 -6.66699 29.667 -10 47 -10c10.667 0 20.667 1.83301 30 5.5s20.666 9.5 33.999 17.5l29 -41c-21.333 -18.667 -39.5 -30.5 -54.5 -35.5s-27.833 -7.5 -38.5 -7.5z" />
    <glyph glyph-name="uniFEF6" unicode="&#xfee0;&#xfe82;" horiz-adv-x="689" arabic-form="final" 
d="M142 -5c-18 0 -36.168 1.50195 -54.501 4.50195s-31.166 5.16699 -38.499 6.5l11 79c60 -8 114.833 -7.16699 164.5 2.5s89.167 33.834 118.5 72.501c-26 42.667 -65 94.5 -117 155.5s-114 123.833 -186 188.5l54 57c70.667 -66.667 129 -127 175 -181s83 -101 111 -141
c8 28.667 12.667 61.334 14 98.001l-14 377h82l20 -515c1.33301 -32.667 4.5 -57.834 9.5 -75.501s16.333 -29.834 34 -36.501s45.5 -10 83.5 -10c14 0 24.167 -3.83301 30.5 -11.5s9.5 -16.834 9.5 -27.501s-4.66699 -20.5 -14 -29.5s-21.333 -13.5 -36 -13.5
c-46.667 0 -83.667 4.5 -111 13.5s-47.333 23 -60 42s-21 43.5 -25 73.5c-20.667 -36.667 -46 -64.334 -76 -83.001s-61.167 -31 -93.5 -37s-62.833 -9 -91.5 -9zM275.999 639.002c-20 0 -38 3.5 -54 10.5s-30.667 13.833 -44 20.5s-25.666 10 -36.999 10
c-12 0 -22.833 -3 -32.5 -9s-19.834 -14.333 -30.501 -25l-38 32c14.667 19.333 30.334 34.5 47.001 45.5s34.667 16.5 54 16.5c16.667 0 32 -3.33301 46 -10l42 -20c14 -6.66699 29.667 -10 47 -10c10.667 0 20.667 1.83301 30 5.5s20.666 9.5 33.999 17.5l29 -41
c-21.333 -18.667 -39.5 -30.5 -54.5 -35.5s-27.833 -7.5 -38.5 -7.5z" />
    <glyph glyph-name="uniFEF7" unicode="&#xfedf;&#xfe84;" horiz-adv-x="582" arabic-form="isolated" 
d="M393 536c0 14.667 -0.999023 32.332 -2.99902 52.999s-4.33301 41.334 -7 62.001s-5.33398 38.334 -8.00098 53.001l86 10c2 -13.333 4 -30.833 6 -52.5s3.83301 -43.334 5.5 -65.001s2.5 -39.167 2.5 -52.5c0 -42 -3.83301 -82.833 -11.5 -122.5
s-20.167 -78.167 -37.5 -115.5c31.333 -32.667 54.333 -62.667 69 -90s22 -54.333 22 -81c0 -19.333 -4.66699 -39.5 -14 -60.5s-26.333 -38.667 -51 -53s-60.334 -21.5 -107.001 -21.5h-230v81c100 71.333 171.333 142.333 214 213c-37.333 33.333 -81.166 69 -131.499 107
l-157.5 116l47 66l158 -119.5c46 -35.667 85.667 -68.5 119 -98.5c10 26.667 17.333 54.167 22 82.5s7 57.833 7 88.5zM234.001 81.998h126.002c34 0 56.333 6.16699 67 18.5s16 26.5 16 42.5c0 12 -4.83301 26 -14.5 42s-23.167 33.333 -40.5 52
c-18.667 -28 -40.834 -55 -66.501 -81s-54.834 -50.667 -87.501 -74zM52.0029 635.998l-11.999 53.999c10 2 18.667 4 26 6s14.333 3.66699 21 5c-12.667 8.66699 -23.667 20 -33 34s-14 29.333 -14 46c0 30 10.5 52.667 31.5 68s44.833 23 71.5 23
c15.333 0 31 -2.66699 47 -8l-8 -50l-19.5 4c-6.33301 1.33301 -12.833 2 -19.5 2c-32.667 0 -49 -12 -49 -36c0 -17.333 6.5 -31.666 19.5 -42.999s25.833 -18.666 38.5 -21.999c25.333 7.33301 47.666 14.666 66.999 21.999l16 -51c-16 -6 -34.833 -12.333 -56.5 -19
l-66 -19.5c-22.333 -6.33301 -42.5 -11.5 -60.5 -15.5z" />
    <glyph glyph-name="uniFEF8" unicode="&#xfee0;&#xfe84;" horiz-adv-x="599" arabic-form="final" 
d="M142 -5c-18 0 -36.168 1.50195 -54.501 4.50195s-31.166 5.16699 -38.499 6.5l11 79c60 -8 114.833 -7.16699 164.5 2.5s89.167 33.834 118.5 72.501c-26 42.667 -65 94.5 -117 155.5s-114 123.833 -186 188.5l54 57c70.667 -66.667 129 -127 175 -181s83 -101 111 -141
c8 28.667 12.667 61.334 14 98.001l-14 377h82l20 -515c1.33301 -32.667 4.5 -57.834 9.5 -75.501s16.333 -29.834 34 -36.501s45.5 -10 83.5 -10c14 0 24.167 -3.83301 30.5 -11.5s9.5 -16.834 9.5 -27.501s-4.66699 -20.5 -14 -29.5s-21.333 -13.5 -36 -13.5
c-46.667 0 -83.667 4.5 -111 13.5s-47.333 23 -60 42s-21 43.5 -25 73.5c-20.667 -36.667 -46 -64.334 -76 -83.001s-61.167 -31 -93.5 -37s-62.833 -9 -91.5 -9zM51.999 636.002l-11.999 53.999c10 2 18.667 4 26 6s14.333 3.66699 21 5c-12.667 8.66699 -23.667 20 -33 34
s-14 29.333 -14 46c0 30 10.5 52.667 31.5 68s44.833 23 71.5 23c15.333 0 31 -2.66699 47 -8l-8 -50l-19.5 4c-6.33301 1.33301 -12.833 2 -19.5 2c-32.667 0 -49 -12 -49 -36c0 -17.333 6.5 -31.666 19.5 -42.999s25.833 -18.666 38.5 -21.999
c25.333 7.33301 47.666 14.666 66.999 21.999l16 -51c-16 -6 -34.833 -12.333 -56.5 -19l-66 -19.5c-22.333 -6.33301 -42.5 -11.5 -60.5 -15.5z" />
    <glyph glyph-name="uniFEF9" unicode="&#xfedf;&#xfe88;" horiz-adv-x="582" arabic-form="isolated" 
d="M393 536c0 14.667 -0.999023 32.332 -2.99902 52.999s-4.33301 41.334 -7 62.001s-5.33398 38.334 -8.00098 53.001l86 10c2 -13.333 4 -30.833 6 -52.5s3.83301 -43.334 5.5 -65.001s2.5 -39.167 2.5 -52.5c0 -42 -3.83301 -82.833 -11.5 -122.5
s-20.167 -78.167 -37.5 -115.5c31.333 -32.667 54.333 -62.667 69 -90s22 -54.333 22 -81c0 -19.333 -4.66699 -39.5 -14 -60.5s-26.333 -38.667 -51 -53s-60.334 -21.5 -107.001 -21.5h-230v81c100 71.333 171.333 142.333 214 213c-37.333 33.333 -81.166 69 -131.499 107
l-157.5 116l47 66l158 -119.5c46 -35.667 85.667 -68.5 119 -98.5c10 26.667 17.333 54.167 22 82.5s7 57.833 7 88.5zM234.001 81.998h126.002c34 0 56.333 6.16699 67 18.5s16 26.5 16 42.5c0 12 -4.83301 26 -14.5 42s-23.167 33.333 -40.5 52
c-18.667 -28 -40.834 -55 -66.501 -81s-54.834 -50.667 -87.501 -74zM97.0029 -303.002l-11.999 53.999c10 2 18.667 4 26 6s14.333 3.66699 21 5c-12.667 8.66699 -23.667 20 -33 34s-14 29.333 -14 46c0 30 10.5 52.667 31.5 68s44.833 23 71.5 23
c15.333 0 31 -2.66699 47 -8l-8 -50l-19.5 4c-6.33301 1.33301 -12.833 2 -19.5 2c-32.667 0 -49 -12 -49 -36c0 -17.333 6.5 -31.666 19.5 -42.999s25.833 -18.666 38.5 -21.999c25.333 7.33301 47.666 14.666 66.999 21.999l16 -51c-16 -6 -34.833 -12.333 -56.5 -19
l-66 -19.5c-22.333 -6.33301 -42.5 -11.5 -60.5 -15.5z" />
    <glyph glyph-name="uniFEFA" unicode="&#xfee0;&#xfe88;" horiz-adv-x="599" arabic-form="final" 
d="M142 -5c-18 0 -36.168 1.50195 -54.501 4.50195s-31.166 5.16699 -38.499 6.5l11 79c60 -8 114.833 -7.16699 164.5 2.5s89.167 33.834 118.5 72.501c-26 42.667 -65 94.5 -117 155.5s-114 123.833 -186 188.5l54 57c70.667 -66.667 129 -127 175 -181s83 -101 111 -141
c8 28.667 12.667 61.334 14 98.001l-14 377h82l20 -515c1.33301 -32.667 4.5 -57.834 9.5 -75.501s16.333 -29.834 34 -36.501s45.5 -10 83.5 -10c14 0 24.167 -3.83301 30.5 -11.5s9.5 -16.834 9.5 -27.501s-4.66699 -20.5 -14 -29.5s-21.333 -13.5 -36 -13.5
c-46.667 0 -83.667 4.5 -111 13.5s-47.333 23 -60 42s-21 43.5 -25 73.5c-20.667 -36.667 -46 -64.334 -76 -83.001s-61.167 -31 -93.5 -37s-62.833 -9 -91.5 -9zM96.999 -302.998l-11.999 53.999c10 2 18.667 4 26 6s14.333 3.66699 21 5
c-12.667 8.66699 -23.667 20 -33 34s-14 29.333 -14 46c0 30 10.5 52.667 31.5 68s44.833 23 71.5 23c15.333 0 31 -2.66699 47 -8l-8 -50l-19.5 4c-6.33301 1.33301 -12.833 2 -19.5 2c-32.667 0 -49 -12 -49 -36c0 -17.333 6.5 -31.666 19.5 -42.999
s25.833 -18.666 38.5 -21.999c25.333 7.33301 47.666 14.666 66.999 21.999l16 -51c-16 -6 -34.833 -12.333 -56.5 -19l-66 -19.5c-22.333 -6.33301 -42.5 -11.5 -60.5 -15.5z" />
    <glyph glyph-name="uniFEFB" unicode="&#xfedf;&#xfe8e;" horiz-adv-x="582" arabic-form="isolated" 
d="M393 536c0 14.667 -0.999023 32.332 -2.99902 52.999s-4.33301 41.334 -7 62.001s-5.33398 38.334 -8.00098 53.001l86 10c2 -13.333 4 -30.833 6 -52.5s3.83301 -43.334 5.5 -65.001s2.5 -39.167 2.5 -52.5c0 -42 -3.83301 -82.833 -11.5 -122.5
s-20.167 -78.167 -37.5 -115.5c31.333 -32.667 54.333 -62.667 69 -90s22 -54.333 22 -81c0 -19.333 -4.66699 -39.5 -14 -60.5s-26.333 -38.667 -51 -53s-60.334 -21.5 -107.001 -21.5h-230v81c100 71.333 171.333 142.333 214 213c-37.333 33.333 -81.166 69 -131.499 107
l-157.5 116l47 66l158 -119.5c46 -35.667 85.667 -68.5 119 -98.5c10 26.667 17.333 54.167 22 82.5s7 57.833 7 88.5zM234.001 81.998h126.002c34 0 56.333 6.16699 67 18.5s16 26.5 16 42.5c0 12 -4.83301 26 -14.5 42s-23.167 33.333 -40.5 52
c-18.667 -28 -40.834 -55 -66.501 -81s-54.834 -50.667 -87.501 -74z" />
    <glyph glyph-name="uniFEFC" unicode="&#xfee0;&#xfe8e;" horiz-adv-x="599" arabic-form="final" 
d="M142 -5c-18 0 -36.168 1.50195 -54.501 4.50195s-31.166 5.16699 -38.499 6.5l11 79c60 -8 114.833 -7.16699 164.5 2.5s89.167 33.834 118.5 72.501c-26 42.667 -65 94.5 -117 155.5s-114 123.833 -186 188.5l54 57c70.667 -66.667 129 -127 175 -181s83 -101 111 -141
c8 28.667 12.667 61.334 14 98.001l-14 377h82l20 -515c1.33301 -32.667 4.5 -57.834 9.5 -75.501s16.333 -29.834 34 -36.501s45.5 -10 83.5 -10c14 0 24.167 -3.83301 30.5 -11.5s9.5 -16.834 9.5 -27.501s-4.66699 -20.5 -14 -29.5s-21.333 -13.5 -36 -13.5
c-46.667 0 -83.667 4.5 -111 13.5s-47.333 23 -60 42s-21 43.5 -25 73.5c-20.667 -36.667 -46 -64.334 -76 -83.001s-61.167 -31 -93.5 -37s-62.833 -9 -91.5 -9z" />
    <glyph glyph-name="lam_alefWasla-ar" unicode="&#xfedf;&#xfb51;" horiz-adv-x="503" 
d="M393 536c0 14.667 -0.999023 32.332 -2.99902 52.999s-4.33301 41.334 -7 62.001s-5.33398 38.334 -8.00098 53.001l86 10c2 -13.333 4 -30.833 6 -52.5s3.83301 -43.334 5.5 -65.001s2.5 -39.167 2.5 -52.5c0 -42 -3.83301 -82.833 -11.5 -122.5
s-20.167 -78.167 -37.5 -115.5c31.333 -32.667 54.333 -62.667 69 -90s22 -54.333 22 -81c0 -19.333 -4.66699 -39.5 -14 -60.5s-26.333 -38.667 -51 -53s-60.334 -21.5 -107.001 -21.5h-230v81c100 71.333 171.333 142.333 214 213c-37.333 33.333 -81.166 69 -131.499 107
l-157.5 116l47 66l158 -119.5c46 -35.667 85.667 -68.5 119 -98.5c10 26.667 17.333 54.167 22 82.5s7 57.833 7 88.5zM234.001 81.998h126.002c34 0 56.333 6.16699 67 18.5s16 26.5 16 42.5c0 12 -4.83301 26 -14.5 42s-23.167 33.333 -40.5 52
c-18.667 -28 -40.834 -55 -66.501 -81s-54.834 -50.667 -87.501 -74zM151.003 660.998c-14.667 0 -32.167 0.666992 -52.5 2s-39.666 3.16602 -57.999 5.49902s-31.833 4.16602 -40.5 5.49902l7 51c6 -0.666992 13.667 -1.66699 23 -3s19.666 -2.33301 30.999 -3
c9.33301 20 20.833 40 34.5 60s29.667 36.833 48 50.5s39.833 20.5 64.5 20.5c21.333 0 41.5 -6.66699 60.5 -20s28.5 -35.666 28.5 -66.999c0 -16.667 -4 -32.667 -12 -48s-22.667 -28.166 -44 -38.499s-51.333 -15.5 -90 -15.5zM204.003 795.998
c-16.667 0 -32.667 -7.66797 -48 -23.001s-29.333 -35 -42 -59c14 -0.666992 26.333 -1 37 -1c38 0 62.833 4.33301 74.5 13s17.5 19.334 17.5 32.001c0 13.333 -4 23 -12 29s-17 9 -27 9z" />
    <glyph glyph-name="lam_alefWasla-ar.fina" unicode="&#xfee0;&#xfb51;" horiz-adv-x="635" 
d="M142 -5c-18 0 -36.168 1.50195 -54.501 4.50195s-31.166 5.16699 -38.499 6.5l11 79c60 -8 114.833 -7.16699 164.5 2.5s89.167 33.834 118.5 72.501c-26 42.667 -65 94.5 -117 155.5s-114 123.833 -186 188.5l54 57c70.667 -66.667 129 -127 175 -181s83 -101 111 -141
c8 28.667 12.667 61.334 14 98.001l-14 377h82l20 -515c1.33301 -32.667 4.5 -57.834 9.5 -75.501s16.333 -29.834 34 -36.501s45.5 -10 83.5 -10c14 0 24.167 -3.83301 30.5 -11.5s9.5 -16.834 9.5 -27.501s-4.66699 -20.5 -14 -29.5s-21.333 -13.5 -36 -13.5
c-46.667 0 -83.667 4.5 -111 13.5s-47.333 23 -60 42s-21 43.5 -25 73.5c-20.667 -36.667 -46 -64.334 -76 -83.001s-61.167 -31 -93.5 -37s-62.833 -9 -91.5 -9zM150.999 661.002c-14.667 0 -32.167 0.666992 -52.5 2s-39.666 3.16602 -57.999 5.49902
s-31.833 4.16602 -40.5 5.49902l7 51c6 -0.666992 13.667 -1.66699 23 -3s19.666 -2.33301 30.999 -3c9.33301 20 20.833 40 34.5 60s29.667 36.833 48 50.5s39.833 20.5 64.5 20.5c21.333 0 41.5 -6.66699 60.5 -20s28.5 -35.666 28.5 -66.999
c0 -16.667 -4 -32.667 -12 -48s-22.667 -28.166 -44 -38.499s-51.333 -15.5 -90 -15.5zM203.999 796.002c-16.667 0 -32.667 -7.66797 -48 -23.001s-29.333 -35 -42 -59c14 -0.666992 26.333 -1 37 -1c38 0 62.833 4.33301 74.5 13s17.5 19.334 17.5 32.001
c0 13.333 -4 23 -12 29s-17 9 -27 9z" />
    <glyph glyph-name="lam_alefMaksura_meem-ar" unicode="&#xfedf;&#xfbe9;&#xfee2;" horiz-adv-x="1091" 
d="M831 -5l9.00098 82.002c38 0 64.667 3.66699 80 11s24.166 20.166 26.499 38.499s2.83301 44.5 1.5 78.5l-19 509h81l20 -500c2 -47.333 -1.16699 -87.333 -9.5 -120s-27 -57.334 -56 -74.001s-73.5 -25 -133.5 -25zM562.001 -4.99805l10 81.999c32 0 57.833 2 77.5 6
s33.834 12.167 42.501 24.5s13 30.833 13 55.5s-5.83301 56.334 -17.5 95.001s-24.834 77 -39.501 115l81 30c8.66699 -22 16.834 -46.5 24.501 -73.5s14.167 -53.833 19.5 -80.5s8 -50 8 -70c0 -67.333 -17.833 -114.833 -53.5 -142.5s-90.834 -41.5 -165.501 -41.5z
M77.001 -392.999c-14 51.333 -25.9971 101.5 -35.9971 150.5s-17.667 92.667 -23 131s-8 67.166 -8 86.499c0 49.333 8 94.333 24 135s36.667 76.5 62 107.5s52.666 57.333 81.999 79s57.833 38 85.5 49s51.167 16.5 70.5 16.5c16 0 30.5 -3.66699 43.5 -11
s25.333 -21.666 37 -42.999s24.5 -52.666 38.5 -93.999c12.667 -38.667 24.667 -67.667 36 -87s23.666 -32.5 36.999 -39.5s28.666 -10.5 45.999 -10.5c14 0 24.167 -3.83301 30.5 -11.5s9.5 -16.834 9.5 -27.501s-4.66699 -20.5 -14 -29.5s-21.333 -13.5 -36 -13.5
c-23.333 0 -43.5 3.83301 -60.5 11.5s-32.167 18.167 -45.5 31.5c-12.667 -19.333 -28 -33.5 -46 -42.5s-37.333 -13.5 -58 -13.5c-24.667 0 -50.5 5.83301 -77.5 17.5s-52.833 28.834 -77.5 51.501s-46 50 -64 82c-16.667 -25.333 -27.667 -52.5 -33 -81.5
s-8 -54.5 -8 -76.5c0 -19.333 2 -43.333 6 -72s9.16699 -59.334 15.5 -92.001s13.333 -65.167 21 -97.5l21.5 -87.5zM360.004 64.001c17.333 0 30.3311 5.33203 38.998 15.999s9.66699 26.334 3 47.001c-15.333 48.667 -29.166 85.167 -41.499 109.5
s-25.833 36.5 -40.5 36.5s-35.167 -6.5 -61.5 -19.5s-50.166 -31.833 -71.499 -56.5c14.667 -30 32.5 -55 53.5 -75s42 -34.667 63 -44s39.833 -14 56.5 -14z" />
    <glyph glyph-name="kehehTwodotshorizontalabove-ar.init" unicode="&#x63b;" horiz-adv-x="412" 
d="M0 -5l10.002 81.999h94c38.667 0 69.667 2.16699 93 6.5s40.5 10 51.5 17s18.333 14.667 22 23s5.5 16.833 5.5 25.5c0 15.333 -5.83301 34.333 -17.5 57s-35.5 52 -71.5 88c-24.667 25.333 -49.334 47.666 -74.001 66.999l-61 49c-16 13.333 -24 23 -24 29
c0 15.333 1.66699 29.666 5 42.999s8.66602 23.666 15.999 30.999c26.667 28.667 68.5 57.334 125.5 86.001l213.5 108l34 -74l-148.5 -72.5c-38.333 -19 -70 -35.667 -95 -50s-48.167 -28.833 -69.5 -43.5c78 -63.333 137.833 -120.166 179.5 -170.499
s62.5 -101.166 62.5 -152.499c0 -14.667 -2.66699 -30.667 -8 -48s-16.666 -33.666 -33.999 -48.999s-43.333 -27.833 -78 -37.5s-81.334 -14.5 -140.001 -14.5h-91zM262.002 722.999c-14 0 -25.833 4.83301 -35.5 14.5s-14.5 21.167 -14.5 34.5s4.83301 25 14.5 35
s21.5 15 35.5 15c13.333 0 24.833 -5 34.5 -15s14.5 -21.667 14.5 -35s-4.83301 -24.833 -14.5 -34.5s-21.167 -14.5 -34.5 -14.5zM147.002 669.999c-14 0 -25.833 4.83301 -35.5 14.5s-14.5 21.167 -14.5 34.5s4.83301 25 14.5 35s21.5 15 35.5 15
c13.333 0 24.833 -5 34.5 -15s14.5 -21.667 14.5 -35s-4.83301 -24.833 -14.5 -34.5s-21.167 -14.5 -34.5 -14.5z" />
    <glyph glyph-name="kehehTwodotshorizontalabove-ar.medi" unicode="&#x63b;" horiz-adv-x="508" 
d="M0 -5l10.001 82.0059h77c55.333 0 96.333 3 123 9s44.167 13.833 52.5 23.5s12.5 20.167 12.5 31.5c0 16 -6 33.667 -18 53s-27.333 39.166 -46 59.499s-38.5 40.5 -59.5 60.5l-59.5 55c-18.667 16.667 -34 31.167 -46 43.5s-18 21.166 -18 26.499
c0 15.333 1.66699 29.666 5 42.999s8.66602 23.666 15.999 30.999c18 19.333 44.5 39.5 79.5 60.5s75.167 42.667 120.5 65l139 68.5l34 -74l-172.5 -85c-56.333 -27.333 -105.5 -55.666 -147.5 -84.999l103 -91c32 -29.333 61.667 -60.833 89 -94.5
s52.333 -71.834 75 -114.501c14 -26 30.333 -45 49 -57s37 -19.833 55 -23.5s33 -5.5 45 -5.5c14 0 24.167 -3.83301 30.5 -11.5s9.5 -16.834 9.5 -27.501s-4.66699 -20.5 -14 -29.5s-21.333 -13.5 -36 -13.5c-16 0 -34.5 2.16699 -55.5 6.5s-42.167 12.666 -63.5 24.999
s-40 30.5 -56 54.5c-13.333 -19.333 -30 -35.333 -50 -48s-46 -22.167 -78 -28.5s-72.667 -9.5 -122 -9.5h-83zM230.001 723.006c-14 0 -25.833 4.83301 -35.5 14.5s-14.5 21.167 -14.5 34.5s4.83301 25 14.5 35s21.5 15 35.5 15c13.333 0 24.833 -5 34.5 -15
s14.5 -21.667 14.5 -35s-4.83301 -24.833 -14.5 -34.5s-21.167 -14.5 -34.5 -14.5zM115.001 670.006c-14 0 -25.833 4.83301 -35.5 14.5s-14.5 21.167 -14.5 34.5s4.83301 25 14.5 35s21.5 15 35.5 15c13.333 0 24.833 -5 34.5 -15s14.5 -21.667 14.5 -35
s-4.83301 -24.833 -14.5 -34.5s-21.167 -14.5 -34.5 -14.5z" />
    <glyph glyph-name="kehehTwodotshorizontalabove-ar.fina" unicode="&#x63b;" horiz-adv-x="975" 
d="M390 -21c-118.667 0 -208.33 15.5078 -268.997 46.5078s-91 83.167 -91 156.5c0 24.667 3 50.834 9 78.501s12.333 53.834 19 78.501l75 -19c-4 -14.667 -8.5 -33.334 -13.5 -56.001s-7.5 -42.334 -7.5 -59.001c0 -34.667 8.83301 -62.5 26.5 -83.5
s48.5 -36.333 92.5 -46s105.667 -14.5 185 -14.5c83.333 0 148.666 4.33301 195.999 13s80.833 19.167 100.5 31.5s29.5 24.166 29.5 35.499c0 16 -6 33.667 -18 53s-27.333 39.166 -46 59.499s-38.5 40.5 -59.5 60.5l-59.5 55c-18.667 16.667 -34 31.167 -46 43.5
s-18 21.166 -18 26.499c0 15.333 1.83301 29.666 5.5 42.999s8.83398 23.666 15.501 30.999c17.333 19.333 43.666 39.5 78.999 60.5s75.666 42.667 120.999 65l139 68.5l34 -74l-172.5 -85c-56.333 -27.333 -105.5 -55.666 -147.5 -84.999l103 -91
c32 -29.333 61.667 -60.833 89 -94.5s52.333 -71.834 75 -114.501c13.333 -26 29.5 -45 48.5 -57s37.667 -19.833 56 -23.5s33.166 -5.5 44.499 -5.5c14 0 24.167 -3.83301 30.5 -11.5s9.5 -16.834 9.5 -27.501s-4.66699 -20.5 -14 -29.5s-21.333 -13.5 -36 -13.5
c-16 0 -34.667 2.16699 -56 6.5s-42.5 12.666 -63.5 24.999s-39.5 30.5 -55.5 54.5c-11.333 -14.667 -26.333 -28.334 -45 -41.001s-43.5 -23.5 -74.5 -32.5s-70.167 -16 -117.5 -21s-105 -7.5 -173 -7.5zM733.004 723.008c-14 0 -25.833 4.83301 -35.5 14.5
s-14.5 21.167 -14.5 34.5s4.83301 25 14.5 35s21.5 15 35.5 15c13.333 0 24.833 -5 34.5 -15s14.5 -21.667 14.5 -35s-4.83301 -24.833 -14.5 -34.5s-21.167 -14.5 -34.5 -14.5zM618.004 670.008c-14 0 -25.833 4.83301 -35.5 14.5s-14.5 21.167 -14.5 34.5
s4.83301 25 14.5 35s21.5 15 35.5 15c13.333 0 24.833 -5 34.5 -15s14.5 -21.667 14.5 -35s-4.83301 -24.833 -14.5 -34.5s-21.167 -14.5 -34.5 -14.5z" />
    <glyph glyph-name="kehehThreedotsbelow-ar.init" unicode="&#x63c;" horiz-adv-x="412" 
d="M0 -5l10.002 81.999h94c38.667 0 69.667 2.16699 93 6.5s40.5 10 51.5 17s18.333 14.667 22 23s5.5 16.833 5.5 25.5c0 15.333 -5.83301 34.333 -17.5 57s-35.5 52 -71.5 88c-24.667 25.333 -49.334 47.666 -74.001 66.999l-61 49c-16 13.333 -24 23 -24 29
c0 15.333 1.66699 29.666 5 42.999s8.66602 23.666 15.999 30.999c26.667 28.667 68.5 57.334 125.5 86.001l213.5 108l34 -74l-148.5 -72.5c-38.333 -19 -70 -35.667 -95 -50s-48.167 -28.833 -69.5 -43.5c78 -63.333 137.833 -120.166 179.5 -170.499
s62.5 -101.166 62.5 -152.499c0 -14.667 -2.66699 -30.667 -8 -48s-16.666 -33.666 -33.999 -48.999s-43.333 -27.833 -78 -37.5s-81.334 -14.5 -140.001 -14.5h-91zM95.002 -189.001c-14 0 -25.833 4.83301 -35.5 14.5s-14.5 21.167 -14.5 34.5s4.83301 25 14.5 35
s21.5 15 35.5 15c13.333 0 24.833 -5 34.5 -15s14.5 -21.667 14.5 -35s-4.83301 -24.833 -14.5 -34.5s-21.167 -14.5 -34.5 -14.5zM231.002 -189.001c-14 0 -25.833 4.83301 -35.5 14.5s-14.5 21.167 -14.5 34.5s4.83301 25 14.5 35s21.5 15 35.5 15
c13.333 0 24.833 -5 34.5 -15s14.5 -21.667 14.5 -35s-4.83301 -24.833 -14.5 -34.5s-21.167 -14.5 -34.5 -14.5zM163.002 -299.001c-14 0 -25.833 4.83301 -35.5 14.5s-14.5 21.167 -14.5 34.5s4.83301 25 14.5 35s21.5 15 35.5 15c13.333 0 24.833 -5 34.5 -15
s14.5 -21.667 14.5 -35s-4.83301 -24.833 -14.5 -34.5s-21.167 -14.5 -34.5 -14.5z" />
    <glyph glyph-name="kehehThreedotsbelow-ar.medi" unicode="&#x63c;" horiz-adv-x="508" 
d="M0 -5l10.001 82.0059h77c55.333 0 96.333 3 123 9s44.167 13.833 52.5 23.5s12.5 20.167 12.5 31.5c0 16 -6 33.667 -18 53s-27.333 39.166 -46 59.499s-38.5 40.5 -59.5 60.5l-59.5 55c-18.667 16.667 -34 31.167 -46 43.5s-18 21.166 -18 26.499
c0 15.333 1.66699 29.666 5 42.999s8.66602 23.666 15.999 30.999c18 19.333 44.5 39.5 79.5 60.5s75.167 42.667 120.5 65l139 68.5l34 -74l-172.5 -85c-56.333 -27.333 -105.5 -55.666 -147.5 -84.999l103 -91c32 -29.333 61.667 -60.833 89 -94.5
s52.333 -71.834 75 -114.501c14 -26 30.333 -45 49 -57s37 -19.833 55 -23.5s33 -5.5 45 -5.5c14 0 24.167 -3.83301 30.5 -11.5s9.5 -16.834 9.5 -27.501s-4.66699 -20.5 -14 -29.5s-21.333 -13.5 -36 -13.5c-16 0 -34.5 2.16699 -55.5 6.5s-42.167 12.666 -63.5 24.999
s-40 30.5 -56 54.5c-13.333 -19.333 -30 -35.333 -50 -48s-46 -22.167 -78 -28.5s-72.667 -9.5 -122 -9.5h-83zM95.001 -188.994c-14 0 -25.833 4.83301 -35.5 14.5s-14.5 21.167 -14.5 34.5s4.83301 25 14.5 35s21.5 15 35.5 15c13.333 0 24.833 -5 34.5 -15
s14.5 -21.667 14.5 -35s-4.83301 -24.833 -14.5 -34.5s-21.167 -14.5 -34.5 -14.5zM231.001 -188.994c-14 0 -25.833 4.83301 -35.5 14.5s-14.5 21.167 -14.5 34.5s4.83301 25 14.5 35s21.5 15 35.5 15c13.333 0 24.833 -5 34.5 -15s14.5 -21.667 14.5 -35
s-4.83301 -24.833 -14.5 -34.5s-21.167 -14.5 -34.5 -14.5zM163.001 -298.994c-14 0 -25.833 4.83301 -35.5 14.5s-14.5 21.167 -14.5 34.5s4.83301 25 14.5 35s21.5 15 35.5 15c13.333 0 24.833 -5 34.5 -15s14.5 -21.667 14.5 -35s-4.83301 -24.833 -14.5 -34.5
s-21.167 -14.5 -34.5 -14.5z" />
    <glyph glyph-name="kehehThreedotsbelow-ar.fina" unicode="&#x63c;" horiz-adv-x="975" 
d="M390 -21c-118.667 0 -208.33 15.5078 -268.997 46.5078s-91 83.167 -91 156.5c0 24.667 3 50.834 9 78.501s12.333 53.834 19 78.501l75 -19c-4 -14.667 -8.5 -33.334 -13.5 -56.001s-7.5 -42.334 -7.5 -59.001c0 -34.667 8.83301 -62.5 26.5 -83.5
s48.5 -36.333 92.5 -46s105.667 -14.5 185 -14.5c83.333 0 148.666 4.33301 195.999 13s80.833 19.167 100.5 31.5s29.5 24.166 29.5 35.499c0 16 -6 33.667 -18 53s-27.333 39.166 -46 59.499s-38.5 40.5 -59.5 60.5l-59.5 55c-18.667 16.667 -34 31.167 -46 43.5
s-18 21.166 -18 26.499c0 15.333 1.83301 29.666 5.5 42.999s8.83398 23.666 15.501 30.999c17.333 19.333 43.666 39.5 78.999 60.5s75.666 42.667 120.999 65l139 68.5l34 -74l-172.5 -85c-56.333 -27.333 -105.5 -55.666 -147.5 -84.999l103 -91
c32 -29.333 61.667 -60.833 89 -94.5s52.333 -71.834 75 -114.501c13.333 -26 29.5 -45 48.5 -57s37.667 -19.833 56 -23.5s33.166 -5.5 44.499 -5.5c14 0 24.167 -3.83301 30.5 -11.5s9.5 -16.834 9.5 -27.501s-4.66699 -20.5 -14 -29.5s-21.333 -13.5 -36 -13.5
c-16 0 -34.667 2.16699 -56 6.5s-42.5 12.666 -63.5 24.999s-39.5 30.5 -55.5 54.5c-11.333 -14.667 -26.333 -28.334 -45 -41.001s-43.5 -23.5 -74.5 -32.5s-70.167 -16 -117.5 -21s-105 -7.5 -173 -7.5zM342.004 -209.992c-14 0 -25.833 4.83301 -35.5 14.5
s-14.5 21.167 -14.5 34.5s4.83301 25 14.5 35s21.5 15 35.5 15c13.333 0 24.833 -5 34.5 -15s14.5 -21.667 14.5 -35s-4.83301 -24.833 -14.5 -34.5s-21.167 -14.5 -34.5 -14.5zM478.004 -209.992c-14 0 -25.833 4.83301 -35.5 14.5s-14.5 21.167 -14.5 34.5
s4.83301 25 14.5 35s21.5 15 35.5 15c13.333 0 24.833 -5 34.5 -15s14.5 -21.667 14.5 -35s-4.83301 -24.833 -14.5 -34.5s-21.167 -14.5 -34.5 -14.5zM410.004 -319.992c-14 0 -25.833 4.83301 -35.5 14.5s-14.5 21.167 -14.5 34.5s4.83301 25 14.5 35s21.5 15 35.5 15
c13.333 0 24.833 -5 34.5 -15s14.5 -21.667 14.5 -35s-4.83301 -24.833 -14.5 -34.5s-21.167 -14.5 -34.5 -14.5z" />
    <glyph glyph-name="yehVinverted-farsi.init" unicode="&#x63d;" horiz-adv-x="269" 
d="M0 -5l10 81.999c32 0 57.833 2 77.5 6s33.834 12.167 42.501 24.5s13 30.833 13 55.5s-5.83301 56.334 -17.5 95.001s-24.834 77 -39.501 115l81 30c8.66699 -22 16.834 -46.5 24.501 -73.5s14.167 -53.833 19.5 -80.5s8 -50 8 -70
c0 -67.333 -17.833 -114.833 -53.5 -142.5s-90.834 -41.5 -165.501 -41.5zM93 725.999l59.001 6l25 -53.5l32.5 -67c11 -22.333 20.833 -40.5 29.5 -54.5l-46 -25c-4.66699 8 -11.334 20.167 -20.001 36.5l-27.5 52c-9.66699 18.333 -17.834 34.833 -24.501 49.5l-24 -55.5
l-24 -53c-7.33301 -15.667 -12.666 -26.167 -15.999 -31.5l-45 19l16 32.5l23.5 50l24 53c7.66699 17 13.5 30.833 17.5 41.5zM179.001 -194.001c-14 0 -25.833 4.83301 -35.5 14.5s-14.5 21.167 -14.5 34.5s4.83301 25 14.5 35s21.5 15 35.5 15
c13.333 0 24.833 -5 34.5 -15s14.5 -21.667 14.5 -35s-4.83301 -24.833 -14.5 -34.5s-21.167 -14.5 -34.5 -14.5zM42.001 -194.001c-14 0 -25.833 4.83301 -35.5 14.5s-14.5 21.167 -14.5 34.5s4.83301 25 14.5 35s21.5 15 35.5 15c13.333 0 24.833 -5 34.5 -15
s14.5 -21.667 14.5 -35s-4.83301 -24.833 -14.5 -34.5s-21.167 -14.5 -34.5 -14.5z" />
    <glyph glyph-name="yehVinverted-farsi.medi" unicode="&#x63d;" horiz-adv-x="343" 
d="M0 -5l9.99902 82.002c28 0 50 2.5 66 7.5s28.167 14.667 36.5 29s15.5 35.166 21.5 62.499s13.333 63 22 107l78 -15l-13.5 -62c-5 -23.333 -7.5 -43 -7.5 -59c0 -13.333 3 -25.333 9 -36s18.833 -19 38.5 -25s50.5 -9 92.5 -9c14 0 24.167 -3.83301 30.5 -11.5
s9.5 -16.834 9.5 -27.501s-4.66699 -20.5 -14 -29.5s-21.333 -13.5 -36 -13.5c-52.667 0 -91.667 5.66699 -117 17s-42.666 28.333 -51.999 51c-20 -28 -43 -46.333 -69 -55s-61 -13 -105 -13zM151.999 605.002l59.001 6l25 -53.5l32.5 -67
c11 -22.333 20.833 -40.5 29.5 -54.5l-46 -25c-4.66699 8 -11.334 20.167 -20.001 36.5l-27.5 52c-9.66699 18.333 -17.834 34.833 -24.501 49.5l-24 -55.5l-24 -53c-7.33301 -15.667 -12.666 -26.167 -15.999 -31.5l-45 19l16 32.5l23.5 50l24 53
c7.66699 17 13.5 30.833 17.5 41.5zM242 -193.998c-14 0 -25.833 4.83301 -35.5 14.5s-14.5 21.167 -14.5 34.5s4.83301 25 14.5 35s21.5 15 35.5 15c13.333 0 24.833 -5 34.5 -15s14.5 -21.667 14.5 -35s-4.83301 -24.833 -14.5 -34.5s-21.167 -14.5 -34.5 -14.5z
M105 -193.998c-14 0 -25.833 4.83301 -35.5 14.5s-14.5 21.167 -14.5 34.5s4.83301 25 14.5 35s21.5 15 35.5 15c13.333 0 24.833 -5 34.5 -15s14.5 -21.667 14.5 -35s-4.83301 -24.833 -14.5 -34.5s-21.167 -14.5 -34.5 -14.5z" />
    <glyph glyph-name="yehVinverted-farsi.fina" unicode="&#x63d;" horiz-adv-x="736" 
d="M30 -1c0 24 3.33203 50.668 9.99902 80.001s17.334 61.666 32.001 96.999l72 -28c-10.667 -28 -18.667 -53.667 -24 -77s-8 -45 -8 -65c0 -37.333 10.833 -67.5 32.5 -90.5s50.334 -39.833 86.001 -50.5s74.834 -16 117.501 -16c51.333 0 98.166 5.83301 140.499 17.5
s76.166 27.5 101.499 47.5s38 42 38 66c0 17.333 -13.333 32.333 -40 45s-64 25.667 -112 39l19 83c68.667 -27.333 122.5 -45.833 161.5 -55.5s68.833 -14.5 89.5 -14.5c14 0 24.167 -3.83301 30.5 -11.5s9.5 -16.834 9.5 -27.501s-4.66699 -20.5 -14 -29.5
s-21.333 -13.5 -36 -13.5h-37c0.666992 -6 1.5 -10.833 2.5 -14.5s1.5 -8.5 1.5 -14.5c0 -32.667 -15 -64.167 -45 -94.5s-73.167 -55.166 -129.5 -74.499s-123.833 -29 -202.5 -29c-53.333 0 -102.333 8.33301 -147 25s-80.667 42.167 -108 76.5s-41 77.5 -41 129.5z
M181.999 472.001l59.001 6l25 -53.5l32.5 -67c11 -22.333 20.833 -40.5 29.5 -54.5l-46 -25c-4.66699 8 -11.334 20.167 -20.001 36.5l-27.5 52c-9.66699 18.333 -17.834 34.833 -24.501 49.5l-24 -55.5l-24 -53c-7.33301 -15.667 -12.666 -26.167 -15.999 -31.5l-45 19
l16 32.5l23.5 50l24 53c7.66699 17 13.5 30.833 17.5 41.5z" />
    <glyph glyph-name="yehTwodotsabove-farsi.init" unicode="&#x63e;" horiz-adv-x="299" 
d="M0 -5l10.001 81.999c38.667 0 69.167 1.5 91.5 4.5s38.166 10.5 47.499 22.5s14 31.667 14 59c0 24.667 -5.83301 56.334 -17.5 95.001s-24.834 77 -39.501 115l81 30c8.66699 -22 16.834 -46.5 24.501 -73.5s14.167 -53.833 19.5 -80.5s8 -50 8 -70
c0 -67.333 -18.667 -114.833 -56 -142.5s-98.333 -41.5 -183 -41.5zM218.001 506.999c-14 0 -25.833 4.83301 -35.5 14.5s-14.5 21.167 -14.5 34.5s4.83301 25 14.5 35s21.5 15 35.5 15c13.333 0 24.833 -5 34.5 -15s14.5 -21.667 14.5 -35s-4.83301 -24.833 -14.5 -34.5
s-21.167 -14.5 -34.5 -14.5zM81.001 506.999c-14 0 -25.833 4.83301 -35.5 14.5s-14.5 21.167 -14.5 34.5s4.83301 25 14.5 35s21.5 15 35.5 15c13.333 0 24.833 -5 34.5 -15s14.5 -21.667 14.5 -35s-4.83301 -24.833 -14.5 -34.5s-21.167 -14.5 -34.5 -14.5z
M185.001 -194.001c-14 0 -25.833 4.83301 -35.5 14.5s-14.5 21.167 -14.5 34.5s4.83301 25 14.5 35s21.5 15 35.5 15c13.333 0 24.833 -5 34.5 -15s14.5 -21.667 14.5 -35s-4.83301 -24.833 -14.5 -34.5s-21.167 -14.5 -34.5 -14.5zM48.001 -194.001
c-14 0 -25.833 4.83301 -35.5 14.5s-14.5 21.167 -14.5 34.5s4.83301 25 14.5 35s21.5 15 35.5 15c13.333 0 24.833 -5 34.5 -15s14.5 -21.667 14.5 -35s-4.83301 -24.833 -14.5 -34.5s-21.167 -14.5 -34.5 -14.5z" />
    <glyph glyph-name="yehTwodotsabove-farsi.medi" unicode="&#x63e;" horiz-adv-x="373" 
d="M0 -5l9.99512 82c33.333 0 59.333 2.5 78 7.5s32.834 14.667 42.501 29s17.5 35.166 23.5 62.499s13.333 63 22 107l78 -15l-13.5 -62c-5 -23.333 -7.5 -43 -7.5 -59c0 -10 0.666992 -19.333 2 -28s6.33301 -16 15 -22s23.334 -10.833 44.001 -14.5
s50.334 -5.5 89.001 -5.5c14 0 24.167 -3.83301 30.5 -11.5s9.5 -16.834 9.5 -27.501s-4.66699 -20.5 -14 -29.5s-21.333 -13.5 -36 -13.5c-43.333 0 -77.166 2.5 -101.499 7.5s-42.333 12.333 -54 22s-20.167 21.834 -25.5 36.501
c-19.333 -27.333 -43.166 -45.166 -71.499 -53.499s-68.5 -12.5 -120.5 -12.5zM266.995 386c-14 0 -25.833 4.83301 -35.5 14.5s-14.5 21.167 -14.5 34.5s4.83301 25 14.5 35s21.5 15 35.5 15c13.333 0 24.833 -5 34.5 -15s14.5 -21.667 14.5 -35
s-4.83301 -24.833 -14.5 -34.5s-21.167 -14.5 -34.5 -14.5zM129.995 386c-14 0 -25.833 4.83301 -35.5 14.5s-14.5 21.167 -14.5 34.5s4.83301 25 14.5 35s21.5 15 35.5 15c13.333 0 24.833 -5 34.5 -15s14.5 -21.667 14.5 -35s-4.83301 -24.833 -14.5 -34.5
s-21.167 -14.5 -34.5 -14.5zM251.995 -194c-14 0 -25.833 4.83301 -35.5 14.5s-14.5 21.167 -14.5 34.5s4.83301 25 14.5 35s21.5 15 35.5 15c13.333 0 24.833 -5 34.5 -15s14.5 -21.667 14.5 -35s-4.83301 -24.833 -14.5 -34.5s-21.167 -14.5 -34.5 -14.5zM114.995 -194
c-14 0 -25.833 4.83301 -35.5 14.5s-14.5 21.167 -14.5 34.5s4.83301 25 14.5 35s21.5 15 35.5 15c13.333 0 24.833 -5 34.5 -15s14.5 -21.667 14.5 -35s-4.83301 -24.833 -14.5 -34.5s-21.167 -14.5 -34.5 -14.5z" />
    <glyph glyph-name="yehTwodotsabove-farsi.fina" unicode="&#x63e;" horiz-adv-x="736" 
d="M30 -1c0 24 3.33203 50.668 9.99902 80.001s17.334 61.666 32.001 96.999l72 -28c-10.667 -28 -18.667 -53.667 -24 -77s-8 -45 -8 -65c0 -37.333 10.833 -67.5 32.5 -90.5s50.334 -39.833 86.001 -50.5s74.834 -16 117.501 -16c51.333 0 98.166 5.83301 140.499 17.5
s76.166 27.5 101.499 47.5s38 42 38 66c0 17.333 -13.333 32.333 -40 45s-64 25.667 -112 39l19 83c68.667 -27.333 122.5 -45.833 161.5 -55.5s68.833 -14.5 89.5 -14.5c14 0 24.167 -3.83301 30.5 -11.5s9.5 -16.834 9.5 -27.501s-4.66699 -20.5 -14 -29.5
s-21.333 -13.5 -36 -13.5h-37c0.666992 -6 1.5 -10.833 2.5 -14.5s1.5 -8.5 1.5 -14.5c0 -32.667 -15 -64.167 -45 -94.5s-73.167 -55.166 -129.5 -74.499s-123.833 -29 -202.5 -29c-53.333 0 -102.333 8.33301 -147 25s-80.667 42.167 -108 76.5s-41 77.5 -41 129.5z
M286.999 253.001c-14 0 -25.833 4.83301 -35.5 14.5s-14.5 21.167 -14.5 34.5s4.83301 25 14.5 35s21.5 15 35.5 15c13.333 0 24.833 -5 34.5 -15s14.5 -21.667 14.5 -35s-4.83301 -24.833 -14.5 -34.5s-21.167 -14.5 -34.5 -14.5zM149.999 253.001
c-14 0 -25.833 4.83301 -35.5 14.5s-14.5 21.167 -14.5 34.5s4.83301 25 14.5 35s21.5 15 35.5 15c13.333 0 24.833 -5 34.5 -15s14.5 -21.667 14.5 -35s-4.83301 -24.833 -14.5 -34.5s-21.167 -14.5 -34.5 -14.5z" />
    <glyph glyph-name="yehThreedotsabove-farsi.init" unicode="&#x63f;" horiz-adv-x="299" 
d="M0 -5l10.001 81.999c38.667 0 69.167 1.5 91.5 4.5s38.166 10.5 47.499 22.5s14 31.667 14 59c0 24.667 -5.83301 56.334 -17.5 95.001s-24.834 77 -39.501 115l81 30c8.66699 -22 16.834 -46.5 24.501 -73.5s14.167 -53.833 19.5 -80.5s8 -50 8 -70
c0 -67.333 -18.667 -114.833 -56 -142.5s-98.333 -41.5 -183 -41.5zM150.001 616.999c-14 0 -25.833 4.83301 -35.5 14.5s-14.5 21.167 -14.5 34.5s4.83301 25 14.5 35s21.5 15 35.5 15c13.333 0 24.833 -5 34.5 -15s14.5 -21.667 14.5 -35s-4.83301 -24.833 -14.5 -34.5
s-21.167 -14.5 -34.5 -14.5zM82.001 506.999c-14 0 -25.833 4.83301 -35.5 14.5s-14.5 21.167 -14.5 34.5s4.83301 25 14.5 35s21.5 15 35.5 15c13.333 0 24.833 -5 34.5 -15s14.5 -21.667 14.5 -35s-4.83301 -24.833 -14.5 -34.5s-21.167 -14.5 -34.5 -14.5z
M218.001 506.999c-14 0 -25.833 4.83301 -35.5 14.5s-14.5 21.167 -14.5 34.5s4.83301 25 14.5 35s21.5 15 35.5 15c13.333 0 24.833 -5 34.5 -15s14.5 -21.667 14.5 -35s-4.83301 -24.833 -14.5 -34.5s-21.167 -14.5 -34.5 -14.5zM185.001 -194.001
c-14 0 -25.833 4.83301 -35.5 14.5s-14.5 21.167 -14.5 34.5s4.83301 25 14.5 35s21.5 15 35.5 15c13.333 0 24.833 -5 34.5 -15s14.5 -21.667 14.5 -35s-4.83301 -24.833 -14.5 -34.5s-21.167 -14.5 -34.5 -14.5zM48.001 -194.001c-14 0 -25.833 4.83301 -35.5 14.5
s-14.5 21.167 -14.5 34.5s4.83301 25 14.5 35s21.5 15 35.5 15c13.333 0 24.833 -5 34.5 -15s14.5 -21.667 14.5 -35s-4.83301 -24.833 -14.5 -34.5s-21.167 -14.5 -34.5 -14.5z" />
    <glyph glyph-name="yehThreedotsabove-farsi.medi" unicode="&#x63f;" horiz-adv-x="373" 
d="M0 -5l9.99512 82c33.333 0 59.333 2.5 78 7.5s32.834 14.667 42.501 29s17.5 35.166 23.5 62.499s13.333 63 22 107l78 -15l-13.5 -62c-5 -23.333 -7.5 -43 -7.5 -59c0 -10 0.666992 -19.333 2 -28s6.33301 -16 15 -22s23.334 -10.833 44.001 -14.5
s50.334 -5.5 89.001 -5.5c14 0 24.167 -3.83301 30.5 -11.5s9.5 -16.834 9.5 -27.501s-4.66699 -20.5 -14 -29.5s-21.333 -13.5 -36 -13.5c-43.333 0 -77.166 2.5 -101.499 7.5s-42.333 12.333 -54 22s-20.167 21.834 -25.5 36.501
c-19.333 -27.333 -43.166 -45.166 -71.499 -53.499s-68.5 -12.5 -120.5 -12.5zM198.995 496c-14 0 -25.833 4.83301 -35.5 14.5s-14.5 21.167 -14.5 34.5s4.83301 25 14.5 35s21.5 15 35.5 15c13.333 0 24.833 -5 34.5 -15s14.5 -21.667 14.5 -35
s-4.83301 -24.833 -14.5 -34.5s-21.167 -14.5 -34.5 -14.5zM130.995 386c-14 0 -25.833 4.83301 -35.5 14.5s-14.5 21.167 -14.5 34.5s4.83301 25 14.5 35s21.5 15 35.5 15c13.333 0 24.833 -5 34.5 -15s14.5 -21.667 14.5 -35s-4.83301 -24.833 -14.5 -34.5
s-21.167 -14.5 -34.5 -14.5zM266.995 386c-14 0 -25.833 4.83301 -35.5 14.5s-14.5 21.167 -14.5 34.5s4.83301 25 14.5 35s21.5 15 35.5 15c13.333 0 24.833 -5 34.5 -15s14.5 -21.667 14.5 -35s-4.83301 -24.833 -14.5 -34.5s-21.167 -14.5 -34.5 -14.5zM251.995 -194
c-14 0 -25.833 4.83301 -35.5 14.5s-14.5 21.167 -14.5 34.5s4.83301 25 14.5 35s21.5 15 35.5 15c13.333 0 24.833 -5 34.5 -15s14.5 -21.667 14.5 -35s-4.83301 -24.833 -14.5 -34.5s-21.167 -14.5 -34.5 -14.5zM114.995 -194c-14 0 -25.833 4.83301 -35.5 14.5
s-14.5 21.167 -14.5 34.5s4.83301 25 14.5 35s21.5 15 35.5 15c13.333 0 24.833 -5 34.5 -15s14.5 -21.667 14.5 -35s-4.83301 -24.833 -14.5 -34.5s-21.167 -14.5 -34.5 -14.5z" />
    <glyph glyph-name="yehThreedotsabove-farsi.fina" unicode="&#x63f;" horiz-adv-x="736" 
d="M30 -1c0 24 3.33203 50.668 9.99902 80.001s17.334 61.666 32.001 96.999l72 -28c-10.667 -28 -18.667 -53.667 -24 -77s-8 -45 -8 -65c0 -37.333 10.833 -67.5 32.5 -90.5s50.334 -39.833 86.001 -50.5s74.834 -16 117.501 -16c51.333 0 98.166 5.83301 140.499 17.5
s76.166 27.5 101.499 47.5s38 42 38 66c0 17.333 -13.333 32.333 -40 45s-64 25.667 -112 39l19 83c68.667 -27.333 122.5 -45.833 161.5 -55.5s68.833 -14.5 89.5 -14.5c14 0 24.167 -3.83301 30.5 -11.5s9.5 -16.834 9.5 -27.501s-4.66699 -20.5 -14 -29.5
s-21.333 -13.5 -36 -13.5h-37c0.666992 -6 1.5 -10.833 2.5 -14.5s1.5 -8.5 1.5 -14.5c0 -32.667 -15 -64.167 -45 -94.5s-73.167 -55.166 -129.5 -74.499s-123.833 -29 -202.5 -29c-53.333 0 -102.333 8.33301 -147 25s-80.667 42.167 -108 76.5s-41 77.5 -41 129.5z
M218.999 363.001c-14 0 -25.833 4.83301 -35.5 14.5s-14.5 21.167 -14.5 34.5s4.83301 25 14.5 35s21.5 15 35.5 15c13.333 0 24.833 -5 34.5 -15s14.5 -21.667 14.5 -35s-4.83301 -24.833 -14.5 -34.5s-21.167 -14.5 -34.5 -14.5zM150.999 253.001
c-14 0 -25.833 4.83301 -35.5 14.5s-14.5 21.167 -14.5 34.5s4.83301 25 14.5 35s21.5 15 35.5 15c13.333 0 24.833 -5 34.5 -15s14.5 -21.667 14.5 -35s-4.83301 -24.833 -14.5 -34.5s-21.167 -14.5 -34.5 -14.5zM286.999 253.001c-14 0 -25.833 4.83301 -35.5 14.5
s-14.5 21.167 -14.5 34.5s4.83301 25 14.5 35s21.5 15 35.5 15c13.333 0 24.833 -5 34.5 -15s14.5 -21.667 14.5 -35s-4.83301 -24.833 -14.5 -34.5s-21.167 -14.5 -34.5 -14.5z" />
    <glyph glyph-name="dotlessbeh-ar.init" unicode="&#x66e;" horiz-adv-x="269" 
d="M0 -5l10 81.999c32 0 57.833 2 77.5 6s33.834 12.167 42.501 24.5s13 30.833 13 55.5s-5.83301 56.334 -17.5 95.001s-24.834 77 -39.501 115l81 30c8.66699 -22 16.834 -46.5 24.501 -73.5s14.167 -53.833 19.5 -80.5s8 -50 8 -70
c0 -67.333 -17.833 -114.833 -53.5 -142.5s-90.834 -41.5 -165.501 -41.5z" />
    <glyph glyph-name="dotlessbeh-ar.medi" unicode="&#x66e;" horiz-adv-x="343" 
d="M0 -5l9.99902 82.002c28 0 50 2.5 66 7.5s28.167 14.667 36.5 29s15.5 35.166 21.5 62.499s13.333 63 22 107l78 -15l-13.5 -62c-5 -23.333 -7.5 -43 -7.5 -59c0 -13.333 3 -25.333 9 -36s18.833 -19 38.5 -25s50.5 -9 92.5 -9c14 0 24.167 -3.83301 30.5 -11.5
s9.5 -16.834 9.5 -27.501s-4.66699 -20.5 -14 -29.5s-21.333 -13.5 -36 -13.5c-52.667 0 -91.667 5.66699 -117 17s-42.666 28.333 -51.999 51c-20 -28 -43 -46.333 -69 -55s-61 -13 -105 -13z" />
    <glyph glyph-name="dotlessbeh-ar.fina" unicode="&#x66e;" horiz-adv-x="1093" 
d="M390 -21c-118.667 0 -208.332 15.5029 -268.999 46.5029s-91 83.167 -91 156.5c0 24.667 3 50.834 9 78.501s12.333 53.834 19 78.501l75 -19c-4 -14.667 -8.5 -33.334 -13.5 -56.001s-7.5 -42.334 -7.5 -59.001c0 -34.667 8.83301 -62.5 26.5 -83.5
s48.5 -36.333 92.5 -46s105.667 -14.5 185 -14.5c40.667 0 83.667 2.5 129 7.5s90.5 14 135.5 27s87.833 30.667 128.5 53s76.334 51.166 107.001 86.499l63 -37c-6 -15.333 -10 -27.5 -12 -36.5s-3 -17.167 -3 -24.5c0 -10 3.66699 -19.667 11 -29s21 -16.833 41 -22.5
s49 -8.5 87 -8.5c14 0 24.167 -3.83301 30.5 -11.5s9.5 -16.834 9.5 -27.501s-4.66699 -20.5 -14 -29.5s-21.333 -13.5 -36 -13.5c-58.667 0 -106.834 8.66699 -144.501 26s-56.834 45.666 -57.501 84.999c-55.333 -42.667 -127 -74.5 -215 -95.5s-183.333 -31.5 -286 -31.5
z" />
    <glyph glyph-name="dotlessqaf-ar.init" unicode="&#x66f;" horiz-adv-x="447" 
d="M0 -5l9.99805 82.001c22 0 47.167 0.166992 75.5 0.5s55.833 1.66602 82.5 3.99902s47.667 6.16602 63 11.499c21.333 7.33301 38.5 16.833 51.5 28.5s22.833 26.834 29.5 45.501c-12 -4 -24.833 -6.83301 -38.5 -8.5s-27.167 -2.5 -40.5 -2.5
c-51.333 0 -90.666 12 -117.999 36s-41 54.333 -41 91c0 25.333 4 50.833 12 76.5s19.333 49.167 34 70.5s32.334 38.5 53.001 51.5s43.667 19.5 69 19.5c36 0 65.833 -11.833 89.5 -35.5s41.334 -54.167 53.001 -91.5s17.5 -77 17.5 -119c0 -50 -8.5 -92.833 -25.5 -128.5
s-45.167 -65.167 -84.5 -88.5c-20.667 -12 -46.5 -21.167 -77.5 -27.5s-64.833 -10.5 -101.5 -12.5s-74.334 -3 -113.001 -3zM152.998 303.001c0 -20.667 6.66602 -37.166 19.999 -49.499s36.333 -18.5 69 -18.5c28.667 0 56 4 82 12v14
c0 27.333 -3.66699 53.166 -11 77.499s-17.666 43.833 -30.999 58.5s-29.333 22 -48 22c-16 0 -30 -5.83301 -42 -17.5s-21.5 -26.5 -28.5 -44.5s-10.5 -36 -10.5 -54z" />
    <glyph glyph-name="dotlessqaf-ar.medi" unicode="&#x66f;" horiz-adv-x="495" 
d="M0 -5l9.99805 82.0029c22.667 0 46.167 0.333008 70.5 1s47.833 2.33398 70.5 5.00098c-16 14.667 -31.667 33.667 -47 57s-23 51.666 -23 84.999c0 35.333 8.33301 67.5 25 96.5s38.167 51.833 64.5 68.5s54.833 25 85.5 25c32.667 0 61.334 -9 86.001 -27
s43.834 -40.833 57.501 -68.5s20.5 -56.5 20.5 -86.5c0 -31.333 -6.33301 -59.333 -19 -84s-29.667 -46.334 -51 -65.001c26.667 -2 54 -3.66699 82 -5s52.333 -2 73 -2c14 0 24.167 -3.83301 30.5 -11.5s9.5 -16.834 9.5 -27.501s-4.66699 -20.5 -14 -29.5
s-21.333 -13.5 -36 -13.5c-40.667 0 -83 3.16699 -127 9.5s-82.667 14.166 -116 23.499c-10.667 -4 -21.667 -7.66699 -33 -11c-30.667 -8.66699 -65.667 -14.5 -105 -17.5s-77.333 -4.5 -114 -4.5zM162.998 223.003c0 -26 8.00098 -48.8311 24.001 -68.498
s34 -35.5 54 -47.5c27.333 12 50.333 28 69 48s28 44 28 72c0 15.333 -3.66699 31.166 -11 47.499s-17.333 30.166 -30 41.499s-27.334 17 -44.001 17c-16 0 -30.833 -5.5 -44.5 -16.5s-24.667 -24.833 -33 -41.5s-12.5 -34 -12.5 -52z" />
    <glyph glyph-name="dotlessqaf-ar.fina" unicode="&#x66f;" horiz-adv-x="808" 
d="M326 -272c-53.333 0 -102.335 8.00195 -147.002 24.002s-80.667 41.5 -108 76.5s-41 80.5 -41 136.5c0 15.333 3 39.833 9 73.5s22 74.167 48 121.5l73 -34c-15.333 -31.333 -26.5 -58.333 -33.5 -81s-10.5 -44.334 -10.5 -65.001c0 -41.333 10.5 -74.333 31.5 -99
s49 -42.334 84 -53.001s73.833 -16 116.5 -16c77.333 0 140.5 13.667 189.5 41s80.167 61.666 93.5 102.999c4 11.333 7.33301 24.333 10 39h-72c-30 0 -57.667 4.16699 -83 12.5s-45.666 21.833 -60.999 40.5s-23.666 43 -24.999 73
c-0.666992 24.667 3.16602 49.334 11.499 74.001s20.166 47.334 35.499 68.001s33.333 37.167 54 49.5s43 18.5 67 18.5c44.667 0 82.667 -20.333 114 -61s48 -105 50 -193h86c14 0 24.167 -3.83301 30.5 -11.5s9.5 -16.834 9.5 -27.501s-4.66699 -20.5 -14 -29.5
s-21.333 -13.5 -36 -13.5h-85c-3.33301 -15.333 -7.66602 -31.333 -12.999 -48s-11.666 -32.667 -18.999 -48c-22 -42 -51 -75.5 -87 -100.5s-77.667 -43 -125 -54s-98.333 -16.5 -153 -16.5zM606.998 77.002l42.998 -0.000976562c0 55.333 -8.66699 98 -26 128
s-38.666 45 -63.999 45c-14 0 -27.167 -5.5 -39.5 -16.5s-22.166 -25.167 -29.499 -42.5s-11 -35.666 -11 -54.999c0 -23.333 10.5 -39 31.5 -47s52.833 -12 95.5 -12z" />
    <glyph glyph-name="alefWavyhamzaabove-ar.fina" unicode="&#x672;" horiz-adv-x="289" 
d="M289 -5c-54 0 -95 6.00293 -123 18.0029s-47.333 30.667 -58 56s-16.667 58 -18 98l-18 477h82l18 -445c1.33301 -32.667 4.5 -57.834 9.5 -75.501s16.333 -29.834 34 -36.501s45.5 -10 83.5 -10c14 0 24.167 -3.83301 30.5 -11.5s9.5 -16.834 9.5 -27.501
s-4.66699 -20.5 -14 -29.5s-21.333 -13.5 -36 -13.5zM-37 721.003l-41.002 24.002c8 18.667 19 32.167 33 40.5s27 12.5 39 12.5c17.333 0 31.666 -3.66699 42.999 -11s23 -11 35 -11h6h6c-13.333 8.66699 -25.333 20.167 -36 34.5s-16 30.5 -16 48.5
c0 30 10.333 52.667 31 68s44.667 23 72 23c15.333 0 31 -2.66699 47 -8l-8 -50c-6.66699 1.33301 -13 2.66602 -19 3.99902s-12.667 2 -20 2c-32.667 0 -49 -12 -49 -36c0 -13.333 4 -24.833 12 -34.5s17.5 -17.334 28.5 -23.001s20.5 -9.16699 28.5 -10.5l29.5 11.5
l26.5 10.5l16 -48c-7.33301 -3.33301 -20.166 -8.83301 -38.499 -16.5s-38.333 -14.5 -60 -20.5s-40.834 -9 -57.501 -9c-17.333 0 -32.166 3.66699 -44.499 11s-23.166 11 -32.499 11c-7.33301 0 -13.166 -2 -17.499 -6s-8.83301 -9.66699 -13.5 -17z" />
    <glyph glyph-name="alefWavyhamzabelow-ar.fina" unicode="&#x673;" horiz-adv-x="291" 
d="M291 -5c-54 0 -95 6.00293 -123 18.0029s-47.333 30.667 -58 56s-16.667 58 -18 98l-20 547h82l20 -515c1.33301 -32.667 4.5 -57.834 9.5 -75.501s16.333 -29.834 34 -36.501s45.5 -10 83.5 -10c14 0 24.167 -3.83301 30.5 -11.5s9.5 -16.834 9.5 -27.501
s-4.66699 -20.5 -14 -29.5s-21.333 -13.5 -36 -13.5zM-18 -295.997l-41.002 24.002c8 18.667 19 32.167 33 40.5s27 12.5 39 12.5c17.333 0 31.666 -3.66699 42.999 -11s23 -11 35 -11h6h6c-13.333 8.66699 -25.333 20.167 -36 34.5s-16 30.5 -16 48.5
c0 30 10.333 52.667 31 68s44.667 23 72 23c15.333 0 31 -2.66699 47 -8l-8 -50c-6.66699 1.33301 -13 2.66602 -19 3.99902s-12.667 2 -20 2c-32.667 0 -49 -12 -49 -36c0 -13.333 4 -24.833 12 -34.5s17.5 -17.334 28.5 -23.001s20.5 -9.16699 28.5 -10.5l29.5 11.5
l26.5 10.5l16 -48c-7.33301 -3.33301 -20.166 -8.83301 -38.499 -16.5s-38.333 -14.5 -60 -20.5s-40.834 -9 -57.501 -9c-17.333 0 -32.166 3.66699 -44.499 11s-23.166 11 -32.499 11c-7.33301 0 -13.166 -2 -17.499 -6s-8.83301 -9.66699 -13.5 -17z" />
    <glyph glyph-name="highhamzaAlef-ar.fina" unicode="&#x675;" horiz-adv-x="411" 
d="M411 -5l-122 0.000976562c-52.667 0 -93 6 -121 18s-47.333 30.833 -58 56.5s-16.667 58.167 -18 97.5l-20 547h82l20 -515c1.33301 -32.667 4.5 -57.667 9.5 -75s16 -29.5 33 -36.5s44.167 -10.5 81.5 -10.5h123c14 0 24.167 -3.83301 30.5 -11.5
s9.5 -16.834 9.5 -27.501s-4.66699 -20.5 -14 -29.5s-21.333 -13.5 -36 -13.5zM218 578.001l-11.999 54c10 2 18.667 4 26 6s14.333 3.66699 21 5c-12.667 8.66699 -23.667 20 -33 34s-14 29.333 -14 46c0 30 10.333 52.667 31 68s44.667 23 72 23
c15.333 0 31 -2.66699 47 -8l-8 -50c-6.66699 1.33301 -13 2.66602 -19 3.99902s-12.667 2 -20 2c-32.667 0 -49 -12 -49 -36c0 -17.333 6.5 -31.666 19.5 -42.999s25.833 -18.666 38.5 -21.999c25.333 7.33301 47.666 14.666 66.999 21.999l16 -51
c-16.667 -6 -35.667 -12.333 -57 -19l-65 -19.5c-22 -6.33301 -42.333 -11.5 -61 -15.5z" />
    <glyph glyph-name="highhamzaWaw-ar.fina" unicode="&#x676;" horiz-adv-x="472" 
d="M58 -230l-17.998 82.001c41.333 5.33301 79.166 13.166 113.499 23.499s63.833 24.833 88.5 43.5s43 44 55 76h-64c-30 0 -57.833 4.16699 -83.5 12.5s-46.334 21.833 -62.001 40.5s-23.5 43 -23.5 73c0 36.667 7.33301 71.5 22 104.5s34.667 59.833 60 80.5s54 31 86 31
c46 0 84.167 -20.167 114.5 -60.5s45.5 -102.166 45.5 -185.499v-14h90c14 0 24.167 -3.83301 30.5 -11.5s9.5 -16.834 9.5 -27.501s-4.66699 -20.5 -14 -29.5s-21.333 -13.5 -36 -13.5h-92c-34 -129.333 -141.333 -204.333 -322 -225zM271.002 77.001l42 -0.00195312
c0.666992 6.66699 1 13.334 1 20.001c0 45.333 -8.33301 83 -25 113s-38.334 45 -65.001 45c-14 0 -27.167 -5.33301 -39.5 -16s-22.166 -25 -29.499 -43s-11 -37.667 -11 -59c0 -23.333 10.5 -39.166 31.5 -47.499s52.833 -12.5 95.5 -12.5zM298.002 386.999
l-11.999 53.999c10 2 18.667 4 26 6s14.333 3.66699 21 5c-12.667 8.66699 -23.667 20 -33 34s-14 29.333 -14 46c0 30 10.5 52.667 31.5 68s44.833 23 71.5 23c15.333 0 31 -2.66699 47 -8l-8 -50l-19.5 4c-6.33301 1.33301 -12.833 2 -19.5 2c-32.667 0 -49 -12 -49 -36
c0 -17.333 6.5 -31.666 19.5 -42.999s25.833 -18.666 38.5 -21.999c25.333 7.33301 47.666 14.666 66.999 21.999l16 -51c-16 -6 -34.833 -12.333 -56.5 -19l-66 -19.5c-22.333 -6.33301 -42.5 -11.5 -60.5 -15.5z" />
    <glyph glyph-name="uHamzaabove-ar.fina" unicode="&#x677;" horiz-adv-x="531" 
d="M117 -230l-17.998 82.001c41.333 5.33301 79.166 13.166 113.499 23.499s63.833 24.833 88.5 43.5s43 44 55 76h-64c-30 0 -57.833 4.16699 -83.5 12.5s-46.334 21.833 -62.001 40.5s-23.5 43 -23.5 73c0 36.667 7.33301 71.5 22 104.5s34.667 59.833 60 80.5
s54 31 86 31c46 0 84.167 -20.167 114.5 -60.5s45.5 -102.166 45.5 -185.499v-14h90c14 0 24.167 -3.83301 30.5 -11.5s9.5 -16.834 9.5 -27.501s-4.66699 -20.5 -14 -29.5s-21.333 -13.5 -36 -13.5h-92c-34 -129.333 -141.333 -204.333 -322 -225zM330.002 77.001
l42 -0.00195312c0.666992 6.66699 1 13.334 1 20.001c0 45.333 -8.33301 83 -25 113s-38.334 45 -65.001 45c-14 0 -27.167 -5.33301 -39.5 -16s-22.166 -25 -29.499 -43s-11 -37.667 -11 -59c0 -23.333 10.5 -39.166 31.5 -47.499s52.833 -12.5 95.5 -12.5z
M368.002 386.999l-11.999 53.999c10 2 18.667 4 26 6s14.333 3.66699 21 5c-12.667 8.66699 -23.667 20 -33 34s-14 29.333 -14 46c0 30 10.5 52.667 31.5 68s44.833 23 71.5 23c15.333 0 31 -2.66699 47 -8l-8 -50l-19.5 4c-6.33301 1.33301 -12.833 2 -19.5 2
c-32.667 0 -49 -12 -49 -36c0 -17.333 6.5 -31.666 19.5 -42.999s25.833 -18.666 38.5 -21.999c25.333 7.33301 47.666 14.666 66.999 21.999l16 -51c-16 -6 -34.833 -12.333 -56.5 -19l-66 -19.5c-22.333 -6.33301 -42.5 -11.5 -60.5 -15.5zM49.0029 387.998
l-8.99902 48.001c28 2 52.667 5.5 74 10.5s39.666 10.833 54.999 17.5c-16.667 8.66699 -30.167 19.834 -40.5 33.501s-15.5 30.167 -15.5 49.5c0 23.333 8.16699 43.666 24.5 60.999s37.833 26 64.5 26s46.834 -9.33301 60.501 -28s20.5 -39.334 20.5 -62.001
c0 -44.667 -21.333 -81 -64 -109s-99.334 -43.667 -170.001 -47zM165.004 546.999c0 -10.667 4.16699 -21.168 12.5 -31.501s18.833 -18.166 31.5 -23.499c15.333 14.667 23 31 23 49c0 12 -2.66699 22 -8 30s-13.333 12 -24 12c-10 0 -18.333 -3.5 -25 -10.5
s-10 -15.5 -10 -25.5z" />
    <glyph glyph-name="highhamzaYeh-ar.init" unicode="&#x678;" horiz-adv-x="350" 
d="M0 -5l10 81.999c32 0 57.833 2 77.5 6s33.834 12.167 42.501 24.5s13 30.833 13 55.5s-5.83301 56.334 -17.5 95.001s-24.834 77 -39.501 115l81 30c8.66699 -22 16.834 -46.5 24.501 -73.5s14.167 -53.833 19.5 -80.5s8 -50 8 -70
c0 -67.333 -17.833 -114.833 -53.5 -142.5s-90.834 -41.5 -165.501 -41.5zM167 577.999l-11.999 54c10 2 18.667 4 26 6s14.333 3.66699 21 5c-12.667 8.66699 -23.667 20 -33 34s-14 29.333 -14 46c0 30 10.333 52.667 31 68s44.667 23 72 23c15.333 0 31 -2.66699 47 -8
l-8 -50c-6.66699 1.33301 -13 2.66602 -19 3.99902s-12.667 2 -20 2c-32.667 0 -49 -12 -49 -36c0 -17.333 6.5 -31.666 19.5 -42.999s25.833 -18.666 38.5 -21.999c25.333 7.33301 47.666 14.666 66.999 21.999l16 -51c-16.667 -6 -35.667 -12.333 -57 -19l-65 -19.5
c-22 -6.33301 -42.333 -11.5 -61 -15.5z" />
    <glyph glyph-name="highhamzaYeh-ar.medi" unicode="&#x678;" horiz-adv-x="343" 
d="M0 -5l9.99902 82.002c28 0 50 2.5 66 7.5s28.167 14.667 36.5 29s15.5 35.166 21.5 62.499s13.333 63 22 107l78 -15l-13.5 -62c-5 -23.333 -7.5 -43 -7.5 -59c0 -13.333 3 -25.333 9 -36s18.833 -19 38.5 -25s50.5 -9 92.5 -9c14 0 24.167 -3.83301 30.5 -11.5
s9.5 -16.834 9.5 -27.501s-4.66699 -20.5 -14 -29.5s-21.333 -13.5 -36 -13.5c-52.667 0 -91.667 5.66699 -117 17s-42.666 28.333 -51.999 51c-20 -28 -43 -46.333 -69 -55s-61 -13 -105 -13zM162.999 409.002l-11.999 54c10 2 18.667 4 26 6s14.333 3.66699 21 5
c-12.667 8.66699 -23.667 20 -33 34s-14 29.333 -14 46c0 30 10.333 52.667 31 68s44.667 23 72 23c15.333 0 31 -2.66699 47 -8l-8 -50c-6.66699 1.33301 -13 2.66602 -19 3.99902s-12.667 2 -20 2c-32.667 0 -49 -12 -49 -36c0 -17.333 6.5 -31.666 19.5 -42.999
s25.833 -18.666 38.5 -21.999c25.333 7.33301 47.666 14.666 66.999 21.999l16 -51c-16.667 -6 -35.667 -12.333 -57 -19l-65 -19.5c-22 -6.33301 -42.333 -11.5 -61 -15.5z" />
    <glyph glyph-name="highhamzaYeh-ar.fina" unicode="&#x678;" horiz-adv-x="736" 
d="M30 -1c0 24 3.33203 50.668 9.99902 80.001s17.334 61.666 32.001 96.999l72 -28c-10.667 -28 -18.667 -53.667 -24 -77s-8 -45 -8 -65c0 -37.333 10.833 -67.5 32.5 -90.5s50.334 -39.833 86.001 -50.5s74.834 -16 117.501 -16c51.333 0 98.166 5.83301 140.499 17.5
s76.166 27.5 101.499 47.5s38 42 38 66c0 17.333 -13.333 32.333 -40 45s-64 25.667 -112 39l19 83c68.667 -27.333 122.5 -45.833 161.5 -55.5s68.833 -14.5 89.5 -14.5c14 0 24.167 -3.83301 30.5 -11.5s9.5 -16.834 9.5 -27.501s-4.66699 -20.5 -14 -29.5
s-21.333 -13.5 -36 -13.5h-37c0.666992 -6 1.5 -10.833 2.5 -14.5s1.5 -8.5 1.5 -14.5c0 -32.667 -15 -64.167 -45 -94.5s-73.167 -55.166 -129.5 -74.499s-123.833 -29 -202.5 -29c-53.333 0 -102.333 8.33301 -147 25s-80.667 42.167 -108 76.5s-41 77.5 -41 129.5z
M499.999 205.001l-11.999 54c10 2 18.667 4 26 6s14.333 3.66699 21 5c-12.667 8.66699 -23.667 20 -33 34s-14 29.333 -14 46c0 30 10.333 52.667 31 68s44.667 23 72 23c15.333 0 31 -2.66699 47 -8l-8 -50c-6.66699 1.33301 -13 2.66602 -19 3.99902s-12.667 2 -20 2
c-32.667 0 -49 -12 -49 -36c0 -17.333 6.5 -31.666 19.5 -42.999s25.833 -18.666 38.5 -21.999c25.333 7.33301 47.666 14.666 66.999 21.999l16 -51c-16.667 -6 -35.667 -12.333 -57 -19l-65 -19.5c-22 -6.33301 -42.333 -11.5 -61 -15.5z" />
    <glyph glyph-name="tehRing-ar.init" unicode="&#x67c;" horiz-adv-x="299" 
d="M0 -5l10.001 81.999c38.667 0 69.167 1.5 91.5 4.5s38.166 10.5 47.499 22.5s14 31.667 14 59c0 24.667 -5.83301 56.334 -17.5 95.001s-24.834 77 -39.501 115l81 30c8.66699 -22 16.834 -46.5 24.501 -73.5s14.167 -53.833 19.5 -80.5s8 -50 8 -70
c0 -67.333 -18.667 -114.833 -56 -142.5s-98.333 -41.5 -183 -41.5zM218.001 506.999c-14 0 -25.833 4.83301 -35.5 14.5s-14.5 21.167 -14.5 34.5s4.83301 25 14.5 35s21.5 15 35.5 15c13.333 0 24.833 -5 34.5 -15s14.5 -21.667 14.5 -35s-4.83301 -24.833 -14.5 -34.5
s-21.167 -14.5 -34.5 -14.5zM81.001 506.999c-14 0 -25.833 4.83301 -35.5 14.5s-14.5 21.167 -14.5 34.5s4.83301 25 14.5 35s21.5 15 35.5 15c13.333 0 24.833 -5 34.5 -15s14.5 -21.667 14.5 -35s-4.83301 -24.833 -14.5 -34.5s-21.167 -14.5 -34.5 -14.5z
M134.001 -121.001c-24.667 0 -45.667 8.66699 -63 26s-26 38.333 -26 63s8.66699 45.667 26 63s38.333 26 63 26s45.667 -8.66699 63 -26s26 -38.333 26 -63s-8.66699 -45.667 -26 -63s-38.333 -26 -63 -26zM134.001 -70.001c11.333 0 21 3.5 29 10.5s12 16.167 12 27.5
s-4 20.833 -12 28.5s-17.667 11.5 -29 11.5s-21 -3.83301 -29 -11.5s-12 -17.167 -12 -28.5s4 -20.5 12 -27.5s17.667 -10.5 29 -10.5z" />
    <glyph glyph-name="tehRing-ar.medi" unicode="&#x67c;" horiz-adv-x="343" 
d="M0 -5l9.99902 82.002c28 0 50 2.5 66 7.5s28.167 14.667 36.5 29s15.5 35.166 21.5 62.499s13.333 63 22 107l78 -15l-13.5 -62c-5 -23.333 -7.5 -43 -7.5 -59c0 -13.333 3 -25.333 9 -36s18.833 -19 38.5 -25s50.5 -9 92.5 -9c14 0 24.167 -3.83301 30.5 -11.5
s9.5 -16.834 9.5 -27.501s-4.66699 -20.5 -14 -29.5s-21.333 -13.5 -36 -13.5c-52.667 0 -91.667 5.66699 -117 17s-42.666 28.333 -51.999 51c-20 -28 -43 -46.333 -69 -55s-61 -13 -105 -13zM105.999 -122.998c-24.667 0 -45.667 8.66699 -63 26s-26 38.333 -26 63
s8.66699 45.667 26 63s38.333 26 63 26s45.667 -8.66699 63 -26s26 -38.333 26 -63s-8.66699 -45.667 -26 -63s-38.333 -26 -63 -26zM105.999 -71.998c11.333 0 21 3.5 29 10.5s12 16.167 12 27.5s-4 20.833 -12 28.5s-17.667 11.5 -29 11.5s-21 -3.83301 -29 -11.5
s-12 -17.167 -12 -28.5s4 -20.5 12 -27.5s17.667 -10.5 29 -10.5zM256.999 386.002c-14 0 -25.833 4.83301 -35.5 14.5s-14.5 21.167 -14.5 34.5s4.83301 25 14.5 35s21.5 15 35.5 15c13.333 0 24.833 -5 34.5 -15s14.5 -21.667 14.5 -35s-4.83301 -24.833 -14.5 -34.5
s-21.167 -14.5 -34.5 -14.5zM119.999 386.002c-14 0 -25.833 4.83301 -35.5 14.5s-14.5 21.167 -14.5 34.5s4.83301 25 14.5 35s21.5 15 35.5 15c13.333 0 24.833 -5 34.5 -15s14.5 -21.667 14.5 -35s-4.83301 -24.833 -14.5 -34.5s-21.167 -14.5 -34.5 -14.5z" />
    <glyph glyph-name="tehRing-ar.fina" unicode="&#x67c;" horiz-adv-x="1093" 
d="M390 -21c-118.667 0 -208.332 15.5029 -268.999 46.5029s-91 83.167 -91 156.5c0 24.667 3 50.834 9 78.501s12.333 53.834 19 78.501l75 -19c-4 -14.667 -8.5 -33.334 -13.5 -56.001s-7.5 -42.334 -7.5 -59.001c0 -34.667 8.83301 -62.5 26.5 -83.5
s48.5 -36.333 92.5 -46s105.667 -14.5 185 -14.5c40.667 0 83.667 2.5 129 7.5s90.5 14 135.5 27s87.833 30.667 128.5 53s76.334 51.166 107.001 86.499l63 -37c-6 -15.333 -10 -27.5 -12 -36.5s-3 -17.167 -3 -24.5c0 -10 3.66699 -19.667 11 -29s21 -16.833 41 -22.5
s49 -8.5 87 -8.5c14 0 24.167 -3.83301 30.5 -11.5s9.5 -16.834 9.5 -27.501s-4.66699 -20.5 -14 -29.5s-21.333 -13.5 -36 -13.5c-58.667 0 -106.834 8.66699 -144.501 26s-56.834 45.666 -57.501 84.999c-55.333 -42.667 -127 -74.5 -215 -95.5s-183.333 -31.5 -286 -31.5
zM558.002 401.003c-14 0 -25.833 4.83301 -35.5 14.5s-14.5 21.167 -14.5 34.5s4.83301 25 14.5 35s21.5 15 35.5 15c13.333 0 24.833 -5 34.5 -15s14.5 -21.667 14.5 -35s-4.83301 -24.833 -14.5 -34.5s-21.167 -14.5 -34.5 -14.5zM421.002 401.003
c-14 0 -25.833 4.83301 -35.5 14.5s-14.5 21.167 -14.5 34.5s4.83301 25 14.5 35s21.5 15 35.5 15c13.333 0 24.833 -5 34.5 -15s14.5 -21.667 14.5 -35s-4.83301 -24.833 -14.5 -34.5s-21.167 -14.5 -34.5 -14.5zM520.002 -145.997c-24.667 0 -45.667 8.66699 -63 26
s-26 38.333 -26 63s8.66699 45.667 26 63s38.333 26 63 26s45.667 -8.66699 63 -26s26 -38.333 26 -63s-8.66699 -45.667 -26 -63s-38.333 -26 -63 -26zM520.002 -94.9971c11.333 0 21 3.5 29 10.5s12 16.167 12 27.5s-4 20.833 -12 28.5s-17.667 11.5 -29 11.5
s-21 -3.83301 -29 -11.5s-12 -17.167 -12 -28.5s4 -20.5 12 -27.5s17.667 -10.5 29 -10.5z" />
    <glyph glyph-name="tehThreedotsdown-ar.init" unicode="&#x67d;" horiz-adv-x="299" 
d="M0 -5l10.001 81.999c38.667 0 69.167 1.5 91.5 4.5s38.166 10.5 47.499 22.5s14 31.667 14 59c0 24.667 -5.83301 56.334 -17.5 95.001s-24.834 77 -39.501 115l81 30c8.66699 -22 16.834 -46.5 24.501 -73.5s14.167 -53.833 19.5 -80.5s8 -50 8 -70
c0 -67.333 -18.667 -114.833 -56 -142.5s-98.333 -41.5 -183 -41.5zM82.001 616.999c-14 0 -25.833 4.83301 -35.5 14.5s-14.5 21.167 -14.5 34.5s4.83301 25 14.5 35s21.5 15 35.5 15c13.333 0 24.833 -5 34.5 -15s14.5 -21.667 14.5 -35s-4.83301 -24.833 -14.5 -34.5
s-21.167 -14.5 -34.5 -14.5zM218.001 616.999c-14 0 -25.833 4.83301 -35.5 14.5s-14.5 21.167 -14.5 34.5s4.83301 25 14.5 35s21.5 15 35.5 15c13.333 0 24.833 -5 34.5 -15s14.5 -21.667 14.5 -35s-4.83301 -24.833 -14.5 -34.5s-21.167 -14.5 -34.5 -14.5z
M150.001 506.999c-14 0 -25.833 4.83301 -35.5 14.5s-14.5 21.167 -14.5 34.5s4.83301 25 14.5 35s21.5 15 35.5 15c13.333 0 24.833 -5 34.5 -15s14.5 -21.667 14.5 -35s-4.83301 -24.833 -14.5 -34.5s-21.167 -14.5 -34.5 -14.5z" />
    <glyph glyph-name="tehThreedotsdown-ar.medi" unicode="&#x67d;" horiz-adv-x="373" 
d="M0 -5l9.99512 82c33.333 0 59.333 2.5 78 7.5s32.834 14.667 42.501 29s17.5 35.166 23.5 62.499s13.333 63 22 107l78 -15l-13.5 -62c-5 -23.333 -7.5 -43 -7.5 -59c0 -10 0.666992 -19.333 2 -28s6.33301 -16 15 -22s23.334 -10.833 44.001 -14.5
s50.334 -5.5 89.001 -5.5c14 0 24.167 -3.83301 30.5 -11.5s9.5 -16.834 9.5 -27.501s-4.66699 -20.5 -14 -29.5s-21.333 -13.5 -36 -13.5c-43.333 0 -77.166 2.5 -101.499 7.5s-42.333 12.333 -54 22s-20.167 21.834 -25.5 36.501
c-19.333 -27.333 -43.166 -45.166 -71.499 -53.499s-68.5 -12.5 -120.5 -12.5zM130.995 496c-14 0 -25.833 4.83301 -35.5 14.5s-14.5 21.167 -14.5 34.5s4.83301 25 14.5 35s21.5 15 35.5 15c13.333 0 24.833 -5 34.5 -15s14.5 -21.667 14.5 -35
s-4.83301 -24.833 -14.5 -34.5s-21.167 -14.5 -34.5 -14.5zM266.995 496c-14 0 -25.833 4.83301 -35.5 14.5s-14.5 21.167 -14.5 34.5s4.83301 25 14.5 35s21.5 15 35.5 15c13.333 0 24.833 -5 34.5 -15s14.5 -21.667 14.5 -35s-4.83301 -24.833 -14.5 -34.5
s-21.167 -14.5 -34.5 -14.5zM198.995 386c-14 0 -25.833 4.83301 -35.5 14.5s-14.5 21.167 -14.5 34.5s4.83301 25 14.5 35s21.5 15 35.5 15c13.333 0 24.833 -5 34.5 -15s14.5 -21.667 14.5 -35s-4.83301 -24.833 -14.5 -34.5s-21.167 -14.5 -34.5 -14.5z" />
    <glyph glyph-name="tehThreedotsdown-ar.fina" unicode="&#x67d;" horiz-adv-x="1093" 
d="M390 -21c-118.667 0 -208.332 15.5029 -268.999 46.5029s-91 83.167 -91 156.5c0 24.667 3 50.834 9 78.501s12.333 53.834 19 78.501l75 -19c-4 -14.667 -8.5 -33.334 -13.5 -56.001s-7.5 -42.334 -7.5 -59.001c0 -34.667 8.83301 -62.5 26.5 -83.5
s48.5 -36.333 92.5 -46s105.667 -14.5 185 -14.5c40.667 0 83.667 2.5 129 7.5s90.5 14 135.5 27s87.833 30.667 128.5 53s76.334 51.166 107.001 86.499l63 -37c-6 -15.333 -10 -27.5 -12 -36.5s-3 -17.167 -3 -24.5c0 -10 3.66699 -19.667 11 -29s21 -16.833 41 -22.5
s49 -8.5 87 -8.5c14 0 24.167 -3.83301 30.5 -11.5s9.5 -16.834 9.5 -27.501s-4.66699 -20.5 -14 -29.5s-21.333 -13.5 -36 -13.5c-58.667 0 -106.834 8.66699 -144.501 26s-56.834 45.666 -57.501 84.999c-55.333 -42.667 -127 -74.5 -215 -95.5s-183.333 -31.5 -286 -31.5
zM422.002 511.003c-14 0 -25.833 4.83301 -35.5 14.5s-14.5 21.167 -14.5 34.5s4.83301 25 14.5 35s21.5 15 35.5 15c13.333 0 24.833 -5 34.5 -15s14.5 -21.667 14.5 -35s-4.83301 -24.833 -14.5 -34.5s-21.167 -14.5 -34.5 -14.5zM558.002 511.003
c-14 0 -25.833 4.83301 -35.5 14.5s-14.5 21.167 -14.5 34.5s4.83301 25 14.5 35s21.5 15 35.5 15c13.333 0 24.833 -5 34.5 -15s14.5 -21.667 14.5 -35s-4.83301 -24.833 -14.5 -34.5s-21.167 -14.5 -34.5 -14.5zM490.002 401.003c-14 0 -25.833 4.83301 -35.5 14.5
s-14.5 21.167 -14.5 34.5s4.83301 25 14.5 35s21.5 15 35.5 15c13.333 0 24.833 -5 34.5 -15s14.5 -21.667 14.5 -35s-4.83301 -24.833 -14.5 -34.5s-21.167 -14.5 -34.5 -14.5z" />
    <glyph glyph-name="hahHamzaabove-ar.init" unicode="&#x681;" horiz-adv-x="589" 
d="M0 -5l9.00391 82.001c68.667 0 135.334 10.167 200.001 30.5s123.667 49.166 177 86.499c-26 22.667 -57.833 41 -95.5 55s-79.167 21 -124.5 21c-16.667 0 -31.334 -0.833008 -44.001 -2.5s-28 -4.5 -46 -8.5l-16 76c37.333 11.333 72.666 17 105.999 17
c34.667 0 66 -4.16699 94 -12.5s53.5 -18.5 76.5 -30.5s44.667 -24 65 -36s40.166 -22.167 59.499 -30.5s39.333 -12.5 60 -12.5h21l7 -72c-34 0 -65 -5.5 -93 -16.5s-56.167 -24.667 -84.5 -41s-59.333 -32.5 -93 -48.5s-72.834 -29.5 -117.501 -40.5
s-98.334 -16.5 -161.001 -16.5zM76.0039 462.001l-11.999 53.999c10 2 18.667 4 26 6s14.333 3.66699 21 5c-12.667 8.66699 -23.667 20 -33 34s-14 29.333 -14 46c0 30 10.5 52.667 31.5 68s44.833 23 71.5 23c15.333 0 31 -2.66699 47 -8l-8 -50l-19.5 4
c-6.33301 1.33301 -12.833 2 -19.5 2c-32.667 0 -49 -12 -49 -36c0 -17.333 6.5 -31.666 19.5 -42.999s25.833 -18.666 38.5 -21.999c25.333 7.33301 47.666 14.666 66.999 21.999l16 -51c-16 -6 -34.833 -12.333 -56.5 -19l-66 -19.5
c-22.333 -6.33301 -42.5 -11.5 -60.5 -15.5z" />
    <glyph glyph-name="hahHamzaabove-ar.medi" unicode="&#x681;" horiz-adv-x="637" 
d="M0 -5l9.00098 82.002c68.667 0 135.334 10.167 200.001 30.5s123.667 49.166 177 86.499c-26 22.667 -57.833 41 -95.5 55s-79.167 21 -124.5 21c-16.667 0 -31.334 -0.833008 -44.001 -2.5s-28 -4.5 -46 -8.5l-16 76c37.333 11.333 72.666 17 105.999 17
c34.667 0 66 -4.16699 94 -12.5s53.5 -18.5 76.5 -30.5s44.667 -24 65 -36s40.166 -22.167 59.499 -30.5s39.333 -12.5 60 -12.5h21l7 -72c-20.667 0 -40.667 -2.33301 -60 -7c12.667 -30 30.667 -49.833 54 -59.5s58 -14.5 104 -14.5c14 0 24.167 -3.83301 30.5 -11.5
s9.5 -16.834 9.5 -27.501s-4.66699 -20.5 -14 -29.5s-21.333 -13.5 -36 -13.5c-36 0 -68.167 3.16699 -96.5 9.5s-52.5 19 -72.5 38s-34.667 47.5 -44 85.5c-25.333 -12 -51.166 -25.5 -77.499 -40.5s-55.5 -29.5 -87.5 -43.5s-69 -25.667 -111 -35s-91.333 -14 -148 -14z
M66.001 462.002l-11.999 53.999c10 2 18.667 4 26 6s14.333 3.66699 21 5c-12.667 8.66699 -23.667 20 -33 34s-14 29.333 -14 46c0 30 10.5 52.667 31.5 68s44.833 23 71.5 23c15.333 0 31 -2.66699 47 -8l-8 -50l-19.5 4c-6.33301 1.33301 -12.833 2 -19.5 2
c-32.667 0 -49 -12 -49 -36c0 -17.333 6.5 -31.666 19.5 -42.999s25.833 -18.666 38.5 -21.999c25.333 7.33301 47.666 14.666 66.999 21.999l16 -51c-16 -6 -34.833 -12.333 -56.5 -19l-66 -19.5c-22.333 -6.33301 -42.5 -11.5 -60.5 -15.5z" />
    <glyph glyph-name="hahHamzaabove-ar.fina" unicode="&#x681;" horiz-adv-x="649" 
d="M360 -394c-46.667 0 -91.166 5.33398 -133.499 16.001s-79.666 27.167 -111.999 49.5s-57.833 50.5 -76.5 84.5s-28 74 -28 120c0 61.333 14.333 118.333 43 171s69.834 99.167 123.501 139.5s117.5 72.833 191.5 97.5l-102.5 32.5c-35.667 11 -77.167 16.5 -124.5 16.5
c-20 0 -37.5 -1.66699 -52.5 -5s-29.167 -6.66602 -42.5 -9.99902l-14 74c17.333 6.66699 36.833 12.334 58.5 17.001s43.5 7 65.5 7c30.667 0 58 -2.83301 82 -8.5s46.833 -12.5 68.5 -20.5l68.5 -24.5c24 -8.33301 50.833 -15.333 80.5 -21
s64.834 -8.83398 105.501 -9.50098h9l2 -82c-34.667 0 -71 -4 -109 -12c5.33301 -37.333 14 -66.833 26 -88.5s26.833 -37.667 44.5 -48s37.167 -17 58.5 -20s43.666 -4.5 66.999 -4.5c14 0 24.167 -3.83301 30.5 -11.5s9.5 -16.834 9.5 -27.501s-4.5 -20.5 -13.5 -29.5
s-20.833 -13.5 -35.5 -13.5c-28 0 -56.167 2 -84.5 6s-54.666 13 -78.999 27s-44.5 36.167 -60.5 66.5s-25.667 72.166 -29 125.499c-38.667 -13.333 -76.334 -30.333 -113.001 -51s-69.334 -45 -98.001 -73s-51.5 -59.5 -68.5 -94.5s-25.5 -73.5 -25.5 -115.5
c0 -46.667 12.667 -84.5 38 -113.5s59.166 -50.167 101.499 -63.5s88.5 -20 138.5 -20c66 0 133 13.333 201 40l28 -68c-39.333 -18.667 -79.333 -32.5 -120 -41.5s-80.334 -13.5 -119.001 -13.5zM221.001 526.001l-11.999 53.999c10 2 18.667 4 26 6s14.333 3.66699 21 5
c-12.667 8.66699 -23.667 20 -33 34s-14 29.333 -14 46c0 30 10.5 52.667 31.5 68s44.833 23 71.5 23c15.333 0 31 -2.66699 47 -8l-8 -50l-19.5 4c-6.33301 1.33301 -12.833 2 -19.5 2c-32.667 0 -49 -12 -49 -36c0 -17.333 6.5 -31.666 19.5 -42.999
s25.833 -18.666 38.5 -21.999c25.333 7.33301 47.666 14.666 66.999 21.999l16 -51c-16 -6 -34.833 -12.333 -56.5 -19l-66 -19.5c-22.333 -6.33301 -42.5 -11.5 -60.5 -15.5z" />
    <glyph glyph-name="hahTwodotsverticalabove-ar.init" unicode="&#x682;" horiz-adv-x="589" 
d="M0 -5l9.00391 82.001c68.667 0 135.334 10.167 200.001 30.5s123.667 49.166 177 86.499c-26 22.667 -57.833 41 -95.5 55s-79.167 21 -124.5 21c-16.667 0 -31.334 -0.833008 -44.001 -2.5s-28 -4.5 -46 -8.5l-16 76c37.333 11.333 72.666 17 105.999 17
c34.667 0 66 -4.16699 94 -12.5s53.5 -18.5 76.5 -30.5s44.667 -24 65 -36s40.166 -22.167 59.499 -30.5s39.333 -12.5 60 -12.5h21l7 -72c-34 0 -65 -5.5 -93 -16.5s-56.167 -24.667 -84.5 -41s-59.333 -32.5 -93 -48.5s-72.834 -29.5 -117.501 -40.5
s-98.334 -16.5 -161.001 -16.5zM166.004 584.001c-14 0 -25.833 4.83301 -35.5 14.5s-14.5 21.167 -14.5 34.5s4.83301 25 14.5 35s21.5 15 35.5 15c13.333 0 24.833 -5 34.5 -15s14.5 -21.667 14.5 -35s-4.83301 -24.833 -14.5 -34.5s-21.167 -14.5 -34.5 -14.5z
M167.004 455.001c-14 0 -25.833 4.83301 -35.5 14.5s-14.5 21.167 -14.5 34.5s4.83301 25 14.5 35s21.5 15 35.5 15c13.333 0 24.833 -5 34.5 -15s14.5 -21.667 14.5 -35s-4.83301 -24.833 -14.5 -34.5s-21.167 -14.5 -34.5 -14.5z" />
    <glyph glyph-name="hahTwodotsverticalabove-ar.medi" unicode="&#x682;" horiz-adv-x="637" 
d="M0 -5l9.00098 82.002c68.667 0 135.334 10.167 200.001 30.5s123.667 49.166 177 86.499c-26 22.667 -57.833 41 -95.5 55s-79.167 21 -124.5 21c-16.667 0 -31.334 -0.833008 -44.001 -2.5s-28 -4.5 -46 -8.5l-16 76c37.333 11.333 72.666 17 105.999 17
c34.667 0 66 -4.16699 94 -12.5s53.5 -18.5 76.5 -30.5s44.667 -24 65 -36s40.166 -22.167 59.499 -30.5s39.333 -12.5 60 -12.5h21l7 -72c-20.667 0 -40.667 -2.33301 -60 -7c12.667 -30 30.667 -49.833 54 -59.5s58 -14.5 104 -14.5c14 0 24.167 -3.83301 30.5 -11.5
s9.5 -16.834 9.5 -27.501s-4.66699 -20.5 -14 -29.5s-21.333 -13.5 -36 -13.5c-36 0 -68.167 3.16699 -96.5 9.5s-52.5 19 -72.5 38s-34.667 47.5 -44 85.5c-25.333 -12 -51.166 -25.5 -77.499 -40.5s-55.5 -29.5 -87.5 -43.5s-69 -25.667 -111 -35s-91.333 -14 -148 -14z
M156.001 584.002c-14 0 -25.833 4.83301 -35.5 14.5s-14.5 21.167 -14.5 34.5s4.83301 25 14.5 35s21.5 15 35.5 15c13.333 0 24.833 -5 34.5 -15s14.5 -21.667 14.5 -35s-4.83301 -24.833 -14.5 -34.5s-21.167 -14.5 -34.5 -14.5zM157.001 455.002
c-14 0 -25.833 4.83301 -35.5 14.5s-14.5 21.167 -14.5 34.5s4.83301 25 14.5 35s21.5 15 35.5 15c13.333 0 24.833 -5 34.5 -15s14.5 -21.667 14.5 -35s-4.83301 -24.833 -14.5 -34.5s-21.167 -14.5 -34.5 -14.5z" />
    <glyph glyph-name="hahTwodotsverticalabove-ar.fina" unicode="&#x682;" horiz-adv-x="649" 
d="M360 -394c-46.667 0 -91.166 5.33398 -133.499 16.001s-79.666 27.167 -111.999 49.5s-57.833 50.5 -76.5 84.5s-28 74 -28 120c0 61.333 14.333 118.333 43 171s69.834 99.167 123.501 139.5s117.5 72.833 191.5 97.5l-102.5 32.5c-35.667 11 -77.167 16.5 -124.5 16.5
c-20 0 -37.5 -1.66699 -52.5 -5s-29.167 -6.66602 -42.5 -9.99902l-14 74c17.333 6.66699 36.833 12.334 58.5 17.001s43.5 7 65.5 7c30.667 0 58 -2.83301 82 -8.5s46.833 -12.5 68.5 -20.5l68.5 -24.5c24 -8.33301 50.833 -15.333 80.5 -21
s64.834 -8.83398 105.501 -9.50098h9l2 -82c-34.667 0 -71 -4 -109 -12c5.33301 -37.333 14 -66.833 26 -88.5s26.833 -37.667 44.5 -48s37.167 -17 58.5 -20s43.666 -4.5 66.999 -4.5c14 0 24.167 -3.83301 30.5 -11.5s9.5 -16.834 9.5 -27.501s-4.5 -20.5 -13.5 -29.5
s-20.833 -13.5 -35.5 -13.5c-28 0 -56.167 2 -84.5 6s-54.666 13 -78.999 27s-44.5 36.167 -60.5 66.5s-25.667 72.166 -29 125.499c-38.667 -13.333 -76.334 -30.333 -113.001 -51s-69.334 -45 -98.001 -73s-51.5 -59.5 -68.5 -94.5s-25.5 -73.5 -25.5 -115.5
c0 -46.667 12.667 -84.5 38 -113.5s59.166 -50.167 101.499 -63.5s88.5 -20 138.5 -20c66 0 133 13.333 201 40l28 -68c-39.333 -18.667 -79.333 -32.5 -120 -41.5s-80.334 -13.5 -119.001 -13.5zM311.001 648.001c-14 0 -25.833 4.83301 -35.5 14.5
s-14.5 21.167 -14.5 34.5s4.83301 25 14.5 35s21.5 15 35.5 15c13.333 0 24.833 -5 34.5 -15s14.5 -21.667 14.5 -35s-4.83301 -24.833 -14.5 -34.5s-21.167 -14.5 -34.5 -14.5zM312.001 519.001c-14 0 -25.833 4.83301 -35.5 14.5s-14.5 21.167 -14.5 34.5
s4.83301 25 14.5 35s21.5 15 35.5 15c13.333 0 24.833 -5 34.5 -15s14.5 -21.667 14.5 -35s-4.83301 -24.833 -14.5 -34.5s-21.167 -14.5 -34.5 -14.5z" />
    <glyph glyph-name="hahThreedotsabove-ar.init" unicode="&#x685;" horiz-adv-x="589" 
d="M0 -5l9.00391 82.001c68.667 0 135.334 10.167 200.001 30.5s123.667 49.166 177 86.499c-26 22.667 -57.833 41 -95.5 55s-79.167 21 -124.5 21c-16.667 0 -31.334 -0.833008 -44.001 -2.5s-28 -4.5 -46 -8.5l-16 76c37.333 11.333 72.666 17 105.999 17
c34.667 0 66 -4.16699 94 -12.5s53.5 -18.5 76.5 -30.5s44.667 -24 65 -36s40.166 -22.167 59.499 -30.5s39.333 -12.5 60 -12.5h21l7 -72c-34 0 -65 -5.5 -93 -16.5s-56.167 -24.667 -84.5 -41s-59.333 -32.5 -93 -48.5s-72.834 -29.5 -117.501 -40.5
s-98.334 -16.5 -161.001 -16.5zM169.004 565.001c-14 0 -25.833 4.83301 -35.5 14.5s-14.5 21.167 -14.5 34.5s4.83301 25 14.5 35s21.5 15 35.5 15c13.333 0 24.833 -5 34.5 -15s14.5 -21.667 14.5 -35s-4.83301 -24.833 -14.5 -34.5s-21.167 -14.5 -34.5 -14.5z
M101.004 455.001c-14 0 -25.833 4.83301 -35.5 14.5s-14.5 21.167 -14.5 34.5s4.83301 25 14.5 35s21.5 15 35.5 15c13.333 0 24.833 -5 34.5 -15s14.5 -21.667 14.5 -35s-4.83301 -24.833 -14.5 -34.5s-21.167 -14.5 -34.5 -14.5zM237.004 455.001
c-14 0 -25.833 4.83301 -35.5 14.5s-14.5 21.167 -14.5 34.5s4.83301 25 14.5 35s21.5 15 35.5 15c13.333 0 24.833 -5 34.5 -15s14.5 -21.667 14.5 -35s-4.83301 -24.833 -14.5 -34.5s-21.167 -14.5 -34.5 -14.5z" />
    <glyph glyph-name="hahThreedotsabove-ar.medi" unicode="&#x685;" horiz-adv-x="637" 
d="M0 -5l9.00098 82.002c68.667 0 135.334 10.167 200.001 30.5s123.667 49.166 177 86.499c-26 22.667 -57.833 41 -95.5 55s-79.167 21 -124.5 21c-16.667 0 -31.334 -0.833008 -44.001 -2.5s-28 -4.5 -46 -8.5l-16 76c37.333 11.333 72.666 17 105.999 17
c34.667 0 66 -4.16699 94 -12.5s53.5 -18.5 76.5 -30.5s44.667 -24 65 -36s40.166 -22.167 59.499 -30.5s39.333 -12.5 60 -12.5h21l7 -72c-20.667 0 -40.667 -2.33301 -60 -7c12.667 -30 30.667 -49.833 54 -59.5s58 -14.5 104 -14.5c14 0 24.167 -3.83301 30.5 -11.5
s9.5 -16.834 9.5 -27.501s-4.66699 -20.5 -14 -29.5s-21.333 -13.5 -36 -13.5c-36 0 -68.167 3.16699 -96.5 9.5s-52.5 19 -72.5 38s-34.667 47.5 -44 85.5c-25.333 -12 -51.166 -25.5 -77.499 -40.5s-55.5 -29.5 -87.5 -43.5s-69 -25.667 -111 -35s-91.333 -14 -148 -14z
M159.001 565.002c-14 0 -25.833 4.83301 -35.5 14.5s-14.5 21.167 -14.5 34.5s4.83301 25 14.5 35s21.5 15 35.5 15c13.333 0 24.833 -5 34.5 -15s14.5 -21.667 14.5 -35s-4.83301 -24.833 -14.5 -34.5s-21.167 -14.5 -34.5 -14.5zM91.001 455.002
c-14 0 -25.833 4.83301 -35.5 14.5s-14.5 21.167 -14.5 34.5s4.83301 25 14.5 35s21.5 15 35.5 15c13.333 0 24.833 -5 34.5 -15s14.5 -21.667 14.5 -35s-4.83301 -24.833 -14.5 -34.5s-21.167 -14.5 -34.5 -14.5zM227.001 455.002c-14 0 -25.833 4.83301 -35.5 14.5
s-14.5 21.167 -14.5 34.5s4.83301 25 14.5 35s21.5 15 35.5 15c13.333 0 24.833 -5 34.5 -15s14.5 -21.667 14.5 -35s-4.83301 -24.833 -14.5 -34.5s-21.167 -14.5 -34.5 -14.5z" />
    <glyph glyph-name="hahThreedotsabove-ar.fina" unicode="&#x685;" horiz-adv-x="649" 
d="M360 -394c-46.667 0 -91.166 5.33398 -133.499 16.001s-79.666 27.167 -111.999 49.5s-57.833 50.5 -76.5 84.5s-28 74 -28 120c0 61.333 14.333 118.333 43 171s69.834 99.167 123.501 139.5s117.5 72.833 191.5 97.5l-102.5 32.5c-35.667 11 -77.167 16.5 -124.5 16.5
c-20 0 -37.5 -1.66699 -52.5 -5s-29.167 -6.66602 -42.5 -9.99902l-14 74c17.333 6.66699 36.833 12.334 58.5 17.001s43.5 7 65.5 7c30.667 0 58 -2.83301 82 -8.5s46.833 -12.5 68.5 -20.5l68.5 -24.5c24 -8.33301 50.833 -15.333 80.5 -21
s64.834 -8.83398 105.501 -9.50098h9l2 -82c-34.667 0 -71 -4 -109 -12c5.33301 -37.333 14 -66.833 26 -88.5s26.833 -37.667 44.5 -48s37.167 -17 58.5 -20s43.666 -4.5 66.999 -4.5c14 0 24.167 -3.83301 30.5 -11.5s9.5 -16.834 9.5 -27.501s-4.5 -20.5 -13.5 -29.5
s-20.833 -13.5 -35.5 -13.5c-28 0 -56.167 2 -84.5 6s-54.666 13 -78.999 27s-44.5 36.167 -60.5 66.5s-25.667 72.166 -29 125.499c-38.667 -13.333 -76.334 -30.333 -113.001 -51s-69.334 -45 -98.001 -73s-51.5 -59.5 -68.5 -94.5s-25.5 -73.5 -25.5 -115.5
c0 -46.667 12.667 -84.5 38 -113.5s59.166 -50.167 101.499 -63.5s88.5 -20 138.5 -20c66 0 133 13.333 201 40l28 -68c-39.333 -18.667 -79.333 -32.5 -120 -41.5s-80.334 -13.5 -119.001 -13.5zM314.001 629.001c-14 0 -25.833 4.83301 -35.5 14.5
s-14.5 21.167 -14.5 34.5s4.83301 25 14.5 35s21.5 15 35.5 15c13.333 0 24.833 -5 34.5 -15s14.5 -21.667 14.5 -35s-4.83301 -24.833 -14.5 -34.5s-21.167 -14.5 -34.5 -14.5zM246.001 519.001c-14 0 -25.833 4.83301 -35.5 14.5s-14.5 21.167 -14.5 34.5
s4.83301 25 14.5 35s21.5 15 35.5 15c13.333 0 24.833 -5 34.5 -15s14.5 -21.667 14.5 -35s-4.83301 -24.833 -14.5 -34.5s-21.167 -14.5 -34.5 -14.5zM382.001 519.001c-14 0 -25.833 4.83301 -35.5 14.5s-14.5 21.167 -14.5 34.5s4.83301 25 14.5 35s21.5 15 35.5 15
c13.333 0 24.833 -5 34.5 -15s14.5 -21.667 14.5 -35s-4.83301 -24.833 -14.5 -34.5s-21.167 -14.5 -34.5 -14.5z" />
    <glyph glyph-name="dalRing-ar.fina" unicode="&#x689;" horiz-adv-x="532" 
d="M215 77c49.333 0 84.3311 7.50293 104.998 22.5029s31 35.833 31 62.5c0 17.333 -6 39.666 -18 66.999s-27.833 57.833 -47.5 91.5s-41.5 68.167 -65.5 103.5l69 45c38.667 -59.333 70.167 -113.5 94.5 -162.5s42.5 -93.167 54.5 -132.5
c9.33301 -29.333 19.833 -51 31.5 -65s23.834 -22.833 36.501 -26.5s24.334 -5.5 35.001 -5.5c14 0 24.333 -3.83301 31 -11.5s10 -16.834 10 -27.501s-4.66699 -20.5 -14 -29.5s-21.333 -13.5 -36 -13.5c-26 0 -51 5.66699 -75 17s-43.333 30.666 -58 57.999
c-13.333 -22 -34.5 -40.167 -63.5 -54.5s-69.167 -21.5 -120.5 -21.5c-36.667 0 -70.667 4.5 -102 13.5s-57.333 21.5 -78 37.5l40 69c13.333 -9.33301 32 -17.833 56 -25.5s52 -11.5 84 -11.5zM213.998 -134.997c-24.667 0 -45.667 8.66699 -63 26s-26 38.333 -26 63
s8.66699 45.667 26 63s38.333 26 63 26s45.667 -8.66699 63 -26s26 -38.333 26 -63s-8.66699 -45.667 -26 -63s-38.333 -26 -63 -26zM213.998 -83.9971c11.333 0 21 3.5 29 10.5s12 16.167 12 27.5s-4 20.833 -12 28.5s-17.667 11.5 -29 11.5s-21 -3.83301 -29 -11.5
s-12 -17.167 -12 -28.5s4 -20.5 12 -27.5s17.667 -10.5 29 -10.5z" />
    <glyph glyph-name="dalDotbelow-ar.fina" unicode="&#x68a;" horiz-adv-x="532" 
d="M215 77c49.333 0 84.3311 7.50293 104.998 22.5029s31 35.833 31 62.5c0 17.333 -6 39.666 -18 66.999s-27.833 57.833 -47.5 91.5s-41.5 68.167 -65.5 103.5l69 45c38.667 -59.333 70.167 -113.5 94.5 -162.5s42.5 -93.167 54.5 -132.5
c9.33301 -29.333 19.833 -51 31.5 -65s23.834 -22.833 36.501 -26.5s24.334 -5.5 35.001 -5.5c14 0 24.333 -3.83301 31 -11.5s10 -16.834 10 -27.501s-4.66699 -20.5 -14 -29.5s-21.333 -13.5 -36 -13.5c-26 0 -51 5.66699 -75 17s-43.333 30.666 -58 57.999
c-13.333 -22 -34.5 -40.167 -63.5 -54.5s-69.167 -21.5 -120.5 -21.5c-36.667 0 -70.667 4.5 -102 13.5s-57.333 21.5 -78 37.5l40 69c13.333 -9.33301 32 -17.833 56 -25.5s52 -11.5 84 -11.5zM233.998 -190.997c-14 0 -25.833 4.83301 -35.5 14.5s-14.5 21.167 -14.5 34.5
s4.83301 25 14.5 35s21.5 15 35.5 15c13.333 0 24.833 -5 34.5 -15s14.5 -21.667 14.5 -35s-4.83301 -24.833 -14.5 -34.5s-21.167 -14.5 -34.5 -14.5z" />
    <glyph glyph-name="dalDotbelowTah-ar.fina" unicode="&#x68b;" horiz-adv-x="532" 
d="M215 77c49.333 0 84.3311 7.50293 104.998 22.5029s31 35.833 31 62.5c0 17.333 -6 39.666 -18 66.999s-27.833 57.833 -47.5 91.5s-41.5 68.167 -65.5 103.5l69 45c38.667 -59.333 70.167 -113.5 94.5 -162.5s42.5 -93.167 54.5 -132.5
c9.33301 -29.333 19.833 -51 31.5 -65s23.834 -22.833 36.501 -26.5s24.334 -5.5 35.001 -5.5c14 0 24.333 -3.83301 31 -11.5s10 -16.834 10 -27.501s-4.66699 -20.5 -14 -29.5s-21.333 -13.5 -36 -13.5c-26 0 -51 5.66699 -75 17s-43.333 30.666 -58 57.999
c-13.333 -22 -34.5 -40.167 -63.5 -54.5s-69.167 -21.5 -120.5 -21.5c-36.667 0 -70.667 4.5 -102 13.5s-57.333 21.5 -78 37.5l40 69c13.333 -9.33301 32 -17.833 56 -25.5s52 -11.5 84 -11.5zM223.998 588.003c-12 0 -26.166 0.5 -42.499 1.5s-31.833 2.16699 -46.5 3.5
l-33 3l2 58c4 -0.666992 8.33301 -1.16699 13 -1.5s9.66699 -0.833008 15 -1.5c6.66699 12 14 23.333 22 34l-5 162h55l5 -106c12 8.66699 24.5 15.5 37.5 20.5s26.167 7.5 39.5 7.5c24.667 0 44.5 -7.66699 59.5 -23s22.5 -34.333 22.5 -57
c0 -13.333 -3.83301 -27.833 -11.5 -43.5s-21.834 -29.167 -42.501 -40.5s-50.667 -17 -90 -17zM277.999 710.003c-12 0 -23.668 -3.66699 -35.001 -11s-21.833 -16 -31.5 -26s-17.167 -18.667 -22.5 -26c10.667 -0.666992 20 -1 28 -1c32.667 0 56.334 3.5 71.001 10.5
s22 16.167 22 27.5c0 8.66699 -3 15.167 -9 19.5s-13.667 6.5 -23 6.5zM233.998 -190.997c-14 0 -25.833 4.83301 -35.5 14.5s-14.5 21.167 -14.5 34.5s4.83301 25 14.5 35s21.5 15 35.5 15c13.333 0 24.833 -5 34.5 -15s14.5 -21.667 14.5 -35
s-4.83301 -24.833 -14.5 -34.5s-21.167 -14.5 -34.5 -14.5z" />
    <glyph glyph-name="dalThreedotsdown-ar.fina" unicode="&#x68f;" horiz-adv-x="532" 
d="M215 77c49.333 0 84.3311 7.50293 104.998 22.5029s31 35.833 31 62.5c0 17.333 -6 39.666 -18 66.999s-27.833 57.833 -47.5 91.5s-41.5 68.167 -65.5 103.5l69 45c38.667 -59.333 70.167 -113.5 94.5 -162.5s42.5 -93.167 54.5 -132.5
c9.33301 -29.333 19.833 -51 31.5 -65s23.834 -22.833 36.501 -26.5s24.334 -5.5 35.001 -5.5c14 0 24.333 -3.83301 31 -11.5s10 -16.834 10 -27.501s-4.66699 -20.5 -14 -29.5s-21.333 -13.5 -36 -13.5c-26 0 -51 5.66699 -75 17s-43.333 30.666 -58 57.999
c-13.333 -22 -34.5 -40.167 -63.5 -54.5s-69.167 -21.5 -120.5 -21.5c-36.667 0 -70.667 4.5 -102 13.5s-57.333 21.5 -78 37.5l40 69c13.333 -9.33301 32 -17.833 56 -25.5s52 -11.5 84 -11.5zM154.998 670.003c-14 0 -25.833 4.83301 -35.5 14.5s-14.5 21.167 -14.5 34.5
s4.83301 25 14.5 35s21.5 15 35.5 15c13.333 0 24.833 -5 34.5 -15s14.5 -21.667 14.5 -35s-4.83301 -24.833 -14.5 -34.5s-21.167 -14.5 -34.5 -14.5zM290.998 670.003c-14 0 -25.833 4.83301 -35.5 14.5s-14.5 21.167 -14.5 34.5s4.83301 25 14.5 35s21.5 15 35.5 15
c13.333 0 24.833 -5 34.5 -15s14.5 -21.667 14.5 -35s-4.83301 -24.833 -14.5 -34.5s-21.167 -14.5 -34.5 -14.5zM222.998 560.003c-14 0 -25.833 4.83301 -35.5 14.5s-14.5 21.167 -14.5 34.5s4.83301 25 14.5 35s21.5 15 35.5 15c13.333 0 24.833 -5 34.5 -15
s14.5 -21.667 14.5 -35s-4.83301 -24.833 -14.5 -34.5s-21.167 -14.5 -34.5 -14.5z" />
    <glyph glyph-name="dalFourdots-ar.fina" unicode="&#x690;" horiz-adv-x="532" 
d="M215 77c49.333 0 84.3311 7.50293 104.998 22.5029s31 35.833 31 62.5c0 17.333 -6 39.666 -18 66.999s-27.833 57.833 -47.5 91.5s-41.5 68.167 -65.5 103.5l69 45c38.667 -59.333 70.167 -113.5 94.5 -162.5s42.5 -93.167 54.5 -132.5
c9.33301 -29.333 19.833 -51 31.5 -65s23.834 -22.833 36.501 -26.5s24.334 -5.5 35.001 -5.5c14 0 24.333 -3.83301 31 -11.5s10 -16.834 10 -27.501s-4.66699 -20.5 -14 -29.5s-21.333 -13.5 -36 -13.5c-26 0 -51 5.66699 -75 17s-43.333 30.666 -58 57.999
c-13.333 -22 -34.5 -40.167 -63.5 -54.5s-69.167 -21.5 -120.5 -21.5c-36.667 0 -70.667 4.5 -102 13.5s-57.333 21.5 -78 37.5l40 69c13.333 -9.33301 32 -17.833 56 -25.5s52 -11.5 84 -11.5zM154.998 685.003c-14 0 -25.833 4.83301 -35.5 14.5s-14.5 21.167 -14.5 34.5
s4.83301 25 14.5 35s21.5 15 35.5 15c13.333 0 24.833 -5 34.5 -15s14.5 -21.667 14.5 -35s-4.83301 -24.833 -14.5 -34.5s-21.167 -14.5 -34.5 -14.5zM290.998 685.003c-14 0 -25.833 4.83301 -35.5 14.5s-14.5 21.167 -14.5 34.5s4.83301 25 14.5 35s21.5 15 35.5 15
c13.333 0 24.833 -5 34.5 -15s14.5 -21.667 14.5 -35s-4.83301 -24.833 -14.5 -34.5s-21.167 -14.5 -34.5 -14.5zM154.998 560.003c-14 0 -25.833 4.83301 -35.5 14.5s-14.5 21.167 -14.5 34.5s4.83301 25 14.5 35s21.5 15 35.5 15c13.333 0 24.833 -5 34.5 -15
s14.5 -21.667 14.5 -35s-4.83301 -24.833 -14.5 -34.5s-21.167 -14.5 -34.5 -14.5zM290.998 560.003c-14 0 -25.833 4.83301 -35.5 14.5s-14.5 21.167 -14.5 34.5s4.83301 25 14.5 35s21.5 15 35.5 15c13.333 0 24.833 -5 34.5 -15s14.5 -21.667 14.5 -35
s-4.83301 -24.833 -14.5 -34.5s-21.167 -14.5 -34.5 -14.5z" />
    <glyph glyph-name="rehv-ar.fina" unicode="&#x692;" horiz-adv-x="396" 
d="M4 -232l-29.001 76.0039c64.667 21.333 115.167 46.666 151.5 75.999s62 60.166 77 92.499s22.5 63.833 22.5 94.5c0 32.667 -7.16699 65.834 -21.5 99.501s-30.166 65.5 -47.499 95.5l73 37c18.667 -35.333 34.5 -69.333 47.5 -102s23.167 -61.334 30.5 -86.001
c9.33301 -28.667 21.5 -48.167 36.5 -58.5s35.5 -15.5 61.5 -15.5c14 0 24.167 -3.83301 30.5 -11.5s9.5 -16.834 9.5 -27.501s-4.66699 -20.5 -14 -29.5s-21.333 -13.5 -36 -13.5c-25.333 0 -46.5 4 -63.5 12s-30.833 18.667 -41.5 32
c-6.66699 -37.333 -20.667 -71.333 -42 -102s-46.333 -57.5 -75 -80.5s-58 -41.833 -88 -56.5s-57.333 -25.334 -82 -32.001zM133.999 485.004l-25.001 53.5l-33 67c-11.333 22.333 -21 40.5 -29 54.5l46 25c4.66699 -8 11.334 -20.167 20.001 -36.5l27.5 -52
c9.66699 -18.333 17.834 -34.833 24.501 -49.5l24 55.5l24 53c7.33301 15.667 12.666 26.167 15.999 31.5l45 -19l-16 -32.5l-24 -50l-24 -53c-7.33301 -17 -13 -30.833 -17 -41.5z" />
    <glyph glyph-name="rehRing-ar.fina" unicode="&#x693;" horiz-adv-x="396" 
d="M4 -232l-29.001 76.0039c64.667 21.333 115.167 46.666 151.5 75.999s62 60.166 77 92.499s22.5 63.833 22.5 94.5c0 32.667 -7.16699 65.834 -21.5 99.501s-30.166 65.5 -47.499 95.5l73 37c18.667 -35.333 34.5 -69.333 47.5 -102s23.167 -61.334 30.5 -86.001
c9.33301 -28.667 21.5 -48.167 36.5 -58.5s35.5 -15.5 61.5 -15.5c14 0 24.167 -3.83301 30.5 -11.5s9.5 -16.834 9.5 -27.501s-4.66699 -20.5 -14 -29.5s-21.333 -13.5 -36 -13.5c-25.333 0 -46.5 4 -63.5 12s-30.833 18.667 -41.5 32
c-6.66699 -37.333 -20.667 -71.333 -42 -102s-46.333 -57.5 -75 -80.5s-58 -41.833 -88 -56.5s-57.333 -25.334 -82 -32.001zM240.999 -225.996c-24.667 0 -45.667 8.66699 -63 26s-26 38.333 -26 63s8.66699 45.667 26 63s38.333 26 63 26s45.667 -8.66699 63 -26
s26 -38.333 26 -63s-8.66699 -45.667 -26 -63s-38.333 -26 -63 -26zM240.999 -174.996c11.333 0 21 3.5 29 10.5s12 16.167 12 27.5s-4 20.833 -12 28.5s-17.667 11.5 -29 11.5s-21 -3.83301 -29 -11.5s-12 -17.167 -12 -28.5s4 -20.5 12 -27.5s17.667 -10.5 29 -10.5z" />
    <glyph glyph-name="rehDotbelow-ar.fina" unicode="&#x694;" horiz-adv-x="396" 
d="M4 -232l-29.001 76.0039c64.667 21.333 115.167 46.666 151.5 75.999s62 60.166 77 92.499s22.5 63.833 22.5 94.5c0 32.667 -7.16699 65.834 -21.5 99.501s-30.166 65.5 -47.499 95.5l73 37c18.667 -35.333 34.5 -69.333 47.5 -102s23.167 -61.334 30.5 -86.001
c9.33301 -28.667 21.5 -48.167 36.5 -58.5s35.5 -15.5 61.5 -15.5c14 0 24.167 -3.83301 30.5 -11.5s9.5 -16.834 9.5 -27.501s-4.66699 -20.5 -14 -29.5s-21.333 -13.5 -36 -13.5c-25.333 0 -46.5 4 -63.5 12s-30.833 18.667 -41.5 32
c-6.66699 -37.333 -20.667 -71.333 -42 -102s-46.333 -57.5 -75 -80.5s-58 -41.833 -88 -56.5s-57.333 -25.334 -82 -32.001zM82.999 -402.996c-14 0 -25.833 4.83301 -35.5 14.5s-14.5 21.167 -14.5 34.5s4.83301 25 14.5 35s21.5 15 35.5 15c13.333 0 24.833 -5 34.5 -15
s14.5 -21.667 14.5 -35s-4.83301 -24.833 -14.5 -34.5s-21.167 -14.5 -34.5 -14.5z" />
    <glyph glyph-name="rehVbelow-ar.fina" unicode="&#x695;" horiz-adv-x="396" 
d="M4 -232l-29.001 76.0039c64.667 21.333 115.167 46.666 151.5 75.999s62 60.166 77 92.499s22.5 63.833 22.5 94.5c0 32.667 -7.16699 65.834 -21.5 99.501s-30.166 65.5 -47.499 95.5l73 37c18.667 -35.333 34.5 -69.333 47.5 -102s23.167 -61.334 30.5 -86.001
c9.33301 -28.667 21.5 -48.167 36.5 -58.5s35.5 -15.5 61.5 -15.5c14 0 24.167 -3.83301 30.5 -11.5s9.5 -16.834 9.5 -27.501s-4.66699 -20.5 -14 -29.5s-21.333 -13.5 -36 -13.5c-25.333 0 -46.5 4 -63.5 12s-30.833 18.667 -41.5 32
c-6.66699 -37.333 -20.667 -71.333 -42 -102s-46.333 -57.5 -75 -80.5s-58 -41.833 -88 -56.5s-57.333 -25.334 -82 -32.001zM44.5977 -57.1934c-4.7998 10.667 -11.4658 24.4023 -19.999 41.2021l-26.4004 50.7988l-23.1992 42.3994l36.7998 20l16.3994 -28
c7.2002 -12.2666 14.5332 -25.4668 22 -39.6006c7.46582 -14.1328 13.8652 -26.7988 19.1982 -37.999c5.86621 13.8662 12.2666 28.2656 19.2002 43.1982l19.1992 39.999c5.86621 11.7334 10.1328 19.7334 12.7998 24l36 -15.2002l-12.7998 -25.1992l-19.2002 -37.999
c-6.93262 -13.8662 -13.332 -27.333 -19.1982 -40.3994c-5.86719 -13.0674 -10.4004 -23.8672 -13.6006 -32.3994z" />
    <glyph glyph-name="rehDotbelowdotabove-ar.fina" unicode="&#x696;" horiz-adv-x="396" 
d="M4 -232l-29.001 76.0039c64.667 21.333 115.167 46.666 151.5 75.999s62 60.166 77 92.499s22.5 63.833 22.5 94.5c0 32.667 -7.16699 65.834 -21.5 99.501s-30.166 65.5 -47.499 95.5l73 37c18.667 -35.333 34.5 -69.333 47.5 -102s23.167 -61.334 30.5 -86.001
c9.33301 -28.667 21.5 -48.167 36.5 -58.5s35.5 -15.5 61.5 -15.5c14 0 24.167 -3.83301 30.5 -11.5s9.5 -16.834 9.5 -27.501s-4.66699 -20.5 -14 -29.5s-21.333 -13.5 -36 -13.5c-25.333 0 -46.5 4 -63.5 12s-30.833 18.667 -41.5 32
c-6.66699 -37.333 -20.667 -71.333 -42 -102s-46.333 -57.5 -75 -80.5s-58 -41.833 -88 -56.5s-57.333 -25.334 -82 -32.001zM70.999 -6.99609c-14 0 -25.833 4.83301 -35.5 14.5s-14.5 21.167 -14.5 34.5s4.83301 25 14.5 35s21.5 15 35.5 15c13.333 0 24.833 -5 34.5 -15
s14.5 -21.667 14.5 -35s-4.83301 -24.833 -14.5 -34.5s-21.167 -14.5 -34.5 -14.5zM82.999 -402.996c-14 0 -25.833 4.83301 -35.5 14.5s-14.5 21.167 -14.5 34.5s4.83301 25 14.5 35s21.5 15 35.5 15c13.333 0 24.833 -5 34.5 -15s14.5 -21.667 14.5 -35
s-4.83301 -24.833 -14.5 -34.5s-21.167 -14.5 -34.5 -14.5z" />
    <glyph glyph-name="rehTwodots-ar.fina" unicode="&#x697;" horiz-adv-x="396" 
d="M4 -232l-29.001 76.0039c64.667 21.333 115.167 46.666 151.5 75.999s62 60.166 77 92.499s22.5 63.833 22.5 94.5c0 32.667 -7.16699 65.834 -21.5 99.501s-30.166 65.5 -47.499 95.5l73 37c18.667 -35.333 34.5 -69.333 47.5 -102s23.167 -61.334 30.5 -86.001
c9.33301 -28.667 21.5 -48.167 36.5 -58.5s35.5 -15.5 61.5 -15.5c14 0 24.167 -3.83301 30.5 -11.5s9.5 -16.834 9.5 -27.501s-4.66699 -20.5 -14 -29.5s-21.333 -13.5 -36 -13.5c-25.333 0 -46.5 4 -63.5 12s-30.833 18.667 -41.5 32
c-6.66699 -37.333 -20.667 -71.333 -42 -102s-46.333 -57.5 -75 -80.5s-58 -41.833 -88 -56.5s-57.333 -25.334 -82 -32.001zM232.999 454.004c-14 0 -25.833 4.83301 -35.5 14.5s-14.5 21.167 -14.5 34.5s4.83301 25 14.5 35s21.5 15 35.5 15c13.333 0 24.833 -5 34.5 -15
s14.5 -21.667 14.5 -35s-4.83301 -24.833 -14.5 -34.5s-21.167 -14.5 -34.5 -14.5zM95.999 454.004c-14 0 -25.833 4.83301 -35.5 14.5s-14.5 21.167 -14.5 34.5s4.83301 25 14.5 35s21.5 15 35.5 15c13.333 0 24.833 -5 34.5 -15s14.5 -21.667 14.5 -35
s-4.83301 -24.833 -14.5 -34.5s-21.167 -14.5 -34.5 -14.5z" />
    <glyph glyph-name="rehFourdots-ar.fina" unicode="&#x699;" horiz-adv-x="396" 
d="M4 -232l-29.001 76.0039c64.667 21.333 115.167 46.666 151.5 75.999s62 60.166 77 92.499s22.5 63.833 22.5 94.5c0 32.667 -7.16699 65.834 -21.5 99.501s-30.166 65.5 -47.499 95.5l73 37c18.667 -35.333 34.5 -69.333 47.5 -102s23.167 -61.334 30.5 -86.001
c9.33301 -28.667 21.5 -48.167 36.5 -58.5s35.5 -15.5 61.5 -15.5c14 0 24.167 -3.83301 30.5 -11.5s9.5 -16.834 9.5 -27.501s-4.66699 -20.5 -14 -29.5s-21.333 -13.5 -36 -13.5c-25.333 0 -46.5 4 -63.5 12s-30.833 18.667 -41.5 32
c-6.66699 -37.333 -20.667 -71.333 -42 -102s-46.333 -57.5 -75 -80.5s-58 -41.833 -88 -56.5s-57.333 -25.334 -82 -32.001zM96.999 579.004c-14 0 -25.833 4.83301 -35.5 14.5s-14.5 21.167 -14.5 34.5s4.83301 25 14.5 35s21.5 15 35.5 15c13.333 0 24.833 -5 34.5 -15
s14.5 -21.667 14.5 -35s-4.83301 -24.833 -14.5 -34.5s-21.167 -14.5 -34.5 -14.5zM232.999 579.004c-14 0 -25.833 4.83301 -35.5 14.5s-14.5 21.167 -14.5 34.5s4.83301 25 14.5 35s21.5 15 35.5 15c13.333 0 24.833 -5 34.5 -15s14.5 -21.667 14.5 -35
s-4.83301 -24.833 -14.5 -34.5s-21.167 -14.5 -34.5 -14.5zM96.999 454.004c-14 0 -25.833 4.83301 -35.5 14.5s-14.5 21.167 -14.5 34.5s4.83301 25 14.5 35s21.5 15 35.5 15c13.333 0 24.833 -5 34.5 -15s14.5 -21.667 14.5 -35s-4.83301 -24.833 -14.5 -34.5
s-21.167 -14.5 -34.5 -14.5zM232.999 454.004c-14 0 -25.833 4.83301 -35.5 14.5s-14.5 21.167 -14.5 34.5s4.83301 25 14.5 35s21.5 15 35.5 15c13.333 0 24.833 -5 34.5 -15s14.5 -21.667 14.5 -35s-4.83301 -24.833 -14.5 -34.5s-21.167 -14.5 -34.5 -14.5z" />
    <glyph glyph-name="seenDotbelowDotabove-ar.init" unicode="&#x69a;" horiz-adv-x="784" 
d="M0 -5l10.001 81.9971c21.333 0 38.666 1.5 51.999 4.5s24.5 10.667 33.5 23s17.5 31.833 25.5 58.5s17.333 64 28 112l75 -21l-14 -61c-5.33301 -23.333 -8 -44.333 -8 -63c0 -16.667 6.33301 -29.667 19 -39s35.667 -14 69 -14c20 0 36.333 1.66699 49 5
s23.167 11.333 31.5 24s15.833 32.834 22.5 60.501s13.667 66.167 21 115.5l76 -14l-7.5 -44c-3 -17.333 -5.5 -34.5 -7.5 -51.5s-3 -31.167 -3 -42.5c0 -9.33301 2.16699 -18.166 6.5 -26.499s13 -14.833 26 -19.5s32.5 -7 58.5 -7c28.667 0 51.667 5.66699 69 17
s26 34.333 26 69c0 24.667 -5.83301 56.334 -17.5 95.001s-24.834 77 -39.501 115l81 30c8 -22 16 -46.5 24 -73.5s14.667 -53.833 20 -80.5s8 -50 8 -70c0 -62 -15.333 -108.167 -46 -138.5s-72.667 -45.5 -126 -45.5c-36.667 0 -65.5 4.83301 -86.5 14.5
s-36.167 24.834 -45.5 45.501c-16 -24.667 -35.167 -40.834 -57.5 -48.501s-53.833 -11.5 -94.5 -11.5c-14 0 -28.833 1.66699 -44.5 5s-30.167 9.83301 -43.5 19.5s-23.666 24.167 -30.999 43.5c-17.333 -29.333 -38.833 -48 -64.5 -56s-57.167 -12 -94.5 -12z
M386.001 -191.003c-14 0 -25.833 4.83301 -35.5 14.5s-14.5 21.167 -14.5 34.5s4.83301 25 14.5 35s21.5 15 35.5 15c13.333 0 24.833 -5 34.5 -15s14.5 -21.667 14.5 -35s-4.83301 -24.833 -14.5 -34.5s-21.167 -14.5 -34.5 -14.5zM429.001 434.997
c-14 0 -25.833 4.83301 -35.5 14.5s-14.5 21.167 -14.5 34.5s4.83301 25 14.5 35s21.5 15 35.5 15c13.333 0 24.833 -5 34.5 -15s14.5 -21.667 14.5 -35s-4.83301 -24.833 -14.5 -34.5s-21.167 -14.5 -34.5 -14.5z" />
    <glyph glyph-name="seenDotbelowDotabove-ar.medi" unicode="&#x69a;" horiz-adv-x="850" 
d="M0 -5l9.99609 82.001c21.333 0 38.666 1.5 51.999 4.5s24.5 10.667 33.5 23s17.5 31.833 25.5 58.5s17.333 64 28 112l75 -21l-14 -61c-5.33301 -23.333 -8 -44.333 -8 -63c0 -16.667 6.33301 -29.667 19 -39s35.667 -14 69 -14c20 0 36.333 1.66699 49 5
s23.167 11.333 31.5 24s15.833 32.834 22.5 60.501s13.667 66.167 21 115.5l76 -14l-7.5 -44c-3 -17.333 -5.5 -34.5 -7.5 -51.5s-3 -31.167 -3 -42.5c0 -9.33301 2.16699 -18.166 6.5 -26.499s13 -14.833 26 -19.5s32.5 -7 58.5 -7c33.333 0 57.5 6.83301 72.5 20.5
s22.5 35.167 22.5 64.5c0 22.667 -0.666992 47.667 -2 75s-4.66602 61.666 -9.99902 102.999l73 5c4 -54 8.5 -98.333 13.5 -133s12.333 -61.834 22 -81.501s22.834 -33.5 39.501 -41.5s38.667 -12 66 -12c14 0 24.167 -3.83301 30.5 -11.5s9.5 -16.834 9.5 -27.501
s-4.66699 -20.5 -14 -29.5s-21.333 -13.5 -36 -13.5c-37.333 0 -68.166 8.33301 -92.499 25s-42.166 37.667 -53.499 63c-13.333 -35.333 -33.5 -58.833 -60.5 -70.5s-56.833 -17.5 -89.5 -17.5c-34 0 -60.833 4.83301 -80.5 14.5s-34.167 24.5 -43.5 44.5
c-16 -24 -35.167 -39.833 -57.5 -47.5s-53.833 -11.5 -94.5 -11.5c-14 0 -28.833 1.66699 -44.5 5s-30.167 9.83301 -43.5 19.5s-23.666 24.167 -30.999 43.5c-17.333 -29.333 -38.833 -48 -64.5 -56s-57.167 -12 -94.5 -12zM385.996 -190.999
c-14 0 -25.833 4.83301 -35.5 14.5s-14.5 21.167 -14.5 34.5s4.83301 25 14.5 35s21.5 15 35.5 15c13.333 0 24.833 -5 34.5 -15s14.5 -21.667 14.5 -35s-4.83301 -24.833 -14.5 -34.5s-21.167 -14.5 -34.5 -14.5zM428.996 435.001c-14 0 -25.833 4.83301 -35.5 14.5
s-14.5 21.167 -14.5 34.5s4.83301 25 14.5 35s21.5 15 35.5 15c13.333 0 24.833 -5 34.5 -15s14.5 -21.667 14.5 -35s-4.83301 -24.833 -14.5 -34.5s-21.167 -14.5 -34.5 -14.5z" />
    <glyph glyph-name="seenDotbelowDotabove-ar.fina" unicode="&#x69a;" horiz-adv-x="1269" 
d="M313 -232c-50 0 -96.5029 9.16895 -139.503 27.502s-77.667 44.666 -104 78.999s-39.5 75.833 -39.5 124.5c0 24 3.33301 50.667 10 80s17.334 61.666 32.001 96.999l72 -28c-10.667 -28 -18.667 -53.667 -24 -77s-8 -45 -8 -65c0 -34 9.16699 -62.667 27.5 -86
s43 -40.833 74 -52.5s65.167 -17.5 102.5 -17.5c60.667 0 108.167 8.83301 142.5 26.5s58.666 40 72.999 67s21.5 54.5 21.5 82.5c0 44 -4.83301 84.5 -14.5 121.5s-20.167 75.167 -31.5 114.5l81 22c10.667 -38 18 -65.5 22 -82.5s7.66699 -30.833 11 -41.5
c7.33301 -24.667 15.833 -42.834 25.5 -54.501s21 -19.334 34 -23.001s27.833 -5.5 44.5 -5.5c12.667 0 24.334 1.66699 35.001 5s20.5 11.333 29.5 24s17 32.834 24 60.501s13.5 66.167 19.5 115.5l76 -14l-7 -44c-2.66699 -17.333 -5.16699 -34.5 -7.5 -51.5
s-3.5 -31.167 -3.5 -42.5c0 -9.33301 2.16699 -18.166 6.5 -26.499s12.833 -14.833 25.5 -19.5s32.334 -7 59.001 -7c33.333 0 57.5 6.83301 72.5 20.5s22.5 35.167 22.5 64.5c0 22.667 -0.833008 47.667 -2.5 75s-4.83398 61.666 -9.50098 102.999l73 5
c4 -54 8.5 -98.333 13.5 -133s12.333 -61.834 22 -81.501s22.834 -33.5 39.501 -41.5s38.667 -12 66 -12c14 0 24.167 -3.83301 30.5 -11.5s9.5 -16.834 9.5 -27.501s-4.66699 -20.5 -14 -29.5s-21.333 -13.5 -36 -13.5c-37.333 0 -68.166 8.33301 -92.499 25
s-42.166 37.667 -53.499 63c-13.333 -35.333 -33.5 -58.833 -60.5 -70.5s-56.833 -17.5 -89.5 -17.5c-34 0 -61 4.83301 -81 14.5s-34.667 24.834 -44 45.501c-14 -21.333 -31 -36.666 -51 -45.999s-45.667 -14 -77 -14c-19.333 0 -36 2.33301 -50 7s-25.667 11 -35 19
c-4 -31.333 -12 -62.166 -24 -92.499s-30.167 -57.5 -54.5 -81.5s-56.333 -43.167 -96 -57.5s-88.834 -21.5 -147.501 -21.5zM847.997 -185.998c-14 0 -25.833 4.83301 -35.5 14.5s-14.5 21.167 -14.5 34.5s4.83301 25 14.5 35s21.5 15 35.5 15c13.333 0 24.833 -5 34.5 -15
s14.5 -21.667 14.5 -35s-4.83301 -24.833 -14.5 -34.5s-21.167 -14.5 -34.5 -14.5zM821.997 435.002c-14 0 -25.833 4.83301 -35.5 14.5s-14.5 21.167 -14.5 34.5s4.83301 25 14.5 35s21.5 15 35.5 15c13.333 0 24.833 -5 34.5 -15s14.5 -21.667 14.5 -35
s-4.83301 -24.833 -14.5 -34.5s-21.167 -14.5 -34.5 -14.5z" />
    <glyph glyph-name="seenThreedotsbelow-ar.init" unicode="&#x69b;" horiz-adv-x="784" 
d="M0 -5l10.001 81.9971c21.333 0 38.666 1.5 51.999 4.5s24.5 10.667 33.5 23s17.5 31.833 25.5 58.5s17.333 64 28 112l75 -21l-14 -61c-5.33301 -23.333 -8 -44.333 -8 -63c0 -16.667 6.33301 -29.667 19 -39s35.667 -14 69 -14c20 0 36.333 1.66699 49 5
s23.167 11.333 31.5 24s15.833 32.834 22.5 60.501s13.667 66.167 21 115.5l76 -14l-7.5 -44c-3 -17.333 -5.5 -34.5 -7.5 -51.5s-3 -31.167 -3 -42.5c0 -9.33301 2.16699 -18.166 6.5 -26.499s13 -14.833 26 -19.5s32.5 -7 58.5 -7c28.667 0 51.667 5.66699 69 17
s26 34.333 26 69c0 24.667 -5.83301 56.334 -17.5 95.001s-24.834 77 -39.501 115l81 30c8 -22 16 -46.5 24 -73.5s14.667 -53.833 20 -80.5s8 -50 8 -70c0 -62 -15.333 -108.167 -46 -138.5s-72.667 -45.5 -126 -45.5c-36.667 0 -65.5 4.83301 -86.5 14.5
s-36.167 24.834 -45.5 45.501c-16 -24.667 -35.167 -40.834 -57.5 -48.501s-53.833 -11.5 -94.5 -11.5c-14 0 -28.833 1.66699 -44.5 5s-30.167 9.83301 -43.5 19.5s-23.666 24.167 -30.999 43.5c-17.333 -29.333 -38.833 -48 -64.5 -56s-57.167 -12 -94.5 -12z
M318.001 -194.003c-14 0 -25.833 4.83301 -35.5 14.5s-14.5 21.167 -14.5 34.5s4.83301 25 14.5 35s21.5 15 35.5 15c13.333 0 24.833 -5 34.5 -15s14.5 -21.667 14.5 -35s-4.83301 -24.833 -14.5 -34.5s-21.167 -14.5 -34.5 -14.5zM454.001 -194.003
c-14 0 -25.833 4.83301 -35.5 14.5s-14.5 21.167 -14.5 34.5s4.83301 25 14.5 35s21.5 15 35.5 15c13.333 0 24.833 -5 34.5 -15s14.5 -21.667 14.5 -35s-4.83301 -24.833 -14.5 -34.5s-21.167 -14.5 -34.5 -14.5zM386.001 -304.003c-14 0 -25.833 4.83301 -35.5 14.5
s-14.5 21.167 -14.5 34.5s4.83301 25 14.5 35s21.5 15 35.5 15c13.333 0 24.833 -5 34.5 -15s14.5 -21.667 14.5 -35s-4.83301 -24.833 -14.5 -34.5s-21.167 -14.5 -34.5 -14.5z" />
    <glyph glyph-name="seenThreedotsbelow-ar.medi" unicode="&#x69b;" horiz-adv-x="850" 
d="M0 -5l9.99609 82.001c21.333 0 38.666 1.5 51.999 4.5s24.5 10.667 33.5 23s17.5 31.833 25.5 58.5s17.333 64 28 112l75 -21l-14 -61c-5.33301 -23.333 -8 -44.333 -8 -63c0 -16.667 6.33301 -29.667 19 -39s35.667 -14 69 -14c20 0 36.333 1.66699 49 5
s23.167 11.333 31.5 24s15.833 32.834 22.5 60.501s13.667 66.167 21 115.5l76 -14l-7.5 -44c-3 -17.333 -5.5 -34.5 -7.5 -51.5s-3 -31.167 -3 -42.5c0 -9.33301 2.16699 -18.166 6.5 -26.499s13 -14.833 26 -19.5s32.5 -7 58.5 -7c33.333 0 57.5 6.83301 72.5 20.5
s22.5 35.167 22.5 64.5c0 22.667 -0.666992 47.667 -2 75s-4.66602 61.666 -9.99902 102.999l73 5c4 -54 8.5 -98.333 13.5 -133s12.333 -61.834 22 -81.501s22.834 -33.5 39.501 -41.5s38.667 -12 66 -12c14 0 24.167 -3.83301 30.5 -11.5s9.5 -16.834 9.5 -27.501
s-4.66699 -20.5 -14 -29.5s-21.333 -13.5 -36 -13.5c-37.333 0 -68.166 8.33301 -92.499 25s-42.166 37.667 -53.499 63c-13.333 -35.333 -33.5 -58.833 -60.5 -70.5s-56.833 -17.5 -89.5 -17.5c-34 0 -60.833 4.83301 -80.5 14.5s-34.167 24.5 -43.5 44.5
c-16 -24 -35.167 -39.833 -57.5 -47.5s-53.833 -11.5 -94.5 -11.5c-14 0 -28.833 1.66699 -44.5 5s-30.167 9.83301 -43.5 19.5s-23.666 24.167 -30.999 43.5c-17.333 -29.333 -38.833 -48 -64.5 -56s-57.167 -12 -94.5 -12zM317.996 -193.999
c-14 0 -25.833 4.83301 -35.5 14.5s-14.5 21.167 -14.5 34.5s4.83301 25 14.5 35s21.5 15 35.5 15c13.333 0 24.833 -5 34.5 -15s14.5 -21.667 14.5 -35s-4.83301 -24.833 -14.5 -34.5s-21.167 -14.5 -34.5 -14.5zM453.996 -193.999c-14 0 -25.833 4.83301 -35.5 14.5
s-14.5 21.167 -14.5 34.5s4.83301 25 14.5 35s21.5 15 35.5 15c13.333 0 24.833 -5 34.5 -15s14.5 -21.667 14.5 -35s-4.83301 -24.833 -14.5 -34.5s-21.167 -14.5 -34.5 -14.5zM385.996 -303.999c-14 0 -25.833 4.83301 -35.5 14.5s-14.5 21.167 -14.5 34.5
s4.83301 25 14.5 35s21.5 15 35.5 15c13.333 0 24.833 -5 34.5 -15s14.5 -21.667 14.5 -35s-4.83301 -24.833 -14.5 -34.5s-21.167 -14.5 -34.5 -14.5z" />
    </font>
</defs>
</svg>
