<?xml version="1.0" encoding="UTF-8"?>
<svg width="140px" height="160px" viewBox="0 0 140 160" version="1.1" xmlns="http://www.w3.org/2000/svg" xmlns:xlink="http://www.w3.org/1999/xlink">
    <!-- Generator: Sketch 49.3 (51167) - http://www.bohemiancoding.com/sketch -->
    <title>tobacco</title>
    <desc>Created with Sketch.</desc>
    <defs></defs>
    <g id="tobacco" stroke="none" stroke-width="1" fill="none" fill-rule="evenodd">
        <g id="Icons/business/agriculture">
            <polygon id="Fill-1" fill="#F7F7F7" points="69.4341 -0.0002 0.0001 40.0088 0.0001 119.4188 69.4341 159.9998 138.8681 118.7888 138.8681 40.0088"></polygon>
            <polygon id="Fill-2" fill="#E8E8E8" points="126.2961 47.2482 69.4341 14.4842 12.5711 47.2482 12.5711 112.2812 69.4341 145.5152 126.2961 111.7662"></polygon>
        </g>
        <g id="Group-20">
            <polygon id="Fill-1" fill="#F7F7F7" points="69.9336259 -0.0002 0.000100719424 40.0078 0.000100719424 119.4188 69.9336259 159.9998 139.866144 118.7888 139.866144 40.0078"></polygon>
            <polygon id="Fill-2" fill="#E8E8E8" points="127.205007 47.248 69.9339281 14.484 12.6618417 47.248 12.6618417 112.281 69.9339281 145.516 127.205007 111.767"></polygon>
            <g id="Group-19" transform="translate(22.158273, 23.000000)">
                <path d="M81.1705899,67.1602 C81.1705899,67.1602 65.7464173,75.6042 49.8962014,81.9092 C34.0469928,88.2152 17.0052662,92.6982 17.0052662,92.6982 C10.590446,94.4452 3.87548201,91.1342 1.40080576,85.0032 L1.39073381,84.9752 C-1.10509353,78.7922 1.5156259,71.7372 7.45605755,68.6422 C7.45605755,68.6422 20.053036,61.4782 38.6649784,54.0752 C57.2759137,46.6722 71.360518,43.2352 71.360518,43.2352 C77.8136115,41.3922 84.624259,44.6992 87.1221007,50.8882 C89.5987914,57.0252 87.0364892,64.0302 81.1705899,67.1602" id="Fill-3" fill="#F9A510"></path>
                <path d="M52.675554,0.3779 C52.9303741,0.5959 53.2879281,0.9399 53.7613094,1.3219 C54.2064892,1.7479 54.7493669,2.2469 55.3285036,2.8309 C55.6074964,3.1249 55.9056259,3.4379 56.2198705,3.7669 C56.4998705,4.1079 56.7939712,4.4669 57.1001583,4.8419 C57.6500863,5.6189 58.2151223,6.4389 58.6089353,7.3709 C59.0500863,8.2789 59.3341151,9.2809 59.5154101,10.3569 C59.6987194,11.4339 59.7682158,12.5879 59.7641871,13.8349 C59.7470647,15.0789 59.696705,16.3969 59.6201583,17.7659 C59.5708058,19.1329 59.5023165,20.5629 59.5607338,22.0099 C59.6040432,23.4539 59.7410216,24.9219 60.0683597,26.3399 C60.3815971,27.7539 60.8459137,29.1149 61.4784317,30.3089 C62.0746906,31.5179 62.8522446,32.5339 63.5995827,33.4009 C63.9923885,33.8219 64.3912374,34.1959 64.7628921,34.5509 C65.1496547,34.8929 65.5424604,35.1809 65.9020288,35.4539 C66.6181439,36.0079 67.3574245,36.3649 67.8912374,36.6909 C68.4502302,36.9689 68.9195827,37.1449 69.2277842,37.2829 C69.5420288,37.4079 69.7122446,37.4789 69.7122446,37.4789 C69.7122446,37.4789 69.3003022,36.8759 68.5227482,35.9009 C68.1883597,35.3799 67.759295,34.8159 67.339295,34.1099 C67.1388633,33.7509 66.8890791,33.4039 66.6826043,33.0039 C66.4882158,32.5969 66.2535396,32.1969 66.0571367,31.7609 C65.6814532,30.8789 65.3007338,29.9459 65.0650504,28.9179 C64.7860576,27.9079 64.6460576,26.8129 64.5564173,25.6629 C64.4647626,24.5169 64.4899424,23.2929 64.5332518,22.0129 C64.6037554,20.6889 64.6752662,19.3419 64.746777,17.9959 C64.7961295,16.5979 64.845482,15.1469 64.7407338,13.6649 C64.6631799,12.1859 64.3902302,10.6589 63.9208777,9.2219 C63.4615971,7.7859 62.7595827,6.4389 61.8954101,5.3489 C61.490518,4.7809 61.0050504,4.3149 60.5578561,3.8569 C60.0864892,3.4249 59.6010216,3.0519 59.1457698,2.6969 C58.6552662,2.3869 58.1949784,2.0899 57.7528201,1.8249 C57.285482,1.6019 56.8523885,1.3849 56.440446,1.1989 C55.6115252,0.8359 54.8521007,0.6279 54.2487914,0.4319 C53.6333957,0.2709 53.1338273,0.1869 52.8044748,0.1129 C52.4710935,0.0539 52.2928201,0.0219 52.2928201,0.0219 C52.2928201,0.0219 52.4247626,0.1459 52.675554,0.3779" id="Fill-5" fill="#4A3777"></path>
                <path d="M64.7623885,37.2744 C64.4441151,37.0404 64.111741,36.7954 63.7682878,36.5444 C63.5980719,36.4224 63.4248345,36.2984 63.2495827,36.1734 C63.0874245,36.0314 62.924259,35.8894 62.7580719,35.7434 C62.431741,35.4524 62.0802302,35.1834 61.736777,34.8924 C61.4326043,34.5614 61.1052662,34.2504 60.7849784,33.9304 C60.4435396,33.6274 60.1736115,33.2544 59.8785036,32.9054 C59.5874245,32.5534 59.2751942,32.2144 59.040518,31.8184 C58.7957698,31.4314 58.5036835,31.0724 58.2871367,30.6654 L57.6284317,29.4494 L57.0956259,28.1664 C56.9113094,27.7424 56.8176403,27.2794 56.6645468,26.8404 C56.5054101,26.4044 56.4197986,25.9434 56.3221007,25.4874 C56.2344748,25.0294 56.0964892,24.5864 56.0582158,24.1214 C55.9957698,23.6624 55.950446,23.2074 55.8688633,22.7564 C55.8164892,22.3044 55.8225324,21.8554 55.7782158,21.4154 C55.6724604,20.5314 55.7278561,19.6784 55.6936115,18.8754 C55.6623885,18.4694 55.685554,18.0854 55.6986475,17.7124 C55.7087194,17.3384 55.716777,16.9824 55.7228201,16.6474 C55.7147626,15.9654 55.7520288,15.3714 55.7762014,14.8744 C55.8094388,14.3804 55.7933237,13.9714 55.8013813,13.6994 C55.7973525,13.4194 55.7953381,13.2704 55.7953381,13.2704 C55.7953381,13.2704 55.7006619,13.3834 55.5254101,13.5954 C55.3622446,13.8144 55.0943309,14.1264 54.8082878,14.5494 C54.5151942,14.9704 54.1284317,15.4784 53.8101583,16.1184 C53.4928921,16.7544 53.0638273,17.4634 52.7727482,18.3034 C52.4786475,19.1424 52.1069928,20.0524 51.9277122,21.0804 C51.8199424,21.5884 51.7101583,22.1154 51.6315971,22.6634 C51.5731799,23.2124 51.5510216,23.7814 51.5127482,24.3624 C51.4432518,24.9424 51.5338993,25.5404 51.5671367,26.1444 C51.5903022,26.4494 51.6134676,26.7534 51.6376403,27.0614 C51.6688633,27.3684 51.7585036,27.6714 51.8179281,27.9774 C51.9710216,28.5864 52.0425324,29.2254 52.2882878,29.8234 C52.5219568,30.4244 52.7566331,31.0274 52.9903022,31.6294 C53.3136115,32.1944 53.6359137,32.7574 53.9582158,33.3204 C54.2764892,33.8834 54.7377842,34.3484 55.120518,34.8564 C55.4951942,35.3764 55.9705899,35.7924 56.4298705,36.2064 C56.8881439,36.6234 57.3232518,37.0514 57.8379281,37.3594 C58.3324604,37.6884 58.8088633,38.0194 59.2913094,38.3144 C59.7989353,38.5614 60.2884317,38.8054 60.7749065,39.0214 C61.7206619,39.5044 62.7087194,39.6974 63.5678561,39.9634 C64.4400863,40.1984 65.3012374,40.2714 66.0143309,40.3694 C66.7415252,40.4864 67.3468489,40.4174 67.8595108,40.4184 C68.3641151,40.4174 68.7740432,40.3694 69.0490072,40.3574 C69.328,40.3324 69.4750504,40.3174 69.4750504,40.3174 C69.4750504,40.3174 69.3521727,40.2334 69.1235396,40.0764 C68.8908777,39.9314 68.5574964,39.6914 68.1183597,39.4424 C67.689295,39.1794 67.1232518,38.8864 66.5844029,38.4954 C66.0324604,38.0984 65.4019568,37.7564 64.7623885,37.2744" id="Fill-7" fill="#4A3777"></path>
                <path d="M86.1756403,58.5039 C86.6973669,56.0089 86.4979424,53.3459 85.4383741,50.8409 C82.8377986,44.6939 75.9727626,41.5009 69.5518993,43.4499 C69.5518993,43.4499 55.5257122,47.1189 37.0416835,54.8279 C23.0285899,60.6729 12.4752086,66.3179 8.18657554,68.7099 C7.65880576,71.2099 7.86729496,73.8829 8.93089209,76.3949 L8.94197122,76.4219 C11.5183741,82.5119 18.2877266,85.7119 24.6733381,83.8589 C24.6733381,83.8589 41.6365036,79.0949 57.3789496,72.5289 C69.5226906,67.4649 81.3834101,61.1349 86.1756403,58.5039" id="Fill-9" fill="#FFC033"></path>
                <path d="M54.2458705,80.124 L53.2547914,77.667 C52.2798273,75.252 51.9806906,72.583 52.620259,70.061 C53.0473094,68.378 52.962705,66.552 52.262705,64.817 C51.562705,63.083 50.3540719,61.704 48.8755108,60.779 C46.6586763,59.393 45.0179568,57.258 44.044,54.843 L43.0468777,52.373 C41.6176691,52.916 40.1572374,53.481 38.6645755,54.075 C37.1719137,54.669 35.7225612,55.261 34.3104748,55.848 L35.3065899,58.317 C36.281554,60.733 36.5796835,63.401 35.9411223,65.925 C35.5140719,67.607 35.5986763,69.434 36.2986763,71.167 C36.9986763,72.901 38.2073094,74.28 39.6858705,75.205 C41.9037122,76.593 43.5434245,78.728 44.5173813,81.143 L45.5094676,83.6 C46.9719137,83.053 48.4393957,82.489 49.8968058,81.909 L54.2458705,80.124 Z" id="Fill-11" fill="#4A3777"></path>
                <path d="M71.573741,43.0273 C71.573741,43.0273 69.7688489,43.4683 66.6082734,44.3703 L76.7577698,69.5213 C79.6766187,68.0133 81.4261151,67.0553 81.4261151,67.0553 C87.3171942,63.9123 89.8905755,56.8773 87.4028058,50.7133 C84.8948921,44.4973 78.055036,41.1753 71.573741,43.0273" id="Fill-13" fill="#AFAFAF"></path>
                <path d="M71.4621439,43.0215 C70.8296259,43.0945 69.2110647,43.5375 66.5752374,44.2885 L74.7325036,64.5025 C77.2333669,63.2455 79.499554,62.0685 81.4263165,61.0485 C85.0461727,59.1325 86.7231511,54.8015 85.1579712,51.0365 C85.1468921,51.0115 85.1368201,50.9865 85.125741,50.9605 C82.8172518,45.5025 77.1991223,42.3225 71.4621439,43.0215" id="Fill-15" fill="#C4C4C4"></path>
                <path d="M49.2020432,65.8877 C50.3029065,68.6147 48.9683741,71.7107 46.2217554,72.8027 C43.4751367,73.8957 40.3578705,72.5707 39.2570072,69.8437 C38.1571511,67.1167 39.4906763,64.0217 42.237295,62.9287 C44.9839137,61.8367 48.1021871,63.1607 49.2020432,65.8877" id="Fill-17" fill="#86D8F2"></path>
            </g>
        </g>
    </g>
</svg>