<?xml version="1.0" encoding="UTF-8"?>
<svg width="33px" height="25px" viewBox="0 0 33 25" version="1.1" xmlns="http://www.w3.org/2000/svg" xmlns:xlink="http://www.w3.org/1999/xlink">
    <!-- Generator: Sketch 51.2 (57519) - http://www.bohemiancoding.com/sketch -->
    <title>Icons/small/type-2</title>
    <desc>Created with Sketch.</desc>
    <defs></defs>
    <g id="Desctop" stroke="none" stroke-width="1" fill="none" fill-rule="evenodd">
        <g id="Holders" transform="translate(-583.000000, -4071.000000)">
            <g id="2-step" transform="translate(-180.000000, 3186.000000)">
                <g id="Table" transform="translate(345.000000, 722.000000)">
                    <g id="Info" transform="translate(285.000000, 35.000000)">
                        <g id="Verification" transform="translate(0.000000, 128.000000)">
                            <g id="Icons/small/type-2" transform="translate(133.000000, 0.000000)">
                                <path d="M22.9860411,21.5332423 C22.9860411,21.5332423 19.2308066,23.0387827 12.3762517,23.0387827 C5.52269831,23.0387827 1.95672756,21.5332423 1.95672756,21.5332423 C1.95672756,18.5221616 7.88198701,17.0166212 10.2182436,17.0166212 L10.2182436,14.7583106 C9.75559871,14.3969809 8.5669418,13.0901718 8.22045882,12.2079252 C8.17339321,12.2269953 8.12632761,12.2350249 8.0802634,12.2350249 C7.51147053,12.2350249 7.09388845,10.8740164 7.07586332,10.3801991 C7.0568368,9.87935603 7.3262123,9.67660992 7.54952358,9.59731813 C7.24610063,6.9867111 7.21405596,5.72506825 7.96510287,4.21952786 C8.71614978,2.71398747 10.2182436,1.96121728 12.4713844,1.96121728 C14.7245251,1.96121728 16.2266189,2.71398747 16.9776658,4.21952786 C17.5274322,5.32158343 17.673636,6.95258551 17.6676276,8.04058937 C14.461158,8.44206681 11.9706864,11.1861651 11.9706864,14.5073872 C11.9706864,18.104625 14.8907568,21.0313955 18.4797597,21.0313955 L22.9359714,21.0313955 C22.9610063,21.1939939 22.9860411,21.3565923 22.9860411,21.5332423 M26.4909267,19.0240084 L24.2878558,19.0240084 L21.7763549,19.0240084 L18.4797597,19.0240084 C16.9205863,19.0240084 15.5456697,18.2260719 14.7365418,17.0166212 C14.7315349,17.0095953 14.7285307,17.0015658 14.7245251,16.9955436 C14.2518662,16.2809138 13.9734782,15.4267705 13.9734782,14.5073872 C13.9734782,12.2410471 15.6518177,10.3791954 17.8248468,10.0570098 C18.0401469,10.0248916 18.255447,9.99076602 18.4797597,9.99076602 L19.7865813,9.99076602 L26.4909267,9.99076602 C28.9753899,9.99076602 30.9972082,12.0172234 30.9972082,14.5073872 C30.9972082,16.997551 28.9753899,19.0240084 26.4909267,19.0240084 M26.4909267,7.98337883 L19.6203496,7.98337883 C19.6223524,6.66552915 19.4390969,4.76955195 18.7281058,3.34229966 C17.967045,1.8176891 16.264672,0 12.4713844,0 C8.67809674,0 6.97572374,1.8176891 6.21466286,3.34229966 C5.31040238,5.15497029 5.28737027,6.73378031 5.50367178,8.88871045 C5.23730048,9.33936888 5.09910785,9.87634495 5.12013716,10.4514614 C5.15418462,11.3758632 5.66089094,13.1634415 6.90262184,13.8840935 C7.21906294,14.3799181 7.60560175,14.8707243 7.97912241,15.2902682 C4.6975481,15.8874659 0,17.6941143 0,21.5332423 L0,22.8350329 L1.19666808,23.3408945 C1.35689142,23.408142 5.20926139,25 12.3762517,25 C19.525217,25 23.5458214,23.42119 23.7130546,23.3539425 L24.9427687,22.861129 L24.9427687,21.5332423 C24.9427687,21.3796772 24.9337561,21.210053 24.9167324,21.0313955 L26.4909267,21.0313955 C30.0799296,21.0313955 33,18.104625 33,14.5073872 C33,10.9101493 30.0799296,7.98337883 26.4909267,7.98337883" id="Fill-1" fill="#7B6798"></path>
                                <path d="M20.7211,12.3017 L18.5241,14.8527 L17.8831,14.2107 C17.8561,14.1837 17.8211,14.1727 17.7921,14.1507 C17.3991,13.8367 16.8331,13.8477 16.4691,14.2107 C16.0781,14.6017 16.0781,15.2347 16.4691,15.6247 L18.2041,17.3607 L18.6341,17.7897 L18.8591,17.5287 L20.2411,15.9237 L22.2371,13.6067 C22.5971,13.1887 22.5501,12.5567 22.1311,12.1967 C21.7131,11.8367 21.0811,11.8837 20.7211,12.3017" id="Fill-3" fill="#34A800"></path>
                                <path d="M27.7211,12.3017 L25.5241,14.8527 L24.8831,14.2107 C24.4921,13.8207 23.8601,13.8207 23.4691,14.2107 C23.0781,14.6017 23.0781,15.2347 23.4691,15.6247 L25.6341,17.7897 L29.2371,13.6067 C29.5971,13.1887 29.5501,12.5567 29.1311,12.1967 C28.7131,11.8367 28.0811,11.8837 27.7211,12.3017" id="Fill-5" fill="#34A800"></path>
                            </g>
                        </g>
                    </g>
                </g>
            </g>
        </g>
    </g>
</svg>