<?xml version="1.0" encoding="UTF-8"?>
<svg width="25px" height="25px" viewBox="0 0 25 25" version="1.1" xmlns="http://www.w3.org/2000/svg" xmlns:xlink="http://www.w3.org/1999/xlink">
    <!-- Generator: Sketch 51.2 (57519) - http://www.bohemiancoding.com/sketch -->
    <title>Icons/small/type-1</title>
    <desc>Created with Sketch.</desc>
    <defs></defs>
    <g id="Desctop" stroke="none" stroke-width="1" fill="none" fill-rule="evenodd">
        <g id="Holders" transform="translate(-545.000000, -4071.000000)">
            <g id="2-step" transform="translate(-180.000000, 3186.000000)">
                <g id="Table" transform="translate(345.000000, 722.000000)">
                    <g id="Info" transform="translate(285.000000, 35.000000)">
                        <g id="Verification" transform="translate(0.000000, 128.000000)">
                            <g id="Icons/small/type-1" transform="translate(95.000000, 0.000000)">
                                <g id="Group-6">
                                    <path d="M12.3593,22.954 C5.5143,22.954 1.9543,21.454 1.9543,21.454 C1.9543,18.454 7.8713,16.954 10.2043,16.954 L10.2043,14.704 C9.7423,14.344 8.5543,13.042 8.2093,12.163 C8.1613,12.182 8.1143,12.19 8.0693,12.19 C7.5013,12.19 7.0843,10.834 7.0663,10.342 C7.0473,9.843 7.3163,9.641 7.5393,9.562 C7.2363,6.961 7.2043,5.704 7.9543,4.204 C8.7043,2.704 10.2043,1.954 12.4543,1.954 C14.7043,1.954 16.2043,2.704 16.9543,4.204 C17.5033,5.302 17.6493,6.927 17.6433,8.011 C14.4413,8.411 11.9543,11.145 11.9543,14.454 C11.9543,18.038 14.8703,20.954 18.4543,20.954 C19.9273,20.954 21.2833,20.455 22.3753,19.626 C22.7383,20.138 22.9543,20.741 22.9543,21.454 C22.9543,21.454 19.2043,22.954 12.3593,22.954 M22.2343,16.876 C21.8643,17.452 21.3643,17.932 20.7773,18.288 C20.0973,18.702 19.3073,18.954 18.4543,18.954 C16.8973,18.954 15.5243,18.159 14.7153,16.954 C14.7113,16.947 14.7083,16.939 14.7043,16.933 C14.2323,16.221 13.9543,15.37 13.9543,14.454 C13.9543,12.196 15.6303,10.341 17.7993,10.02 C18.0153,9.988 18.2303,9.954 18.4543,9.954 C18.9173,9.954 19.3553,10.045 19.7763,10.175 C21.6093,10.744 22.9543,12.435 22.9543,14.454 C22.9543,15.347 22.6853,16.175 22.2343,16.876 M24.9543,14.454 C24.9543,11.259 22.6353,8.601 19.5933,8.06 C19.6053,6.746 19.4323,4.79 18.7013,3.33 C17.9423,1.811 16.2413,0 12.4543,0 C8.6663,0 6.9653,1.811 6.2063,3.33 C5.3033,5.136 5.2793,6.709 5.4963,8.856 C5.2303,9.305 5.0923,9.84 5.1133,10.413 C5.1473,11.334 5.6533,13.115 6.8933,13.833 C7.2093,14.327 7.5953,14.816 7.9673,15.234 C4.6913,15.829 0.0003,17.629 0.0003,21.454 L0.0003,22.751 L1.1953,23.255 C1.3553,23.322 5.2023,24.908 12.3593,24.908 C19.4983,24.908 23.5123,23.335 23.6793,23.268 L24.9083,22.777 L24.9083,21.454 C24.9083,20.622 24.7013,19.387 23.7483,18.212 C24.5043,17.149 24.9543,15.854 24.9543,14.454" id="Fill-1" fill="#7B6798"></path>
                                    <path d="M19.7211,12.3017 L17.5241,14.8527 L17.3771,14.7047 L16.8831,14.2107 C16.4921,13.8207 15.8601,13.8207 15.4691,14.2107 C15.0781,14.6017 15.0781,15.2347 15.4691,15.6247 L16.9731,17.1297 L17.6341,17.7897 L18.0351,17.3237 L19.4441,15.6887 L21.2371,13.6067 C21.5971,13.1887 21.5501,12.5567 21.1311,12.1967 C20.7141,11.8367 20.0801,11.8837 19.7211,12.3017" id="Fill-4" fill="#34A800"></path>
                                </g>
                            </g>
                        </g>
                    </g>
                </g>
            </g>
        </g>
    </g>
</svg>