<?xml version="1.0" encoding="UTF-8"?>
<svg width="140px" height="160px" viewBox="0 0 140 160" version="1.1" xmlns="http://www.w3.org/2000/svg" xmlns:xlink="http://www.w3.org/1999/xlink">
    <!-- Generator: Sketch 49.3 (51167) - http://www.bohemiancoding.com/sketch -->
    <title>pharma</title>
    <desc>Created with Sketch.</desc>
    <defs>
        <polygon id="path-1" points="0.00025 0.588 68.89175 0.588 68.89175 69.4813 0.00025 69.4813"></polygon>
        <polygon id="path-3" points="0.0997057476 0.997734607 40.1024546 0.997734607 40.1024546 41 0.0997057476 41"></polygon>
    </defs>
    <g id="pharma" stroke="none" stroke-width="1" fill="none" fill-rule="evenodd">
        <g id="Icons/business/agriculture">
            <polygon id="Fill-1" fill="#F7F7F7" points="69.4341 -0.0002 0.0001 40.0088 0.0001 119.4188 69.4341 159.9998 138.8681 118.7888 138.8681 40.0088"></polygon>
            <polygon id="Fill-2" fill="#E8E8E8" points="126.2961 47.2482 69.4341 14.4842 12.5711 47.2482 12.5711 112.2812 69.4341 145.5152 126.2961 111.7662"></polygon>
        </g>
        <g id="Group-20">
            <polygon id="Fill-1" fill="#F7F7F7" points="69.4341 -0.0002 0.0001 40.0078 0.0001 119.4188 69.4341 159.9998 138.8671 118.7888 138.8671 40.0078"></polygon>
            <polygon id="Fill-2" fill="#E8E8E8" points="126.2964 47.248 69.4344 14.484 12.5714 47.248 12.5714 112.281 69.4344 145.516 126.2964 111.767"></polygon>
            <g id="Group-19" transform="translate(22.000000, 23.000000)">
                <path d="M80.5908,67.1602 C80.5908,67.1602 65.2768,75.6042 49.5398,81.9092 C33.8038,88.2152 16.8838,92.6982 16.8838,92.6982 C10.5148,94.4452 3.8478,91.1342 1.3908,85.0032 L1.3808,84.9752 C-1.0972,78.7922 1.5048,71.7372 7.4028,68.6422 C7.4028,68.6422 19.9098,61.4782 38.3888,54.0752 C56.8668,46.6722 70.8508,43.2352 70.8508,43.2352 C77.2578,41.3922 84.0198,44.6992 86.4998,50.8882 C88.9588,57.0252 86.4148,64.0302 80.5908,67.1602" id="Fill-3" fill="#F9A510"></path>
                <path d="M52.2993,0.3779 C52.5523,0.5959 52.9073,0.9399 53.3773,1.3219 C53.8193,1.7479 54.3583,2.2469 54.9333,2.8309 C55.2103,3.1249 55.5063,3.4379 55.8183,3.7669 C56.0963,4.1079 56.3883,4.4669 56.6923,4.8419 C57.2383,5.6189 57.7993,6.4389 58.1903,7.3709 C58.6283,8.2789 58.9103,9.2809 59.0903,10.3569 C59.2723,11.4339 59.3413,12.5879 59.3373,13.8349 C59.3203,15.0789 59.2703,16.3969 59.1943,17.7659 C59.1453,19.1329 59.0773,20.5629 59.1353,22.0099 C59.1783,23.4539 59.3143,24.9219 59.6393,26.3399 C59.9503,27.7539 60.4113,29.1149 61.0393,30.3089 C61.6313,31.5179 62.4033,32.5339 63.1453,33.4009 C63.5353,33.8219 63.9313,34.1959 64.3003,34.5509 C64.6843,34.8929 65.0743,35.1809 65.4313,35.4539 C66.1423,36.0079 66.8763,36.3649 67.4063,36.6909 C67.9613,36.9689 68.4273,37.1449 68.7333,37.2829 C69.0453,37.4079 69.2143,37.4789 69.2143,37.4789 C69.2143,37.4789 68.8053,36.8759 68.0333,35.9009 C67.7013,35.3799 67.2753,34.8159 66.8583,34.1099 C66.6593,33.7509 66.4113,33.4039 66.2063,33.0039 C66.0133,32.5969 65.7803,32.1969 65.5853,31.7609 C65.2123,30.8789 64.8343,29.9459 64.6003,28.9179 C64.3233,27.9079 64.1843,26.8129 64.0953,25.6629 C64.0043,24.5169 64.0293,23.2929 64.0723,22.0129 C64.1423,20.6889 64.2133,19.3419 64.2843,17.9959 C64.3333,16.5979 64.3823,15.1469 64.2783,13.6649 C64.2013,12.1859 63.9303,10.6589 63.4643,9.2219 C63.0083,7.7859 62.3113,6.4389 61.4533,5.3489 C61.0513,4.7809 60.5693,4.3149 60.1253,3.8569 C59.6573,3.4249 59.1753,3.0519 58.7233,2.6969 C58.2363,2.3869 57.7793,2.0899 57.3403,1.8249 C56.8763,1.6019 56.4463,1.3849 56.0373,1.1989 C55.2143,0.8359 54.4603,0.6279 53.8613,0.4319 C53.2503,0.2709 52.7543,0.1869 52.4273,0.1129 C52.0963,0.0539 51.9193,0.0219 51.9193,0.0219 C51.9193,0.0219 52.0503,0.1459 52.2993,0.3779" id="Fill-5" fill="#4A3777"></path>
                <path d="M64.2998,37.2744 C63.9838,37.0404 63.6538,36.7954 63.3128,36.5444 C63.1438,36.4224 62.9718,36.2984 62.7978,36.1734 C62.6368,36.0314 62.4748,35.8894 62.3098,35.7434 C61.9858,35.4524 61.6368,35.1834 61.2958,34.8924 C60.9938,34.5614 60.6688,34.2504 60.3508,33.9304 C60.0118,33.6274 59.7438,33.2544 59.4508,32.9054 C59.1618,32.5534 58.8518,32.2144 58.6188,31.8184 C58.3758,31.4314 58.0858,31.0724 57.8708,30.6654 L57.2168,29.4494 L56.6878,28.1664 C56.5048,27.7424 56.4118,27.2794 56.2598,26.8404 C56.1018,26.4044 56.0168,25.9434 55.9198,25.4874 C55.8328,25.0294 55.6958,24.5864 55.6578,24.1214 C55.5958,23.6624 55.5508,23.2074 55.4698,22.7564 C55.4178,22.3044 55.4238,21.8554 55.3798,21.4154 C55.2748,20.5314 55.3298,19.6784 55.2958,18.8754 C55.2648,18.4694 55.2878,18.0854 55.3008,17.7124 C55.3108,17.3384 55.3188,16.9824 55.3248,16.6474 C55.3168,15.9654 55.3538,15.3714 55.3778,14.8744 C55.4108,14.3804 55.3948,13.9714 55.4028,13.6994 C55.3988,13.4194 55.3968,13.2704 55.3968,13.2704 C55.3968,13.2704 55.3028,13.3834 55.1288,13.5954 C54.9668,13.8144 54.7008,14.1264 54.4168,14.5494 C54.1258,14.9704 53.7418,15.4784 53.4258,16.1184 C53.1108,16.7544 52.6848,17.4634 52.3958,18.3034 C52.1038,19.1424 51.7348,20.0524 51.5568,21.0804 C51.4498,21.5884 51.3408,22.1154 51.2628,22.6634 C51.2048,23.2124 51.1828,23.7814 51.1448,24.3624 C51.0758,24.9424 51.1658,25.5404 51.1988,26.1444 C51.2218,26.4494 51.2448,26.7534 51.2688,27.0614 C51.2998,27.3684 51.3888,27.6714 51.4478,27.9774 C51.5998,28.5864 51.6708,29.2254 51.9148,29.8234 C52.1468,30.4244 52.3798,31.0274 52.6118,31.6294 C52.9328,32.1944 53.2528,32.7574 53.5728,33.3204 C53.8888,33.8834 54.3468,34.3484 54.7268,34.8564 C55.0988,35.3764 55.5708,35.7924 56.0268,36.2064 C56.4818,36.6234 56.9138,37.0514 57.4248,37.3594 C57.9158,37.6884 58.3888,38.0194 58.8678,38.3144 C59.3718,38.5614 59.8578,38.8054 60.3408,39.0214 C61.2798,39.5044 62.2608,39.6974 63.1138,39.9634 C63.9798,40.1984 64.8348,40.2714 65.5428,40.3694 C66.2648,40.4864 66.8658,40.4174 67.3748,40.4184 C67.8758,40.4174 68.2828,40.3694 68.5558,40.3574 C68.8328,40.3324 68.9788,40.3174 68.9788,40.3174 C68.9788,40.3174 68.8568,40.2334 68.6298,40.0764 C68.3988,39.9314 68.0678,39.6914 67.6318,39.4424 C67.2058,39.1794 66.6438,38.8864 66.1088,38.4954 C65.5608,38.0984 64.9348,37.7564 64.2998,37.2744" id="Fill-7" fill="#4A3777"></path>
                <path d="M85.5601,58.5039 C86.0781,56.0089 85.8801,53.3459 84.8281,50.8409 C82.2461,44.6939 75.4301,41.5009 69.0551,43.4499 C69.0551,43.4499 55.1291,47.1189 36.7771,54.8279 C22.8641,60.6729 12.3861,66.3179 8.1281,68.7099 C7.6041,71.2099 7.8111,73.8829 8.8671,76.3949 L8.8781,76.4219 C11.4361,82.5119 18.1571,85.7119 24.4971,83.8589 C24.4971,83.8589 41.3391,79.0949 56.9691,72.5289 C69.0261,67.4649 80.8021,61.1349 85.5601,58.5039" id="Fill-9" fill="#FFC033"></path>
                <path d="M53.8584,80.124 L52.8744,77.667 C51.9064,75.252 51.6094,72.583 52.2444,70.061 C52.6684,68.378 52.5844,66.552 51.8894,64.817 C51.1944,63.083 49.9944,61.704 48.5264,60.779 C46.3254,59.393 44.6964,57.258 43.7294,54.843 L42.7394,52.373 C41.3204,52.916 39.8704,53.481 38.3884,54.075 C36.9064,54.669 35.4674,55.261 34.0654,55.848 L35.0544,58.317 C36.0224,60.733 36.3184,63.401 35.6844,65.925 C35.2604,67.607 35.3444,69.434 36.0394,71.167 C36.7344,72.901 37.9344,74.28 39.4024,75.205 C41.6044,76.593 43.2324,78.728 44.1994,81.143 L45.1844,83.6 C46.6364,83.053 48.0934,82.489 49.5404,81.909 L53.8584,80.124 Z" id="Fill-11" fill="#4A3777"></path>
                <path d="M71.0625,43.0273 C71.0625,43.0273 69.2705,43.4683 66.1325,44.3703 L76.2095,69.5213 C79.1075,68.0133 80.8445,67.0553 80.8445,67.0553 C86.6935,63.9123 89.2485,56.8773 86.7785,50.7133 C84.2885,44.4973 77.4975,41.1753 71.0625,43.0273" id="Fill-13" fill="#AFAFAF"></path>
                <path d="M70.9517,43.0215 C70.3237,43.0945 68.7167,43.5375 66.0997,44.2885 L74.1987,64.5025 C76.6817,63.2455 78.9317,62.0685 80.8447,61.0485 C84.4387,59.1325 86.1037,54.8015 84.5497,51.0365 C84.5387,51.0115 84.5287,50.9865 84.5177,50.9605 C82.2257,45.5025 76.6477,42.3225 70.9517,43.0215" id="Fill-15" fill="#C4C4C4"></path>
                <path d="M48.8506,65.8877 C49.9436,68.6147 48.6186,71.7107 45.8916,72.8027 C43.1646,73.8957 40.0696,72.5707 38.9766,69.8437 C37.8846,67.1167 39.2086,64.0217 41.9356,62.9287 C44.6626,61.8367 47.7586,63.1607 48.8506,65.8877" id="Fill-17" fill="#86D8F2"></path>
            </g>
        </g>
        <g id="Group-20-Copy">
            <polygon id="Fill-1" fill="#F7F7F7" points="69.9336259 -0.0002 0.000100719424 40.0078 0.000100719424 119.4188 69.9336259 159.9998 139.866144 118.7888 139.866144 40.0078"></polygon>
            <polygon id="Fill-2" fill="#E8E8E8" points="127.205007 47.248 69.9339281 14.484 12.6618417 47.248 12.6618417 112.281 69.9339281 145.516 127.205007 111.767"></polygon>
        </g>
        <g id="Group-15" transform="translate(29.000000, 43.000000)">
            <g id="Group-3" transform="translate(0.000000, 0.411600)">
                <mask id="mask-2" fill="white">
                    <use xlink:href="#path-1"></use>
                </mask>
                <g id="Clip-2"></g>
                <path d="M5.5675,36.9183 L36.3295,6.1573 C43.7525,-1.2687 55.8995,-1.2687 63.3245,6.1573 C70.7475,13.5803 70.7475,25.7273 63.3245,33.1503 L32.5625,63.9133 C25.1385,71.3373 12.9905,71.3373 5.5675,63.9133 L5.5675,63.9123 C-1.8555,56.4883 -1.8555,44.3423 5.5675,36.9183" id="Fill-1" fill="#FFFFFF" mask="url(#mask-2)"></path>
            </g>
            <path d="M63.3263,6.5701 L63.3253,6.5701 L63.3243,6.5691 C55.9013,-0.8569 43.7523,-0.8569 36.3293,6.5691 L20.9493,21.9491 L34.4483,35.4481 L47.9443,48.9431 L63.3243,33.5621 C70.7473,26.1381 70.7473,13.9931 63.3263,6.5701" id="Fill-4" fill="#4A3777"></path>
            <path d="M62.9815,6.5692 C62.6515,6.2382 62.3005,5.9402 61.9525,5.6392 C63.6845,12.0362 62.0675,19.1732 57.0685,24.1722 L41.6885,39.5522 L40.0995,41.0992 L47.9445,48.9432 L62.9815,33.5622 C70.4045,26.1382 70.4045,13.9922 62.9815,6.5692" id="Fill-6" fill="#2E214F"></path>
            <path d="M6.2061,65.0233 C5.8661,64.7033 5.5581,64.3613 5.2461,64.0223 C11.6921,65.5643 18.7771,63.7363 23.6261,58.5913 L38.5451,42.7623 L40.0441,41.1283 L48.1171,48.7373 L33.1871,64.2233 C25.9881,71.8633 13.8461,72.2233 6.2061,65.0233" id="Fill-8" fill="#86D8F2"></path>
            <g id="Group-12" transform="translate(40.000000, 32.411600)">
                <mask id="mask-4" fill="white">
                    <use xlink:href="#path-3"></use>
                </mask>
                <g id="Clip-11"></g>
                <path d="M12.8243,2.3753 C23.1083,-1.6457 34.7053,3.4353 38.7253,13.7213 C42.7453,24.0063 37.6653,35.6033 27.3793,39.6233 C17.0943,43.6423 5.4973,38.5633 1.4763,28.2753 C-2.5427,17.9903 2.5373,6.3953 12.8243,2.3753" id="Fill-10" fill="#FFC033" mask="url(#mask-4)"></path>
            </g>
            <path d="M52.8243,34.7869 C53.3853,34.5659 53.9503,34.3769 54.5193,34.2109 L69.0163,71.3079 C68.4863,71.5719 67.9413,71.8139 67.3793,72.0349 C66.8173,72.2539 66.2523,72.4449 65.6843,72.6109 L51.1873,35.5129 C51.7183,35.2499 52.2613,35.0059 52.8243,34.7869" id="Fill-13" fill="#F9A510"></path>
        </g>
    </g>
</svg>