<?xml version="1.0" encoding="UTF-8"?>
<svg width="139px" height="160px" viewBox="0 0 139 160" version="1.1" xmlns="http://www.w3.org/2000/svg" xmlns:xlink="http://www.w3.org/1999/xlink">
    <!-- Generator: Sketch 51.2 (57519) - http://www.bohemiancoding.com/sketch -->
    <title>Icon-education</title>
    <desc>Created with Sketch.</desc>
    <defs></defs>
    <g id="Desctop" stroke="none" stroke-width="1" fill="none" fill-rule="evenodd">
        <g id="Business" transform="translate(-230.000000, -5380.000000)">
            <g id="Aerospace" transform="translate(165.000000, 5318.000000)">
                <g id="Icon-education" transform="translate(65.000000, 62.000000)">
                    <g id="Icons/business/aerospace-Copy">
                        <g id="Group-28">
                            <polygon id="Fill-1" fill="#F7F7F7" points="69.4998 -0.0002 -0.0002 40.0088 -0.0002 119.4188 69.4998 159.9998 138.9998 118.7888 138.9998 40.0088"></polygon>
                            <polygon id="Fill-2" fill="#E8E8E8" points="126 47.2561 69 14.5001 12 47.2561 12 112.2741 69 145.5001 126 111.7591"></polygon>
                            <g id="Group-27" transform="translate(26.000000, 35.000000)">
                                <path d="M47.3999,10.8665 L39.2669,10.8665 C36.2659,10.8665 33.8339,8.4345 33.8339,5.4335 C33.8339,2.4325 36.2659,0.0005 39.2669,0.0005 L47.3999,0.0005 C50.4009,0.0005 52.8339,2.4325 52.8339,5.4335 C52.8339,8.4345 50.4009,10.8665 47.3999,10.8665" id="Fill-3" fill="#4A3777"></path>
                                <path d="M48,14.0833 C47.872,13.6283 47.646,12.8893 47.497,12.4383 C47.497,12.4383 47.075,11.1673 46.761,10.7693 C46.448,10.3723 44.35,10.2983 44.35,10.2983 C43.88,10.2793 43.406,10.2663 43.298,10.2663 C43.191,10.2663 42.719,10.2793 42.245,10.2953 C42.245,10.2953 40.9,10.3403 40.4,10.4313 C39.9,10.5193 39.143,12.4563 39.143,12.4563 C38.97,12.8963 38.725,13.6283 38.599,14.0833 L19.205,83.7833 C18.475,86.4063 20.449,89.0023 23.171,89.0003 C25.061,88.9983 26.706,87.7113 27.161,85.8773 L42.653,23.4413 C42.768,22.9833 43.001,22.3903 43.176,22.1243 C43.352,21.8563 43.83,22.9833 43.942,23.4413 L59.433,85.8773 C59.888,87.7103 61.533,88.9983 63.422,89.0003 L63.427,89.0003 C66.15,89.0023 68.124,86.4063 67.394,83.7833 L48,14.0833 Z" id="Fill-5" fill="#4A3777"></path>
                                <path d="M82.2778,74.0002 L4.3888,74.0002 C2.1488,74.0002 0.3338,72.1852 0.3338,69.9442 L0.3338,9.0562 C0.3338,6.8152 2.1488,5.0002 4.3888,5.0002 L82.2778,5.0002 C84.5178,5.0002 86.3338,6.8152 86.3338,9.0562 L86.3338,69.9442 C86.3338,72.1852 84.5178,74.0002 82.2778,74.0002" id="Fill-7" fill="#FFC033"></path>
                                <path d="M74.7778,66.0002 L11.8888,66.0002 C9.6488,66.0002 7.8338,64.1852 7.8338,61.9442 L7.8338,16.0562 C7.8338,13.8152 9.6488,12.0002 11.8888,12.0002 L74.7778,12.0002 C77.0178,12.0002 78.8338,13.8152 78.8338,16.0562 L78.8338,61.9442 C78.8338,64.1852 77.0178,66.0002 74.7778,66.0002" id="Fill-9" fill="#4A3777"></path>
                                <path d="M68.5791,33.5071 C67.7781,34.2381 67.2931,34.8991 67.1251,35.4861 C66.9411,36.0141 66.8781,36.5781 66.9351,37.1841 L72.6871,36.4921 L72.5121,35.0381 L68.8461,35.4791 C68.9291,35.2931 69.0391,35.1251 69.1761,34.9751 C69.3131,34.8261 69.5701,34.5791 69.9491,34.2361 L70.5551,33.6881 C71.0641,33.2271 71.4211,32.8201 71.6271,32.4711 C71.9401,31.9441 72.0591,31.3691 71.9841,30.7471 C71.8871,29.9361 71.5461,29.3171 70.9611,28.8871 C70.3761,28.4581 69.6391,28.2971 68.7491,28.4031 C67.6251,28.5391 66.8921,29.0521 66.5531,29.9431 C66.3731,30.4121 66.3131,31.0041 66.3721,31.7231 L67.9761,31.5291 C67.9391,31.0561 67.9601,30.7031 68.0381,30.4751 C68.1741,30.0781 68.4941,29.8501 68.9961,29.7891 C69.3631,29.7461 69.6591,29.8301 69.8841,30.0421 C70.1101,30.2541 70.2441,30.5371 70.2871,30.8931 C70.3391,31.3281 70.2151,31.7521 69.9151,32.1591 C69.7201,32.4221 69.2741,32.8711 68.5791,33.5071 Z M61.6791,40.3271 C61.4741,40.6691 61.0791,40.8761 60.4991,40.9451 C59.6801,41.0441 59.0761,40.7171 58.6851,39.9651 C58.4721,39.5631 58.3231,39.0141 58.2401,38.3221 C58.1521,37.5931 58.1631,37.0001 58.2731,36.5411 C58.4811,35.6771 59.0031,35.1941 59.8391,35.0931 C60.4261,35.0231 60.8811,35.1611 61.2061,35.5101 C61.4321,35.7711 61.5891,36.0751 61.6781,36.4221 L64.2151,36.1171 C63.9141,34.7841 63.3521,33.8991 62.5321,33.4561 C61.7111,33.0141 60.7061,32.8641 59.5181,33.0071 C58.1201,33.1751 57.0791,33.7591 56.3931,34.7581 C55.7071,35.7561 55.4621,37.0701 55.6581,38.6941 C55.8311,40.1331 56.3311,41.2621 57.1591,42.0781 C57.9871,42.8961 59.1631,43.2131 60.6871,43.0291 C62.2121,42.8461 63.2991,42.1661 63.9451,40.9901 C64.3511,40.2601 64.5381,39.5141 64.5061,38.7541 L61.9771,39.0581 C61.9851,39.5631 61.8861,39.9861 61.6791,40.3271 Z M53.4941,36.0941 C53.3431,35.6241 53.1151,35.2401 52.8081,34.9421 C52.4301,34.5761 52.0281,34.3371 51.6031,34.2241 C51.1781,34.1111 50.7571,34.0781 50.3401,34.1281 C49.7141,34.2031 49.1621,34.4021 48.6841,34.7241 C48.2351,35.0431 47.8811,35.5001 47.6241,36.0951 C47.3821,35.6531 47.0641,35.3071 46.6701,35.0551 C46.1851,34.7891 45.5811,34.6991 44.8571,34.7871 C44.0931,34.8791 43.4921,35.1401 43.0571,35.5691 C42.8091,35.8101 42.5611,36.1951 42.3141,36.7251 L42.1471,35.3421 L39.7411,35.6311 L40.8781,45.0851 L43.3891,44.7831 L42.7031,39.0831 C42.6411,38.5691 42.6611,38.1721 42.7631,37.8961 C42.9521,37.4081 43.3991,37.1221 44.1051,37.0371 C44.7141,36.9651 45.1491,37.1441 45.4131,37.5761 C45.5601,37.8181 45.6671,38.2191 45.7341,38.7811 L46.4121,44.4201 L48.9061,44.1191 L48.2281,38.4811 C48.1771,38.0591 48.2001,37.6881 48.2971,37.3711 C48.4901,36.7721 48.9281,36.4311 49.6111,36.3491 C50.2021,36.2781 50.6341,36.4491 50.9071,36.8631 C51.0511,37.0811 51.1441,37.3691 51.1871,37.7291 L51.9121,43.7581 L54.4491,43.4531 L53.7491,37.4831 C53.6751,36.8691 53.5901,36.4061 53.4941,36.0941 Z M36.4851,37.6191 L27.0751,38.7501 L27.3501,41.0361 L36.7601,39.9041 L36.4851,37.6191 Z M27.5631,42.8081 L27.8381,45.0931 L37.2471,43.9611 L36.9731,41.6761 L27.5631,42.8081 Z M24.3961,44.7321 L24.6731,47.0331 L14.9681,48.2011 L13.4281,35.3941 L22.8201,34.2641 L23.0921,36.5321 L16.3151,37.3481 L16.6421,40.0671 L22.8631,39.3191 L23.1311,41.5431 L16.9101,42.2911 L17.3061,45.5841 L24.3961,44.7321 Z" id="Fill-11" fill="#FFFFFF"></path>
                                <path d="M27.9131,66.0725 L20.6961,66.0725 C19.5911,66.0725 18.6961,65.1765 18.6961,64.0725 L18.6961,63.0875 C18.6961,61.9825 19.5911,61.0875 20.6961,61.0875 L27.9131,61.0875 C29.0171,61.0875 29.9131,61.9825 29.9131,63.0875 L29.9131,64.0725 C29.9131,65.1765 29.0171,66.0725 27.9131,66.0725" id="Fill-13" fill="#FFFFFF"></path>
                                <path d="M70.231,55.9836 C70.231,55.9836 71.231,46.5726 80.357,47.0986 C80.357,47.0986 79.573,57.5736 70.231,55.9836" id="Fill-15" fill="#39B54A"></path>
                                <path d="M70.231,55.9836 L80.357,47.0986 C80.357,47.0986 79.573,57.5736 70.231,55.9836" id="Fill-17" fill="#1C9127"></path>
                                <path d="M66.8447,48.9602 C67.3537,48.7972 67.9027,49.0172 68.1537,49.4882 C69.0827,51.2322 71.1007,55.5862 70.9377,60.2002 L69.3357,60.3372 C69.3357,60.3372 69.3117,54.6802 66.3237,50.7082 C65.8557,50.0872 66.1037,49.1962 66.8447,48.9602" id="Fill-19" fill="#FFC033"></path>
                                <path d="M51.7856,62.9358 C54.7656,55.5188 61.1646,56.1748 65.5926,57.7008 C68.5916,58.7338 71.8696,58.7338 74.8696,57.7008 C79.2976,56.1748 85.6966,55.5188 88.6766,62.9358 C94.1716,76.6108 85.2066,97.2068 71.9546,92.2458 C70.8456,91.8308 69.6166,91.8308 68.5076,92.2458 C55.2556,97.2068 46.2896,76.6108 51.7856,62.9358" id="Fill-21" fill="#39B54A"></path>
                                <path d="M51.7856,62.9348 C52.9606,60.0118 54.6666,58.3468 56.5736,57.4908 C56.2426,58.0458 55.7596,58.6178 55.6596,59.3518 C54.4456,68.2418 61.2246,84.8018 73.0876,88.7728 C76.6616,89.9688 81.3196,91.1938 85.3126,87.7998 C82.0256,92.0528 77.3446,94.2628 71.9546,92.2458 C70.8456,91.8308 69.6166,91.8308 68.5076,92.2458 C55.2556,97.2058 46.2896,76.6108 51.7856,62.9348" id="Fill-23" fill="#1C9127"></path>
                                <path d="M78.1719,60.6809 C76.0979,61.8249 72.2319,59.7039 71.3809,62.2499 C70.4299,65.0939 81.3949,68.3439 84.4529,65.7009 C86.0739,64.2989 86.2849,61.8609 83.6369,60.2919 C80.9889,58.7239 80.0569,59.6429 78.1719,60.6809" id="Fill-25" fill="#50D85D"></path>
                            </g>
                        </g>
                    </g>
                </g>
            </g>
        </g>
    </g>
</svg>