<?xml version="1.0" encoding="UTF-8"?>
<svg width="140px" height="160px" viewBox="0 0 140 160" version="1.1" xmlns="http://www.w3.org/2000/svg" xmlns:xlink="http://www.w3.org/1999/xlink">
    <!-- Generator: Sketch 49.3 (51167) - http://www.bohemiancoding.com/sketch -->
    <title>agriculture</title>
    <desc>Created with Sketch.</desc>
    <defs>
        <polygon id="path-1" points="0 0.6064 93.1298 0.6064 93.1298 60.4414 0 60.4414"></polygon>
        <polygon id="path-3" points="0.8722 0.5001 39.3722 0.5001 39.3722 39 0.8722 39"></polygon>
        <polygon id="path-5" points="0.9001 0.0487 24.749 0.0487 24.749 23.8977 0.9001 23.8977"></polygon>
        <polygon id="path-7" points="0 72.0839 95.749 72.0839 95.749 -0.0001 0 -0.0001"></polygon>
    </defs>
    <g id="agriculture" stroke="none" stroke-width="1" fill="none" fill-rule="evenodd">
        <g>
            <polygon id="Fill-1" fill="#F7F7F7" points="69.9336259 -0.0002 0.000100719425 40.0088 0.000100719425 119.4188 69.9336259 159.9998 139.867151 118.7888 139.867151 40.0088"></polygon>
            <polygon id="Fill-2" fill="#E8E8E8" points="127.204705 47.2482 69.9336259 14.4842 12.6615396 47.2482 12.6615396 112.2812 69.9336259 145.5152 127.204705 111.7662"></polygon>
        </g>
        <g id="Group-27" transform="translate(22.000000, 44.000000)">
            <path d="M72.1129,35.6084 L71.9999,35.6084 C70.4439,35.6084 69.1809,34.3454 69.1809,32.7894 L69.1809,17.2684 C69.1809,15.7124 70.4439,14.4494 71.9999,14.4494 L72.1129,14.4494 C73.6699,14.4494 74.9309,15.7124 74.9309,17.2684 L74.9309,32.7894 C74.9309,34.3454 73.6699,35.6084 72.1129,35.6084" id="Fill-1" fill="#4A3777"></path>
            <g id="Group-5" transform="translate(0.000000, 0.083900)">
                <mask id="mask-2" fill="white">
                    <use xlink:href="#path-1"></use>
                </mask>
                <g id="Clip-4"></g>
                <path d="M92.9928,39.1514 C92.9388,36.5084 91.0838,34.2474 88.5038,33.6754 L53.8998,25.3564 L48.6498,0.6064 L16.4008,0.6064 L13.3358,25.4014 C8.4978,27.1374 4.1078,30.0634 0.6278,33.9954 C-0.2872,35.0294 -0.1912,36.6094 0.8428,37.5244 C1.8778,38.4394 3.4568,38.3424 4.3718,37.3094 C9.2848,31.7594 16.3498,28.5764 23.7548,28.5764 C37.9198,28.5764 49.4558,40.0174 49.6218,54.1434 C49.5388,56.3244 49.1878,58.4344 48.5898,60.4414 L66.3998,60.4414 C66.3998,60.4414 66.4188,60.4234 66.4518,60.3934 C67.2528,51.0384 75.0878,43.6914 84.6498,43.6914 C87.7128,43.6914 90.5938,44.4534 93.1298,45.7854 L92.9928,39.1514 Z" id="Fill-3" fill="#FFC033" mask="url(#mask-2)"></path>
            </g>
            <g id="Group-8" transform="translate(4.000000, 33.083900)">
                <mask id="mask-4" fill="white">
                    <use xlink:href="#path-3"></use>
                </mask>
                <g id="Clip-7"></g>
                <path d="M39.3722,19.7501 C39.3722,30.3821 30.7532,39.0001 20.1222,39.0001 C9.4912,39.0001 0.8722,30.3821 0.8722,19.7501 C0.8722,9.1181 9.4912,0.5001 20.1222,0.5001 C30.7532,0.5001 39.3722,9.1181 39.3722,19.7501" id="Fill-6" fill="#4A3777" mask="url(#mask-4)"></path>
            </g>
            <path d="M35.8195,52.834 C35.8195,59.294 30.5825,64.531 24.1225,64.531 C17.6615,64.531 12.4245,59.294 12.4245,52.834 C12.4245,46.374 17.6615,41.137 24.1225,41.137 C30.5825,41.137 35.8195,46.374 35.8195,52.834" id="Fill-9" fill="#86D8F2"></path>
            <g id="Group-13" transform="translate(71.000000, 48.083900)">
                <mask id="mask-6" fill="white">
                    <use xlink:href="#path-5"></use>
                </mask>
                <g id="Clip-12"></g>
                <path d="M24.7491,11.9727 C24.7491,18.5587 19.4101,23.8977 12.8251,23.8977 C6.2391,23.8977 0.9001,18.5587 0.9001,11.9727 C0.9001,5.3877 6.2391,0.0487 12.8251,0.0487 C19.4101,0.0487 24.7491,5.3877 24.7491,11.9727" id="Fill-11" fill="#4A3777" mask="url(#mask-6)"></path>
            </g>
            <path d="M91.0709,60.0566 C91.0709,64.0586 87.8269,67.3026 83.8249,67.3026 C79.8229,67.3026 76.5789,64.0586 76.5789,60.0566 C76.5789,56.0546 79.8229,52.8106 83.8249,52.8106 C87.8269,52.8106 91.0709,56.0546 91.0709,60.0566" id="Fill-14" fill="#86D8F2"></path>
            <path d="M72.0563,18.8369 C71.4703,18.8369 70.9943,18.3609 70.9943,17.7749 L70.9943,7.1489 C70.9943,6.5629 71.4703,6.0869 72.0563,6.0869 C72.6433,6.0869 73.1183,6.5629 73.1183,7.1489 L73.1183,17.7749 C73.1183,18.3609 72.6433,18.8369 72.0563,18.8369" id="Fill-16" fill="#4A3777"></path>
            <polygon id="Fill-18" fill="#F9A510" points="51.0455 11.3886 48.7965 0.7856 16.5465 0.7856 15.2365 11.3886"></polygon>
            <path d="M49.9987,31.4004 L45.8997,5.4494 L20.1497,5.4494 L18.3047,24.2954 C27.8527,22.9484 37.6937,24.3764 46.6797,33.1504 C48.0607,34.4994 50.3527,33.2974 49.9987,31.4004" id="Fill-20" fill="#4A3777"></path>
            <path d="M51.4049,5.4492 L14.8769,5.4492 C13.3719,5.4492 12.1519,4.2292 12.1519,2.7242 C12.1519,1.2202 13.3719,0.0002 14.8769,0.0002 L51.4049,0.0002 C52.9099,0.0002 54.1299,1.2202 54.1299,2.7242 C54.1299,4.2292 52.9099,5.4492 51.4049,5.4492" id="Fill-22" fill="#FFC033"></path>
            <mask id="mask-8" fill="white">
                <use xlink:href="#path-7"></use>
            </mask>
            <g id="Clip-25"></g>
            <polygon id="Fill-24" fill="#FFC033" mask="url(#mask-8)" points="26.817 26.4619 31.819 26.4619 31.819 3.6289 26.817 3.6289"></polygon>
            <polygon id="Fill-26" fill="#F9A510" mask="url(#mask-8)" points="26.817 11.5359 31.819 11.5359 31.819 5.4489 26.817 5.4489"></polygon>
        </g>
    </g>
</svg>