<?xml version="1.0" encoding="UTF-8"?>
<svg width="41px" height="25px" viewBox="0 0 41 25" version="1.1" xmlns="http://www.w3.org/2000/svg" xmlns:xlink="http://www.w3.org/1999/xlink">
    <!-- Generator: Sketch 51.2 (57519) - http://www.bohemiancoding.com/sketch -->
    <title>Icons/small/type-2</title>
    <desc>Created with Sketch.</desc>
    <defs></defs>
    <g id="Desctop" stroke="none" stroke-width="1" fill="none" fill-rule="evenodd">
        <g id="Holders" transform="translate(-629.000000, -4071.000000)">
            <g id="2-step" transform="translate(-180.000000, 3186.000000)">
                <g id="Table" transform="translate(345.000000, 722.000000)">
                    <g id="Info" transform="translate(285.000000, 35.000000)">
                        <g id="Verification" transform="translate(0.000000, 128.000000)">
                            <g id="Icons/small/type-3" transform="translate(179.000000, 0.000000)">
                                <path d="M22.954,21.454 C22.954,21.454 19.204,22.954 12.359,22.954 C5.515,22.954 1.954,21.454 1.954,21.454 C1.954,18.454 7.871,16.954 10.204,16.954 L10.204,14.704 C9.742,14.344 8.555,13.042 8.209,12.163 C8.161,12.182 8.115,12.19 8.069,12.19 C7.501,12.19 7.084,10.834 7.065,10.342 C7.048,9.843 7.315,9.641 7.539,9.562 C7.236,6.961 7.204,5.704 7.954,4.204 C8.704,2.704 10.204,1.954 12.454,1.954 C14.704,1.954 16.204,2.704 16.954,4.204 C17.503,5.302 17.649,6.927 17.642,8.011 C14.441,8.411 11.954,11.145 11.954,14.454 C11.954,18.038 14.87,20.954 18.454,20.954 L22.904,20.954 C22.929,21.116 22.954,21.278 22.954,21.454 M34.454,18.954 L24.255,18.954 L21.746,18.954 L18.454,18.954 C16.897,18.954 15.524,18.159 14.716,16.954 C14.712,16.947 14.709,16.939 14.704,16.933 C14.232,16.221 13.954,15.37 13.954,14.454 C13.954,12.196 15.63,10.341 17.8,10.02 C18.015,9.988 18.23,9.954 18.454,9.954 L19.759,9.954 L34.454,9.954 C36.935,9.954 38.954,11.973 38.954,14.454 C38.954,16.935 36.935,18.954 34.454,18.954 M34.454,7.954 L19.593,7.954 C19.595,6.641 19.413,4.752 18.702,3.33 C17.942,1.811 16.241,0 12.454,0 C8.667,0 6.966,1.811 6.206,3.33 C5.304,5.136 5.28,6.709 5.496,8.856 C5.23,9.305 5.092,9.84 5.113,10.413 C5.147,11.334 5.653,13.115 6.893,13.833 C7.209,14.327 7.596,14.816 7.968,15.234 C4.691,15.829 0,17.629 0,21.454 L0,22.751 L1.195,23.255 C1.355,23.322 5.202,24.908 12.359,24.908 C19.498,24.908 23.513,23.335 23.68,23.268 L24.908,22.777 L24.908,21.454 C24.908,21.301 24.899,21.132 24.882,20.954 L34.454,20.954 C38.038,20.954 40.954,18.038 40.954,14.454 C40.954,10.87 38.038,7.954 34.454,7.954" id="Fill-1" fill="#7B6798"></path>
                                <path d="M20.7206,12.3017 L18.5246,14.8517 L17.8836,14.2107 C17.8566,14.1837 17.8216,14.1727 17.7916,14.1497 C17.3996,13.8367 16.8326,13.8477 16.4696,14.2107 C16.0786,14.6007 16.0786,15.2347 16.4696,15.6247 L18.2026,17.3607 L18.6336,17.7907 L18.8606,17.5287 L20.2416,15.9237 L22.2366,13.6067 C22.5966,13.1887 22.5496,12.5567 22.1306,12.1967 C21.7136,11.8377 21.0816,11.8817 20.7206,12.3017" id="Fill-3" fill="#34A800"></path>
                                <path d="M27.7206,12.3017 L25.5246,14.8517 L24.8836,14.2107 C24.4926,13.8207 23.8606,13.8207 23.4696,14.2107 C23.0786,14.6007 23.0786,15.2347 23.4696,15.6247 L25.6336,17.7907 L29.2366,13.6067 C29.5966,13.1887 29.5496,12.5567 29.1306,12.1967 C28.7136,11.8377 28.0816,11.8817 27.7206,12.3017" id="Fill-5" fill="#34A800"></path>
                                <path d="M34.7206,12.3017 L32.5246,14.8517 L31.8836,14.2107 C31.4926,13.8207 30.8606,13.8207 30.4696,14.2107 C30.0786,14.6007 30.0786,15.2347 30.4696,15.6247 L32.6336,17.7907 L36.2366,13.6067 C36.5966,13.1887 36.5496,12.5567 36.1306,12.1967 C35.7136,11.8377 35.0816,11.8817 34.7206,12.3017" id="Fill-7" fill="#34A800"></path>
                            </g>
                        </g>
                    </g>
                </g>
            </g>
        </g>
    </g>
</svg>