<?xml version="1.0" encoding="UTF-8"?>
<svg width="140px" height="160px" viewBox="0 0 140 160" version="1.1" xmlns="http://www.w3.org/2000/svg" xmlns:xlink="http://www.w3.org/1999/xlink">
    <!-- Generator: Sketch 49.3 (51167) - http://www.bohemiancoding.com/sketch -->
    <title>aerospace</title>
    <desc>Created with Sketch.</desc>
    <defs></defs>
    <g id="aerospace" stroke="none" stroke-width="1" fill="none" fill-rule="evenodd">
        <g>
            <polygon id="Fill-1" fill="#F7F7F7" points="69.9336259 -0.0002 0.000100719424 40.0088 0.000100719424 119.4188 69.9336259 159.9998 139.867151 118.7888 139.867151 40.0088"></polygon>
            <polygon id="Fill-2" fill="#E8E8E8" points="127.204705 47.2482 69.9336259 14.4842 12.6615396 47.2482 12.6615396 112.2812 69.9336259 145.5152 127.204705 111.7662"></polygon>
            <g id="Group-29" transform="translate(29.208633, 24.000000)">
                <path d="M46.3379856,5.1418 L40.8497842,0.3058 L35.3615827,5.1418 C28.9699281,10.7738 25.3128058,18.8518 25.3128058,27.3358 L25.3128058,75.8798 L56.3867626,75.8798 L56.3867626,27.3358 C56.3867626,18.8518 52.7296403,10.7738 46.3379856,5.1418" id="Fill-3" fill="#4A3777"></path>
                <path d="M20.8999856,26.1975 L18.4897698,24.0745 L16.0805612,26.1975 C13.2735108,28.6715 11.667036,32.2185 11.667036,35.9435 L11.667036,83.8345 L25.3125036,83.8345 L25.3125036,35.9435 C25.3125036,32.2185 23.707036,28.6715 20.8999856,26.1975" id="Fill-5" fill="#86D8F2"></path>
                <path d="M65.562705,23.3908 L63.1524892,21.2678 L60.7422734,23.3908 C57.9362302,25.8648 56.3297554,29.4118 56.3297554,33.1368 L56.3297554,81.0278 L69.975223,81.0278 L69.975223,33.1368 C69.975223,29.4118 68.3687482,25.8648 65.562705,23.3908" id="Fill-7" fill="#86D8F2"></path>
                <path d="M44.4750791,17.0822 L40.7242878,13.7772 L36.9745036,17.0822 C32.6073094,20.9302 30.1074532,26.4502 30.1074532,32.2482 L30.1074532,90.4892 L40.7242878,90.4892 L51.3421295,90.4892 L51.3421295,32.2482 C51.3421295,26.4502 48.8422734,20.9302 44.4750791,17.0822" id="Fill-9" fill="#86D8F2"></path>
                <path d="M22.3330216,97.2404 L12.6508633,97.2404 C11.2659712,97.2404 10.1419424,96.1264 10.1419424,94.7504 L10.1419424,92.7344 L24.8419424,92.7344 L24.8419424,94.7504 C24.8419424,96.1264 23.7179137,97.2404 22.3330216,97.2404" id="Fill-11" fill="#4A3777"></path>
                <path d="M67.9936691,97.2404 L58.3115108,97.2404 C56.9266187,97.2404 55.8025899,96.1264 55.8025899,94.7504 L55.8025899,92.7344 L70.5025899,92.7344 L70.5025899,94.7504 C70.5025899,96.1264 69.3785612,97.2404 67.9936691,97.2404" id="Fill-13" fill="#4A3777"></path>
                <path d="M51.2441295,30.4289 C50.7798129,25.3089 48.3826906,20.5249 44.474777,17.0819 L40.7249928,13.7779 L36.9752086,17.0819 C33.067295,20.5249 30.6701727,25.3089 30.2058561,30.4289 L51.2441295,30.4289 Z" id="Fill-15" fill="#FFC033"></path>
                <path d="M51.3420288,59.4299 L51.3420288,92.7349 L80.7400144,92.7349 L80.7400144,92.7019 C80.7400144,85.4239 77.2732518,78.5749 71.3902302,74.2319 L51.3420288,59.4299 Z" id="Fill-17" fill="#FFC033"></path>
                <polygon id="Fill-19" fill="#F9A510" points="56.1241871 62.9611 51.3420288 59.4301 51.3420288 92.7341 56.1241871 92.7341"></polygon>
                <path d="M30.1077554,59.4299 L30.1077554,92.7349 L0.709769784,92.7349 L0.709769784,92.7019 C0.709769784,85.4239 4.17653237,78.5749 10.059554,74.2319 L30.1077554,59.4299 Z" id="Fill-21" fill="#FFC033"></path>
                <polygon id="Fill-23" fill="#F9A510" points="25.3255971 62.9611 30.1077554 59.4301 30.1077554 92.7341 25.3255971 92.7341"></polygon>
                <path d="M45.5658705,97.2404 L35.8837122,97.2404 C34.4988201,97.2404 33.3747914,96.1264 33.3747914,94.7504 L33.3747914,90.4894 L48.0747914,90.4894 L48.0747914,94.7504 C48.0747914,96.1264 46.9507626,97.2404 45.5658705,97.2404" id="Fill-25" fill="#4A3777"></path>
                <path d="M46.8548777,46.1711 C46.8548777,49.4641 44.1666763,52.1331 40.8499856,52.1331 C37.533295,52.1331 34.8450935,49.4641 34.8450935,46.1711 C34.8450935,42.8781 37.533295,40.2091 40.8499856,40.2091 C44.1666763,40.2091 46.8548777,42.8781 46.8548777,46.1711" id="Fill-27" fill="#4A3777"></path>
            </g>
        </g>
    </g>
</svg>