<?xml version="1.0" encoding="UTF-8"?>
<svg width="25px" height="25px" viewBox="0 0 25 25" version="1.1" xmlns="http://www.w3.org/2000/svg" xmlns:xlink="http://www.w3.org/1999/xlink">
    <!-- Generator: Sketch 51.2 (57519) - http://www.bohemiancoding.com/sketch -->
    <title>Icons/wallet</title>
    <desc>Created with Sketch.</desc>
    <defs></defs>
    <g id="Desctop" stroke="none" stroke-width="1" fill="none" fill-rule="evenodd">
        <g id="Holders" transform="translate(-545.000000, -3983.000000)" fill="#7B6798">
            <g id="2-step" transform="translate(-180.000000, 3186.000000)">
                <g id="Table" transform="translate(345.000000, 722.000000)">
                    <g id="Info" transform="translate(285.000000, 35.000000)">
                        <g id="Deposit" transform="translate(0.000000, 40.000000)">
                            <g id="Icons/small/wallet" transform="translate(95.000000, 0.000000)">
                                <path d="M5.2559,16.3975 C5.3099,16.3865 5.3559,16.3765 5.4109,16.3665 C5.7129,16.3125 6.0459,16.2675 6.3859,16.2235 C6.8019,16.1695 7.2479,16.1265 7.7209,16.0905 C7.8679,16.0805 8.0039,16.0655 8.1569,16.0565 C8.7349,16.0225 9.3419,16.0005 9.9999,16.0005 C13.3129,16.0005 15.5799,16.4805 16.8459,16.9455 C16.9659,16.9895 17.0909,17.0335 17.1929,17.0765 C17.5169,17.2145 17.7409,17.3445 17.8779,17.4585 C17.8929,17.4715 17.9239,17.4875 17.9369,17.5005 C17.8099,17.6215 17.5559,17.7675 17.1969,17.9215 C16.7769,18.1015 16.2029,18.2895 15.4669,18.4585 C14.8859,18.5915 14.1979,18.7095 13.4199,18.8025 C13.1199,18.8385 12.7969,18.8675 12.4679,18.8935 C11.7139,18.9555 10.9069,19.0005 9.9999,19.0005 C7.6699,19.0005 5.8509,18.7615 4.5329,18.4585 C3.1669,18.1445 2.3389,17.7615 2.0629,17.5005 C2.0759,17.4875 2.1069,17.4715 2.1229,17.4585 C2.4889,17.1545 3.5359,16.7155 5.2559,16.3975 Z M6.9999,13.7355 C7.2349,13.8395 7.4819,13.9365 7.7439,14.0255 C7.7909,14.0415 7.8339,14.0595 7.8819,14.0755 C7.7699,14.0825 7.6579,14.0905 7.5439,14.0995 C7.3639,14.1145 7.1829,14.1285 6.9999,14.1475 L6.9999,13.7355 Z M22.9999,14.3585 L22.9999,15.3415 L22.9999,15.4295 C22.7819,15.7285 21.6889,16.2465 19.7449,16.6055 C19.3089,15.8675 18.3399,15.3205 17.1179,14.9245 C18.3059,14.8445 19.5669,14.6925 20.7279,14.4415 C21.2669,14.3255 21.7799,14.1865 22.2559,14.0255 C22.5189,13.9365 22.7649,13.8395 22.9999,13.7355 L22.9999,14.3585 Z M22.9999,10.3585 L22.9999,11.0005 L22.9999,11.3415 L22.9999,11.4295 C22.8909,11.5805 22.5359,11.7865 21.9889,12.0005 C21.4919,12.1945 20.8189,12.3905 19.9599,12.5605 C18.6929,12.8115 17.0539,13.0005 14.9999,13.0005 C12.9459,13.0005 11.3079,12.8115 10.0399,12.5605 C9.1819,12.3905 8.5079,12.1945 8.0109,12.0005 C7.4639,11.7865 7.1099,11.5805 6.9999,11.4295 L6.9999,11.3425 L6.9999,11.0005 L6.9999,10.3585 L6.9999,9.7355 C7.2349,9.8395 7.4819,9.9365 7.7439,10.0255 C8.2199,10.1875 8.7349,10.3255 9.2749,10.4415 C11.1709,10.8505 13.3409,11.0005 14.9999,11.0005 C16.6599,11.0005 18.8309,10.8505 20.7279,10.4415 C21.2669,10.3255 21.7799,10.1865 22.2559,10.0255 C22.5189,9.9365 22.7649,9.8395 22.9999,9.7355 L22.9999,10.3585 Z M22.9999,6.3585 L22.9999,7.0005 L22.9999,7.3415 L22.9999,7.4295 C22.8909,7.5805 22.5359,7.7865 21.9889,8.0005 C21.4919,8.1945 20.8189,8.3905 19.9599,8.5605 C18.6929,8.8115 17.0539,9.0005 14.9999,9.0005 C12.9459,9.0005 11.3079,8.8115 10.0399,8.5605 C9.1819,8.3905 8.5079,8.1945 8.0109,8.0005 C7.4639,7.7865 7.1099,7.5805 6.9999,7.4295 L6.9999,7.3425 L6.9999,7.0005 L6.9999,6.3585 L6.9999,5.7355 C7.2349,5.8395 7.4819,5.9365 7.7439,6.0255 C8.2199,6.1875 8.7349,6.3255 9.2749,6.4415 C11.1709,6.8505 13.3409,7.0005 14.9999,7.0005 C16.6599,7.0005 18.8309,6.8505 20.7279,6.4415 C21.2669,6.3255 21.7799,6.1865 22.2559,6.0255 C22.5189,5.9365 22.7649,5.8395 22.9999,5.7355 L22.9999,6.3585 Z M14.9999,2.0005 C19.6289,2.0005 22.2479,2.9355 22.8779,3.4585 C22.8929,3.4715 22.9239,3.4875 22.9369,3.5005 C22.6619,3.7615 21.8339,4.1445 20.4669,4.4585 C20.3109,4.4945 20.1289,4.5265 19.9579,4.5605 C18.6909,4.8115 17.0539,5.0005 14.9999,5.0005 C12.9459,5.0005 11.3099,4.8115 10.0419,4.5605 C9.8709,4.5265 9.6899,4.4945 9.5329,4.4585 C8.1669,4.1445 7.3389,3.7615 7.0629,3.5005 C7.0759,3.4875 7.1069,3.4715 7.1229,3.4585 C7.7519,2.9355 10.3719,2.0005 14.9999,2.0005 Z M17.9999,21.4295 C17.6429,21.9185 14.9719,23.0005 9.9999,23.0005 C5.0279,23.0005 2.3569,21.9185 1.9999,21.4295 L1.9999,19.7355 C4.1589,20.6905 7.6089,21.0005 9.9999,21.0005 C12.3919,21.0005 15.8409,20.6905 17.9999,19.7355 L17.9999,21.4295 Z M24.9939,3.4585 C24.9279,0.7315 18.6949,0.0005 14.9999,0.0005 C11.3049,0.0005 5.0719,0.7315 5.0059,3.4585 L4.9999,3.4585 L4.9999,3.5005 L4.9999,7.0005 L4.9999,7.5005 L4.9999,11.0005 L4.9999,11.5005 L4.9999,14.4175 C2.3599,14.8835 0.0469,15.8015 0.0059,17.4585 L-0.0001,17.4585 L-0.0001,17.5005 L-0.0001,21.5005 C-0.0001,24.2625 6.2859,25.0005 9.9999,25.0005 C13.7139,25.0005 19.9999,24.2625 19.9999,21.5005 L19.9999,18.5835 C22.6639,18.1125 24.9999,17.1835 24.9999,15.5005 L24.9999,11.5005 L24.9999,11.0005 L24.9999,7.5005 L24.9999,7.0005 L24.9999,3.5005 C24.9999,3.4855 24.9939,3.4725 24.9939,3.4585 Z" id="Fill-1"></path>
                            </g>
                        </g>
                    </g>
                </g>
            </g>
        </g>
    </g>
</svg>