<?xml version="1.0" encoding="utf-8"?>
<!-- Generator: Adobe Illustrator 23.0.1, SVG Export Plug-In . SVG Version: 6.00 Build 0)  -->
<svg version="1.1" id="Слой_1" xmlns="http://www.w3.org/2000/svg" xmlns:xlink="http://www.w3.org/1999/xlink" x="0px" y="0px"
	 viewBox="0 0 283.5 93.5" style="enable-background:new 0 0 283.5 93.5;" xml:space="preserve">
<style type="text/css">
	.st0{fill:#F2931D;}
	.st1{fill:#081C33;}
</style>
<g>
	<path class="st0" d="M22.4,46.2c0.3-10.7,3.8-20.4,11-28.6c6.1-6.9,13.7-11.5,22.7-13.7c2.4-0.6,4.8-0.9,7.3-1.1
		c1.4-0.1,2.7-0.2,4.1-0.1c5.8,0.4,11.4,1.5,16.7,4c4.1,1.9,7.8,4.3,11.1,7.3c0.4,0.3,0.4,0.5,0,0.9c-2.2,2-4.5,4-6.7,6
		c-0.3,0.3-0.5,0.3-0.8,0c-4.5-3.9-9.6-6.4-15.4-7.5c-11-2-20.7,0.7-29,8.2c-5.4,4.9-8.8,11-10.2,18.1c-0.9,4.2-0.9,8.3-0.1,12.5
		c2.5,12.3,9.6,20.7,21.2,25.4c3.4,1.4,6.9,2,10.5,2.1c9.1,0.3,17-2.7,23.7-8.8c1.5-1.4,2.9-2.9,4.1-4.6c0.3-0.4,0.5-0.5,0.9-0.2
		c2.6,1.5,5.2,3,7.8,4.5c0.4,0.2,0.5,0.4,0.2,0.8c-5.8,8.1-13.4,13.6-22.9,16.6c-3.2,1-6.5,1.5-9.8,1.8c-1.6,0.1-3.1,0.2-4.7,0.1
		c-5.8-0.4-11.4-1.6-16.6-4.1c-5.2-2.5-9.8-5.8-13.7-10.1c-5.5-6.1-9.1-13.2-10.7-21.3c-0.3-1.6-0.4-3.2-0.7-4.9
		C22.4,48.6,22.5,47.5,22.4,46.2z"/>
	<path class="st1" d="M80.8,42.2c5,0,9.9,0,14.9,0c0.4,0,0.6,0,0.7,0.6c1,9.8-1.9,18.4-8.9,25.4c-5.3,5.3-11.9,8.3-19.4,8.8
		c-8.6,0.5-16.3-2.1-22.7-8c-6.1-5.6-9.5-12.7-9.8-21c-0.4-9.1,2.7-17,9.2-23.4c5.6-5.5,12.4-8.3,20.2-8.6
		c7.7-0.3,14.4,2.1,20.4,6.9c0.7,0.5,0.7,0.6,0,1.1c-1.7,1.6-3.5,3.2-5.2,4.8c-0.4,0.3-0.6,0.4-1,0.1c-3.9-2.9-8.3-4.4-13.1-4.4
		C55.4,24.2,46,32.2,44.3,42.8C42.4,54.4,50,65.5,61.5,68c11.8,2.5,23.3-4.8,26.1-16.6c0.2-0.7,0.2-0.7-0.6-0.7
		c-6.9,0-13.7,0-20.6,0c-1.7,0-3.1-0.6-4.1-2.1c-0.9-1.4-0.9-2.9,0-4.3c0.8-1.4,2.1-2.1,3.8-2.1C71,42.2,75.9,42.2,80.8,42.2
		C80.8,42.2,80.8,42.2,80.8,42.2z"/>
	<path class="st0" d="M78.2,38.2c-1.3,0-2.6,0-4,0c-0.4,0-0.7-0.1-1-0.4c-3.5-2.8-7.3-3.5-11.4-1.7c-4.1,1.7-6.4,5-6.8,9.4
		c-0.4,4.5,2,8.8,6.1,10.8c4.3,2.1,8.5,1.6,12.2-1.4c0.3-0.2,0.5-0.3,0.9-0.3c2.7,0,5.5,0,8.2,0c0.6,0,0.6,0,0.3,0.6
		c-3,5.5-7.7,8.8-13.9,9.8c-9.8,1.6-19.3-5.2-21.1-14.9c-1.9-9.9,4-19.4,13.8-21.8c6.5-1.6,12.3-0.1,17.3,4.3c1.7,1.5,2.9,3.2,4,5.1
		c0.2,0.4,0.2,0.5-0.3,0.5C81,38.2,79.6,38.2,78.2,38.2z"/>
</g>
<g>
	<path class="st1" d="M139.7,8.8l-2.9,2.6c-1.4-1.4-3.4-2.2-5.6-2.2c-3.9,0-7,2.9-7,7.1c0,4.2,3.1,7.1,7,7.1c2.2,0,4.1-0.8,5.6-2.2
		l2.9,2.6c-2.1,2.2-5.1,3.6-8.5,3.6c-6.3,0-11.5-5-11.5-11.2c0-6.2,5.1-11.2,11.5-11.2C134.6,5.1,137.6,6.6,139.7,8.8z"/>
	<path class="st1" d="M167.5,16.4c0,6.2-5.1,11.2-11.5,11.2c-6.3,0-11.5-5-11.5-11.2c0-6.2,5.1-11.2,11.5-11.2
		C162.4,5.1,167.5,10.2,167.5,16.4z M149,16.4c0,4.2,3.1,7.1,7,7.1c4,0,7-2.9,7-7.1c0-4.2-3.1-7.1-7-7.1
		C152.1,9.2,149,12.1,149,16.4z"/>
	<path class="st1" d="M183.9,23.3v4.1h-9.8v-4.1h2.7V9.4h-2.7V5.4h9.8v4.1h-2.7v13.8H183.9z"/>
	<path class="st1" d="M206.7,27.4l-10.6-13.9v13.9h-4.4v-22h2.6l10.7,13.9V5.4h4.4v22H206.7z"/>
	<path class="st1" d="M139.7,42.3l-2.9,2.6c-1.4-1.4-3.4-2.2-5.6-2.2c-3.9,0-7,2.9-7,7.1c0,4.2,3.1,7.1,7,7.1c1.5,0,2.9-0.4,4.1-1.2
		v-3.8h-4.1v-3.3h8.6v8.7c-2.1,2.2-5.1,3.6-8.5,3.6c-6.3,0-11.5-5-11.5-11.2s5.1-11.2,11.5-11.2C134.6,38.6,137.6,40,139.7,42.3z"/>
	<path class="st1" d="M150.2,60.8h-4.9l9.3-22h2.6l9.1,22h-4.9l-1.6-4h-7.9L150.2,60.8z M153.4,52.7h4.9l-2.4-6L153.4,52.7z"/>
	<path class="st1" d="M171.9,60.8v-22h4.4v17.9h10.1v4.1H171.9z"/>
	<path class="st1" d="M195.4,60.8h-4.9l9.3-22h2.6l9.1,22h-4.9l-1.6-4H197L195.4,60.8z M198.6,52.7h4.9l-2.4-6L198.6,52.7z"/>
	<path class="st1" d="M220.6,60.8h-5.1l7.8-11.5l-7.3-10.5h5.1l4.8,6.7l4.7-6.7h5.1l-7.3,10.7l7.8,11.3h-5.1l-5.3-7.5L220.6,60.8z"
		/>
	<path class="st1" d="M248.2,60.8v-7.4l-8-14.6h5.1l5.2,9.3l5.2-9.3h5.1l-8,14.6v7.4H248.2z"/>
	<path class="st0" d="M134.9,76.2l-1.7,1.6c-1.2-1.2-2.9-1.9-4.8-1.9c-3.5,0-6.2,2.6-6.2,6.2c0,3.6,2.7,6.2,6.2,6.2
		c1.9,0,3.6-0.7,4.8-1.9l1.7,1.6c-1.6,1.7-4,2.8-6.6,2.8c-4.9,0-8.9-3.9-8.9-8.7s4-8.7,8.9-8.7C130.9,73.4,133.3,74.5,134.9,76.2z"
		/>
	<path class="st0" d="M156.6,82.1c0,4.8-4,8.7-8.9,8.7c-4.9,0-8.9-3.9-8.9-8.7c0-4.8,4-8.7,8.9-8.7
		C152.6,73.4,156.6,77.3,156.6,82.1z M141.6,82.1c0,3.6,2.7,6.2,6.2,6.2s6.2-2.6,6.2-6.2c0-3.6-2.7-6.2-6.2-6.2
		S141.6,78.5,141.6,82.1z"/>
	<path class="st0" d="M176.1,90.6V78.5l-5.9,7.2l-5.9-7.2v12.1h-2.7v-17h1.6l7,8.6l7-8.6h1.5v17H176.1z"/>
</g>
</svg>
