<?xml version="1.0" encoding="utf-8"?>
<!-- Generator: Adobe Illustrator 23.0.1, SVG Export Plug-In . SVG Version: 6.00 Build 0)  -->
<svg version="1.1" id="Слой_1" xmlns="http://www.w3.org/2000/svg" xmlns:xlink="http://www.w3.org/1999/xlink" x="0px" y="0px"
	 viewBox="0 0 283.5 93.5" style="enable-background:new 0 0 283.5 93.5;" xml:space="preserve">
<style type="text/css">
	.st0{fill:#F2931D;}
	.st1{fill:#FFFFFF;}
</style>
<g>
	<g>
		<path class="st0" d="M23.1,47c0.3-10.6,3.7-20.3,10.9-28.4C40.2,11.7,47.7,7.2,56.7,5c2.4-0.6,4.8-0.9,7.2-1.1
			c1.4-0.1,2.7-0.2,4.1-0.1c5.8,0.4,11.4,1.5,16.6,4c4.1,1.9,7.7,4.3,11.1,7.3c0.4,0.3,0.4,0.5,0,0.9c-2.2,2-4.4,4-6.6,6
			c-0.3,0.3-0.5,0.3-0.8,0c-4.4-3.8-9.5-6.4-15.3-7.4c-10.9-1.9-20.6,0.7-28.8,8.2c-5.4,4.8-8.7,10.9-10.2,18
			c-0.8,4.1-0.9,8.3-0.1,12.4c2.5,12.2,9.6,20.6,21.1,25.2c3.3,1.3,6.9,2,10.5,2.1c9,0.3,16.9-2.7,23.6-8.7c1.5-1.4,2.9-2.9,4.1-4.5
			c0.3-0.4,0.5-0.4,0.9-0.2c2.6,1.5,5.2,3,7.8,4.4c0.4,0.2,0.5,0.4,0.2,0.8c-5.8,8-13.3,13.5-22.8,16.5c-3.2,1-6.4,1.5-9.8,1.8
			c-1.5,0.1-3.1,0.2-4.6,0.1c-5.8-0.4-11.3-1.6-16.5-4.1s-9.8-5.8-13.7-10c-5.5-6-9.1-13.1-10.6-21.1c-0.3-1.6-0.4-3.2-0.7-4.8
			C23.2,49.4,23.2,48.3,23.1,47z"/>
		<path class="st1" d="M81.2,43c4.9,0,9.9,0,14.8,0c0.4,0,0.6,0,0.7,0.6c1,9.8-1.9,18.2-8.8,25.2c-5.3,5.3-11.8,8.2-19.3,8.7
			c-8.6,0.5-16.2-2.1-22.5-8c-6.1-5.6-9.4-12.6-9.8-20.9c-0.4-9.1,2.7-16.9,9.1-23.2c5.5-5.4,12.3-8.3,20.1-8.6
			c7.6-0.3,14.3,2.1,20.3,6.8c0.7,0.5,0.7,0.5,0,1.1c-1.7,1.6-3.5,3.2-5.2,4.8c-0.4,0.3-0.6,0.4-1,0.1c-3.9-2.9-8.2-4.4-13-4.4
			c-10.7-0.1-20,7.8-21.7,18.4C43,55.2,50.6,66.2,62,68.6c11.8,2.5,23.2-4.8,26-16.5c0.2-0.7,0.2-0.7-0.6-0.7c-6.8,0-13.6,0-20.5,0
			c-1.7,0-3.1-0.6-4-2s-0.9-2.9,0-4.3c0.8-1.4,2.1-2.1,3.8-2.1C71.5,43,76.4,43,81.2,43L81.2,43z"/>
		<path class="st0" d="M78.6,39.1c-1.3,0-2.6,0-3.9,0c-0.4,0-0.7-0.1-1-0.4c-3.4-2.8-7.3-3.4-11.3-1.7c-4.1,1.7-6.4,4.9-6.8,9.3
			c-0.4,4.5,2,8.8,6,10.7c4.3,2.1,8.4,1.5,12.2-1.4c0.3-0.2,0.5-0.3,0.9-0.3c2.7,0,5.4,0,8.2,0c0.6,0,0.6,0,0.3,0.6
			c-3,5.5-7.6,8.8-13.8,9.8c-9.7,1.5-19.2-5.2-21-14.8c-1.9-9.8,4-19.3,13.7-21.7c6.4-1.6,12.2-0.1,17.2,4.3c1.6,1.5,2.9,3.2,4,5.1
			c0.2,0.4,0.2,0.5-0.3,0.5C81.4,39.1,80,39.1,78.6,39.1z"/>
	</g>
	<g>
		<path class="st1" d="M139.8,9.8l-2.9,2.6c-1.4-1.4-3.4-2.2-5.6-2.2c-3.9,0-7,2.9-7,7.1s3.1,7.1,7,7.1c2.2,0,4.1-0.8,5.6-2.2
			l2.9,2.6c-2.1,2.2-5.1,3.6-8.4,3.6c-6.3,0-11.4-5-11.4-11.1s5.1-11.1,11.4-11.1C134.7,6.2,137.7,7.6,139.8,9.8z"/>
		<path class="st1" d="M167.4,17.4c0,6.2-5.1,11.1-11.4,11.1s-11.4-5-11.4-11.1S149.7,6.3,156,6.3S167.4,11.2,167.4,17.4z M149,17.4
			c0,4.2,3.1,7.1,7,7.1s7-2.9,7-7.1s-3.1-7.1-7-7.1C152.1,10.3,149,13.2,149,17.4z"/>
		<path class="st1" d="M183.7,24.2v4.1h-9.8v-4.1h2.7V10.5h-2.7V6.4h9.8v4.1H181v13.7H183.7z"/>
		<path class="st1" d="M206.4,28.3l-10.6-13.8v13.8h-4.4V6.4h2.6l10.6,13.8V6.4h4.4v21.9H206.4z"/>
		<path class="st1" d="M139.8,43.1l-2.9,2.6c-1.4-1.4-3.4-2.2-5.6-2.2c-3.9,0-7,2.9-7,7.1s3.1,7.1,7,7.1c1.5,0,2.9-0.4,4-1.2v-3.8
			h-4.1v-3.2h8.5v8.7c-2.1,2.2-5.1,3.6-8.4,3.6c-6.3,0-11.4-5-11.4-11.1s5.1-11.1,11.4-11.1C134.7,39.5,137.7,40.9,139.8,43.1z"/>
		<path class="st1" d="M150.2,61.5h-4.9l9.2-21.9h2.6l9.1,21.9h-4.9l-1.6-4h-7.9L150.2,61.5z M153.3,53.4h4.8l-2.4-6L153.3,53.4z"/>
		<path class="st1" d="M171.7,61.5V39.7h4.4v17.8h10.1v4.1L171.7,61.5L171.7,61.5z"/>
		<path class="st1" d="M195.1,61.5h-4.9l9.2-21.9h2.6l9.1,21.9h-4.9l-1.6-4h-7.9L195.1,61.5z M198.3,53.4h4.8l-2.4-6L198.3,53.4z"/>
		<path class="st1" d="M220.2,61.5h-5.1l7.8-11.4l-7.3-10.5h5l4.8,6.7l4.7-6.7h5l-7.3,10.6l7.8,11.2h-5l-5.3-7.4L220.2,61.5z"/>
		<path class="st1" d="M247.6,61.5v-7.3l-8-14.5h5l5.2,9.2l5.1-9.2h5l-8,14.5v7.3H247.6z"/>
		<path class="st0" d="M135,76.9l-1.7,1.6c-1.2-1.2-2.9-1.9-4.8-1.9c-3.4,0-6.1,2.6-6.1,6.2s2.7,6.2,6.1,6.2c1.9,0,3.6-0.7,4.8-1.9
			l1.7,1.6c-1.6,1.7-4,2.8-6.5,2.8c-4.9,0-8.8-3.9-8.8-8.6c0-4.8,3.9-8.6,8.8-8.6C131,74,133.4,75.1,135,76.9z"/>
		<path class="st0" d="M156.6,82.7c0,4.8-4,8.6-8.8,8.6c-4.9,0-8.8-3.8-8.8-8.6c0-4.8,3.9-8.6,8.8-8.6
			C152.6,74,156.6,77.9,156.6,82.7z M141.6,82.7c0,3.6,2.7,6.2,6.1,6.2c3.4,0,6.2-2.6,6.2-6.2s-2.7-6.2-6.2-6.2
			C144.3,76.5,141.6,79.1,141.6,82.7z"/>
		<path class="st0" d="M175.9,91.1v-12l-5.8,7.2l-5.8-7.2v12h-2.7V74.2h1.6l7,8.6l7-8.6h1.5v16.9H175.9z"/>
	</g>
</g>
</svg>
