<?xml version="1.0" encoding="UTF-8"?>
<svg width="25px" height="25px" viewBox="0 0 25 25" version="1.1" xmlns="http://www.w3.org/2000/svg" xmlns:xlink="http://www.w3.org/1999/xlink">
    <!-- Generator: Sketch 51.2 (57519) - http://www.bohemiancoding.com/sketch -->
    <title>Icons/card</title>
    <desc>Created with Sketch.</desc>
    <defs></defs>
    <g id="Desctop" stroke="none" stroke-width="1" fill="none" fill-rule="evenodd">
        <g id="Holders" transform="translate(-595.000000, -3983.000000)" fill="#7B6798">
            <g id="2-step" transform="translate(-180.000000, 3186.000000)">
                <g id="Table" transform="translate(345.000000, 722.000000)">
                    <g id="Info" transform="translate(285.000000, 35.000000)">
                        <g id="Deposit" transform="translate(0.000000, 40.000000)">
                            <g id="Icons/small/card" transform="translate(145.000000, 0.000000)">
                                <path d="M22.8797273,14.1503777 L22.8487602,14.1593716 L22.8177931,14.1693648 L20.9777451,14.7389775 L20.9777451,10.995523 C20.9777451,9.89327257 20.0826947,8.99988008 18.9798646,8.99988008 L3.13767131,8.99988008 L2.65318529,7.27305432 C2.65718105,7.26006316 2.6881482,7.20609985 2.77605494,7.18111684 L2.80702209,7.17312228 L2.83798923,7.16312907 L19.4983146,2.00363753 C19.5152966,2.00063957 19.5302807,1.99864092 19.5462638,1.99864092 C19.5912161,1.99864092 19.6201853,2.01363073 19.62518,2.01363073 L23.002597,14.0584403 C22.9996002,14.0724307 22.968633,14.1263941 22.8797273,14.1503777 Z M18.9798646,23.0013591 L1.99788049,23.004357 L1.99788049,20.9997202 L4.99370228,20.9997202 L7.51402852,20.9997202 L18.9798646,20.9997202 L18.9798646,23.0013591 Z M18.9798646,17.4501339 L18.9798646,19.0010793 L13.9681814,19.0010793 L7.21234856,19.0010793 L5.94169657,19.0010793 L3.86789662,19.0010793 L1.99788049,19.0010793 L1.99788049,12.3216213 L1.99788049,10.998521 L3.69807678,10.998521 L18.9798646,10.998521 L18.9798646,15.3575569 L18.9798646,17.4501339 Z M24.9305517,13.5527841 L21.54814,1.47399768 C21.3033996,0.580605188 20.4692845,0 19.5462638,0 C19.3504715,0 19.1516824,0.025982332 18.9528932,0.079945637 L2.24761555,5.25442699 C1.11082155,5.56621497 0.429544305,6.69644642 0.726229557,7.77871048 L1.12580565,9.20773874 C0.461510393,9.53151857 0,10.2070592 0,10.995523 L0,23.004357 C0,24.1066075 0.894051518,25 1.99788049,25 L18.9798646,25 C20.0826947,25 20.9777451,24.1066075 20.9777451,23.004357 L20.9777451,20.9997202 L20.9777451,19.0010793 L20.9777451,16.8305552 L23.4091657,16.0780669 C24.5459597,15.7652796 25.2272369,14.6350482 24.9305517,13.5527841 Z" id="Fill-1"></path>
                                <polygon id="Fill-4" points="4 13 4 17 5.387 17 8 17 8 13 4.264 13"></polygon>
                            </g>
                        </g>
                    </g>
                </g>
            </g>
        </g>
    </g>
</svg>