<?xml version="1.0" standalone="no"?>
<!DOCTYPE svg PUBLIC "-//W3C//DTD SVG 20010904//EN"
 "http://www.w3.org/TR/2001/REC-SVG-20010904/DTD/svg10.dtd">
<svg version="1.0" xmlns="http://www.w3.org/2000/svg"
 width="512.000000pt" height="512.000000pt" viewBox="0 0 512.000000 512.000000"
 preserveAspectRatio="xMidYMid meet">
<metadata>
Created by potrace 1.11, written by Peter Selinger 2001-2013
</metadata>
<g transform="translate(0.000000,512.000000) scale(0.100000,-0.100000)"
fill="#000000" stroke="none">
<path d="M1267 4738 c-15 -23 -575 -987 -608 -1044 -9 -18 -81 -141 -160 -275
-78 -134 -149 -257 -159 -274 -119 -208 -216 -375 -231 -397 -11 -15 -19 -30
-19 -33 0 -3 -20 -39 -46 -80 l-45 -75 50 -86 c28 -47 51 -88 51 -90 0 -3 8
-17 19 -32 10 -15 93 -155 183 -312 91 -157 253 -436 360 -620 107 -184 286
-492 398 -685 112 -192 209 -357 216 -365 11 -13 165 -15 1279 -14 l1267 0 73
125 c249 427 391 668 410 699 13 19 102 172 200 340 98 168 187 321 200 340
12 19 111 186 219 371 l197 336 -64 104 c-35 57 -66 111 -70 119 -4 8 -272
454 -595 990 l-587 975 -1262 3 -1262 2 -14 -22z m2262 -483 c14 -15 1021
-1692 1021 -1701 0 -9 -20 -42 -523 -898 -219 -373 -407 -694 -417 -712 -11
-18 -30 -51 -44 -72 l-25 -40 -990 -1 -990 -1 -69 118 c-78 134 -460 789 -490
842 -74 131 -95 166 -102 175 -4 6 -19 30 -32 55 -27 49 -258 445 -289 496
l-18 30 45 80 c26 43 70 120 99 169 28 50 82 142 119 205 36 63 71 122 76 130
5 8 26 44 46 80 63 109 68 119 186 320 100 170 314 537 343 588 6 9 27 46 47
82 l37 65 980 0 c619 -1 984 -4 990 -10z"/>
<path d="M1609 3511 c0 -3 -2 -99 -2 -214 l-2 -207 50 -1 c28 0 191 0 363 0
l312 0 0 -170 0 -169 -360 0 c-281 0 -360 -3 -361 -12 -3 -41 -4 -375 -1 -385
3 -10 125 -13 567 -13 l562 0 0 373 0 372 169 0 169 0 0 -517 1 -518 -41 -1
c-22 0 -344 -1 -715 0 -371 0 -684 -2 -695 -4 -19 -4 -20 -12 -19 -202 l0
-198 940 -3 939 -2 0 935 c0 823 -2 936 -15 939 -24 7 -1860 4 -1861 -3z"/>
</g>
</svg>
