<?xml version="1.0" encoding="UTF-8"?>
<svg width="25px" height="25px" viewBox="0 0 25 25" version="1.1" xmlns="http://www.w3.org/2000/svg" xmlns:xlink="http://www.w3.org/1999/xlink">
    <!-- Generator: Sketch 51.2 (57519) - http://www.bohemiancoding.com/sketch -->
    <title>Icons/transfer</title>
    <desc>Created with Sketch.</desc>
    <defs></defs>
    <g id="Desctop" stroke="none" stroke-width="1" fill="none" fill-rule="evenodd">
        <g id="Holders" transform="translate(-645.000000, -3983.000000)" fill="#7B6798">
            <g id="2-step" transform="translate(-180.000000, 3186.000000)">
                <g id="Table" transform="translate(345.000000, 722.000000)">
                    <g id="Info" transform="translate(285.000000, 35.000000)">
                        <g id="Deposit" transform="translate(0.000000, 40.000000)">
                            <g id="Icons/small/transfer" transform="translate(195.000000, 0.000000)">
                                <path d="M13.392625,23 L13.392625,21.909 C13.5595926,21.875 13.7265603,21.841 13.8890635,21.786 C14.3122863,21.644 14.6864009,21.438 15.0114074,21.172 C15.1748035,21.039 15.3203421,20.891 15.4489161,20.726 C15.578383,20.561 15.6899924,20.379 15.78553,20.182 C15.9766053,19.787 16.07125,19.338 16.07125,18.837 C16.07125,18.545 16.0471424,18.279 15.9971414,18.038 C15.9471404,17.796 15.8721389,17.579 15.7721369,17.387 C15.57124,17.003 15.3131991,16.683 14.9980143,16.427 C14.8399754,16.299 14.6721149,16.182 14.4944328,16.077 C14.3167506,15.973 14.128354,15.88 13.9310286,15.799 C13.535485,15.635 13.14262,15.485 12.7524336,15.348 C12.5193933,15.268 12.2988531,15.189 12.0908133,15.11 C11.8809876,15.032 11.692591,14.947 11.5247305,14.858 C11.3577629,14.771 11.2184744,14.672 11.106865,14.562 C10.9952556,14.454 10.9247185,14.327 10.8979323,14.179 C10.8604315,13.991 10.8720389,13.807 10.9327544,13.624 C10.992577,13.442 11.0970434,13.28 11.2461535,13.137 C11.321155,13.065 11.4041924,13.001 11.4970514,12.944 C11.5899104,12.888 11.692591,12.839 11.8042004,12.797 C11.9899184,12.728 12.1988511,12.698 12.4220699,12.692 C12.4676065,12.691 12.5095716,12.684 12.5560011,12.686 C12.7988631,12.695 13.0122603,12.733 13.1970854,12.8 C13.3819105,12.867 13.5381636,12.962 13.6658448,13.085 C13.921207,13.332 14.0962105,13.676 14.1890695,14.12 L15.8908893,14.12 C15.8810676,13.873 15.8132091,13.57 15.6882066,13.21 C15.5623113,12.851 15.3676645,12.508 15.1024806,12.183 C14.9703351,12.021 14.8185464,11.869 14.6489001,11.73 C14.4792539,11.591 14.2908573,11.463 14.0846031,11.348 C13.8774561,11.231 13.6479873,11.145 13.3953036,11.087 C13.3947084,11.087 13.3938155,10.3913333 13.392625,9 L11.6077679,9 L11.6077679,11.148 C11.4774081,11.186 11.3452626,11.214 11.2184744,11.266 C10.7907873,11.442 10.4184584,11.685 10.1023806,11.989 C9.78630288,12.295 9.54433375,12.648 9.37736613,13.052 C9.2103985,13.456 9.149683,13.879 9.1961125,14.321 C9.28004275,14.834 9.48004675,15.267 9.7961245,15.62 C10.1122023,15.976 10.5095316,16.256 10.9881126,16.462 C11.4666936,16.668 11.8738446,16.831 12.2077799,16.949 C12.4872498,17.057 12.7595766,17.165 13.0238676,17.273 C13.2890515,17.382 13.5238776,17.506 13.728346,17.643 C13.9328144,17.78 14.0988891,17.946 14.2238916,18.138 C14.2863929,18.233 14.3337153,18.339 14.3649659,18.453 C14.3962165,18.567 14.4122883,18.691 14.4122883,18.823 C14.4122883,18.883 14.4006809,18.935 14.3962165,18.99 C14.3694303,19.269 14.2846071,19.509 14.1256754,19.7 C14.0622813,19.776 13.9881726,19.846 13.9024566,19.908 C13.5631641,20.16 13.1149409,20.285 12.556894,20.285 C12.2506379,20.285 11.9765253,20.224 11.7345561,20.1 C11.6131251,20.039 11.5015158,19.967 11.399728,19.885 C11.2970474,19.802 11.2041884,19.709 11.121151,19.605 C10.9532905,19.398 10.8256094,19.154 10.7372148,18.873 C10.6934639,18.732 10.6595346,18.589 10.6381056,18.442 C10.6157838,18.296 10.6041764,18.146 10.6041764,17.993 L8.93092863,17.993 C8.92646425,18.153 8.949679,18.295 8.95860775,18.446 C8.98628688,18.899 9.056824,19.324 9.2103985,19.694 C9.413974,20.187 9.6889795,20.606 10.0327364,20.949 C10.3773861,21.293 10.7693583,21.554 11.2113314,21.731 C11.3416911,21.785 11.4756224,21.813 11.6077679,21.851 L11.6077679,23 L1.78525,23 L1.78525,20.585 C2.96563075,20.598 3.92279275,21.675 3.92279275,23 L5.70854275,23 C5.70854275,20.572 3.95047188,18.598 1.78525,18.585 L1.78525,13.415 C3.95047188,13.402 5.70854275,11.428 5.70854275,9 L3.92279275,9 C3.92279275,10.325 2.96563075,11.402 1.78525,11.415 L1.78525,8.999 L23.21425,8.999 L23.2151429,11.414 C22.0392265,11.396 21.085636,10.322 21.085636,9 L19.299886,9 C19.299886,11.425 21.0543854,13.396 23.2151429,13.414 L23.21425,18.586 C21.0543854,18.604 19.299886,20.575 19.299886,23 L21.085636,23 C21.085636,21.678 22.0392265,20.604 23.21425,20.586 L23.21425,23.001 L13.392625,23 Z M1.78525,7 C0.799516,7 -0.0005,7.896 -0.0005,9 L-0.0005,23 C-0.0005,24.104 0.799516,25 1.78525,25 L23.21425,25 C24.2008769,25 25,24.104 25,23 L25,9 C25,7.896 24.2008769,7 23.21425,7 L1.78525,7 Z" id="Fill-1"></path>
                                <path d="M23.0101914,5 C23.5565658,5 24,4.553 24,4 C24,3.447 23.5565658,3 23.0101914,3 L1.98980857,3 C1.44343424,3 1,3.447 1,4 C1,4.553 1.44343424,5 1.98980857,5 L23.0101914,5 Z" id="Fill-4"></path>
                                <path d="M20.8684082,2 C21.4204082,2 21.8684082,1.553 21.8684082,1 C21.8684082,0.447 21.4204082,0 20.8684082,0 L4,0 C3.448,0 3,0.447 3,1 C3,1.553 3.448,2 4,2 L20.8684082,2 Z" id="Fill-6"></path>
                            </g>
                        </g>
                    </g>
                </g>
            </g>
        </g>
    </g>
</svg>