<svg width="140" height="160" viewBox="0 0 140 160" fill="none" xmlns="http://www.w3.org/2000/svg">
<path fill-rule="evenodd" clip-rule="evenodd" d="M70 0L0 40.008V119.419L70 160L139.999 118.789V40.008L70 0Z" fill="#F7F7F7"/>
<path fill-rule="evenodd" clip-rule="evenodd" d="M127.326 47.2484L69.9998 14.4844L12.6738 47.2484V112.281L69.9998 145.516L127.326 111.767V47.2484Z" fill="#E8E8E8"/>
<path d="M47 115L46 122H104.5L99.2143 109H93.5C94.6893 111.854 92.5922 115 89.5 115H47Z" fill="#32205C"/>
<path d="M47 61L46 54H104.5L99.2143 67H93.5C94.6893 64.1457 92.5922 61 89.5 61H47Z" fill="#4A3777"/>
<path d="M37 54H54.7733L80 88H62.2267L37 54Z" fill="#6C578B"/>
<path d="M80 88H62.2267L37 122H54.7733L80 88Z" fill="#4A3777"/>
<path fill-rule="evenodd" clip-rule="evenodd" d="M53 17C59.0751 17 64 21.8985 64 27.9412L64 29L97.5 29C99.433 29 101 30.567 101 32.5C101 34.433 99.433 36 97.5 36L64 36L64 37.0588C64 43.1015 59.0751 48 53 48C46.9249 48 42 43.1015 42 37.0588L42 27.9412C42 21.8985 46.9249 17 53 17ZM49 37C49 39.2091 50.7909 41 53 41C55.2091 41 57 39.2091 57 37L57 28C57 25.7909 55.2091 24 53 24C50.7909 24 49 25.7909 49 28L49 37Z" fill="#FFC033"/>
<path fill-rule="evenodd" clip-rule="evenodd" d="M64 34.0851L64 37.0588C64 43.1015 59.0751 48 53 48C46.9249 48 42 43.1015 42 37.0588L42 27.9412C42 27.9325 42 27.9238 42 27.9151L42 34.0588C42 40.1015 46.9249 45 53 45C59.0663 45 63.9857 40.1157 64 34.0851ZM57 34.0159L57 28C57 25.7909 55.2091 24 53 24C50.7962 24 49.0087 25.7822 49 27.984L49 25C49 22.7909 50.7909 21 53 21C55.2092 21 57 22.7909 57 25L57 34C57 34.0053 57 34.0106 57 34.0159Z" fill="#D86600"/>
<path fill-rule="evenodd" clip-rule="evenodd" d="M99.9627 30.013C100.603 30.6473 101 31.5273 101 32.5C101 34.433 99.433 36 97.5 36L64 36L64 33L96.5 33C98.2587 33 99.7145 31.7028 99.9627 30.013Z" fill="#D86600"/>
<path d="M83 36L97 36L97 44C97 45.6569 95.6569 47 94 47C92.3431 47 91 45.6569 91 44L91 40L89 40L89 44C89 45.6569 87.6569 47 86 47C84.3431 47 83 45.6569 83 44L83 36Z" fill="#D86600"/>
</svg>
