<svg width="140" height="160" viewBox="0 0 140 160" fill="none" xmlns="http://www.w3.org/2000/svg">
<path fill-rule="evenodd" clip-rule="evenodd" d="M70 0L0 40.008V119.419L70 160L139.999 118.789V40.008L70 0Z" fill="#F7F7F7"/>
<path fill-rule="evenodd" clip-rule="evenodd" d="M127.326 47.2484L69.9998 14.4844L12.6738 47.2484V112.281L69.9998 145.516L127.326 111.767V47.2484Z" fill="#E8E8E8"/>
<path d="M28 46C28 49.3137 30.7035 51.9314 33.9815 52.4164C40.7561 53.4188 45.4761 56.1489 49.1943 59.7089C54.2101 64.5112 57.7072 71.0808 61.5084 78.6833C61.7504 79.1672 61.994 79.6564 62.2398 80.1501L62.2407 80.1518C65.6629 87.0237 69.5098 94.7484 75.0824 100.719C80.3097 106.32 86.999 110.366 96 111.603V119.926C96 121.67 98.0774 122.578 99.3581 121.394L112.826 108.937C114.537 107.353 114.537 104.647 112.826 103.064L99.3581 90.6063C98.0774 89.4218 96 90.3301 96 92.0746V99.4396C90.7193 98.3738 86.9626 95.8607 83.8551 92.5312C79.5179 87.8842 76.4015 81.6449 72.7265 74.2874L72.2416 73.3168C68.5428 65.9193 64.2274 57.4888 57.4932 51.0412C51.5877 45.387 44.043 41.4358 33.9893 40.3207C30.6958 39.9554 28 42.6863 28 46Z" fill="#6C578B"/>
<mask id="mask0" mask-type="alpha" maskUnits="userSpaceOnUse" x="28" y="40" width="88" height="79">
<path d="M28 52C38.1242 52 44.4685 55.1841 49.1943 59.7089C54.2101 64.5112 57.7072 71.0808 61.5084 78.6833C61.7504 79.1672 61.994 79.6564 62.2398 80.1501L62.2407 80.1518C65.6629 87.0237 69.5098 94.7484 75.0824 100.719C80.3097 106.32 86.999 110.366 96 111.603V114.015C96 117.397 99.9367 119.252 102.546 117.1L116 106L102.546 94.9002C99.9367 92.7479 96 94.6036 96 97.9857V99.4396C90.7193 98.3738 86.9626 95.8607 83.8551 92.5312C79.5179 87.8842 76.4015 81.6449 72.7265 74.2874L72.2416 73.3168C68.5428 65.9193 64.2274 57.4888 57.4932 51.0412C50.8315 44.663 42.0839 40.4519 30.002 40.0342C28.8981 39.9961 28 40.8954 28 42V52Z" fill="#4A3777"/>
</mask>
<g mask="url(#mask0)">
<path fill-rule="evenodd" clip-rule="evenodd" d="M53.1943 101.291C48.4685 105.816 42.1242 109 32 109V121C45.1258 121 54.469 116.684 61.4932 109.959C68.2274 103.511 72.5428 95.0809 76.2416 87.6833C76.4044 87.3577 76.566 87.0341 76.7265 86.7127C80.4015 79.3553 83.5179 73.1159 87.8551 68.4689C92.0273 63.9987 97.3698 61 106 61V49C93.8802 49 85.4102 53.5014 79.0824 60.2811C73.5098 66.2517 69.6629 73.9764 66.2407 80.8483C65.9946 81.3425 65.7507 81.8323 65.5084 82.3168C61.7072 89.9193 58.2101 96.4889 53.1943 101.291Z" fill="#443462"/>
</g>
<path d="M96 64.4256C96 66.1701 98.0774 67.0784 99.3581 65.8938L112.826 53.4364C114.537 51.853 114.537 49.147 112.826 47.5636L99.3581 35.1062C98.0774 33.9216 96 34.8299 96 36.5744V64.4256Z" fill="#39B54A"/>
<path fill-rule="evenodd" clip-rule="evenodd" d="M49.1943 97.2913C45.4761 100.851 40.7561 103.581 33.9815 104.584C30.7035 105.069 28 107.686 28 111C28 114.314 30.6958 117.045 33.9893 116.679C44.043 115.564 51.5877 111.613 57.4932 105.959C64.2274 99.5113 68.5428 91.0809 72.2416 83.6833C72.4044 83.3577 72.566 83.0341 72.7265 82.7127C76.4015 75.3553 79.5179 69.1159 83.8551 64.4689C88.0273 59.9987 93.3698 57 102 57V45C89.8802 45 81.4102 49.5014 75.0824 56.2811C69.5098 62.2517 65.6629 69.9764 62.2407 76.8483C61.9946 77.3425 61.7507 77.8323 61.5084 78.3168C57.7072 85.9193 54.2101 92.4889 49.1943 97.2913Z" fill="#39B54A"/>
<path d="M31 78.625L46 69V87.375L31 97V78.625Z" fill="#4A3777"/>
<path d="M31 78.625L16 69V87.375L31 97V78.625Z" fill="#D86600"/>
<path d="M46 69L31.5 59.5L16 69L31 79L46 69Z" fill="#FFC033"/>
<path fill-rule="evenodd" clip-rule="evenodd" d="M92 58.7529C93.2317 58.2594 94.5591 57.8608 96 57.57V45.4062C94.6128 45.597 93.2805 45.8545 92 46.1741V58.7529Z" fill="#208D2F"/>
<path fill-rule="evenodd" clip-rule="evenodd" d="M92 110.868C93.2805 111.187 94.6128 111.445 96 111.635V99.4717C94.5591 99.1808 93.2317 98.7823 92 98.2888V110.868Z" fill="#443462"/>
<path fill-rule="evenodd" clip-rule="evenodd" d="M117 95C126.389 95 134 87.3884 134 77.9996C134 68.6116 126.389 61 117 61C107.611 61 100 68.6116 100 77.9996C100 87.3884 107.611 95 117 95Z" fill="#FFC033"/>
<path d="M120.172 73.6967H123.758C123.706 70.0901 121.114 67.6 117.173 67.6C113.293 67.6 110.449 70.0505 110.467 73.7264C110.458 76.7105 112.299 78.42 115.289 79.2401L117.216 79.7934C119.143 80.327 120.215 80.9594 120.223 82.323C120.215 83.8052 118.988 84.8131 117.086 84.8131C115.142 84.8131 113.742 83.7855 113.621 81.7598H110C110.095 86.1372 112.835 88.4 117.13 88.4C121.451 88.4 123.991 86.0384 124 82.3329C123.991 78.9634 121.77 77.1749 118.694 76.3844L117.104 75.9496C115.565 75.5445 114.278 74.8924 114.304 73.4398C114.304 72.1355 115.315 71.177 117.147 71.177C118.936 71.177 120.033 72.1058 120.172 73.6967Z" fill="#D86600"/>
<path d="M116.16 65H118.4V91H116.16V65Z" fill="#D86600"/>
</svg>
