<?xml version="1.0" encoding="UTF-8"?>
<svg width="140px" height="160px" viewBox="0 0 140 160" version="1.1" xmlns="http://www.w3.org/2000/svg" xmlns:xlink="http://www.w3.org/1999/xlink">
    <!-- Generator: Sketch 49.3 (51167) - http://www.bohemiancoding.com/sketch -->
    <title>dns</title>
    <desc>Created with Sketch.</desc>
    <defs>
        <polygon id="path-1" points="0 160 140 160 140 0 0 0"></polygon>
    </defs>
    <g id="Symbols" stroke="none" stroke-width="1" fill="none" fill-rule="evenodd">
        <g id="Icons/products/dns">
            <g id="dns">
                <polygon id="Fill-1" fill="#F7F7F7" points="70.0002 -0.0002 0.0002 40.0078 0.0002 119.4188 70.0002 159.9998 140.0002 118.7888 140.0002 40.0078"></polygon>
                <polygon id="Fill-2" fill="#E8E8E8" points="127.3257 47.2481 69.9997 14.4841 12.6747 47.2481 12.6747 112.2811 69.9997 145.5161 127.3257 111.7671"></polygon>
                <g id="Group-27">
                    <path d="M111.0337,112.8164 L30.8667,112.8164 C28.6417,112.8164 26.8387,111.0254 26.8387,108.8164 L26.8387,51.8164 L115.0627,51.8164 L115.0627,108.8164 C115.0627,111.0254 113.2587,112.8164 111.0337,112.8164" id="Fill-3" fill="#FFC033"></path>
                    <path d="M115.0625,58.582 L26.8385,58.582 L26.8385,49.831 C26.8385,47.613 28.6355,45.816 30.8535,45.816 L111.0475,45.816 C113.2655,45.816 115.0625,47.613 115.0625,49.831 L115.0625,58.582 Z" id="Fill-5" fill="#4A3777"></path>
                    <path d="M36.8076,52.1992 C36.8076,53.7372 35.5526,54.9842 34.0036,54.9842 C32.4546,54.9842 31.1986,53.7372 31.1986,52.1992 C31.1986,50.6612 32.4546,49.4152 34.0036,49.4152 C35.5526,49.4152 36.8076,50.6612 36.8076,52.1992" id="Fill-7" fill="#86D8F2"></path>
                    <path d="M44.9366,52.1992 C44.9366,53.7372 43.6806,54.9842 42.1316,54.9842 C40.5826,54.9842 39.3276,53.7372 39.3276,52.1992 C39.3276,50.6612 40.5826,49.4152 42.1316,49.4152 C43.6806,49.4152 44.9366,50.6612 44.9366,52.1992" id="Fill-9" fill="#86D8F2"></path>
                    <path d="M53.065,52.1992 C53.065,53.7372 51.809,54.9842 50.26,54.9842 C48.711,54.9842 47.456,53.7372 47.456,52.1992 C47.456,50.6612 48.711,49.4152 50.26,49.4152 C51.809,49.4152 53.065,50.6612 53.065,52.1992" id="Fill-11" fill="#86D8F2"></path>
                    <path d="M113.0972,123.4854 C121.7112,123.4854 128.6942,116.5524 128.6942,108.0004 C128.6942,99.4474 121.7112,92.5144 113.0972,92.5144 C104.4832,92.5144 97.5002,99.4474 97.5002,108.0004 C97.5002,116.5524 104.4832,123.4854 113.0972,123.4854" id="Fill-13" fill="#39B54A"></path>
                    <path d="M111.9649,110.0352 L118.3059,102.6512 C119.1399,101.6812 120.6079,101.5652 121.5859,102.3922 C122.5629,103.2212 122.6799,104.6792 121.8459,105.6492 L113.9119,114.8882 C113.0459,115.8962 111.5049,115.9762 110.5379,115.0632 L106.0659,110.8402 C105.1339,109.9602 105.0979,108.4982 105.9829,107.5742 C106.8689,106.6492 108.3409,106.6132 109.2719,107.4922 L111.9649,110.0352 Z" id="Fill-15" fill="#FFFFFF"></path>
                    <path d="M26.8384,109.7334 L26.8384,58.5824 L115.0624,58.5824 C115.0624,58.5824 46.4704,66.2334 26.8384,109.7334" id="Fill-17" fill="#FFD833"></path>
                    <path d="M50.1407,82.043 L50.9207,86.018 C51.1217,87.03 51.3217,88.104 51.4817,89.217 L51.5217,89.217 C51.7217,88.104 52.0017,86.992 52.2417,86.037 L53.2827,82.043 L55.6837,82.043 L56.6647,85.918 C56.9247,87.012 57.1847,88.104 57.3847,89.217 L57.4247,89.217 C57.5647,88.104 57.7657,87.012 57.9857,85.898 L58.8257,82.043 L61.8077,82.043 L58.8057,91.76 L55.9447,91.76 L55.0237,88.343 C54.7837,87.389 54.6037,86.515 54.4037,85.322 L54.3637,85.322 C54.1827,86.534 53.9827,87.429 53.7227,88.343 L52.7427,91.76 L49.8807,91.76 L47.0387,82.043 L50.1407,82.043 Z" id="Fill-19" fill="#4A3777"></path>
                    <path d="M65.7178,82.043 L66.4988,86.018 C66.6988,87.03 66.8988,88.104 67.0588,89.217 L67.0988,89.217 C67.2998,88.104 67.5798,86.992 67.8188,86.037 L68.8608,82.043 L71.2608,82.043 L72.2418,85.918 C72.5018,87.012 72.7618,88.104 72.9628,89.217 L73.0018,89.217 C73.1418,88.104 73.3428,87.012 73.5628,85.898 L74.4028,82.043 L77.3848,82.043 L74.3838,91.76 L71.5218,91.76 L70.6008,88.343 C70.3608,87.389 70.1808,86.515 69.9808,85.322 L69.9408,85.322 C69.7598,86.534 69.5598,87.429 69.3008,88.343 L68.3198,91.76 L65.4578,91.76 L62.6158,82.043 L65.7178,82.043 Z" id="Fill-21" fill="#4A3777"></path>
                    <path d="M81.2945,82.043 L82.0745,86.018 C82.2755,87.03 82.4755,88.104 82.6355,89.217 L82.6755,89.217 C82.8755,88.104 83.1555,86.992 83.3955,86.037 L84.4365,82.043 L86.8375,82.043 L87.8185,85.918 C88.0785,87.012 88.3385,88.104 88.5385,89.217 L88.5785,89.217 C88.7185,88.104 88.9195,87.012 89.1395,85.898 L89.9805,82.043 L92.9615,82.043 L89.9595,91.76 L87.0975,91.76 L86.1775,88.343 C85.9375,87.389 85.7575,86.515 85.5575,85.322 L85.5175,85.322 C85.3365,86.534 85.1365,87.429 84.8765,88.343 L83.8955,91.76 L81.0345,91.76 L78.1925,82.043 L81.2945,82.043 Z" id="Fill-23" fill="#4A3777"></path>
                    <mask id="mask-2" fill="white">
                        <use xlink:href="#path-1"></use>
                    </mask>
                    <g id="Clip-26"></g>
                    <polygon id="Fill-25" fill="#FFC033" mask="url(#mask-2)" points="59.493 54.984 110.86 54.984 110.86 49.415 59.493 49.415"></polygon>
                </g>
            </g>
        </g>
    </g>
</svg>