<?xml version="1.0" encoding="UTF-8"?>
<svg width="140px" height="160px" viewBox="0 0 140 160" version="1.1" xmlns="http://www.w3.org/2000/svg" xmlns:xlink="http://www.w3.org/1999/xlink">
    <!-- Generator: Sketch 49.3 (51167) - http://www.bohemiancoding.com/sketch -->
    <title>emagnet</title>
    <desc>Created with Sketch.</desc>
    <defs></defs>
    <g id="Symbols" stroke="none" stroke-width="1" fill="none" fill-rule="evenodd">
        <g id="Icons/products/emagnet">
            <g id="emagnet">
                <polygon id="Fill-1" fill="#F7F7F7" points="69.9993 -0.0002 0.0003 40.0078 0.0003 119.4188 69.9993 159.9998 139.9993 118.7888 139.9993 40.0078"></polygon>
                <polygon id="Fill-2" fill="#E8E8E8" points="127.3258 47.2481 69.9998 14.4841 12.6748 47.2481 12.6748 112.2811 69.9998 145.5161 127.3258 111.7671"></polygon>
                <g id="Group-15" transform="translate(38.000000, 14.000000)">
                    <path d="M18.0191,57.002 L18.0191,82.636 C18.0191,90.356 24.2791,96.616 31.9991,96.616 C39.7211,96.616 45.9801,90.356 45.9801,82.636 L45.9801,57.002 L63.0681,57.002 L63.0681,83.349 C63.0681,98.791 50.5491,111.31 35.1071,111.31 L28.8931,111.31 C13.4511,111.31 0.9321,98.791 0.9321,83.349 L0.9321,57.002 L18.0191,57.002 Z" id="Fill-3" fill="#6C578B"></path>
                    <path d="M4.0387,41.4073 L14.9127,41.4073 C16.6287,41.4073 18.0187,42.7983 18.0187,46.5133 L18.0187,56.8343 L0.9327,56.8343 L0.9327,44.5133 C0.9327,42.7983 2.3227,41.4073 4.0387,41.4073" id="Fill-5" fill="#FFC033"></path>
                    <path d="M49.0875,41.4073 L59.9605,41.4073 C61.6765,41.4073 63.0675,42.7983 63.0675,44.5133 L63.0675,57.0023 L45.9805,57.0023 L45.9805,44.5133 C45.9805,42.7983 47.3715,41.4073 49.0875,41.4073" id="Fill-7" fill="#FFC033"></path>
                    <path d="M45.9781,80.1543 L45.9781,82.8103 C45.9781,90.5313 39.7191,96.7913 31.9991,96.7913 C26.0811,96.7913 21.0341,93.1073 18.9931,87.9143 C12.5441,87.7203 6.4451,86.1953 0.9341,83.5983 C0.9751,99.0063 13.4741,111.4843 28.8911,111.4843 L35.1051,111.4843 C50.5471,111.4843 63.0661,98.9653 63.0661,83.5233 L63.0661,58.5683 C59.6871,67.3973 53.6951,74.9333 45.9781,80.1543" id="Fill-9" fill="#443462"></path>
                    <path d="M31.4586,38.753 C42.0086,38.753 50.5616,30.2 50.5616,19.65 C50.5616,9.101 42.0086,0.548 31.4586,0.548 C20.9086,0.548 12.3556,9.101 12.3556,19.65 C12.3556,30.2 20.9086,38.753 31.4586,38.753" id="Fill-11" fill="#39B54A"></path>
                    <polygon id="Fill-13" fill="#FFFFFF" points="28.8414 7.5528 36.7884 7.5528 33.7124 15.3148 40.3254 15.3148 26.3654 31.7478 30.8674 19.1608 23.6924 19.1608"></polygon>
                </g>
            </g>
        </g>
    </g>
</svg>