<?xml version="1.0" encoding="UTF-8"?>
<svg width="140px" height="160px" viewBox="0 0 140 160" version="1.1" xmlns="http://www.w3.org/2000/svg" xmlns:xlink="http://www.w3.org/1999/xlink">
    <!-- Generator: Sketch 49.3 (51167) - http://www.bohemiancoding.com/sketch -->
    <title>ssh</title>
    <desc>Created with Sketch.</desc>
    <defs></defs>
    <g id="Symbols" stroke="none" stroke-width="1" fill="none" fill-rule="evenodd">
        <g id="Icons/products/ssh">
            <g id="ssh">
                <polygon id="Fill-1" fill="#F7F7F7" points="0.0009 40.0075 0.0009 119.4185 69.9989 160.0005 70.0019 160.0005 139.9999 118.7895 139.9999 40.0075 69.9999 0.0005"></polygon>
                <polygon id="Fill-2" fill="#E8E8E8" points="127.3257 47.2485 70.0007 14.4845 12.6747 47.2485 12.6747 112.2815 70.0007 145.5155 127.3257 111.7665"></polygon>
                <g id="Group-33" transform="translate(30.000000, 43.000000)">
                    <path d="M70.8237,20.9711 L4.3297,20.9711 C2.0217,20.9711 0.1517,19.1011 0.1517,16.7931 L0.1517,4.5821 C0.1517,2.2761 2.0217,0.4051 4.3297,0.4051 L70.8237,0.4051 C73.1307,0.4051 75.0017,2.2761 75.0017,4.5821 L75.0017,16.7931 C75.0017,19.1011 73.1307,20.9711 70.8237,20.9711" id="Fill-3" fill="#6C578B"></path>
                    <path d="M12.356,11.5083 C12.356,13.1483 11.027,14.4773 9.387,14.4773 C7.748,14.4773 6.419,13.1483 6.419,11.5083 C6.419,9.8683 7.748,8.5393 9.387,8.5393 C11.027,8.5393 12.356,9.8683 12.356,11.5083" id="Fill-5" fill="#86D8F2"></path>
                    <path d="M21.1021,11.4545 C21.1021,13.0945 19.7731,14.4235 18.1331,14.4235 C16.4941,14.4235 15.1651,13.0945 15.1651,11.4545 C15.1651,9.8145 16.4941,8.4855 18.1331,8.4855 C19.7731,8.4855 21.1021,9.8145 21.1021,11.4545" id="Fill-7" fill="#86D8F2"></path>
                    <path d="M66.1714,13.3754 L30.7404,13.3754 C29.7094,13.3754 28.8734,12.5394 28.8734,11.5084 C28.8734,10.4774 29.7094,9.6414 30.7404,9.6414 L66.1714,9.6414 C67.2024,9.6414 68.0384,10.4774 68.0384,11.5084 C68.0384,12.5394 67.2024,13.3754 66.1714,13.3754" id="Fill-9" fill="#FFC033"></path>
                    <path d="M70.8237,45.8647 L4.3297,45.8647 C2.0217,45.8647 0.1517,43.9947 0.1517,41.6867 L0.1517,29.4757 C0.1517,27.1687 2.0217,25.2987 4.3297,25.2987 L70.8237,25.2987 C73.1307,25.2987 75.0017,27.1687 75.0017,29.4757 L75.0017,41.6867 C75.0017,43.9947 73.1307,45.8647 70.8237,45.8647" id="Fill-11" fill="#6C578B"></path>
                    <path d="M12.356,36.4018 C12.356,38.0418 11.027,39.3708 9.387,39.3708 C7.748,39.3708 6.419,38.0418 6.419,36.4018 C6.419,34.7618 7.748,33.4328 9.387,33.4328 C11.027,33.4328 12.356,34.7618 12.356,36.4018" id="Fill-13" fill="#86D8F2"></path>
                    <path d="M21.1021,36.3481 C21.1021,37.9881 19.7731,39.3171 18.1331,39.3171 C16.4941,39.3171 15.1651,37.9881 15.1651,36.3481 C15.1651,34.7081 16.4941,33.3791 18.1331,33.3791 C19.7731,33.3791 21.1021,34.7081 21.1021,36.3481" id="Fill-15" fill="#86D8F2"></path>
                    <path d="M66.1714,38.269 L30.7404,38.269 C29.7094,38.269 28.8734,37.433 28.8734,36.402 C28.8734,35.371 29.7094,34.535 30.7404,34.535 L66.1714,34.535 C67.2024,34.535 68.0384,35.371 68.0384,36.402 C68.0384,37.433 67.2024,38.269 66.1714,38.269" id="Fill-17" fill="#FFC033"></path>
                    <path d="M70.8237,71.3608 L4.3297,71.3608 C2.0217,71.3608 0.1517,69.4908 0.1517,67.1828 L0.1517,54.9718 C0.1517,52.6658 2.0217,50.7948 4.3297,50.7948 L70.8237,50.7948 C73.1307,50.7948 75.0017,52.6658 75.0017,54.9718 L75.0017,67.1828 C75.0017,69.4908 73.1307,71.3608 70.8237,71.3608" id="Fill-19" fill="#6C578B"></path>
                    <path d="M12.356,61.8979 C12.356,63.5379 11.027,64.8669 9.387,64.8669 C7.748,64.8669 6.419,63.5379 6.419,61.8979 C6.419,60.2579 7.748,58.9289 9.387,58.9289 C11.027,58.9289 12.356,60.2579 12.356,61.8979" id="Fill-21" fill="#86D8F2"></path>
                    <path d="M21.1021,61.8442 C21.1021,63.4842 19.7731,64.8132 18.1331,64.8132 C16.4941,64.8132 15.1651,63.4842 15.1651,61.8442 C15.1651,60.2042 16.4941,58.8752 18.1331,58.8752 C19.7731,58.8752 21.1021,60.2042 21.1021,61.8442" id="Fill-23" fill="#86D8F2"></path>
                    <path d="M66.1714,63.7651 L30.7404,63.7651 C29.7094,63.7651 28.8734,62.9291 28.8734,61.8981 C28.8734,60.8671 29.7094,60.0311 30.7404,60.0311 L66.1714,60.0311 C67.2024,60.0311 68.0384,60.8671 68.0384,61.8981 C68.0384,62.9291 67.2024,63.7651 66.1714,63.7651" id="Fill-25" fill="#FFC033"></path>
                    <path d="M76.062,51.8754 L77.001,51.8774 C79.443,51.8894 81.97,54.1894 82.755,53.4064 C83.141,53.0244 83.221,52.2064 83.221,51.5894 L83.221,42.9274 C83.221,38.9794 80.009,35.7684 76.062,35.7684 C72.115,35.7684 68.903,38.9794 68.903,42.9274 L68.903,51.5894 C68.903,52.2064 68.984,50.7334 69.369,51.1154 C70.154,51.8984 72.683,51.8904 75.123,51.8774 L76.062,51.8754 Z M77.592,55.2974 C77.331,55.2974 77.069,55.2964 76.805,55.2954 L75.965,55.2934 L75.126,55.2954 C71.916,55.3104 68.864,55.3224 66.918,53.3844 C65.822,52.2924 65.265,52.8264 65.265,50.8564 L65.265,42.9614 C65.265,37.0604 70.065,32.2604 75.965,32.2604 C81.867,32.2604 86.666,37.0604 86.666,42.9614 L86.666,50.8564 C86.666,52.8264 86.11,52.2924 85.013,53.3844 C83.228,55.1624 80.517,55.2974 77.592,55.2974 Z" id="Fill-27" fill="#D86600"></path>
                    <path d="M62.5396,50.9555 L89.4506,50.9555 C91.5916,50.9555 93.3256,52.6895 93.3256,54.8305 L93.3256,75.2095 C93.3256,77.3505 91.5916,79.0845 89.4506,79.0845 L62.5396,79.0845 C60.3986,79.0845 58.6646,77.3505 58.6646,75.2095 L58.6646,54.8305 C58.6646,52.6895 60.3986,50.9555 62.5396,50.9555" id="Fill-29" fill="#FFC033"></path>
                    <path d="M73.9839,65.311 C72.9879,64.832 72.2999,63.812 72.2999,62.632 C72.2999,60.991 73.6309,59.66 75.2729,59.66 C76.9149,59.66 78.2459,60.991 78.2459,62.632 C78.2459,63.812 77.5589,64.832 76.5629,65.311 L78.2459,70.361 L72.2999,70.361 L73.9839,65.311 Z" id="Fill-31" fill="#D86600"></path>
                </g>
            </g>
        </g>
    </g>
</svg>