<svg xmlns="http://www.w3.org/2000/svg" width="175" height="140" viewBox="0 0 175 140">
    <defs>
        <linearGradient id="a" x1="1.507%" x2="98.618%" y1="98.493%" y2="1.382%">
            <stop offset="0%" stop-color="#B299D1"/>
            <stop offset="100%" stop-color="#D5B1E4"/>
        </linearGradient>
    </defs>
    <g fill="none" fill-rule="evenodd" transform="translate(1)">
        <circle cx="87" cy="68" r="68" fill="#F6F2FB"/>
        <path fill="url(#a)" fill-rule="nonzero" d="M64.086 17h45.664l23.415 39.946-23.42 39.165H64.091L40.84 56.946 64.086 17zM43.16 56.936l22.07 37.175h43.38l22.231-37.175L108.604 19H65.236L43.16 56.936z" transform="translate(0 12)"/>
        <path fill="#7B6696" fill-rule="nonzero" d="M68.964 37.5L50.74 68.818 68.956 99.5h35.82l18.348-30.682L104.767 37.5z"/>
        <path fill="url(#a)" d="M20.24.5h39.246L79.61 34.833 59.477 68.5h-39.23L.26 34.833z" transform="translate(47 34)"/>
        <path fill="#B09CC9" fill-rule="nonzero" d="M150 125c-13.255 0-24-10.745-24-24s10.745-24 24-24 24 10.745 24 24-10.745 24-24 24zm0-2c12.15 0 22-9.85 22-22s-9.85-22-22-22-22 9.85-22 22 9.85 22 22 22z"/>
        <path fill="url(#a)" d="M103 48c-10.476 0-19 8.524-19 19 0 10.478 8.524 19 19 19s19-8.522 19-19c0-10.476-8.524-19-19-19" transform="translate(47 34)"/>
        <path fill="#FFF" d="M151 106.081a6.98 6.98 0 0 1 3.474 1.548 7.947 7.947 0 0 1-3.474 1.302v-2.85zM149 102v2.056a8.954 8.954 0 0 0-4.983 2.237 7.968 7.968 0 0 1-1.948-4.293H149zm0-4.058V100h-6.931a7.965 7.965 0 0 1 1.943-4.286A9.003 9.003 0 0 0 149 97.942zm2 2.058v-2.055a8.951 8.951 0 0 0 4.983-2.237 7.961 7.961 0 0 1 1.948 4.292H151zm0 2h6.931a7.961 7.961 0 0 1-1.948 4.292 8.962 8.962 0 0 0-4.983-2.235V102zm3.475-7.628A6.95 6.95 0 0 1 151 95.92v-2.85a7.956 7.956 0 0 1 3.475 1.302zM149 93.07v2.849a6.996 6.996 0 0 1-3.474-1.548A7.95 7.95 0 0 1 149 93.07zm-3.475 14.559A6.964 6.964 0 0 1 149 106.08v2.851a7.96 7.96 0 0 1-3.475-1.302zM160 101c0-5.514-4.486-10-10-10s-10 4.486-10 10c0 5.515 4.486 10 10 10s10-4.485 10-10z"/>
        <path fill="#B09CC9" fill-rule="nonzero" d="M23 59C9.745 59-1 48.255-1 35S9.745 11 23 11s24 10.745 24 24-10.745 24-24 24zm0-2c12.15 0 22-9.85 22-22s-9.85-22-22-22S1 22.85 1 35s9.85 22 22 22z"/>
        <path fill="url(#a)" d="M23 4C12.524 4 4 12.524 4 23c0 10.478 8.524 19 19 19s19-8.522 19-19c0-10.476-8.524-19-19-19" transform="translate(0 12)"/>
        <path fill="#FFF" fill-rule="nonzero" d="M13 39h19a3 3 0 1 0-1.5-5.6l-1.508.874L29 32.53C29 28.91 26.09 26 22.5 26a6.503 6.503 0 0 0-6.275 4.8l-.321 1.187-1.097-.557A4 4 0 1 0 13 39zm19-8a5 5 0 0 1 0 10H13a6 6 0 1 1 1.651-11.77 8.502 8.502 0 0 1 16.238 1.894C31.25 31.042 31.622 31 32 31z"/>
        <path fill="#7B6696" d="M141.665 133.053v4.697h1.387c.71 0 1.204-.35 1.484-1.05.153-.384.23-.841.23-1.372 0-.732-.115-1.295-.345-1.687-.23-.392-.686-.588-1.37-.588h-1.386zm1.64-1.25c.447.006.818.058 1.114.156.505.166.913.47 1.226.913.25.358.421.746.512 1.162.091.417.137.814.137 1.192 0 .957-.192 1.767-.576 2.431-.521.895-1.325 1.343-2.412 1.343h-3.1v-7.197h3.1zm4.097 0h1.577l2.867 5.024v-5.024h1.401V139h-1.504l-2.94-5.112V139h-1.4v-7.197zm8.335 4.975c.046.33.135.575.269.738.244.296.662.444 1.255.444.355 0 .643-.04.864-.117.42-.15.63-.428.63-.835a.616.616 0 0 0-.313-.552c-.208-.127-.535-.24-.981-.337l-.762-.17c-.748-.17-1.266-.354-1.553-.553-.485-.332-.727-.85-.727-1.557 0-.645.234-1.18.703-1.607.469-.426 1.157-.64 2.065-.64.759 0 1.406.202 1.941.604.536.402.817.985.843 1.75h-1.446c-.026-.433-.214-.74-.566-.923-.234-.12-.526-.18-.874-.18-.387 0-.697.078-.928.234a.746.746 0 0 0-.346.654c0 .258.113.45.341.577.147.084.46.184.938.297l1.24.298c.544.13.954.305 1.23.523.43.338.645.828.645 1.47 0 .657-.251 1.203-.754 1.638-.503.434-1.214.652-2.132.652-.937 0-1.674-.214-2.212-.643-.537-.428-.805-1.016-.805-1.765h1.435zM15.027 75.803h1.563L14.134 83h-1.421l-2.432-7.197h1.607l1.562 5.464 1.577-5.464zm5.64 6.123c.596 0 1.069-.22 1.418-.66.35-.439.525-1.064.525-1.874 0-.808-.175-1.432-.525-1.873-.35-.441-.822-.662-1.418-.662s-1.071.22-1.426.66c-.355.44-.532 1.064-.532 1.875 0 .81.177 1.435.532 1.875.355.44.83.659 1.426.659zm3.447-2.534c0 1.292-.363 2.281-1.089 2.968-.543.56-1.33.84-2.358.84-1.029 0-1.815-.28-2.358-.84-.73-.687-1.094-1.676-1.094-2.968 0-1.319.364-2.308 1.094-2.97.543-.559 1.33-.839 2.358-.839 1.029 0 1.815.28 2.358.84.726.66 1.09 1.65 1.09 2.969zM26.64 83h-1.494v-7.197h1.494V83zm5.454-4.907c0-.375-.099-.642-.296-.801-.197-.16-.472-.24-.827-.24h-1.402v2.12h1.402c.355 0 .63-.086.827-.259.197-.172.296-.446.296-.82zm1.489-.01c0 .85-.215 1.45-.645 1.802-.43.351-1.043.527-1.84.527h-1.529V83h-1.494v-7.197h3.135c.723 0 1.299.185 1.729.556.43.371.644.946.644 1.724z"/>
        <path fill="#F6F2FB" d="M73 60.412h10.792v5.06H73v6.07h16.866v-11.13h5.06v15.515H73V82h28V54H73z"/>
        <path fill="#B09CC9" fill-rule="nonzero" d="M41.91 67.998v2H21.76V58.036h2v9.962zM132 70v-2h20.152v9.292h-2V70z"/>
    </g>
</svg>
