<svg xmlns="http://www.w3.org/2000/svg" width="149" height="136" viewBox="0 0 149 136">
    <defs>
        <linearGradient id="a" x1="1.507%" x2="98.618%" y1="98.493%" y2="1.382%">
            <stop offset="0%" stop-color="#B299D1"/>
            <stop offset="100%" stop-color="#D5B1E4"/>
        </linearGradient>
    </defs>
    <g fill="none" fill-rule="evenodd" transform="translate(1)">
        <circle cx="80" cy="68" r="68" fill="#F6F2FB"/>
        <text fill="#7B6696" font-family="Helvetica-Bold, Helvetica" font-size="25" font-weight="bold" transform="translate(0 2)">
            <tspan x="60.542" y="128">****</tspan>
        </text>
        <path stroke="#7B6696" stroke-width="2" d="M57.66 29L35 67.941l22.66 38.17h44.517l22.826-38.17L102.177 29z"/>
        <path fill="url(#a)" stroke="#7B6696" stroke-width="3" d="M61.102 34L42 66.825 61.102 99h37.524l19.241-32.175L98.627 34z" transform="translate(0 2)"/>
        <g transform="translate(44 2)">
            <path fill="#7B6696" d="M2 6h2v22H2z"/>
            <circle cx="3" cy="3" r="3" stroke="#7B6696" stroke-width="2"/>
            <path fill="#7B6696" d="M14 26v2H2v-2z"/>
        </g>
        <g transform="translate(0 65)">
            <circle cx="3" cy="3" r="3" stroke="#7B6696" stroke-width="2"/>
            <path fill="#7B6696" d="M35 2v2H6V2z"/>
        </g>
        <g transform="matrix(1 0 0 -1 38 124)">
            <path fill="#7B6696" d="M2 6h2v13H2z"/>
            <circle cx="3" cy="3" r="3" stroke="#7B6696" stroke-width="2"/>
            <path fill="#7B6696" d="M20 17v2H2v-2z"/>
        </g>
        <g transform="matrix(-1 0 0 1 139 14)">
            <path fill="#7B6696" d="M2 6h2v49H2z"/>
            <circle cx="3" cy="3" r="3" stroke="#7B6696" stroke-width="2"/>
            <path fill="#7B6696" d="M14 53v2H2v-2z"/>
        </g>
        <g transform="rotate(-180 65 49)">
            <path fill="#7B6696" d="M2 6h2v13H2z"/>
            <circle cx="3" cy="3" r="3" stroke="#7B6696" stroke-width="2"/>
            <path fill="#7B6696" d="M20 17v2H2v-2z"/>
        </g>
        <path fill="#F6F2FB" d="M82.815 73.455c0 5.122-1.883 10.03-5.301 13.82l-3.422 3.795a.794.794 0 0 1-1.128.054.81.81 0 0 1-.054-1.137l3.422-3.794a18.983 18.983 0 0 0 4.886-12.738v-3.526a.91.91 0 0 0-.905-.912.91.91 0 0 0-.905.912v3.183c0 4.235-1.547 8.3-4.357 11.448l-3.511 3.932a.793.793 0 0 1-1.127.06.808.808 0 0 1-.06-1.137l3.51-3.931a15.549 15.549 0 0 0 3.949-10.372V69.93c0-1.39 1.122-2.522 2.501-2.522 1.38 0 2.502 1.132 2.502 2.522v3.526zm3.518-3.658v3.5a23.748 23.748 0 0 1-6.187 16.006l-2.888 3.177a.796.796 0 0 1-1.128.054.8.8 0 0 1-.054-1.129l2.888-3.177a22.154 22.154 0 0 0 5.772-14.931v-3.5a4.316 4.316 0 0 0-4.311-4.311 4.316 4.316 0 0 0-4.312 4.311v3.16c0 3.359-1.237 6.584-3.484 9.08l-2.496 2.774a.799.799 0 1 1-1.187-1.068l2.496-2.774a11.959 11.959 0 0 0 3.074-8.012v-3.16a5.915 5.915 0 0 1 5.909-5.908 5.915 5.915 0 0 1 5.908 5.908zm3.519-.077v3.512a27.343 27.343 0 0 1-7.055 18.364l-.798.883a.791.791 0 0 1-1.124.054.805.805 0 0 1-.054-1.133l.797-.882a25.735 25.735 0 0 0 6.641-17.286V69.72c0-4.271-3.453-7.747-7.698-7.747-4.245 0-7.698 3.476-7.698 7.747v3.17c0 2.526-.925 4.95-2.603 6.827l-2.242 2.506a.793.793 0 0 1-1.125.06.805.805 0 0 1-.059-1.132l2.242-2.506a8.62 8.62 0 0 0 2.194-5.754V69.72c0-5.155 4.168-9.35 9.29-9.35 5.124 0 9.292 4.195 9.292 9.35zm-21.815.41c0-3.07 1.13-6.034 3.182-8.347a12.936 12.936 0 0 1 7.857-4.22.807.807 0 0 1 .916.676.798.798 0 0 1-.686.902 11.312 11.312 0 0 0-6.87 3.69 10.995 10.995 0 0 0-2.782 7.298c0 .44-.362.797-.809.797a.803.803 0 0 1-.808-.797zm.704 2.291a6.814 6.814 0 0 1-1.668 4.484l-1.92 2.204a.754.754 0 0 1-1.084.058.809.809 0 0 1-.057-1.118l1.921-2.203a5.205 5.205 0 0 0 1.273-3.425.78.78 0 0 1 .768-.791.78.78 0 0 1 .767.791zM92.049 80.1c.442.11.706.539.59.957a29.033 29.033 0 0 1-1.19 3.449.828.828 0 0 1-.77.495.87.87 0 0 1-.305-.055c-.424-.16-.632-.615-.464-1.018a27.503 27.503 0 0 0 1.13-3.267c.115-.42.567-.67 1.009-.56zM89.09 59.874a12.922 12.922 0 0 1 4.28 9.59v3.547c0 1.42-.098 2.851-.29 4.253a.81.81 0 0 1-1.603-.22c.183-1.33.276-2.686.276-4.032v-3.547a11.3 11.3 0 0 0-3.744-8.387.81.81 0 0 1 1.081-1.204zm-3.881.413a10.229 10.229 0 0 0-3.127-1.028c-.43-.068-.728-.501-.667-.97.062-.467.46-.791.89-.725 1.243.195 2.447.59 3.58 1.178.392.203.559.714.372 1.14a.783.783 0 0 1-.71.488.728.728 0 0 1-.338-.083zm-4.981-6.954c8.799 0 15.957 7.23 15.957 16.115v3.495c0 .44-.354.798-.79.798a.794.794 0 0 1-.79-.798v-3.495c0-8.006-6.45-14.52-14.377-14.52-.267 0-.537.008-.802.023a.791.791 0 0 1-.832-.753.795.795 0 0 1 .745-.84c.294-.016.593-.025.889-.025zm-8.556 4.223a.842.842 0 0 1-.674-.321c-.258-.339-.166-.804.205-1.04a17.214 17.214 0 0 1 4.94-2.13c.436-.112.889.12 1.011.516.123.398-.13.81-.566.923a15.49 15.49 0 0 0-4.45 1.918.875.875 0 0 1-.466.134zM66.49 73.612c0 .84-.319 1.647-.898 2.272l-1.028 1.107a.843.843 0 0 1-.62.268.843.843 0 0 1-.557-.208.791.791 0 0 1-.062-1.142l1.028-1.107c.303-.327.47-.75.47-1.19v-3.199c0-4.175 1.63-8.152 4.589-11.196a.852.852 0 0 1 1.178-.034c.335.307.35.818.035 1.143-2.666 2.743-4.135 6.326-4.135 10.087v3.2zm32.468-10.091a.814.814 0 0 1-.766 1.072.808.808 0 0 1-.765-.554 18.175 18.175 0 0 0-3.844-6.528.816.816 0 0 1 .049-1.149.804.804 0 0 1 1.14.05 19.792 19.792 0 0 1 4.186 7.109zM86.735 51.265a20.865 20.865 0 0 1 5.596 2.77.75.75 0 0 1 .17 1.095.852.852 0 0 1-.67.314.867.867 0 0 1-.499-.155 19.162 19.162 0 0 0-5.137-2.543c-.437-.14-.67-.585-.52-.994.15-.41.624-.628 1.06-.487zm-18.775 5.92c-3.278 3.246-5.195 7.603-5.398 12.266a.794.794 0 0 1-.78.771h-.036a.797.797 0 0 1-.745-.844c.22-5.08 2.308-9.824 5.877-13.36 3.58-3.546 8.277-5.5 13.226-5.5.918 0 1.841.069 2.744.203a.804.804 0 0 1 .662.915.786.786 0 0 1-.885.684 17.17 17.17 0 0 0-2.521-.186c-4.544 0-8.857 1.793-12.144 5.05zm12.275-10.889c3.152 0 6.208.642 9.08 1.907a22.76 22.76 0 0 1 7.353 5.18.808.808 0 0 1-.023 1.134.787.787 0 0 1-1.121-.023c-4.042-4.252-9.472-6.594-15.29-6.594-1.65 0-3.295.193-4.887.574a.793.793 0 0 1-.955-.596.802.802 0 0 1 .59-.964c1.711-.41 3.479-.618 5.253-.618zM62.713 56.682a.802.802 0 0 1-.136-1.122 23.034 23.034 0 0 1 9.285-7.091.795.795 0 0 1 1.04.431.8.8 0 0 1-.43 1.045 21.43 21.43 0 0 0-8.641 6.6.795.795 0 0 1-1.118.137zm6.812-8.978a.78.78 0 0 1-.706-.463.834.834 0 0 1 .365-1.092 24.679 24.679 0 0 1 11.204-2.668c2.043 0 4.078.251 6.049.746.42.106.68.548.578.987-.101.44-.524.709-.945.604a23.346 23.346 0 0 0-5.682-.701c-3.684 0-7.225.843-10.523 2.505a.753.753 0 0 1-.34.082zm20.055-.537c-.351-.167-.523-.641-.383-1.06.14-.419.539-.623.89-.456a21.25 21.25 0 0 1 2.215 1.219c.334.211.462.705.285 1.103-.123.277-.36.434-.607.434a.601.601 0 0 1-.32-.095 19.85 19.85 0 0 0-2.08-1.145z"/>
    </g>
</svg>
