<?xml version="1.0" encoding="UTF-8"?>
<svg width="140px" height="160px" viewBox="0 0 140 160" version="1.1" xmlns="http://www.w3.org/2000/svg" xmlns:xlink="http://www.w3.org/1999/xlink">
    <!-- Generator: Sketch 49.3 (51167) - http://www.bohemiancoding.com/sketch -->
    <title>all</title>
    <desc>Created with Sketch.</desc>
    <defs></defs>
    <g id="Symbols" stroke="none" stroke-width="1" fill="none" fill-rule="evenodd">
        <g id="Icons/business/all">
            <g id="all">
                <polygon id="Fill-1" fill="#F7F7F7" points="70 0 0 40.009 0 119.419 70 160 140 118.789 140 40.009"></polygon>
                <polygon id="Fill-2" fill="#E8E8E8" points="127.272727 46.7562485 70.0005036 14 12.7272727 46.7562485 12.7272727 111.773863 70.0005036 145 127.272727 111.258985"></polygon>
                <path d="M48.2473776,89 C43.229021,89 39.1608392,84.9705627 39.1608392,80 C39.1608392,75.0294373 43.229021,71 48.2473776,71 C53.2657342,71 57.3339161,75.0294373 57.3339161,80 C57.3339161,84.9705627 53.2657342,89 48.2473776,89 Z M71.4685315,89 C66.4501748,89 62.381993,84.9705627 62.381993,80 C62.381993,75.0294373 66.4501748,71 71.4685315,71 C76.4868881,71 80.5550699,75.0294373 80.5550699,80 C80.5550699,84.9705627 76.4868881,89 71.4685315,89 Z M94.6896853,89 C89.6713287,89 85.6031469,84.9705627 85.6031469,80 C85.6031469,75.0294373 89.6713287,71 94.6896853,71 C99.7080419,71 103.776224,75.0294373 103.776224,80 C103.776224,84.9705627 99.7080419,89 94.6896853,89 Z" id="Combined-Shape" fill="#4A3777" fill-rule="nonzero"></path>
            </g>
        </g>
    </g>
</svg>