<?xml version="1.0" encoding="UTF-8"?>
<svg width="22px" height="22px" viewBox="0 0 22 22" version="1.1" xmlns="http://www.w3.org/2000/svg" xmlns:xlink="http://www.w3.org/1999/xlink">
    <!-- Generator: Sketch 49.3 (51167) - http://www.bohemiancoding.com/sketch -->
    <title>api-references</title>
    <desc>Created with Sketch.</desc>
    <defs></defs>
    <g id="Desctop" stroke="none" stroke-width="1" fill="none" fill-rule="evenodd">
        <g id="Tech-Solutions-ssl" transform="translate(-377.000000, -1231.000000)">
            <g id="Content" transform="translate(165.000000, 465.000000)">
                <g id="Links" transform="translate(0.000000, 766.000000)">
                    <g id="Api" transform="translate(212.000000, 0.000000)">
                        <g id="api-references">
                            <g id="Icons/api">
                                <g>
                                    <path d="M11.0000303,16 C8.24121345,16 6,13.7589743 6,11.0000908 C6,8.24102567 8.24121345,6 11.0000303,6 C13.7590286,6 16,8.24102567 16,11.0000908 C16,13.7589743 13.7590286,16 11.0000303,16 M20.8738316,8.69065518 L19.3297176,8.4285815 C19.1688664,7.90931714 18.9619428,7.40843585 18.7092916,6.93047595 L19.6192497,5.6573907 C20.0051777,5.1150326 19.9454904,4.37517136 19.4722432,3.906403 L18.1027102,2.53686407 C17.8453483,2.27950105 17.505148,2.13697478 17.1420265,2.13697478 C16.8572624,2.13697478 16.5859984,2.22429438 16.356211,2.38991438 L15.0786504,3.29981904 C14.5823095,3.03774536 14.0630474,2.82185914 13.5253449,2.66094981 L13.267983,1.13526965 C13.1665318,0.531213361 12.6806463,0.079794026 12.0855543,0.0103979256 C12.0331054,0.00425108562 11.9800819,0 11.9260819,0 L9.99127182,0 C9.93721433,0 9.88419088,0.00425108562 9.83168446,0.0103979256 C9.2364776,0.079794026 8.75053466,0.531213361 8.64914096,1.13526965 L8.3827599,2.6977734 C7.86797863,2.85868274 7.36686972,3.07003063 6.88914168,3.3274511 L5.62531088,2.4172592 C5.39552346,2.25186899 5.11972112,2.16460684 4.83472727,2.16460684 C4.47166315,2.16460684 4.12698202,2.30707566 3.87427331,2.56449612 L2.50008711,3.93397761 C2.03126333,4.40280342 1.9668654,5.14266466 2.35308061,5.68502276 L3.27223028,6.97643363 C3.01934922,7.45893185 2.8171363,7.95981314 2.6609383,8.47930729 L1.13526474,8.73644053 C0.477957829,8.84685386 0,9.41213335 0,10.0785772 L0,12.0133956 C0,12.6796671 0.477957829,13.2449466 1.13526474,13.3553025 L2.69776173,13.6219145 C2.85867037,14.1364682 3.07001735,14.6375793 3.3274367,15.1155392 L2.42195938,16.3746648 C2.03597397,16.9170229 2.09566125,17.6568841 2.56896588,18.1257099 L3.93849889,19.4951914 C4.1958608,19.7526119 4.53606107,19.8950807 4.8991252,19.8950807 C5.18388925,19.8950807 5.45521075,19.8078186 5.68499816,19.6424283 L6.97640345,18.7232747 C7.44051659,18.9667355 7.92766592,19.1644684 8.42854504,19.3206097 L8.68590695,20.8647304 C8.7963198,21.5220401 9.36159685,22 10.0278655,22 L11.9673287,22 C12.6338271,22 13.1991042,21.5220401 13.3092872,20.8647304 L13.57113,19.3206097 C14.0906219,19.1597578 14.591501,18.9530631 15.0694589,18.700181 L16.3424812,19.6100856 C16.5722686,19.7754758 16.8480709,19.8630252 17.132835,19.8630252 C17.4959565,19.8630252 17.8360994,19.720499 18.0935187,19.4631359 L19.4630517,18.093597 C19.9318181,17.6248286 19.9959862,16.8849674 19.6100008,16.3425519 L18.7001001,15.0648134 C18.9529811,14.5823726 19.1643855,14.0814913 19.3205261,13.5667078 L20.8646401,13.3093448 C21.4686938,13.2080656 21.9202835,12.7220631 21.9895644,12.1267388 C21.9956538,12.0742895 21.9999048,12.0213233 21.9999048,11.9673805 L21.9999048,10.0326195 C22.0007091,9.97298942 21.9963431,9.91450827 21.9895644,9.85671648 C21.9208005,9.26897517 21.4723129,8.79101527 20.8738316,8.69065518 Z" id="Fill-1" fill="#FFC033"></path>
                                    <path d="M11.0000246,8 C9.34470302,8 8,9.34486657 8,11.0000983 C8,12.6553792 9.34470302,14 11.0000246,14 C12.655297,14 14,12.6553792 14,11.0000983 C14,9.34486657 12.655297,8 11.0000246,8" id="Fill-3" fill="#7B6696"></path>
                                </g>
                            </g>
                        </g>
                    </g>
                </g>
            </g>
        </g>
    </g>
</svg>