<svg width="22" height="22" viewBox="0 0 22 22" xmlns="http://www.w3.org/2000/svg"><title>service</title><defs><linearGradient x1="1.507%" y1="98.493%" x2="98.618%" y2="1.382%" id="a"><stop stop-color="#B299D1" offset="0%"/><stop stop-color="#D5B1E4" offset="100%"/></linearGradient></defs><g fill="none" fill-rule="evenodd"><path d="M11 16c-2.759 0-5-2.241-5-5s2.241-5 5-5 5 2.241 5 5-2.241 5-5 5m9.874-7.31L19.33 8.43a8.73 8.73 0 0 0-.62-1.499l.91-1.273a1.355 1.355 0 0 0-.148-1.75l-1.37-1.37a1.35 1.35 0 0 0-1.746-.147l-1.277.91a8.624 8.624 0 0 0-1.554-.64l-.257-1.525A1.357 1.357 0 0 0 11.926 0H9.991A1.357 1.357 0 0 0 8.65 1.135l-.266 1.563a8.495 8.495 0 0 0-1.494.63l-1.264-.91a1.35 1.35 0 0 0-.79-.253 1.34 1.34 0 0 0-.96.4L2.5 3.933a1.36 1.36 0 0 0-.147 1.751l.92 1.291A8.497 8.497 0 0 0 2.66 8.48l-1.526.257A1.358 1.358 0 0 0 0 10.08v1.934c0 .667.478 1.232 1.135 1.342l1.563.267a8.51 8.51 0 0 0 .63 1.494l-.906 1.259a1.355 1.355 0 0 0 .147 1.75l1.37 1.37a1.35 1.35 0 0 0 1.746.147l1.291-.919c.465.244.952.441 1.453.598l.257 1.544c.11.657.676 1.135 1.342 1.135h1.94c.666 0 1.231-.478 1.341-1.135l.262-1.544c.52-.161 1.02-.368 1.498-.62l1.273.91c.23.164.506.252.79.252.364 0 .704-.143.962-.4l1.37-1.37a1.36 1.36 0 0 0 .146-1.75l-.91-1.278c.253-.483.464-.984.62-1.498l1.545-.258A1.356 1.356 0 0 0 22 11.967v-1.934a1.341 1.341 0 0 0-1.126-1.342z" fill="url(#a)"/><path d="M11 8c-1.655 0-3 1.345-3 3s1.345 3 3 3 3-1.345 3-3-1.345-3-3-3" fill="#7B6696"/></g></svg>