<?xml version="1.0" encoding="UTF-8"?>
<svg width="62px" height="62px" viewBox="0 0 62 62" version="1.1" xmlns="http://www.w3.org/2000/svg" xmlns:xlink="http://www.w3.org/1999/xlink">
    <!-- Generator: Sketch 49.3 (51167) - http://www.bohemiancoding.com/sketch -->
    <title>apple</title>
    <desc>Created with Sketch.</desc>
    <defs></defs>
    <g id="apple" stroke="none" stroke-width="1" fill="none" fill-rule="evenodd">
        <g id="Group-3" transform="translate(6.000000, 0.000000)" fill="#231F20">
            <path d="M34.028268,9.90092592 C36.1715944,7.2756139 37.6181186,3.6334173 37.223394,0 C34.1366561,0.126997047 30.3946424,2.07584923 28.1799567,4.69525793 C26.1929911,7.01904657 24.4530844,10.727542 24.9193182,14.2881517 C28.3655508,14.559553 31.8832926,12.5197292 34.028268,9.90092592 M41.760104,32.9429432 C41.6827482,25.0913772 48.1020835,21.3255137 48.3890197,21.1387266 C44.7823787,15.8089375 39.1634364,15.0793478 37.1613294,14.9947336 C32.3792094,14.5058177 27.830956,17.8369547 25.4035418,17.8369547 C22.9833234,17.8369547 19.2383114,15.0669357 15.2726253,15.139592 C10.0607008,15.2176974 5.25474441,18.1994791 2.57082661,22.9125983 C-2.84423201,32.4001406 1.18411827,46.4554895 6.46215511,54.1503905 C9.04128273,57.9168595 12.1161773,62.1474203 16.1539722,61.9960531 C20.0423024,61.8393881 21.5128129,59.4559608 26.2139791,59.4559608 C30.9146955,59.4559608 32.2357414,61.9960531 36.3508921,61.9177963 C40.5350034,61.8393881 43.18594,58.0794278 45.7473778,54.3017576 C48.7087871,49.9322418 49.9280411,45.7015297 50,45.4846206 C49.9069031,45.4414809 41.8409079,42.3218038 41.760104,32.9429432" id="Fill-1"></path>
        </g>
    </g>
</svg>