<?xml version="1.0" encoding="UTF-8"?>
<svg width="111px" height="33px" viewBox="0 0 111 33" version="1.1" xmlns="http://www.w3.org/2000/svg" xmlns:xlink="http://www.w3.org/1999/xlink">
    <!-- Generator: Sketch 48.2 (47327) - http://www.bohemiancoding.com/sketch -->
    <title>apple-store</title>
    <desc>Created with Sketch.</desc>
    <defs></defs>
    <g id="Page-1" stroke="none" stroke-width="1" fill="none" fill-rule="evenodd">
        <g id="apple-store" transform="translate(-7.000000, -2.000000)">
            <path d="M9.2924099,2 C8.02634687,2 7,3.1216205 7,4.51060118 L7,30.4893988 C7,31.8759656 8.02521157,33 9.2924099,33 L20.7075901,33 C21.9736531,33 23,31.8783795 23,30.4893988 L23,4.51060118 C23,3.12403444 21.9747884,2 20.7075901,2 L9.2924099,2 L9.2924099,2 Z M8.5,6.06557377 L8.5,28.9344262 L21.5,28.9344262 L21.5,6.06557377 L8.5,6.06557377 L8.5,6.06557377 Z M15,31.9836066 C15.5522847,31.9836066 16,31.5285517 16,30.9672131 C16,30.4058745 15.5522847,29.9508197 15,29.9508197 C14.4477153,29.9508197 14,30.4058745 14,30.9672131 C14,31.5285517 14.4477153,31.9836066 15,31.9836066 L15,31.9836066 Z M13,4.03278689 C13,4.31345618 13.171875,4.54098361 13.398159,4.54098361 L16.601841,4.54098361 C16.8217381,4.54098361 17,4.30524782 17,4.03278689 C17,3.75211759 16.828125,3.52459016 16.601841,3.52459016 L13.398159,3.52459016 C13.1782619,3.52459016 13,3.76032595 13,4.03278689 Z" id="iPhone-Vector" fill="#5D5D5D"></path>
            <path d="M35.088,9.456 L32.22,9.456 L31.38,12 L30.3,12 L33.048,3.912 L34.308,3.912 L37.068,12 L35.952,12 L35.088,9.456 Z M32.436,8.64 L34.872,8.64 L34.08,6.312 C33.9,5.784 33.78,5.304 33.66,4.836 L33.636,4.836 C33.516,5.316 33.384,5.808 33.228,6.3 L32.436,8.64 Z M37.488,6.192 L38.616,6.192 L39.756,9.456 C39.948,9.984 40.104,10.464 40.224,10.944 L40.26,10.944 C40.392,10.464 40.56,9.984 40.752,9.456 L41.88,6.192 L42.984,6.192 L40.704,12 L39.696,12 L37.488,6.192 Z M48.348,12 L47.388,12 L47.304,11.268 L47.268,11.268 C46.944,11.724 46.32,12.132 45.492,12.132 C44.316,12.132 43.716,11.304 43.716,10.464 C43.716,9.06 44.964,8.292 47.208,8.304 L47.208,8.184 C47.208,7.704 47.076,6.84 45.888,6.84 C45.348,6.84 44.784,7.008 44.376,7.272 L44.136,6.576 C44.616,6.264 45.312,6.06 46.044,6.06 C47.82,6.06 48.252,7.272 48.252,8.436 L48.252,10.608 C48.252,11.112 48.276,11.604 48.348,12 Z M47.232,10.044 L47.232,9.036 C46.08,9.012 44.772,9.216 44.772,10.344 C44.772,11.028 45.228,11.352 45.768,11.352 C46.524,11.352 47.004,10.872 47.172,10.38 C47.208,10.272 47.232,10.152 47.232,10.044 Z M51.252,12 L50.196,12 L50.196,6.192 L51.252,6.192 L51.252,12 Z M50.724,3.9 C51.12,3.9 51.372,4.188 51.372,4.56 C51.384,4.92 51.12,5.208 50.7,5.208 C50.328,5.208 50.064,4.92 50.064,4.56 C50.064,4.188 50.34,3.9 50.724,3.9 Z M53.244,12 L53.244,3.48 L54.3,3.48 L54.3,12 L53.244,12 Z M60.492,12 L59.532,12 L59.448,11.268 L59.412,11.268 C59.088,11.724 58.464,12.132 57.636,12.132 C56.46,12.132 55.86,11.304 55.86,10.464 C55.86,9.06 57.108,8.292 59.352,8.304 L59.352,8.184 C59.352,7.704 59.22,6.84 58.032,6.84 C57.492,6.84 56.928,7.008 56.52,7.272 L56.28,6.576 C56.76,6.264 57.456,6.06 58.188,6.06 C59.964,6.06 60.396,7.272 60.396,8.436 L60.396,10.608 C60.396,11.112 60.42,11.604 60.492,12 Z M59.376,10.044 L59.376,9.036 C58.224,9.012 56.916,9.216 56.916,10.344 C56.916,11.028 57.372,11.352 57.912,11.352 C58.668,11.352 59.148,10.872 59.316,10.38 C59.352,10.272 59.376,10.152 59.376,10.044 Z M63.204,12 L62.292,12 C62.316,11.604 62.34,11.016 62.34,10.5 L62.34,3.48 L63.384,3.48 L63.384,7.128 L63.408,7.128 C63.78,6.48 64.452,6.06 65.388,6.06 C66.828,6.06 67.848,7.26 67.836,9.024 C67.836,11.1 66.528,12.132 65.232,12.132 C64.392,12.132 63.72,11.808 63.288,11.04 L63.252,11.04 L63.204,12 Z M63.384,8.628 L63.384,9.672 C63.384,9.804 63.408,9.936 63.432,10.056 C63.636,10.788 64.248,11.292 65.016,11.292 C66.12,11.292 66.78,10.392 66.78,9.06 C66.78,7.896 66.18,6.9 65.052,6.9 C64.332,6.9 63.66,7.392 63.444,8.196 C63.42,8.316 63.384,8.46 63.384,8.628 Z M69.408,12 L69.408,3.48 L70.464,3.48 L70.464,12 L69.408,12 Z M77.148,9.288 L73.068,9.288 C73.092,10.716 74.004,11.304 75.06,11.304 C75.816,11.304 76.272,11.172 76.668,11.004 L76.848,11.76 C76.476,11.928 75.84,12.12 74.916,12.12 C73.128,12.12 72.06,10.944 72.06,9.192 C72.06,7.44 73.092,6.06 74.784,6.06 C76.68,6.06 77.184,7.728 77.184,8.796 C77.184,9.012 77.16,9.18 77.148,9.288 Z M73.08,8.532 L76.164,8.532 C76.176,7.86 75.888,6.816 74.7,6.816 C73.632,6.816 73.164,7.8 73.08,8.532 Z M83.9759999,6.06 C85.6439999,6.06 86.7719999,7.272 86.7719999,9.048 C86.7719999,11.196 85.2839999,12.132 83.8799999,12.132 C82.3079999,12.132 81.0959999,10.98 81.0959999,9.144 C81.0959999,7.2 82.3679999,6.06 83.9759999,6.06 Z M83.9519999,6.852 C82.7039999,6.852 82.1639999,8.004 82.1639999,9.108 C82.1639999,10.38 82.8959999,11.34 83.9279999,11.34 C84.9359999,11.34 85.6919999,10.392 85.6919999,9.084 C85.6919999,8.1 85.1999999,6.852 83.9519999,6.852 Z M88.3439999,12 L88.3439999,7.764 C88.3439999,7.164 88.3319999,6.672 88.2959999,6.192 L89.2319999,6.192 L89.2919999,7.152 L89.3159999,7.152 C89.6039999,6.6 90.2759999,6.06 91.2359999,6.06 C92.0399999,6.06 93.2879999,6.54 93.2879999,8.532 L93.2879999,12 L92.2319999,12 L92.2319999,8.652 C92.2319999,7.716 91.8839999,6.936 90.8879999,6.936 C90.1919999,6.936 89.6519999,7.428 89.4719999,8.016 C89.4239999,8.148 89.3999999,8.328 89.3999999,8.508 L89.3999999,12 L88.3439999,12 Z M98.2679999,4.8 L99.2999999,4.524 L99.2999999,6.192 L100.812,6.192 L100.812,6.996 L99.2999999,6.996 L99.2999999,10.128 C99.2999999,10.848 99.5039999,11.256 100.092,11.256 C100.368,11.256 100.572,11.22 100.704,11.184 L100.752,11.976 C100.548,12.06 100.224,12.12 99.8159999,12.12 C99.3239999,12.12 98.9279999,11.964 98.6759999,11.676 C98.3759999,11.364 98.2679999,10.848 98.2679999,10.164 L98.2679999,6.996 L97.3679999,6.996 L97.3679999,6.192 L98.2679999,6.192 L98.2679999,4.8 Z M102.24,12 L102.24,3.48 L103.296,3.48 L103.296,7.104 L103.32,7.104 C103.488,6.804 103.752,6.54 104.076,6.36 C104.388,6.18 104.76,6.06 105.156,6.06 C105.936,6.06 107.184,6.54 107.184,8.544 L107.184,12 L106.128,12 L106.128,8.664 C106.128,7.728 105.78,6.936 104.784,6.936 C104.1,6.936 103.56,7.416 103.368,7.992 C103.308,8.136 103.296,8.292 103.296,8.496 L103.296,12 L102.24,12 Z M113.808,9.288 L109.728,9.288 C109.752,10.716 110.664,11.304 111.72,11.304 C112.476,11.304 112.932,11.172 113.328,11.004 L113.508,11.76 C113.136,11.928 112.5,12.12 111.576,12.12 C109.788,12.12 108.72,10.944 108.72,9.192 C108.72,7.44 109.752,6.06 111.444,6.06 C113.34,6.06 113.844,7.728 113.844,8.796 C113.844,9.012 113.82,9.18 113.808,9.288 Z M109.74,8.532 L112.824,8.532 C112.836,7.86 112.548,6.816 111.36,6.816 C110.292,6.816 109.824,7.8 109.74,8.532 Z" id="Available-on-the" fill="#606060"></path>
            <path d="M39.6996767,25.1501616 L34.2321703,25.1501616 L32.6308085,30 L30.5719149,30 L35.8106554,14.5811742 L38.212698,14.5811742 L43.4743151,30 L41.3467917,30 L39.6996767,25.1501616 Z M34.643949,23.5945531 L39.287898,23.5945531 L37.7780427,19.1564935 C37.4348937,18.1499232 37.2061278,17.2348594 36.9773618,16.3426721 L36.9316086,16.3426721 C36.7028427,17.257736 36.4512001,18.1956764 36.1538043,19.1336169 L34.643949,23.5945531 Z M44.7918386,34.529566 L44.7918386,22.5422297 C44.7918386,21.1238807 44.7460855,19.9800509 44.7003323,18.9277275 L46.5075834,18.9277275 L46.5990897,20.826485 L46.6448429,20.826485 C47.4684004,19.4767658 48.7723664,18.6760849 50.5796175,18.6760849 C53.2561792,18.6760849 55.2693197,20.940868 55.2693197,24.3037276 C55.2693197,28.2842553 52.8444005,30.2516426 50.2364685,30.2516426 C48.7723664,30.2516426 47.491277,29.6110979 46.8278557,28.5130213 L46.7821025,28.5130213 L46.7821025,34.529566 L44.7918386,34.529566 Z M46.7821025,23.5945531 L46.7821025,25.4933106 C46.7821025,25.7907063 46.8278557,26.0652255 46.8736089,26.316868 C47.2396344,27.7123404 48.452094,28.6731574 49.8933196,28.6731574 C52.020843,28.6731574 53.2561792,26.9345361 53.2561792,24.395234 C53.2561792,22.1762041 52.0894728,20.2774467 49.9619494,20.2774467 C48.5893536,20.2774467 47.3082642,21.2611403 46.9193621,22.7709956 C46.8507323,23.0226382 46.7821025,23.3200339 46.7821025,23.5945531 Z M56.9986219,34.529566 L56.9986219,22.5422297 C56.9986219,21.1238807 56.9528687,19.9800509 56.9071156,18.9277275 L58.7143666,18.9277275 L58.805873,20.826485 L58.8516262,20.826485 C59.6751837,19.4767658 60.9791497,18.6760849 62.7864007,18.6760849 C65.4629625,18.6760849 67.4761029,20.940868 67.4761029,24.3037276 C67.4761029,28.2842553 65.0511838,30.2516426 62.4432518,30.2516426 C60.9791497,30.2516426 59.6980603,29.6110979 59.034639,28.5130213 L58.9888858,28.5130213 L58.9888858,34.529566 L56.9986219,34.529566 Z M58.9888858,23.5945531 L58.9888858,25.4933106 C58.9888858,25.7907063 59.034639,26.0652255 59.0803922,26.316868 C59.4464177,27.7123404 60.6588773,28.6731574 62.1001029,28.6731574 C64.2276263,28.6731574 65.4629625,26.9345361 65.4629625,24.395234 C65.4629625,22.1762041 64.2962561,20.2774467 62.1687327,20.2774467 C60.7961369,20.2774467 59.5150475,21.2611403 59.1261454,22.7709956 C59.0575156,23.0226382 58.9888858,23.3200339 58.9888858,23.5945531 Z M72.5360692,29.2450723 L73.0393543,27.5750808 C73.9315416,28.1241191 75.2355076,28.581651 76.6081033,28.581651 C78.6441204,28.581651 79.8337034,27.506451 79.8337034,25.9508425 C79.8337034,24.5096169 79.0101459,23.6860595 76.9283757,22.8853786 C74.4119501,21.9931914 72.8563416,20.6892254 72.8563416,18.5159488 C72.8563416,16.1139062 74.8466054,14.3295317 77.8434395,14.3295317 C79.4219247,14.3295317 80.5657545,14.6955572 81.2520523,15.0844594 L80.703014,16.7086977 C80.1997289,16.4341785 79.1702821,15.9766466 77.7748097,15.9766466 C75.6701629,15.9766466 74.869482,17.2348594 74.869482,18.2871828 C74.869482,19.7284084 75.8074225,20.4375828 77.9349459,21.2611403 C80.5428779,22.2677105 81.8697204,23.5259233 81.8697204,25.7907063 C81.8697204,28.1698723 80.1082225,30.228766 76.4708438,30.228766 C74.983865,30.228766 73.3596267,29.7941106 72.5360692,29.2450723 Z M84.1023078,16.2740423 L86.0696951,15.7478806 L86.0696951,18.9277275 L88.9521462,18.9277275 L88.9521462,20.4604594 L86.0696951,20.4604594 L86.0696951,26.431251 C86.0696951,27.8038468 86.4585972,28.581651 87.5795504,28.581651 C88.1057121,28.581651 88.4946143,28.5130213 88.7462568,28.4443915 L88.8377632,29.9542468 C88.4488611,30.114383 87.831193,30.228766 87.0533887,30.228766 C86.1154483,30.228766 85.3605206,29.9313702 84.8801121,29.3823319 C84.3081972,28.7875404 84.1023078,27.8038468 84.1023078,26.4998808 L84.1023078,20.4604594 L82.3865631,20.4604594 L82.3865631,18.9277275 L84.1023078,18.9277275 L84.1023078,16.2740423 Z M94.959372,18.6760849 C98.1392188,18.6760849 100.289619,20.9866211 100.289619,24.3723574 C100.289619,28.4672681 97.4529209,30.2516426 94.7763592,30.2516426 C91.7795251,30.2516426 89.4689889,28.0554893 89.4689889,24.5553701 C89.4689889,20.8493616 91.8939081,18.6760849 94.959372,18.6760849 Z M94.9136188,20.1859403 C92.5344528,20.1859403 91.5050059,22.3820935 91.5050059,24.4867403 C91.5050059,26.9116595 92.9004783,28.7417872 94.8678656,28.7417872 C96.7894996,28.7417872 98.2307252,26.9345361 98.2307252,24.4409872 C98.2307252,22.5651063 97.2927848,20.1859403 94.9136188,20.1859403 Z M102.018921,30 L102.018921,22.3820935 C102.018921,21.0781275 101.996045,19.9571743 101.927415,18.9277275 L103.688913,18.9277275 L103.757542,21.1010041 L103.849049,21.1010041 C104.352334,19.6140254 105.564794,18.6760849 106.914513,18.6760849 C107.143279,18.6760849 107.303415,18.6989615 107.486428,18.7447147 L107.486428,20.6434722 C107.280538,20.597719 107.074649,20.5748424 106.80013,20.5748424 C105.381781,20.5748424 104.375211,21.6500424 104.100691,23.1598978 C104.054938,23.4344169 104.009185,23.7546893 104.009185,24.0978382 L104.009185,30 L102.018921,30 Z M117.359798,24.8298893 L109.581755,24.8298893 C109.627509,27.5522042 111.36613,28.6731574 113.37927,28.6731574 C114.820496,28.6731574 115.689807,28.4215149 116.444734,28.1012425 L116.787883,29.5424681 C116.078709,29.8627404 114.866249,30.228766 113.104751,30.228766 C109.696138,30.228766 107.660121,27.9868595 107.660121,24.6468765 C107.660121,21.3068935 109.627509,18.6760849 112.853109,18.6760849 C116.467611,18.6760849 117.428428,21.8559318 117.428428,23.8919488 C117.428428,24.3037276 117.382675,24.6239999 117.359798,24.8298893 Z M109.604632,23.3886637 L115.483917,23.3886637 C115.506794,22.1075744 114.957755,20.1173105 112.692972,20.1173105 C110.656955,20.1173105 109.764768,21.9931914 109.604632,23.3886637 Z" id="App-Store" fill="#606060"></path>
        </g>
    </g>
</svg>