<?xml version="1.0" encoding="UTF-8"?>
<svg width="113px" height="33px" viewBox="0 0 113 33" version="1.1" xmlns="http://www.w3.org/2000/svg" xmlns:xlink="http://www.w3.org/1999/xlink">
    <!-- Generator: Sketch 49.3 (51167) - http://www.bohemiancoding.com/sketch -->
    <title>appstore</title>
    <desc>Created with Sketch.</desc>
    <defs></defs>
    <g id="appstore" stroke="none" stroke-width="1" fill="none" fill-rule="evenodd">
        <g id="Rectangle-1-+-Imported-Layers">
            <rect id="Rectangle-1" stroke="#7B6696" stroke-width="2" x="1" y="1" width="111" height="31" rx="5"></rect>
            <path d="M21.5378101,10.0193442 C23.652956,10.0193442 25.0055044,12.0374547 25.0055044,12.0374547 C25.0055044,12.0374547 22.9422419,13.141553 22.9422419,15.5393915 C22.9422419,18.3853537 25.534179,19.2132054 25.534179,19.2132054 C25.534179,19.2132054 23.4883602,24 21.1911748,24 C19.8994554,24 19.813132,23.2671914 18.0965048,23.2671914 C16.6057496,23.2671914 16.1030167,24 14.9673949,24 C12.7999183,24 10,19.3340077 10,15.5393915 C10,11.5977695 12.8348054,10.0193442 14.6118142,10.0193442 C16.1723437,10.0193442 16.8222289,10.924918 18.0790612,10.924918 C19.1368578,10.924918 19.9692297,10.0193442 21.5378101,10.0193442 L21.5378101,10.0193442 Z M21.1741785,6 C21.4859266,7.93194996 19.7089178,10.3213501 17.5852737,10.243628 C17.2730784,7.78538824 19.5617656,6.12968492 21.1741785,6 Z M37.2082404,11.0262109 L38.6512067,11.0262109 L42.4853741,20.7021955 L41.0424078,20.7021955 L39.9704901,17.7885587 L35.8202443,17.7885587 L34.7208415,20.7021955 L33.3878156,20.7021955 L37.2082404,11.0262109 Z M36.2325204,16.7044148 L39.558214,16.7044148 L37.9228523,12.1916656 L37.8953672,12.1916656 L36.2325204,16.7044148 Z M43.2961837,13.6959153 L44.4642992,13.6959153 L44.4642992,14.6445413 L44.4917843,14.6445413 C44.6841807,14.2560544 44.9865135,13.9737281 45.3987916,13.7975538 C45.8110697,13.6213796 46.2645689,13.5332937 46.7593026,13.5332937 C47.3090068,13.5332937 47.7877003,13.6326726 48.1953976,13.8314333 C48.6030948,14.030194 48.942074,14.2989687 49.2123452,14.6377654 C49.4826164,14.9765621 49.686462,15.3673017 49.823888,15.809996 C49.9613141,16.2526903 50.0300261,16.7224813 50.0300261,17.2193831 C50.0300261,17.7162849 49.9636045,18.1860759 49.8307593,18.6287702 C49.6979141,19.0714646 49.496359,19.457687 49.2260877,19.7874491 C48.9558165,20.1172112 48.6168374,20.3769514 48.2091401,20.5666775 C47.8014429,20.7564037 47.3273301,20.8512653 46.7867877,20.8512653 C46.6127147,20.8512653 46.4180307,20.8331964 46.2027299,20.7970581 C45.9874291,20.7609198 45.774422,20.7021959 45.563702,20.6208847 C45.3529821,20.5395735 45.1537173,20.4289016 44.9659017,20.2888656 C44.7780861,20.1488297 44.6200486,19.9749167 44.4917843,19.7671214 L44.4642992,19.7671214 L44.4642992,23.3718999 L43.2961837,23.3718999 L43.2961837,13.6959153 Z M48.7931979,17.1380723 C48.7931979,16.8128275 48.7496803,16.4943634 48.6626438,16.1826705 C48.5756073,15.8709775 48.4427641,15.5931684 48.2641103,15.3492348 C48.0854564,15.1053012 47.8564164,14.9110607 47.5769835,14.7665075 C47.2975505,14.6219542 46.9700234,14.5496787 46.5943922,14.5496787 C46.2004375,14.5496787 45.8660392,14.6264714 45.5911871,14.7800593 C45.316335,14.9336471 45.0918758,15.1346634 44.9178029,15.3831143 C44.7437299,15.6315652 44.6177579,15.9138916 44.5398831,16.2301018 C44.4620084,16.546312 44.4230716,16.8670347 44.4230716,17.1922795 C44.4230716,17.5355935 44.4642988,17.8676092 44.5467544,18.1883368 C44.62921,18.5090643 44.7597628,18.7913906 44.9384167,19.0353242 C45.1170705,19.2792578 45.3484009,19.4757569 45.6324147,19.6248275 C45.9164285,19.773898 46.2599885,19.8484322 46.6631049,19.8484322 C47.0662213,19.8484322 47.40291,19.7716394 47.6731812,19.6180516 C47.9434524,19.4644637 48.1610404,19.2611888 48.3259517,19.0082206 C48.4908629,18.7552524 48.6099637,18.4661503 48.6832576,18.1409055 C48.7565515,17.8156607 48.7931979,17.4813863 48.7931979,17.1380723 Z M51.4455072,13.6959153 L52.6136228,13.6959153 L52.6136228,14.6445413 L52.6411078,14.6445413 C52.8335043,14.2560544 53.135837,13.9737281 53.5481152,13.7975538 C53.9603933,13.6213796 54.4138924,13.5332937 54.9086262,13.5332937 C55.4583304,13.5332937 55.9370239,13.6326726 56.3447212,13.8314333 C56.7524184,14.030194 57.0913976,14.2989687 57.3616688,14.6377654 C57.63194,14.9765621 57.8357856,15.3673017 57.9732116,15.809996 C58.1106377,16.2526903 58.1793496,16.7224813 58.1793496,17.2193831 C58.1793496,17.7162849 58.1129281,18.1860759 57.9800829,18.6287702 C57.8472377,19.0714646 57.6456825,19.457687 57.3754113,19.7874491 C57.1051401,20.1172112 56.7661609,20.3769514 56.3584637,20.5666775 C55.9507664,20.7564037 55.4766537,20.8512653 54.9361113,20.8512653 C54.7620383,20.8512653 54.5673543,20.8331964 54.3520535,20.7970581 C54.1367527,20.7609198 53.9237455,20.7021959 53.7130256,20.6208847 C53.5023057,20.5395735 53.3030409,20.4289016 53.1152253,20.2888656 C52.9274097,20.1488297 52.7693721,19.9749167 52.6411078,19.7671214 L52.6136228,19.7671214 L52.6136228,23.3718999 L51.4455072,23.3718999 L51.4455072,13.6959153 Z M56.9425214,17.1380723 C56.9425214,16.8128275 56.8990039,16.4943634 56.8119674,16.1826705 C56.7249309,15.8709775 56.5920877,15.5931684 56.4134338,15.3492348 C56.23478,15.1053012 56.00574,14.9110607 55.7263071,14.7665075 C55.4468741,14.6219542 55.1193469,14.5496787 54.7437158,14.5496787 C54.3497611,14.5496787 54.0153628,14.6264714 53.7405107,14.7800593 C53.4656586,14.9336471 53.2411994,15.1346634 53.0671264,15.3831143 C52.8930534,15.6315652 52.7670815,15.9138916 52.6892067,16.2301018 C52.6113319,16.546312 52.5723951,16.8670347 52.5723951,17.1922795 C52.5723951,17.5355935 52.6136223,17.8676092 52.696078,18.1883368 C52.7785336,18.5090643 52.9090864,18.7913906 53.0877402,19.0353242 C53.2663941,19.2792578 53.4977245,19.4757569 53.7817383,19.6248275 C54.0657521,19.773898 54.409312,19.8484322 54.8124284,19.8484322 C55.2155448,19.8484322 55.5522336,19.7716394 55.8225048,19.6180516 C56.092776,19.4644637 56.310364,19.2611888 56.4752752,19.0082206 C56.6401865,18.7552524 56.7592873,18.4661503 56.8325812,18.1409055 C56.9058751,17.8156607 56.9425214,17.4813863 56.9425214,17.1380723 Z M69.2420907,13.8585369 C69.1687969,13.1628744 68.9145625,12.6592043 68.47938,12.3475113 C68.0441976,12.0358184 67.4876304,11.8799742 66.809662,11.8799742 C66.5348099,11.8799742 66.2645427,11.9070776 65.9988524,11.961285 C65.733162,12.0154925 65.4972508,12.1058369 65.2911118,12.232321 C65.0849727,12.3588051 64.9200639,12.5282009 64.7963805,12.7405135 C64.6726971,12.9528261 64.6108563,13.2170835 64.6108563,13.5332937 C64.6108563,13.8314348 64.7001819,14.0731062 64.8788357,14.258315 C65.0574896,14.4435239 65.2956911,14.5948508 65.5934476,14.7123003 C65.891204,14.8297498 66.2278927,14.92687 66.6035239,15.003664 C66.9791551,15.0804579 67.3616519,15.1640265 67.7510256,15.2543722 C68.1403994,15.344718 68.5228962,15.4508727 68.8985274,15.5728395 C69.2741585,15.6948063 69.6108473,15.8596849 69.9086037,16.0674802 C70.2063601,16.2752755 70.4445617,16.5372743 70.6232156,16.8534845 C70.8018694,17.1696948 70.891195,17.5672102 70.891195,18.0460429 C70.891195,18.5610138 70.7743846,19.0014429 70.5407604,19.3673433 C70.3071361,19.7332437 70.0070937,20.0313803 69.6406243,20.261762 C69.2741548,20.4921438 68.8641733,20.659281 68.4106673,20.7631786 C67.9571614,20.8670762 67.5059527,20.9190243 67.0570276,20.9190243 C66.5073234,20.9190243 65.9874027,20.851266 65.4972498,20.7157473 C65.0070969,20.5802286 64.5765018,20.3746951 64.2054515,20.0991404 C63.8344012,19.8235858 63.54123,19.4712426 63.3259292,19.0421001 C63.1106284,18.6129577 63.0029796,18.1047703 63.0029796,17.5175227 L64.2398078,17.5175227 C64.2398078,17.9240787 64.3199718,18.2741634 64.4803022,18.5677871 C64.6406326,18.8614109 64.8513493,19.1030823 65.1124588,19.2928084 C65.3735683,19.4825345 65.6781915,19.6225684 66.0263374,19.7129142 C66.3744834,19.8032599 66.7317858,19.8484322 67.0982552,19.8484322 C67.3914308,19.8484322 67.6868923,19.8213288 67.9846487,19.7671214 C68.2824052,19.7129139 68.5503819,19.6203109 68.7885871,19.4893095 C69.0267922,19.3583081 69.2191858,19.1798779 69.3657736,18.9540134 C69.5123613,18.728149 69.5856541,18.4390468 69.5856541,18.0866983 C69.5856541,17.7524189 69.4963285,17.4813856 69.3176747,17.2735903 C69.1390208,17.065795 68.9008193,16.8963992 68.6030628,16.7653978 C68.3053064,16.6343965 67.9686177,16.5282418 67.5929865,16.4469306 C67.2173553,16.3656194 66.8348586,16.2820508 66.4454848,16.1962223 C66.056111,16.1103938 65.6736142,16.0110149 65.297983,15.8980827 C64.9223519,15.7851505 64.5856631,15.6360822 64.2879067,15.4508733 C63.9901503,15.2656645 63.7519487,15.0262518 63.5732948,14.732628 C63.394641,14.4390042 63.3053154,14.0708507 63.3053154,13.6281563 C63.3053154,13.1402891 63.406093,12.7179289 63.6076512,12.3610631 C63.8092094,12.0041973 64.0771861,11.7105779 64.4115895,11.4801962 C64.7459929,11.2498144 65.1261992,11.07816 65.55222,10.9652278 C65.9782407,10.8522956 66.415707,10.7958303 66.8646321,10.7958303 C67.3685276,10.7958303 67.8357691,10.8545542 68.2663707,10.9720037 C68.6969723,11.0894532 69.0748883,11.2746593 69.4001299,11.5276275 C69.7253715,11.7805957 69.9818963,12.0990597 70.1697119,12.4830293 C70.3575275,12.8669989 70.4605955,13.3254968 70.4789189,13.8585369 L69.2420907,13.8585369 Z M73.9008103,13.6959153 L75.3162914,13.6959153 L75.3162914,14.7123003 L73.9008103,14.7123003 L73.9008103,19.0624278 C73.9008103,19.1979465 73.9122623,19.3063598 73.9351666,19.387671 C73.958071,19.4689822 74.0015886,19.5322233 74.0657207,19.5773962 C74.1298529,19.6225691 74.2191785,19.651931 74.3337002,19.6654829 C74.4482219,19.6790347 74.5970978,19.6858106 74.7803326,19.6858106 L75.3162914,19.6858106 L75.3162914,20.7021955 L74.4230266,20.7021955 C74.1206893,20.7021955 73.8618742,20.681868 73.6465734,20.6412124 C73.4312726,20.6005568 73.2572022,20.5260227 73.124357,20.4176077 C72.9915119,20.3091928 72.8930247,20.1556073 72.8288925,19.9568466 C72.7647604,19.7580858 72.7326948,19.496087 72.7326948,19.1708422 L72.7326948,14.7123003 L71.5233516,14.7123003 L71.5233516,13.6959153 L72.7326948,13.6959153 L72.7326948,11.5953865 L73.9008103,11.5953865 L73.9008103,13.6959153 Z M76.2232988,17.2058313 C76.2232988,16.6908604 76.2965916,16.2097763 76.4431794,15.7625647 C76.5897671,15.3153531 76.8096455,14.9268721 77.1028211,14.59711 C77.3959966,14.2673479 77.7578798,14.0076077 78.1884814,13.8178815 C78.619083,13.6281554 79.1138093,13.5332937 79.6726752,13.5332937 C80.2407029,13.5332937 80.7377196,13.6281554 81.1637403,13.8178815 C81.589761,14.0076077 81.9493538,14.2673479 82.2425294,14.59711 C82.5357049,14.9268721 82.7555833,15.3153531 82.9021711,15.7625647 C83.0487588,16.2097763 83.1220516,16.6908604 83.1220516,17.2058313 C83.1220516,17.7208023 83.0487588,18.1996277 82.9021711,18.642322 C82.7555833,19.0850164 82.5357049,19.4712388 82.2425294,19.8010009 C81.9493538,20.130763 81.589761,20.3882446 81.1637403,20.5734534 C80.7377196,20.7586623 80.2407029,20.8512653 79.6726752,20.8512653 C79.1138093,20.8512653 78.619083,20.7586623 78.1884814,20.5734534 C77.7578798,20.3882446 77.3959966,20.130763 77.1028211,19.8010009 C76.8096455,19.4712388 76.5897671,19.0850164 76.4431794,18.642322 C76.2965916,18.1996277 76.2232988,17.7208023 76.2232988,17.2058313 Z M77.460127,17.2058313 C77.460127,17.6304565 77.517387,18.0076445 77.6319087,18.3374066 C77.7464304,18.6671686 77.904468,18.9427191 78.1060262,19.1640663 C78.3075844,19.3854135 78.5434955,19.5548093 78.8137667,19.6722588 C79.084038,19.7897083 79.3703379,19.8484322 79.6726752,19.8484322 C79.9750125,19.8484322 80.2613125,19.7897083 80.5315837,19.6722588 C80.8018549,19.5548093 81.0377661,19.3854135 81.2393243,19.1640663 C81.4408825,18.9427191 81.59892,18.6671686 81.7134417,18.3374066 C81.8279634,18.0076445 81.8852234,17.6304565 81.8852234,17.2058313 C81.8852234,16.7812062 81.8279634,16.4040182 81.7134417,16.0742561 C81.59892,15.744494 81.4408825,15.4666849 81.2393243,15.2408204 C81.0377661,15.014956 80.8018549,14.8433016 80.5315837,14.7258521 C80.2613125,14.6084026 79.9750125,14.5496787 79.6726752,14.5496787 C79.3703379,14.5496787 79.084038,14.6084026 78.8137667,14.7258521 C78.5434955,14.8433016 78.3075844,15.014956 78.1060262,15.2408204 C77.904468,15.4666849 77.7464304,15.744494 77.6319087,16.0742561 C77.517387,16.4040182 77.460127,16.7812062 77.460127,17.2058313 Z M84.4550776,13.6959153 L85.5544804,13.6959153 L85.5544804,15.1730614 L85.5819655,15.1730614 C85.8659793,14.603883 86.2141201,14.1837815 86.6263982,13.9127441 C87.0386763,13.6417068 87.5608874,13.5152246 88.1930472,13.5332937 L88.1930472,14.7529557 C87.7257987,14.7529557 87.3272692,14.8161968 86.9974466,14.9426809 C86.6676241,15.069165 86.4019378,15.254371 86.2003796,15.4983046 C85.9988214,15.7422382 85.8522358,16.0381162 85.7606185,16.3859475 C85.6690011,16.7337787 85.6231931,17.1335528 85.6231931,17.5852817 L85.6231931,20.7021955 L84.4550776,20.7021955 L84.4550776,13.6959153 Z M94.885662,18.4797004 C94.7299125,19.2657087 94.3863526,19.8574647 93.8549719,20.2549861 C93.3235912,20.6525076 92.6547945,20.8512653 91.8485617,20.8512653 C91.280534,20.8512653 90.7880981,20.7609209 90.3712391,20.5802293 C89.9543801,20.3995378 89.603949,20.1465734 89.3199352,19.8213286 C89.0359213,19.4960838 88.8229142,19.1076027 88.6809073,18.6558738 C88.5389003,18.2041449 88.4587364,17.7117678 88.4404129,17.1787277 C88.4404129,16.6456876 88.5228673,16.1578277 88.6877785,15.7151334 C88.8526898,15.2724391 89.0840201,14.8884753 89.3817766,14.5632305 C89.679533,14.2379857 90.0322545,13.9850213 90.4399518,13.8043297 C90.8476491,13.6236382 91.294277,13.5332937 91.779849,13.5332937 C92.4120088,13.5332937 92.9365103,13.6620346 93.3533693,13.91952 C93.7702283,14.1770055 94.1046267,14.504504 94.3565744,14.9020255 C94.6085222,15.2995469 94.7825925,15.7332001 94.8787908,16.2029982 C94.974989,16.6727962 95.0139258,17.1200011 94.9956023,17.5446263 L89.6772411,17.5446263 C89.6680793,17.851802 89.7047257,18.1431627 89.7871814,18.4187173 C89.869637,18.694272 90.0024802,18.9382019 90.1857149,19.1505145 C90.3689496,19.3628271 90.6025704,19.5322229 90.8865842,19.658707 C91.170598,19.7851911 91.5049964,19.8484322 91.8897893,19.8484322 C92.384523,19.8484322 92.7899238,19.7355016 93.1060037,19.5096372 C93.4220836,19.2837727 93.63051,18.9404639 93.7312891,18.4797004 L94.885662,18.4797004 Z M93.7587741,16.5282414 C93.7404507,16.257204 93.6786099,15.9997224 93.5732499,15.7557888 C93.4678899,15.5118552 93.3258852,15.3018044 93.1472313,15.1256301 C92.9685774,14.9494559 92.7578607,14.809422 92.5150747,14.7055244 C92.2722887,14.6016267 92.0043119,14.5496787 91.7111363,14.5496787 C91.408799,14.5496787 91.1362415,14.6016267 90.8934555,14.7055244 C90.6506695,14.809422 90.4422431,14.9517145 90.2681701,15.132406 C90.0940971,15.3130976 89.9566731,15.5231484 89.855894,15.7625647 C89.7551149,16.001981 89.6955645,16.257204 89.6772411,16.5282414 L93.7587741,16.5282414 Z" id="Imported-Layers" fill="#7B6696"></path>
        </g>
    </g>
</svg>