<?xml version="1.0" encoding="utf-8"?>
<!-- Generator: Adobe Illustrator 22.0.1, SVG Export Plug-In . SVG Version: 6.00 Build 0)  -->
<svg version="1.1" id="Layer_1" xmlns="http://www.w3.org/2000/svg" xmlns:xlink="http://www.w3.org/1999/xlink" x="0px" y="0px"
	 viewBox="0 0 5 8" style="enable-background:new 0 0 5 8;" xml:space="preserve">
<style type="text/css">
	.st0{fill:#7B6696;}
</style>
<title>arrow-left</title>
<desc>Created with Sketch.</desc>
<g id="Desctop">
	<g id="Our-partners-1" transform="translate(-361.000000, -760.000000)">
		<g id="Group-4" transform="translate(345.000000, 746.000000)">
			
				<g id="Icons_x2F_Arrow" transform="translate(19.000000, 18.500000) rotate(-270.000000) translate(-19.000000, -18.500000) translate(15.000000, 16.000000)">
				<g id="Path-2">
					<path class="st0" d="M7.5,1.5c0,0.3-0.1,0.5-0.3,0.7l-3.1,3C3.9,5.4,3.7,5.5,3.4,5.5S2.9,5.4,2.7,5.2l-2.9-3
						c-0.4-0.4-0.4-1,0-1.4c0.4-0.4,1-0.4,1.4,0l2.2,2.3l2.4-2.3c0.4-0.4,1-0.4,1.4,0C7.4,1,7.5,1.2,7.5,1.5z"/>
				</g>
			</g>
		</g>
	</g>
</g>
</svg>
