<?xml version="1.0" encoding="UTF-8"?>
<svg width="16px" height="16px" viewBox="0 0 16 16" version="1.1" xmlns="http://www.w3.org/2000/svg" xmlns:xlink="http://www.w3.org/1999/xlink">
    <!-- Generator: sketchtool 52 (66869) - http://www.bohemiancoding.com/sketch -->
    <title>96B87A3D-57AC-4369-8519-ED7BF40C2A0E</title>
    <desc>Created with sketchtool.</desc>
    <g id="Desctop" stroke="none" stroke-width="1" fill="none" fill-rule="evenodd">
        <g id="Bounty-program-cooperation" transform="translate(-930.000000, -550.000000)">
            <rect fill="#FFFFFF" x="0" y="0" width="1110" height="728"></rect>
            <rect id="Rectangle" fill="#FFFFFF" fill-rule="nonzero" x="0" y="0.2" width="1110" height="728"></rect>
            <g id="Icons/small/attach" transform="translate(930.000000, 550.000000)" fill="#404750" fill-rule="nonzero">
                <g id="Path-2">
                    <path d="M6.99348237,4.47033691 L6.99348237,4.47033691 C7.54592548,4.47033691 7.99376912,4.91818055 7.99376912,5.47062366 L7.99376912,8.85904103 C7.99376912,9.25311754 8.189488,9.43637085 8.54164496,9.43637085 C8.92142062,9.43637085 8.98689012,9.10483285 8.98697011,8.85904103 C8.9873446,8.82941255 8.98870596,11.3645307 8.9907645,4.02667236 C8.9907645,3.29737789 8.3208484,2.01208496 7.02814841,2.01208496 C5.72559992,2.01208496 5.02224168,3.2895118 5.02224168,4.02667236 L5.02224168,10.5076904 C5.02224168,12.4960938 6.57258659,13.9737549 8.65908285,13.9737549 C10.7455791,13.9737549 11.996897,12.4832764 11.996897,10.5076904 L11.996897,6.61114619 C11.996897,6.05800458 12.4453069,5.6095947 12.9984485,5.6095947 L12.9984485,5.6095947 C13.5515901,5.6095947 14,6.05800458 14,6.61114619 C14,7.41961748 14,8.22808877 14,9.03656006 C14,12.3899499 13.5841903,16 8.55290571,16 C3.52162108,16 3,12.4465081 3,9.03656006 C3,6.76326138 3,5.28566607 3,4.60377415 C3,2.07223558 4.12724541,5.42010881e-13 7.01400771,0 C9.8930211,-5.39235323e-13 11.0172655,2.08151665 11.0172655,4.60383567 C10.9806269,7.82482221 10.9798624,9.243224 11.0149719,8.85904103 C11.0129266,10.916519 10.4918511,12.0013764 8.54778581,12.0013764 C6.58119985,12.0013764 5.99319562,10.9658158 5.99319562,8.85904103 L5.99319562,5.47062366 C5.99319562,4.91818055 6.44103925,4.47033691 6.99348237,4.47033691 Z"></path>
                </g>
            </g>
        </g>
    </g>
</svg>