<?xml version="1.0" encoding="UTF-8"?>
<svg width="149px" height="136px" viewBox="0 0 149 136" version="1.1" xmlns="http://www.w3.org/2000/svg" xmlns:xlink="http://www.w3.org/1999/xlink">
    <!-- Generator: Sketch 48.2 (47327) - http://www.bohemiancoding.com/sketch -->
    <title>b2b-focused</title>
    <desc>Created with Sketch.</desc>
    <defs>
        <linearGradient x1="1.50669643%" y1="98.4933036%" x2="98.6180786%" y2="1.38192135%" id="linearGradient-1">
            <stop stop-color="#B299D1" offset="0%"></stop>
            <stop stop-color="#D5B1E4" offset="100%"></stop>
        </linearGradient>
    </defs>
    <g id="Benefits" stroke="none" stroke-width="1" fill="none" fill-rule="evenodd" transform="translate(-639.000000, -572.000000)">
        <g id="b2b-focused" transform="translate(640.000000, 572.000000)">
            <g id="Group-15">
                <circle id="Oval-2" fill="#F6F2FB" cx="80" cy="68" r="68"></circle>
                <g id="Group-14" transform="translate(35.000000, 28.000000)">
                    <polygon id="Path-3" stroke="url(#linearGradient-1)" stroke-width="2" points="22.6608292 0 0 38.9413545 22.6608292 77.1112423 67.1771987 77.1112423 90.0031121 38.9413545 67.1771987 0"></polygon>
                    <polygon id="Path-3" stroke="#7B6696" stroke-width="3" fill="url(#linearGradient-1)" points="26.1016751 6 7 38.8251493 26.1016751 71 63.6262166 71 82.8670475 38.8251493 63.6262166 6"></polygon>
                    <path d="M43.0750392,47.9359103 L43.9375994,44.0893771 C43.3660034,43.3730079 43,42.3674218 43,41.5778809 C43,40.197169 44.1192881,40 45.5,40 C46.8807119,40 48,40.197169 48,41.5778809 C48,42.3458925 47.6536849,43.3183277 47.1086978,44.0301401 L48.0927246,47.7998272 L52.5922987,40 C56.7433869,41.4434851 59.9603351,42.8428485 62.2431432,44.1980901 C64.1819376,45.3491001 65.4802211,47.3312666 65.7606498,49.5684764 C66.2621957,53.5697198 63.4251303,57.2199517 59.4238869,57.7214977 L59.4238884,57.7215096 C55.1653158,58.2553111 50.5413167,58.5097875 45.551891,58.484939 C40.5569155,58.510281 35.9280755,58.2558289 31.6653716,57.7215096 L31.6653731,57.7214977 C27.6641297,57.2199517 24.8270643,53.5697198 25.3286103,49.5684764 C25.6090389,47.3312666 26.9073224,45.3491001 28.8461168,44.1980901 C31.1289249,42.8428485 34.3458731,41.4434851 38.4969613,40 L43.0750392,47.9359103 Z M45.5277615,38.7847402 C41.5449868,38.7847402 37.2813972,34.9876388 37.2813972,31.33803 C36.2469392,31.33803 34.9663797,29.6931157 35.0006744,28.3568099 C35.046551,26.5692114 35.4619726,25.6754121 36.2469392,25.6754121 C35.7403602,24.6175667 35.4870707,22.9125589 35.4870707,20.5603886 C35.4870707,17.0321331 39.2084891,13 45.5277615,13 C51.8443876,13.0018534 55.5640955,17.032944 55.5640955,20.5603886 C55.5640955,22.9125589 55.310806,24.6175667 54.804227,25.6754121 C55.5891936,25.6754121 56.0046152,26.5692114 56.0504918,28.3568099 C56.0847866,29.6931157 54.804227,31.33803 53.7697691,31.33803 C53.7697691,34.9863081 49.5092881,38.7819712 45.5277615,38.7847387 Z" id="Combined-Shape" fill="#F6F2FB"></path>
                </g>
                <g id="Group-13" transform="translate(44.000000, 1.000000)">
                    <rect id="Rectangle-3" fill="#C6A7DC" x="2" y="6" width="2" height="22"></rect>
                    <path d="M3,7 C0.790861001,7 -1,5.209139 -1,3 C-1,0.790861001 0.790861001,-1 3,-1 C5.209139,-1 7,0.790861001 7,3 C7,5.209139 5.209139,7 3,7 Z M3,5 C4.1045695,5 5,4.1045695 5,3 C5,1.8954305 4.1045695,1 3,1 C1.8954305,1 1,1.8954305 1,3 C1,4.1045695 1.8954305,5 3,5 Z" id="Oval" fill="#7B6696" fill-rule="nonzero"></path>
                    <rect id="Rectangle-3" fill="#C6A7DC" transform="translate(8.000000, 27.000000) rotate(-270.000000) translate(-8.000000, -27.000000) " x="7" y="21" width="2" height="12"></rect>
                </g>
                <g id="Group-13" transform="translate(0.000000, 64.000000)">
                    <rect id="Rectangle-3" fill="#B99ED4" transform="translate(20.500000, 3.000000) rotate(-270.000000) translate(-20.500000, -3.000000) " x="19.5" y="-11.5" width="2" height="29"></rect>
                    <circle id="Oval" stroke="#7B6696" stroke-width="2" cx="3" cy="3" r="3"></circle>
                </g>
                <g id="Group-13" transform="translate(48.000000, 113.500000) scale(-1, 1) rotate(-180.000000) translate(-48.000000, -113.500000) translate(38.000000, 104.000000)">
                    <rect id="Rectangle-3" fill="#B79DD4" x="2" y="6" width="2" height="13"></rect>
                    <path d="M3,7 C0.790861001,7 -1,5.209139 -1,3 C-1,0.790861001 0.790861001,-1 3,-1 C5.209139,-1 7,0.790861001 7,3 C7,5.209139 5.209139,7 3,7 Z M3,5 C4.1045695,5 5,4.1045695 5,3 C5,1.8954305 4.1045695,1 3,1 C1.8954305,1 1,1.8954305 1,3 C1,4.1045695 1.8954305,5 3,5 Z" id="Oval" fill="#7B6696" fill-rule="nonzero"></path>
                    <rect id="Rectangle-3" fill="#B79DD4" transform="translate(11.000000, 18.000000) rotate(-270.000000) translate(-11.000000, -18.000000) " x="10" y="9" width="2" height="18"></rect>
                </g>
                <g id="Group-13" transform="translate(132.500000, 40.000000) scale(-1, 1) translate(-132.500000, -40.000000) translate(125.000000, 12.000000)">
                    <rect id="Rectangle-3" fill="#CEACE0" x="3" y="7" width="2" height="49"></rect>
                    <path d="M4,8 C1.790861,8 0,6.209139 0,4 C0,1.790861 1.790861,0 4,0 C6.209139,0 8,1.790861 8,4 C8,6.209139 6.209139,8 4,8 Z M4,6 C5.1045695,6 6,5.1045695 6,4 C6,2.8954305 5.1045695,2 4,2 C2.8954305,2 2,2.8954305 2,4 C2,5.1045695 2.8954305,6 4,6 Z" id="Oval" fill="#7B6696" fill-rule="nonzero"></path>
                    <rect id="Rectangle-3" fill="#CEACE0" transform="translate(9.000000, 55.000000) rotate(-270.000000) translate(-9.000000, -55.000000) " x="8" y="49" width="2" height="12"></rect>
                </g>
                <g id="Group-13" transform="translate(128.000000, 87.500000) rotate(-180.000000) translate(-128.000000, -87.500000) translate(118.000000, 78.000000)">
                    <rect id="Rectangle-3" fill="#C6A7DC" x="2" y="6" width="2" height="13"></rect>
                    <path d="M3,7 C0.790861001,7 -1,5.209139 -1,3 C-1,0.790861001 0.790861001,-1 3,-1 C5.209139,-1 7,0.790861001 7,3 C7,5.209139 5.209139,7 3,7 Z M3,5 C4.1045695,5 5,4.1045695 5,3 C5,1.8954305 4.1045695,1 3,1 C1.8954305,1 1,1.8954305 1,3 C1,4.1045695 1.8954305,5 3,5 Z" id="Oval" fill="#7B6696" fill-rule="nonzero"></path>
                    <rect id="Rectangle-3" fill="#C6A7DC" transform="translate(11.000000, 18.000000) rotate(-270.000000) translate(-11.000000, -18.000000) " x="10" y="9" width="2" height="18"></rect>
                </g>
            </g>
        </g>
    </g>
</svg>