<?xml version="1.0" encoding="UTF-8"?>
<svg width="140px" height="160px" viewBox="0 0 140 160" version="1.1" xmlns="http://www.w3.org/2000/svg" xmlns:xlink="http://www.w3.org/1999/xlink">
    <!-- Generator: Sketch 49.3 (51167) - http://www.bohemiancoding.com/sketch -->
    <title>b2b</title>
    <desc>Created with Sketch.</desc>
    <defs></defs>
    <g id="b2b" stroke="none" stroke-width="1" fill="none" fill-rule="evenodd">
        <g id="Group-56">
            <polygon id="Fill-1" fill="#F7F7F7" points="0 40.0075 0 119.4185 69.999 160.0005 70.002 160.0005 139.999 118.7895 139.999 40.0075 70 0.0005"></polygon>
            <polygon id="Fill-2" fill="#E8E8E8" points="127.3259 47.2485 69.9999 14.4845 12.6739 47.2485 12.6739 112.2815 69.9999 145.5155 127.3259 111.7665"></polygon>
            <g id="Group-55" transform="translate(12.000000, 23.000000)">
                <path d="M105.6262,81.1128 C105.6262,83.2138 103.8942,84.9308 101.7762,84.9308 L23.3762,84.9308 C21.2582,84.9308 19.5262,83.2138 19.5262,81.1128 L19.5262,46.7478 C19.5262,44.6508 21.2582,42.9298 23.3762,42.9298 L101.7762,42.9298 C103.8942,42.9298 105.6262,44.6508 105.6262,46.7478 L105.6262,81.1128 Z" id="Fill-3" fill="#4A3777"></path>
                <path d="M44.4475,15.4721 L41.4235,15.4721 L41.4235,10.5741 C41.4235,7.4851 43.9565,4.9721 47.0705,4.9721 L47.9755,4.9721 L47.9755,7.9721 L47.0705,7.9721 C45.6235,7.9721 44.4475,9.1391 44.4475,10.5741 L44.4475,15.4721 Z" id="Fill-5" fill="#D86600"></path>
                <path d="M47.9758,16.4721 L37.8938,16.4721 C37.8938,14.2631 39.6848,12.4721 41.8938,12.4721 L43.9758,12.4721 C46.1848,12.4721 47.9758,14.2631 47.9758,16.4721" id="Fill-7" fill="#2E214F"></path>
                <path d="M80.741,15.4721 L83.765,15.4721 L83.765,10.5741 C83.765,7.4851 81.232,4.9721 78.118,4.9721 L77.212,4.9721 L77.212,7.9721 L78.118,7.9721 C79.564,7.9721 80.741,9.1391 80.741,10.5741 L80.741,15.4721 Z" id="Fill-9" fill="#D86600"></path>
                <path d="M77.2122,16.4721 L87.2942,16.4721 C87.2942,14.2631 85.5032,12.4721 83.2942,12.4721 L81.2122,12.4721 C79.0032,12.4721 77.2122,14.2631 77.2122,16.4721" id="Fill-11" fill="#2E214F"></path>
                <path d="M101.7766,42.1372 L23.3766,42.1372 C21.2586,42.1372 19.5266,43.8532 19.5266,45.9532 L19.5266,51.9082 L62.4806,63.0012 L105.6266,51.9082 L105.6266,45.9532 C105.6266,43.8532 103.8946,42.1372 101.7766,42.1372" id="Fill-13" fill="#2E214F"></path>
                <path d="M106.8064,18.4321 L106.8064,50.8861 L62.5944,59.8861 L18.3824,50.8861 L18.3824,18.4331 C18.3824,16.3321 20.1144,14.6151 22.2324,14.6151 L102.9574,14.6151 C105.0744,14.6151 106.8064,16.3321 106.8064,18.4321" id="Fill-15" fill="#4A3777"></path>
                <path d="M69.491,66.3139 L57.115,66.3139 C55.9,66.3139 54.916,65.3369 54.916,64.1329 L54.916,56.2249 C54.916,55.0209 55.9,54.0439 57.115,54.0439 L69.491,54.0439 C70.705,54.0439 71.689,55.0209 71.689,56.2249 L71.689,64.1329 C71.689,65.3369 70.705,66.3139 69.491,66.3139" id="Fill-17" fill="#4A3777"></path>
                <path d="M101.7766,78.9311 L23.3766,78.9311 C21.2586,78.9311 19.5266,77.2131 19.5266,75.1131 L19.5266,81.1131 C19.5266,83.2131 21.2586,84.9311 23.3766,84.9311 L101.7766,84.9311 C103.8946,84.9311 105.6266,83.2131 105.6266,81.1131 L105.6266,75.1131 C105.6266,77.2131 103.8946,78.9311 101.7766,78.9311" id="Fill-19" fill="#2E214F"></path>
                <path d="M24.3845,23.1127 L100.7685,23.1127 C102.8855,23.1127 104.6185,24.8307 104.6185,26.9307 L104.6185,20.9307 C104.6185,18.8307 102.8855,17.1127 100.7685,17.1127 L24.3845,17.1127 C22.2665,17.1127 20.5345,18.8307 20.5345,20.9307 L20.5345,26.9307 C20.5345,24.8307 22.2665,23.1127 24.3845,23.1127" id="Fill-21" fill="#6C578B"></path>
                <path d="M65.1321,59.4721 C65.1321,58.2261 63.9841,57.2461 62.6801,57.5171 C61.9491,57.6691 61.3391,58.2501 61.1621,58.9701 C61.0181,59.5541 61.1331,60.1041 61.4151,60.5391 C61.8251,61.1711 62.1081,61.8761 62.1081,62.6281 L62.1081,63.4721 C62.1081,64.0251 62.5591,64.4721 63.1161,64.4721 C63.6731,64.4721 64.1241,64.0251 64.1241,63.4721 L64.1241,62.4131 C64.1241,61.7541 64.3921,61.1441 64.7731,60.6041 C64.9991,60.2841 65.1321,59.8941 65.1321,59.4721" id="Fill-23" fill="#2E214F"></path>
                <path d="M77.4182,2.3296 C75.1832,1.5766 70.5272,0.4726 62.4472,0.4726 C54.3672,0.4726 49.7112,1.5766 47.4772,2.3296 C46.5022,2.6576 45.8132,3.9076 45.8132,5.3596 C45.8132,5.7256 45.8682,6.0676 45.9472,6.3916 C46.2882,7.7936 47.2852,8.7226 48.3542,8.4116 C50.8382,7.6906 55.3052,6.8286 62.4472,6.8286 C69.5892,6.8286 74.0562,7.6906 76.5402,8.4116 C77.5032,8.6906 78.4112,7.9686 78.8332,6.7996 C78.9882,6.3696 79.0822,5.8846 79.0822,5.3596 C79.0822,3.9076 78.3922,2.6576 77.4182,2.3296" id="Fill-25" fill="#FFC033"></path>
                <path d="M48.3542,8.4116 C50.8382,7.6906 55.3052,6.8286 62.4472,6.8286 C69.5892,6.8286 74.0562,7.6906 76.5402,8.4116 C77.3372,8.6426 78.0932,8.1816 78.5702,7.3536 C78.2792,6.8566 77.8822,6.4866 77.4182,6.3296 C75.1832,5.5766 70.5272,4.4726 62.4472,4.4726 C54.3672,4.4726 49.7112,5.5766 47.4772,6.3296 C47.0122,6.4866 46.6162,6.8566 46.3242,7.3536 C46.7992,8.1836 47.5562,8.6426 48.3542,8.4116" id="Fill-27" fill="#D86600"></path>
                <path d="M91.1809,107.4917 C91.1809,109.6807 89.3749,111.4717 87.1679,111.4717 L5.4419,111.4717 C3.2339,111.4717 1.4289,109.6807 1.4289,107.4917 L1.4289,71.6687 C1.4289,69.4817 3.2339,67.6887 5.4419,67.6887 L87.1679,67.6887 C89.3749,67.6887 91.1809,69.4817 91.1809,71.6687 L91.1809,107.4917 Z" id="Fill-29" fill="#FFC033"></path>
                <path d="M27.4065,39.0659 L24.2535,39.0659 L24.2535,33.9599 C24.2535,30.7399 26.8945,28.1209 30.1405,28.1209 L31.0845,28.1209 L31.0845,31.2479 L30.1405,31.2479 C28.6335,31.2479 27.4065,32.4639 27.4065,33.9599 L27.4065,39.0659 Z" id="Fill-31" fill="#D86600"></path>
                <path d="M31.0847,40.1088 L20.5757,40.1088 C20.5757,37.8058 22.4417,35.9388 24.7457,35.9388 L26.9147,35.9388 C29.2177,35.9388 31.0847,37.8058 31.0847,40.1088" id="Fill-33" fill="#2E214F"></path>
                <path d="M65.2395,39.0659 L68.3925,39.0659 L68.3925,33.9599 C68.3925,30.7399 65.7515,28.1209 62.5055,28.1209 L61.5615,28.1209 L61.5615,31.2479 L62.5055,31.2479 C64.0135,31.2479 65.2395,32.4639 65.2395,33.9599 L65.2395,39.0659 Z" id="Fill-35" fill="#D86600"></path>
                <path d="M61.5613,40.1088 L72.0703,40.1088 C72.0703,37.8058 70.2043,35.9388 67.9013,35.9388 L65.7313,35.9388 C63.4283,35.9388 61.5613,37.8058 61.5613,40.1088" id="Fill-37" fill="#2E214F"></path>
                <path d="M46.323,24.4716 C37.9,24.4716 33.047,25.6236 30.717,26.4086 C29.702,26.7506 28.983,28.0546 28.983,29.5676 C28.983,29.9496 29.04,30.3046 29.122,30.6426 C29.478,32.1036 30.4130762,32.3325215 31.5280762,32.0095215 C34.1180762,31.2585215 38.878,30.2458496 46.323,30.2458496 C53.768,30.2458496 58.1082422,31.2585215 60.6982422,32.0095215 C61.7022422,32.3005215 62.964,32.2856 63.404,31.0676 C63.565,30.6196 63.663,30.1136 63.663,29.5676 C63.663,28.0546 62.945,26.7506 61.929,26.4086 C59.599,25.6236 54.746,24.4716 46.323,24.4716 Z" id="Fill-39" fill="#FFC033"></path>
                <path d="M87.1677,66.8618 L5.4417,66.8618 C3.2337,66.8618 1.4287,68.6518 1.4287,70.8408 L1.4287,77.0478 L46.2047,88.6118 L91.1807,77.0478 L91.1807,70.8408 C91.1807,68.6518 89.3757,66.8618 87.1677,66.8618" id="Fill-41" fill="#D86600"></path>
                <path d="M92.4109,42.1518 L92.4109,75.9828 L46.3229,85.3648 L0.2359,75.9828 L0.2359,42.1528 C0.2359,39.9638 2.0409,38.1728 4.2489,38.1728 L88.3979,38.1728 C90.6049,38.1728 92.4109,39.9638 92.4109,42.1518" id="Fill-43" fill="#F9A510"></path>
                <path d="M53.5125,92.0649 L40.6115,92.0649 C39.3455,92.0649 38.3195,91.0469 38.3195,89.7919 L38.3195,81.5479 C38.3195,80.2929 39.3455,79.2749 40.6115,79.2749 L53.5125,79.2749 C54.7785,79.2749 55.8045,80.2929 55.8045,81.5479 L55.8045,89.7919 C55.8045,91.0469 54.7785,92.0649 53.5125,92.0649" id="Fill-45" fill="#4A3777"></path>
                <path d="M87.1677,105.2173 L5.4417,105.2173 C3.2337,105.2173 1.4287,103.4263 1.4287,101.2373 L1.4287,107.4913 C1.4287,109.6813 3.2337,111.4723 5.4417,111.4723 L87.1677,111.4723 C89.3757,111.4723 91.1807,109.6813 91.1807,107.4913 L91.1807,101.2373 C91.1807,103.4263 89.3757,105.2173 87.1677,105.2173" id="Fill-47" fill="#F9A510"></path>
                <path d="M6.4924,47.0307 L86.1174,47.0307 C88.3244,47.0307 90.1304,48.8217 90.1304,51.0107 L90.1304,44.7577 C90.1304,42.5667 88.3244,40.7757 86.1174,40.7757 L6.4924,40.7757 C4.2844,40.7757 2.4794,42.5667 2.4794,44.7577 L2.4794,51.0107 C2.4794,48.8217 4.2844,47.0307 6.4924,47.0307" id="Fill-49" fill="#FFC033"></path>
                <path d="M48.969,84.9331 C48.969,83.6341 47.772,82.6131 46.412,82.8951 C45.651,83.0531 45.015,83.6601 44.83,84.4101 C44.68,85.0181 44.8,85.5911 45.094,86.0451 C45.522,86.7041 45.816,87.4391 45.816,88.2231 L45.816,89.1021 C45.816,89.6781 46.287,90.1451 46.867,90.1451 C47.448,90.1451 47.918,89.6781 47.918,89.1021 L47.918,87.9981 C47.918,87.3111 48.197,86.6751 48.594,86.1131 C48.83,85.7781 48.969,85.3721 48.969,84.9331" id="Fill-51" fill="#2E214F"></path>
                <path d="M31.6321,32.7485 C34.2221,31.9975 38.8781,31.0985 46.3231,31.0985 C53.7681,31.0985 58.4241,31.9975 61.0141,32.7485 C61.8451,32.9895 62.6331,32.5085 63.1301,31.6455 C62.8261,31.1275 62.4131,30.7415 61.9291,30.5785 C59.5991,29.7935 54.7461,28.6425 46.3231,28.6425 C37.9001,28.6425 33.0471,29.7935 30.7171,30.5785 C30.2331,30.7415 29.8201,31.1275 29.5161,31.6455 C30.0111,32.5115 30.8001,32.9895 31.6321,32.7485" id="Fill-53" fill="#D86600"></path>
            </g>
        </g>
    </g>
</svg>