<?xml version="1.0" encoding="utf-8"?>
<!-- Generator: Adobe Illustrator 22.1.0, SVG Export Plug-In . SVG Version: 6.00 Build 0)  -->
<svg version="1.1" id="Шар_1" xmlns="http://www.w3.org/2000/svg" xmlns:xlink="http://www.w3.org/1999/xlink" x="0px" y="0px"
	 viewBox="0 0 971 338.7" style="enable-background:new 0 0 971 338.7;" xml:space="preserve">
<style type="text/css">
	.st0{fill:#FBBB0E;}
</style>
<g>
	<g>
		<polygon class="st0" points="126.3,233.4 126.3,117 227.1,58.8 327.9,117 327.9,233.4 227.1,291.6 		"/>
		<g>
			<g>
				<path d="M242.3,104.7c-2-0.5-3.8-1.7-5-3.5c-2.3-3.7-1.2-8.6,2.5-11L289.8,59c3.7-2.3,8.6-1.2,11,2.5c2.3,3.7,1.2,8.6-2.5,11
					l-49.9,31.1C246.5,104.8,244.3,105.1,242.3,104.7z"/>
			</g>
			<g>
				<path d="M202.4,167.9c-2-0.5-3.8-1.7-5-3.5c-2.3-3.7-1.2-8.6,2.5-11l132.8-82.9c3.7-2.3,8.6-1.2,11,2.5c2.3,3.7,1.2,8.6-2.5,11
					l-132.8,82.9C206.5,168.1,204.4,168.4,202.4,167.9z"/>
			</g>
			<g>
				<path d="M91.7,276.7c-2-0.5-3.8-1.7-5-3.5c-2.3-3.7-1.2-8.6,2.5-11L365.3,90c3.7-2.3,8.6-1.2,11,2.5c2.3,3.7,1.2,8.6-2.5,11
					L97.7,275.7C95.9,276.9,93.7,277.2,91.7,276.7z"/>
			</g>
			<g>
				<path d="M191.9,255.4c-2-0.5-3.8-1.7-5-3.5c-2.3-3.7-1.2-8.6,2.5-11l120.3-75.1c3.7-2.3,8.6-1.2,11,2.5c2.3,3.7,1.2,8.6-2.5,11
					l-120.3,75.1C196.1,255.6,193.9,255.9,191.9,255.4z"/>
			</g>
			<g>
				<path d="M242.7,262.3c-2-0.5-3.8-1.7-5-3.5c-2.3-3.7-1.2-8.6,2.5-11l43.1-26.9c3.7-2.3,8.6-1.2,11,2.5c2.3,3.7,1.2,8.6-2.5,11
					l-43.1,26.9C246.8,262.5,244.7,262.8,242.7,262.3z"/>
			</g>
		</g>
	</g>
	<g>
		<path d="M377.2,148.5c1,0,1.8,0.3,2.4,0.9c0.6,0.6,1,1.4,1,2.5v35.4c2.5-4,5.9-7.2,10.3-9.5c4.3-2.3,9.2-3.5,14.6-3.5
			c6,0,11.4,1.4,16.2,4.1c4.8,2.8,8.6,6.6,11.4,11.4c2.8,4.8,4.1,10.2,4.1,16.1c0,6-1.4,11.4-4.1,16.2c-2.8,4.8-6.6,8.6-11.4,11.4
			c-4.8,2.8-10.2,4.1-16.2,4.1c-5.8,0-11.1-1.3-15.9-4c-4.8-2.7-8.6-6.4-11.4-11.2c-2.8-4.8-4.2-10.1-4.3-15.9v-0.2v-54.5
			c0-1.1,0.3-1.9,0.9-2.5C375.3,148.8,376.1,148.5,377.2,148.5z M405.4,231.4c4.7,0,8.9-1.1,12.7-3.3c3.8-2.2,6.8-5.3,9-9.1
			c2.2-3.9,3.3-8.2,3.3-12.9c0-4.8-1.1-9.1-3.3-12.9c-2.2-3.9-5.2-6.9-9-9.1c-3.8-2.2-8-3.3-12.7-3.3c-4.7,0-8.9,1.1-12.7,3.3
			c-3.8,2.2-6.7,5.2-8.9,9.1c-2.2,3.9-3.2,8.2-3.2,12.9c0,4.8,1.1,9.1,3.2,12.9c2.2,3.9,5.1,6.9,8.9,9.1
			C396.5,230.3,400.7,231.4,405.4,231.4z"/>
		<path d="M494.7,178.4c4.3,2.6,7.7,6.2,10.1,10.8c2.4,4.6,3.6,9.9,3.6,15.8c0,1-0.3,1.8-0.9,2.3s-1.4,0.9-2.4,0.9h-47.5
			c0.2,4.5,1.4,8.4,3.5,12c2.1,3.5,5,6.3,8.5,8.2c3.6,2,7.5,2.9,11.9,2.9c2.9,0,5.9-0.5,8.9-1.5c3-1,5.3-2.4,7.1-4
			c0.8-0.6,1.5-0.9,2.4-0.9c0.8,0,1.5,0.2,2,0.7c0.8,0.7,1.2,1.5,1.2,2.4c0,0.8-0.3,1.5-1,2.2c-2.4,2.2-5.6,4-9.5,5.4
			c-3.9,1.4-7.6,2.2-11.2,2.2c-6,0-11.3-1.3-15.9-4c-4.7-2.7-8.3-6.4-10.9-11.2c-2.6-4.8-4-10.2-4-16.3c0-6.1,1.2-11.6,3.7-16.4
			c2.5-4.8,5.9-8.5,10.3-11.2c4.4-2.7,9.5-4,15.1-4C485.4,174.5,490.4,175.8,494.7,178.4z M465,186.7c-4,3.9-6.4,9.1-7.2,15.5h44.1
			c-0.5-6.4-2.8-11.6-6.8-15.5c-4-3.9-9.1-5.9-15.2-5.9C474,180.8,469,182.8,465,186.7z"/>
		<path d="M561.5,178.4c4.3,2.6,7.7,6.2,10.1,10.8c2.4,4.6,3.6,9.9,3.6,15.8c0,1-0.3,1.8-0.9,2.3c-0.6,0.6-1.4,0.9-2.4,0.9h-47.5
			c0.2,4.5,1.4,8.4,3.5,12c2.1,3.5,5,6.3,8.5,8.2c3.6,2,7.5,2.9,11.9,2.9c2.9,0,5.9-0.5,8.9-1.5c3-1,5.3-2.4,7.1-4
			c0.8-0.6,1.5-0.9,2.4-0.9c0.8,0,1.5,0.2,2,0.7c0.8,0.7,1.2,1.5,1.2,2.4c0,0.8-0.3,1.5-1,2.2c-2.4,2.2-5.6,4-9.5,5.4
			c-3.9,1.4-7.6,2.2-11.2,2.2c-6,0-11.3-1.3-15.9-4c-4.7-2.7-8.3-6.4-10.9-11.2c-2.6-4.8-4-10.2-4-16.3c0-6.1,1.2-11.6,3.7-16.4
			c2.5-4.8,5.9-8.5,10.3-11.2c4.4-2.7,9.5-4,15.1-4C552.2,174.5,557.2,175.8,561.5,178.4z M531.8,186.7c-4,3.9-6.4,9.1-7.2,15.5
			h44.1c-0.5-6.4-2.8-11.6-6.8-15.5c-4-3.9-9.1-5.9-15.2-5.9C540.8,180.8,535.8,182.8,531.8,186.7z"/>
		<path d="M639.8,184.8c0.8,0.8,1.1,1.8,1.1,2.9c0,1.7-0.8,3.1-2.5,4.2c-0.8,0.5-1.6,0.8-2.6,0.8c-1.7,0-3.2-0.7-4.4-2
			c-1.9-2-4-3.5-6.2-4.5c-2.2-0.9-4.8-1.4-7.7-1.4c-5.8,0-10.5,1.9-14.2,5.8c-3.6,3.9-5.4,9.1-5.4,15.5c0,4.1,0.8,7.7,2.5,10.9
			c1.7,3.2,4.1,5.7,7.1,7.5s6.6,2.7,10.5,2.7c5.1,0,9.3-1.3,12.5-4c1.4-1.1,2.8-1.6,4.2-1.6c1.1,0,2,0.3,3,1
			c1.4,1.2,2.2,2.6,2.2,4.1c0,1.1-0.5,2.2-1.4,3.1c-5.4,5.1-12.2,7.6-20.4,7.6c-6,0-11.3-1.4-16.1-4.1c-4.8-2.7-8.5-6.5-11.2-11.3
			c-2.7-4.8-4-10.1-4-16c0-6,1.3-11.5,3.9-16.3c2.6-4.8,6.3-8.5,10.9-11.2c4.7-2.7,10-4,15.9-4C626.5,174.6,633.9,178,639.8,184.8z"
			/>
		<path d="M698,176.2c2.3,1.2,3.4,2.7,3.4,4.5c0,0.5,0,0.9-0.1,1.1c-0.7,2.4-2.2,3.6-4.5,3.6c-0.4,0-0.9-0.1-1.7-0.2
			c-3-0.5-5.5-0.8-7.4-0.8c-5.4,0-9.8,1.2-13.2,3.7c-3.3,2.5-5,5.9-5,10.1v33.1c0,1.8-0.5,3.2-1.4,4.2c-0.9,1-2.4,1.5-4.3,1.5
			c-1.8,0-3.2-0.5-4.2-1.4c-1-0.9-1.5-2.4-1.5-4.3v-50.7c0-1.8,0.5-3.2,1.5-4.2c1-1,2.4-1.5,4.2-1.5c3.8,0,5.7,1.9,5.7,5.7v2.2
			c2.3-2.6,5.1-4.7,8.4-6.2c3.3-1.5,6.9-2.3,10.7-2.3C692.6,174.4,695.7,175,698,176.2z"/>
		<path d="M764.2,180c0,0.8-0.2,1.7-0.7,2.7l-34.7,78c-0.9,2.3-2.4,3.5-4.4,3.5c-0.8,0-1.7-0.2-2.7-0.7c-2.3-1-3.4-2.5-3.4-4.4
			c0-0.9,0.2-1.8,0.7-2.7l11.3-25.5l-25.5-48.4c-0.4-0.7-0.6-1.5-0.6-2.4c0-1,0.3-1.9,0.9-2.7c0.6-0.8,1.4-1.5,2.4-1.9
			c0.7-0.3,1.4-0.5,2.3-0.5c2.1,0,3.7,1.1,4.8,3.2l20.8,41.3l18.3-41.2c1-2.2,2.5-3.3,4.4-3.3c1,0,1.9,0.2,2.7,0.6
			C763,176.5,764.2,178,764.2,180z"/>
		<path d="M821.5,178.7c4.8,2.8,8.6,6.5,11.3,11.3c2.7,4.8,4.1,10.1,4.1,16s-1.3,11.2-3.8,16c-2.5,4.8-6,8.6-10.4,11.3
			c-4.4,2.7-9.4,4.1-14.8,4.1c-4.4,0-8.5-0.9-12.2-2.7c-3.8-1.8-7-4.3-9.6-7.6v30.6c0,1.7-0.5,3.1-1.6,4.2c-1.1,1.1-2.5,1.6-4.2,1.6
			c-1.7,0-3-0.5-4.1-1.6c-1.1-1.1-1.6-2.5-1.6-4.2v-51.7c0-5.9,1.4-11.2,4.1-16c2.8-4.8,6.5-8.6,11.2-11.3c4.7-2.8,10-4.1,15.8-4.1
			C811.4,174.6,816.7,176,821.5,178.7z M815.9,224.6c3.1-1.9,5.5-4.4,7.3-7.6c1.8-3.2,2.7-6.8,2.7-10.8s-0.9-7.6-2.7-10.9
			s-4.2-5.8-7.3-7.7c-3.1-1.9-6.5-2.8-10.3-2.8c-3.8,0-7.2,0.9-10.3,2.8c-3.1,1.9-5.5,4.4-7.2,7.7c-1.7,3.3-2.6,6.9-2.6,10.9
			s0.9,7.6,2.6,10.8c1.7,3.2,4.1,5.7,7.2,7.6c3.1,1.9,6.5,2.8,10.3,2.8C809.4,227.3,812.8,226.4,815.9,224.6z"/>
		<path d="M884,227.3c0.9,1.1,1.4,2.4,1.4,4.1c0,1.7-0.6,3-1.9,4.1c-1.2,1.1-2.9,1.6-4.8,1.6h-2c-3.7,0-7.1-1-10.1-2.9
			c-3.1-1.9-5.5-4.6-7.2-7.9c-1.7-3.3-2.6-7.1-2.6-11.2v-28h-5.2c-1.6,0-2.9-0.5-3.9-1.4c-1-0.9-1.5-2-1.5-3.4
			c0-1.5,0.5-2.7,1.5-3.6c1-0.9,2.3-1.4,3.9-1.4h5.2V161c0-1.7,0.5-3,1.6-4.1c1.1-1.1,2.4-1.6,4.1-1.6c1.7,0,3,0.5,4.1,1.6
			c1.1,1.1,1.6,2.4,1.6,4.1v16.3h9.6c1.6,0,2.9,0.5,3.9,1.4c1,0.9,1.5,2.1,1.5,3.6c0,1.4-0.5,2.5-1.5,3.4c-1,0.9-2.3,1.4-3.9,1.4
			h-9.6v28c0,3,0.8,5.6,2.5,7.6c1.7,2,3.7,3.1,6.1,3.1h3.9C881.9,225.7,883.1,226.3,884,227.3z"/>
	</g>
</g>
</svg>
