<?xml version="1.0" encoding="UTF-8"?>
<svg width="209px" height="153px" viewBox="0 0 209 153" version="1.1" xmlns="http://www.w3.org/2000/svg" xmlns:xlink="http://www.w3.org/1999/xlink">
    <!-- Generator: Sketch 49.1 (51147) - http://www.bohemiancoding.com/sketch -->
    <title>Lightweight</title>
    <desc>Created with Sketch.</desc>
    <defs>
        <linearGradient x1="1.50669643%" y1="98.4933036%" x2="98.6180786%" y2="1.38192135%" id="linearGradient-1">
            <stop stop-color="#B299D1" offset="0%"></stop>
            <stop stop-color="#D5B1E4" offset="100%"></stop>
        </linearGradient>
        <polygon id="path-2" points="51.1016751 29 32 61.8251493 51.1016751 94 88.6262166 94 107.867047 61.8251493 88.6262166 29"></polygon>
    </defs>
    <g id="Desctop" stroke="none" stroke-width="1" fill="none" fill-rule="evenodd">
        <g id="Benefits" transform="translate(-409.000000, -640.000000)">
            <g id="Icons" transform="translate(345.000000, 640.000000)">
                <g id="Lightweight" transform="translate(64.000000, 0.000000)">
                    <g transform="translate(23.000000, 15.000000)">
                        <g id="Bg" transform="translate(12.000000, 0.000000)">
                            <polygon id="Page-1" fill="#F6F2FB" points="34.2476694 0 0 61.5006457 34.2476694 123 104.752968 123 139 61.5006457 104.752968 0"></polygon>
                            <polygon id="Path-3" stroke="url(#linearGradient-1)" stroke-width="2" points="47.6281382 23 25 61.8851769 47.6281382 100 92.0802874 100 114.873272 61.8851769 92.0802874 23"></polygon>
                            <g id="Path-3">
                                <use fill="url(#linearGradient-1)" fill-rule="evenodd" xlink:href="#path-2"></use>
                                <path stroke="#7B6696" stroke-width="3" d="M51.9642819,30.5 L33.739915,61.8175448 L51.9555797,92.5 L87.7754788,92.5 L106.123869,61.8175037 L87.7667618,30.5 L51.9642819,30.5 Z"></path>
                            </g>
                        </g>
                        <g id="Center" transform="translate(55.000000, 38.000000)" fill="#FFFFFF">
                            <rect id="Rectangle-9" x="26" y="6" width="2" height="36"></rect>
                            <circle id="Oval-7" cx="27" cy="4" r="2"></circle>
                            <rect id="Rectangle-9" transform="translate(27.577336, 6.142307) rotate(-255.000000) translate(-27.577336, -6.142307) " x="26.5773356" y="-13.8576933" width="2" height="40"></rect>
                            <path d="M18.5610515,20 C19.3595636,20 20.1719133,20 21,20 C21,23.5898509 16.2989899,26.5 10.5,26.5 C4.70101013,26.5 0,23.5898509 0,20 C0.726497404,20 1.45048354,20 2.17407651,20 L9.81462257,2 L10.8540039,2 L10.8394933,2.03438738 L10.9205049,2 L18.5610515,20 Z M17.4746912,20 L10.3455795,3.20486549 L3.25843517,20 C7.79692554,20 12.3615637,20 17.4746912,20 Z" id="Combined-Shape"></path>
                            <path d="M52.5610515,29 C53.3595636,29 54.1719133,29 55,29 C55,32.5898509 50.2989899,35.5 44.5,35.5 C38.7010101,35.5 34,32.5898509 34,29 C34.7264974,29 35.4504835,29 36.1740765,29 L43.8146226,11 L44.8540039,11 L44.8394933,11.0343874 L44.9205049,11 L52.5610515,29 Z M51.4746912,29 L44.3455795,12.2048655 L37.2584352,29 C41.7969255,29 46.3615637,29 51.4746912,29 Z" id="Combined-Shape"></path>
                            <path d="M26.5,46.5 C32.2989899,46.5 37,43.5898509 37,40 C29.1206055,40 22.6660156,40 16,40 C16,43.5898509 20.7010101,46.5 26.5,46.5 Z" id="Oval-5" transform="translate(26.500000, 43.250000) scale(1, -1) translate(-26.500000, -43.250000) "></path>
                        </g>
                        <g id="Line" transform="translate(17.000000, 36.000000)">
                            <rect id="Rectangle-11" fill="#B09CC9" x="8" y="27" width="2" height="17"></rect>
                            <polygon id="Combined-Shape" fill="#B09CC9" points="2 25 21.0117188 25 21.0117188 27 0 27 0 0 2 0"></polygon>
                            <polygon id="Combined-Shape" fill="#CCABDF" points="109.496094 25 124 25 124 48 122 48 122 27 109.496094 27"></polygon>
                        </g>
                        <g id="Down" transform="translate(8.000000, 79.000000)">
                            <path d="M17.5,35 C7.83501688,35 0,27.1649831 0,17.5 C0,7.83501688 7.83501688,0 17.5,0 C27.1649831,0 35,7.83501688 35,17.5 C35,27.1649831 27.1649831,35 17.5,35 Z M17.5,33.5416667 C26.3595679,33.5416667 33.5416667,26.3595679 33.5416667,17.5 C33.5416667,8.64043214 26.3595679,1.45833333 17.5,1.45833333 C8.64043214,1.45833333 1.45833333,8.64043214 1.45833333,17.5 C1.45833333,26.3595679 8.64043214,33.5416667 17.5,33.5416667 Z" id="Oval-3" fill="#B09CC9" fill-rule="nonzero"></path>
                            <path d="M17.5,4 C10.0565909,4 4,10.0565909 4,17.5 C4,24.9446364 10.0565909,31 17.5,31 C24.9434091,31 31,24.9446364 31,17.5 C31,10.0565909 24.9434091,4 17.5,4" id="Fill-385" fill="url(#linearGradient-1)"></path>
                            <polygon id="Fill-2" fill="#F6F2FB" points="11 13.9771038 16.0103687 13.9771038 16.0103687 16.3262849 11 16.3262849 11 19.1442122 18.830433 19.1442122 18.830433 13.9771038 21.1799357 13.9771038 21.1799357 21.1802935 11 21.1802935 11 24 24 24 24 11 11 11"></polygon>
                        </g>
                        <g id="Up" transform="translate(0.000000, 1.000000)">
                            <path d="M17.5,35 C7.83501688,35 0,27.1649831 0,17.5 C0,7.83501688 7.83501688,0 17.5,0 C27.1649831,0 35,7.83501688 35,17.5 C35,27.1649831 27.1649831,35 17.5,35 Z M17.5,33.5416667 C26.3595679,33.5416667 33.5416667,26.3595679 33.5416667,17.5 C33.5416667,8.64043214 26.3595679,1.45833333 17.5,1.45833333 C8.64043214,1.45833333 1.45833333,8.64043214 1.45833333,17.5 C1.45833333,26.3595679 8.64043214,33.5416667 17.5,33.5416667 Z" id="Oval-3" fill="#B09CC9" fill-rule="nonzero"></path>
                            <path d="M17.5,4 C10.0565909,4 4,10.0565909 4,17.5 C4,24.9446364 10.0565909,31 17.5,31 C24.9434091,31 31,24.9446364 31,17.5 C31,10.0565909 24.9434091,4 17.5,4" id="Fill-385" fill="url(#linearGradient-1)"></path>
                            <g id="Page-1" transform="translate(9.000000, 6.000000)" fill="#FFFFFF">
                                <path d="M17.9523946,8.39785118 C17.9523946,7.57257845 17.3206108,6.90356835 16.5412595,6.90356835 L12.7449892,6.90356835 L11.8874757,6.90356835 C11.8874757,6.90356835 11.4839081,6.68600269 11.7025027,5.59989158 C11.830827,4.96201953 13.2667189,0.766053199 10.676773,0.0269252525 C9.36834054,-0.224525926 10.2545568,1.98593199 9.63434054,3.01812391 C9.01417838,4.05031582 6.03617838,8.24914411 6.03617838,8.50202626 L6.03617838,16.5421104 C6.03617838,16.7949926 6.2298,17.0000229 6.46861081,17.0000229 L9.57715135,17.0000229 L14.010773,17.0000229 L14.6135297,17.0000229 C15.3148811,17.0000229 15.8834216,16.3979825 15.8834216,15.6553057 C15.8834216,15.4122687 15.8222324,15.1845717 15.7157459,14.9878411 C16.3061784,14.8722754 16.7534757,14.3246121 16.7534757,13.6659623 C16.7534757,13.2191542 16.5475838,12.8235178 16.2309351,12.5789926 C16.8973135,12.5378949 17.4258541,11.9527973 17.4258541,11.2368512 C17.4258541,10.4941744 16.8573135,9.89213401 16.1560162,9.89213401 L16.5412595,9.89213401 C17.3206108,9.89213401 17.9523946,9.22312391 17.9523946,8.39785118" id="Fill-1"></path>
                                <path d="M4.57731,8 L0.422689999,8 C0.189206611,8 0,8.2145267 0,8.47912161 L0,16.5208784 C0,16.7855332 0.189206611,17 0.422689999,17 L4.57731,17 C4.81074055,17 5,16.7855332 5,16.5208784 L5,8.47912161 C5,8.2145267 4.81074055,8 4.57731,8" id="Fill-4"></path>
                            </g>
                        </g>
                        <g id="Right" transform="translate(123.000000, 83.000000)">
                            <path d="M17.5,35 C7.83501688,35 0,27.1649831 0,17.5 C0,7.83501688 7.83501688,0 17.5,0 C27.1649831,0 35,7.83501688 35,17.5 C35,27.1649831 27.1649831,35 17.5,35 Z M17.5,33.5416667 C26.3595679,33.5416667 33.5416667,26.3595679 33.5416667,17.5 C33.5416667,8.64043214 26.3595679,1.45833333 17.5,1.45833333 C8.64043214,1.45833333 1.45833333,8.64043214 1.45833333,17.5 C1.45833333,26.3595679 8.64043214,33.5416667 17.5,33.5416667 Z" id="Oval-3" fill="#CCABDF" fill-rule="nonzero"></path>
                            <path d="M17.5,4 C10.0565909,4 4,10.0565909 4,17.5 C4,24.9446364 10.0565909,31 17.5,31 C24.9434091,31 31,24.9446364 31,17.5 C31,10.0565909 24.9434091,4 17.5,4" id="Fill-385" fill="url(#linearGradient-1)"></path>
                            <g id="Page-1" transform="translate(11.000000, 8.000000)" fill="#F6F2FB">
                                <path d="M4.78910286,5.96509637 L4.80251465,8.71015466 L8.7212648,8.71015466 C9.41726029,8.71015466 9.98131869,8.14139532 9.97793848,7.44200764 L9.97695713,7.23335297 C9.97346788,6.53374611 9.40395754,5.96509637 8.70796205,5.96509637 L5.3255744,5.96509637 L4.78910286,5.96509637 M10.475156,12.8828098 L10.4741747,12.6624293 C10.4704673,11.882166 9.83586075,11.2486404 9.0596126,11.2486404 L8.7335862,11.2486404 L4.81472701,11.2486404 L4.8295563,14.2967083 L5.36602784,14.2967083 L9.07433286,14.2967083 C9.85069005,14.2967083 10.4790814,13.6620868 10.475156,12.8828098 M12.9988621,12.6624293 L12.9999525,12.8828098 C13.0105292,15.0610814 11.2550024,16.8340982 9.08665426,16.8340982 L8.9907,16.8340982 L8.99637002,18.9990234 L6.47168261,18.9990234 L6.46601258,16.8340982 L5.43123313,16.8340982 L5.43679411,18.9990234 L2.9121067,18.9990234 L2.90643667,16.8340982 L2.31719029,16.8340982 L0.0168457031,16.8340982 L0.0045243039,14.2967083 L2.30486889,14.2967083 L2.2900396,11.2486404 L2.2777182,8.71015466 L2.26441545,5.96509637 L0.0168457031,5.96509637 L0.0045243039,3.42672018 L2.25198501,3.42672018 L2.84144947,3.42672018 L2.83447098,0.99206543 L5.35926743,0.99206543 L5.36613688,3.42672018 L6.40091634,3.42672018 L6.39404689,0.99206543 L8.9187343,0.99206543 L8.92571279,3.43855564 C10.9077134,3.55954028 12.491831,5.21255873 12.5016445,7.23335297 L12.5026259,7.44200764 C12.5068784,8.31761209 12.2122552,9.12253257 11.7190721,9.76679772 C12.4989186,10.4889796 12.9933011,11.5182258 12.9988621,12.6624293 Z" id="Fill-1"></path>
                            </g>
                        </g>
                    </g>
                </g>
            </g>
        </g>
    </g>
</svg>