<?xml version="1.0" encoding="UTF-8"?>
<svg width="209px" height="153px" viewBox="0 0 209 153" version="1.1" xmlns="http://www.w3.org/2000/svg" xmlns:xlink="http://www.w3.org/1999/xlink">
    <!-- Generator: Sketch 49.1 (51147) - http://www.bohemiancoding.com/sketch -->
    <title>Merged mining</title>
    <desc>Created with Sketch.</desc>
    <defs>
        <linearGradient x1="1.50669643%" y1="98.4933036%" x2="98.6180786%" y2="1.38192135%" id="linearGradient-1">
            <stop stop-color="#B299D1" offset="0%"></stop>
            <stop stop-color="#D5B1E4" offset="100%"></stop>
        </linearGradient>
        <polygon id="path-2" points="51.1016751 29 32 61.8251493 51.1016751 94 88.6262166 94 107.867047 61.8251493 88.6262166 29"></polygon>
    </defs>
    <g id="Desctop" stroke="none" stroke-width="1" fill="none" fill-rule="evenodd">
        <g id="Benefits" transform="translate(-1176.000000, -640.000000)">
            <g id="Icons" transform="translate(345.000000, 640.000000)">
                <g id="Merged-mining" transform="translate(831.000000, 0.000000)">
                    <g transform="translate(35.000000, 2.000000)">
                        <g id="Bg" transform="translate(0.000000, 13.000000)">
                            <polygon id="Page-1" fill="#F6F2FB" points="34.2476694 0 0 61.5006457 34.2476694 123 104.752968 123 139 61.5006457 104.752968 0"></polygon>
                            <polygon id="Path-3" stroke="url(#linearGradient-1)" stroke-width="2" points="47.6281382 23 25 61.8851769 47.6281382 100 92.0802874 100 114.873272 61.8851769 92.0802874 23"></polygon>
                            <g id="Path-3">
                                <use fill="url(#linearGradient-1)" fill-rule="evenodd" xlink:href="#path-2"></use>
                                <path stroke="#7B6696" stroke-width="3" d="M51.9642819,30.5 L33.739915,61.8175448 L51.9555797,92.5 L87.7754788,92.5 L106.123869,61.8175037 L87.7667618,30.5 L51.9642819,30.5 Z"></path>
                            </g>
                        </g>
                        <g id="Center" transform="translate(54.000000, 59.000000)" fill="#FFFFFF">
                            <polygon id="Fill-2" points="0 7.09928187 11.9477579 7.09928187 11.9477579 12.7011714 0 12.7011714 0 19.4207725 18.6725518 19.4207725 18.6725518 7.09928187 24.2752062 7.09928187 24.2752062 24.2761243 0 24.2761243 0 31 31 31 31 0 0 0"></polygon>
                        </g>
                        <g id="Line" transform="translate(11.000000, 7.000000)">
                            <rect id="Rectangle-15" fill="#B89ED4" x="0" y="67" width="14" height="2"></rect>
                            <polygon id="Path-3" fill="url(#linearGradient-1)" fill-rule="nonzero" points="20.1298072 1.31786067 21.8701928 0.332438011 38.0142358 28.8449352 36.2738501 29.8303578"></polygon>
                            <rect id="Rectangle-16" fill="#CEACE0" x="103" y="67" width="22" height="2"></rect>
                            <polygon id="Combined-Shape" fill="#B89DD4" points="28.8049837 116 35.4819336 105.642545 37.2139844 106.642545 30 117.93306 30 118 2 118 2 116 28.8049837 116"></polygon>
                            <polygon id="Combined-Shape" fill="#CDACE0" points="104.573242 28.0244141 112.039922 12 113.771973 13 106 30.0244141 79.9683838 30.0244141 79.9683838 28.0244141"></polygon>
                            <polygon id="Path-6" fill="#C1A4D9" fill-rule="nonzero" points="109.115418 125.071777 109.115418 127.071777 92.5769193 127.071777 79.1818642 106.76598 80.8513389 105.664684 93.6535494 125.071777"></polygon>
                        </g>
                        <g id="Right" transform="translate(133.000000, 54.000000)">
                            <circle id="Oval-4" fill="url(#linearGradient-1)" cx="20" cy="20" r="20"></circle>
                            <g id="Group-17" transform="translate(7.000000, 3.000000)" fill="#FFFFFF">
                                <path d="M4.16726189,14.6672619 C6.38401135,10.9814974 11.4911324,8.62305402 17.6672619,8.66789012 C23.8433914,8.71272622 28.5465517,10.5317506 31.1672619,14.6672619 C26.7849031,13.6124541 22.8406022,13.100111 17.7011695,12.987574 C12.5617369,12.8750371 8.13983595,13.6768114 4.16726189,14.6672619 Z" id="Path-5" transform="translate(17.667262, 11.667262) rotate(-315.000000) translate(-17.667262, -11.667262) "></path>
                                <path d="M6.48528137,10.4852814 L10.4852814,10.4852814 L10.4852814,28.4852814 C10.4852814,29.5898509 9.58985087,30.4852814 8.48528137,30.4852814 L8.48528137,30.4852814 C7.38071187,30.4852814 6.48528137,29.5898509 6.48528137,28.4852814 L6.48528137,10.4852814 Z" id="Rectangle-14" transform="translate(8.485281, 20.485281) rotate(45.000000) translate(-8.485281, -20.485281) "></path>
                                <path d="M21.8284271,4.82842712 L21.8284271,4.82842712 C22.9329966,4.82842712 23.8284271,5.72385763 23.8284271,6.82842712 L23.8284271,8.82842712 L19.8284271,8.82842712 L19.8284271,6.82842712 C19.8284271,5.72385763 20.7238576,4.82842712 21.8284271,4.82842712 Z" id="Rectangle-14" transform="translate(21.828427, 6.828427) rotate(45.000000) translate(-21.828427, -6.828427) "></path>
                            </g>
                        </g>
                        <g id="Circle" transform="translate(4.000000, 0.000000)" fill="#7B6696" fill-rule="nonzero">
                            <path d="M119.5,137 C117.014719,137 115,134.985281 115,132.5 C115,130.014719 117.014719,128 119.5,128 C121.985281,128 124,130.014719 124,132.5 C124,134.985281 121.985281,137 119.5,137 Z M119.5,135 C120.880712,135 122,133.880712 122,132.5 C122,131.119288 120.880712,130 119.5,130 C118.119288,130 117,131.119288 117,132.5 C117,133.880712 118.119288,135 119.5,135 Z" id="Oval-6"></path>
                            <path d="M121.5,21 C119.014719,21 117,18.9852814 117,16.5 C117,14.0147186 119.014719,12 121.5,12 C123.985281,12 126,14.0147186 126,16.5 C126,18.9852814 123.985281,21 121.5,21 Z M121.5,19 C122.880712,19 124,17.8807119 124,16.5 C124,15.1192881 122.880712,14 121.5,14 C120.119288,14 119,15.1192881 119,16.5 C119,17.8807119 120.119288,19 121.5,19 Z" id="Oval-6"></path>
                            <path d="M27.5,9 C25.0147186,9 23,6.98528137 23,4.5 C23,2.01471863 25.0147186,0 27.5,0 C29.9852814,0 32,2.01471863 32,4.5 C32,6.98528137 29.9852814,9 27.5,9 Z M27.5,7 C28.8807119,7 30,5.88071187 30,4.5 C30,3.11928813 28.8807119,2 27.5,2 C26.1192881,2 25,3.11928813 25,4.5 C25,5.88071187 26.1192881,7 27.5,7 Z" id="Oval-6"></path>
                            <path d="M6.5,128 C4.01471863,128 2,125.985281 2,123.5 C2,121.014719 4.01471863,119 6.5,119 C8.98528137,119 11,121.014719 11,123.5 C11,125.985281 8.98528137,128 6.5,128 Z M6.5,126 C7.88071187,126 9,124.880712 9,123.5 C9,122.119288 7.88071187,121 6.5,121 C5.11928813,121 4,122.119288 4,123.5 C4,124.880712 5.11928813,126 6.5,126 Z" id="Oval-6"></path>
                            <path d="M4.5,79 C2.01471863,79 0,76.9852814 0,74.5 C0,72.0147186 2.01471863,70 4.5,70 C6.98528137,70 9,72.0147186 9,74.5 C9,76.9852814 6.98528137,79 4.5,79 Z M4.5,77 C5.88071187,77 7,75.8807119 7,74.5 C7,73.1192881 5.88071187,72 4.5,72 C3.11928813,72 2,73.1192881 2,74.5 C2,75.8807119 3.11928813,77 4.5,77 Z" id="Oval-6"></path>
                        </g>
                    </g>
                </g>
            </g>
        </g>
    </g>
</svg>