<?xml version="1.0" encoding="UTF-8"?>
<svg width="209px" height="153px" viewBox="0 0 209 153" version="1.1" xmlns="http://www.w3.org/2000/svg" xmlns:xlink="http://www.w3.org/1999/xlink">
    <!-- Generator: Sketch 49.1 (51147) - http://www.bohemiancoding.com/sketch -->
    <title>Guaranted-return</title>
    <desc>Created with Sketch.</desc>
    <defs>
        <linearGradient x1="1.50669643%" y1="98.4933036%" x2="98.6180786%" y2="1.38192135%" id="linearGradient-1">
            <stop stop-color="#B299D1" offset="0%"></stop>
            <stop stop-color="#D5B1E4" offset="100%"></stop>
        </linearGradient>
        <polygon id="path-2" points="51.1016751 29 32 61.8251493 51.1016751 94 88.6262166 94 107.867047 61.8251493 88.6262166 29"></polygon>
    </defs>
    <g id="Style" stroke="none" stroke-width="1" fill="none" fill-rule="evenodd">
        <g transform="translate(-2133.000000, -4907.000000)" id="Guaranted-return">
            <g transform="translate(2133.000000, 4907.000000)">
                <g transform="translate(17.000000, 1.000000)">
                    <g id="Bg" transform="translate(18.000000, 14.000000)">
                        <polygon id="Page-1" fill="#F6F2FB" points="34.2476694 0 0 61.5006457 34.2476694 123 104.752968 123 139 61.5006457 104.752968 0"></polygon>
                        <polygon id="Path-3" stroke="url(#linearGradient-1)" stroke-width="2" points="47.6281382 23 25 61.8851769 47.6281382 100 92.0802874 100 114.873272 61.8851769 92.0802874 23"></polygon>
                        <g id="Path-3">
                            <use fill="url(#linearGradient-1)" fill-rule="evenodd" xlink:href="#path-2"></use>
                            <path stroke="#7B6696" stroke-width="3" d="M51.9642819,30.5 L33.739915,61.8175448 L51.9555797,92.5 L87.7754788,92.5 L106.123869,61.8175037 L87.7667618,30.5 L51.9642819,30.5 Z"></path>
                        </g>
                    </g>
                    <g id="Icon" transform="translate(67.000000, 60.000000)" fill="#F6F2FB">
                        <path d="M11.6049805,1.50976562 C14.8862469,1.50976562 17.1728451,2.36083133 18.4648438,4.06298828 C19.7568424,5.76514523 20.402832,7.51854566 20.402832,9.32324219 L16.7524414,9.32324219 C16.5336903,8.161127 16.185061,7.25195641 15.706543,6.59570312 C14.8178667,5.36522822 13.4712004,4.75 11.6665039,4.75 C9.60204046,4.75 7.96143187,5.70360375 6.74462891,7.61083984 C5.52782595,9.51807594 4.8510749,12.2490057 4.71435547,15.8037109 C5.56201596,14.5595641 6.62841154,13.6298859 7.91357422,13.0146484 C9.08936135,12.4677707 10.4018482,12.1943359 11.8510742,12.1943359 C14.312024,12.1943359 16.4584869,12.9804609 18.2905273,14.5527344 C20.1225678,16.1250079 21.0385742,18.469711 21.0385742,21.5869141 C21.0385742,24.252943 20.1704188,26.6147358 18.434082,28.6723633 C16.6977452,30.7299908 14.2231606,31.7587891 11.0102539,31.7587891 C8.26219329,31.7587891 5.8901467,30.716319 3.89404297,28.6313477 C1.89793924,26.5463763 0.899902344,23.0361575 0.899902344,18.1005859 C0.899902344,14.4501771 1.34423384,11.3535283 2.23291016,8.81054688 C3.94190308,3.94333504 7.06589527,1.50976562 11.6049805,1.50976562 Z M11.3383789,28.4775391 C13.2797949,28.4775391 14.7324171,27.8247136 15.6962891,26.519043 C16.6601611,25.2133724 17.1420898,23.6718839 17.1420898,21.8945312 C17.1420898,20.3906175 16.7114301,18.9585029 15.8500977,17.5981445 C14.9887652,16.2377862 13.4233512,15.5576172 11.1538086,15.5576172 C9.56786316,15.5576172 8.17676379,16.0839791 6.98046875,17.1367188 C5.78417371,18.1894584 5.18603516,19.77538 5.18603516,21.8945312 C5.18603516,23.7539155 5.72948675,25.3159116 6.81640625,26.5805664 C7.90332575,27.8452212 9.41063489,28.4775391 11.3383789,28.4775391 Z" id="6"></path>
                        <path d="M38.4265137,9.50390625 C39.5983945,9.50390625 40.5993611,9.91894116 41.4294434,10.7490234 C42.2595256,11.5791057 42.6745605,12.5800723 42.6745605,13.7519531 C42.6745605,14.923834 42.2595256,15.9248005 41.4294434,16.7548828 C40.5993611,17.5849651 39.5983945,18 38.4265137,18 C37.2464948,18 36.2414592,17.5849651 35.411377,16.7548828 C34.5812947,15.9248005 34.1662598,14.923834 34.1662598,13.7519531 C34.1662598,12.5800723 34.5812947,11.5791057 35.411377,10.7490234 C36.2414592,9.91894116 37.2464948,9.50390625 38.4265137,9.50390625 Z M36.6564941,0.592773438 L38.0114746,0.592773438 L28.2336426,18.4638672 L26.8786621,18.4638672 L36.6564941,0.592773438 Z M26.439209,7.81933594 C27.1390823,7.81933594 27.7351863,7.57316327 28.2275391,7.08081055 C28.7198918,6.58845782 28.9660645,5.99642273 28.9660645,5.3046875 C28.9660645,4.61295227 28.7198918,4.02091718 28.2275391,3.52856445 C27.7351863,3.03621173 27.1390823,2.79003906 26.439209,2.79003906 C25.7474738,2.79003906 25.1554387,3.03417725 24.6630859,3.52246094 C24.1707332,4.01074463 23.9245605,4.60481421 23.9245605,5.3046875 C23.9245605,5.99642273 24.1707332,6.58845782 24.6630859,7.08081055 C25.1554387,7.57316327 25.7474738,7.81933594 26.439209,7.81933594 Z M26.439209,1.04443359 C27.6192279,1.04443359 28.6242634,1.46150299 29.4543457,2.2956543 C30.284428,3.1298056 30.6994629,4.13280664 30.6994629,5.3046875 C30.6994629,6.47656836 30.284428,7.47753491 29.4543457,8.30761719 C28.6242634,9.13769946 27.6192279,9.55273438 26.439209,9.55273438 C25.2673281,9.55273438 24.2663616,9.13769946 23.4362793,8.30761719 C22.606197,7.47753491 22.1911621,6.47656836 22.1911621,5.3046875 C22.1911621,4.13280664 22.606197,3.1298056 23.4362793,2.2956543 C24.2663616,1.46150299 25.2673281,1.04443359 26.439209,1.04443359 Z M38.4265137,16.2666016 C39.1182489,16.2666016 39.710284,16.0204289 40.2026367,15.5280762 C40.6949894,15.0357234 40.9411621,14.4436884 40.9411621,13.7519531 C40.9411621,13.0602179 40.6949894,12.4681828 40.2026367,11.9758301 C39.710284,11.4834774 39.1182489,11.2373047 38.4265137,11.2373047 C37.7266404,11.2373047 37.1305363,11.4834774 36.6381836,11.9758301 C36.1458309,12.4681828 35.8996582,13.0602179 35.8996582,13.7519531 C35.8996582,14.4436884 36.1458309,15.0357234 36.6381836,15.5280762 C37.1305363,16.0204289 37.7266404,16.2666016 38.4265137,16.2666016 Z" id="%"></path>
                    </g>
                    <g id="Line" transform="translate(47.000000, 6.000000)" fill-rule="nonzero">
                        <polygon id="Path-3" fill="#C0A3D9" points="63.1806641 106.880371 78.7796295 134.014499 77.0541992 135.025879 62.0347243 108.880371"></polygon>
                        <polygon id="Path-3" fill="#C5A6DB" points="18.5324054 32 0.128140633 1.53710612 1.84790039 0.516113281 19.6709448 30"></polygon>
                        <polygon id="Path-7" fill="#CDABDF" points="86.1386719 71 86.1386719 69 112.470941 69 112.470941 71"></polygon>
                        <polygon id="Path-8" fill="#CFADE1" points="63.4913278 32.3506113 61.9364065 31.0927481 70.9091797 19.8984628 72.464101 21.156326"></polygon>
                        <polygon id="Path-9" fill="#B79DD4" points="18.0097313 107.576226 19.6660499 108.697212 10.8769874 121.68354 9.22066884 120.562554"></polygon>
                    </g>
                    <g id="Circle" transform="translate(42.000000, 0.000000)" fill="#7B6696" fill-rule="nonzero">
                        <path d="M84.5,147 C82.0147186,147 80,144.985281 80,142.5 C80,140.014719 82.0147186,138 84.5,138 C86.9852814,138 89,140.014719 89,142.5 C89,144.985281 86.9852814,147 84.5,147 Z M84.5,145 C85.8807119,145 87,143.880712 87,142.5 C87,141.119288 85.8807119,140 84.5,140 C83.1192881,140 82,141.119288 82,142.5 C82,143.880712 83.1192881,145 84.5,145 Z" id="Oval-6"></path>
                        <path d="M78.5,29 C76.0147186,29 74,26.9852814 74,24.5 C74,22.0147186 76.0147186,20 78.5,20 C80.9852814,20 83,22.0147186 83,24.5 C83,26.9852814 80.9852814,29 78.5,29 Z M78.5,27 C79.8807119,27 81,25.8807119 81,24.5 C81,23.1192881 79.8807119,22 78.5,22 C77.1192881,22 76,23.1192881 76,24.5 C76,25.8807119 77.1192881,27 78.5,27 Z" id="Oval-6"></path>
                        <path d="M4.5,9 C2.01471863,9 0,6.98528137 0,4.5 C0,2.01471863 2.01471863,0 4.5,0 C6.98528137,0 9,2.01471863 9,4.5 C9,6.98528137 6.98528137,9 4.5,9 Z M4.5,7 C5.88071187,7 7,5.88071187 7,4.5 C7,3.11928813 5.88071187,2 4.5,2 C3.11928813,2 2,3.11928813 2,4.5 C2,5.88071187 3.11928813,7 4.5,7 Z" id="Oval-6"></path>
                        <path d="M13.5,134 C11.0147186,134 9,131.985281 9,129.5 C9,127.014719 11.0147186,125 13.5,125 C15.9852814,125 18,127.014719 18,129.5 C18,131.985281 15.9852814,134 13.5,134 Z M13.5,132 C14.8807119,132 16,130.880712 16,129.5 C16,128.119288 14.8807119,127 13.5,127 C12.1192881,127 11,128.119288 11,129.5 C11,130.880712 12.1192881,132 13.5,132 Z" id="Oval-6"></path>
                        <path d="M120.5,80 C118.014719,80 116,77.9852814 116,75.5 C116,73.0147186 118.014719,71 120.5,71 C122.985281,71 125,73.0147186 125,75.5 C125,77.9852814 122.985281,80 120.5,80 Z M120.5,78 C121.880712,78 123,76.8807119 123,75.5 C123,74.1192881 121.880712,73 120.5,73 C119.119288,73 118,74.1192881 118,75.5 C118,76.8807119 119.119288,78 120.5,78 Z" id="Oval-6"></path>
                    </g>
                    <g id="Up" transform="translate(0.000000, 16.000000)">
                        <circle id="Oval-3" stroke="#B09CC9" stroke-width="2" cx="23" cy="23" r="23"></circle>
                        <path d="M23,4 C12.5240909,4 4,12.5240909 4,23 C4,33.4776364 12.5240909,42 23,42 C33.4759091,42 42,33.4776364 42,23 C42,12.5240909 33.4759091,4 23,4" id="Fill-385" fill="url(#linearGradient-1)"></path>
                        <path d="M26.5331078,12 L24.141131,14.477659 L27.5244079,17.9821272 L19.7665539,17.9821272 C16.0347994,17.9821272 13,21.1256352 13,24.9910636 C13,28.856492 16.0347994,32 19.7665539,32 L21.4581924,32 L21.4581924,28.4955318 L19.7665539,28.4955318 C17.9006767,28.4955318 16.3832769,26.9237778 16.3832769,24.9910636 C16.3832769,23.0601016 17.9006767,21.4865954 19.7665539,21.4865954 L27.5244079,21.4865954 L24.141131,24.9910636 L26.5331078,27.4687226 L34,19.7343613 L26.5331078,12 Z" id="Fill-386" fill="#FFFFFF"></path>
                    </g>
                </g>
            </g>
        </g>
    </g>
</svg>