<?xml version="1.0" encoding="UTF-8"?>
<svg width="209px" height="153px" viewBox="0 0 209 153" version="1.1" xmlns="http://www.w3.org/2000/svg" xmlns:xlink="http://www.w3.org/1999/xlink">
    <!-- Generator: Sketch 49.1 (51147) - http://www.bohemiancoding.com/sketch -->
    <title>B2B-focused</title>
    <desc>Created with Sketch.</desc>
    <defs>
        <linearGradient x1="1.50669643%" y1="98.4933036%" x2="98.6180786%" y2="1.38192135%" id="linearGradient-1">
            <stop stop-color="#B299D1" offset="0%"></stop>
            <stop stop-color="#D5B1E4" offset="100%"></stop>
        </linearGradient>
        <polygon id="path-2" points="51.1016751 29 32 61.8251493 51.1016751 94 88.6262166 94 107.867047 61.8251493 88.6262166 29"></polygon>
    </defs>
    <g id="Style" stroke="none" stroke-width="1" fill="none" fill-rule="evenodd">
        <g transform="translate(-1896.000000, -4907.000000)" id="B2B-focused">
            <g transform="translate(1896.000000, 4907.000000)">
                <g transform="translate(35.000000, 9.000000)">
                    <g id="Bg" transform="translate(0.000000, 6.000000)">
                        <polygon id="Page-1" fill="#F6F2FB" points="34.2476694 0 0 61.5006457 34.2476694 123 104.752968 123 139 61.5006457 104.752968 0"></polygon>
                        <polygon id="Path-3" stroke="url(#linearGradient-1)" stroke-width="2" points="47.6281382 23 25 61.8851769 47.6281382 100 92.0802874 100 114.873272 61.8851769 92.0802874 23"></polygon>
                        <g id="Path-3">
                            <use fill="url(#linearGradient-1)" fill-rule="evenodd" xlink:href="#path-2"></use>
                            <path stroke="#7B6696" stroke-width="3" d="M51.9642819,30.5 L33.739915,61.8175448 L51.9555797,92.5 L87.7754788,92.5 L106.123869,61.8175037 L87.7667618,30.5 L51.9642819,30.5 Z"></path>
                        </g>
                    </g>
                    <g id="Icon" transform="translate(49.000000, 45.000000)" fill="#F6F2FB">
                        <path d="M17.8038949,34.9359103 L18.6664551,31.0893771 C18.0948591,30.3730079 17.7288557,29.3674218 17.7288557,28.5778809 C17.7288557,27.197169 18.8481438,27 20.2288557,27 C21.6095676,27 22.7288557,27.197169 22.7288557,28.5778809 C22.7288557,29.3458925 22.3825406,30.3183277 21.8375535,31.0301401 L22.8215803,34.7998272 L27.3211544,27 C31.4722426,28.4434851 34.6891908,29.8428485 36.9719989,31.1980901 C38.9107933,32.3491001 40.2090768,34.3312666 40.4895055,36.5684764 C40.9910514,40.5697198 38.153986,44.2199517 34.1527426,44.7214977 L34.1527441,44.7215096 C29.8941715,45.2553111 25.2701724,45.5097875 20.2807467,45.484939 C15.2857712,45.510281 10.6569312,45.2558289 6.39422727,44.7215096 L6.39422876,44.7214977 C2.39298537,44.2199517 -0.444079973,40.5697198 0.0574659504,36.5684764 C0.337894648,34.3312666 1.63617806,32.3491001 3.57497253,31.1980901 C5.85778062,29.8428485 9.07472879,28.4434851 13.225817,27 L17.8038949,34.9359103 Z M20.2566172,25.7847402 C16.2738425,25.7847402 12.0102529,21.9876388 12.0102529,18.33803 C10.9757949,18.33803 9.69523536,16.6931157 9.72953007,15.3568099 C9.77540668,13.5692114 10.1908283,12.6754121 10.9757949,12.6754121 C10.4692159,11.6175667 10.2159264,9.91255889 10.2159264,7.56038857 C10.2159264,4.03213308 13.9373448,-5.17960905e-14 20.2566172,0 C26.5732433,0.00185343668 30.2929512,4.032944 30.2929512,7.56038857 C30.2929512,9.91255889 30.0396617,11.6175667 29.5330827,12.6754121 C30.3180493,12.6754121 30.7334709,13.5692114 30.7793475,15.3568099 C30.8136423,16.6931157 29.5330827,18.33803 28.4986248,18.33803 C28.4986248,21.9863081 24.2381438,25.7819712 20.2566172,25.7847387 Z" id="Combined-Shape"></path>
                    </g>
                    <g id="Line" transform="translate(68.500000, 63.000000) rotate(-180.000000) translate(-68.500000, -63.000000) translate(11.000000, 8.000000)">
                        <polygon id="Combined-Shape" fill="#CEACE0" transform="translate(6.000000, 73.500000) scale(1, -1) translate(-6.000000, -73.500000) " points="2 96 12 96 12 98 0 98 0 49 2 49"></polygon>
                        <polygon id="Combined-Shape" fill="#C6A7DC" points="2 39 18 39 18 41 0 41 0 28 2 28"></polygon>
                        <polygon id="Combined-Shape" fill="#B79DD4" transform="translate(88.000000, 6.500000) scale(-1, 1) translate(-88.000000, -6.500000) " points="81 11 97 11 97 13 79 13 79 -1.42108547e-14 81 -1.42108547e-14"></polygon>
                        <rect id="Rectangle-3" fill="#B99ED4" transform="translate(108.000000, 50.000000) rotate(-270.000000) translate(-108.000000, -50.000000) " x="107" y="43" width="2" height="14"></rect>
                        <polygon id="Combined-Shape" fill="#C6A7DC" transform="translate(84.000000, 99.000000) scale(-1, -1) translate(-84.000000, -99.000000) " points="80 108 90 108 90 110 78 110 78 88 80 88"></polygon>
                    </g>
                    <g id="Circle" transform="translate(4.000000, 0.000000)" fill="#7B6696" fill-rule="nonzero">
                        <path d="M33.5,9 C31.0147186,9 29,6.98528137 29,4.5 C29,2.01471863 31.0147186,0 33.5,0 C35.9852814,0 38,2.01471863 38,4.5 C38,6.98528137 35.9852814,9 33.5,9 Z M33.5,6.75 C34.7426407,6.75 35.75,5.74264069 35.75,4.5 C35.75,3.25735931 34.7426407,2.25 33.5,2.25 C32.2573593,2.25 31.25,3.25735931 31.25,4.5 C31.25,5.74264069 32.2573593,6.75 33.5,6.75 Z" id="Oval"></path>
                        <path d="M121.5,98 C119.014719,98 117,95.9852814 117,93.5 C117,91.0147186 119.014719,89 121.5,89 C123.985281,89 126,91.0147186 126,93.5 C126,95.9852814 123.985281,98 121.5,98 Z M121.5,95.75 C122.742641,95.75 123.75,94.7426407 123.75,93.5 C123.75,92.2573593 122.742641,91.25 121.5,91.25 C120.257359,91.25 119.25,92.2573593 119.25,93.5 C119.25,94.7426407 120.257359,95.75 121.5,95.75 Z" id="Oval"></path>
                        <path d="M121.5,22 C119.014719,22 117,19.9852814 117,17.5 C117,15.0147186 119.014719,13 121.5,13 C123.985281,13 126,15.0147186 126,17.5 C126,19.9852814 123.985281,22 121.5,22 Z M121.5,19.75 C122.742641,19.75 123.75,18.7426407 123.75,17.5 C123.75,16.2573593 122.742641,15.25 121.5,15.25 C120.257359,15.25 119.25,16.2573593 119.25,17.5 C119.25,18.7426407 120.257359,19.75 121.5,19.75 Z" id="Oval"></path>
                        <path d="M26.5,126 C24.0147186,126 22,123.985281 22,121.5 C22,119.014719 24.0147186,117 26.5,117 C28.9852814,117 31,119.014719 31,121.5 C31,123.985281 28.9852814,126 26.5,126 Z M26.5,123.75 C27.7426407,123.75 28.75,122.742641 28.75,121.5 C28.75,120.257359 27.7426407,119.25 26.5,119.25 C25.2573593,119.25 24.25,120.257359 24.25,121.5 C24.25,122.742641 25.2573593,123.75 26.5,123.75 Z" id="Oval"></path>
                        <path d="M4.5,72 C2.01471863,72 0,69.9852814 0,67.5 C0,65.0147186 2.01471863,63 4.5,63 C6.98528137,63 9,65.0147186 9,67.5 C9,69.9852814 6.98528137,72 4.5,72 Z M4.5,69.75 C5.74264069,69.75 6.75,68.7426407 6.75,67.5 C6.75,66.2573593 5.74264069,65.25 4.5,65.25 C3.25735931,65.25 2.25,66.2573593 2.25,67.5 C2.25,68.7426407 3.25735931,69.75 4.5,69.75 Z" id="Oval"></path>
                    </g>
                </g>
            </g>
        </g>
    </g>
</svg>