<?xml version="1.0" encoding="UTF-8"?>
<svg width="34px" height="34px" viewBox="0 0 34 34" version="1.1" xmlns="http://www.w3.org/2000/svg" xmlns:xlink="http://www.w3.org/1999/xlink">
    <!-- Generator: Sketch 49.1 (51147) - http://www.bohemiancoding.com/sketch -->
    <title>Bitcointalk_Color</title>
    <desc>Created with Sketch.</desc>
    <defs>
        <polygon id="path-1" points="0 0 12 0 12 18 0 18"></polygon>
    </defs>
    <g id="Symbols" stroke="none" stroke-width="1" fill="none" fill-rule="evenodd">
        <g id="Footer-down" transform="translate(-907.000000, -400.000000)">
            <g id="Group-34">
                <g id="Group-19">
                    <g id="Group-25" transform="translate(668.000000, 400.000000)">
                        <g id="Group-24" transform="translate(239.000000, 0.000000)">
                            <g id="Bitcointalk">
                                <circle id="Oval-2" fill="#FFB629" cx="17" cy="17" r="17"></circle>
                                <circle id="Oval-2" fill="#FFFFFF" cx="17" cy="17" r="15"></circle>
                                <circle id="Oval-2" fill="#FFB629" cx="17" cy="17" r="12"></circle>
                                <g id="Page-1" transform="translate(11.000000, 8.000000)">
                                    <mask id="mask-2" fill="white">
                                        <use xlink:href="#path-1"></use>
                                    </mask>
                                    <g id="Clip-2"></g>
                                    <path d="M9.12908535,13.0802734 C8.90011756,13.3770028 8.60526687,13.564256 8.24086527,13.6408892 C8.00399718,13.6975881 7.44547378,13.7265094 6.56402539,13.7265094 L4.30058782,13.7265094 L4.30058782,9.97539964 L6.27524101,9.97539964 C7.38735011,9.97539964 8.11107454,10.0440265 8.44359276,10.175888 C8.77611098,10.3103639 9.03117799,10.5240875 9.20653656,10.8182024 C9.38429344,11.1110102 9.4730308,11.4685233 9.4730308,11.8905783 C9.4730308,12.3866523 9.35692452,12.7848513 9.12908535,13.0802734 Z M5.70529038,4.39881628 C6.85605455,4.39881628 7.55297437,4.41466581 7.794498,4.44636487 C8.2022102,4.5030637 8.50961674,4.66793148 8.71685869,4.93966104 C8.9218434,5.20861285 9.02539384,5.56220441 9.02539384,5.99471682 C9.02539384,6.44847087 8.90590172,6.81513421 8.66677639,7.0909487 C8.42750999,7.36921415 8.09739008,7.53653289 7.67937926,7.59339512 C7.44773101,7.62509418 6.85605455,7.64225089 5.90350341,7.64225089 L4.30058782,7.64225089 L4.30058782,4.39881628 L5.70529038,4.39881628 Z M11.4043734,9.90955057 C11.0080884,9.31069979 10.4409593,8.88455987 9.7031272,8.6366863 C10.2269457,8.36234239 10.6414296,7.94960104 10.9465789,7.40205699 C11.2517282,6.85467634 11.4043734,6.25076025 11.4043734,5.59390347 C11.4043734,4.98851681 11.2813543,4.44097276 11.0332001,3.95306869 C10.7849048,3.46500123 10.475241,3.07464529 10.1039266,2.78183749 C9.73275335,2.48755912 9.31135669,2.29507721 8.83987773,2.20275778 C8.50397367,2.13674531 8.03827886,2.09589601 7.45506701,2.07743212 L7.45506701,0 L5.43936045,0 L5.43936045,2.06436035 L4.30058782,2.06436035 L4.16614155,2.06436035 L4.16614155,0 L2.15057606,0 L2.15057606,2.06436035 L1.85558429,2.06436035 L0,2.06436035 L0,4.39881628 L1.85558429,4.39881628 L1.85558429,13.7542869 L0,13.7542869 L0,16.0889062 L1.85558429,16.0889062 L2.15057606,16.0889062 L2.15057606,18 L4.16614155,18 L4.16614155,16.0889062 L4.30058782,16.0889062 L5.43936045,16.0889062 L5.43936045,18 L7.45506701,18 L7.45506701,16.0663574 C8.16341406,16.0493641 8.67129085,16.0255081 8.92635787,15.9939725 C9.5755937,15.9106399 10.1232542,15.6905438 10.5662356,15.3292726 C11.0103456,14.9691452 11.3589466,14.486143 11.6162709,13.8848413 C11.8713379,13.2809252 12,12.6609962 12,12.0237471 C12,11.2139505 11.8006584,10.5082379 11.4043734,9.90955057 Z" id="Fill-1" fill="#FFFFFF" mask="url(#mask-2)"></path>
                                </g>
                            </g>
                        </g>
                    </g>
                </g>
            </g>
        </g>
    </g>
</svg>