<?xml version="1.0" encoding="UTF-8"?>
<svg width="34px" height="34px" viewBox="0 0 34 34" version="1.1" xmlns="http://www.w3.org/2000/svg" xmlns:xlink="http://www.w3.org/1999/xlink">
    <!-- Generator: Sketch 49.1 (51147) - http://www.bohemiancoding.com/sketch -->
    <title>Bitcointalk_Color</title>
    <desc>Created with Sketch.</desc>
    <defs></defs>
    <g id="Style" stroke="none" stroke-width="1" fill="none" fill-rule="evenodd">
        <g transform="translate(-207.000000, -3903.000000)" id="Group-24">
            <g transform="translate(180.000000, 3789.000000)">
                <g id="Hit" transform="translate(27.000000, 114.000000)">
                    <g id="Bitcointalk">
                        <circle id="Oval-2" fill="#EF8200" cx="17" cy="17" r="17"></circle>
                        <circle id="Oval-2" fill="#FFFFFF" cx="17" cy="17" r="15"></circle>
                        <circle id="Oval-2" fill="#EF8200" cx="17" cy="17" r="12"></circle>
                        <path d="M20.1290854,21.0802734 C19.9001176,21.3770028 19.6052669,21.564256 19.2408653,21.6408892 C19.0039972,21.6975881 18.4454738,21.7265094 17.5640254,21.7265094 L15.3005878,21.7265094 L15.3005878,17.9753996 L17.275241,17.9753996 C18.3873501,17.9753996 19.1110745,18.0440265 19.4435928,18.175888 C19.776111,18.3103639 20.031178,18.5240875 20.2065366,18.8182024 C20.3842934,19.1110102 20.4730308,19.4685233 20.4730308,19.8905783 C20.4730308,20.3866523 20.3569245,20.7848513 20.1290854,21.0802734 Z M16.7052904,12.3988163 C17.8560545,12.3988163 18.5529744,12.4146658 18.794498,12.4463649 C19.2022102,12.5030637 19.5096167,12.6679315 19.7168587,12.939661 C19.9218434,13.2086128 20.0253938,13.5622044 20.0253938,13.9947168 C20.0253938,14.4484709 19.9059017,14.8151342 19.6667764,15.0909487 C19.42751,15.3692142 19.0973901,15.5365329 18.6793793,15.5933951 C18.447731,15.6250942 17.8560545,15.6422509 16.9035034,15.6422509 L15.3005878,15.6422509 L15.3005878,12.3988163 L16.7052904,12.3988163 Z M22.4043734,17.9095506 C22.0080884,17.3106998 21.4409593,16.8845599 20.7031272,16.6366863 C21.2269457,16.3623424 21.6414296,15.949601 21.9465789,15.402057 C22.2517282,14.8546763 22.4043734,14.2507603 22.4043734,13.5939035 C22.4043734,12.9885168 22.2813543,12.4409728 22.0332001,11.9530687 C21.7849048,11.4650012 21.475241,11.0746453 21.1039266,10.7818375 C20.7327534,10.4875591 20.3113567,10.2950772 19.8398777,10.2027578 C19.5039737,10.1367453 19.0382789,10.095896 18.455067,10.0774321 L18.455067,8 L16.4393605,8 L16.4393605,10.0643603 L15.3005878,10.0643603 L15.1661415,10.0643603 L15.1661415,8 L13.1505761,8 L13.1505761,10.0643603 L12.8555843,10.0643603 L11,10.0643603 L11,12.3988163 L12.8555843,12.3988163 L12.8555843,21.7542869 L11,21.7542869 L11,24.0889062 L12.8555843,24.0889062 L13.1505761,24.0889062 L13.1505761,26 L15.1661415,26 L15.1661415,24.0889062 L15.3005878,24.0889062 L16.4393605,24.0889062 L16.4393605,26 L18.455067,26 L18.455067,24.0663574 C19.1634141,24.0493641 19.6712909,24.0255081 19.9263579,23.9939725 C20.5755937,23.9106399 21.1232542,23.6905438 21.5662356,23.3292726 C22.0103456,22.9691452 22.3589466,22.486143 22.6162709,21.8848413 C22.8713379,21.2809252 23,20.6609962 23,20.0237471 C23,19.2139505 22.8006584,18.5082379 22.4043734,17.9095506 Z" id="Fill-1" fill="#FFFFFF"></path>
                    </g>
                </g>
            </g>
        </g>
    </g>
</svg>