<?xml version="1.0" encoding="UTF-8"?>
<svg width="140px" height="160px" viewBox="0 0 140 160" version="1.1" xmlns="http://www.w3.org/2000/svg" xmlns:xlink="http://www.w3.org/1999/xlink">
    <!-- Generator: Sketch 49.3 (51167) - http://www.bohemiancoding.com/sketch -->
    <title>blockchain-services</title>
    <desc>Created with Sketch.</desc>
    <defs></defs>
    <g id="blockchain-services" stroke="none" stroke-width="1" fill="none" fill-rule="evenodd">
        <g id="Page-1">
            <polygon id="Fill-1" fill="#F7F7F7" points="69.8274915 -0.000117647059 -0.000474576271 39.8963529 -0.000474576271 119.084588 69.8274915 159.552824 139.654271 118.457529 139.654271 39.8963529"></polygon>
            <polygon id="Fill-2" fill="#E8E8E8" points="127.010729 47.1169412 69.826661 14.4451765 12.6425932 47.1169412 12.6425932 111.967529 69.826661 145.108706 127.010729 111.454588"></polygon>
            <g id="Group-25" transform="translate(7.118644, 26.611765)">
                <path d="M34.8779153,66.7183529 L46.2179153,80.5489412 C47.1967288,81.7430588 48.6691017,82.4465882 50.2209661,82.4265882 C66.6294407,82.2089412 84.1484237,76.096 99.1058814,64.0371765 C117.740119,49.0148235 128.089441,28.2489412 128.766898,8.65129412 C128.891475,5.02776471 126.30978,1.87952941 122.707746,1.26188235 C103.221644,-2.08047059 80.6080847,3.72658824 61.9738475,18.7501176 C47.0163898,30.8077647 37.4050339,46.5642353 33.8409661,62.4489412 C33.5052034,63.9512941 33.8979153,65.5242353 34.8779153,66.7183529" id="Fill-3" fill="#FFC033"></path>
                <path d="M53.8997627,82.6788235 C59.5175593,89.5317647 59.0951864,99.2976471 53.2970508,105.649412 C52.4878983,106.535294 52.4226441,107.862353 53.1831525,108.789412 L53.4097627,109.065882 C54.1287458,109.943529 55.373322,110.207059 56.3841695,109.683529 C59.1723051,108.237647 61.8584068,106.498824 64.3962034,104.454118 C73.9185763,96.7776471 79.6787458,86.2164706 81.4489153,75.0729412 C72.3121356,79.3258824 62.8099322,81.7352941 53.5723051,82.3 C53.6814576,82.4258824 53.7929831,82.5494118 53.8997627,82.6788235" id="Fill-5" fill="#4A3777"></path>
                <path d="M34.3391525,58.8369412 C28.7213559,51.9851765 18.9925424,50.4016471 11.539322,54.7334118 C10.5,55.3381176 9.1759322,55.1310588 8.41542373,54.2028235 L8.18881356,53.9263529 C7.47101695,53.0498824 7.46271186,51.7875294 8.18644068,50.9145882 C10.1832203,48.5016471 12.4481356,46.2487059 14.9847458,44.204 C24.5071186,36.5263529 36.109322,33.0910588 47.4718644,33.6463529 C41.4079661,41.6487059 37.0905085,50.3804706 34.6464407,59.2322353 C34.5444068,59.1016471 34.4459322,58.9663529 34.3391525,58.8369412" id="Fill-7" fill="#4A3777"></path>
                <path d="M122.753305,1.27035294 C114.226356,-0.197882353 105.099068,0.0903529412 95.9658475,2.13270588 L122.447203,34.4315294 C126.328051,25.9844706 128.475508,17.1821176 128.767373,8.60447059 C128.889576,5.01858824 126.319746,1.88329412 122.753305,1.27035294" id="Fill-9" fill="#4A3777"></path>
                <path d="M37.8869661,94.4745882 C25.5491695,104.421647 1.0349322,105.487529 1.0349322,105.487529 C1.0349322,105.487529 7.09171186,81.9098824 19.4306949,71.9628235 C25.6998475,66.9087059 33.0522203,69.3522353 38.1491695,75.5687059 C43.2461186,81.784 44.1561186,89.4204706 37.8869661,94.4745882" id="Fill-11" fill="#AFAFAF"></path>
                <path d="M36.9993898,91.5069412 C31.965322,95.5657647 21.505661,97.2763529 17.4124407,92.2845882 C13.3192203,87.2928235 17.1443051,77.4881176 22.1783729,73.4304706 C27.2124407,69.3716471 32.7507458,71.6292941 36.8439661,76.6198824 C40.936,81.6128235 42.0334576,87.4492941 36.9993898,91.5069412" id="Fill-13" fill="#C4C4C4"></path>
                <path d="M36.5325254,85.7544706 C33.5533729,88.1568235 27.2842203,89.2332941 24.8626949,86.2791765 C22.4399831,83.3262353 24.7832034,77.4591765 27.7611695,75.0568235 C30.7415085,72.6556471 33.2591356,74.6027059 35.680661,77.5568235 C38.1033729,80.5121176 39.511678,83.3532941 36.5325254,85.7544706" id="Fill-15" fill="#F5F5F5"></path>
                <polygon id="Fill-17" fill="#FFFFFF" points="66.1511864 42.7397647 74.3661017 36.4797647 77.3250847 40.2997647 69.1113559 46.5585882 72.6623729 51.1409412 85.5008475 41.3562353 78.989661 32.9562353 82.8420339 30.0197647 91.9183051 41.7315294 75.2274576 54.4503529 78.7808475 59.0350588 100.094068 42.7915294 83.7140678 21.6562353 62.399661 37.8997647"></polygon>
                <path d="M81.0795763,65.2788235 C64.9344915,70.2447059 48.6802542,70.2376471 34.6007627,66.2082353 C34.7099153,66.38 34.8012712,66.56 34.9317797,66.7188235 L46.2717797,80.5482353 C47.2505932,81.7435294 48.7229661,82.4470588 50.2760169,82.4258824 C66.6844915,82.2094118 84.2022881,76.0952941 99.1597458,64.0364706 C107.528898,57.2894118 114.210932,49.3788235 119.113305,40.9411765 C109.842458,51.7164706 96.7548305,60.4576471 81.0795763,65.2788235" id="Fill-19" fill="#F9A510"></path>
                <path d="M81.5234237,75.1098824 C72.3866441,79.3628235 62.8844407,81.7722353 53.6456271,82.3381176 C53.7559661,82.4628235 53.8674915,82.5851765 53.9742712,82.7169412 C55.118,84.1110588 56.5963051,86.4404706 57.4363051,89.7745882 C69.3007119,85.6804706 81.2220678,77.0087059 81.5234237,75.1098824" id="Fill-21" fill="#2E214F"></path>
                <path d="M47.4942881,33.5290588 C41.4422542,41.5408235 37.1390339,50.2784706 34.7092034,59.1361176 C34.6071695,59.0031765 34.5075085,58.8702353 34.4007288,58.7408235 C33.2558136,57.3467059 31.2542881,55.4396471 28.1327627,53.9478824 C34.5786949,43.2572941 45.5568305,33.4384706 47.4942881,33.5290588" id="Fill-23" fill="#2E214F"></path>
            </g>
        </g>
    </g>
</svg>