<?xml version="1.0" encoding="UTF-8"?>
<svg width="140px" height="160px" viewBox="0 0 140 160" version="1.1" xmlns="http://www.w3.org/2000/svg" xmlns:xlink="http://www.w3.org/1999/xlink">
    <!-- Generator: sketchtool 51 (57462) - http://www.bohemiancoding.com/sketch -->
    <title>3C20825B-5324-4C33-83FA-989E0522DB23</title>
    <desc>Created with sketchtool.</desc>
    <defs></defs>
    <g id="Desctop" stroke="none" stroke-width="1" fill="none" fill-rule="evenodd">
        <g id="Social" transform="translate(-230.000000, -4291.000000)">
            <rect fill="#FFFFFF" x="0" y="0" width="1440" height="6635"></rect>
            <g id="Group" transform="translate(0.000000, 3709.000000)">
                <g id="Article" transform="translate(165.000000, 522.000000)">
                    <g id="Icon-article" transform="translate(65.000000, 60.000000)">
                        <g id="Icons/bounty-program/text">
                            <polygon id="Fill-1" fill="#F7F7F7" points="70.0002 -0.0002 0.0002 40.0078 0.0002 119.4188 70.0002 159.9998 140.0002 118.7888 140.0002 40.0078"></polygon>
                            <polygon id="Fill-2" fill="#E8E8E8" points="127 47.5059 70 14.9999 13 47.5059 13 112.0269 70 144.9999 127 111.5169"></polygon>
                            <g id="Group-35" stroke-width="1" transform="translate(6.000000, 8.000000)">
                                <path d="M89.001,100.0781 L28.837,100.0781 C25.062,100.0781 22,96.9681 22,93.1321 L22,13.9461 C22,10.1101 25.062,7.0001 28.837,7.0001 L89.001,7.0001 C92.776,7.0001 95.838,10.1101 95.838,13.9461 L95.838,93.1321 C95.838,96.9681 92.776,100.0781 89.001,100.0781" id="Fill-3" fill="#C8DAEA"></path>
                                <path d="M97.1284,106.4922 L36.6584,106.4922 C32.8644,106.4922 29.7874,103.4002 29.7874,99.5902 L29.7874,20.9022 C29.7874,17.0912 32.8644,14.0002 36.6584,14.0002 L97.1284,14.0002 C100.9224,14.0002 104.0004,17.0912 104.0004,20.9022 L104.0004,99.5902 C104.0004,103.4002 100.9224,106.4922 97.1284,106.4922" id="Fill-5" fill="#E4F2FF"></path>
                                <path d="M35.5571,113.9619 C35.1701,113.9619 34.7831,113.8139 34.4901,113.5159 C33.9081,112.9269 33.9131,111.9769 34.5031,111.3949 L38.3701,107.5749 L34.5501,103.7069 C33.9671,103.1179 33.9731,102.1679 34.5621,101.5859 C35.1521,101.0059 36.1021,101.0079 36.6831,101.5999 L42.6121,107.6009 L36.6111,113.5289 C36.3191,113.8169 35.9381,113.9619 35.5571,113.9619" id="Fill-7" fill="#7B6798"></path>
                                <path d="M19.3779,37.9531 C29.6929,37.9531 38.0549,29.5921 38.0549,19.2771 C38.0549,8.9621 29.6929,0.6001 19.3779,0.6001 C9.0639,0.6001 0.7019,8.9621 0.7019,19.2771 C0.7019,29.5921 9.0639,37.9531 19.3779,37.9531" id="Fill-9" fill="#39B54A"></path>
                                <path d="M28.5,17 L22,17 L22,10.5 C22,9.119 20.881,8 19.5,8 C18.119,8 17,9.119 17,10.5 L17,17 L10.5,17 C9.119,17 8,18.119 8,19.5 C8,20.881 9.119,22 10.5,22 L17,22 L17,28.5 C17,29.881 18.119,31 19.5,31 C20.881,31 22,29.881 22,28.5 L22,22 L28.5,22 C29.881,22 31,20.881 31,19.5 C31,18.119 29.881,17 28.5,17" id="Fill-11" fill="#FFFFFF"></path>
                                <path d="M92.3408,56 C67.1208,56 46.6768,76.444 46.6768,101.664 C46.6768,103.471 46.7928,105.248 46.9968,107 L97.3238,107 C101.0098,107 103.9998,103.997 103.9998,100.294 L103.9998,57.508 C100.2778,56.527 96.3708,56 92.3408,56" id="Fill-13" fill="#C8DAEA"></path>
                                <path d="M45.4438,42.1318 C43.3348,42.1318 41.6248,40.4508 41.6248,38.3778 C41.6248,36.3058 43.3348,34.6248 45.4438,34.6248 L86.1808,34.6248 C88.2908,34.6248 89.9998,36.3058 89.9998,38.3778 C89.9998,40.4508 88.2908,42.1318 86.1808,42.1318 L45.4438,42.1318 Z M86.1812,52.9746 C88.2902,52.9746 90.0002,54.6546 90.0002,56.7276 C90.0002,58.8006 88.2902,60.4806 86.1812,60.4806 L45.4442,60.4806 C43.3342,60.4806 41.6252,58.8006 41.6252,56.7276 C41.6252,54.6546 43.3342,52.9746 45.4442,52.9746 L86.1812,52.9746 Z M68.6274,70.4893 C70.7574,70.4893 72.4844,72.1693 72.4844,74.2423 C72.4844,76.3153 70.7574,77.9963 68.6274,77.9963 L45.4824,77.9963 C43.3524,77.9963 41.6254,76.3153 41.6254,74.2423 C41.6254,72.1693 43.3524,70.4893 45.4824,70.4893 L68.6274,70.4893 Z" id="Combined-Shape" fill="#7B6798"></path>
                                <path d="M90,56.7275 C90,58.8005 88.291,60.4805 86.181,60.4805 L72.593,60.4805 C77.887,57.9375 83.747,56.3855 89.932,56.0645 C89.971,56.2805 90,56.4995 90,56.7275 Z M72.4849,74.2422 C72.4849,76.3152 70.7579,77.9962 68.6279,77.9962 L53.2819,77.9962 C54.9219,75.2952 56.8419,72.7852 58.9889,70.4892 L68.6279,70.4892 C70.7579,70.4892 72.4849,72.1702 72.4849,74.2422 Z" id="Combined-Shape" fill="#4A3777"></path>
                                <path d="M126.3682,103.3125 C126.3682,124.4725 109.2152,141.6255 88.0552,141.6255 C66.8962,141.6255 49.7432,124.4725 49.7432,103.3125 C49.7432,82.1535 66.8962,64.9995 88.0552,64.9995 C109.2152,64.9995 126.3682,82.1535 126.3682,103.3125" id="Fill-25" fill="#FFD833"></path>
                                <path d="M111.9663,120.0576 C89.0123,120.0576 70.4053,101.4496 70.4053,78.4966 C70.4053,74.9246 70.9043,71.4776 71.7513,68.1696 C58.6863,74.3516 49.6243,87.6176 49.6243,103.0336 C49.6243,124.3466 66.9023,141.6246 88.2173,141.6246 C104.0773,141.6246 117.6903,132.0496 123.6243,118.3706 C119.9223,119.4496 116.0173,120.0576 111.9663,120.0576" id="Fill-27" fill="#FFB012"></path>
                                <polygon id="Fill-29" fill="#C95600" points="70.625 84.6348 70.625 92.9888 84.266 92.9888 84.266 99.5278 70.625 99.5278 70.625 107.8808 92.375 107.8688 92.375 92.9888 98.518 92.9888 98.518 113.2668 70.625 113.2668 70.625 121.6218 98.518 121.6218 98.518 121.6248 106.625 121.6248 106.625 84.6248"></polygon>
                                <path d="M87.626,136.625 C69.43,136.625 54.625,121.82 54.625,103.626 C54.625,85.429 69.43,70.625 87.626,70.625 C105.822,70.625 120.625,85.429 120.625,103.626 C120.625,121.82 105.822,136.625 87.626,136.625 M87.626,73.562 C71.049,73.562 57.562,87.05 57.562,103.626 C57.562,120.202 71.049,133.688 87.626,133.688 C104.202,133.688 117.688,120.202 117.688,103.626 C117.688,87.05 104.202,73.562 87.626,73.562" id="Fill-31" fill="#C95600"></path>
                                <path d="M22.6201,66.8662 C22.0441,66.8662 21.4951,66.5332 21.2471,65.9722 C20.9121,65.2152 21.2551,64.3292 22.0131,63.9942 C23.9711,63.1302 26.0371,62.5382 28.1561,62.2362 C28.9781,62.1192 29.7361,62.6902 29.8521,63.5112 C29.9691,64.3302 29.3991,65.0902 28.5791,65.2072 C26.7331,65.4702 24.9321,65.9842 23.2251,66.7382 C23.0281,66.8252 22.8221,66.8662 22.6201,66.8662 M13.4661,74.3932 C13.1691,74.3932 12.8691,74.3052 12.6071,74.1222 C11.9291,73.6472 11.7641,72.7122 12.2391,72.0332 C13.4651,70.2812 14.9251,68.7042 16.5771,67.3452 C17.2161,66.8182 18.1621,66.9112 18.6881,67.5512 C19.2141,68.1902 19.1221,69.1362 18.4831,69.6622 C17.0411,70.8482 15.7671,72.2242 14.6961,73.7542 C14.4051,74.1712 13.9391,74.3932 13.4661,74.3932 M9.5471,85.5722 C9.5151,85.5722 9.4821,85.5712 9.4491,85.5692 C8.6221,85.5162 7.9951,84.8032 8.0481,83.9762 C8.1851,81.8362 8.6131,79.7302 9.3201,77.7172 C9.5941,76.9342 10.4481,76.5232 11.2321,76.7982 C12.0141,77.0712 12.4251,77.9282 12.1511,78.7092 C11.5351,80.4652 11.1621,82.3022 11.0421,84.1682 C10.9911,84.9622 10.3311,85.5722 9.5471,85.5722 M11.9871,97.1662 C11.4461,97.1662 10.9231,96.8732 10.6561,96.3602 C9.6641,94.4622 8.9391,92.4382 8.5001,90.3452 C8.3301,89.5342 8.8501,88.7392 9.6611,88.5692 C10.4721,88.3912 11.2671,88.9192 11.4371,89.7292 C11.8191,91.5532 12.4511,93.3172 13.3151,94.9712 C13.6981,95.7062 13.4141,96.6122 12.6801,96.9962 C12.4581,97.1112 12.2201,97.1662 11.9871,97.1662 M20.0871,105.8122 C19.8221,105.8122 19.5531,105.7422 19.3091,105.5942 C17.4831,104.4832 15.8151,103.1292 14.3521,101.5672 C13.7851,100.9642 13.8161,100.0132 14.4201,99.4472 C15.0251,98.8822 15.9751,98.9112 16.5401,99.5162 C17.8181,100.8792 19.2741,102.0612 20.8681,103.0312 C21.5761,103.4612 21.8011,104.3842 21.3701,105.0922 C21.0881,105.5552 20.5941,105.8122 20.0871,105.8122 M31.5001,109.0002 C29.3511,109.0002 27.2231,108.7102 25.1721,108.1372 C24.3741,107.9142 23.9081,107.0872 24.1311,106.2892 C24.3531,105.4902 25.1841,105.0212 25.9791,105.2482 C27.7661,105.7472 29.6241,106.0002 31.5001,106.0002 C32.3281,106.0002 33.0001,106.6722 33.0001,107.5002 C33.0001,108.3282 32.3281,109.0002 31.5001,109.0002" id="Fill-33" fill="#7B6798"></path>
                            </g>
                        </g>
                    </g>
                </g>
            </g>
        </g>
    </g>
</svg>