<?xml version="1.0" encoding="UTF-8"?>
<svg width="35px" height="35px" viewBox="0 0 35 35" version="1.1" xmlns="http://www.w3.org/2000/svg" xmlns:xlink="http://www.w3.org/1999/xlink">
    <!-- Generator: Sketch 49.3 (51167) - http://www.bohemiancoding.com/sketch -->
    <title>buy-coins</title>
    <desc>Created with Sketch.</desc>
    <defs>
        <linearGradient x1="21.437952%" y1="72.9614258%" x2="98.6180786%" y2="1.38192135%" id="linearGradient-1">
            <stop stop-color="#B299D1" offset="0%"></stop>
            <stop stop-color="#D5B1E4" offset="100%"></stop>
        </linearGradient>
    </defs>
    <g id="Desctop" stroke="none" stroke-width="1" fill="none" fill-rule="evenodd">
        <g id="Benefits" transform="translate(-635.000000, -2868.000000)">
            <g id="2-step" transform="translate(0.000000, 2594.000000)">
                <g id="Group-49" transform="translate(499.000000, 249.000000)">
                    <g id="Group-47">
                        <g id="Group-5" transform="translate(136.000000, 25.000000)">
                            <g id="buy-coins">
                                <g id="Page-1">
                                    <polygon fill="#7B6696" points="0 -2.66453526e-15 0 4.00669772 4.00669772 4.00669772 5.47589111 6.70458984 8.16596008 8.33103002 8.40105969 4.04671467 8.40105969 4.0016956 6.60529879 -2.66453526e-15"></polygon>
                                    <g transform="translate(4.000000, 4.000000)">
                                        <path d="M8.61984091,15.2623521 L6.45598549,12 L3.36242424,17.0646021 C3.18574242,17.6001021 3,18.3201021 3,18.8556021 C3,20.8423521 4.63543939,22.4601021 6.62877273,22.4601021 L28.0219035,22.4601021 L28.0219035,19.4708252 L8.00984902,19.4708252 C6.80916543,19.4708252 6.8351664,18.6078491 6.98893182,18.3201021 C7.0914421,18.1282708 7.63507846,17.1090208 8.61984091,15.2623521 Z" id="Fill-7" fill="#7B6696"></path>
                                        <path d="M14.9464529,1.3017365e-13 L2.68540026,1.3017365e-13 C2.01031254,1.3017365e-13 1.11517912,8.67824331e-14 0,0 L7.39697921,14.2197527 C7.90645289,15.2865676 8.91697921,16 10.2580318,16 L14.9464529,16 L21.7380318,16 C23.0790845,16 24.0917161,15.2865676 24.6011897,14.2197527 L30.6622424,2.66481456 C30.9990845,2.30920961 30.9990845,2.12696208 30.9990845,1.7691346 C30.9990845,0.71120989 30.323295,1.3017365e-13 29.3127687,1.3017365e-13 L14.9464529,1.3017365e-13 Z" id="Fill-1" fill="url(#linearGradient-1)"></path>
                                        <path d="M6.664,23 C4.65257143,23 3,24.6434286 3,26.6502857 C3,28.6685714 4.65257143,30.312 6.664,30.312 C8.67314286,30.312 10.3142857,28.6685714 10.3142857,26.6502857 C10.3142857,24.6434286 8.67314286,23 6.664,23" id="Fill-1" fill="#7B6696"></path>
                                        <path d="M21,26.6502857 C21,28.6685714 22.62675,30.312 24.60675,30.312 C26.5845,30.312 28.2,28.6685714 28.2,26.6502857 C28.2,24.6434286 26.5845,23 24.60675,23 C22.62675,23 21,24.6434286 21,26.6502857 Z" id="Fill-4" fill="#7B6696"></path>
                                    </g>
                                </g>
                            </g>
                        </g>
                    </g>
                </g>
            </g>
        </g>
    </g>
</svg>