<?xml version="1.0" encoding="UTF-8"?>
<svg width="85px" height="60px" viewBox="0 0 85 60" version="1.1" xmlns="http://www.w3.org/2000/svg" xmlns:xlink="http://www.w3.org/1999/xlink">
    <!-- Generator: Sketch 49.3 (51167) - http://www.bohemiancoding.com/sketch -->
    <title>changenow</title>
    <desc>Created with Sketch.</desc>
    <defs></defs>
    <g id="Desctop" stroke="none" stroke-width="1" fill="none" fill-rule="evenodd">
        <g id="Benefits" transform="translate(-680.000000, -3903.000000)" fill-rule="nonzero">
            <g id="2-step" transform="translate(0.000000, 2330.000000)">
                <g id="Buy-emercoin" transform="translate(345.000000, 1133.000000)">
                    <g id="changenow" transform="translate(335.000000, 440.000000)">
                        <rect id="Rectangle-12" fill="#FFFFFF" x="0" y="0" width="85" height="60"></rect>
                        <path d="M10.05,13.0176353 C9.633,12.5499259 9.196,12.1945531 8.737,11.9504369 C8.279,11.7074008 7.733,11.5864228 7.1,11.5864228 C6.483,11.5864228 5.946,11.7074008 5.488,11.951517 C5.028,12.1945531 4.646,12.5272425 4.338,12.9506653 C4.028,13.3719279 3.796,13.858 3.638,14.4088818 C3.478,14.9576032 3.4,15.529008 3.4,16.1230962 C3.4,16.7171844 3.492,17.2788677 3.675,17.8113868 C3.858,18.3406653 4.117,18.8051343 4.45,19.2015531 C4.783,19.5979719 5.183,19.907978 5.65,20.1337315 C6.117,20.3584048 6.642,20.4707415 7.225,20.4707415 C7.858,20.4707415 8.4,20.3497635 8.85,20.1067275 C9.3,19.8626112 9.717,19.5072385 10.1,19.0395291 L11.7,20.7677856 C11.117,21.4698898 10.438,21.9743246 9.663,22.28001 C8.887,22.5856954 8.067,22.7390782 7.2,22.7390782 C6.283,22.7390782 5.446,22.5770541 4.687,22.253006 C3.929,21.9289579 3.275,21.4752906 2.725,20.8887635 C2.175,20.305477 1.75,19.6033727 1.45,18.7824509 C1.15,17.9636894 1,17.0595952 1,16.0690882 C1,15.0785812 1.15,14.1701663 1.45,13.3416834 C1.75,12.5132004 2.17,11.8024549 2.712,11.2083667 C3.254,10.6142786 3.904,10.1498096 4.662,9.8182004 C5.422,9.4833507 6.267,9.31808617 7.2,9.31808617 C8.067,9.31808617 8.896,9.48443086 9.687,9.8182004 C10.479,10.1508898 11.167,10.6607255 11.75,11.3433868 L10.05,13.0176353 Z M14.07,2 L16.32,2 L16.32,11.5864228 L16.37,11.5864228 C16.653,10.9026814 17.144,10.3485591 17.844,9.92621643 C18.544,9.50279359 19.352,9.29108216 20.268,9.29108216 C20.835,9.29108216 21.381,9.38505611 21.906,9.57516433 C22.431,9.76419238 22.889,10.0558357 23.281,10.4522545 C23.673,10.8486733 23.985,11.3563487 24.218,11.978521 C24.452,12.5996132 24.568,13.3330421 24.568,14.1788076 L24.568,22.4150301 L22.318,22.4150301 L22.318,14.8539078 C22.318,14.2598196 22.243,13.7521443 22.093,13.3287214 C21.943,12.9052986 21.743,12.5618076 21.493,12.3025691 C21.243,12.0411703 20.955,11.8521423 20.63,11.735485 C20.305,11.6166673 19.967,11.5594188 19.617,11.5594188 C19.151,11.5594188 18.717,11.6404309 18.317,11.8024549 C17.917,11.964479 17.567,12.220477 17.267,12.5715291 C16.967,12.9236613 16.734,13.3686874 16.567,13.9087675 C16.401,14.4488477 16.317,15.0883026 16.317,15.8260521 L16.317,22.4150301 L14.067,22.4150301 L14.067,2 L14.07,2 Z M28.464,11.1813627 C29.096,10.5516293 29.83,10.0795992 30.664,9.76311222 C31.496,9.44986573 32.33,9.29108216 33.164,9.29108216 C34.03,9.29108216 34.774,9.40773948 35.4,9.64213427 C36.025,9.87652906 36.538,10.1908557 36.938,10.5872745 C37.338,10.9836934 37.634,11.4373607 37.825,11.9504369 C38.018,12.4645932 38.115,12.9981924 38.115,13.5577154 L38.115,20.0926854 C38.115,20.5431122 38.122,20.9568136 38.139,21.3348697 C38.156,21.7129259 38.181,22.0726192 38.214,22.4150301 L36.214,22.4150301 C36.164,21.7669339 36.138,21.1188377 36.138,20.4707415 L36.088,20.4707415 C35.588,21.2992244 34.996,21.8835912 34.313,22.226002 C33.629,22.5684128 32.837,22.7390782 31.937,22.7390782 C31.387,22.7390782 30.862,22.6580661 30.362,22.4960421 C29.862,22.334018 29.422,22.090982 29.048,21.7669339 C28.673,21.4428858 28.378,21.0432265 28.161,20.5657956 C27.943,20.0883647 27.835,19.5342425 27.835,18.904509 C27.835,18.0760261 28.005,17.3836433 28.347,16.8252004 C28.689,16.2667575 29.157,15.8130902 29.747,15.4620381 C30.339,15.1099058 31.031,14.8571483 31.822,14.7059259 C32.615,14.5525431 33.462,14.4758517 34.362,14.4758517 L36.012,14.4758517 L36.012,13.9357715 C36.012,13.6117234 35.952,13.2876754 35.836,12.9636273 C35.719,12.6395792 35.544,12.3479359 35.311,12.0854569 C35.077,11.8262184 34.785,11.6177475 34.435,11.4654449 C34.085,11.3120621 33.668,11.2353707 33.185,11.2353707 C32.752,11.2353707 32.372,11.2807375 32.047,11.3703908 C31.722,11.4600441 31.427,11.5723808 31.16,11.708481 C30.892,11.843501 30.65,12.0001242 30.434,12.180511 C30.217,12.3608978 30.009,12.5315631 29.809,12.6935872 L28.459,11.1813627 L28.464,11.1813627 Z M34.814,16.2581162 C34.28,16.2581162 33.734,16.290521 33.174,16.3520902 C32.617,16.4168998 32.109,16.5357174 31.65,16.7171844 C31.192,16.8975711 30.817,17.1492485 30.525,17.4732966 C30.235,17.7973447 30.089,18.2110461 30.089,18.715481 C30.089,19.4532305 30.319,19.9846693 30.776,20.3087174 C31.236,20.6327655 31.856,20.7947896 32.64,20.7947896 C33.257,20.7947896 33.782,20.6824529 34.215,20.4566994 C34.647,20.2320261 34.997,19.9382224 35.265,19.5796092 C35.531,19.2199158 35.722,18.8191764 35.839,18.3773908 C35.956,17.9366854 36.014,17.5003006 36.014,17.0682365 L36.014,16.2581162 L34.814,16.2581162 Z M41.832,9.61513026 L44.082,9.61513026 L44.082,11.5864228 L44.132,11.5864228 C44.416,10.9026814 44.907,10.3485591 45.607,9.92621643 C46.307,9.50279359 47.117,9.29108216 48.032,9.29108216 C48.599,9.29108216 49.145,9.38505611 49.67,9.57516433 C50.195,9.76419238 50.653,10.0558357 51.045,10.4522545 C51.438,10.8486733 51.75,11.3563487 51.983,11.978521 C52.217,12.5996132 52.333,13.3330421 52.333,14.1788076 L52.333,22.4150301 L50.083,22.4150301 L50.083,14.8539078 C50.083,14.2598196 50.008,13.7521443 49.858,13.3287214 C49.708,12.9052986 49.508,12.5618076 49.258,12.3025691 C49.008,12.0411703 48.721,11.8521423 48.396,11.735485 C48.072,11.6166673 47.734,11.5594188 47.384,11.5594188 C46.918,11.5594188 46.484,11.6404309 46.084,11.8024549 C45.684,11.964479 45.334,12.220477 45.034,12.5715291 C44.734,12.9236613 44.501,13.3686874 44.334,13.9087675 C44.168,14.4488477 44.084,15.0883026 44.084,15.8260521 L44.084,22.4150301 L41.834,22.4150301 L41.834,9.61513026 L41.832,9.61513026 Z M68.052,22.307014 C68.052,23.2791583 67.898,24.1648898 67.589,24.9674489 C67.281,25.7667675 66.843,26.4613106 66.277,27.0467575 C65.71,27.6300441 65.027,28.0858717 64.227,28.4099198 C63.427,28.7339679 62.543,28.895992 61.577,28.895992 C60.443,28.895992 59.407,28.7253267 58.464,28.3829158 C57.524,28.040505 56.627,27.4464168 55.777,26.6006513 L57.302,24.5483467 C57.885,25.2320882 58.518,25.749485 59.202,26.1016172 C59.885,26.4526693 60.66,26.6276553 61.527,26.6276553 C62.36,26.6276553 63.052,26.4980361 63.602,26.2366373 C64.152,25.9752385 64.589,25.6371483 64.914,25.2234469 C65.239,24.8097455 65.468,24.3377154 65.602,23.8051964 C65.735,23.2759178 65.802,22.7390782 65.802,22.198998 L65.802,20.3087174 L65.727,20.3087174 C65.293,21.0831924 64.707,21.6545972 63.964,22.0229319 C63.224,22.3923467 62.444,22.5770541 61.627,22.5770541 C60.76,22.5770541 59.957,22.4107094 59.214,22.07802 C58.474,21.7431703 57.834,21.2851824 57.302,20.7008156 C56.768,20.1153687 56.352,19.4219058 56.052,18.621507 C55.752,17.8200281 55.602,16.9515792 55.602,16.0150802 C55.602,15.0785812 55.742,14.2004108 56.027,13.3816493 C56.31,12.5628878 56.714,11.8478216 57.239,11.2353707 C57.764,10.6229198 58.399,10.1465691 59.139,9.80415832 C59.881,9.46174749 60.709,9.29108216 61.627,9.29108216 C62.427,9.29108216 63.207,9.48011022 63.964,9.85816633 C64.724,10.2362224 65.318,10.7676613 65.752,11.4514028 L65.802,11.4514028 L65.802,9.61513026 L68.052,9.61513026 L68.052,22.307014 Z M61.902,11.5594188 C61.302,11.5594188 60.76,11.6717555 60.277,11.897509 C59.793,12.1221824 59.385,12.4267876 59.052,12.8156453 C58.718,13.2023427 58.46,13.6689719 58.277,14.2198537 C58.093,14.7685752 58.002,15.366984 58.002,16.0150802 C58.002,17.3112725 58.352,18.3503868 59.052,19.1345832 C59.752,19.9176994 60.702,20.3087174 61.902,20.3087174 C63.102,20.3087174 64.052,19.9176994 64.752,19.133503 C65.452,18.3503868 65.802,17.3112725 65.802,16.0150802 C65.802,15.366984 65.71,14.7685752 65.527,14.2198537 C65.343,13.6689719 65.085,13.2023427 64.752,12.8156453 C64.418,12.4267876 64.01,12.1221824 63.527,11.897509 C63.043,11.6706754 62.502,11.5594188 61.902,11.5594188 Z M73.596,16.9062124 C73.596,17.4646553 73.709,17.9723307 73.934,18.4313988 C74.159,18.8915471 74.454,19.2825651 74.821,19.6066132 C75.188,19.9306613 75.613,20.1823387 76.096,20.3627255 C76.58,20.5431122 77.08,20.6327655 77.596,20.6327655 C78.296,20.6327655 78.906,20.4577796 79.421,20.1056473 C79.938,19.7545952 80.413,19.2912064 80.846,18.715481 L82.546,20.1196894 C81.296,21.8663086 79.546,22.7390782 77.296,22.7390782 C76.363,22.7390782 75.516,22.5684128 74.759,22.226002 C73.999,21.8835912 73.359,21.4115611 72.834,20.8077515 C72.309,20.205022 71.904,19.4942766 71.621,18.6744349 C71.338,17.8556733 71.196,16.9677816 71.196,16.0150802 C71.196,15.0612986 71.35,14.174487 71.659,13.3557255 C71.967,12.5348036 72.392,11.8251383 72.934,11.2213287 C73.474,10.6185992 74.121,10.1465691 74.871,9.80415832 C75.621,9.46174749 76.438,9.29108216 77.321,9.29108216 C78.371,9.29108216 79.259,9.4887515 79.984,9.88517034 C80.709,10.2815892 81.304,10.798986 81.771,11.4384409 C82.238,12.0757355 82.575,12.7972826 82.784,13.5987615 C82.992,14.3980802 83.096,15.2136012 83.096,16.0420842 L83.096,16.9062124 L73.596,16.9062124 Z M80.696,14.9619238 C80.68,14.4218437 80.6,13.9271303 80.459,13.4767034 C80.317,13.0262766 80.105,12.6341784 79.821,12.301489 C79.538,11.9687996 79.184,11.7074008 78.759,11.5183727 C78.334,11.3293447 77.839,11.2353707 77.271,11.2353707 C76.721,11.2353707 76.217,11.3477074 75.759,11.5734609 C75.299,11.7981343 74.913,12.0919379 74.596,12.4505511 C74.28,12.8102445 74.034,13.210984 73.859,13.6516894 C73.684,14.0945551 73.596,14.5298597 73.596,14.9619238 L80.696,14.9619238 Z" id="Shape" fill="#2B2B37"></path>
                        <path d="M39.252,57.6023327 C37.524,57.6023327 35.934,57.2739639 34.484,56.6172265 C33.032,55.960489 31.789,55.0563948 30.754,53.9038637 C29.72,52.7513327 28.909,51.392491 28.324,49.8251784 C27.736,48.2589459 27.444,46.5630942 27.444,44.7441042 C27.444,42.9240341 27.736,41.2303427 28.324,39.6630301 C28.909,38.0967976 29.72,36.7357956 30.754,35.5843447 C31.789,34.4318136 33.032,33.5277194 34.484,32.870982 C35.934,32.2142445 37.524,31.8858758 39.251,31.8858758 C40.979,31.8858758 42.568,32.2142445 44.019,32.870982 C45.469,33.5277194 46.712,34.4318136 47.747,35.5843447 C48.781,36.7368758 49.592,38.0957174 50.179,39.6630301 C50.765,41.2292625 51.059,42.9251142 51.059,44.7441042 C51.059,46.5641743 50.765,48.2578657 50.179,49.8251784 C49.592,51.3914108 48.781,52.7524128 47.747,53.9038637 C46.712,55.0563948 45.469,55.960489 44.019,56.6172265 C42.569,57.2739639 40.979,57.6023327 39.251,57.6023327 L39.252,57.6023327 Z M39.252,54.4914709 C40.552,54.4914709 41.726,54.2322325 42.772,53.7137555 C43.817,53.1952786 44.712,52.4985752 45.46,51.6225651 C46.206,50.7476353 46.782,49.7160822 47.188,48.528986 C47.593,47.3408096 47.796,46.0802625 47.796,44.7441042 C47.796,43.4079459 47.594,42.1463186 47.189,40.9592224 C46.783,39.7710461 46.207,38.7416533 45.461,37.8656433 C44.714,36.9907134 43.818,36.2929299 42.773,35.7744529 C41.727,35.255976 40.553,34.9967375 39.253,34.9967375 C37.951,34.9967375 36.778,35.255976 35.733,35.7744529 C34.687,36.2929299 33.791,36.9896333 33.045,37.8656433 C32.297,38.7405731 31.721,39.7721263 31.315,40.9592224 C30.91,42.1473988 30.708,43.4079459 30.708,44.7441042 C30.708,46.0802625 30.91,47.3418898 31.316,48.528986 C31.722,49.7171623 32.298,50.7465551 33.046,51.6225651 C33.791,52.497495 34.686,53.1952786 35.733,53.7137555 C36.778,54.2322325 37.951,54.4914709 39.253,54.4914709 L39.252,54.4914709 Z M2.787,32.5080481 L6.819,32.5080481 L19.299,52.6249539 L19.363,52.6249539 L19.363,32.5080481 L22.435,32.5080481 L22.435,56.9801603 L18.531,56.9801603 L5.923,36.8632545 L5.859,36.8632545 L5.859,56.9801603 L2.787,56.9801603 L2.787,32.5080481 Z M53.188,32.5080481 L56.388,32.5080481 L61.38,52.0719118 L61.444,52.0719118 L66.787,32.5080481 L70.307,32.5080481 L75.651,52.0719118 L75.715,52.0719118 L80.708,32.5080481 L83.908,32.5080481 L77.315,56.9801603 L74.085,56.9801603 L68.58,37.001515 L68.516,37.001515 L63.045,56.9801603 L59.812,56.9801603 L53.188,32.5080481 Z" id="Shape" fill="#3BEE81"></path>
                    </g>
                </g>
            </g>
        </g>
    </g>
</svg>