<?xml version="1.0" encoding="UTF-8"?>
<svg width="22px" height="22px" viewBox="0 0 22 22" version="1.1" xmlns="http://www.w3.org/2000/svg" xmlns:xlink="http://www.w3.org/1999/xlink">
    <!-- Generator: Sketch 49.3 (51167) - http://www.bohemiancoding.com/sketch -->
    <title>coin</title>
    <desc>Created with Sketch.</desc>
    <defs>
        <polygon id="path-1" points="0 0.0625 21.0925 0.0625 21.0925 20.9995 0 20.9995"></polygon>
    </defs>
    <g id="coin" stroke="none" stroke-width="1" fill="none" fill-rule="evenodd">
        <g id="Group-10">
            <path d="M22,11 C22,17.075 17.075,22 11,22 C4.925,22 0,17.075 0,11 C0,4.925 4.925,0 11,0 C17.075,0 22,4.925 22,11" id="Fill-1" fill="#FFD833"></path>
            <g id="Group-5" transform="translate(0.000000, 1.000000)">
                <mask id="mask-2" fill="white">
                    <use xlink:href="#path-1"></use>
                </mask>
                <g id="Clip-4"></g>
                <path d="M17.7695,14.8525 C11.2275,14.8525 5.9235,9.5485 5.9235,3.0055 C5.9235,1.9885 6.0655,1.0055 6.3065,0.0625 C2.5825,1.8255 -0.0005,5.6065 -0.0005,9.9995 C-0.0005,16.0755 4.9245,20.9995 10.9995,20.9995 C15.5205,20.9995 19.4005,18.2705 21.0925,14.3715 C20.0375,14.6795 18.9245,14.8525 17.7695,14.8525" id="Fill-3" fill="#FFB012" mask="url(#mask-2)"></path>
            </g>
            <polygon id="Fill-6" fill="#C95600" points="6 6 6 8.02001953 10.0202637 8.02001953 10.0202637 10.0152588 6 10.0152588 6 12.0088218 11.9996948 12.0048218 11.9996948 8 14.0206909 8 14.0206909 14.0135498 6 14.0135498 6 16.0097046 16 16.0107046 16 6"></polygon>
            <path d="M11,2.3672 C6.24,2.3672 2.367,6.2402 2.367,11.0002 C2.367,15.7602 6.24,19.6332 11,19.6332 C15.76,19.6332 19.633,15.7602 19.633,11.0002 C19.633,6.2402 15.76,2.3672 11,2.3672 M11,20.4762 C5.775,20.4762 1.524,16.2242 1.524,11.0002 C1.524,5.7752 5.775,1.5232 11,1.5232 C16.225,1.5232 20.476,5.7752 20.476,11.0002 C20.476,16.2242 16.225,20.4762 11,20.4762" id="Fill-8" fill="#C95600"></path>
        </g>
    </g>
</svg>