<?xml version="1.0" encoding="UTF-8"?>
<svg width="50px" height="49px" viewBox="0 0 50 49" version="1.1" xmlns="http://www.w3.org/2000/svg" xmlns:xlink="http://www.w3.org/1999/xlink">
    <!-- Generator: Sketch 49.3 (51167) - http://www.bohemiancoding.com/sketch -->
    <title>connect-github</title>
    <desc>Created with Sketch.</desc>
    <defs></defs>
    <g id="Desctop" stroke="none" stroke-width="1" fill="none" fill-rule="evenodd">
        <g id="Developers" transform="translate(-625.000000, -5362.000000)" fill="#181717">
            <g id="Development-community" transform="translate(0.000000, 5198.000000)">
                <g id="Github" transform="translate(546.000000, 134.000000)">
                    <g id="connect-github" transform="translate(79.000000, 30.000000)">
                        <path d="M24.9984653,0 C11.193984,0 0,11.251384 0,25.133182 C0,36.2333751 7.16236955,45.6534972 17.0979128,48.9766126 C18.3486802,49.2080274 18.8044813,48.4320166 18.8044813,47.7655422 C18.8044813,47.1684922 18.7829957,45.588701 18.7707182,43.4905409 C11.8170657,45.0101642 10.3499079,40.1226852 10.3499079,40.1226852 C9.21270718,37.2192018 7.57366483,36.4462766 7.57366483,36.4462766 C5.3038674,34.8880841 7.74554942,34.9189394 7.74554942,34.9189394 C10.2547575,35.0979001 11.5745856,37.5076988 11.5745856,37.5076988 C13.8044813,41.3491833 17.4248005,40.2399353 18.8505218,39.5966024 C19.077655,37.972071 19.7222222,36.8659086 20.4373849,36.2364606 C14.8864334,35.603927 9.05003069,33.4471417 9.05003069,23.8172036 C9.05003069,21.0741677 10.0245549,18.8309876 11.6236955,17.0737785 C11.3658686,16.4381594 10.5079804,13.8833408 11.8677103,10.4229193 C11.8677103,10.4229193 13.9671578,9.74718826 18.7430939,12.9993365 C20.7366483,12.4408557 22.8759975,12.163158 25.0015347,12.1523587 C27.1240025,12.163158 29.2633517,12.4408557 31.2599754,12.9993365 C36.0328422,9.74718826 38.1276857,10.4229193 38.1276857,10.4229193 C39.4920196,13.8833408 38.6341314,16.4381594 38.3763045,17.0737785 C39.9785144,18.8309876 40.9468999,21.0741677 40.9468999,23.8172036 C40.9468999,33.471826 35.1012891,35.5962132 29.5319214,36.2179474 C30.4297115,36.9939581 31.2292818,38.5274664 31.2292818,40.8709262 C31.2292818,44.231068 31.1985881,46.9417058 31.1985881,47.7655422 C31.1985881,48.4366449 31.6482505,49.2188267 32.917434,48.9735271 C42.8422345,45.6442406 50,36.2302895 50,25.133182 C50,11.251384 38.806016,0 24.9984653,0" id="Fill-1"></path>
                    </g>
                </g>
            </g>
        </g>
    </g>
</svg>