<?xml version="1.0" encoding="UTF-8"?>
<svg width="50px" height="50px" viewBox="0 0 50 50" version="1.1" xmlns="http://www.w3.org/2000/svg" xmlns:xlink="http://www.w3.org/1999/xlink">
    <!-- Generator: Sketch 49.3 (51167) - http://www.bohemiancoding.com/sketch -->
    <title>connect-emercoin</title>
    <desc>Created with Sketch.</desc>
    <defs></defs>
    <g id="Desctop" stroke="none" stroke-width="1" fill="none" fill-rule="evenodd">
        <g id="Developers" transform="translate(-251.000000, -5362.000000)">
            <g id="Development-community" transform="translate(0.000000, 5198.000000)">
                <g id="Emercoin-api" transform="translate(165.000000, 134.000000)">
                    <g id="connect-emercoin" transform="translate(86.000000, 30.000000)">
                        <rect id="Rectangle-28" fill="#7B6696" x="0" y="0" width="49.0196078" height="49.0196078" rx="24.5098039"></rect>
                        <g id="Page-1" transform="translate(14.000000, 15.000000)" fill="#FEFEFE">
                            <path d="M21.6408878,19.6571778 C21.6463621,18.9990817 21.6419827,18.3420059 21.6452672,17.6839098 C21.6452672,11.7906336 21.6430775,5.89735741 21.6463621,0.00306091215 C20.8558774,0.0020406081 20.0653927,0 19.2749079,0 C12.8503036,0.00306091215 6.42569921,-0.00102030405 0,0.0020406081 C0,1.45393327 0,2.90684624 0,4.3587389 L8.59570021,4.3587389 C8.59460535,5.61983471 8.59679506,6.88195082 8.59460535,8.14406693 C8.59679506,8.17059484 8.59679506,8.20120396 8.61321788,8.22671156 C5.86184931,8.23079278 3.11157559,8.22263034 0.360207027,8.23079278 C0.364586444,9.49801041 0.361301881,10.7642077 0.362396735,12.0304051 C0.347068777,12.1018263 0.437941674,12.0834609 0.48392555,12.0875421 C4.79436648,12.0834609 9.10480741,12.0916233 13.4152483,12.0834609 C13.4097741,12.0732578 13.3988255,12.056933 13.3933512,12.0477502 C13.2772967,11.9467401 13.1612422,11.8477706 13.0451876,11.7467605 C13.0506619,9.28476686 13.0473773,6.82175288 13.0473773,4.35975921 C14.4301782,4.3577186 15.8118841,4.35975921 17.194685,4.3587389 C17.1979695,8.20936639 17.1924953,12.0610142 17.1979695,15.912662 C14.7673933,15.9106214 12.336817,15.912662 9.90624067,15.9116417 C6.72459441,15.912662 3.54294814,15.9085808 0.361301881,15.9136823 C0.36349159,16.5993266 0.362396735,17.2839506 0.362396735,17.9695949 C0.366776152,18.6460565 0.354732756,19.3235384 0.36896586,20 C7.57967553,19.9989797 14.7892903,20 22,19.9989797 C21.9956206,19.9928579 21.9868617,19.9775533 21.9824823,19.9714315 C21.8719021,19.8642996 21.7547527,19.7622692 21.6408878,19.6571778" id="Fill-1"></path>
                        </g>
                    </g>
                </g>
            </g>
        </g>
    </g>
</svg>