<?xml version="1.0" encoding="utf-8"?>
<!-- Generator: Adobe Illustrator 22.0.1, SVG Export Plug-In . SVG Version: 6.00 Build 0)  -->
<svg version="1.1" id="Layer_1" xmlns="http://www.w3.org/2000/svg" xmlns:xlink="http://www.w3.org/1999/xlink" x="0px" y="0px"
	 viewBox="0 0 78 69" style="enable-background:new 0 0 78 69;" xml:space="preserve">
<style type="text/css">
	.st0{fill:#FF6600;}
</style>
<path class="st0" d="M44.5,36.6c0-12.7-4.5-18.5-6.9-20.7c-0.5-0.4-1.2-0.1-1.1,0.6c0.5,7.2-8.6,9-8.6,20.2l0,0v0.1
	c0,6.9,5.2,12.5,11.6,12.5S51,43.7,51,36.8v-0.1l0,0c0-3.2-1.2-6.3-2.4-8.5c-0.3-0.5-0.9-0.3-0.9,0.1C50,38.1,44.5,44.1,44.5,36.6z"
	/>
<g>
	<path class="st0" d="M30.7,63.4c-0.3,0-0.6-0.1-0.8-0.3L0.3,33.5c-0.4-0.4-0.4-1.1,0-1.6L31.6,0.6c0.2-0.1,0.5-0.3,0.7-0.3h9
		c0.5,0,0.9,0.3,1,0.7s0.1,0.8-0.3,1.2L12.7,31.6c-0.6,0.6-0.6,1.5,0,2.1L35.9,57c0.4,0.4,0.4,1.1,0,1.6l-4.5,4.5
		C31.3,63.3,31,63.4,30.7,63.4z"/>
</g>
<g>
	<path class="st0" d="M36.7,68.6c-0.5,0-0.9-0.3-1-0.7c-0.1-0.3-0.1-0.8,0.3-1.2l29.4-29.4c0.3-0.3,0.5-0.7,0.5-1.1
		s-0.1-0.8-0.5-1.1L42,11.9c-0.4-0.4-0.4-1.1,0-1.6l4.5-4.5c0.2-0.2,0.5-0.3,0.8-0.3c0.3,0,0.5,0.2,0.7,0.4l29.6,29.6
		c0.2,0.2,0.3,0.5,0.3,0.8c0,0.3-0.1,0.6-0.3,0.8L46.4,68.4c-0.2,0.2-0.5,0.3-0.8,0.3L36.7,68.6L36.7,68.6z"/>
</g>
</svg>
