<?xml version="1.0" encoding="UTF-8"?>
<svg width="140px" height="160px" viewBox="0 0 140 160" version="1.1" xmlns="http://www.w3.org/2000/svg" xmlns:xlink="http://www.w3.org/1999/xlink">
    <!-- Generator: sketchtool 51 (57462) - http://www.bohemiancoding.com/sketch -->
    <title>90BDD9EB-45CC-4E22-8F66-0ABCA35EF04E</title>
    <desc>Created with sketchtool.</desc>
    <defs>
        <polygon id="path-1" points="0 160 140 160 140 0 0 0"></polygon>
    </defs>
    <g id="Desctop" stroke="none" stroke-width="1" fill="none" fill-rule="evenodd">
        <g id="Social" transform="translate(-230.000000, -4629.000000)">
            <rect fill="#FFFFFF" x="0" y="0" width="1440" height="6635"></rect>
            <g id="Group" transform="translate(0.000000, 3709.000000)">
                <g id="CPC" transform="translate(165.000000, 860.000000)">
                    <g id="Icon-cpc" transform="translate(65.000000, 60.000000)">
                        <g id="Icons/bounty-program/cpc">
                            <g id="Group-38">
                                <polygon id="Fill-1" fill="#F7F7F7" points="70.0011 -0.0002 0.0001 40.0078 0.0001 119.4188 70.0011 159.9998 140.0001 118.7888 140.0001 40.0078"></polygon>
                                <polygon id="Fill-2" fill="#E8E8E8" points="127 47.5059 70.001 14.9999 13 47.5059 13 112.0269 70.001 144.9999 127 111.5169"></polygon>
                                <polygon id="Fill-3" fill="#5DCE63" points="48.75 134 137.122 134 137.122 84.466 48.75 84.466"></polygon>
                                <g id="Group-37">
                                    <path d="M92.6104,98.0127 C86.5234,98.0127 81.5894,103.6527 81.5894,110.6087 C81.5894,117.5657 86.5234,123.2047 92.6104,123.2047 C98.6974,123.2047 103.6314,117.5657 103.6314,110.6087 C103.6314,103.6527 98.6974,98.0127 92.6104,98.0127" id="Fill-4" fill="#2DA52F"></path>
                                    <path d="M67.9424,104.3105 C64.4634,104.3105 61.6444,107.1295 61.6444,110.6085 C61.6444,114.0865 64.4634,116.9075 67.9424,116.9075 C71.4214,116.9075 74.2404,114.0865 74.2404,110.6085 C74.2404,107.1295 71.4214,104.3105 67.9424,104.3105" id="Fill-6" fill="#2DA52F"></path>
                                    <path d="M117.2783,104.3105 C113.7993,104.3105 110.9793,107.1295 110.9793,110.6085 C110.9793,114.0865 113.7993,116.9075 117.2783,116.9075 C120.7563,116.9075 123.5763,114.0865 123.5763,110.6085 C123.5763,107.1295 120.7563,104.3105 117.2783,104.3105" id="Fill-8" fill="#2DA52F"></path>
                                    <mask id="mask-2" fill="white">
                                        <use xlink:href="#path-1"></use>
                                    </mask>
                                    <g id="Clip-11"></g>
                                    <polygon id="Fill-10" fill="#2DA52F" mask="url(#mask-2)" points="48.75 134 132.924 134 132.924 88.665 48.75 88.665"></polygon>
                                    <path d="M92.958,115.3486 C93.406,115.2906 93.734,115.1876 93.938,115.0366 C94.297,114.7736 94.477,114.3156 94.477,113.6656 C94.477,113.1706 94.309,112.7806 93.973,112.4926 C93.774,112.3256 93.436,112.1536 92.958,111.9746 L92.958,115.3486 Z M92.121,106.3316 C91.621,106.3436 91.25,106.4776 91.008,106.7336 C90.767,106.9896 90.645,107.3386 90.645,107.7826 C90.645,108.2646 90.827,108.6476 91.189,108.9296 C91.391,109.0846 91.701,109.2286 92.121,109.3606 L92.121,106.3316 Z M92.958,119.0056 L92.121,119.0056 L92.121,117.2886 C90.988,117.1626 90.143,116.9146 89.585,116.5476 C88.601,115.8856 88.118,114.7586 88.135,113.1646 L90.465,113.1646 C90.545,113.8896 90.657,114.3756 90.801,114.6226 C91.025,115.0086 91.466,115.2586 92.121,115.3736 L92.121,111.6906 L91.422,111.4836 C90.323,111.1616 89.549,110.7116 89.097,110.1366 C88.646,109.5616 88.42,108.8696 88.42,108.0576 C88.42,107.5226 88.508,107.0366 88.683,106.5996 C88.858,106.1626 89.104,105.7856 89.421,105.4696 C89.829,105.0616 90.283,104.7796 90.784,104.6236 C91.089,104.5266 91.534,104.4536 92.121,104.4086 L92.121,103.2606 L92.958,103.2606 L92.958,104.4256 C93.892,104.4996 94.624,104.7306 95.156,105.1166 C96.124,105.7316 96.625,106.7296 96.659,108.1096 L94.39,108.1096 C94.344,107.5976 94.259,107.2236 94.134,106.9886 C93.918,106.5796 93.526,106.3556 92.958,106.3156 L92.958,109.6026 C94.321,110.0746 95.237,110.4916 95.707,110.8536 C96.479,111.4566 96.866,112.3086 96.866,113.4076 C96.866,114.8566 96.334,115.9096 95.271,116.5646 C94.62,116.9666 93.85,117.2026 92.958,117.2726 L92.958,119.0056 Z" id="Fill-12" fill="#FFFFFF" mask="url(#mask-2)"></path>
                                    <path d="M101.416,71 L37.416,71 C26.37,71 17.416,62.046 17.416,51 C17.416,39.954 26.37,31 37.416,31 L101.416,31 C112.462,31 121.416,39.954 121.416,51 C121.416,62.046 112.462,71 101.416,71" id="Fill-13" fill="#FFC033" mask="url(#mask-2)"></path>
                                    <path d="M6.2969,93.5723 C7.0819,93.5723 7.7409,92.9623 7.7929,92.1683 C7.9119,90.3013 8.2849,88.4653 8.9009,86.7093 C9.1749,85.9273 8.7639,85.0713 7.9829,84.7983 C7.1979,84.5233 6.3439,84.9343 6.0699,85.7173 C5.3629,87.7303 4.9359,89.8363 4.7989,91.9763 C4.7459,92.8023 5.3729,93.5163 6.1989,93.5693 C6.2329,93.5713 6.2649,93.5723 6.2969,93.5723" id="Fill-14" fill="#7B6798" mask="url(#mask-2)"></path>
                                    <path d="M17.6182,111.0312 C16.0242,110.0612 14.5682,108.8792 13.2912,107.5162 C12.7252,106.9112 11.7752,106.8822 11.1702,107.4472 C10.5662,108.0132 10.5352,108.9642 11.1012,109.5672 C12.5652,111.1292 14.2332,112.4832 16.0592,113.5942 C16.3032,113.7422 16.5722,113.8122 16.8382,113.8122 C17.3442,113.8122 17.8382,113.5552 18.1212,113.0922 C18.5512,112.3842 18.3262,111.4612 17.6182,111.0312" id="Fill-15" fill="#7B6798" mask="url(#mask-2)"></path>
                                    <path d="M9.3574,82.1221 C9.6194,82.3061 9.9194,82.3931 10.2164,82.3931 C10.6894,82.3931 11.1544,82.1711 11.4464,81.7541 C12.5174,80.2251 13.7914,78.8491 15.2324,77.6621 C15.8734,77.1361 15.9644,76.1901 15.4374,75.5511 C14.9124,74.9111 13.9664,74.8181 13.3264,75.3461 C11.6744,76.7041 10.2144,78.2811 8.9894,80.0331 C8.5134,80.7121 8.6784,81.6471 9.3574,82.1221" id="Fill-16" fill="#7B6798" mask="url(#mask-2)"></path>
                                    <path d="M8.1875,97.7295 C8.0175,96.9185 7.2225,96.3915 6.4105,96.5695 C5.5995,96.7395 5.0805,97.5345 5.2495,98.3445 C5.6895,100.4385 6.4145,102.4615 7.4065,104.3605 C7.6735,104.8735 8.1955,105.1665 8.7365,105.1665 C8.9705,105.1665 9.2085,105.1115 9.4295,104.9965 C10.1645,104.6125 10.4485,103.7065 10.0645,102.9715 C9.2015,101.3175 8.5695,99.5535 8.1875,97.7295" id="Fill-17" fill="#7B6798" mask="url(#mask-2)"></path>
                                    <path d="M26.6025,71.5107 C26.4865,70.6907 25.7285,70.1187 24.9065,70.2367 C22.7875,70.5377 20.7205,71.1297 18.7635,71.9937 C18.0055,72.3287 17.6625,73.2147 17.9975,73.9727 C18.2445,74.5327 18.7935,74.8657 19.3705,74.8657 C19.5725,74.8657 19.7775,74.8247 19.9745,74.7387 C21.6815,73.9847 23.4825,73.4697 25.3295,73.2067 C26.1495,73.0897 26.7185,72.3297 26.6025,71.5107" id="Fill-18" fill="#7B6798" mask="url(#mask-2)"></path>
                                    <path d="M28.25,114 C26.374,114 24.517,113.747 22.729,113.248 C21.934,113.021 21.104,113.49 20.881,114.289 C20.658,115.087 21.125,115.914 21.922,116.137 C23.973,116.71 26.102,117 28.25,117 C29.078,117 29.75,116.328 29.75,115.5 C29.75,114.672 29.078,114 28.25,114" id="Fill-19" fill="#7B6798" mask="url(#mask-2)"></path>
                                    <path d="M33.4336,109.5996 C32.8516,109.0076 31.9026,109.0056 31.3126,109.5856 C30.7226,110.1676 30.7166,111.1186 31.2996,111.7066 L35.1206,115.5756 L31.2526,119.3946 C30.6636,119.9766 30.6586,120.9266 31.2406,121.5156 C31.5336,121.8136 31.9196,121.9616 32.3066,121.9616 C32.6876,121.9616 33.0686,121.8176 33.3616,121.5296 L39.3626,115.6006 L33.4336,109.5996 Z" id="Fill-20" fill="#7B6798" mask="url(#mask-2)"></path>
                                    <path d="M69.75,14.4746 C68.369,14.4746 67.25,15.5936 67.25,16.9746 L67.25,23.9746 C67.25,25.3556 68.369,26.4746 69.75,26.4746 C71.131,26.4746 72.25,25.3556 72.25,23.9746 L72.25,16.9746 C72.25,15.5936 71.131,14.4746 69.75,14.4746" id="Fill-21" fill="#443462" mask="url(#mask-2)"></path>
                                    <path d="M84.9922,19.2578 C84.0152,18.2808 82.4332,18.2808 81.4572,19.2578 L76.5082,24.2068 C75.5312,25.1838 75.5312,26.7658 76.5082,27.7418 C76.9962,28.2308 77.6362,28.4748 78.2752,28.4748 C78.9152,28.4748 79.5552,28.2308 80.0432,27.7418 L84.9922,22.7928 C85.9692,21.8168 85.9692,20.2348 84.9922,19.2578" id="Fill-22" fill="#443462" mask="url(#mask-2)"></path>
                                    <path d="M58.0928,19.2578 C57.1158,18.2808 55.5338,18.2808 54.5578,19.2578 C53.5808,20.2348 53.5808,21.8178 54.5578,22.7928 L59.5078,27.7418 C59.9958,28.2308 60.6358,28.4748 61.2758,28.4748 C61.9148,28.4748 62.5548,28.2308 63.0428,27.7418 C64.0198,26.7658 64.0198,25.1828 63.0428,24.2068 L58.0928,19.2578 Z" id="Fill-23" fill="#443462" mask="url(#mask-2)"></path>
                                    <polygon id="Fill-24" fill="#5DCE63" mask="url(#mask-2)" points="42.75 140 128.824 140 128.824 92.764 42.75 92.764"></polygon>
                                    <path d="M86.3125,104.3105 C80.2245,104.3105 75.2905,109.9505 75.2905,116.9075 C75.2905,123.8635 80.2245,129.5025 86.3125,129.5025 C92.3995,129.5025 97.3335,123.8635 97.3335,116.9075 C97.3335,109.9505 92.3995,104.3105 86.3125,104.3105" id="Fill-25" fill="#219321" mask="url(#mask-2)"></path>
                                    <path d="M61.6445,110.6084 C58.1655,110.6084 55.3465,113.4284 55.3465,116.9074 C55.3465,120.3844 58.1655,123.2054 61.6445,123.2054 C65.1235,123.2054 67.9425,120.3844 67.9425,116.9074 C67.9425,113.4284 65.1235,110.6084 61.6445,110.6084" id="Fill-26" fill="#219321" mask="url(#mask-2)"></path>
                                    <path d="M110.9795,110.6084 C107.5005,110.6084 104.6815,113.4284 104.6815,116.9074 C104.6815,120.3844 107.5005,123.2054 110.9795,123.2054 C114.4585,123.2054 117.2785,120.3844 117.2785,116.9074 C117.2785,113.4284 114.4585,110.6084 110.9795,110.6084" id="Fill-27" fill="#219321" mask="url(#mask-2)"></path>
                                    <path d="M122.5264,128.4531 C119.0474,128.4531 116.2284,131.2731 116.2284,134.7521 L55.3464,134.7521 C55.3464,131.2731 52.5264,128.4531 49.0474,128.4531 L49.0474,105.3601 C52.5264,105.3601 55.3464,102.5411 55.3464,99.0621 L116.2284,99.0621 C116.2284,102.5411 119.0474,105.3601 122.5264,105.3601 L122.5264,128.4531 Z M46.9494,136.8501 L124.6264,136.8501 L124.6264,96.9621 L46.9494,96.9621 L46.9494,136.8501 Z" id="Fill-28" fill="#219321" mask="url(#mask-2)"></path>
                                    <path d="M86.6602,121.6465 C87.1082,121.5885 87.4362,121.4855 87.6402,121.3355 C87.9982,121.0715 88.1792,120.6145 88.1792,119.9635 C88.1792,119.4695 88.0102,119.0785 87.6752,118.7915 C87.4762,118.6245 87.1372,118.4515 86.6602,118.2725 L86.6602,121.6465 Z M85.8232,112.6305 C85.3222,112.6415 84.9512,112.7755 84.7102,113.0315 C84.4692,113.2875 84.3472,113.6365 84.3472,114.0805 C84.3472,114.5635 84.5282,114.9455 84.8912,115.2275 C85.0932,115.3825 85.4032,115.5265 85.8232,115.6595 L85.8232,112.6305 Z M86.6602,125.3045 L85.8232,125.3045 L85.8232,123.5875 C84.6892,123.4605 83.8452,123.2135 83.2862,122.8455 C82.3032,122.1835 81.8192,121.0565 81.8372,119.4635 L84.1662,119.4635 C84.2472,120.1885 84.3592,120.6735 84.5032,120.9215 C84.7272,121.3065 85.1672,121.5565 85.8232,121.6715 L85.8232,117.9885 L85.1242,117.7815 C84.0252,117.4595 83.2502,117.0105 82.7992,116.4355 C82.3482,115.8605 82.1222,115.1675 82.1222,114.3565 C82.1222,113.8215 82.2092,113.3345 82.3852,112.8975 C82.5602,112.4605 82.8062,112.0835 83.1222,111.7675 C83.5312,111.3595 83.9852,111.0775 84.4852,110.9215 C84.7902,110.8245 85.2362,110.7525 85.8232,110.7065 L85.8232,109.5585 L86.6602,109.5585 L86.6602,110.7235 C87.5932,110.7985 88.3262,111.0285 88.8582,111.4145 C89.8262,112.0295 90.3262,113.0275 90.3612,114.4085 L88.0922,114.4085 C88.0462,113.8955 87.9612,113.5225 87.8362,113.2865 C87.6202,112.8775 87.2272,112.6535 86.6602,112.6135 L86.6602,115.9005 C88.0222,116.3725 88.9382,116.7895 89.4092,117.1515 C90.1812,117.7545 90.5682,118.6065 90.5682,119.7055 C90.5682,121.1545 90.0362,122.2075 88.9722,122.8625 C88.3222,123.2655 87.5522,123.5005 86.6602,123.5705 L86.6602,125.3045 Z" id="Fill-29" fill="#FFFFFF" mask="url(#mask-2)"></path>
                                    <path d="M85.0342,92 C84.3142,92 83.6602,91.607 83.3332,91.019 L81.6972,88.271 C79.9972,87.289 74.3702,83.888 73.8462,80.354 C73.6502,79.242 73.9772,78.195 74.7632,77.345 L69.4632,66.55 C69.0702,65.765 69.0052,64.914 69.2662,64.129 C69.5282,63.344 70.1172,62.689 70.9022,62.297 C71.3602,62.101 71.8842,61.97 72.3422,61.97 C73.5852,61.97 74.5662,62.624 75.1552,63.802 L77.6412,68.84 C77.8382,68.709 78.0342,68.578 78.2302,68.513 C78.8192,68.251 79.4082,68.12 79.9312,68.12 C80.5862,68.12 81.2402,68.316 81.8282,68.644 C82.0902,68.382 82.4822,68.12 82.8092,67.924 C83.3332,67.662 83.9222,67.531 84.5112,67.531 C85.2302,67.531 85.8852,67.728 86.5392,68.12 C86.9972,67.924 87.6512,67.728 88.4362,67.728 C89.5492,67.728 91.1192,68.12 92.4932,70.018 C94.8472,73.288 95.6982,77.214 95.1752,81.729 L96.2222,84.869 C96.5492,85.784 96.0912,86.831 95.2402,87.224 L85.8192,91.869 C85.6232,91.935 85.2962,92 85.0342,92" id="Fill-30" fill="#FFFFFF" mask="url(#mask-2)"></path>
                                    <path d="M72.3418,62.9697 C72.0468,62.9697 71.6558,63.0617 71.2958,63.2157 C70.7948,63.4687 70.3928,63.9137 70.2148,64.4457 C70.0348,64.9847 70.0848,65.5577 70.3578,66.1027 L75.6598,76.9047 C75.8428,77.2747 75.7778,77.7197 75.4968,78.0237 C74.9138,78.6547 74.6908,79.3807 74.8308,80.1807 C75.1348,82.2257 77.8868,84.9157 82.1968,87.4047 C82.3458,87.4907 82.4688,87.6127 82.5568,87.7587 L84.1928,90.5067 C84.3648,90.8167 84.6898,90.9997 85.0338,90.9997 C85.1508,90.9997 85.3298,90.9687 85.4498,90.9367 L94.7978,86.3267 C95.2128,86.1347 95.4268,85.6157 95.2798,85.2057 L94.2268,82.0447 C94.1798,81.9067 94.1648,81.7587 94.1818,81.6137 C94.6808,77.3047 93.8398,73.5997 91.6818,70.6017 C90.7808,69.3597 89.6898,68.7277 88.4368,68.7277 C87.7948,68.7277 87.2648,68.8977 86.9328,69.0387 C86.6388,69.1677 86.3018,69.1437 86.0248,68.9777 C85.0858,68.4147 84.0738,68.4087 83.2568,68.8187 C82.8468,69.0677 82.6248,69.2607 82.5348,69.3507 C82.2198,69.6667 81.7318,69.7347 81.3418,69.5177 C80.4678,69.0317 79.6058,68.9937 78.6368,69.4267 C78.4778,69.4847 78.3158,69.5927 78.1958,69.6717 C77.9558,69.8307 77.6588,69.8777 77.3828,69.8057 C77.1048,69.7317 76.8718,69.5397 76.7448,69.2817 L74.2588,64.2437 C73.8358,63.4007 73.1908,62.9697 72.3418,62.9697 M85.0338,92.9997 C83.9578,92.9997 82.9718,92.4267 82.4588,91.5037 L80.9708,89.0047 C78.0638,87.2997 73.3818,84.0427 72.8578,80.5007 C72.6538,79.3457 72.9098,78.1977 73.5858,77.2177 L68.5658,66.9907 C68.0608,65.9817 67.9718,64.8507 68.3188,63.8127 C68.6638,62.7747 69.4228,61.9187 70.4548,61.4027 C71.1218,61.1147 71.7738,60.9697 72.3418,60.9697 C73.9638,60.9697 75.2808,61.8167 76.0498,63.3547 L78.0898,67.4887 C79.2118,67.0357 80.4998,66.9977 81.6808,67.4687 C81.8628,67.3367 82.0688,67.2017 82.2948,67.0667 C83.7118,66.3497 85.2368,66.3517 86.6138,67.0237 C87.2028,66.8287 87.8248,66.7277 88.4368,66.7277 C89.7638,66.7277 91.6848,67.1967 93.3028,69.4307 C95.7258,72.7957 96.6968,76.8957 96.1938,81.6207 L97.1698,84.5527 C97.6628,85.9307 97.0028,87.5117 95.6588,88.1317 L86.2618,92.7657 C86.2208,92.7857 86.1788,92.8037 86.1358,92.8177 C85.8838,92.9027 85.4438,92.9997 85.0338,92.9997" id="Fill-31" fill="#000000" mask="url(#mask-2)"></path>
                                    <path d="M44.7939,44.9854 C46.1239,43.6254 47.8159,42.9454 49.8709,42.9454 C52.6229,42.9454 54.6339,43.8564 55.9049,45.6794 C56.6069,46.7044 56.9829,47.7314 57.0359,48.7624 L53.5839,48.7624 C53.3629,47.9704 53.0829,47.3724 52.7369,46.9684 C52.1229,46.2524 51.2109,45.8924 50.0039,45.8924 C48.7729,45.8924 47.8039,46.3994 47.0939,47.4124 C46.3839,48.4234 46.0289,49.8574 46.0289,51.7104 C46.0289,53.5634 46.4039,54.9514 47.1529,55.8744 C47.9019,56.7974 48.8539,57.2584 50.0079,57.2584 C51.1919,57.2584 52.0969,56.8624 52.7169,56.0704 C53.0609,55.6444 53.3469,55.0064 53.5719,54.1544 L57.0019,54.1544 C56.7069,55.9554 55.9499,57.4194 54.7339,58.5484 C53.5189,59.6754 51.9599,60.2404 50.0609,60.2404 C47.7099,60.2404 45.8599,59.4784 44.5159,57.9544 C43.1709,56.4224 42.4979,54.3224 42.4979,51.6544 C42.4979,48.7694 43.2639,46.5474 44.7939,44.9854" id="Fill-32" fill="#C95600" mask="url(#mask-2)"></path>
                                    <polygon id="Fill-33" fill="#C95600" mask="url(#mask-2)" points="59.603 59.78 62.797 59.78 62.797 43.259 59.603 43.259"></polygon>
                                    <path d="M65.958,59.78 L69.197,59.78 L69.197,47.563 L65.958,47.563 L65.958,59.78 Z M65.958,46.105 L69.197,46.105 L69.197,43.158 L65.958,43.158 L65.958,46.105 Z" id="Fill-34" fill="#C95600" mask="url(#mask-2)"></path>
                                    <path d="M79.5996,51.9453 C79.5386,51.4903 79.3866,51.0793 79.1376,50.7133 C78.7796,50.2193 78.2206,49.9723 77.4636,49.9723 C76.3856,49.9723 75.6486,50.5073 75.2496,51.5763 C75.0406,52.1413 74.9366,52.8943 74.9366,53.8343 C74.9366,54.7293 75.0406,55.4483 75.2496,55.9923 C75.6326,57.0083 76.3526,57.5163 77.4086,57.5163 C78.1576,57.5163 78.6896,57.3143 79.0026,56.9113 C79.3196,56.5073 79.5096,55.9843 79.5776,55.3413 L82.8386,55.3413 C82.7636,56.3133 82.4126,57.2323 81.7836,58.0993 C80.7826,59.4973 79.2966,60.1953 77.3286,60.1953 C75.3626,60.1953 73.9136,59.6123 72.9886,58.4473 C72.0596,57.2813 71.5956,55.7693 71.5956,53.9133 C71.5956,51.8163 72.1086,50.1853 73.1336,49.0203 C74.1576,47.8543 75.5716,47.2713 77.3736,47.2713 C78.9086,47.2713 80.1626,47.6153 81.1386,48.3023 C82.1156,48.9903 82.6926,50.2053 82.8716,51.9453 L79.5996,51.9453 Z" id="Fill-35" fill="#C95600" mask="url(#mask-2)"></path>
                                    <polygon id="Fill-36" fill="#C95600" mask="url(#mask-2)" points="85.0244 43.3145 88.1634 43.3145 88.1634 52.2275 92.1924 47.6195 96.1644 47.6195 91.7854 52.1695 96.3344 59.7805 92.4464 59.7805 89.4854 54.5615 88.1634 55.9365 88.1634 59.7805 85.0244 59.7805"></polygon>
                                </g>
                            </g>
                        </g>
                    </g>
                </g>
            </g>
        </g>
    </g>
</svg>