<?xml version="1.0" encoding="UTF-8"?>
<svg width="140px" height="160px" viewBox="0 0 140 160" version="1.1" xmlns="http://www.w3.org/2000/svg" xmlns:xlink="http://www.w3.org/1999/xlink">
    <!-- Generator: sketchtool 52 (66869) - http://www.bohemiancoding.com/sketch -->
    <title>B5B45D1B-DF69-4370-9B30-7A4D2484DA91</title>
    <desc>Created with sketchtool.</desc>
    <g id="Desctop" stroke="none" stroke-width="1" fill="none" fill-rule="evenodd">
        <g id="Bounty-program" transform="translate(-230.000000, -3914.000000)">
            <g id="Cpc" transform="translate(165.000000, 3853.000000)">
                <g id="Icons/business/agriculture" transform="translate(65.000000, 61.000000)">
                    <g id="Icons/bounty-program/cpc">
                        <g id="Group-38">
                            <polygon id="Fill-1" fill="#F7F7F7" points="70.0011 -0.0002 0.0001 40.0078 0.0001 119.4188 70.0011 159.9998 140.0001 118.7888 140.0001 40.0078"></polygon>
                            <polygon id="Fill-2" fill="#E8E8E8" points="127 47.5059 70.001 14.9999 13 47.5059 13 112.0269 70.001 144.9999 127 111.5169"></polygon>
                            <g id="Group-37" transform="translate(4.000000, 21.000000)">
                                <path d="M97,56 L33,56 C21.954,56 13,47.046 13,36 C13,24.954 21.954,16 33,16 L97,16 C108.046,16 117,24.954 117,36 C117,47.046 108.046,56 97,56" id="Fill-13" fill="#FFC033"></path>
                                <path d="M2.2969,72.5723 C3.0819,72.5723 3.7409,71.9623 3.7929,71.1683 C3.9119,69.3013 4.2849,67.4653 4.9009,65.7093 C5.1749,64.9273 4.7639,64.0713 3.9829,63.7983 C3.1979,63.5233 2.3439,63.9343 2.0699,64.7173 C1.3629,66.7303 0.9359,68.8363 0.7989,70.9763 C0.7459,71.8023 1.3729,72.5163 2.1989,72.5693 C2.2329,72.5713 2.2649,72.5723 2.2969,72.5723" id="Fill-14" fill="#7B6798"></path>
                                <path d="M13.6182,90.0312 C12.0242,89.0612 10.5682,87.8792 9.2912,86.5162 C8.7252,85.9112 7.7752,85.8822 7.1702,86.4472 C6.5662,87.0132 6.5352,87.9642 7.1012,88.5672 C8.5652,90.1292 10.2332,91.4832 12.0592,92.5942 C12.3032,92.7422 12.5722,92.8122 12.8382,92.8122 C13.3442,92.8122 13.8382,92.5552 14.1212,92.0922 C14.5512,91.3842 14.3262,90.4612 13.6182,90.0312" id="Fill-15" fill="#7B6798"></path>
                                <path d="M5.3574,61.1221 C5.6194,61.3061 5.9194,61.3931 6.2164,61.3931 C6.6894,61.3931 7.1544,61.1711 7.4464,60.7541 C8.5174,59.2251 9.7914,57.8491 11.2324,56.6621 C11.8734,56.1361 11.9644,55.1901 11.4374,54.5511 C10.9124,53.9111 9.9664,53.8181 9.3264,54.3461 C7.6744,55.7041 6.2144,57.2811 4.9894,59.0331 C4.5134,59.7121 4.6784,60.6471 5.3574,61.1221" id="Fill-16" fill="#7B6798"></path>
                                <path d="M4.1875,76.7295 C4.0175,75.9185 3.2225,75.3915 2.4105,75.5695 C1.5995,75.7395 1.0805,76.5345 1.2495,77.3445 C1.6895,79.4385 2.4145,81.4615 3.4065,83.3605 C3.6735,83.8735 4.1955,84.1665 4.7365,84.1665 C4.9705,84.1665 5.2085,84.1115 5.4295,83.9965 C6.1645,83.6125 6.4485,82.7065 6.0645,81.9715 C5.2015,80.3175 4.5695,78.5535 4.1875,76.7295" id="Fill-17" fill="#7B6798"></path>
                                <path d="M22.6025,50.5107 C22.4865,49.6907 21.7285,49.1187 20.9065,49.2367 C18.7875,49.5377 16.7205,50.1297 14.7635,50.9937 C14.0055,51.3287 13.6625,52.2147 13.9975,52.9727 C14.2445,53.5327 14.7935,53.8657 15.3705,53.8657 C15.5725,53.8657 15.7775,53.8247 15.9745,53.7387 C17.6815,52.9847 19.4825,52.4697 21.3295,52.2067 C22.1495,52.0897 22.7185,51.3297 22.6025,50.5107" id="Fill-18" fill="#7B6798"></path>
                                <path d="M24.25,93 C22.374,93 20.517,92.747 18.729,92.248 C17.934,92.021 17.104,92.49 16.881,93.289 C16.658,94.087 17.125,94.914 17.922,95.137 C19.973,95.71 22.102,96 24.25,96 C25.078,96 25.75,95.328 25.75,94.5 C25.75,93.672 25.078,93 24.25,93" id="Fill-19" fill="#7B6798"></path>
                                <path d="M29.4336,88.5996 C28.8516,88.0076 27.9026,88.0056 27.3126,88.5856 C26.7226,89.1676 26.7166,90.1186 27.2996,90.7066 L31.1206,94.5756 L27.2526,98.3946 C26.6636,98.9766 26.6586,99.9266 27.2406,100.5156 C27.5336,100.8136 27.9196,100.9616 28.3066,100.9616 C28.6876,100.9616 29.0686,100.8176 29.3616,100.5296 L35.3626,94.6006 L29.4336,88.5996 Z" id="Fill-20" fill="#7B6798"></path>
                                <path d="M65.5,0 C64.119,0 63,1.119 63,2.5 L63,9.5 C63,10.881 64.119,12 65.5,12 C66.881,12 68,10.881 68,9.5 L68,2.5 C68,1.119 66.881,0 65.5,0" id="Fill-21" fill="#443462"></path>
                                <path d="M81.21675,4.73275 C80.23975,3.75575 78.65775,3.75575 77.68175,4.73275 L72.73275,9.68175 C71.75575,10.65875 71.75575,12.24075 72.73275,13.21675 C73.22075,13.70575 73.86075,13.94975 74.49975,13.94975 C75.13975,13.94975 75.77975,13.70575 76.26775,13.21675 L81.21675,8.26775 C82.19375,7.29175 82.19375,5.70975 81.21675,4.73275" id="Fill-22" fill="#443462"></path>
                                <g id="Group" transform="translate(51.000000, 51.000000)">
                                    <path d="M77.3682,39.3125 C77.3682,60.4725 60.2152,77.6255 39.0552,77.6255 C17.8962,77.6255 0.7432,60.4725 0.7432,39.3125 C0.7432,18.1535 17.8962,0.9995 39.0552,0.9995 C60.2152,0.9995 77.3682,18.1535 77.3682,39.3125" id="Fill-11" fill="#FFD833"></path>
                                    <path d="M62.9663,56.0576 C40.0123,56.0576 21.4053,37.4496 21.4053,14.4966 C21.4053,10.9246 21.9043,7.4776 22.7513,4.1696 C9.6863,10.3516 0.6243,23.6176 0.6243,39.0336 C0.6243,60.3466 17.9023,77.6246 39.2173,77.6246 C55.0773,77.6246 68.6903,68.0496 74.6243,54.3706 C70.9223,55.4496 67.0173,56.0576 62.9663,56.0576" id="Fill-13" fill="#FFB012"></path>
                                    <polygon id="Fill-15" fill="#C95600" points="21.625 20.6348 21.625 28.9888 35.266 28.9888 35.266 35.5278 21.625 35.5278 21.625 43.8808 43.375 43.8688 43.375 28.9888 49.518 28.9888 49.518 49.2668 21.625 49.2668 21.625 57.6218 49.518 57.6218 49.518 57.6248 57.625 57.6248 57.625 20.6248"></polygon>
                                    <path d="M38.626,72.625 C20.43,72.625 5.625,57.82 5.625,39.626 C5.625,21.429 20.43,6.625 38.626,6.625 C56.822,6.625 71.625,21.429 71.625,39.626 C71.625,57.82 56.822,72.625 38.626,72.625 M38.626,9.562 C22.049,9.562 8.562,23.05 8.562,39.626 C8.562,56.202 22.049,69.688 38.626,69.688 C55.202,69.688 68.688,56.202 68.688,39.626 C68.688,23.05 55.202,9.562 38.626,9.562" id="Fill-17" fill="#C95600"></path>
                                </g>
                                <path d="M54.26775,4.73275 C53.29075,3.75575 51.70875,3.75575 50.73275,4.73275 C49.75575,5.70975 49.75575,7.29275 50.73275,8.26775 L55.68275,13.21675 C56.17075,13.70575 56.81075,13.94975 57.45075,13.94975 C58.08975,13.94975 58.72975,13.70575 59.21775,13.21675 C60.19475,12.24075 60.19475,10.65775 59.21775,9.68175 L54.26775,4.73275 Z" id="Fill-23" fill="#443462"></path>
                                <g id="Group-2" transform="translate(102.000000, 24.000000)">
                                    <path d="M17.0342,32 C16.3142,32 15.6602,31.607 15.3332,31.019 L13.6972,28.271 C11.9972,27.289 6.3702,23.888 5.8462,20.354 C5.6502,19.242 5.9772,18.195 6.7632,17.345 L1.4632,6.55 C1.0702,5.765 1.0052,4.914 1.2662,4.129 C1.5282,3.344 2.1172,2.689 2.9022,2.297 C3.3602,2.101 3.8842,1.97 4.3422,1.97 C5.5852,1.97 6.5662,2.624 7.1552,3.802 L9.6412,8.84 C9.8382,8.709 10.0342,8.578 10.2302,8.513 C10.8192,8.251 11.4082,8.12 11.9312,8.12 C12.5862,8.12 13.2402,8.316 13.8282,8.644 C14.0902,8.382 14.4822,8.12 14.8092,7.924 C15.3332,7.662 15.9222,7.531 16.5112,7.531 C17.2302,7.531 17.8852,7.728 18.5392,8.12 C18.9972,7.924 19.6512,7.728 20.4362,7.728 C21.5492,7.728 23.1192,8.12 24.4932,10.018 C26.8472,13.288 27.6982,17.214 27.1752,21.729 L28.2222,24.869 C28.5492,25.784 28.0912,26.831 27.2402,27.224 L17.8192,31.869 C17.6232,31.935 17.2962,32 17.0342,32" id="Fill-30" fill="#FFFFFF"></path>
                                    <path d="M4.3418,2.9697 C4.0468,2.9697 3.6558,3.0617 3.2958,3.2157 C2.7948,3.4687 2.3928,3.9137 2.2148,4.4457 C2.0348,4.9847 2.0848,5.5577 2.3578,6.1027 L7.6598,16.9047 C7.8428,17.2747 7.7778,17.7197 7.4968,18.0237 C6.9138,18.6547 6.6908,19.3807 6.8308,20.1807 C7.1348,22.2257 9.8868,24.9157 14.1968,27.4047 C14.3458,27.4907 14.4688,27.6127 14.5568,27.7587 L16.1928,30.5067 C16.3648,30.8167 16.6898,30.9997 17.0338,30.9997 C17.1508,30.9997 17.3298,30.9687 17.4498,30.9367 L26.7978,26.3267 C27.2128,26.1347 27.4268,25.6157 27.2798,25.2057 L26.2268,22.0447 C26.1798,21.9067 26.1648,21.7587 26.1818,21.6137 C26.6808,17.3047 25.8398,13.5997 23.6818,10.6017 C22.7808,9.3597 21.6898,8.7277 20.4368,8.7277 C19.7948,8.7277 19.2648,8.8977 18.9328,9.0387 C18.6388,9.1677 18.3018,9.1437 18.0248,8.9777 C17.0858,8.4147 16.0738,8.4087 15.2568,8.8187 C14.8468,9.0677 14.6248,9.2607 14.5348,9.3507 C14.2198,9.6667 13.7318,9.7347 13.3418,9.5177 C12.4678,9.0317 11.6058,8.9937 10.6368,9.4267 C10.4778,9.4847 10.3158,9.5927 10.1958,9.6717 C9.9558,9.8307 9.6588,9.8777 9.3828,9.8057 C9.1048,9.7317 8.8718,9.5397 8.7448,9.2817 L6.2588,4.2437 C5.8358,3.4007 5.1908,2.9697 4.3418,2.9697 M17.0338,32.9997 C15.9578,32.9997 14.9718,32.4267 14.4588,31.5037 L12.9708,29.0047 C10.0638,27.2997 5.3818,24.0427 4.8578,20.5007 C4.6538,19.3457 4.9098,18.1977 5.5858,17.2177 L0.5658,6.9907 C0.0608,5.9817 -0.0282,4.8507 0.3188,3.8127 C0.6638,2.7747 1.4228,1.9187 2.4548,1.4027 C3.1218,1.1147 3.7738,0.9697 4.3418,0.9697 C5.9638,0.9697 7.2808,1.8167 8.0498,3.3547 L10.0898,7.4887 C11.2118,7.0357 12.4998,6.9977 13.6808,7.4687 C13.8628,7.3367 14.0688,7.2017 14.2948,7.0667 C15.7118,6.3497 17.2368,6.3517 18.6138,7.0237 C19.2028,6.8287 19.8248,6.7277 20.4368,6.7277 C21.7638,6.7277 23.6848,7.1967 25.3028,9.4307 C27.7258,12.7957 28.6968,16.8957 28.1938,21.6207 L29.1698,24.5527 C29.6628,25.9307 29.0028,27.5117 27.6588,28.1317 L18.2618,32.7657 C18.2208,32.7857 18.1788,32.8037 18.1358,32.8177 C17.8838,32.9027 17.4438,32.9997 17.0338,32.9997" id="Fill-31" fill="#000000"></path>
                                </g>
                                <path d="M40.296,30.04 C41.626,28.68 43.318,28 45.373,28 C48.125,28 50.136,28.911 51.407,30.734 C52.109,31.759 52.485,32.786 52.538,33.817 L49.086,33.817 C48.865,33.025 48.585,32.427 48.239,32.023 C47.625,31.307 46.713,30.947 45.506,30.947 C44.275,30.947 43.306,31.454 42.596,32.467 C41.886,33.478 41.531,34.912 41.531,36.765 C41.531,38.618 41.906,40.006 42.655,40.929 C43.404,41.852 44.356,42.313 45.51,42.313 C46.694,42.313 47.599,41.917 48.219,41.125 C48.563,40.699 48.849,40.061 49.074,39.209 L52.504,39.209 C52.209,41.01 51.452,42.474 50.236,43.603 C49.021,44.73 47.462,45.295 45.563,45.295 C43.212,45.295 41.362,44.533 40.018,43.009 C38.673,41.477 38,39.377 38,36.709 C38,33.824 38.766,31.602 40.296,30.04 Z M55.1051,44.8346 L55.1051,28.3136 L58.2991,28.3136 L58.2991,44.8346 L55.1051,44.8346 Z M61.4601,44.8346 L61.4601,32.6176 L64.6991,32.6176 L64.6991,44.8346 L61.4601,44.8346 Z M61.4601,31.1596 L61.4601,28.2126 L64.6991,28.2126 L64.6991,31.1596 L61.4601,31.1596 Z M75.1017,36.9999 C75.0407,36.5449 74.8887,36.1339 74.6397,35.7679 C74.2817,35.2739 73.7227,35.0269 72.9657,35.0269 C71.8877,35.0269 71.1507,35.5619 70.7517,36.6309 C70.5427,37.1959 70.4387,37.9489 70.4387,38.8889 C70.4387,39.7839 70.5427,40.5029 70.7517,41.0469 C71.1347,42.0629 71.8547,42.5709 72.9107,42.5709 C73.6597,42.5709 74.1917,42.3689 74.5047,41.9659 C74.8217,41.5619 75.0117,41.0389 75.0797,40.3959 L78.3407,40.3959 C78.2657,41.3679 77.9147,42.2869 77.2857,43.1539 C76.2847,44.5519 74.7987,45.2499 72.8307,45.2499 C70.8647,45.2499 69.4157,44.6669 68.4907,43.5019 C67.5617,42.3359 67.0977,40.8239 67.0977,38.9679 C67.0977,36.8709 67.6107,35.2399 68.6357,34.0749 C69.6597,32.9089 71.0737,32.3259 72.8757,32.3259 C74.4107,32.3259 75.6647,32.6699 76.6407,33.3569 C77.6177,34.0449 78.1947,35.2599 78.3737,36.9999 L75.1017,36.9999 Z M80.5265,28.3691 L83.6655,28.3691 L83.6655,37.2821 L87.6945,32.6741 L91.6665,32.6741 L87.2875,37.2241 L91.8365,44.8351 L87.9485,44.8351 L84.9875,39.6161 L83.6655,40.9911 L83.6655,44.8351 L80.5265,44.8351 L80.5265,28.3691 Z" id="Combined-Shape" fill="#C95600"></path>
                            </g>
                        </g>
                    </g>
                </g>
            </g>
        </g>
    </g>
</svg>