<?xml version="1.0" encoding="utf-8"?>
<!-- Generator: Adobe Illustrator 22.0.1, SVG Export Plug-In . SVG Version: 6.00 Build 0)  -->
<svg version="1.1" id="Layer_1" xmlns="http://www.w3.org/2000/svg" xmlns:xlink="http://www.w3.org/1999/xlink" x="0px" y="0px"
	 viewBox="0 0 25 50" style="enable-background:new 0 0 25 50;" xml:space="preserve">
<style type="text/css">
	.st0{fill:#7B6798;}
	.st1{fill:#BEBEBE;}
</style>
<g id="Desctop">
	<g id="Benefits-2" transform="translate(-806.000000, -2656.000000)">
		<g id="Table" transform="translate(345.000000, 2543.000000)">
			<g id="Row-1" transform="translate(25.000000, 82.000000)">
				<g id="Deposit" transform="translate(436.000000, 31.000000)">
					<g id="Icons_x2F_small_x2F_wallet">
						<path id="Fill-1" class="st0" d="M5.3,16.4c0.1,0,0.1,0,0.2,0c0.3-0.1,0.6-0.1,1-0.1c0.4-0.1,0.9-0.1,1.3-0.1
							c0.1,0,0.3,0,0.4,0C8.7,16,9.3,16,10,16c3.3,0,5.6,0.5,6.8,0.9c0.1,0,0.2,0.1,0.3,0.1c0.3,0.1,0.5,0.3,0.7,0.4c0,0,0,0,0.1,0
							c-0.1,0.1-0.4,0.3-0.7,0.4c-0.4,0.2-1,0.4-1.7,0.5c-0.6,0.1-1.3,0.3-2,0.3c-0.3,0-0.6,0.1-1,0.1C11.7,19,10.9,19,10,19
							c-2.3,0-4.1-0.2-5.5-0.5c-1.4-0.3-2.2-0.7-2.5-1c0,0,0,0,0.1,0C2.5,17.2,3.5,16.7,5.3,16.4z M7,13.7c0.2,0.1,0.5,0.2,0.7,0.3
							c0,0,0.1,0,0.1,0c-0.1,0-0.2,0-0.3,0c-0.2,0-0.4,0-0.5,0V13.7z M23,14.4v1v0.1c-0.2,0.3-1.3,0.8-3.3,1.2
							c-0.4-0.7-1.4-1.3-2.6-1.7c1.2-0.1,2.4-0.2,3.6-0.5c0.5-0.1,1.1-0.3,1.5-0.4c0.3-0.1,0.5-0.2,0.7-0.3V14.4z M23,10.4V11v0.3
							v0.1c-0.1,0.2-0.5,0.4-1,0.6c-0.5,0.2-1.2,0.4-2,0.6c-1.3,0.3-2.9,0.4-5,0.4s-3.7-0.2-5-0.4c-0.9-0.2-1.5-0.4-2-0.6
							c-0.5-0.2-0.9-0.4-1-0.6v-0.1V11v-0.6V9.7C7.2,9.8,7.5,9.9,7.7,10c0.5,0.2,1,0.3,1.5,0.4c1.9,0.4,4.1,0.6,5.7,0.6
							c1.7,0,3.8-0.1,5.7-0.6c0.5-0.1,1.1-0.3,1.5-0.4c0.3-0.1,0.5-0.2,0.7-0.3V10.4z M23,6.4V7v0.3v0.1c-0.1,0.2-0.5,0.4-1,0.6
							c-0.5,0.2-1.2,0.4-2,0.6C18.7,8.8,17.1,9,15,9s-3.7-0.2-5-0.4C9.2,8.4,8.5,8.2,8,8C7.5,7.8,7.1,7.6,7,7.4V7.3V7V6.4V5.7
							C7.2,5.8,7.5,5.9,7.7,6c0.5,0.2,1,0.3,1.5,0.4C11.2,6.9,13.3,7,15,7c1.7,0,3.8-0.2,5.7-0.6c0.5-0.1,1.1-0.3,1.5-0.4
							c0.3-0.1,0.5-0.2,0.7-0.3V6.4z M15,2c4.6,0,7.2,0.9,7.9,1.5c0,0,0,0,0.1,0c-0.3,0.3-1.1,0.6-2.5,1c-0.2,0-0.3,0.1-0.5,0.1
							C18.7,4.8,17.1,5,15,5s-3.7-0.2-5-0.4c-0.2,0-0.4-0.1-0.5-0.1c-1.4-0.3-2.2-0.7-2.5-1c0,0,0,0,0.1,0C7.8,2.9,10.4,2,15,2z
							 M18,21.4c-0.4,0.5-3,1.6-8,1.6s-7.6-1.1-8-1.6v-1.7c2.2,1,5.6,1.3,8,1.3c2.4,0,5.8-0.3,8-1.3V21.4z M25,3.5
							C24.9,0.7,18.7,0,15,0S5.1,0.7,5,3.5h0v0V7v0.5V11v0.5v2.9c-2.6,0.5-5,1.4-5,3h0v0v4C0,24.3,6.3,25,10,25s10-0.7,10-3.5v-2.9
							c2.7-0.5,5-1.4,5-3.1v-4V11V7.5V7L25,3.5C25,3.5,25,3.5,25,3.5z"/>
					</g>
				</g>
			</g>
		</g>
	</g>
</g>
<g id="Desctop_1_">
	<g id="Benefits-2_1_" transform="translate(-806.000000, -2771.000000)">
		<g id="Table_1_" transform="translate(345.000000, 2543.000000)">
			<g id="Row-1_1_" transform="translate(15.000000, 193.000000)">
				<g id="Deposit_1_" transform="translate(446.000000, 35.000000)">
					<g id="Icons_x2F_small_x2F_wallet-Copy">
						<path id="Fill-1_1_" class="st1" d="M5.3,41.4c0.1,0,0.1,0,0.2,0c0.3-0.1,0.6-0.1,1-0.1c0.4-0.1,0.9-0.1,1.3-0.1
							c0.1,0,0.3,0,0.4,0C8.7,41,9.3,41,10,41c3.3,0,5.6,0.5,6.8,0.9c0.1,0,0.2,0.1,0.3,0.1c0.3,0.1,0.5,0.3,0.7,0.4c0,0,0,0,0.1,0
							c-0.1,0.1-0.4,0.3-0.7,0.4c-0.4,0.2-1,0.4-1.7,0.5c-0.6,0.1-1.3,0.3-2,0.3c-0.3,0-0.6,0.1-1,0.1C11.7,44,10.9,44,10,44
							c-2.3,0-4.1-0.2-5.5-0.5c-1.4-0.3-2.2-0.7-2.5-1c0,0,0,0,0.1,0C2.5,42.2,3.5,41.7,5.3,41.4z M7,38.7c0.2,0.1,0.5,0.2,0.7,0.3
							c0,0,0.1,0,0.1,0c-0.1,0-0.2,0-0.3,0c-0.2,0-0.4,0-0.5,0V38.7z M23,39.4v1v0.1c-0.2,0.3-1.3,0.8-3.3,1.2
							c-0.4-0.7-1.4-1.3-2.6-1.7c1.2-0.1,2.4-0.2,3.6-0.5c0.5-0.1,1.1-0.3,1.5-0.4c0.3-0.1,0.5-0.2,0.7-0.3V39.4z M23,35.4V36v0.3
							v0.1c-0.1,0.2-0.5,0.4-1,0.6c-0.5,0.2-1.2,0.4-2,0.6c-1.3,0.3-2.9,0.4-5,0.4s-3.7-0.2-5-0.4c-0.9-0.2-1.5-0.4-2-0.6
							c-0.5-0.2-0.9-0.4-1-0.6v-0.1V36v-0.6v-0.6c0.2,0.1,0.5,0.2,0.7,0.3c0.5,0.2,1,0.3,1.5,0.4c1.9,0.4,4.1,0.6,5.7,0.6
							c1.7,0,3.8-0.2,5.7-0.6c0.5-0.1,1.1-0.3,1.5-0.4c0.3-0.1,0.5-0.2,0.7-0.3V35.4z M23,31.4V32v0.3v0.1c-0.1,0.2-0.5,0.4-1,0.6
							c-0.5,0.2-1.2,0.4-2,0.6c-1.3,0.3-2.9,0.4-5,0.4s-3.7-0.2-5-0.4c-0.9-0.2-1.5-0.4-2-0.6c-0.5-0.2-0.9-0.4-1-0.6v-0.1V32v-0.6
							v-0.6c0.2,0.1,0.5,0.2,0.7,0.3c0.5,0.2,1,0.3,1.5,0.4c1.9,0.4,4.1,0.6,5.7,0.6c1.7,0,3.8-0.1,5.7-0.6c0.5-0.1,1.1-0.3,1.5-0.4
							c0.3-0.1,0.5-0.2,0.7-0.3V31.4z M15,27c4.6,0,7.2,0.9,7.9,1.5c0,0,0,0,0.1,0c-0.3,0.3-1.1,0.6-2.5,1c-0.2,0-0.3,0.1-0.5,0.1
							c-1.3,0.3-2.9,0.4-5,0.4s-3.7-0.2-5-0.4c-0.2,0-0.4-0.1-0.5-0.1c-1.4-0.3-2.2-0.7-2.5-1c0,0,0,0,0.1,0C7.8,27.9,10.4,27,15,27
							z M18,46.4c-0.4,0.5-3,1.6-8,1.6s-7.6-1.1-8-1.6v-1.7c2.2,1,5.6,1.3,8,1.3c2.4,0,5.8-0.3,8-1.3V46.4z M25,28.5
							c-0.1-2.7-6.3-3.5-10-3.5s-9.9,0.7-10,3.5h0v0V32v0.5V36v0.5v2.9c-2.6,0.5-5,1.4-5,3h0v0v4C0,49.3,6.3,50,10,50s10-0.7,10-3.5
							v-2.9c2.7-0.5,5-1.4,5-3.1v-4V36v-3.5V32L25,28.5C25,28.5,25,28.5,25,28.5z"/>
					</g>
				</g>
			</g>
		</g>
	</g>
</g>
</svg>
