<?xml version="1.0" encoding="utf-8"?>
<!-- Generator: Adobe Illustrator 22.0.1, SVG Export Plug-In . SVG Version: 6.00 Build 0)  -->
<svg version="1.1" id="Layer_1" xmlns="http://www.w3.org/2000/svg" xmlns:xlink="http://www.w3.org/1999/xlink" x="0px" y="0px"
	 viewBox="0 0 25 50" style="enable-background:new 0 0 25 50;" xml:space="preserve">
<style type="text/css">
	.st0{fill:#7B6798;}
	.st1{fill:#BEBEBE;}
</style>
<g id="Desctop">
	<g id="Benefits-2" transform="translate(-857.000000, -2656.000000)">
		<g id="Table" transform="translate(345.000000, 2543.000000)">
			<g id="Row-1" transform="translate(25.000000, 82.000000)">
				<g id="Deposit" transform="translate(436.000000, 31.000000)">
					<g id="Icons_x2F_small_x2F_card" transform="translate(51.000000, 0.000000)">
						<path id="Fill-1" class="st0" d="M22.9,14.2L22.9,14.2L22.9,14.2L21,14.7V11c0-1.1-0.9-2-2-2H3.1L2.7,7.3c0,0,0-0.1,0.1-0.1
							l0,0l0,0L19.5,2c0,0,0,0,0,0c0,0,0.1,0,0.1,0l3.4,12C23,14.1,23,14.1,22.9,14.2z M19,23L2,23v-2h3h2.5H19V23z M19,17.5V19h-5
							H7.2H5.9H3.9H2v-6.7V11h1.7H19v4.4V17.5z M24.9,13.6L21.5,1.5c-0.2-0.9-1.1-1.5-2-1.5c-0.2,0-0.4,0-0.6,0.1L2.2,5.3
							C1.1,5.6,0.4,6.7,0.7,7.8l0.4,1.4C0.5,9.5,0,10.2,0,11v12c0,1.1,0.9,2,2,2h17c1.1,0,2-0.9,2-2v-2v-2v-2.2l2.4-0.8
							C24.5,15.8,25.2,14.6,24.9,13.6z"/>
						<polygon id="Fill-4" class="st0" points="4,13 4,17 5.4,17 8,17 8,13 4.3,13 						"/>
					</g>
				</g>
			</g>
		</g>
	</g>
</g>
<g id="Desctop_1_">
	<g id="Benefits-2_1_" transform="translate(-857.000000, -2886.000000)">
		<g id="Table_1_" transform="translate(345.000000, 2543.000000)">
			<g id="Row-1_1_" transform="translate(25.000000, 312.000000)">
				<g id="Deposit_1_" transform="translate(436.000000, 31.000000)">
					<g id="Icons_x2F_small_x2F_card-Copy" transform="translate(51.000000, 0.000000)">
						<path id="Fill-1_1_" class="st1" d="M22.9,39.2L22.9,39.2L22.9,39.2L21,39.7V36c0-1.1-0.9-2-2-2H3.1l-0.5-1.7
							c0,0,0-0.1,0.1-0.1l0,0l0,0L19.5,27c0,0,0,0,0,0c0,0,0.1,0,0.1,0l3.4,12C23,39.1,23,39.1,22.9,39.2z M19,48L2,48v-2h3h2.5H19
							V48z M19,42.5V44h-5H7.2H5.9H3.9H2v-6.7V36h1.7H19v4.4V42.5z M24.9,38.6l-3.4-12.1c-0.2-0.9-1.1-1.5-2-1.5
							c-0.2,0-0.4,0-0.6,0.1L2.2,30.3c-1.1,0.3-1.8,1.4-1.5,2.5l0.4,1.4C0.5,34.5,0,35.2,0,36v12c0,1.1,0.9,2,2,2h17
							c1.1,0,2-0.9,2-2v-2v-2v-2.2l2.4-0.8C24.5,40.8,25.2,39.6,24.9,38.6z"/>
						<g id="Fill-4_1_">
							<polygon id="path-1_1_" class="st1" points="4,38 4,42 5.4,42 8,42 8,38 4.3,38 							"/>
						</g>
					</g>
				</g>
			</g>
		</g>
	</g>
</g>
</svg>
