<?xml version="1.0" encoding="utf-8"?>
<!-- Generator: Adobe Illustrator 22.0.1, SVG Export Plug-In . SVG Version: 6.00 Build 0)  -->
<svg version="1.1" id="Layer_1" xmlns="http://www.w3.org/2000/svg" xmlns:xlink="http://www.w3.org/1999/xlink" x="0px" y="0px"
	 viewBox="0 0 25 50" style="enable-background:new 0 0 25 50;" xml:space="preserve">
<style type="text/css">
	.st0{fill:#7B6798;}
	.st1{fill:#BEBEBE;}
</style>
<g id="Desctop">
	<g id="Benefits-2" transform="translate(-908.000000, -2656.000000)">
		<g id="Table" transform="translate(345.000000, 2543.000000)">
			<g id="Row-1" transform="translate(25.000000, 82.000000)">
				<g id="Deposit" transform="translate(436.000000, 31.000000)">
					<g id="Icons_x2F_small_x2F_transfer" transform="translate(102.000000, 0.000000)">
						<path id="Fill-1" class="st0" d="M13.4,23v-1.1c0.2,0,0.3-0.1,0.5-0.1c0.4-0.1,0.8-0.3,1.1-0.6c0.2-0.1,0.3-0.3,0.4-0.4
							c0.1-0.2,0.2-0.3,0.3-0.5c0.2-0.4,0.3-0.8,0.3-1.3c0-0.3,0-0.6-0.1-0.8c-0.1-0.2-0.1-0.5-0.2-0.7c-0.2-0.4-0.5-0.7-0.8-1
							c-0.2-0.1-0.3-0.2-0.5-0.4c-0.2-0.1-0.4-0.2-0.6-0.3c-0.4-0.2-0.8-0.3-1.2-0.5c-0.2-0.1-0.5-0.2-0.7-0.2
							c-0.2-0.1-0.4-0.2-0.6-0.3c-0.2-0.1-0.3-0.2-0.4-0.3c-0.1-0.1-0.2-0.2-0.2-0.4c0-0.2,0-0.4,0-0.6c0.1-0.2,0.2-0.3,0.3-0.5
							c0.1-0.1,0.2-0.1,0.3-0.2c0.1-0.1,0.2-0.1,0.3-0.1c0.2-0.1,0.4-0.1,0.6-0.1c0,0,0.1,0,0.1,0c0.2,0,0.5,0,0.6,0.1
							c0.2,0.1,0.3,0.2,0.5,0.3c0.3,0.2,0.4,0.6,0.5,1h1.7c0-0.2-0.1-0.6-0.2-0.9c-0.1-0.4-0.3-0.7-0.6-1c-0.1-0.2-0.3-0.3-0.5-0.5
							c-0.2-0.1-0.4-0.3-0.6-0.4c-0.2-0.1-0.4-0.2-0.7-0.3c0,0,0-0.7,0-2.1h-1.8v2.1c-0.1,0-0.3,0.1-0.4,0.1
							c-0.4,0.2-0.8,0.4-1.1,0.7c-0.3,0.3-0.6,0.7-0.7,1.1s-0.2,0.8-0.2,1.3c0.1,0.5,0.3,0.9,0.6,1.3c0.3,0.4,0.7,0.6,1.2,0.8
							c0.5,0.2,0.9,0.4,1.2,0.5c0.3,0.1,0.6,0.2,0.8,0.3c0.3,0.1,0.5,0.2,0.7,0.4c0.2,0.1,0.4,0.3,0.5,0.5c0.1,0.1,0.1,0.2,0.1,0.3
							c0,0.1,0,0.2,0,0.4c0,0.1,0,0.1,0,0.2c0,0.3-0.1,0.5-0.3,0.7c-0.1,0.1-0.1,0.1-0.2,0.2c-0.3,0.3-0.8,0.4-1.3,0.4
							c-0.3,0-0.6-0.1-0.8-0.2c-0.1-0.1-0.2-0.1-0.3-0.2c-0.1-0.1-0.2-0.2-0.3-0.3c-0.2-0.2-0.3-0.5-0.4-0.7c0-0.1-0.1-0.3-0.1-0.4
							c0-0.1,0-0.3,0-0.4H8.9c0,0.2,0,0.3,0,0.5c0,0.5,0.1,0.9,0.3,1.2c0.2,0.5,0.5,0.9,0.8,1.3c0.3,0.3,0.7,0.6,1.2,0.8
							c0.1,0.1,0.3,0.1,0.4,0.1V23H1.8v-2.4c1.2,0,2.1,1.1,2.1,2.4h1.8c0-2.4-1.8-4.4-3.9-4.4v-5.2c2.2,0,3.9-2,3.9-4.4H3.9
							c0,1.3-1,2.4-2.1,2.4V9h21.4l0,2.4c-1.2,0-2.1-1.1-2.1-2.4h-1.8c0,2.4,1.8,4.4,3.9,4.4l0,5.2c-2.2,0-3.9,2-3.9,4.4h1.8
							c0-1.3,1-2.4,2.1-2.4V23L13.4,23z M1.8,7C0.8,7,0,7.9,0,9v14c0,1.1,0.8,2,1.8,2h21.4c1,0,1.8-0.9,1.8-2V9c0-1.1-0.8-2-1.8-2
							H1.8z"/>
						<path id="Fill-4" class="st0" d="M23,5c0.5,0,1-0.4,1-1s-0.4-1-1-1H2C1.4,3,1,3.4,1,4s0.4,1,1,1H23z"/>
						<path id="Fill-6" class="st0" d="M20.9,2c0.6,0,1-0.4,1-1s-0.4-1-1-1H4C3.4,0,3,0.4,3,1s0.4,1,1,1H20.9z"/>
					</g>
				</g>
			</g>
		</g>
	</g>
</g>
<g id="Desctop_1_">
	<g id="Benefits-2_1_" transform="translate(-908.000000, -2886.000000)">
		<g id="Table_1_" transform="translate(345.000000, 2543.000000)">
			<g id="Row-1_1_" transform="translate(25.000000, 312.000000)">
				<g id="Deposit_1_" transform="translate(436.000000, 31.000000)">
					<g id="Icons_x2F_small_x2F_transfer-grey" transform="translate(102.000000, 0.000000)">
						<path id="Fill-1_1_" class="st1" d="M13.4,48v-1.1c0.2,0,0.3-0.1,0.5-0.1c0.4-0.1,0.8-0.3,1.1-0.6c0.2-0.1,0.3-0.3,0.4-0.4
							c0.1-0.2,0.2-0.3,0.3-0.5c0.2-0.4,0.3-0.8,0.3-1.3c0-0.3,0-0.6-0.1-0.8c-0.1-0.2-0.1-0.5-0.2-0.7c-0.2-0.4-0.5-0.7-0.8-1
							c-0.2-0.1-0.3-0.2-0.5-0.4c-0.2-0.1-0.4-0.2-0.6-0.3c-0.4-0.2-0.8-0.3-1.2-0.5c-0.2-0.1-0.5-0.2-0.7-0.2
							c-0.2-0.1-0.4-0.2-0.6-0.3c-0.2-0.1-0.3-0.2-0.4-0.3c-0.1-0.1-0.2-0.2-0.2-0.4c0-0.2,0-0.4,0-0.6c0.1-0.2,0.2-0.3,0.3-0.5
							c0.1-0.1,0.2-0.1,0.3-0.2c0.1-0.1,0.2-0.1,0.3-0.1c0.2-0.1,0.4-0.1,0.6-0.1c0,0,0.1,0,0.1,0c0.2,0,0.5,0,0.6,0.1
							c0.2,0.1,0.3,0.2,0.5,0.3c0.3,0.2,0.4,0.6,0.5,1h1.7c0-0.2-0.1-0.5-0.2-0.9c-0.1-0.4-0.3-0.7-0.6-1c-0.1-0.2-0.3-0.3-0.5-0.5
							s-0.4-0.3-0.6-0.4c-0.2-0.1-0.4-0.2-0.7-0.3c0,0,0-0.7,0-2.1h-1.8v2.1c-0.1,0-0.3,0.1-0.4,0.1c-0.4,0.2-0.8,0.4-1.1,0.7
							c-0.3,0.3-0.6,0.7-0.7,1.1c-0.2,0.4-0.2,0.8-0.2,1.3c0.1,0.5,0.3,0.9,0.6,1.3c0.3,0.4,0.7,0.6,1.2,0.8
							c0.5,0.2,0.9,0.4,1.2,0.5c0.3,0.1,0.6,0.2,0.8,0.3c0.3,0.1,0.5,0.2,0.7,0.4c0.2,0.1,0.4,0.3,0.5,0.5c0.1,0.1,0.1,0.2,0.1,0.3
							c0,0.1,0,0.2,0,0.4c0,0.1,0,0.1,0,0.2c0,0.3-0.1,0.5-0.3,0.7c-0.1,0.1-0.1,0.1-0.2,0.2c-0.3,0.3-0.8,0.4-1.3,0.4
							c-0.3,0-0.6-0.1-0.8-0.2c-0.1-0.1-0.2-0.1-0.3-0.2c-0.1-0.1-0.2-0.2-0.3-0.3c-0.2-0.2-0.3-0.5-0.4-0.7c0-0.1-0.1-0.3-0.1-0.4
							c0-0.1,0-0.3,0-0.4H8.9c0,0.2,0,0.3,0,0.5c0,0.5,0.1,0.9,0.3,1.2c0.2,0.5,0.5,0.9,0.8,1.3c0.3,0.3,0.7,0.6,1.2,0.8
							c0.1,0.1,0.3,0.1,0.4,0.1V48H1.8v-2.4c1.2,0,2.1,1.1,2.1,2.4h1.8c0-2.4-1.8-4.4-3.9-4.4v-5.2c2.2,0,3.9-2,3.9-4.4H3.9
							c0,1.3-1,2.4-2.1,2.4V34h21.4l0,2.4c-1.2,0-2.1-1.1-2.1-2.4h-1.8c0,2.4,1.8,4.4,3.9,4.4l0,5.2c-2.2,0-3.9,2-3.9,4.4h1.8
							c0-1.3,1-2.4,2.1-2.4V48L13.4,48z M1.8,32c-1,0-1.8,0.9-1.8,2v14c0,1.1,0.8,2,1.8,2h21.4c1,0,1.8-0.9,1.8-2V34
							c0-1.1-0.8-2-1.8-2H1.8z"/>
						<path id="Fill-4_1_" class="st1" d="M23,30c0.5,0,1-0.4,1-1s-0.4-1-1-1H2c-0.5,0-1,0.4-1,1s0.4,1,1,1H23z"/>
						<path id="Fill-6_1_" class="st1" d="M20.9,27c0.6,0,1-0.4,1-1s-0.4-1-1-1H4c-0.6,0-1,0.4-1,1s0.4,1,1,1H20.9z"/>
					</g>
				</g>
			</g>
		</g>
	</g>
</g>
</svg>
