<svg xmlns="http://www.w3.org/2000/svg" width="27" height="18" viewBox="0 0 27 18">
    <g fill="#BAA9D0" fill-rule="evenodd">
        <path d="M8.379 15.956c5.157 3.79 12.44.797 13.537-5.562-3.889 2.359-9.122 4.51-13.537 5.562M14.526 11.623C6.551 14.9 1.67 14.842 1.29 13.891c-.228-.57.929-2.053 3.611-3.855a8.935 8.935 0 0 0 1.09 3.24c4.845-.842 11.694-3.642 15.795-6.49a8.571 8.571 0 0 0-.575-1.627l.03-.012a8.757 8.757 0 0 0-.863-1.463c3.142-.591 4.978-.343 5.206.225.38.95-3.082 4.437-11.058 7.714M4.83 8.565c-9.427 5.984-4.534 10.292 10.174 4.25 6.62-2.721 12.784-6.82 11.756-9.389-.631-1.578-3.607-1.655-7.344-.849C14.045-2.64 5.1 1.034 4.83 8.565z"/>
    </g>
</svg>
