<?xml version="1.0" encoding="UTF-8"?>
<svg width="140px" height="160px" viewBox="0 0 140 160" version="1.1" xmlns="http://www.w3.org/2000/svg" xmlns:xlink="http://www.w3.org/1999/xlink">
    <!-- Generator: Sketch 49.3 (51167) - http://www.bohemiancoding.com/sketch -->
    <title>dpo</title>
    <desc>Created with Sketch.</desc>
    <defs></defs>
    <g id="Symbols" stroke="none" stroke-width="1" fill="none" fill-rule="evenodd">
        <g id="Icons/products/dpo">
            <g id="dpo">
                <polygon id="Fill-1" fill="#F7F7F7" points="70.0002 -0.0002 0.0002 40.0078 0.0002 119.4188 70.0002 159.9998 140.0002 118.7888 140.0002 40.0078"></polygon>
                <polygon id="Fill-2" fill="#E8E8E8" points="127.3255 47.2483 70.0005 14.4843 12.6745 47.2483 12.6745 112.2813 70.0005 145.5153 127.3255 111.7663"></polygon>
                <g id="Group-27" transform="translate(46.000000, 34.000000)">
                    <path d="M5.7289,0.4328 L43.8429,0.4328 C46.4739,0.4328 48.6079,2.5658 48.6079,5.1968 L48.6079,84.0318 C48.6079,86.6628 46.4739,88.7958 43.8429,88.7958 L5.7289,88.7958 C3.0979,88.7958 0.9649,86.6628 0.9649,84.0318 L0.9649,5.1968 C0.9649,2.5658 3.0979,0.4328 5.7289,0.4328" id="Fill-3" fill="#686868"></path>
                    <path d="M35.7406,3.4143 C35.7416,3.4363 35.7546,4.2093 35.7546,4.2323 C35.7546,5.2773 34.9076,6.1243 33.8626,6.1243 L15.7106,6.1243 C14.6656,6.1243 13.8186,5.2773 13.8186,4.2323 C13.8186,4.2093 13.8316,3.4363 13.8326,3.4143 L6.5976,3.4143 C5.2416,3.4143 4.1406,4.5143 4.1406,5.8713 L4.1406,83.1143 C4.1406,84.4713 5.2416,85.5713 6.5976,85.5713 L42.9736,85.5713 C44.3316,85.5713 45.4306,84.4713 45.4306,83.1143 L45.4306,5.8713 C45.4306,4.5143 44.3316,3.4143 42.9736,3.4143 L35.7406,3.4143 Z" id="Fill-5" fill="#86D8F2"></path>
                    <path d="M35.7406,3.2932 C35.7416,3.3152 35.7546,4.0892 35.7546,4.1112 C35.7546,5.1562 34.9076,6.0032 33.8626,6.0032 L15.7106,6.0032 C14.6656,6.0032 13.8186,5.1562 13.8186,4.1112 C13.8186,4.0892 13.8316,3.3152 13.8326,3.2932 L6.5976,3.2932 C5.2416,3.2932 4.1406,4.3932 4.1406,5.7502 L4.1406,82.9932 C4.1406,84.3502 45.4306,5.7502 45.4306,5.7502 C45.4306,4.3932 44.3316,3.2932 42.9736,3.2932 L35.7406,3.2932 Z" id="Fill-7" fill="#ABEFFF"></path>
                    <path d="M39.9017,14.7424 L9.6497,14.7424 C8.6317,14.7424 7.8067,13.9174 7.8067,12.8994 C7.8067,11.8824 8.6317,11.0564 9.6497,11.0564 L39.9017,11.0564 C40.9197,11.0564 41.7447,11.8824 41.7447,12.8994 C41.7447,13.9174 40.9197,14.7424 39.9017,14.7424" id="Fill-9" fill="#FFFFFF"></path>
                    <path d="M23.3167,24.1096 L9.4957,24.1096 C8.4777,24.1096 7.6527,23.2846 7.6527,22.2666 C7.6527,21.2496 8.4777,20.4236 9.4957,20.4236 L23.3167,20.4236 C24.3347,20.4236 25.1597,21.2496 25.1597,22.2666 C25.1597,23.2846 24.3347,24.1096 23.3167,24.1096" id="Fill-11" fill="#FFFFFF"></path>
                    <path d="M39.7484,70.0002 L9.4954,70.0002 C8.4774,70.0002 7.6524,69.1752 7.6524,68.1572 C7.6524,67.1402 8.4774,66.3142 9.4954,66.3142 L39.7484,66.3142 C40.7664,66.3142 41.5914,67.1402 41.5914,68.1572 C41.5914,69.1752 40.7664,70.0002 39.7484,70.0002" id="Fill-13" fill="#FFFFFF"></path>
                    <path d="M23.3167,79.3928 L9.4957,79.3928 C8.4777,79.3928 7.6527,78.5678 7.6527,77.5498 C7.6527,76.5328 8.4777,75.7068 9.4957,75.7068 L23.3167,75.7068 C24.3347,75.7068 25.1597,76.5328 25.1597,77.5498 C25.1597,78.5678 24.3347,79.3928 23.3167,79.3928" id="Fill-15" fill="#FFFFFF"></path>
                    <path d="M39.7484,60.6067 L9.4954,60.6067 C8.4774,60.6067 7.6524,59.7827 7.6524,58.7637 C7.6524,57.7467 8.4774,56.9207 9.4954,56.9207 L39.7484,56.9207 C40.7664,56.9207 41.5914,57.7467 41.5914,58.7637 C41.5914,59.7827 40.7664,60.6067 39.7484,60.6067" id="Fill-17" fill="#FFFFFF"></path>
                    <path d="M39.7484,47.7844 L9.4954,47.7844 C8.4774,47.7844 7.6524,46.9594 7.6524,45.9414 C7.6524,44.9244 8.4774,44.0984 9.4954,44.0984 L39.7484,44.0984 C40.7664,44.0984 41.5914,44.9244 41.5914,45.9414 C41.5914,46.9594 40.7664,47.7844 39.7484,47.7844" id="Fill-19" fill="#FFFFFF"></path>
                    <path d="M39.7484,38.3908 L9.4954,38.3908 C8.4774,38.3908 7.6524,37.5668 7.6524,36.5478 C7.6524,35.5308 8.4774,34.7048 9.4954,34.7048 L39.7484,34.7048 C40.7664,34.7048 41.5914,35.5308 41.5914,36.5478 C41.5914,37.5668 40.7664,38.3908 39.7484,38.3908" id="Fill-21" fill="#FFFFFF"></path>
                    <path d="M51.473,99.1887 C60.015,99.1887 66.941,92.2637 66.941,83.7207 C66.941,75.1777 60.015,68.2527 51.473,68.2527 C42.93,68.2527 36.004,75.1777 36.004,83.7207 C36.004,92.2637 42.93,99.1887 51.473,99.1887" id="Fill-23" fill="#39B54A"></path>
                    <path d="M50.3499,85.7541 L56.6389,78.3791 C57.4649,77.4091 58.9209,77.2931 59.8909,78.1201 C60.8609,78.9471 60.9769,80.4031 60.1499,81.3731 L52.2809,90.6021 C51.4219,91.6081 49.8939,91.6891 48.9349,90.7761 L44.4989,86.5581 C43.5769,85.6791 43.5389,84.2191 44.4169,83.2961 C45.2949,82.3721 46.7559,82.3361 47.6789,83.2141 L50.3499,85.7541 Z" id="Fill-25" fill="#FFFFFF"></path>
                </g>
            </g>
        </g>
    </g>
</svg>