<svg xmlns="http://www.w3.org/2000/svg" width="34" height="34" viewBox="0 0 34 34">
    <defs>
        <linearGradient id="a" x1="1.507%" x2="98.618%" y1="98.493%" y2="1.382%">
            <stop offset="0%" stop-color="#B299D1"/>
            <stop offset="100%" stop-color="#D5B1E4"/>
        </linearGradient>
    </defs>
    <g fill="none" fill-rule="evenodd">
        <circle cx="17" cy="17" r="17" fill="url(#a)"/>
        <path fill="#7B6696" d="M9 22v-7.821l7.47 4.669a1.002 1.002 0 0 0 1.06 0L25 14.179 25.001 22H9zm14.113-9L17 16.821 10.887 13h12.226zM25 11H9c-1.103 0-2 .898-2 2v9c0 1.103.897 2 2 2h16c1.103 0 2-.897 2-2v-9c0-1.102-.897-2-2-2z"/>
    </g>
</svg>
