<?xml version="1.0" encoding="UTF-8"?>
<svg width="140px" height="160px" viewBox="0 0 140 160" version="1.1" xmlns="http://www.w3.org/2000/svg" xmlns:xlink="http://www.w3.org/1999/xlink">
    <!-- Generator: Sketch 49.3 (51167) - http://www.bohemiancoding.com/sketch -->
    <title>enumer</title>
    <desc>Created with Sketch.</desc>
    <defs>
        <polygon id="path-1" points="0 160 140 160 140 0 0 0"></polygon>
    </defs>
    <g id="Symbols" stroke="none" stroke-width="1" fill="none" fill-rule="evenodd">
        <g id="Icons/products/enumer">
            <g id="enumer">
                <polygon id="Fill-1" fill="#F7F7F7" points="70.0002 -0.0002 0.0002 40.0078 0.0002 119.4188 70.0002 159.9998 139.9992 118.7888 139.9992 40.0078"></polygon>
                <polygon id="Fill-2" fill="#E8E8E8" points="127.3261 47.2482 70.0001 14.4842 12.6741 47.2482 12.6741 112.2812 70.0001 145.5162 127.3261 111.7672"></polygon>
                <g id="Group-18">
                    <path d="M106.8383,61.9571 C105.7913,61.9571 104.7673,62.0531 103.7703,62.2251 C101.0413,48.9041 89.1783,38.8801 74.9563,38.8801 C59.0863,38.8801 46.1603,51.3631 45.5783,66.9781 C42.3733,63.8731 37.9933,61.9571 33.1613,61.9571 C23.3393,61.9571 15.3773,69.8631 15.3773,79.6151 C15.3773,89.3661 23.3393,97.2721 33.1613,97.2721 L106.8383,97.2721 C116.6603,97.2721 124.6223,89.3661 124.6223,79.6151 C124.6223,69.8631 116.6603,61.9571 106.8383,61.9571" id="Fill-3" fill="#86D8F2"></path>
                    <path d="M103.7704,62.2247 C101.0414,48.9047 89.1784,38.8797 74.9564,38.8797 C59.0864,38.8797 46.1604,51.3637 45.5784,66.9787 C42.3734,63.8727 37.9934,61.9567 33.1614,61.9567 C23.3394,61.9567 15.3774,69.8637 15.3774,79.6157 C15.3774,89.3667 23.3394,97.2727 33.1614,97.2727 C57.3264,68.0767 104.7674,62.0527 103.7704,62.2247" id="Fill-5" fill="#ABEFFF"></path>
                    <path d="M36.7499,39.2716 C36.3799,39.2716 36.0209,39.3096 35.6689,39.3736 C34.6359,35.1366 30.8019,31.9876 26.2179,31.9876 C20.8409,31.9876 16.4819,36.3146 16.4819,41.6526 C16.4819,42.1766 16.5359,42.6866 16.6169,43.1876 C16.0999,42.9666 15.5319,42.8426 14.9339,42.8426 C12.5769,42.8426 10.6659,44.7406 10.6659,47.0806 C10.6659,49.4206 12.5769,51.3186 14.9339,51.3186 L36.7499,51.3186 C40.1009,51.3186 42.8159,48.6226 42.8159,45.2946 C42.8159,41.9686 40.1009,39.2716 36.7499,39.2716" id="Fill-7" fill="#86D8F2"></path>
                    <path d="M55.3945,129.3185 L51.9755,118.7275 L54.6185,118.7275 L55.9165,123.2075 C56.2805,124.4635 56.6125,125.6735 56.8665,126.9925 L56.9145,126.9925 C57.1825,125.7205 57.5155,124.4635 57.8785,123.2535 L59.2395,118.7275 L61.8035,118.7275 L58.2115,129.3185 L55.3945,129.3185 Z" id="Fill-9" fill="#4A3777"></path>
                    <path d="M64.8798,124.0548 C64.8798,126.1288 65.8608,127.5898 67.4748,127.5898 C69.1058,127.5898 70.0398,126.0508 70.0398,123.9928 C70.0398,122.0908 69.1218,120.4558 67.4598,120.4558 C65.8298,120.4558 64.8798,121.9958 64.8798,124.0548 M72.5878,123.9128 C72.5878,127.3858 70.4668,129.4918 67.3488,129.4918 C64.1838,129.4918 62.3318,127.1188 62.3318,124.1028 C62.3318,120.9278 64.3738,118.5548 67.5228,118.5548 C70.7988,118.5548 72.5878,120.9908 72.5878,123.9128" id="Fill-11" fill="#4A3777"></path>
                    <mask id="mask-2" fill="white">
                        <use xlink:href="#path-1"></use>
                    </mask>
                    <g id="Clip-14"></g>
                    <polygon id="Fill-13" fill="#4A3777" mask="url(#mask-2)" points="74.176 129.318 76.597 129.318 76.597 118.727 74.176 118.727"></polygon>
                    <path d="M81.0786,123.6778 C81.2846,123.7248 81.5366,123.7398 81.8856,123.7398 C83.1676,123.7398 83.9586,123.0968 83.9586,122.0118 C83.9586,121.0378 83.2786,120.4558 82.0756,120.4558 C81.5846,120.4558 81.2526,120.5028 81.0786,120.5508 L81.0786,123.6778 Z M78.6886,118.8688 C79.4326,118.7438 80.4766,118.6498 81.9486,118.6498 C83.4366,118.6498 84.4966,118.9318 85.2096,119.4968 C85.8896,120.0318 86.3486,120.9128 86.3486,121.9488 C86.3486,122.9868 86.0006,123.8648 85.3676,124.4628 C84.5446,125.2338 83.3256,125.5788 81.9016,125.5788 C81.5846,125.5788 81.3006,125.5638 81.0786,125.5318 L81.0786,129.3188 L78.6886,129.3188 L78.6886,118.8688 Z" id="Fill-15" fill="#4A3777" mask="url(#mask-2)"></path>
                    <path d="M69.9999,109.3595 C82.9579,109.3595 93.4629,98.9295 93.4629,86.0635 C93.4629,73.1975 82.9579,62.7675 69.9999,62.7675 C57.0419,62.7675 46.5369,73.1975 46.5369,86.0635 C46.5369,98.9295 57.0419,109.3595 69.9999,109.3595" id="Fill-16" fill="#4A3777" mask="url(#mask-2)"></path>
                    <path d="M69.2739,88.0782 C72.0409,90.8162 75.2419,93.4342 76.4979,92.1712 C78.2999,90.3612 79.4079,88.7872 83.4009,91.9662 C87.3949,95.1452 84.3439,97.2852 82.6019,99.0382 C80.5909,101.0592 73.0549,99.1792 65.5869,91.7842 C58.1179,84.3882 56.1749,76.8862 58.1899,74.8642 C59.9319,73.1102 62.0549,70.0532 65.2679,74.0142 C68.4869,77.9742 66.9169,79.0922 65.1179,80.8982 C63.8589,82.1622 66.5069,85.3382 69.2739,88.0782" id="Fill-17" fill="#FFC033" mask="url(#mask-2)"></path>
                </g>
            </g>
        </g>
    </g>
</svg>