<?xml version="1.0" encoding="utf-8"?>
<!-- Generator: Adobe Illustrator 22.0.1, SVG Export Plug-In . SVG Version: 6.00 Build 0)  -->
<svg version="1.1" id="Layer_1" xmlns="http://www.w3.org/2000/svg" xmlns:xlink="http://www.w3.org/1999/xlink" x="0px" y="0px"
	 viewBox="0 0 8 5" style="enable-background:new 0 0 8 5;" xml:space="preserve">
<style type="text/css">
	.st0{fill:#7B6696;}
</style>
<title>filter-arrow</title>
<desc>Created with Sketch.</desc>
<g id="Style" transform="translate(-811.000000, -1115.000000)">
	<g id="Group-4" transform="translate(523.000000, 936.000000)">
		
			<g id="Icons_x2F_Arrow" transform="translate(292.500000, 181.500000) rotate(-180.000000) translate(-292.500000, -181.500000) translate(287.000000, 178.000000)">
			<g id="Path-2">
				<path class="st0" d="M3,1c0.3,0,0.5,0.1,0.7,0.3l2.2,2.3l2.4-2.3c0.4-0.4,1-0.4,1.4,0c0.4,0.4,0.4,1,0,1.4l-3.1,3
					C6.4,5.9,6.2,6,5.9,6C5.6,6,5.4,5.9,5.2,5.7l-2.9-3c-0.4-0.4-0.4-1,0-1.4C2.5,1.1,2.7,1,3,1z"/>
			</g>
		</g>
	</g>
</g>
</svg>
