<?xml version="1.0" encoding="UTF-8"?>
<svg width="34px" height="34px" viewBox="0 0 34 34" version="1.1" xmlns="http://www.w3.org/2000/svg" xmlns:xlink="http://www.w3.org/1999/xlink">
    <!-- Generator: sketchtool 52 (66869) - http://www.bohemiancoding.com/sketch -->
    <title>98C52E5A-E400-4A14-A491-1CA6390B7F90</title>
    <desc>Created with sketchtool.</desc>
    <defs>
        <rect id="path-1" x="0" y="0" width="350" height="88"></rect>
        <filter x="-4.3%" y="-17.0%" width="108.6%" height="134.1%" filterUnits="objectBoundingBox" id="filter-2">
            <feOffset dx="0" dy="0" in="SourceAlpha" result="shadowOffsetOuter1"></feOffset>
            <feGaussianBlur stdDeviation="5" in="shadowOffsetOuter1" result="shadowBlurOuter1"></feGaussianBlur>
            <feColorMatrix values="0 0 0 0 0.482352941   0 0 0 0 0.4   0 0 0 0 0.588235294  0 0 0 0.2 0" type="matrix" in="shadowBlurOuter1"></feColorMatrix>
        </filter>
    </defs>
    <g id="Desctop" stroke="none" stroke-width="1" fill="none" fill-rule="evenodd">
        <g id="Bounty-program" transform="translate(-1019.000000, -688.000000)">
            <rect fill="#FFFFFF" x="0" y="0" width="1440" height="7312"></rect>
            <g id="Bg" transform="translate(0.000000, 591.000000)" fill="#F6F2FB">
                <polygon id="Rectangle-40" points="0 0 1440 0 1440 5646 0 5646"></polygon>
            </g>
            <g id="Buttons" transform="translate(165.000000, 661.000000)">
                <g id="Cpc" transform="translate(760.000000, 0.000000)">
                    <g id="Bg">
                        <g id="Rectangle-7">
                            <use fill="black" fill-opacity="1" filter="url(#filter-2)" xlink:href="#path-1"></use>
                            <use fill="#FFFFFF" fill-rule="evenodd" xlink:href="#path-1"></use>
                        </g>
                    </g>
                    <g id="Link" transform="translate(94.000000, 27.000000)">
                        <g id="Icons/general-documentations-4">
                            <g id="Icons/bounty-program/cpc">
                                <path d="M20.4227585,33.0183612 C19.8140142,33.0183612 19.2610715,32.6798479 18.9846001,32.17337 L17.6013979,29.8063608 C16.1640851,28.9605082 11.4065795,26.0310329 10.963549,22.986997 C10.7978353,22.029168 11.0743066,21.1273272 11.7388525,20.3951737 L7.2578183,11.0968243 C6.92554539,10.420659 6.87058931,9.68764419 7.0912591,9.01147891 C7.31277438,8.33531362 7.810761,7.77112476 8.47446135,7.43347279 C8.86169034,7.26464681 9.30472088,7.15180904 9.69194987,7.15180904 C10.7428792,7.15180904 11.5722933,7.71513655 12.0702799,8.72981515 L14.1721386,13.069332 C14.3386977,12.9564942 14.5044115,12.8436564 14.6701252,12.7876682 C15.1681118,12.5619927 15.6660984,12.4491549 16.1082835,12.4491549 C16.6620717,12.4491549 17.2150144,12.6179809 17.7121555,12.900506 C17.9336708,12.6748304 18.2650982,12.4491549 18.5415696,12.2803289 C18.9846001,12.0546534 19.4825868,11.9418156 19.9805734,11.9418156 C20.5884722,11.9418156 21.1422604,12.1115029 21.6952031,12.4491549 C22.0824321,12.2803289 22.6353748,12.1115029 23.2990751,12.1115029 C24.2400923,12.1115029 25.567493,12.4491549 26.7291799,14.0840106 C28.7194355,16.9006481 29.4389374,20.2823359 28.9967523,24.171363 L29.8819679,26.8760241 C30.1584393,27.6641658 29.7712103,28.5660066 29.0517084,28.90452 L21.0864588,32.9055235 C20.9207451,32.962373 20.6442737,33.0183612 20.4227585,33.0183612" id="Fill-30" fill="#C8DAEA"></path>
                                <path d="M9.67352069,7.92925821 C9.4174145,7.92925821 9.07796528,8.00912862 8.76542892,8.14282473 C8.33048248,8.36246834 7.98148354,8.74879802 7.82695167,9.21065731 C7.67068348,9.6785937 7.71409131,10.1760474 7.95109806,10.6491927 L12.5540642,20.02702 C12.7129368,20.3482379 12.6565067,20.7345676 12.4125547,20.9984872 C11.9064194,21.546294 11.7128205,22.1765757 11.8343624,22.8711009 C12.098282,24.6464811 14.4874489,26.9818223 18.2292037,29.142664 C18.358559,29.2173255 18.4653423,29.3232406 18.54174,29.4499914 L19.9620442,31.8356857 C20.1113671,32.1048142 20.393518,32.2636869 20.6921639,32.2636869 C20.7937382,32.2636869 20.9491382,32.236774 21.053317,32.208993 L29.1688446,28.2067912 C29.5291296,28.0401051 29.7149151,27.5895319 29.5872961,27.2335877 L28.6731272,24.4893448 C28.6323239,24.3695392 28.6193015,24.241052 28.6340602,24.1151693 C29.0672703,20.3742826 28.3371506,17.1577625 26.4636687,14.5550292 C25.6814597,13.4767787 24.7343009,12.9281037 23.6465007,12.9281037 C23.0891442,12.9281037 22.6290212,13.0756904 22.3407932,13.1981004 C22.0855552,13.3100926 21.7929864,13.2892569 21.552507,13.1451429 C20.737308,12.6563707 19.8587336,12.6511618 19.1494496,13.007106 C18.7935055,13.223277 18.6007747,13.3908312 18.5226406,13.4689653 C18.2491713,13.7433028 17.8255109,13.8023374 17.4869298,13.6139474 C16.728161,13.1920233 15.97981,13.1590334 15.1385663,13.5349452 C15.0005294,13.5852983 14.859888,13.6790592 14.7557092,13.7476435 C14.5473517,13.8856804 14.2895092,13.9264838 14.049898,13.8639765 C13.8085504,13.7997329 13.60627,13.6330469 13.4960141,13.4090625 L11.3377768,9.03528968 C10.9705466,8.3034337 10.4105856,7.92925821 9.67352069,7.92925821 Z M20.6921639,34 C19.7580274,34 18.902025,33.5025463 18.4566607,32.7012378 L17.1648437,30.5317145 C14.6411126,29.0515076 10.5764035,26.2239216 10.1214895,23.148911 C9.94438554,22.1461902 10.1666336,21.1495465 10.7535075,20.298753 L6.39536148,11.4201158 C5.95694242,10.5441458 5.87967648,9.56226072 6.18092681,8.6611142 C6.48044083,7.75996768 7.13937166,7.01682566 8.03530924,6.56885687 C8.61436968,6.31882778 9.18040776,6.19294508 9.67352069,6.19294508 C11.0816706,6.19294508 12.2250328,6.92827369 12.8926453,8.26349849 L14.6636847,11.8524578 C15.6377563,11.4591828 16.755942,11.4261929 17.7812349,11.8350946 C17.9392394,11.720498 18.1180796,11.6032968 18.314283,11.4860957 C19.5444609,10.8636274 20.8683997,10.8653637 22.0638513,11.4487649 C22.5751955,11.2794744 23.1151889,11.1917906 23.6465007,11.1917906 C24.7985444,11.1917906 26.4662732,11.598956 27.8709505,13.5384178 C29.9744939,16.4597647 30.8174739,20.0192066 30.3807912,24.1212464 L31.228112,26.6666815 C31.6561132,27.8630012 31.0831299,29.2355567 29.9163274,29.7738138 L21.7582601,33.7968514 C21.7226657,33.8142145 21.6862031,33.8298413 21.6488724,33.8419955 C21.430097,33.9157888 21.0481081,34 20.6921639,34 Z M4.74794681,0.856138468 C5.23752954,0.595822709 5.8451591,0.781593707 6.10547486,1.27117644 L7.42496096,3.75276888 C7.68527672,4.24235162 7.49950572,4.84998117 7.00992299,5.11029693 C6.52034025,5.37061269 5.91271069,5.18484169 5.65239494,4.69525895 L4.33290883,2.21366652 C4.07259307,1.72408378 4.25836407,1.11645423 4.74794681,0.856138468 Z M11.0216598,0.0441931377 C11.5521818,0.206389979 11.8503856,0.767229869 11.6880003,1.29739732 L10.8663911,3.98475984 C10.7855642,4.25010383 10.6046692,4.45724378 10.3777808,4.57788251 C10.1512469,4.69833275 9.87836489,4.73247025 9.61318692,4.65110033 C9.08285345,4.489258 8.78464959,3.92841811 8.94684643,3.39789615 L9.76845561,0.71053362 C9.93029794,0.180200156 10.4911378,-0.118003703 11.0216598,0.0441931377 Z M1.29738161,5.21468356 L3.98509865,6.03610424 C4.51543211,6.19794657 4.81382447,6.75914097 4.65143913,7.28930842 C4.57061222,7.55465241 4.38971728,7.76179236 4.16318334,7.88224259 C3.93629489,8.00288132 3.66341293,8.03701883 3.39823495,7.9556489 L0.710517912,7.13422822 C0.180372946,6.97274041 -0.118019411,6.41154601 0.0441774299,5.88102404 C0.206019758,5.35069058 0.766859648,5.05248672 1.29738161,5.21468356 Z" id="Combined-Shape" fill="#6C5589"></path>
                            </g>
                        </g>
                    </g>
                </g>
            </g>
        </g>
    </g>
</svg>