<?xml version="1.0" encoding="UTF-8"?>
<svg width="50px" height="50px" viewBox="0 0 50 50" version="1.1" xmlns="http://www.w3.org/2000/svg" xmlns:xlink="http://www.w3.org/1999/xlink">
    <!-- Generator: Sketch 49.3 (51167) - http://www.bohemiancoding.com/sketch -->
    <title>general-documentations</title>
    <desc>Created with Sketch.</desc>
    <defs></defs>
    <g id="Desctop" stroke="none" stroke-width="1" fill="none" fill-rule="evenodd">
        <g id="Developers" transform="translate(-410.000000, -2530.000000)">
            <g id="Documentation" transform="translate(165.000000, 2500.000000)">
                <g id="Icon" transform="translate(245.000000, 30.000000)">
                    <g id="Icons/general-documentations">
                        <g id="Group-5">
                            <circle id="Oval" fill="#6C5589" fill-rule="nonzero" cx="25" cy="25" r="25"></circle>
                            <g id="Group-13" transform="translate(7.000000, 11.000000)">
                                <path d="M32.5566838,4.80052632 C32.5450368,4.53477193 32.3285956,4.32501754 32.0655662,4.32501754 L17.0612426,4.32501754 L13.0386397,0.702701754 C12.5941103,0.302842105 12.0204926,0.0817894737 11.4260074,0.0817894737 L1.94141912,0.0817894737 C0.807286765,0.0817894737 -0.0851691176,1.06129825 0.00655147059,2.20536842 L2.03265441,27.5247368 C2.04381618,27.7904912 2.26025735,28.0002456 2.52328676,28.0002456 L32.0776985,28.0002456 L32.5566838,4.80052632 Z" id="Fill-1" fill="#E49F05"></path>
                                <path d="M30.9393232,9.00029274 L2.47299129,9.96181699 C2.20306526,9.97115695 1.99156686,10.2007233 2.00025858,10.4760063 L2.55604546,27.5189746 C2.56522004,27.7932745 2.79120463,28.0085851 3.06113066,27.9997368 L31.5274626,27.0377209 C31.7973886,27.0288725 32.008887,26.7988146 31.9997124,26.5235316 L31.4439256,9.48105486 C31.4352339,9.20626342 31.2092493,8.99095278 30.9393232,9.00029274" id="Fill-4" fill="#E6E6E6"></path>
                                <path d="M33.4840033,8 L4.49732172,8.03034669 C4.22261536,8.03083614 4,8.25304625 4,8.52664858 L4.01867414,25.5056551 C4.01867414,25.7792574 4.24178092,26.0004886 4.51648728,25.9999992 L30.0107422,25.9691639 C30.2854486,25.9691639 30.5080639,25.7469537 30.5075725,25.4733514 L30.4893898,8.49483435 C30.4888983,8.22074258 30.266283,7.99951136 29.9915766,8.00000081" id="Fill-6" fill="#F2F2F2"></path>
                                <path d="M35.5018849,5.00000081 L6.49762334,5.01861204 C6.22275037,5.01861204 6,5.24047751 6,5.51474828 L6.0108179,22.5043535 C6.01130962,22.7786243 6.23405999,23 6.50942468,23 L32.0711359,22.980899 C32.3465006,22.980899 32.5692509,22.7590335 32.5687592,22.4847628 L36,5.49564728 C36,5.22137651 35.7767579,4.99951104 35.5018849,5.00000081" id="Fill-8" fill="#FFFFFF"></path>
                                <path d="M34.8443403,3.08076923 L22.7985069,3.08076923 C22.2025347,3.08076923 21.6279514,3.29711538 21.1826736,3.68894231 L17.1532986,7.23413462 L8.48059028,7.23413462 C7.33677083,7.23413462 6.34704861,8.02307692 6.10496528,9.12932692 L2.10038194,27.4192308 C2.0721875,27.5620192 2.10961806,27.7100962 2.2034375,27.8225962 C2.29628472,27.9346154 2.43579861,28 2.58309028,28 L33.1594792,28 C33.3563542,28 35.8583681,11.3725962 36.7683681,5.28221154 C36.9419097,4.12115385 36.0314236,3.08076923 34.8443403,3.08076923" id="Fill-10" fill="#FFC033"></path>
                            </g>
                        </g>
                    </g>
                </g>
            </g>
        </g>
    </g>
</svg>