<?xml version="1.0" encoding="UTF-8"?>
<svg width="50px" height="50px" viewBox="0 0 50 50" version="1.1" xmlns="http://www.w3.org/2000/svg" xmlns:xlink="http://www.w3.org/1999/xlink">
    <!-- Generator: Sketch 49.3 (51167) - http://www.bohemiancoding.com/sketch -->
    <title>github</title>
    <desc>Created with Sketch.</desc>
    <defs></defs>
    <g id="Desctop" stroke="none" stroke-width="1" fill="none" fill-rule="evenodd">
        <g id="Developers" transform="translate(-980.000000, -2530.000000)">
            <g id="Github" transform="translate(735.000000, 2500.000000)">
                <g id="github" transform="translate(245.000000, 30.000000)">
                    <g id="Logos/wallet/github">
                        <circle id="Oval" fill="#FFFFFF" fill-rule="nonzero" cx="25" cy="25" r="25"></circle>
                        <path d="M50,24.8252107 C50,11.1145732 38.8071713,0 25,0 C11.1928287,0 0,11.1145732 0,24.8252107 C0,35.7075291 7.05191289,44.9534225 16.8651288,48.3052108 C17.4633583,47.8766414 18.1522352,47.3477432 18.1522352,46.4567271 C18.1522352,45.091429 18.1224933,41.5789407 18.1224933,41.5789407 C18.1224933,41.5789407 17.0372387,41.7624426 15.4887965,41.7624426 C11.5864726,41.7624426 10.3526175,39.3034076 9.76532259,37.9271429 C9.00099723,36.1347955 8.00999856,35.2930752 6.95689161,34.6200899 C6.31022206,34.2066133 6.16162146,33.7197358 6.90987303,33.5802092 C10.3637708,32.9379523 11.2469547,37.4487348 13.5537083,38.1680842 C15.2001242,38.6806953 17.3172727,38.45919 18.3702703,37.7863132 C18.5090298,36.4088541 19.5150088,35.2171771 20.352377,34.5895786 C14.4853324,34.0329922 11.0067226,32.0204424 9.20284911,28.7857044 L9.00963553,28.4235866 L8.5562889,27.395867 L8.42244995,27.0275601 C7.85757087,25.3858147 7.60727891,23.5054081 7.60727891,21.4047991 C7.60727891,17.6758002 8.78416502,16.2689156 10.3637708,14.2807966 C9.15583052,10.0294142 10.7973258,7.12378539 10.7973258,7.12378539 C10.7973258,7.12378539 13.3369855,6.60389933 18.1373642,9.99879438 C20.7389135,8.89778255 27.6763416,8.80603156 30.9592229,9.75416128 C32.9723837,8.43891904 36.6578753,6.57327948 38.144428,7.0956629 C38.5470383,7.73553101 39.4142578,9.60127916 38.6709268,13.6996708 C39.1751191,14.5989391 41.7990841,16.5135487 41.8089252,21.9271826 C41.7668272,23.9237709 41.5562277,25.6097088 41.1659734,27.0349436 L40.9492505,27.7640654 C40.9492505,27.7640654 40.8252527,28.107833 40.6902109,28.4357477 L40.5316599,28.7978655 C38.7912069,32.5733371 35.2208561,33.9827191 29.4516758,34.5687311 C31.3209379,35.7309826 31.8573872,37.1893346 31.8573872,41.1348442 C31.8573872,45.0803537 31.8041359,45.6101207 31.8164919,46.5179668 C31.8272078,47.320055 32.47344,47.8967289 33.0543928,48.3333333 C42.9097068,45.0047813 50,35.7373889 50,24.8252107" id="Fill-1" fill="#000000" fill-rule="evenodd"></path>
                    </g>
                </g>
            </g>
        </g>
    </g>
</svg>