<?xml version="1.0" encoding="UTF-8"?>
<svg width="113px" height="33px" viewBox="0 0 113 33" version="1.1" xmlns="http://www.w3.org/2000/svg" xmlns:xlink="http://www.w3.org/1999/xlink">
    <!-- Generator: Sketch 49.3 (51167) - http://www.bohemiancoding.com/sketch -->
    <title>googleplay</title>
    <desc>Created with Sketch.</desc>
    <defs></defs>
    <g id="Desctop" stroke="none" stroke-width="1" fill="none" fill-rule="evenodd">
        <g id="Benefits-open-wallets" transform="translate(-1292.000000, -2181.000000)">
            <g id="3" transform="translate(1105.000000, 2115.000000)">
                <g id="Group-3" transform="translate(50.000000, 66.000000)">
                    <g id="googleplay" transform="translate(137.000000, 0.000000)">
                        <g id="Rectangle-1-+-Fill-1-+-google-play">
                            <rect id="Rectangle-1" stroke="#7B6696" stroke-width="2" x="1" y="1" width="111" height="31" rx="5"></rect>
                            <path d="M74.7332394,19.5516122 L73.9850631,20.2853417 C73.8121574,20.3841037 73.6401789,20.498764 73.4686638,20.5801824 C72.9490197,20.8254012 72.4205681,20.8870673 71.9509878,20.8870673 C71.4512765,20.8870673 70.6678701,20.8533436 69.8687028,20.2525816 C68.7584908,19.4398425 68.2731497,18.0427214 68.2731497,16.825299 C68.2731497,14.3046999 70.2474265,13.0684886 71.8578134,13.0684886 C72.4205681,13.0684886 72.99862,13.2149454 73.4686638,13.5237574 C74.250216,14.0609264 74.4523256,14.7590051 74.5645057,15.1328555 L70.8871311,16.6769151 L69.6828176,16.7742319 C70.0726666,18.8410075 71.4179006,20.0430134 72.9045185,20.0430134 C73.6471322,20.0430134 74.198298,19.7910499 74.7040355,19.531378 C74.7040355,19.531378 74.8055538,19.4764567 74.7332394,19.5516122 L74.7332394,19.5516122 Z M72.5146695,15.4407039 L69.6670568,16.7250917 C69.651296,16.4331416 69.6197743,16.1411915 69.6197743,15.8670667 C69.6197743,14.1105482 70.7930297,13.6046941 71.4179006,13.6046941 C72.261569,13.6046941 72.968489,14.3548035 72.968489,15.004224 C72.968489,15.2306539 72.8131984,15.3279706 72.5146695,15.4407039 Z M67.0442678,19.4258713 C67.0442678,20.0574664 67.1527394,20.1557466 67.6668209,20.2053685 C67.9347552,20.2381286 68.2017623,20.2525816 68.4659882,20.2853417 L67.8874727,20.6432937 L65.1307165,20.6432937 C65.4922887,20.1557466 65.5544049,20.1070883 65.5544049,19.7823781 L65.5544049,19.4196084 L65.5483787,9.75345752 L64.3310857,9.75345752 L65.5029504,9.16666667 L67.7400625,9.16666667 C67.2551849,9.4586168 67.1100925,9.63638841 67.0479762,10.2053539 L67.0442678,19.4258713 Z M62.7689084,13.8662929 C63.1281629,14.1731778 63.8777298,14.8245253 63.8777298,16.059773 C63.8777298,17.263706 63.2245821,17.8312262 62.5658718,18.3683952 C62.3637622,18.5798904 62.1273496,18.809211 62.1273496,19.1637907 C62.1273496,19.5236698 62.3637622,19.718785 62.5338865,19.8642783 L63.098959,20.31762 C63.7859461,20.9203091 64.4122077,21.4728946 64.4122077,22.5954091 C64.4122077,24.124534 62.9881695,25.6666667 60.2972381,25.6666667 C58.0304586,25.6666667 56.9346167,24.5446339 56.9346167,23.3416645 C56.9346167,22.7563189 57.2150669,21.9271998 58.1403209,21.3591978 C59.110076,20.7430193 60.4237883,20.6606373 61.1274634,20.6124607 C60.9077388,20.31762 60.656956,20.008808 60.656956,19.5048809 C60.656956,19.2293108 60.7366873,19.0650287 60.8136373,18.8713588 C60.6425859,18.8882206 60.4701437,18.9055642 60.3134625,18.9055642 C58.6544024,18.9055642 57.7166325,17.6192492 57.7166325,16.3517232 C57.7166325,15.6040225 58.0448288,14.7744216 58.7188364,14.1731778 C59.6107145,13.4100606 60.6741075,13.2785385 61.5191666,13.2785385 L64.7427217,13.2785385 L63.7405178,13.8662929 L62.7689084,13.8662929 Z M61.6605506,21.0836277 C61.5321461,21.0662842 61.4551962,21.0662842 61.3003691,21.0662842 C61.1585215,21.0662842 60.3134625,21.0980807 59.6589241,21.3264378 C59.3126492,21.4579598 58.3118359,21.8467449 58.3118359,23.0015378 C58.3118359,24.1539218 59.3923805,24.9849679 61.0639565,24.9849679 C62.5658718,24.9849679 63.3631848,24.2367855 63.3631848,23.229413 C63.3631848,22.4002939 62.8472491,21.9628505 61.6605506,21.0836277 L61.6605506,21.0836277 Z M62.1101981,17.9945449 C61.8626602,18.2518078 61.440826,18.4498136 61.0486592,18.4498136 C59.7048159,18.4498136 59.0938517,16.6441551 59.0938517,15.5553641 C59.0938517,15.1328555 59.1731194,14.693485 59.4378088,14.3548035 C59.6872009,14.0276845 60.1266502,13.8161893 60.53226,13.8161893 C61.8325292,13.8161893 62.503292,15.6372643 62.503292,16.8065102 C62.503292,17.1008691 62.4717703,17.6192492 62.1101981,17.9945449 Z M53.0704299,20.8533436 C50.5839257,20.8533436 49.2535255,18.8410075 49.2535255,17.0189689 C49.2535255,14.8900455 50.9260287,13.0684886 53.3049882,13.0684886 C55.6046801,13.0684886 57.0449426,14.9396673 57.0449426,16.9043086 C57.0449426,18.8231822 55.621368,20.8533436 53.0704299,20.8533436 Z M55.0266281,19.5381228 C54.6664466,20.0574664 54.0420392,20.3653148 53.4301478,20.3653148 C51.5342116,20.3653148 50.7702745,17.7160842 50.7702745,16.1098767 C50.7702745,15.4084256 50.8792097,14.693485 51.490174,14.1245195 C51.8647257,13.7824657 52.3843698,13.5728975 52.9003055,13.5728975 C54.8402794,13.5728975 55.4966719,16.3035466 55.4966719,17.7353548 C55.4966719,18.3683952 55.4048882,19.0178156 55.0266281,19.5381228 Z M44.745462,20.8533436 C42.2584944,20.8533436 40.9304119,18.8410075 40.9304119,17.0189689 C40.9304119,14.8900455 42.6033786,13.0684886 44.9814111,13.0684886 C47.2797122,13.0684886 48.7185841,14.9396673 48.7185841,16.9043086 C48.7185841,18.8231822 47.2968637,20.8533436 44.745462,20.8533436 Z M46.7021238,19.5381228 C46.3410152,20.0574664 45.717535,20.3653148 45.1070342,20.3653148 C43.2143429,20.3653148 42.4471609,17.7160842 42.4471609,16.1098767 C42.4471609,15.4084256 42.5556325,14.693485 43.1675239,14.1245195 C43.5430027,13.7824657 44.0570842,13.5728975 44.5748741,13.5728975 C46.5129938,13.5728975 47.1712406,16.3035466 47.1712406,17.7353548 C47.1712406,18.3683952 47.0776026,19.0178156 46.7021238,19.5381228 Z M39.9360884,20.2891958 L37.8389697,20.7883053 C36.9892751,20.9275356 36.2262651,21.0499041 35.4182903,21.0499041 C31.3733173,21.0499041 29.832,17.9555218 29.832,15.5336847 C29.832,12.5761239 32.0158033,9.83391243 35.7557577,9.83391243 C36.5470445,9.83391243 37.3082003,9.95483566 38.0016772,10.1513961 C39.1007639,10.4722522 39.6148454,10.867782 39.9360884,11.0995114 L38.7178683,12.3019991 L38.2042503,12.421477 L38.5704581,11.8149338 C38.0744552,11.3114884 37.1626443,10.382162 35.4321969,10.382162 C33.1185985,10.382162 31.3733173,12.2099818 31.3733173,14.8784831 C31.3733173,17.7445084 33.3661363,20.4404703 36.5623418,20.4404703 C37.5015023,20.4404703 37.9849893,20.2443916 38.423975,20.0613205 L38.423975,17.6043145 L36.2095771,17.7281283 L37.3832961,17.0729267 L40.4909626,17.0729267 L40.1108483,17.45304 C40.0084028,17.543612 39.9944962,17.574445 39.9657559,17.69585 C39.9504586,17.8345986 39.9360884,18.2758961 39.9360884,18.4310248 L39.9360884,20.2891958 Z M79.24223,19.6209865 L79.24223,23.7617643 L78.4509432,23.7617643 L78.4509432,13.2250625 L79.24223,13.2250625 L79.24223,14.4251414 C79.7577021,13.6494983 80.699644,13.034765 81.7936317,13.034765 C83.7558561,13.034765 85.0774488,14.5817153 85.0774488,17.0305313 C85.0774488,19.4629673 83.7558561,21.0421959 81.7936317,21.0421959 C80.7608332,21.0421959 79.8355792,20.4886469 79.24223,19.6209865 Z M84.2272906,17.0305313 C84.2272906,18.879067 83.3015731,20.2988311 81.6601281,20.2988311 C80.6407727,20.2988311 79.6659184,19.4359884 79.24223,18.7085219 L79.24223,15.3356789 C79.6659184,14.6096577 80.6407727,13.7771662 81.6601281,13.7771662 C83.3015731,13.7771662 84.2272906,15.1848862 84.2272906,17.0305313 Z M86.1579934,10.3156783 L86.9488167,10.3156783 L86.9488167,20.8523801 L86.1579934,20.8523801 L86.1579934,10.3156783 Z M95.8277316,23.0805474 C95.9969289,23.1590752 96.285723,23.2072518 96.4688269,23.2072518 C96.9527774,23.2072518 97.2897812,23.0015378 97.592482,22.2750348 L98.1696069,20.9159732 L95.0526692,13.2250625 L95.9352762,13.2250625 L98.6090561,19.8898119 L101.256877,13.2250625 L102.152,13.2250625 L98.3503929,22.529889 C97.9559084,23.4886031 97.3352095,23.949653 96.4827335,23.949653 C96.2268517,23.949653 95.8893843,23.90244 95.6919103,23.8393286 L95.8277316,23.0805474 Z M93.5164509,20.8297371 C93.4636058,20.5652476 93.4237401,20.332073 93.3945362,20.1374395 C93.3704314,19.9432879 93.3565248,19.7448003 93.3565248,19.5429404 C93.0853456,19.9567773 92.7010593,20.3012399 92.2101555,20.5724741 C91.7187882,20.8456354 91.2519892,20.9795663 90.611821,20.9795663 C89.8409306,20.9795663 89.2424823,20.7825241 88.815549,20.3826584 C88.3900063,19.9832745 88.1758443,19.4422514 88.1758443,18.757662 C88.1758443,18.0740362 88.485962,17.5190419 89.1043432,17.0946062 C89.7227243,16.6682434 90.5218915,16.4562664 91.511116,16.4562664 L93.3565248,16.4562664 L93.3565248,15.5086329 C93.3565248,14.9627921 93.1775929,14.5335387 92.8201927,14.2223179 C92.4614018,13.9106154 91.9579821,13.7530779 91.305298,13.7530779 C90.7087038,13.7530779 90.2247534,13.897126 89.8562279,14.1775137 C89.4909473,14.4636826 89.3069163,14.8182623 89.3069163,15.2455887 L88.4970873,15.2455887 L88.4803994,15.2046386 C88.4511954,14.6284466 88.7047595,14.1230742 89.2438729,13.6865943 C89.7806686,13.2505961 90.4838801,13.0313926 91.3493356,13.0313926 C92.2120097,13.0313926 92.9101222,13.2472238 93.4362561,13.6779225 C93.9619264,14.1042853 94.2256887,14.7204639 94.2256887,15.5259764 L94.2256887,19.288568 C94.2256887,19.5588387 94.2382047,19.8199558 94.2706534,20.0743282 C94.3040293,20.3291824 94.3573381,20.5835548 94.4282618,20.8297371 L93.5164509,20.8297371 Z M90.7087038,20.2304204 C91.3808573,20.2304204 91.8638806,20.0743282 92.3575657,19.7655163 C92.8480059,19.4586314 93.1817649,19.0582839 93.3565248,18.5736275 L93.3565248,17.1090591 L91.5023084,17.1090591 C90.7939978,17.1090591 90.2076019,17.271896 89.7463656,17.6004604 C89.2842021,17.9280612 89.0501073,18.3245545 89.0501073,18.7856044 C89.0501073,19.220639 89.1984446,19.568474 89.493265,19.832 C89.7890125,20.0984165 90.1932317,20.2304204 90.7087038,20.2304204 L90.7087038,20.2304204 Z" id="Fill-1" fill="#7B6696"></path>
                            <path d="M10.3870033,23.8333333 C10.1186624,23.7630911 9.944,23.5041875 9.944,23.103546 L9.944,9.8789574 C9.944,9.50790226 10.0918893,9.25765261 10.3263223,9.16666667 L10.3263223,9.16666667 L17.0136995,16.536542 L10.3870033,23.8333333 L10.3870033,23.8333333 Z M11.3075689,23.5526177 L19.3570606,19.119061 L17.3964924,16.9584019 L11.3075689,23.5526177 L11.3075689,23.5526177 Z M19.4124901,13.8951844 L11.4751767,9.52239793 L17.4080987,16.1022609 L19.4124901,13.8951844 L19.4124901,13.8951844 Z M19.9510303,14.1918744 L23.0604327,15.9048913 C23.6491607,16.2292306 23.6545447,16.7520619 23.0604327,17.0792912 L19.8723655,18.8352376 L17.7929348,16.5290605 L19.9510303,14.1918744 L19.9510303,14.1918744 Z" id="google-play" fill="#7B6696"></path>
                        </g>
                    </g>
                </g>
            </g>
        </g>
    </g>
</svg>