<?xml version="1.0" encoding="utf-8"?>
<!-- Generator: Adobe Illustrator 22.0.1, SVG Export Plug-In . SVG Version: 6.00 Build 0)  -->
<svg version="1.1" id="Layer_1" xmlns="http://www.w3.org/2000/svg" xmlns:xlink="http://www.w3.org/1999/xlink" x="0px" y="0px" width="125" height="36"
	 viewBox="0 0 125 36" style="enable-background:new 0 0 125 36;" xml:space="preserve">
<style type="text/css">
	.st0{clip-path:url(#SVGID_2_);fill:#575757;}
	.st1{clip-path:url(#SVGID_4_);fill:#575757;}
	.st2{clip-path:url(#SVGID_6_);fill:#575757;}
	.st3{clip-path:url(#SVGID_8_);fill:#575757;}
	.st4{clip-path:url(#SVGID_10_);fill:#575757;}
	.st5{clip-path:url(#SVGID_12_);fill:#575757;}
	.st6{clip-path:url(#SVGID_14_);fill:#434343;}
	.st7{clip-path:url(#SVGID_16_);fill:#434343;}
	.st8{clip-path:url(#SVGID_18_);fill:#434343;}
	.st9{clip-path:url(#SVGID_20_);fill:#434343;}
	.st10{clip-path:url(#SVGID_22_);fill:#4B4B4B;}
	.st11{clip-path:url(#SVGID_24_);fill:#4B4B4B;}
	.st12{clip-path:url(#SVGID_26_);fill:#4B4B4B;}
	.st13{clip-path:url(#SVGID_28_);fill:#4B4B4B;}
	.st14{clip-path:url(#SVGID_30_);fill:#4B4B4B;}
	.st15{clip-path:url(#SVGID_32_);fill:#4B4B4B;}
	.st16{clip-path:url(#SVGID_34_);fill:#4B4B4B;}
	.st17{clip-path:url(#SVGID_36_);fill:#5D5D5D;}
</style>
<g>
	<defs>
		<path id="SVGID_1_" d="M84.9,22.5c0.4-0.1,0.6-0.3,0.6-0.6c0-0.9-1-1.8-2.1-1.8c-0.9,0-2.5,0.7-2.5,3c0,0.4,0,0.7,0.1,1.1
			L84.9,22.5z M88,27.9l-1,1c-0.2,0.1-0.5,0.3-0.7,0.4c-0.7,0.3-1.4,0.4-2.1,0.4c-0.7,0-1.8,0-2.8-0.8c-1.5-1.1-2.2-2.9-2.2-4.5
			c0-3.3,2.7-4.9,4.9-4.9c0.8,0,1.6,0.2,2.2,0.6c1.1,0.7,1.3,1.6,1.5,2.1l-5,2l-1.6,0.1c0.5,2.7,2.4,4.3,4.4,4.3
			C86.5,28.5,87.3,28.2,88,27.9C87.9,27.9,88.1,27.8,88,27.9z"/>
	</defs>
	<clipPath id="SVGID_2_">
		<use xlink:href="#SVGID_1_"  style="overflow:visible;"/>
	</clipPath>
	<rect x="74.1" y="14.4" class="st0" width="18.9" height="20.3"/>
</g>
<g>
	<defs>
		<path id="SVGID_3_" d="M76.9,26.8c0,0.8,0.1,1,0.9,1c0.4,0,0.7,0.1,1.1,0.1L78,28.4h-3.8c0.5-0.6,0.6-0.7,0.6-1.1v-0.5l0-12.7
			h-1.7l1.6-0.8h3.1c-0.7,0.4-0.9,0.6-0.9,1.4L76.9,26.8z"/>
	</defs>
	<clipPath id="SVGID_4_">
		<use xlink:href="#SVGID_3_"  style="overflow:visible;"/>
	</clipPath>
	<rect x="68.1" y="8.4" class="st1" width="15.7" height="25.1"/>
</g>
<g>
	<defs>
		<path id="SVGID_5_" d="M70.2,25.6c0.5-0.5,0.5-1.2,0.5-1.6c0-1.5-0.9-3.9-2.7-3.9c-0.6,0-1.2,0.3-1.5,0.7c-0.4,0.4-0.5,1-0.5,1.6
			c0,1.4,0.8,3.8,2.7,3.8C69.3,26.2,69.9,25.9,70.2,25.6z M69.6,29.6c-0.2,0-0.3,0-0.5,0c-0.2,0-1.4,0-2.2,0.3
			c-0.5,0.2-1.8,0.7-1.8,2.2c0,1.5,1.5,2.6,3.8,2.6c2.1,0,3.1-1,3.1-2.3C71.9,31.3,71.2,30.8,69.6,29.6z M71.1,20.1
			c0.5,0.4,1.5,1.3,1.5,2.9c0,1.6-0.9,2.3-1.8,3c-0.3,0.3-0.6,0.6-0.6,1c0,0.5,0.3,0.7,0.6,0.9l0.8,0.6c0.9,0.8,1.8,1.5,1.8,3
			c0,2-1.9,4-5.6,4c-3.1,0-4.6-1.5-4.6-3.1c0-0.8,0.4-1.9,1.7-2.6c1.3-0.8,3.1-0.9,4.1-1c-0.3-0.4-0.6-0.8-0.6-1.5
			c0-0.4,0.1-0.6,0.2-0.8c-0.2,0-0.5,0-0.7,0c-2.3,0-3.6-1.7-3.6-3.4c0-1,0.4-2.1,1.4-2.9c1.2-1,2.7-1.2,3.8-1.2h4.4l-1.4,0.8H71.1z
			"/>
	</defs>
	<clipPath id="SVGID_6_">
		<use xlink:href="#SVGID_5_"  style="overflow:visible;"/>
	</clipPath>
	<rect x="58.1" y="14.4" class="st2" width="20.7" height="26.3"/>
</g>
<g>
	<defs>
		<path id="SVGID_7_" d="M61,27.9c0.5-0.7,0.6-1.5,0.6-2.4c0-1.9-0.9-5.5-3.6-5.5c-0.7,0-1.4,0.3-1.9,0.7c-0.8,0.7-1,1.7-1,2.6
			c0,2.1,1,5.6,3.6,5.6C59.7,28.9,60.6,28.5,61,27.9z M58.4,29.6c-3.4,0-5.2-2.6-5.2-5c0-2.8,2.3-5.2,5.5-5.2c3.1,0,5.1,2.5,5.1,5
			C63.8,26.9,61.9,29.6,58.4,29.6z"/>
	</defs>
	<clipPath id="SVGID_8_">
		<use xlink:href="#SVGID_7_"  style="overflow:visible;"/>
	</clipPath>
	<rect x="48.1" y="14.4" class="st3" width="20.7" height="20.2"/>
</g>
<g>
	<defs>
		<path id="SVGID_9_" d="M49,27.9c0.5-0.7,0.6-1.5,0.6-2.4c0-1.9-0.9-5.5-3.6-5.5c-0.7,0-1.4,0.3-1.9,0.7c-0.8,0.7-1,1.7-1,2.6
			c0,2.1,1,5.6,3.6,5.6C47.7,28.9,48.5,28.5,49,27.9z M46.4,29.6c-3.4,0-5.2-2.6-5.2-5c0-2.8,2.3-5.2,5.5-5.2c3.1,0,5.1,2.5,5.1,5
			C51.8,26.9,49.9,29.6,46.4,29.6z"/>
	</defs>
	<clipPath id="SVGID_10_">
		<use xlink:href="#SVGID_9_"  style="overflow:visible;"/>
	</clipPath>
	<rect x="36.1" y="14.4" class="st4" width="20.7" height="20.2"/>
</g>
<g>
	<defs>
		<path id="SVGID_11_" d="M40,28.1l-2.9,0.7c-1.2,0.2-2.2,0.3-3.3,0.3c-5.5,0-7.6-4.1-7.6-7.2c0-3.9,3-7.5,8.1-7.5
			c1.1,0,2.1,0.2,3.1,0.4c1.5,0.4,2.2,0.9,2.6,1.2l-1.7,1.6l-0.7,0.2l0.5-0.8c-0.7-0.7-1.9-1.9-4.3-1.9c-3.2,0-5.6,2.4-5.6,5.9
			c0,3.8,2.7,7.3,7.1,7.3c1.3,0,1.9-0.3,2.5-0.5v-3.2l-3,0.2l1.6-0.9h4.3l-0.5,0.5c-0.1,0.1-0.2,0.2-0.2,0.3c0,0.2,0,0.8,0,1
			L40,28.1L40,28.1z"/>
	</defs>
	<clipPath id="SVGID_12_">
		<use xlink:href="#SVGID_11_"  style="overflow:visible;"/>
	</clipPath>
	<rect x="21.1" y="9.4" class="st5" width="24.6" height="24.7"/>
</g>
<g>
	<defs>
		<path id="SVGID_13_" d="M101,24.6c0-2.4-1.3-4.3-3.5-4.3c-1.4,0-2.7,1.1-3.3,2v4.4c0.6,1,1.9,2.1,3.3,2.1
			C99.8,28.9,101,27,101,24.6z M94.2,28v5.4h-1.1V19.6h1.1v1.6c0.7-1,2-1.8,3.5-1.8c2.7,0,4.5,2,4.5,5.2c0,3.2-1.8,5.3-4.5,5.3
			C96.3,29.9,95,29.2,94.2,28z"/>
	</defs>
	<clipPath id="SVGID_14_">
		<use xlink:href="#SVGID_13_"  style="overflow:visible;"/>
	</clipPath>
	<rect x="88.1" y="14.4" class="st6" width="19.1" height="24.1"/>
</g>
<g>
	<defs>
		<rect id="SVGID_15_" x="103.1" y="15.4" width="1.1" height="13.8"/>
	</defs>
	<clipPath id="SVGID_16_">
		<use xlink:href="#SVGID_15_"  style="overflow:visible;"/>
	</clipPath>
	<rect x="98.1" y="10.4" class="st7" width="11.1" height="23.8"/>
</g>
<g>
	<defs>
		<path id="SVGID_17_" d="M116.2,32.3c0.2,0.1,0.6,0.2,0.9,0.2c0.7,0,1.1-0.3,1.5-1.2l0.8-1.8l-4.3-10.1h1.2l3.7,8.7l3.6-8.7h1.2
			l-5.2,12.2c-0.5,1.3-1.4,1.9-2.6,1.9c-0.4,0-0.8-0.1-1.1-0.1L116.2,32.3z"/>
	</defs>
	<clipPath id="SVGID_18_">
		<use xlink:href="#SVGID_17_"  style="overflow:visible;"/>
	</clipPath>
	<rect x="110.1" y="14.4" class="st8" width="19.7" height="24.1"/>
</g>
<g>
	<defs>
		<path id="SVGID_19_" d="M109.6,28.8c0.9,0,1.6-0.2,2.3-0.6c0.7-0.4,1.1-0.9,1.4-1.6v-1.9h-2.5c-1,0-1.8,0.2-2.4,0.6
			c-0.6,0.4-1,1-1,1.6c0,0.6,0.2,1,0.6,1.4C108.4,28.6,108.9,28.8,109.6,28.8z M113.5,29.6c-0.1-0.3-0.1-0.7-0.2-0.9
			c0-0.3-0.1-0.5-0.1-0.8c-0.4,0.5-0.9,1-1.6,1.4c-0.7,0.4-1.3,0.5-2.2,0.5c-1.1,0-1.9-0.3-2.5-0.8c-0.6-0.5-0.9-1.2-0.9-2.1
			c0-0.9,0.4-1.6,1.3-2.2c0.8-0.6,1.9-0.8,3.3-0.8h2.5v-1.2c0-0.7-0.2-1.3-0.7-1.7c-0.5-0.4-1.2-0.6-2.1-0.6c-0.8,0-1.5,0.2-2,0.6
			c-0.5,0.4-0.8,0.8-0.8,1.4h-1.1l0-0.1c0-0.8,0.3-1.4,1-2c0.7-0.6,1.7-0.9,2.9-0.9c1.2,0,2.1,0.3,2.9,0.8c0.7,0.6,1.1,1.4,1.1,2.4
			v4.9c0,0.4,0,0.7,0.1,1c0,0.3,0.1,0.7,0.2,1L113.5,29.6L113.5,29.6z"/>
	</defs>
	<clipPath id="SVGID_20_">
		<use xlink:href="#SVGID_19_"  style="overflow:visible;"/>
	</clipPath>
	<rect x="101.1" y="14.4" class="st9" width="18.6" height="20.4"/>
</g>
<g>
	<defs>
		<path id="SVGID_21_" d="M26.1,3.9c0-2.1,1.6-3.5,3.6-3.5c1.3,0,2.2,0.6,2.7,1.4l-1,0.6c-0.4-0.5-1-0.9-1.8-0.9
			c-1.3,0-2.3,1-2.3,2.4c0,1.4,1,2.4,2.3,2.4c0.7,0,1.3-0.3,1.6-0.6v-1h-2v-1h3.2v2.5c-0.7,0.7-1.6,1.2-2.8,1.2
			C27.7,7.4,26.1,6,26.1,3.9z"/>
	</defs>
	<clipPath id="SVGID_22_">
		<use xlink:href="#SVGID_21_"  style="overflow:visible;"/>
	</clipPath>
	<rect x="21.1" y="-4.6" class="st10" width="16.3" height="17"/>
</g>
<g>
	<defs>
		<polygon id="SVGID_23_" points="34.1,7.1 34.1,0.4 38.8,0.4 38.8,1.4 35.3,1.4 35.3,3.2 38.7,3.2 38.7,4.2 35.3,4.2 35.3,6.1 
			38.8,6.1 38.8,7.1 		"/>
	</defs>
	<clipPath id="SVGID_24_">
		<use xlink:href="#SVGID_23_"  style="overflow:visible;"/>
	</clipPath>
	<rect x="29.1" y="-4.6" class="st11" width="14.6" height="16.8"/>
</g>
<g>
	<defs>
		<polygon id="SVGID_25_" points="42.2,7.1 42.2,1.4 40.1,1.4 40.1,0.4 45.4,0.4 45.4,1.4 43.4,1.4 43.4,7.1 		"/>
	</defs>
	<clipPath id="SVGID_26_">
		<use xlink:href="#SVGID_25_"  style="overflow:visible;"/>
	</clipPath>
	<rect x="35.1" y="-4.6" class="st12" width="15.3" height="16.8"/>
</g>
<g>
	<defs>
		<rect id="SVGID_27_" x="49.1" y="0.4" width="1.2" height="6.8"/>
	</defs>
	<clipPath id="SVGID_28_">
		<use xlink:href="#SVGID_27_"  style="overflow:visible;"/>
	</clipPath>
	<rect x="44.1" y="-4.6" class="st13" width="11.2" height="16.8"/>
</g>
<g>
	<defs>
		<polygon id="SVGID_29_" points="54.2,7.1 54.2,1.4 52.1,1.4 52.1,0.4 57.4,0.4 57.4,1.4 55.4,1.4 55.4,7.1 		"/>
	</defs>
	<clipPath id="SVGID_30_">
		<use xlink:href="#SVGID_29_"  style="overflow:visible;"/>
	</clipPath>
	<rect x="47.1" y="-4.6" class="st14" width="15.3" height="16.8"/>
</g>
<g>
	<defs>
		<path id="SVGID_31_" d="M66.8,3.9c0-1.4-0.9-2.4-2.2-2.4c-1.4,0-2.2,1-2.2,2.4c0,1.4,0.9,2.4,2.2,2.4C66,6.3,66.8,5.2,66.8,3.9z
			 M61.1,3.9c0-2,1.4-3.5,3.5-3.5c2,0,3.5,1.5,3.5,3.5s-1.4,3.5-3.5,3.5C62.6,7.4,61.1,5.9,61.1,3.9z"/>
	</defs>
	<clipPath id="SVGID_32_">
		<use xlink:href="#SVGID_31_"  style="overflow:visible;"/>
	</clipPath>
	<rect x="56.1" y="-4.6" class="st15" width="16.9" height="17"/>
</g>
<g>
	<defs>
		<polygon id="SVGID_33_" points="73.9,7.1 70.3,2.3 70.3,7.1 69.1,7.1 69.1,0.4 70.4,0.4 73.8,5 73.8,0.4 75,0.4 75,7.1 		"/>
	</defs>
	<clipPath id="SVGID_34_">
		<use xlink:href="#SVGID_33_"  style="overflow:visible;"/>
	</clipPath>
	<rect x="64.1" y="-4.6" class="st16" width="15.9" height="16.8"/>
</g>
<g>
	<defs>
		<path id="SVGID_35_" d="M14.7,19.9l4.5,2.6c0.9,0.5,0.9,1.3,0,1.8l-4.6,2.6l-3-3.5L14.7,19.9z M13.9,19.5L2.4,12.9l8.6,9.9
			L13.9,19.5z M2.1,33.9l11.7-6.6L11,24L2.1,33.9z M0.8,34.3c-0.4-0.1-0.6-0.5-0.6-1.1V13.4c0-0.6,0.2-0.9,0.6-1.1l9.7,11L0.8,34.3z
			"/>
	</defs>
	<clipPath id="SVGID_36_">
		<use xlink:href="#SVGID_35_"  style="overflow:visible;"/>
	</clipPath>
	<rect x="-4.9" y="7.4" class="st17" width="29.7" height="32"/>
</g>
</svg>
