<?xml version="1.0" encoding="UTF-8"?>
<svg width="140px" height="160px" viewBox="0 0 140 160" version="1.1" xmlns="http://www.w3.org/2000/svg" xmlns:xlink="http://www.w3.org/1999/xlink">
    <!-- Generator: Sketch 49.3 (51167) - http://www.bohemiancoding.com/sketch -->
    <title>historical-growth</title>
    <desc>Created with Sketch.</desc>
    <defs></defs>
    <g id="Desctop" stroke="none" stroke-width="1" fill="none" fill-rule="evenodd">
        <g id="Benefits" transform="translate(-830.000000, -636.000000)">
            <g id="Icons" transform="translate(345.000000, 636.000000)">
                <g id="Icons/big/historical-growth" transform="translate(485.000000, 0.000000)">
                    <g id="Group-30">
                        <polygon id="Fill-1" fill="#F7F7F7" points="70.0002 -0.0002 0.0002 40.0088 0.0002 119.4188 70.0002 159.9998 139.9982 118.7898 139.9982 40.0088"></polygon>
                        <polygon id="Fill-2" fill="#E8E8E8" points="127.326 47.2492 70 14.4842 12.674 47.2492 12.674 112.2822 70 145.5162 127.326 111.7672"></polygon>
                        <g id="Group-29" transform="translate(22.000000, 14.000000)">
                            <path d="M34.9998,3.0002 L34.9998,94.0002 C34.9998,95.6572 42.8348,97.0002 52.4998,97.0002 C62.1648,97.0002 69.9998,95.6572 69.9998,94.0002 L69.9998,3.0002 L34.9998,3.0002 Z" id="Fill-3" fill="#4A3777"></path>
                            <path d="M69.9998,3.0002 C69.9998,4.6572 62.1648,6.0002 52.4998,6.0002 C42.8348,6.0002 34.9998,4.6572 34.9998,3.0002 C34.9998,1.3432 42.8348,0.0002 52.4998,0.0002 C62.1648,0.0002 69.9998,1.3432 69.9998,3.0002" id="Fill-5" fill="#6C578B"></path>
                            <path d="M62.4998,82.0002 C47.8638,82.0002 35.9998,70.1362 35.9998,55.5002 L35.9998,94.0002 C35.9998,95.6572 43.8348,97.0002 53.4998,97.0002 C63.1648,97.0002 70.9998,95.6572 70.9998,94.0002 L70.9998,80.5992 C68.3308,81.5032 65.4748,82.0002 62.4998,82.0002" id="Fill-7" fill="#2E214F"></path>
                            <path d="M35.9998,54.0002 L35.9998,55.5002 C35.9998,54.9962 36.0168,54.4972 36.0448,54.0002 L35.9998,54.0002 Z" id="Fill-9" fill="#2E214F"></path>
                            <path d="M12.9998,28.0002 L12.9998,99.0002 C12.9998,100.6572 20.8348,102.0002 30.4998,102.0002 C40.1648,102.0002 47.9998,100.6572 47.9998,99.0002 L47.9998,28.0002 L12.9998,28.0002 Z" id="Fill-11" fill="#FFC033"></path>
                            <path d="M53.9998,61.0002 L53.9998,101.0002 C53.9998,102.6572 61.8348,104.0002 71.4998,104.0002 C81.1648,104.0002 88.9998,102.6572 88.9998,101.0002 L88.9998,61.0002 L53.9998,61.0002 Z" id="Fill-13" fill="#39B54A"></path>
                            <path d="M88.9998,61.0002 C88.9998,62.6572 81.1648,64.0002 71.4998,64.0002 C61.8348,64.0002 53.9998,62.6572 53.9998,61.0002 C53.9998,59.3432 61.8348,58.0002 71.4998,58.0002 C81.1648,58.0002 88.9998,59.3432 88.9998,61.0002" id="Fill-15" fill="#62D36C"></path>
                            <path d="M47.9998,28.0002 C47.9998,29.6572 40.1648,31.0002 30.4998,31.0002 C20.8348,31.0002 12.9998,29.6572 12.9998,28.0002 C12.9998,26.3432 20.8348,25.0002 30.4998,25.0002 C40.1648,25.0002 47.9998,26.3432 47.9998,28.0002" id="Fill-17" fill="#FFD833"></path>
                            <path d="M80.4998,89.0002 C65.8638,89.0002 53.9998,77.1362 53.9998,62.5002 L53.9998,101.0002 C53.9998,102.6572 61.8348,104.0002 71.4998,104.0002 C81.1648,104.0002 88.9998,102.6572 88.9998,101.0002 L88.9998,87.5992 C86.3308,88.5032 83.4748,89.0002 80.4998,89.0002" id="Fill-19" fill="#169B23"></path>
                            <path d="M53.9998,61.0002 L53.9998,62.5002 C53.9998,61.9962 54.0168,61.4972 54.0448,61.0002 L53.9998,61.0002 Z" id="Fill-21" fill="#169B23"></path>
                            <path d="M39.4998,87.0002 C24.8638,87.0002 12.9998,75.1362 12.9998,60.5002 L12.9998,99.0002 C12.9998,100.6572 20.8348,102.0002 30.4998,102.0002 C40.1648,102.0002 47.9998,100.6572 47.9998,99.0002 L47.9998,85.5992 C45.3308,86.5032 42.4748,87.0002 39.4998,87.0002" id="Fill-23" fill="#F9A510"></path>
                            <path d="M12.9998,59.0002 L12.9998,60.5002 C12.9998,59.9962 13.0168,59.4972 13.0448,59.0002 L12.9998,59.0002 Z" id="Fill-25" fill="#F9A510"></path>
                            <polygon id="Fill-27" fill="#F9A510" points="93.9998 112.0002 90.4998 110.0752 90.4998 110.0002 90.3638 110.0002 83.9998 106.5002 83.9998 110.0002 6.9998 110.0002 6.9998 45.0002 10.9998 45.0002 5.4998 35.0002 -0.0002 45.0002 3.9998 45.0002 3.9998 113.0002 83.9998 113.0002 83.9998 117.5002"></polygon>
                        </g>
                    </g>
                </g>
            </g>
        </g>
    </g>
</svg>