<?xml version="1.0" encoding="utf-8"?>
<!-- Generator: Adobe Illustrator 22.0.1, SVG Export Plug-In . SVG Version: 6.00 Build 0)  -->
<svg version="1.1" id="Layer_1" xmlns="http://www.w3.org/2000/svg" xmlns:xlink="http://www.w3.org/1999/xlink" x="0px" y="0px"
	 viewBox="0 0 350 1200" style="enable-background:new 0 0 350 1200;" xml:space="preserve">
<style type="text/css">
	.st0{fill:#7B6696;}
	.st1{fill:#6F4B9C;}
</style>
<g id="Index-d_2_" transform="translate(-355.000000, -3884.000000)">
	<g id="Roadmap_2_" transform="translate(0.000000, 3421.000000)">
		<g id="_x32__2_" transform="translate(355.000000, 409.000000)">
			<g id="history-frame_3_">
				<path class="st0" d="M349,55.2v291.1H29.2h-0.4l-0.3,0.4l-5.3,5.9l-5.1-5.9l-0.3-0.4h-0.4h-0.2H1V55.2H349 M350,54H0v293.4h17.2
					h0.2l5.8,6.6l6-6.6H350V54L350,54z"/>
			</g>
		</g>
	</g>
</g>
<g id="Index-d_3_" transform="translate(-355.000000, -3884.000000)">
	<g id="Roadmap_3_" transform="translate(0.000000, 3421.000000)">
		<g id="_x32__3_" transform="translate(355.000000, 409.000000)">
			<g id="history-frame_5_">
				<polygon class="st0" points="17.6,646.8 0.5,646.8 0.5,354.6 349.5,354.6 349.5,646.8 29,646.8 23.2,653.2 				"/>
				<path class="st1" d="M349,355.2v291.1H29.2h-0.4l-0.3,0.4l-5.3,5.9l-5.1-5.9l-0.3-0.4h-0.4h-0.2H1V355.2H349 M350,354H0v293.4
					h17.2h0.2l5.8,6.6l6-6.6H350V354L350,354z"/>
			</g>
		</g>
	</g>
</g>
<g id="Index-d" transform="translate(-355.000000, -3884.000000)">
	<g id="Roadmap" transform="translate(0.000000, 3421.000000)">
		<g id="_x32_" transform="translate(355.000000, 409.000000)">
			<g id="history-frame">
				<path class="st0" d="M23.2,655.6l5.3,5.9l0.3,0.4h0.4H349v290.9H1v-291h16.2h0.2h0.4l0.3-0.4L23.2,655.6 M23.2,654l-5.8,6.6
					h-0.2H0V954h350V660.6H29.2L23.2,654L23.2,654z"/>
			</g>
		</g>
	</g>
</g>
<g id="Index-d_1_" transform="translate(-355.000000, -3884.000000)">
	<g id="Roadmap_1_" transform="translate(0.000000, 3421.000000)">
		<g id="_x32__1_" transform="translate(355.000000, 409.000000)">
			<g id="history-frame_1_">
				<polygon class="st0" points="0.5,1253.4 0.5,961.2 17.6,961.2 23.2,954.8 29,961.2 349.5,961.2 349.5,1253.4 				"/>
				<path class="st1" d="M23.2,955.6l5.3,5.9l0.3,0.4h0.4H349v290.9H1v-291h16.2h0.2h0.4l0.3-0.4L23.2,955.6 M23.2,954l-5.8,6.6
					h-0.2H0V1254h350V960.6H29.2L23.2,954L23.2,954z"/>
			</g>
		</g>
	</g>
</g>
</svg>
