<?xml version="1.0" encoding="utf-8"?>
<!-- Generator: Adobe Illustrator 22.0.1, SVG Export Plug-In . SVG Version: 6.00 Build 0)  -->
<svg version="1.1" id="Layer_1" xmlns="http://www.w3.org/2000/svg" xmlns:xlink="http://www.w3.org/1999/xlink" x="0px" y="0px"
	 viewBox="0 0 350 1064" style="enable-background:new 0 0 350 1064;" xml:space="preserve">
<style type="text/css">
	.st0{fill:#7B6696;}
	.st1{fill:#6F4B9C;}
</style>
<g id="Index-d_2_" transform="translate(-355.000000, -3884.000000)">
	<g id="Roadmap_2_" transform="translate(0.000000, 3421.000000)">
		<g id="_x32__2_" transform="translate(355.000000, 409.000000)">
			<g id="history-frame_3_">
				<path class="st0" d="M349,55.2v257.1H29.2h-0.4l-0.3,0.4l-5.3,5.9l-5.1-5.9l-0.3-0.4h-0.4h-0.2H1V55.2H349 M350,54H0v259.4h17.2
					h0.2l5.8,6.6l6-6.6H350V54L350,54z"/>
			</g>
		</g>
	</g>
</g>
<g id="Index-d_3_" transform="translate(-355.000000, -3884.000000)">
	<g id="Roadmap_3_" transform="translate(0.000000, 3421.000000)">
		<g id="_x32__3_" transform="translate(355.000000, 409.000000)">
			<g id="history-frame_5_">
				<polygon class="st0" points="17.6,578.8 0.5,578.8 0.5,320.6 349.5,320.6 349.5,578.8 29,578.8 23.2,585.2 				"/>
				<path class="st1" d="M349,321.2v257.1H29.2h-0.4l-0.3,0.4l-5.3,5.9l-5.1-5.9l-0.3-0.4h-0.4h-0.2H1V321.2H349 M350,320H0v259.4
					h17.2h0.2l5.8,6.6l6-6.6H350V320L350,320z"/>
			</g>
		</g>
	</g>
</g>
<g id="Index-d" transform="translate(-355.000000, -3884.000000)">
	<g id="Roadmap" transform="translate(0.000000, 3421.000000)">
		<g id="_x32_" transform="translate(355.000000, 409.000000)">
			<g id="history-frame">
				<path class="st0" d="M23.2,587.6l5.3,5.9l0.3,0.4h0.4H349v256.9H1V593.8h16.2h0.2h0.4l0.3-0.4L23.2,587.6 M23.2,586l-5.8,6.6
					h-0.2H0V852h350V592.6H29.2L23.2,586L23.2,586z"/>
			</g>
		</g>
	</g>
</g>
<g id="Index-d_1_" transform="translate(-355.000000, -3884.000000)">
	<g id="Roadmap_1_" transform="translate(0.000000, 3421.000000)">
		<g id="_x32__1_" transform="translate(355.000000, 409.000000)">
			<g id="history-frame_1_">
				<polygon class="st0" points="0.5,1117.4 0.5,859.2 17.6,859.2 23.2,852.8 29,859.2 349.5,859.2 349.5,1117.4 				"/>
				<path class="st1" d="M23.2,853.6l5.3,5.9l0.3,0.4h0.4H349v256.9H1V859.8h16.2h0.2h0.4l0.3-0.4L23.2,853.6 M23.2,852l-5.8,6.6
					h-0.2H0V1118h350V858.6H29.2L23.2,852L23.2,852z"/>
			</g>
		</g>
	</g>
</g>
</svg>
