<?xml version="1.0" encoding="UTF-8"?>
<svg width="140px" height="160px" viewBox="0 0 140 160" version="1.1" xmlns="http://www.w3.org/2000/svg" xmlns:xlink="http://www.w3.org/1999/xlink">
    <!-- Generator: Sketch 49.3 (51167) - http://www.bohemiancoding.com/sketch -->
    <title>icon-flexible</title>
    <desc>Created with Sketch.</desc>
    <defs></defs>
    <g id="Desctop" stroke="none" stroke-width="1" fill="none" fill-rule="evenodd">
        <g id="Business" transform="translate(-1031.000000, -762.000000)">
            <g id="Services" transform="translate(165.000000, 660.000000)">
                <g id="icon-flexible" transform="translate(866.000000, 102.000000)">
                    <polygon id="Fill-1" fill="#F7F7F7" points="70.0002 -0.0002 0.0012 40.0078 0.0012 119.4188 70.0002 159.9998 140.0002 118.7898 140.0002 40.0078"></polygon>
                    <polygon id="Fill-2" fill="#E8E8E8" points="127.3257 47.2488 70.0007 14.4848 12.6747 47.2488 12.6747 112.2818 70.0007 145.5158 127.3257 111.7668"></polygon>
                    <g id="Group-13" transform="translate(17.000000, 33.000000)">
                        <path d="M59.2222,71.5496 C59.3982,59.8186 69.0692,50.3266 80.9372,50.3266 L80.9372,60.5516 L107.9462,45.0846 L80.9372,29.6176 L80.9372,39.8436 C63.2422,39.8436 48.8302,54.0376 48.6542,71.5496 L59.2222,71.5496 Z" id="Fill-3" fill="#6C578B"></path>
                        <path d="M49.8091,63.8514 L49.8091,71.5494 L59.3481,71.5494 C59.4241,66.4874 61.2751,61.8464 64.3011,58.2014 L64.3011,44.5114 C57.2261,48.7924 51.9371,55.6964 49.8091,63.8514" id="Fill-5" fill="#2E214F"></path>
                        <path d="M38.5278,26.7772 L48.7958,26.7772 C48.8008,37.3222 48.7958,71.1442 48.7898,87.4492 L59.3098,87.4532 C59.3098,85.4572 59.3238,40.0122 59.3158,26.7772 L69.5718,26.7772 L54.0488,0.1092 L38.5278,26.7772 Z" id="Fill-7" fill="#FFC033"></path>
                        <path d="M48.7944,55.0301 C48.7934,62.9601 48.7914,74.0391 48.7894,80.7631 C48.7994,80.9831 48.8294,81.1991 48.8324,81.4211 L59.3094,86.5031 C59.3094,85.8671 59.3104,80.1151 59.3104,79.4081 C58.6914,70.9571 54.7604,60.4031 48.7944,55.0301" id="Fill-9" fill="#F9A510"></path>
                        <path d="M48.8345,87.4529 C48.6585,75.7209 38.9875,66.2289 27.1195,66.2289 L27.1195,76.4549 L0.1105,60.9879 L27.1195,45.5209 L27.1195,55.7469 C44.8145,55.7469 59.2265,69.9399 59.4025,87.4529 L48.8345,87.4529 Z" id="Fill-11" fill="#86D8F2"></path>
                    </g>
                </g>
            </g>
        </g>
    </g>
</svg>