<?xml version="1.0" encoding="UTF-8"?>
<svg width="140px" height="160px" viewBox="0 0 140 160" version="1.1" xmlns="http://www.w3.org/2000/svg" xmlns:xlink="http://www.w3.org/1999/xlink">
    <!-- Generator: Sketch 49.3 (51167) - http://www.bohemiancoding.com/sketch -->
    <title>easy</title>
    <desc>Created with Sketch.</desc>
    <defs></defs>
    <g id="Desctop" stroke="none" stroke-width="1" fill="none" fill-rule="evenodd">
        <g id="Business" transform="translate(-268.000000, -762.000000)">
            <g id="Services" transform="translate(165.000000, 660.000000)">
                <g id="easy" transform="translate(103.000000, 102.000000)">
                    <polygon id="Fill-1" fill="#F7F7F7" points="0 40.007 0 119.419 69.998 160 70.001 160 139.999 118.79 139.999 40.008 69.999 0.001"></polygon>
                    <polygon id="Fill-2" fill="#E8E8E8" points="127.3257 47.2485 69.9997 14.4845 12.6747 47.2485 12.6747 112.2815 69.9997 145.5155 127.3257 111.7665"></polygon>
                    <g id="Group-25" transform="translate(31.000000, 27.000000)">
                        <path d="M38.6753,82.6889 L23.3103,94.4609 C19.2753,97.3349 13.6543,96.4199 10.7573,92.4179 L1.9923,79.9839 C-0.9047,75.9809 0.0183,70.4059 4.0533,67.5329 L13.4543,60.2859 L38.6753,82.6889 Z" id="Fill-3" fill="#4A3777"></path>
                        <path d="M13.4546,60.2856 L8.4926,63.8186 C7.8276,64.2936 7.2566,64.8456 6.7636,65.4466 C10.4106,73.5356 16.1216,79.0016 16.1216,79.0016 C21.8196,84.6546 28.5096,86.0966 35.0016,85.3986 L38.6756,82.6886 L13.4546,60.2856 Z" id="Fill-5" fill="#2E214F"></path>
                        <path d="M70.5825,24.6411 C73.2815,21.9641 73.2815,17.6241 70.5825,14.9481 C67.8845,12.2711 63.5095,12.2711 60.8115,14.9481 C60.8115,14.9481 41.7505,33.8681 41.6925,33.9281 C41.6905,33.9261 29.3565,45.4831 27.9505,46.4921 C26.5435,47.5001 24.2235,46.2811 22.1385,43.9891 C19.0925,40.9221 20.3045,35.1571 16.3515,31.8141 C12.2245,28.4841 6.1265,28.8951 4.9175,33.2731 C3.5975,38.0531 10.1825,42.5751 11.4695,55.9561 C12.7555,69.3371 23.6735,79.7821 23.6735,79.7821 C41.6775,97.6421 69.5735,73.4941 69.9025,72.5151 C70.1155,71.8811 58.2445,55.9141 49.8345,44.7191 C50.4825,44.3981 51.0925,43.9741 51.6325,43.4381 L70.5825,24.6411 Z" id="Fill-7" fill="#F4B17A"></path>
                        <path d="M25.7153,25.3931 C25.1903,25.3931 24.6863,25.1021 24.4413,24.6011 L17.2313,9.8591 C16.8893,9.1621 17.1823,8.3211 17.8873,7.9831 C18.5913,7.6451 19.4363,7.9351 19.7783,8.6341 L26.9883,23.3761 C27.3293,24.0741 27.0363,24.9141 26.3323,25.2521 C26.1333,25.3481 25.9233,25.3931 25.7153,25.3931" id="Fill-9" fill="#4A3777"></path>
                        <path d="M38.6743,23.0718 C38.4043,23.0718 38.1313,22.9958 37.8903,22.8358 C37.2393,22.4048 37.0633,21.5328 37.4973,20.8878 L50.6153,1.3828 C51.0503,0.7368 51.9283,0.5618 52.5793,0.9928 C53.2303,1.4238 53.4053,2.2958 52.9723,2.9398 L39.8543,22.4458 C39.5803,22.8518 39.1313,23.0718 38.6743,23.0718" id="Fill-11" fill="#4A3777"></path>
                        <path d="M31.6431,21.9761 C31.6261,21.9761 31.6091,21.9761 31.5921,21.9751 C30.8111,21.9481 30.2001,21.2961 30.2271,20.5221 L30.5531,11.3881 C30.5811,10.6131 31.2451,10.0031 32.0181,10.0341 C32.8001,10.0611 33.4111,10.7121 33.3831,11.4871 L33.0571,20.6221 C33.0311,21.3801 32.4021,21.9761 31.6431,21.9761" id="Fill-13" fill="#4A3777"></path>
                        <path d="M76.2671,62.7466 C73.9791,60.4756 70.3551,60.3906 67.9321,62.4336 L68.9231,61.4496 C71.3311,59.0606 71.3311,55.1876 68.9231,52.7986 C66.5151,50.4096 62.6101,50.4096 60.2021,52.7986 L51.3771,61.5516 C48.9691,63.9406 48.9691,67.8136 51.3771,70.2026 C53.6651,72.4726 57.2901,72.5596 59.7131,70.5156 L58.7211,71.4996 C56.3131,73.8886 56.5381,78.0976 58.9471,80.4856 C66.6131,76.0826 75.3711,69.0826 75.3711,69.0826 C77.7801,66.6936 78.6751,65.1356 76.2671,62.7466" id="Fill-15" fill="#E8A16B"></path>
                        <path d="M61.5083,51.4477 C63.9163,49.0587 63.9163,45.1857 61.5083,42.7967 C59.1003,40.4077 55.1953,40.4077 52.7863,42.7967 L43.9623,51.5497 C41.5543,53.9377 41.5543,57.8117 43.9623,60.2007 C46.3703,62.5897 50.2763,62.5897 52.6843,60.2007 L61.5083,51.4477 Z" id="Fill-17" fill="#E8A16B"></path>
                        <path d="M55.0152,65.7407 C52.6062,63.3517 52.6062,59.4777 55.0152,57.0897 L63.8392,48.3367 C66.2472,45.9477 70.1522,45.9477 72.5602,48.3367 C74.9692,50.7257 74.9692,54.5987 72.5602,56.9877 L63.7372,65.7407 C61.3272,68.1297 57.4232,68.1297 55.0152,65.7407" id="Fill-19" fill="#F9BA8A"></path>
                        <path d="M62.3589,75.688 C59.9509,73.299 59.9509,69.426 62.3589,67.037 L71.1829,58.284 C73.5909,55.895 77.4969,55.895 79.9049,58.284 C82.3129,60.673 82.3129,64.546 79.9049,66.935 L71.0809,75.688 C68.6719,78.077 64.7669,78.077 62.3589,75.688" id="Fill-21" fill="#F9BA8A"></path>
                        <path d="M47.5991,55.7388 C45.1911,53.3488 45.1911,49.4758 47.5991,47.0878 L56.4231,38.3348 C58.8321,35.9458 62.7371,35.9458 65.1451,38.3348 C67.5531,40.7228 67.5531,44.5968 65.1451,46.9858 L56.3211,55.7388 C53.9121,58.1278 50.0081,58.1278 47.5991,55.7388" id="Fill-23" fill="#F9BA8A"></path>
                    </g>
                </g>
            </g>
        </g>
    </g>
</svg>