<?xml version="1.0" encoding="UTF-8"?>
<svg width="140px" height="160px" viewBox="0 0 140 160" version="1.1" xmlns="http://www.w3.org/2000/svg" xmlns:xlink="http://www.w3.org/1999/xlink">
    <!-- Generator: Sketch 49.3 (51167) - http://www.bohemiancoding.com/sketch -->
    <title>icon-reliability</title>
    <desc>Created with Sketch.</desc>
    <defs></defs>
    <g id="Desctop" stroke="none" stroke-width="1" fill="none" fill-rule="evenodd">
        <g id="Business" transform="translate(-652.000000, -762.000000)">
            <g id="Services" transform="translate(165.000000, 660.000000)">
                <g id="icon-reliability" transform="translate(487.000000, 102.000000)">
                    <polygon id="Fill-1" fill="#F7F7F7" points="69.9336259 -0.0002 0.000100719424 40.0078 0.000100719424 119.4188 69.9336259 159.9998 139.867151 118.7898 139.867151 40.0078"></polygon>
                    <polygon id="Fill-2" fill="#E8E8E8" points="127.204604 47.2488 69.9335252 14.4848 12.6614388 47.2488 12.6614388 112.2818 69.9335252 145.5158 127.204604 111.7668"></polygon>
                    <g id="Group-23" transform="translate(19.136691, 31.000000)">
                        <path d="M101.642216,85.4588 C84.1925755,94.5288 50.797036,114.5158 50.797036,114.5158 C50.797036,114.5158 18.8337266,95.9688 1.93401439,86.1608 C1.93401439,66.2318 24.4468201,49.3758 51.912,49.3758 C79.3781871,49.3758 101.642216,65.5298 101.642216,85.4588" id="Fill-3" fill="#6C578B"></path>
                        <path d="M86.2067626,93.8983 L50.7968345,114.5153 L14.6526619,93.5423 L14.6526619,71.4683 C14.6526619,67.7833 17.6611511,64.7953 21.3726619,64.7953 L79.4867626,64.7953 C83.1992806,64.7953 86.2067626,67.7833 86.2067626,71.4683 L86.2067626,93.8983 Z" id="Fill-5" fill="#AFAFAF"></path>
                        <path d="M72.7581007,29.9256 C72.1981007,26.5566 69.6770935,25.1026 69.6770935,25.1026 C69.6770935,25.1026 69.9006906,6.8906 50.3268777,6.8906 C30.7530647,6.8906 30.9766619,25.1026 30.9766619,25.1026 C30.9766619,25.1026 28.4556547,26.5566 27.8956547,29.9256 C27.3356547,33.2956 27.7556547,40.7336 32.5166619,44.3456 C36.2966619,61.2266 43.9140719,63.1926 50.3268777,63.1926 C56.7396835,63.1926 64.3570935,61.2266 68.1370935,44.3456 C72.8981007,40.7336 73.3181007,33.2956 72.7581007,29.9256" id="Fill-7" fill="#2E214F"></path>
                        <path d="M49.1657842,36.3914 C49.1657842,38.8324 46.0998849,40.8124 42.3178705,40.8124 C38.5358561,40.8124 35.4699568,38.8324 35.4699568,36.3914 C35.4699568,33.9494 35.574705,31.9694 39.3567194,31.9694 C43.1387338,31.9694 49.1657842,33.9494 49.1657842,36.3914" id="Fill-9" fill="#FFDAB8"></path>
                        <path d="M51.7477266,36.3914 C51.7477266,38.8324 54.8136259,40.8124 58.5956403,40.8124 C62.3776547,40.8124 65.443554,38.8324 65.443554,36.3914 C65.443554,33.9494 65.3388058,31.9694 61.5567914,31.9694 C57.774777,31.9694 51.7477266,33.9494 51.7477266,36.3914" id="Fill-11" fill="#FFDAB8"></path>
                        <path d="M56.3331799,51.8113 C56.3331799,53.4343 53.6973525,55.7733 50.4451223,55.7733 C47.1928921,55.7733 44.5570647,53.4343 44.5570647,51.8113 C44.5570647,50.1883 47.1928921,49.8943 50.4451223,49.8943 C53.6973525,49.8943 56.3331799,50.1883 56.3331799,51.8113" id="Fill-13" fill="#FFDAB8"></path>
                        <path d="M43.8602878,38.3914 L40.7752518,38.3914 C40.2192806,38.3914 39.7690647,37.9444 39.7690647,37.3914 C39.7690647,36.8384 40.2192806,36.3914 40.7752518,36.3914 L43.8602878,36.3914 C44.416259,36.3914 44.867482,36.8384 44.867482,37.3914 C44.867482,37.9444 44.416259,38.3914 43.8602878,38.3914" id="Fill-15" fill="#F4B17A"></path>
                        <path d="M60.3530935,38.3914 L57.2680576,38.3914 C56.7120863,38.3914 56.2618705,37.9444 56.2618705,37.3914 C56.2618705,36.8384 56.7120863,36.3914 57.2680576,36.3914 L60.3530935,36.3914 C60.9090647,36.3914 61.3602878,36.8384 61.3602878,37.3914 C61.3602878,37.9444 60.9090647,38.3914 60.3530935,38.3914" id="Fill-17" fill="#F4B17A"></path>
                        <path d="M54.4339137,87.1766 C54.4339137,90.0656 52.0750647,92.4066 49.1662878,92.4066 C46.2554964,92.4066 43.8966475,90.0656 43.8966475,87.1766 C43.8966475,84.2876 46.2554964,81.9456 49.1662878,81.9456 C52.0750647,81.9456 54.4339137,84.2876 54.4339137,87.1766" id="Fill-19" fill="#2E214F"></path>
                        <path d="M5.45909353,50.9344 C5.45909353,42.8724 7.58528058,35.2994 11.2977986,28.7214 L82.9274388,84.0414 C74.6926187,91.7784 63.5943453,96.5384 51.3901727,96.5384 C26.0632662,96.5384 5.45909353,76.0804 5.45909353,50.9344 M51.3901727,5.3314 C76.7160719,5.3314 97.3212518,25.7884 97.3212518,50.9344 C97.3212518,62.1594 93.2078705,72.4424 86.4093094,80.3954 L14.0111799,24.4824 C22.349741,12.9024 35.9911799,5.3314 51.3901727,5.3314 M51.3901727,0.3314 C23.2864317,0.3314 0.423122302,23.0324 0.423122302,50.9344 C0.423122302,78.8374 23.2864317,101.5384 51.3901727,101.5384 C79.4939137,101.5384 102.357223,78.8374 102.357223,50.9344 C102.357223,23.0324 79.4939137,0.3314 51.3901727,0.3314" id="Fill-21" fill="#FFC033"></path>
                    </g>
                </g>
            </g>
        </g>
    </g>
</svg>