<?xml version="1.0" encoding="UTF-8"?>
<svg width="29px" height="32px" viewBox="0 0 29 32" version="1.1" xmlns="http://www.w3.org/2000/svg" xmlns:xlink="http://www.w3.org/1999/xlink">
    <!-- Generator: Sketch 49.3 (51167) - http://www.bohemiancoding.com/sketch -->
    <title>image-zoom</title>
    <desc>Created with Sketch.</desc>
    <defs></defs>
    <g id="Style" stroke="none" stroke-width="1" fill="none" fill-rule="evenodd">
        <g transform="translate(-248.000000, -749.000000)" fill="#404750" fill-rule="nonzero" id="Buttons">
            <g transform="translate(162.000000, 461.000000)">
                <g id="Lupa" transform="translate(0.000000, 275.000000)">
                    <g id="image-zoom" transform="translate(72.000000, 0.000000)">
                        <path d="M27.5,39.5 C20.3202983,39.5 14.5,33.6797017 14.5,26.5 C14.5,19.3202983 20.3202983,13.5 27.5,13.5 C34.6797017,13.5 40.5,19.3202983 40.5,26.5 C40.5,33.6797017 34.6797017,39.5 27.5,39.5 Z M27.5,36.5 C33.0228475,36.5 37.5,32.0228475 37.5,26.5 C37.5,20.9771525 33.0228475,16.5 27.5,16.5 C21.9771525,16.5 17.5,20.9771525 17.5,26.5 C17.5,32.0228475 21.9771525,36.5 27.5,36.5 Z" id="Combined-Shape"></path>
                        <path d="M33.3449104,36.8610572 C32.793045,36.2432092 32.8465344,35.2949692 33.4643823,34.7431038 C34.0822302,34.1912384 35.0304702,34.2447277 35.5823357,34.8625756 L41.7449333,41.7619897 C42.2967987,42.3798376 42.2433094,43.3280777 41.6254615,43.8799431 C41.0076135,44.4318085 40.0593735,44.3783191 39.5075081,43.7604712 L33.3449104,36.8610572 Z M20,26 C20,25.4477153 20.4477153,25 21,25 C21.5522847,25 22,25.4477153 22,26 C22,29.3137085 24.6862915,32 28,32 C28.5522847,32 29,32.4477153 29,33 C29,33.5522847 28.5522847,34 28,34 C23.581722,34 20,30.418278 20,26 Z" id="Combined-Shape"></path>
                    </g>
                </g>
            </g>
        </g>
    </g>
</svg>