<?xml version="1.0" encoding="UTF-8"?>
<svg width="1110px" height="142px" viewBox="0 0 1110 142" version="1.1" xmlns="http://www.w3.org/2000/svg" xmlns:xlink="http://www.w3.org/1999/xlink">
    <!-- Generator: Sketch 49.3 (51167) - http://www.bohemiancoding.com/sketch -->
    <title>industry-header</title>
    <desc>Created with Sketch.</desc>
    <defs>
        <rect id="path-1" x="0" y="0" width="1110" height="142"></rect>
    </defs>
    <g id="Desctop" stroke="none" stroke-width="1" fill="none" fill-rule="evenodd">
        <g id="Business" transform="translate(-165.000000, -1330.000000)">
            <g id="Aerospace" transform="translate(165.000000, 1330.000000)">
                <g id="industry-header">
                    <mask id="mask-2" fill="white">
                        <use xlink:href="#path-1"></use>
                    </mask>
                    <g id="Mask"></g>
                    <path d="M-3.52562424e-12,1.02513938 C246.8623,-12.3924551 268,110.335873 555,110.335873 C842,110.335873 879.189616,1.02513938 1110,1.02513938 C1110,33.7978383 1110,80.7894585 1110,142 L555,142 L-3.52562424e-12,142 C-3.52562424e-12,94.6647741 -3.52562424e-12,47.6731539 -3.52562424e-12,1.02513938 Z" id="Rectangle-35" fill="#9072B6" opacity="0.262850996" mask="url(#mask-2)"></path>
                    <path d="M1110,74.6077557 L1110,142 L0,142 C1.75267208e-13,83.647657 1.75267208e-13,36.3143237 0,0 C230.810384,8.18557028e-13 228.696746,102.021713 372.089681,101.493624 C515.482616,100.965534 660.92334,31.4992943 797.770345,31.4992943 C889.001682,31.4992943 993.078234,45.8687814 1110,74.6077557 Z" id="Rectangle-35" fill="#8F75AF" opacity="0.128396739" mask="url(#mask-2)"></path>
                </g>
            </g>
        </g>
    </g>
</svg>