<?xml version="1.0" encoding="UTF-8"?>
<svg width="81px" height="81px" viewBox="0 0 81 81" version="1.1" xmlns="http://www.w3.org/2000/svg" xmlns:xlink="http://www.w3.org/1999/xlink">
    <!-- Generator: Sketch 49.3 (51167) - http://www.bohemiancoding.com/sketch -->
    <title>info-circle</title>
    <desc>Created with Sketch.</desc>
    <defs></defs>
    <g id="Desctop" stroke="none" stroke-width="1" fill="none" fill-rule="evenodd">
        <g id="Benefits" transform="translate(-430.000000, -2356.000000)">
            <g id="1-step" transform="translate(0.000000, 1689.000000)">
                <g id="Info" transform="translate(347.000000, 601.000000)">
                    <g id="info-circle" transform="translate(83.000000, 66.000000)">
                        <circle id="Oval-11" fill="#F6F2FB" cx="40.5" cy="40.5" r="40.5"></circle>
                        <path d="M34,54 L34,49.5494673 L34.8901065,49.5494673 C35.5249144,49.5494673 35.9440883,49.4511425 36.1476408,49.2544901 C36.3511933,49.0578377 36.452968,48.7042136 36.452968,48.1936073 L36.452968,37.3363775 C36.452968,36.7429701 36.3097934,36.3686461 36.0234399,36.2133942 C35.7370863,36.0581423 35.3593123,35.9805175 34.8901065,35.9805175 L34,35.9805175 L34,31.5299848 L47.6931507,31.5299848 L47.6931507,35.9805175 L47.0100457,35.9805175 C46.5063394,35.9805175 46.1182155,36.0581423 45.8456621,36.2133942 C45.5731087,36.3686461 45.4368341,36.7429701 45.4368341,37.3363775 L45.4368341,48.1936073 C45.4368341,48.6973135 45.5489588,49.0492126 45.7732116,49.2493151 C45.9974643,49.4494175 46.4097382,49.5494673 47.0100457,49.5494673 L47.6931507,49.5494673 L47.6931507,54 L34,54 Z M36.7945205,24.2021309 C36.7945205,22.9601156 37.2205944,21.9492682 38.0727549,21.1695586 C38.9249155,20.389849 39.8960879,20 40.9863014,20 C41.6694098,20 42.336983,20.1707745 42.9890411,20.5123288 C43.6410992,20.853883 44.1706727,21.3455067 44.5777778,21.9872146 C44.9848828,22.6289225 45.1884323,23.3672206 45.1884323,24.2021309 C45.1884323,25.2923444 44.7951333,26.2635168 44.0085236,27.1156773 C43.2219139,27.9678378 42.2145165,28.3939117 40.9863014,28.3939117 C40.1513911,28.3939117 39.416543,28.1920873 38.7817352,27.7884323 C38.1469273,27.3847773 37.6570286,26.8586537 37.3120244,26.2100457 C36.9670201,25.5614376 36.7945205,24.8921394 36.7945205,24.2021309 Z" id="i" fill="#7B6696"></path>
                    </g>
                </g>
            </g>
        </g>
    </g>
</svg>