<?xml version="1.0" encoding="utf-8"?>
<!-- Generator: Adobe Illustrator 22.0.1, SVG Export Plug-In . SVG Version: 6.00 Build 0)  -->
<svg version="1.1" id="Layer_1" xmlns="http://www.w3.org/2000/svg" xmlns:xlink="http://www.w3.org/1999/xlink" x="0px" y="0px"
	 viewBox="0 0 1524 598" style="enable-background:new 0 0 1524 598;" xml:space="preserve">
<style type="text/css">
	.st0{opacity:0.2629;fill:#9072B6;enable-background:new    ;}
	.st1{opacity:0.1284;fill:#8F75AF;enable-background:new    ;}
	.st2{fill:url(#Rectangle-36_2_);}
	.st3{fill:url(#Rectangle-36_3_);}
</style>
<g id="Desctop">
	<g id="Benefits" transform="translate(-222.000000, -119.000000)">
		<g id="Header-banner" transform="translate(0.000000, 119.000000)">
			<g id="intro-wave" transform="translate(222.000000, 0.000000)">
				<path id="Rectangle-35" class="st0" d="M84,520.1c100.3-55.5,209.7-83.2,328-83.2c177.5,0,226.1,81.4,514.6,83.2
					S1224.6,251,1524,251c0,80.7,0,196.3,0,347H839.8H84V520.1z"/>
				<path id="Rectangle-35_1_" class="st1" d="M1524,447.5c-151.7-63.8-286.7-95.6-405.1-95.6c-177.5,0-366.2,154.1-552.2,155.3
					C380.7,508.3,383.4,282,84,282c0,80.6,0,185.6,0,315h684.2H1524V447.5z"/>
				
					<linearGradient id="Rectangle-36_2_" gradientUnits="userSpaceOnUse" x1="654.6235" y1="375.8735" x2="655.6235" y2="375.8735" gradientTransform="matrix(170 0 0 -597 -111202 224695)">
					<stop  offset="0" style="stop-color:#412E5B"/>
					<stop  offset="1" style="stop-color:#412E5B;stop-opacity:0"/>
				</linearGradient>
				<rect id="Rectangle-36" x="84" class="st2" width="170" height="597"/>
				
					<linearGradient id="Rectangle-36_3_" gradientUnits="userSpaceOnUse" x1="655.6235" y1="375.8735" x2="654.6235" y2="375.8735" gradientTransform="matrix(170 0 0 -597 -109932 224695)">
					<stop  offset="0" style="stop-color:#412E5B"/>
					<stop  offset="1" style="stop-color:#412E5B;stop-opacity:0"/>
				</linearGradient>
				<rect id="Rectangle-36_1_" x="1354" class="st3" width="170" height="597"/>
			</g>
		</g>
	</g>
</g>
</svg>
