<?xml version="1.0" encoding="UTF-8"?>
<svg width="34px" height="34px" viewBox="0 0 34 34" version="1.1" xmlns="http://www.w3.org/2000/svg" xmlns:xlink="http://www.w3.org/1999/xlink">
    <!-- Generator: Sketch 49.1 (51147) - http://www.bohemiancoding.com/sketch -->
    <title>Talk_Color</title>
    <desc>Created with Sketch.</desc>
    <defs></defs>
    <g id="Style" stroke="none" stroke-width="1" fill="none" fill-rule="evenodd">
        <g transform="translate(-302.000000, -3862.000000)" id="Group-24">
            <g transform="translate(180.000000, 3789.000000)">
                <g id="Hover" transform="translate(27.000000, 73.000000)">
                    <g id="Talk" transform="translate(95.000000, 0.000000)">
                        <path d="M34,17.0000163 C34,26.3888443 26.3888552,34.0000027 17.0000136,34.0000027 L16.9999864,34.0000027 C7.6111584,34.0000027 0,26.3888443 0,17.0000163 L0,16.9999891 C0,7.61114752 7.6111584,2.72e-06 16.9999864,2.72e-06 L17.0000136,2.72e-06 C26.3888552,2.72e-06 34,7.61114752 34,16.9999891 L34,17.0000163 Z" id="Fill-1" fill="#FFFE51"></path>
                        <path d="M16.7848101,4.73417722 C9.17860912,4.73417722 3.01265823,9.59097988 3.01265823,15.5820547 C3.01265823,19.4554133 5.59043894,22.8541117 9.46809382,24.7732617 C9.25713666,25.500065 8.1124598,29.4489595 8.06691085,29.7591772 C8.06691085,29.7591772 8.03949198,29.9922739 8.19059409,30.0811804 C8.34168265,30.1700733 8.51940358,30.1010262 8.51940358,30.1010262 C8.95269498,30.0405676 13.5439863,26.8187474 14.338659,26.2592855 C15.1325451,26.3716005 15.9499991,26.4299458 16.7848101,26.4299458 C24.3910111,26.4299458 30.556962,21.5732651 30.556962,15.5820547 C30.556962,9.59097988 24.3910111,4.73417722 16.7848101,4.73417722" id="Fill-4" fill="#454545"></path>
                        <path d="M22.7238345,19.3569745 C22.2829045,19.3569745 21.9243095,19.0081705 21.9243095,18.5792499 L21.9243095,13.2587372 C21.9243095,12.8298167 22.2829045,12.4810127 22.7238345,12.4810127 C23.1647644,12.4810127 23.5233595,12.8298167 23.5233595,13.2587372 L23.5233595,14.9303128 L25.754017,12.760478 C25.8687593,12.6488644 26.0263882,12.5874232 26.197485,12.5874232 C26.3971002,12.5874232 26.5975204,12.6711765 26.7476991,12.8171276 C26.8877395,12.9532301 26.9712889,13.1283422 26.9827508,13.3101971 C26.9943492,13.4936049 26.9315814,13.6617221 26.8063188,13.783702 L24.9843477,15.5557285 L26.9523767,18.0918746 C27.0807231,18.2562223 27.1360133,18.4637473 27.1058848,18.668047 C27.0770935,18.8724662 26.9653805,19.0571748 26.7956619,19.1809465 C26.6573954,19.283176 26.4884136,19.3383391 26.3147516,19.3379143 C26.063544,19.3390558 25.8266366,19.2243894 25.6760622,19.0287703 L23.8010523,16.6121485 L23.5236187,16.8820174 L23.5236187,18.578865 C23.5231139,19.008343 23.1653512,19.3564038 22.7238345,19.3569878 L22.7238345,19.3569745 Z M18.2819637,19.2536699 C17.8594138,19.2536699 17.5157466,18.9337614 17.5157466,18.5407579 L17.5157466,13.2587372 C17.5157466,12.8298167 17.8819283,12.4810127 18.3319323,12.4810127 C18.7819227,12.4810127 19.1481044,12.8298167 19.1481044,13.2587372 L19.1481044,17.8278459 L20.8470916,17.8278459 C21.2696416,17.8278459 21.6132951,18.1477411 21.6132951,18.5407579 C21.6132951,18.9337614 21.2696416,19.2536699 20.8470916,19.2536699 L18.2819637,19.2536699 Z M14.8164321,16.6276914 L14.0178486,14.4209174 L13.2192514,16.6276914 L14.8164321,16.6276914 Z M16.298079,19.3569745 C15.964673,19.3569745 15.7096311,19.2252787 15.6327406,19.0134797 L15.2368533,18.0052941 L12.7988438,18.0051614 L12.4026836,19.0139973 C12.3260524,19.2254114 12.071147,19.3569745 11.7377409,19.3569745 C11.5623732,19.3571603 11.389025,19.3205531 11.229513,19.2496481 C11.0091162,19.1507502 10.797234,18.8788107 11.0400225,18.1452856 L12.9524747,13.2487559 C13.0872071,12.8763522 13.4964257,12.4926797 14.01718,12.4811454 C14.5393942,12.492547 14.9486264,12.8763522 15.0836044,13.2495257 L16.9952653,18.1438654 C17.2385859,18.8790629 17.0267037,19.1511351 16.806307,19.2497809 C16.646754,19.3205531 16.4734331,19.3571072 16.298079,19.3569745 C16.2979426,19.3569745 16.298079,19.3569745 16.298079,19.3569745 Z M9.28734156,19.3670886 C8.84641159,19.3670886 8.48781656,19.0339601 8.48781656,18.6243652 L8.48781656,14.0040489 L7.24029339,14.0040489 C6.80761874,14.0040489 6.4556962,13.6623725 6.4556962,13.2425308 C6.4556962,12.822689 6.80775519,12.4810127 7.24029339,12.4810127 L11.3343897,12.4810127 C11.7670507,12.4810127 12.1189869,12.822689 12.1189869,13.2425308 C12.1189869,13.6623725 11.7669279,14.0040489 11.3343897,14.0040489 L10.0868666,14.0040489 L10.0868666,18.6243652 C10.0868666,19.0339601 9.72827154,19.3670886 9.28734156,19.3670886 Z" id="Fill-6" fill="#FFFE51"></path>
                    </g>
                </g>
            </g>
        </g>
    </g>
</svg>