<?xml version="1.0" encoding="UTF-8"?>
<svg width="164px" height="136px" viewBox="0 0 164 136" version="1.1" xmlns="http://www.w3.org/2000/svg" xmlns:xlink="http://www.w3.org/1999/xlink">
    <!-- Generator: Sketch 48.2 (47327) - http://www.bohemiancoding.com/sketch -->
    <title>lightweight</title>
    <desc>Created with Sketch.</desc>
    <defs>
        <linearGradient x1="1.50669643%" y1="98.4933036%" x2="98.6180786%" y2="1.38192135%" id="linearGradient-1">
            <stop stop-color="#B299D1" offset="0%"></stop>
            <stop stop-color="#D5B1E4" offset="100%"></stop>
        </linearGradient>
    </defs>
    <g id="Benefits" stroke="none" stroke-width="1" fill="none" fill-rule="evenodd" transform="translate(-250.000000, -572.000000)">
        <g id="lightweight" transform="translate(250.000000, 572.000000)">
            <circle id="Oval-2" fill="#F6F2FB" cx="90" cy="68" r="68"></circle>
            <g id="Group-18" transform="translate(0.000000, 6.000000)">
                <g id="Group-14" transform="translate(44.000000, 22.000000)">
                    <polygon id="Path-3" stroke="url(#linearGradient-1)" stroke-width="2" points="22.6608292 0 0 38.9413545 22.6608292 77.1112423 67.1771987 77.1112423 90.0031121 38.9413545 67.1771987 0"></polygon>
                    <polygon id="Path-3" stroke="#7B6696" stroke-width="3" fill="url(#linearGradient-1)" points="26.1016751 6 7 38.8251493 26.1016751 71 63.6262166 71 82.8670475 38.8251493 63.6262166 6"></polygon>
                    <rect id="Rectangle-9" fill="#FFFFFF" x="44" y="20" width="2" height="36"></rect>
                    <circle id="Oval-7" fill="#FFFFFF" cx="45" cy="18" r="2"></circle>
                    <rect id="Rectangle-9" fill="#FFFFFF" transform="translate(45.577336, 20.142307) rotate(-255.000000) translate(-45.577336, -20.142307) " x="44.5773356" y="0.142306728" width="2" height="40"></rect>
                    <path d="M36.5610515,34 C37.3595636,34 38.1719133,34 39,34 C39,37.5898509 34.2989899,40.5 28.5,40.5 C22.7010101,40.5 18,37.5898509 18,34 C18.7264974,34 19.4504835,34 20.1740765,34 L27.8146226,16 L28.8540039,16 L28.8394933,16.0343874 L28.9205049,16 L36.5610515,34 Z M35.4746912,34 L28.3455795,17.2048655 L21.2584352,34 C25.7969255,34 30.3615637,34 35.4746912,34 Z" id="Combined-Shape" fill="#FFFFFF"></path>
                    <path d="M70.5610515,43 C71.3595636,43 72.1719133,43 73,43 C73,46.5898509 68.2989899,49.5 62.5,49.5 C56.7010101,49.5 52,46.5898509 52,43 C52.7264974,43 53.4504835,43 54.1740765,43 L61.8146226,25 L62.8540039,25 L62.8394933,25.0343874 L62.9205049,25 L70.5610515,43 Z M69.4746912,43 L62.3455795,26.2048655 L55.2584352,43 C59.7969255,43 64.3615637,43 69.4746912,43 Z" id="Combined-Shape" fill="#FFFFFF"></path>
                    <path d="M44.5,60.5 C50.2989899,60.5 55,57.5898509 55,54 C47.1206055,54 40.6660156,54 34,54 C34,57.5898509 38.7010101,60.5 44.5,60.5 Z" id="Oval-5" fill="#FFFFFF" transform="translate(44.500000, 57.250000) scale(1, -1) translate(-44.500000, -57.250000) "></path>
                </g>
                <g id="Group-24" transform="translate(10.000000, 77.000000)">
                    <path d="M17.5,35 C7.83501688,35 0,27.1649831 0,17.5 C0,7.83501688 7.83501688,0 17.5,0 C27.1649831,0 35,7.83501688 35,17.5 C35,27.1649831 27.1649831,35 17.5,35 Z M17.5,33.5416667 C26.3595679,33.5416667 33.5416667,26.3595679 33.5416667,17.5 C33.5416667,8.64043214 26.3595679,1.45833333 17.5,1.45833333 C8.64043214,1.45833333 1.45833333,8.64043214 1.45833333,17.5 C1.45833333,26.3595679 8.64043214,33.5416667 17.5,33.5416667 Z" id="Oval-3" fill="#B09CC9" fill-rule="nonzero"></path>
                    <path d="M17.5,4 C10.0565909,4 4,10.0565909 4,17.5 C4,24.9446364 10.0565909,31 17.5,31 C24.9434091,31 31,24.9446364 31,17.5 C31,10.0565909 24.9434091,4 17.5,4" id="Fill-385" fill="url(#linearGradient-1)"></path>
                    <polygon id="Fill-2" fill="#F6F2FB" points="11 13.9771038 16.0103687 13.9771038 16.0103687 16.3262849 11 16.3262849 11 19.1442122 18.830433 19.1442122 18.830433 13.9771038 21.1799357 13.9771038 21.1799357 21.1802935 11 21.1802935 11 24 24 24 24 11 11 11"></polygon>
                </g>
                <g id="Group-24">
                    <path d="M17.5,35 C7.83501688,35 0,27.1649831 0,17.5 C0,7.83501688 7.83501688,0 17.5,0 C27.1649831,0 35,7.83501688 35,17.5 C35,27.1649831 27.1649831,35 17.5,35 Z M17.5,33.5416667 C26.3595679,33.5416667 33.5416667,26.3595679 33.5416667,17.5 C33.5416667,8.64043214 26.3595679,1.45833333 17.5,1.45833333 C8.64043214,1.45833333 1.45833333,8.64043214 1.45833333,17.5 C1.45833333,26.3595679 8.64043214,33.5416667 17.5,33.5416667 Z" id="Oval-3" fill="#B09CC9" fill-rule="nonzero"></path>
                    <path d="M17.5,4 C10.0565909,4 4,10.0565909 4,17.5 C4,24.9446364 10.0565909,31 17.5,31 C24.9434091,31 31,24.9446364 31,17.5 C31,10.0565909 24.9434091,4 17.5,4" id="Fill-385" fill="url(#linearGradient-1)"></path>
                    <g id="Page-1" transform="translate(9.000000, 6.000000)" fill="#FFFFFF">
                        <path d="M17.9523946,8.39785118 C17.9523946,7.57257845 17.3206108,6.90356835 16.5412595,6.90356835 L12.7449892,6.90356835 L11.8874757,6.90356835 C11.8874757,6.90356835 11.4839081,6.68600269 11.7025027,5.59989158 C11.830827,4.96201953 13.2667189,0.766053199 10.676773,0.0269252525 C9.36834054,-0.224525926 10.2545568,1.98593199 9.63434054,3.01812391 C9.01417838,4.05031582 6.03617838,8.24914411 6.03617838,8.50202626 L6.03617838,16.5421104 C6.03617838,16.7949926 6.2298,17.0000229 6.46861081,17.0000229 L9.57715135,17.0000229 L14.010773,17.0000229 L14.6135297,17.0000229 C15.3148811,17.0000229 15.8834216,16.3979825 15.8834216,15.6553057 C15.8834216,15.4122687 15.8222324,15.1845717 15.7157459,14.9878411 C16.3061784,14.8722754 16.7534757,14.3246121 16.7534757,13.6659623 C16.7534757,13.2191542 16.5475838,12.8235178 16.2309351,12.5789926 C16.8973135,12.5378949 17.4258541,11.9527973 17.4258541,11.2368512 C17.4258541,10.4941744 16.8573135,9.89213401 16.1560162,9.89213401 L16.5412595,9.89213401 C17.3206108,9.89213401 17.9523946,9.22312391 17.9523946,8.39785118" id="Fill-1"></path>
                        <path d="M4.57731,8 L0.422689999,8 C0.189206611,8 0,8.2145267 0,8.47912161 L0,16.5208784 C0,16.7855332 0.189206611,17 0.422689999,17 L4.57731,17 C4.81074055,17 5,16.7855332 5,16.5208784 L5,8.47912161 C5,8.2145267 4.81074055,8 4.57731,8" id="Fill-4"></path>
                    </g>
                </g>
                <rect id="Rectangle-11" fill="#B09CC9" x="27" y="60" width="2" height="17"></rect>
                <rect id="Rectangle-11" fill="#B09CC9" x="16" y="35" width="2" height="27"></rect>
                <rect id="Rectangle-11" fill="#B09CC9" x="145" y="60" width="2" height="23"></rect>
                <rect id="Rectangle-11" fill="#B09CC9" transform="translate(30.500000, 61.000000) rotate(-270.000000) translate(-30.500000, -61.000000) " x="29.5" y="46.5" width="2" height="29"></rect>
                <rect id="Rectangle-11" fill="#B09CC9" transform="translate(140.000000, 61.000000) rotate(-270.000000) translate(-140.000000, -61.000000) " x="139" y="55" width="2" height="12"></rect>
                <g id="Group-24" transform="translate(129.000000, 83.000000)">
                    <path d="M17.5,35 C7.83501688,35 0,27.1649831 0,17.5 C0,7.83501688 7.83501688,0 17.5,0 C27.1649831,0 35,7.83501688 35,17.5 C35,27.1649831 27.1649831,35 17.5,35 Z M17.5,33.5416667 C26.3595679,33.5416667 33.5416667,26.3595679 33.5416667,17.5 C33.5416667,8.64043214 26.3595679,1.45833333 17.5,1.45833333 C8.64043214,1.45833333 1.45833333,8.64043214 1.45833333,17.5 C1.45833333,26.3595679 8.64043214,33.5416667 17.5,33.5416667 Z" id="Oval-3" fill="#B09CC9" fill-rule="nonzero"></path>
                    <path d="M17.5,4 C10.0565909,4 4,10.0565909 4,17.5 C4,24.9446364 10.0565909,31 17.5,31 C24.9434091,31 31,24.9446364 31,17.5 C31,10.0565909 24.9434091,4 17.5,4" id="Fill-385" fill="url(#linearGradient-1)"></path>
                    <g id="Page-1" transform="translate(11.000000, 8.000000)" fill="#F6F2FB">
                        <path d="M4.78910286,5.96509637 L4.80251465,8.71015466 L8.7212648,8.71015466 C9.41726029,8.71015466 9.98131869,8.14139532 9.97793848,7.44200764 L9.97695713,7.23335297 C9.97346788,6.53374611 9.40395754,5.96509637 8.70796205,5.96509637 L5.3255744,5.96509637 L4.78910286,5.96509637 M10.475156,12.8828098 L10.4741747,12.6624293 C10.4704673,11.882166 9.83586075,11.2486404 9.0596126,11.2486404 L8.7335862,11.2486404 L4.81472701,11.2486404 L4.8295563,14.2967083 L5.36602784,14.2967083 L9.07433286,14.2967083 C9.85069005,14.2967083 10.4790814,13.6620868 10.475156,12.8828098 M12.9988621,12.6624293 L12.9999525,12.8828098 C13.0105292,15.0610814 11.2550024,16.8340982 9.08665426,16.8340982 L8.9907,16.8340982 L8.99637002,18.9990234 L6.47168261,18.9990234 L6.46601258,16.8340982 L5.43123313,16.8340982 L5.43679411,18.9990234 L2.9121067,18.9990234 L2.90643667,16.8340982 L2.31719029,16.8340982 L0.0168457031,16.8340982 L0.0045243039,14.2967083 L2.30486889,14.2967083 L2.2900396,11.2486404 L2.2777182,8.71015466 L2.26441545,5.96509637 L0.0168457031,5.96509637 L0.0045243039,3.42672018 L2.25198501,3.42672018 L2.84144947,3.42672018 L2.83447098,0.99206543 L5.35926743,0.99206543 L5.36613688,3.42672018 L6.40091634,3.42672018 L6.39404689,0.99206543 L8.9187343,0.99206543 L8.92571279,3.43855564 C10.9077134,3.55954028 12.491831,5.21255873 12.5016445,7.23335297 L12.5026259,7.44200764 C12.5068784,8.31761209 12.2122552,9.12253257 11.7190721,9.76679772 C12.4989186,10.4889796 12.9933011,11.5182258 12.9988621,12.6624293 Z" id="Fill-1"></path>
                    </g>
                </g>
            </g>
        </g>
    </g>
</svg>