<?xml version="1.0" encoding="UTF-8"?>
<svg width="140px" height="160px" viewBox="0 0 140 160" version="1.1" xmlns="http://www.w3.org/2000/svg" xmlns:xlink="http://www.w3.org/1999/xlink">
    <!-- Generator: Sketch 49.3 (51167) - http://www.bohemiancoding.com/sketch -->
    <title>ligtweight</title>
    <desc>Created with Sketch.</desc>
    <defs></defs>
    <g id="Desctop" stroke="none" stroke-width="1" fill="none" fill-rule="evenodd">
        <g id="Benefits" transform="translate(-452.000000, -636.000000)">
            <g id="Icons" transform="translate(345.000000, 636.000000)">
                <g id="Icons/big/ligtweight" transform="translate(107.000000, 0.000000)">
                    <g id="Group-39">
                        <polygon id="Fill-1" fill="#F7F7F7" points="70 0 0 40.009 0 119.419 70 160 140 118.789 140 40.009"></polygon>
                        <polygon id="Fill-2" fill="#E8E8E8" points="128 46.7562485 70.5005056 14 13 46.7562485 13 111.773863 70.5005056 145 128 111.258985"></polygon>
                        <polygon id="Fill-3" fill="#AFAFAF" points="15.5561497 70 31.9498663 31 48.4328209 70 50 70 33.2824198 31.0634436 33.0939171 31.1417569 33.128008 31.0634436 30.7175802 31.0634436 14 70"></polygon>
                        <polygon id="Fill-4" fill="#AFAFAF" points="93.5561497 92 109.949866 53 126.432821 92 128 92 111.28242 53.063442 111.093917 53.1417533 111.128008 53.063442 108.71758 53.063442 92 92"></polygon>
                        <polygon id="Fill-5" fill="#F9A510" points="68.736 40 71.35296 40 75 123 66 123"></polygon>
                        <g id="Group-38" transform="translate(7.000000, 27.000000)">
                            <path d="M62.3063953,91.4552 C75.8221688,91.4552 86.7780984,98.1852 86.7780984,106.4872 L37.8346922,106.4872 C37.8346922,98.1852 48.7916297,91.4552 62.3063953,91.4552" id="Fill-6" fill="#FFC033"></path>
                            <path d="M78.0553805,99.1008 C77.6159742,100.3728 75.4108805,100.7758 73.1281852,99.9998 C70.8464977,99.2248 69.3519117,97.5648 69.791318,96.2928 C70.2297164,95.0218 72.435818,94.6198 74.7175055,95.3948 C77.0002008,96.1698 78.4947867,97.8298 78.0553805,99.1008" id="Fill-8" fill="#FFDA8F"></path>
                            <polygon id="Fill-10" fill="#FFC033" points="104.5932 26.424 62.5543172 17.192 23.41995 3.745 23.5691063 3.22 64.7090203 11.017 104.741348 25.899"></polygon>
                            <path d="M70.3334203,13.5705 C70.3334203,17.3415 67.2515297,20.3975 63.4520766,20.3975 C59.6516156,20.3975 56.5717406,17.3415 56.5717406,13.5705 C56.5717406,9.7995 59.6516156,6.7425 63.4520766,6.7425 C67.2515297,6.7425 70.3334203,9.7995 70.3334203,13.5705" id="Fill-12" fill="#F9A510"></path>
                            <path d="M106.131424,25.9064 C106.131424,27.4224 104.892823,28.6504 103.364979,28.6504 C101.837135,28.6504 100.598534,27.4224 100.598534,25.9064 C100.598534,24.3894 101.837135,23.1614 103.364979,23.1614 C104.892823,23.1614 106.131424,24.3894 106.131424,25.9064" id="Fill-14" fill="#FFC033"></path>
                            <path d="M27.9393844,3.7287 C27.9393844,5.2447 26.7007828,6.4737 25.1729391,6.4737 C23.6440875,6.4737 22.4064937,5.2447 22.4064937,3.7287 C22.4064937,2.2127 23.6440875,0.9837 25.1729391,0.9837 C26.7007828,0.9837 27.9393844,2.2127 27.9393844,3.7287" id="Fill-16" fill="#FFC033"></path>
                            <path d="M67.9359352,91.8537 C66.1420289,91.5957 64.2735445,91.4557 62.3526539,91.4557 C48.8368805,91.4557 37.879943,98.1857 37.879943,106.4877 L49.0485211,106.4877 C49.0485211,99.3667 57.1130367,93.4057 67.9359352,91.8537" id="Fill-18" fill="#F9A510"></path>
                            <path d="M89.5999734,109.0959 L36.2282391,109.0959 C34.9775437,109.0959 33.9536062,108.0809 33.9536062,106.8399 C33.9536062,105.5999 34.9775437,104.5839 36.2282391,104.5839 L89.5999734,104.5839 C90.8496609,104.5839 91.8735984,105.5999 91.8735984,106.8399 C91.8735984,108.0809 90.8496609,109.0959 89.5999734,109.0959" id="Fill-20" fill="#F9A510"></path>
                            <path d="M25.6707984,47.6408 C33.3987047,47.6408 39.664275,41.4238 39.664275,33.7558 C39.664275,26.0878 33.3987047,19.8708 25.6707984,19.8708 C17.9418844,19.8708 11.6773219,26.0878 11.6773219,33.7558 C11.6773219,41.4238 17.9418844,47.6408 25.6707984,47.6408" id="Fill-22" fill="#39B54A"></path>
                            <polygon id="Fill-24" fill="#FFFFFF" points="18.8375273 30.0812 24.1053633 30.0812 24.1053633 32.5312 18.8375273 32.5312 18.8375273 35.4712 27.0693398 35.4712 27.0693398 30.0812 29.5384805 30.0812 29.5384805 37.5952 18.8375273 37.5952 18.8375273 40.5362 32.5044727 40.5362 32.5044727 26.9762 18.8375273 26.9762"></polygon>
                            <path d="M103.983977,69.8195 C111.711884,69.8195 117.977454,63.6025 117.977454,55.9345 C117.977454,48.2655 111.711884,42.0495 103.983977,42.0495 C96.2560711,42.0495 89.9905008,48.2655 89.9905008,55.9345 C89.9905008,63.6025 96.2560711,69.8195 103.983977,69.8195" id="Fill-26" fill="#4A3777"></path>
                            <path d="M102.438799,54.8771 C102.462987,54.8781 102.48012,54.8791 102.496245,54.8791 L104.427213,54.8791 C104.722502,54.8791 105.010737,54.8371 105.286877,54.7321 C105.902651,54.4991 106.322909,54.0941 106.404541,53.4191 C106.477104,52.8201 106.281588,52.3181 105.785745,51.9531 C105.385643,51.6591 104.925073,51.5461 104.43326,51.5431 C103.790276,51.5401 103.146284,51.5421 102.502291,51.5431 C102.482135,51.5431 102.460971,51.5451 102.438799,51.5461 L102.438799,54.8771 Z M102.438799,60.1491 L102.502291,60.1491 L104.92608,60.1491 C105.257651,60.1491 105.58519,60.1191 105.905674,60.0321 C106.282596,59.9301 106.623237,59.7641 106.889299,59.4701 C107.18358,59.1451 107.298471,58.7541 107.304518,58.3231 C107.31258,57.5731 106.94876,57.0021 106.263448,56.7041 C105.864354,56.5301 105.44208,56.4661 105.011745,56.4641 C104.173245,56.4611 103.334745,56.4631 102.496245,56.4631 C102.478104,56.4631 102.459963,56.4651 102.438799,56.4661 L102.438799,60.1491 Z M110.405557,58.0541 L110.405557,58.5001 C110.400518,58.5181 110.395479,58.5351 110.394471,58.5541 C110.36726,58.8681 110.291674,59.1711 110.169729,59.4621 C109.830096,60.2781 109.250604,60.8861 108.491721,61.3311 C107.680432,61.8071 106.791541,62.0181 105.859315,62.0691 C105.715198,62.0781 105.57108,62.0821 105.422932,62.0881 L105.422932,62.1831 C105.422932,62.9981 105.422932,63.8141 105.421924,64.6281 C105.421924,64.6581 105.418901,64.6891 105.416885,64.7181 L103.914237,64.7181 C103.914237,64.7061 103.916252,64.6951 103.916252,64.6841 L103.916252,62.1391 C103.916252,62.1211 103.912221,62.1041 103.911213,62.0871 L102.434768,62.0871 L102.434768,62.1601 L102.434768,64.6551 C102.434768,64.6771 102.436784,64.6971 102.437791,64.7181 L100.935143,64.7181 C100.933127,64.6891 100.929096,64.6581 100.929096,64.6281 C100.928088,63.8111 100.928088,62.9931 100.928088,62.1761 L100.928088,62.0831 L97.5619945,62.0831 L97.5619945,62.0551 C97.5670336,62.0421 97.5740883,62.0301 97.5771117,62.0171 C97.7141742,61.4221 97.8502289,60.8281 97.984268,60.2321 C97.9983773,60.1691 98.0195414,60.1481 98.0890805,60.1481 C98.5929867,60.1511 99.0958852,60.1491 99.5997914,60.1491 L99.6814242,60.1491 L99.6814242,51.5421 L97.5619945,51.5421 L97.5619945,49.7851 L100.928088,49.7851 L100.928088,49.6871 C100.928088,48.8711 100.928088,48.0561 100.929096,47.2401 C100.929096,47.2101 100.933127,47.1811 100.935143,47.1501 L102.437791,47.1501 C102.436784,47.1641 102.434768,47.1781 102.434768,47.1921 C102.434768,48.0381 102.434768,48.8841 102.435776,49.7301 C102.435776,49.7471 102.438799,49.7651 102.440815,49.7811 L103.916252,49.7811 L103.916252,49.6941 L103.916252,47.2271 C103.916252,47.2011 103.914237,47.1761 103.914237,47.1501 L105.416885,47.1501 C105.418901,47.1811 105.421924,47.2101 105.421924,47.2401 C105.422932,48.0581 105.422932,48.8761 105.422932,49.6931 L105.422932,49.7861 L105.495495,49.7861 C105.912729,49.7901 106.325932,49.8311 106.734096,49.9261 C107.34987,50.0691 107.911221,50.3231 108.384893,50.7441 C109.006713,51.2971 109.35844,51.9921 109.489455,52.8041 C109.555971,53.2151 109.514651,53.6081 109.320143,53.9811 C109.133698,54.3391 108.877713,54.6431 108.580409,54.9121 C108.459471,55.0231 108.329463,55.1261 108.200463,55.2341 C108.222635,55.2471 108.244807,55.2611 108.266979,55.2731 C108.617698,55.4591 108.96237,55.6551 109.281846,55.8931 C109.872424,56.3321 110.244307,56.9021 110.353151,57.6331 C110.373307,57.7731 110.388424,57.9131 110.405557,58.0541 Z" id="Fill-28" fill="#FFFFFF"></path>
                            <path d="M25.4060461,57.9289 C38.9208117,57.9289 49.8777492,51.1989 49.8777492,42.8969 L0.934342969,42.8969 C0.934342969,51.1989 11.8902727,57.9289 25.4060461,57.9289" id="Fill-30" fill="#FFC033"></path>
                            <path d="M31.0346789,57.5304 C29.2407727,57.7884 27.3732961,57.9284 25.4513977,57.9284 C11.9356242,57.9284 0.979694531,51.1984 0.979694531,42.8964 L12.1472648,42.8964 C12.1472648,50.0174 20.2117805,55.9784 31.0346789,57.5304" id="Fill-32" fill="#F9A510"></path>
                            <path d="M103.983977,79.7306 C117.499751,79.7306 128.45568,73.0006 128.45568,64.6986 L79.5122742,64.6986 C79.5122742,73.0006 90.4682039,79.7306 103.983977,79.7306" id="Fill-34" fill="#FFC033"></path>
                            <path d="M109.613517,79.3322 C107.818603,79.5902 105.951127,79.7302 104.029228,79.7302 C90.5134547,79.7302 79.557525,73.0002 79.557525,64.6982 L90.7250953,64.6982 C90.7250953,71.8192 98.7896109,77.7802 109.613517,79.3322" id="Fill-36" fill="#F9A510"></path>
                        </g>
                    </g>
                </g>
            </g>
        </g>
    </g>
</svg>