<?xml version="1.0" encoding="UTF-8"?>
<svg width="62px" height="62px" viewBox="0 0 62 62" version="1.1" xmlns="http://www.w3.org/2000/svg" xmlns:xlink="http://www.w3.org/1999/xlink">
    <!-- Generator: Sketch 49.3 (51167) - http://www.bohemiancoding.com/sketch -->
    <title>linux</title>
    <desc>Created with Sketch.</desc>
    <defs></defs>
    <g id="linux" stroke="none" stroke-width="1" fill="none" fill-rule="evenodd">
        <g id="Group-16" transform="translate(4.000000, 9.000000)">
            <path d="M26.3813464,4.36744152 C26.3719997,4.27221377 26.3673886,4.17698602 26.3673886,4.08151689 C26.3673886,2.68411905 27.3125296,1.54730007 28.4738915,1.54730007 C29.6622966,1.54730007 30.5933551,2.66046298 30.5933551,4.08151689 C30.5933551,4.40328771 30.5432566,4.71347189 30.4501633,5 C30.7984846,4.46387622 31,3.78919545 31,3.08192725 C31,1.38255244 29.8785175,0 28.4999377,0 C27.1212333,0 26,1.38255244 26,3.08192725 C26,3.49964999 26.0675457,3.90856205 26.2012662,4.30069761 C26.259839,4.32218119 26.3199073,4.34450962 26.3813464,4.36744152" id="Fill-1" fill="#FFFFFF"></path>
            <path d="M21.3268611,2.24070015 C21.4088733,2.2282891 21.483825,2.22262318 21.5586408,2.22262318 C22.5658712,2.22262318 23.4689569,3.20471485 23.7056248,4.55792385 C23.7292508,4.70618192 23.7443226,4.85417018 23.7509759,5 C23.816287,4.96681394 23.882956,4.93592122 23.9505754,4.90705204 C23.9838419,4.67245624 24,4.45256484 24,4.23172912 C24,2.47988263 23.0659561,1 21.9606911,1 C21.019315,1 20.2262127,2.03011703 20,3.42150349 C20.2575783,2.78692118 20.7275196,2.33971873 21.3268611,2.24070015" id="Fill-3" fill="#FFFFFF"></path>
            <path d="M38.540412,32.6120345 C38.78392,31.6305785 39.2685846,29.1245643 38.8099169,26.0933198 C38.2300176,22.2619429 32.5555226,10.3320647 31.579139,9 C31.0095601,9.07558254 29.4959956,9.90649402 28.268527,10.5802832 C26.8451023,11.361551 25.3729499,12.1697504 24.3717452,12.4444042 C24.1627254,12.5006257 23.9441691,12.5283021 23.7188196,12.5283021 C22.2559425,12.5283021 20.6723564,11.3532356 19.6515561,10.4276288 C19.4732361,12.223738 18.4656301,14.5027563 17.3753307,15.6739753 C16.6867412,16.4242158 16.0714392,18.1380405 15.4762554,19.7956438 C14.9249657,21.3306271 14.3549949,22.9179845 13.6571301,23.9647219 C12.2450709,26.0550942 11.4352499,30.1150803 12.4625821,32.4238848 C12.9597879,33.5431021 14.7644124,34.8648657 16.3564899,36.0307481 C18.3036398,37.4567634 19.9850732,38.6882996 20.1705783,39.9301368 C20.3870444,41.3984735 19.5652048,42.2122579 18.7432345,42.5981135 L20.8282068,44.8647209 C21.1504891,44.9111378 21.9263444,45 23.1421863,45 C24.5643046,45 26.1427959,44.881848 27.832982,44.6482744 C31.9824165,44.0643403 34.8725068,40.8160287 35.4440453,40.1261053 C35.4470499,39.212413 35.476574,35.1465937 35.7569218,33.8752185 C35.8658733,33.3856075 36.2843048,32.5662381 37.8648862,32.5662381 C38.1104844,32.5659899 38.344456,32.586468 38.540412,32.6120345" id="Fill-5" fill="#FFFFFF"></path>
            <path d="M20,9.08791777 C20.0849341,9.42839564 20.8363894,10.2992711 22.005426,11.0900176 C22.1713405,11.1996678 22.3270303,11.3090368 22.4733132,11.411377 C23.1215662,11.8657223 23.4099058,12.0524088 23.8761571,11.9874622 C24.5624463,11.8946812 27.0907009,10.3140317 28.1704408,9.63883964 L28.4391488,9.4711311 C28.8413246,9.21865453 29.1625199,9.04616636 29.4207305,8.90755728 C29.9319709,8.63343183 29.9781871,8.58900945 30,8.48891852 C29.9420594,8.33386192 29.464629,7.91887816 28.5491677,7.59428551 C28.2583741,7.48702514 27.8454281,7.3167862 27.3671797,7.11997819 C26.332429,6.69402941 24.9154067,6.11119653 24.3409088,6.00646655 C24.3165056,6.00168693 24.2933293,6 24.2675628,6 C23.7786806,6 22.790964,6.63245662 21.809246,7.57362067 C21.3255443,8.02402987 20.3810446,8.78413054 20,9.08791777" id="Fill-7" fill="#E69629"></path>
            <path d="M12.6706317,38.0786903 C12.2794467,37.3890943 11.9413143,36.7933721 11.7587027,36.4964352 C11.0391681,35.3172696 9.7902356,34 9.19499221,34 C9.14281748,34 9.11547592,34.012807 9.09754086,34.0238975 C8.77985196,34.2142857 8.51283274,34.7945603 8.25434209,35.3552944 C7.89714588,36.1311064 7.49229007,37.0102984 6.74466136,37.487193 C6.19155909,37.840375 5.34610277,38.0334037 4.52874052,38.2204912 C3.94729333,38.353446 2.58560822,38.6645102 2.52164401,38.9548455 C2.43347374,39.3467124 2.51549843,39.7513863 2.61959704,40.2635331 C2.7421324,40.8679694 2.8950194,41.6200158 2.76483342,42.543306 C2.67302597,43.1225244 2.50609193,43.6754687 2.34417469,44.2104568 C2.1192966,44.9548455 1.86431771,45.7987853 2.084179,46.0583575 C2.35533707,46.310404 3.99144118,46.5889886 5.18581598,46.7925799 C6.68746983,47.0484552 8.23991879,47.3130446 9.19072793,47.7323739 L9.44282216,47.8440718 C11.1459006,48.5974386 14.3158914,50 15.9172542,50 C16.0628668,50 16.1871581,49.9875891 16.2873687,49.9639556 C16.5635436,49.7681542 17.7335869,48.883417 17.9534482,47.7953525 C18.2535783,46.3933193 17.0331161,44.7579879 16.279091,43.9077106 C15.4426649,42.9619752 13.840675,40.1394243 12.6706317,38.0786903" id="Fill-9" fill="#E69629"></path>
            <path d="M49.0201101,41.0887104 L48.8012787,40.9658134 C47.2981488,40.1178392 46.5080492,37.8168594 46.6125427,36.0826463 C46.6322319,35.7631742 46.5948224,35.5152794 46.5342078,35.3257569 C46.25659,35.8128431 45.8601339,36.4282284 45.3889994,36.9307706 C44.5884927,37.7848972 42.6347613,38.7063995 40.8737029,38.7063995 C40.2169274,38.7063995 39.6180943,38.5830523 39.0943616,38.3392091 C37.3366784,37.5212464 37.0970327,35.1758496 37.0925323,34 C37.0666551,34.007803 37.0427467,34.0168064 37.0215105,34.0273104 C36.9140637,34.4327655 37.0181352,35.7990379 37.0883132,36.7187395 C37.1258633,37.2106276 37.1645385,37.7194722 37.1874624,38.1861506 C37.2870335,40.2432871 36.6730117,43.7321211 36.1401375,46.2967517 C35.6342656,48.8073616 36.5758314,50.5679848 37.7186489,50.9480801 C37.821314,50.9828935 37.9367771,51 38.0636319,51 C39.1165822,51 40.8602017,49.8372054 42.4018662,48.1061435 C43.4971484,46.8773237 45.9349528,45.5491659 48.0858575,44.3772178 C49.2984311,43.7168153 50.5524926,43.0333039 50.9087265,42.6860711 C50.9879052,42.607141 50.9997187,42.5630241 51,42.562724 C50.9777793,42.1851796 49.5556564,41.388375 49.0201101,41.0887104" id="Fill-11" fill="#E69629"></path>
            <g id="Group-15" transform="translate(0.000000, 52.000000)" fill="#000000">
                <path d="M48.8931543,-9.12643028 C48.5924329,-8.84884774 47.5339123,-8.30267562 46.5104146,-7.77496903 C44.6945699,-6.83874248 42.6364146,-5.77709418 41.7120493,-4.79530333 C40.4106247,-3.41206697 38.9385973,-2.48291488 38.0497297,-2.48291488 C37.9427616,-2.48291488 37.8451726,-2.49658417 37.7586247,-2.52428247 C36.7935379,-2.82812444 35.9990539,-4.23486238 36.426095,-6.24125056 C36.8758119,-8.29056511 37.3941498,-11.0782612 37.3102137,-12.7219335 C37.2907434,-13.0952011 37.258095,-13.5014429 37.2263963,-13.8947347 C37.1671543,-14.6293992 37.0793005,-15.7211439 37.1700037,-16.0451301 C37.1879306,-16.0536434 37.2078758,-16.0608378 37.2300767,-16.0671928 C37.2338758,-15.127489 37.4359397,-13.2533572 38.9198393,-12.5997492 C39.3621954,-12.4049019 39.8675927,-12.3063391 40.4219032,-12.3063391 C41.9085333,-12.3063391 43.5580493,-13.0425623 44.2335744,-13.7251876 C44.63141,-14.126753 44.9659671,-14.6184877 45.200442,-15.0078227 C45.2514922,-14.8561416 45.2830721,-14.6581767 45.2664511,-14.4028966 C45.1782411,-13.0170224 45.8450995,-11.1785027 47.114232,-10.5010334 L47.2989626,-10.4028303 C47.7509352,-10.1633779 48.9514466,-9.52655682 48.9707982,-9.22475325 C48.9699671,-9.22451344 48.9599945,-9.18914115 48.8931543,-9.12643028 M34.4795379,-17.7096661 C34.2247616,-16.4813484 34.1979306,-12.5532257 34.1950813,-11.6704772 C33.6756749,-11.0039194 31.0492,-7.86549811 27.2783689,-7.30122017 C25.7423507,-7.07579677 24.307958,-6.96152629 23.0153187,-6.96152629 C21.9103781,-6.96152629 21.2052913,-7.04773875 20.9125242,-7.0923438 L19.017611,-9.28218826 C19.7646064,-9.65497621 20.5114831,-10.4412003 20.3148804,-11.8598089 C20.1461772,-13.059589 18.618232,-14.2494169 16.8486886,-15.6271376 C15.4017114,-16.7534152 13.7616932,-18.0302949 13.309958,-19.1117277 C12.3762137,-21.3422203 13.112168,-25.2647074 14.395547,-27.284525 C15.0296384,-28.2956929 15.5476201,-29.8294114 16.0487434,-31.3122897 C16.5895196,-32.913755 17.1490539,-34.5697777 17.7745973,-35.2943701 C18.7653279,-36.4260435 19.6809078,-38.6278785 19.8430813,-40.3631591 C20.7708895,-39.4688997 22.2100311,-38.3336291 23.539474,-38.3336291 C23.7441498,-38.3336291 23.9428895,-38.3606079 24.1327251,-38.4146856 C25.0423689,-38.6800377 26.3802411,-39.460866 27.6740676,-40.2156747 C28.7895744,-40.8665248 30.1650813,-41.6692959 30.6827068,-41.7424386 C31.5701498,-40.4553669 36.7269352,-28.9295163 37.2539397,-25.2280161 C37.6708895,-22.2993105 37.2304329,-19.8782872 37.0088986,-18.93007 C36.8308164,-18.9547707 36.618305,-18.9745552 36.3952274,-18.9745552 C34.9588164,-18.9745552 34.5785516,-18.1825756 34.4795379,-17.7096661 M18.034716,-4.62899362 C17.8265973,-3.64096765 16.718926,-2.8373572 16.4576201,-2.65965642 C16.3627616,-2.63819323 16.2453461,-2.62680215 16.1072731,-2.62680215 C14.5914374,-2.62680215 11.5907525,-3.90056428 9.97863379,-4.58474828 L9.74012237,-4.68618881 C8.83985753,-5.06713038 7.37032329,-5.30730222 5.94910868,-5.53968018 C4.81828676,-5.72469523 3.26968402,-5.97757712 3.01300822,-6.2064778 C2.8048895,-6.44221312 3.04636895,-7.20877259 3.25911781,-7.88468308 C3.41238721,-8.37054245 3.57064292,-8.87282895 3.65730959,-9.39873695 C3.78030502,-10.23736 3.635821,-10.9204648 3.51983014,-11.469155 C3.42141005,-11.9345104 3.34364749,-12.3017827 3.4272274,-12.6576639 C3.48777534,-12.9213373 4.77661553,-13.203836 5.32712694,-13.3245814 C6.10095342,-13.4944883 6.90125479,-13.6699109 7.42469772,-13.9906596 C8.13239635,-14.4236404 8.51562922,-15.2220949 8.85362922,-15.9266629 C9.09843288,-16.435904 9.35107215,-16.9627712 9.65179361,-17.1357957 C9.66877078,-17.1459877 9.69465205,-17.1574987 9.7441589,-17.1574987 C10.3074922,-17.1574987 11.4897205,-15.9614357 12.1709443,-14.8903148 C12.3438027,-14.6206461 12.6637571,-14.0798697 13.034168,-13.4534804 C14.1416018,-11.5818667 15.6580311,-9.01851482 16.4500219,-8.15950778 C17.1635379,-7.38743263 18.3189352,-5.90239602 18.034716,-4.62899362 M20.9792457,-51.4408008 C21.9458758,-51.4408008 22.762442,-50.1253113 22.762442,-48.5682112 C22.762442,-48.3718051 22.7484329,-48.1764781 22.7192274,-47.9679614 C22.6599854,-47.9424214 22.6018119,-47.9146032 22.5445881,-47.8854661 C22.5387708,-48.0153243 22.525474,-48.1465016 22.5049352,-48.2783982 C22.2980037,-49.4810561 21.5083872,-50.3540921 20.6277114,-50.3540921 C20.5625333,-50.3540921 20.4969991,-50.3490561 20.4250539,-50.3379048 C19.9011361,-50.2497738 19.4901224,-49.8524051 19.2649078,-49.2886068 C19.462579,-50.525318 20.1563872,-51.4408008 20.9792457,-51.4408008 M24.3338393,-45.8723631 C24.8341315,-45.783153 26.0680037,-45.2857827 26.9692183,-44.9225872 C27.3856932,-44.7545988 27.7454192,-44.6095125 27.9985333,-44.5179042 C28.7957479,-44.241161 29.2115105,-43.8870784 29.2619671,-43.754822 C29.2429717,-43.669329 29.2026064,-43.6316785 28.7574009,-43.3977418 C28.5326612,-43.2796343 28.2528347,-43.1326295 27.9026064,-42.9171583 L27.6687251,-42.7739904 C26.7284511,-42.1980816 24.5267616,-40.8497379 23.9291178,-40.7708397 C23.5230904,-40.7156829 23.2719945,-40.8747983 22.707474,-41.2620949 C22.5800858,-41.3497462 22.4445059,-41.4426734 22.3000219,-41.53632 C21.2822228,-42.2110315 20.627474,-42.9534898 20.5536292,-43.2440222 C20.8854557,-43.5030193 21.707958,-44.1514713 22.129063,-44.5354105 C22.9838575,-45.3381816 23.8439945,-45.877639 24.2697297,-45.877639 C24.2922868,-45.8779987 24.3125881,-45.87644 24.3338393,-45.8723631 M28.3721498,-52.0078366 C29.6854466,-52.0078366 30.753821,-50.6341927 30.753821,-48.9460352 C30.753821,-48.2435056 30.5619671,-47.5732307 30.2301406,-47.040488 C30.3185881,-47.3250251 30.3664329,-47.6333036 30.3664329,-47.9528533 C30.3664329,-49.3647472 29.4795836,-50.4706408 28.347337,-50.4706408 C27.240853,-50.4706408 26.3405881,-49.3411257 26.3405881,-47.9528533 C26.3405881,-47.8581275 26.3452183,-47.7635216 26.3538849,-47.6687958 C26.2953553,-47.6913381 26.2382502,-47.7137606 26.1823324,-47.7351039 C26.055063,-48.1247986 25.9905973,-48.5309204 25.9905973,-48.9460352 C25.9905973,-50.6341927 27.058853,-52.0078366 28.3721498,-52.0078366 M50.3032091,-11.5876222 C48.5206064,-12.3248046 47.7580584,-13.3032381 47.8319032,-14.7634542 C47.9077662,-16.4675592 46.9506338,-17.7155415 46.4960493,-18.2085952 C46.7706521,-19.2682051 47.5732091,-22.9336136 46.4967616,-26.1175992 C45.3400584,-29.5253296 41.8084511,-34.7297324 38.1645333,-39.8458843 C36.6727982,-41.9468784 36.6022776,-44.230969 36.520716,-46.8753774 C36.4425973,-49.3977213 36.3545059,-52.2567615 34.9617845,-55.4351116 C33.4474922,-58.8958404 30.4090539,-60.8802858 26.6250447,-60.8802858 C24.3739671,-60.8802858 22.0632913,-60.1697224 20.2852,-58.9310928 C16.6440128,-56.3930411 17.1253096,-50.8594962 17.4437205,-47.1980446 C17.48741,-46.6967173 17.5284877,-46.2229685 17.5523507,-45.8186452 C17.7643872,-42.2326146 17.5714648,-40.3421755 17.3191817,-39.7677056 C17.1559397,-39.3923996 16.3524329,-38.3239167 15.5020311,-37.1927229 C14.6224237,-36.0226795 13.6254009,-34.6967582 12.8081224,-33.4611262 C11.8329443,-31.9741711 11.0457023,-29.7014716 10.2843416,-27.5035934 C9.72741918,-25.8956531 9.20124566,-24.3764433 8.68896256,-23.4681548 C7.71829589,-21.7218429 7.95977534,-20.0935186 8.16148311,-19.3408682 C7.79392146,-19.0829502 7.26299909,-18.5751481 6.81482557,-17.6181778 C6.27309954,-16.4507723 5.17397626,-15.8236636 2.88846941,-15.3796514 C1.83814064,-15.1627414 1.11393973,-14.7166908 0.735218265,-14.0540899 C0.184231963,-13.0896854 0.484359817,-11.8779147 0.758131507,-11.0497236 C1.16273425,-9.83255709 0.910569863,-9.06192082 0.452305023,-7.66285686 C0.346642922,-7.34018964 0.226852968,-6.97447614 0.105519635,-6.57135195 C-0.0856219178,-5.93501047 -0.0167634703,-5.35670352 0.309957991,-4.85189899 C1.17306301,-3.51926299 3.69185753,-3.04935113 6.28461553,-2.73999348 C7.8328621,-2.55437889 9.52725479,-1.92906877 11.1660858,-1.32414267 C12.7717936,-0.731446995 14.4321132,-0.1186071 15.9414192,0.0673672054 C16.170789,0.0965043791 16.3980219,0.111013013 16.617063,0.111013013 C18.8958027,0.111013013 19.9253553,-1.41587081 20.2518393,-2.04333925 C21.070305,-2.21204708 23.8933826,-2.7522239 26.8030082,-2.82488697 C29.7078849,-2.9084615 32.5186155,-2.3291953 33.3147616,-2.1492163 C33.5651452,-1.66527542 34.2249991,-0.560101229 35.27699,0.00957248239 C35.8551635,0.328762426 36.6596201,0.511858986 37.4836658,0.511858986 L37.4839032,0.511858986 C38.3639854,0.511858986 40.0383142,0.301663655 41.3634831,-1.10651316 C42.6852091,-2.5209251 45.9875653,-4.32719005 48.3990356,-5.64579704 C48.9372,-5.94004653 49.440579,-6.21547076 49.8819854,-6.46379621 C51.2365973,-7.22220207 51.9758758,-8.30567327 51.9098667,-9.43674718 C51.8548986,-10.3765709 51.2393279,-11.2006853 50.3032091,-11.5876222" id="Fill-13"></path>
            </g>
        </g>
    </g>
</svg>