<?xml version="1.0" encoding="UTF-8"?>
<svg width="140px" height="160px" viewBox="0 0 140 160" version="1.1" xmlns="http://www.w3.org/2000/svg" xmlns:xlink="http://www.w3.org/1999/xlink">
    <!-- Generator: Sketch 49.3 (51167) - http://www.bohemiancoding.com/sketch -->
    <title>lnx</title>
    <desc>Created with Sketch.</desc>
    <defs></defs>
    <g id="Symbols" stroke="none" stroke-width="1" fill="none" fill-rule="evenodd">
        <g id="Icons/products/lnx">
            <g id="lnx">
                <polygon id="Fill-1" fill="#F7F7F7" points="70.0002 -0.0002 0.0002 40.0078 0.0002 119.4188 70.0002 159.9998 140.0002 118.7888 140.0002 40.0078"></polygon>
                <polygon id="Fill-2" fill="#E8E8E8" points="127.3255 47.2481 70.0005 14.4841 12.6745 47.2481 12.6745 112.2811 70.0005 145.5161 127.3255 111.7671"></polygon>
                <g id="Group-13" transform="translate(22.000000, 28.000000)">
                    <path d="M75.9798,38.9668 C86.5298,38.9668 95.0828,30.4138 95.0828,19.8638 C95.0828,9.3148 86.5298,0.7618 75.9798,0.7618 C65.4298,0.7618 56.8768,9.3148 56.8768,19.8638 C56.8768,30.4138 65.4298,38.9668 75.9798,38.9668" id="Fill-3" fill="#FFC033"></path>
                    <path d="M83.5121,19.7959 L79.8741,16.6639 C78.7101,15.6709 78.5711,13.9219 79.5641,12.7579 C80.5571,11.5929 82.3051,11.4539 83.4701,12.4469 L89.3331,17.4769 C90.5431,18.5079 90.6391,20.3429 89.5431,21.4949 L83.8511,27.0819 C82.7971,28.1919 81.0431,28.2349 79.9341,27.1809 C78.8251,26.1259 78.7821,24.3719 79.8361,23.2639 L83.5121,19.7959 Z" id="Fill-5" fill="#D86600"></path>
                    <path d="M68.4476,19.9326 L72.0856,23.0646 C73.2506,24.0576 73.3886,25.8056 72.3956,26.9706 C71.4036,28.1346 69.6546,28.2736 68.4906,27.2816 L62.6266,22.2506 C61.4176,21.2196 61.3216,19.3846 62.4166,18.2336 L68.1086,12.6456 C69.1636,11.5366 70.9176,11.4936 72.0256,12.5476 C73.1346,13.6026 73.1776,15.3556 72.1236,16.4646 L68.4476,19.9326 Z" id="Fill-7" fill="#D86600"></path>
                    <path d="M77.9808,55.3291 L56.8018,40.7271 C55.8808,40.0931 54.9188,39.5681 53.9388,39.1021 C59.3748,42.9951 62.3538,49.0761 62.5208,55.3221 L73.0018,62.5481 C78.3768,66.2541 79.7348,73.6411 76.0308,79.0161 C72.3248,84.3911 64.9368,85.7481 59.5638,82.0441 L49.4088,75.0431 L38.3838,67.4421 C38.1158,67.2571 37.8638,67.0561 37.6158,66.8521 C32.8938,62.9961 31.8358,56.0801 35.3568,50.9751 C37.6508,47.6471 41.3548,45.8601 45.1208,45.8601 C46.5658,45.8601 48.0208,46.1241 49.4078,46.6651 C49.1678,46.4701 48.9268,46.2761 48.6688,46.0981 L37.6398,38.4951 C33.9158,39.9361 30.5698,42.4681 28.1368,45.9961 C25.5678,49.7241 24.4178,54.0061 24.5318,58.2181 C24.6998,64.4931 27.7038,70.6041 33.1868,74.4941 C33.2618,74.5481 33.3298,74.6091 33.4058,74.6621 L54.5848,89.2641 C58.1498,91.7211 62.2198,92.8981 66.2528,92.8981 C72.8068,92.8981 79.2578,89.7851 83.2508,83.9941 C89.6998,74.6391 87.3358,61.7791 77.9808,55.3291" id="Fill-9" fill="#4A3777"></path>
                    <path d="M53.9388,39.1026 C53.8378,39.0306 53.7498,38.9486 53.6468,38.8776 L32.4678,24.2776 C23.1098,17.8276 10.2508,20.1906 3.8028,29.5456 C-2.6472,38.9026 -0.2842,51.7606 9.0718,58.2106 L30.2518,72.8126 C31.1968,73.4646 32.1798,74.0206 33.1868,74.4946 C27.7038,70.6046 24.6998,64.4936 24.5318,58.2176 L14.0498,50.9926 C8.6758,47.2856 7.3168,39.8986 11.0228,34.5246 C13.3168,31.1966 17.0208,29.4096 20.7868,29.4096 C23.1028,29.4096 25.4438,30.0856 27.4898,31.4976 L37.6398,38.4956 L48.6678,46.0976 C48.9268,46.2766 49.1678,46.4696 49.4078,46.6646 C54.1538,50.5176 55.2228,57.4496 51.6968,62.5656 C48.5138,67.1806 42.6208,68.8226 37.6158,66.8526 C37.8638,67.0556 38.1158,67.2566 38.3838,67.4426 L49.4088,75.0426 C53.1338,73.6016 56.4828,71.0736 58.9168,67.5426 C61.4858,63.8166 62.6338,59.5356 62.5208,55.3226 C62.3538,49.0766 59.3748,42.9956 53.9388,39.1026" id="Fill-11" fill="#39B54A"></path>
                </g>
            </g>
        </g>
    </g>
</svg>