<svg xmlns="http://www.w3.org/2000/svg" width="202" height="46" viewBox="0 0 202 46">
    <g fill="#FFF" fill-rule="evenodd">
        <path d="M16.674 28.531c2.906-.005 5.812 0 8.718-.002 2.325.001 4.65-.001 6.975.001.292.28.58.565.87.85.747.74 1.505 1.468 2.252 2.208.307.31.63.606.933.92l.016.027H16.68c-.014-.662-.002-1.326-.006-1.99v-2.014zm0-7.53c2.579-.009 5.159 0 7.738-.004.043.002.09-.01.13.01.672.615 1.336 1.238 2.008 1.855.673.628 1.355 1.249 2.027 1.88l.02.035c-3.937.008-7.874 0-11.81.004-.043-.003-.126.014-.112-.055-.001-1.242.002-2.483-.002-3.725zM13.32 0h.007c.162.225.301.465.454.696.755 1.18 1.516 2.358 2.267 3.54l.042.082c-3.505 6.223-7 12.451-10.503 18.675 2.467 4.267 4.936 8.532 7.404 12.798 1.033 1.783 2.062 3.569 3.098 5.35 7.011-.003 14.022 0 21.033 0l.095-.018c.016.027.033.054.052.082.896 1.565 1.78 3.137 2.67 4.705a.541.541 0 0 0 .061.068l-.011.022H13.331L0 22.994C2.988 17.844 5.97 12.69 8.957 7.54c.824-1.427 1.657-2.85 2.475-4.28.63-1.087 1.26-2.173 1.888-3.26z"/>
        <path d="M16.344 12.936c5.869-.003 11.737.001 17.605-.001l2.166.002c-.003 5.777 0 11.553-.001 17.33-.003.752.006 1.504-.005 2.256-.303-.314-.626-.61-.934-.92-.747-.74-1.505-1.47-2.253-2.21-.289-.284-.578-.569-.87-.85-.005-3.779 0-7.558-.003-11.337h-3.788c0 2.516.004 5.032-.002 7.547-.672-.63-1.354-1.252-2.028-1.88-.672-.617-1.337-1.24-2.01-1.856-.033-.023-.025-.067-.027-.101.002-1.237 0-2.473.001-3.71h-7.85v-4.27zM13 0h26.668c2.165 3.725 4.321 7.454 6.483 11.18l6.46 11.148c.13.222.256.446.389.666v.033L41.667 42.582c-.658 1.14-1.323 2.276-1.978 3.418a.541.541 0 0 1-.06-.068c-.892-1.569-1.776-3.142-2.673-4.708a1.293 1.293 0 0 1-.029-.087c1.06-1.831 2.108-3.669 3.163-5.502 2.467-4.3 4.937-8.596 7.403-12.896-3.527-6.14-7.053-12.281-10.579-18.423-7.048-.002-14.096 0-21.144 0a4.646 4.646 0 0 1-.048-.078c-.75-1.183-1.512-2.36-2.267-3.542C13.3.466 13.162.225 13 0zM74 11v1.301H63.358v9.548H74v1.301H63.358v9.548H74V34H62V11h12zm23 0v23h-1.275V12.399l-8.717 11.663-8.733-11.663V34H77V11h1.849l8.159 10.898L95.151 11H97zm15 0v1.301h-10.642v9.548H112v1.301h-10.642v9.548H112V34h-12V11h12zm67 23V11h1v23h-1zm6.622-23l15.094 21.422V11H202v23h-1.975l-14.74-20.918V34H184V11h1.622zm-69.226 1.646V24.7h3.863c1.685 0 3.128-.588 4.33-1.764 1.202-1.175 1.803-2.602 1.803-4.278 0-1.666-.6-3.085-1.803-4.255-1.202-1.17-2.645-1.756-4.33-1.756h-3.863zm4.25 13.334h-4.25v7.751h-1.288V11.365h5.972c1.739.232 3.214.944 4.427 2.135 1.449 1.435 2.173 3.153 2.173 5.157 0 2.024-.724 3.749-2.173 5.172-1.009.992-2.162 1.64-3.461 1.946l5.248 7.956h-1.578l-5.07-7.75zm27.8 4.192l.981.854c-2.221 1.983-4.834 2.974-7.84 2.974-3.23 0-5.979-1.115-8.249-3.346-2.27-2.23-3.404-4.932-3.404-8.106 0-3.153 1.134-5.85 3.404-8.09 2.27-2.242 5.02-3.362 8.25-3.362 3.005 0 5.618.997 7.84 2.99l-.983.854c-1.953-1.698-4.239-2.547-6.857-2.547-2.855 0-5.293.992-7.316 2.974-2.023 1.982-3.034 4.376-3.034 7.18 0 2.816 1.01 5.216 3.034 7.198 2.023 1.983 4.461 2.974 7.316 2.974 2.618 0 4.904-.85 6.857-2.547zm14.648-17.842c-2.855 0-5.296.996-7.324 2.99-2.028 1.992-3.043 4.391-3.043 7.196 0 2.816 1.015 5.22 3.043 7.213 2.028 1.993 4.47 2.99 7.324 2.99 2.865 0 5.312-.997 7.34-2.99 2.029-1.993 3.043-4.397 3.043-7.213 0-2.805-1.014-5.204-3.043-7.197-2.028-1.993-4.475-2.99-7.34-2.99zm8.266 2.08c2.28 2.24 3.42 4.943 3.42 8.106 0 3.175-1.14 5.882-3.42 8.123-2.28 2.24-5.036 3.361-8.266 3.361-3.22 0-5.97-1.12-8.25-3.361-2.28-2.241-3.42-4.948-3.42-8.123 0-3.163 1.14-5.865 3.42-8.106 2.28-2.24 5.03-3.361 8.25-3.361 3.23 0 5.985 1.12 8.266 3.36z"/>
    </g>
</svg>
