<?xml version="1.0" encoding="utf-8"?>
<!-- Generator: Adobe Illustrator 22.0.1, SVG Export Plug-In . SVG Version: 6.00 Build 0)  -->
<svg version="1.1" id="Layer_1" xmlns="http://www.w3.org/2000/svg" xmlns:xlink="http://www.w3.org/1999/xlink" x="0px" y="0px"
	 viewBox="0 0 71 31" style="enable-background:new 0 0 71 31;" xml:space="preserve">
<style type="text/css">
	.st0{filter:url(#Adobe_OpacityMaskFilter);}
	.st1{fill:#FFFFFF;}
	.st2{mask:url(#mask-2_6_);fill:#FF5F00;}
	.st3{filter:url(#Adobe_OpacityMaskFilter_1_);}
	.st4{mask:url(#mask-2_5_);fill:#EB001B;}
	.st5{filter:url(#Adobe_OpacityMaskFilter_2_);}
	.st6{mask:url(#mask-2_4_);fill:#F79E1B;}
</style>
<g id="Desctop">
	<g id="Benefits" transform="translate(-924.000000, -3699.000000)">
		<g id="_x32_-step" transform="translate(0.000000, 2594.000000)">
			<g id="Buy-emercoin" transform="translate(345.000000, 917.000000)">
				<g id="Card" transform="translate(478.000000, 185.000000)">
					<g id="Mastercard" transform="translate(81.000000, 0.000000)">
						<g id="Page-1" transform="translate(20.000000, 3.000000)">
							<path id="Fill-1" d="M25.8,26.5c0-0.5,0.3-0.9,0.8-0.9c0.5,0,0.8,0.4,0.8,0.9c0,0.5-0.3,0.9-0.8,0.9
								C26.1,27.4,25.8,27,25.8,26.5z M28,26.5v-1.4h-0.6v0.4c-0.2-0.3-0.5-0.4-0.8-0.4c-0.7,0-1.3,0.6-1.3,1.5s0.6,1.5,1.3,1.5
								c0.4,0,0.7-0.1,0.8-0.4v0.4H28V26.5z M47.4,26.5c0-0.5,0.3-0.9,0.8-0.9c0.5,0,0.8,0.4,0.8,0.9c0,0.5-0.3,0.9-0.8,0.9
								C47.7,27.4,47.4,27,47.4,26.5z M49.5,26.5V24h-0.6v1.5c-0.2-0.3-0.5-0.4-0.8-0.4c-0.7,0-1.3,0.6-1.3,1.5s0.6,1.5,1.3,1.5
								c0.4,0,0.7-0.1,0.8-0.4v0.4h0.6V26.5z M35.1,25.6c0.4,0,0.6,0.2,0.7,0.7h-1.4C34.4,25.9,34.7,25.6,35.1,25.6z M35.1,25.1
								c-0.8,0-1.3,0.6-1.3,1.5c0,0.9,0.6,1.5,1.4,1.5c0.4,0,0.8-0.1,1.1-0.4l-0.3-0.4c-0.2,0.2-0.5,0.3-0.8,0.3
								c-0.4,0-0.7-0.2-0.8-0.7h2v-0.2C36.4,25.6,35.9,25.1,35.1,25.1z M42,26.5c0-0.5,0.3-0.9,0.8-0.9c0.5,0,0.8,0.4,0.8,0.9
								c0,0.5-0.3,0.9-0.8,0.9C42.3,27.4,42,27,42,26.5z M44.2,26.5v-1.4h-0.6v0.4c-0.2-0.3-0.5-0.4-0.8-0.4c-0.7,0-1.3,0.6-1.3,1.5
								S42,28,42.8,28c0.4,0,0.7-0.1,0.8-0.4v0.4h0.6V26.5z M38.8,26.5c0,0.9,0.6,1.5,1.4,1.5c0.4,0,0.7-0.1,0.9-0.3l-0.3-0.5
								c-0.2,0.2-0.4,0.3-0.7,0.3c-0.5,0-0.8-0.4-0.8-0.9c0-0.5,0.3-0.9,0.8-0.9c0.2,0,0.5,0.1,0.7,0.3l0.3-0.5
								c-0.3-0.2-0.6-0.3-0.9-0.3C39.4,25.1,38.8,25.7,38.8,26.5z M46.2,25.1c-0.3,0-0.6,0.2-0.7,0.4v-0.4h-0.6v2.8h0.6v-1.6
								c0-0.5,0.2-0.7,0.6-0.7c0.1,0,0.2,0,0.4,0.1l0.2-0.6C46.5,25.1,46.3,25.1,46.2,25.1z M30.8,25.4c-0.3-0.2-0.7-0.3-1.1-0.3
								c-0.7,0-1.1,0.4-1.1,0.9c0,0.5,0.3,0.7,0.9,0.8l0.3,0c0.3,0.1,0.5,0.1,0.5,0.3c0,0.2-0.2,0.4-0.6,0.4c-0.4,0-0.7-0.1-0.9-0.3
								l-0.3,0.5c0.3,0.2,0.7,0.4,1.1,0.4c0.8,0,1.2-0.4,1.2-0.9c0-0.5-0.4-0.8-0.9-0.9l-0.3,0c-0.2,0-0.4-0.1-0.4-0.3
								c0-0.2,0.2-0.3,0.5-0.3c0.3,0,0.7,0.1,0.8,0.2L30.8,25.4z M38.2,25.1c-0.3,0-0.6,0.2-0.7,0.4v-0.4H37v2.8h0.6v-1.6
								c0-0.5,0.2-0.7,0.6-0.7c0.1,0,0.2,0,0.4,0.1l0.2-0.6C38.5,25.1,38.3,25.1,38.2,25.1z M33.3,25.1h-0.9v-0.9h-0.6v0.9h-0.5v0.6
								h0.5V27c0,0.6,0.2,1,0.9,1c0.2,0,0.5-0.1,0.7-0.2l-0.2-0.5c-0.2,0.1-0.4,0.1-0.5,0.1c-0.3,0-0.4-0.2-0.4-0.5v-1.3h0.9V25.1z
								 M24.7,27.9v-1.8c0-0.7-0.4-1.1-1-1.1c-0.3,0-0.7,0.1-0.9,0.5c-0.2-0.3-0.5-0.5-0.9-0.5c-0.3,0-0.6,0.1-0.8,0.4v-0.4h-0.6
								v2.8h0.6v-1.6c0-0.5,0.2-0.7,0.6-0.7c0.4,0,0.6,0.3,0.6,0.7v1.6h0.6v-1.6c0-0.5,0.3-0.7,0.6-0.7c0.4,0,0.6,0.3,0.6,0.7v1.6
								H24.7z"/>
							<g id="Clip-4">
							</g>
							<defs>
								<filter id="Adobe_OpacityMaskFilter" filterUnits="userSpaceOnUse" x="30.5" y="5" width="9" height="16">
									<feColorMatrix  type="matrix" values="1 0 0 0 0  0 1 0 0 0  0 0 1 0 0  0 0 0 1 0"/>
								</filter>
							</defs>
							<mask maskUnits="userSpaceOnUse" x="30.5" y="5" width="9" height="16" id="mask-2_6_">
								<g class="st0">
									<polygon id="path-1_6_" class="st1" points="18.5,29 52.5,29 52.5,3 18.5,3 									"/>
								</g>
							</mask>
							<polygon id="Fill-3" class="st2" points="30.5,21 39.5,21 39.5,5 30.5,5 							"/>
							<defs>
								<filter id="Adobe_OpacityMaskFilter_1_" filterUnits="userSpaceOnUse" x="18.5" y="3" width="17" height="20">
									<feColorMatrix  type="matrix" values="1 0 0 0 0  0 1 0 0 0  0 0 1 0 0  0 0 0 1 0"/>
								</filter>
							</defs>
							<mask maskUnits="userSpaceOnUse" x="18.5" y="3" width="17" height="20" id="mask-2_5_">
								<g class="st3">
									<polygon id="path-1_5_" class="st1" points="18.5,29 52.5,29 52.5,3 18.5,3 									"/>
								</g>
							</mask>
							<path id="Fill-5" class="st4" d="M31.5,13c0-3.2,1.6-6,4-7.9C33.7,3.8,31.5,3,29,3c-5.8,0-10.5,4.5-10.5,10S23.2,23,29,23
								c2.5,0,4.7-0.8,6.5-2.1C33.1,19.1,31.5,16.2,31.5,13"/>
							<defs>
								<filter id="Adobe_OpacityMaskFilter_2_" filterUnits="userSpaceOnUse" x="35.5" y="3" width="17" height="20">
									<feColorMatrix  type="matrix" values="1 0 0 0 0  0 1 0 0 0  0 0 1 0 0  0 0 0 1 0"/>
								</filter>
							</defs>
							<mask maskUnits="userSpaceOnUse" x="35.5" y="3" width="17" height="20" id="mask-2_4_">
								<g class="st5">
									<polygon id="path-1_4_" class="st1" points="18.5,29 52.5,29 52.5,3 18.5,3 									"/>
								</g>
							</mask>
							<path id="Fill-6" class="st6" d="M52.5,13c0,5.5-4.7,10-10.5,10c-2.5,0-4.7-0.8-6.5-2.1c2.5-1.8,4-4.7,4-7.9s-1.6-6-4-7.9
								C37.3,3.8,39.5,3,42,3C47.8,3,52.5,7.5,52.5,13"/>
						</g>
					</g>
				</g>
			</g>
		</g>
	</g>
</g>
</svg>
