<svg xmlns="http://www.w3.org/2000/svg" width="34" height="34" viewBox="0 0 34 34">
    <g fill="none" fill-rule="evenodd">
        <path fill="#FFF" d="M0 17C0 7.611 7.611 0 17 0s17 7.611 17 17-7.611 17-17 17S0 26.389 0 17z"/>
        <path fill="#84FFBB" d="M19.99 9.65c-.086-.043-.157 0-.157.098V21.7l5.196 2.616c.26.13.471-.001.471-.293V12.518a.151.151 0 0 0-.083-.135L19.99 9.65"/>
        <path fill="#32FE92" d="M14.167 18.72l5.601-8.997a.198.198 0 0 1 .25-.07l5.411 2.673a.126.126 0 0 1 .052.18l-5.62 9.027-5.694-2.814"/>
        <path fill="#2EE985" d="M8.868 9.71c-.354-.173-.474-.044-.266.287l5.427 8.68 5.804 2.856-5.766-9.222a.25.25 0 0 0-.102-.092L8.868 9.711"/>
        <path fill="#00D586" d="M14.167 24.022c0 .293-.212.425-.471.294l-4.882-2.469a.631.631 0 0 1-.314-.514V9.863c0-.195.141-.283.314-.196l5.283 2.672c.043.022.07.066.07.114v11.569"/>
    </g>
</svg>
