<?xml version="1.0" encoding="UTF-8"?>
<svg width="140px" height="160px" viewBox="0 0 140 160" version="1.1" xmlns="http://www.w3.org/2000/svg" xmlns:xlink="http://www.w3.org/1999/xlink">
    <!-- Generator: Sketch 49.3 (51167) - http://www.bohemiancoding.com/sketch -->
    <title>merged-mining</title>
    <desc>Created with Sketch.</desc>
    <defs></defs>
    <g id="Desctop" stroke="none" stroke-width="1" fill="none" fill-rule="evenodd">
        <g id="Benefits" transform="translate(-1209.000000, -636.000000)">
            <g id="Icons" transform="translate(345.000000, 636.000000)">
                <g id="Icons/big/merged-mining" transform="translate(864.000000, 0.000000)">
                    <g id="Group-22">
                        <polygon id="Fill-1" fill="#F7F7F7" points="70.0002 -0.0002 0.0002 40.0078 0.0002 119.4188 70.0002 159.9998 139.9992 118.7898 139.9992 40.0078"></polygon>
                        <polygon id="Fill-2" fill="#E8E8E8" points="127.3261 47.2488 70.0001 14.4848 12.6741 47.2488 12.6741 112.2818 70.0001 145.5158 127.3261 111.7668"></polygon>
                        <g id="Group-21" transform="translate(20.000000, 20.000000)">
                            <path d="M63.6122,48.8122 C75.7622,48.8122 85.6132,58.6632 85.6132,70.8132 C85.6132,82.9642 75.7622,92.8142 63.6122,92.8142 C51.4622,92.8142 41.6112,82.9642 41.6112,70.8132 C41.6112,58.6632 51.4622,48.8122 63.6122,48.8122" id="Fill-3" fill="#FFC033"></path>
                            <polygon id="Fill-5" fill="#D86600" points="52.6113 64.8513 61.0903 64.8513 61.0903 68.8273 52.6113 68.8273 52.6113 73.5963 65.8643 73.5963 65.8643 64.8513 69.8403 64.8513 69.8403 77.0413 52.6113 77.0413 52.6113 81.8143 74.6123 81.8143 74.6123 59.8133 52.6113 59.8133"></polygon>
                            <path d="M95.8124,74.2126 C100.4524,74.2126 104.2124,77.9736 104.2124,82.6126 C104.2124,87.2516 100.4524,91.0136 95.8124,91.0136 C91.1734,91.0136 87.4134,87.2516 87.4134,82.6126 C87.4134,77.9736 91.1734,74.2126 95.8124,74.2126" id="Fill-7" fill="#4A3777"></path>
                            <path d="M33.0107,71.2126 C35.6617,71.2126 37.8117,73.3616 37.8117,76.0136 C37.8117,78.6636 35.6617,80.8136 33.0107,80.8136 C30.3607,80.8136 28.2107,78.6636 28.2107,76.0136 C28.2107,73.3616 30.3607,71.2126 33.0107,71.2126" id="Fill-9" fill="#4A3777"></path>
                            <path d="M93.8134,50.8122 C96.4634,50.8122 98.6134,52.9602 98.6134,55.6122 C98.6134,58.2632 96.4634,60.4122 93.8134,60.4122 C91.1624,60.4122 89.0124,58.2632 89.0124,55.6122 C89.0124,52.9602 91.1624,50.8122 93.8134,50.8122" id="Fill-11" fill="#4A3777"></path>
                            <path d="M50.6611,15.155 L2.0011,77.158 C-0.0809,79.81 1.1561,80.964 2.7911,82.247 L3.2851,82.634 C4.9201,83.918 6.3351,84.846 8.4171,82.193 L57.0781,20.191 C59.1601,17.538 57.9141,16.394 56.2781,15.111 L55.7851,14.723 C54.1501,13.441 52.7431,12.502 50.6611,15.155" id="Fill-13" fill="#FFC033"></path>
                            <path d="M50.6611,15.155 L2.0011,77.158 C-0.0809,79.81 1.1561,80.964 2.7911,82.247 L55.7851,14.723 C54.1501,13.441 52.7431,12.502 50.6611,15.155" id="Fill-15" fill="#F9A510"></path>
                            <path d="M18.3798,8.7146 C19.3228,7.9776 45.1298,20.4396 45.1298,20.4396 L42.0628,23.9956 L50.4988,30.6166 L53.4838,26.9956 C53.4838,26.9956 66.5348,37.6796 75.8128,43.6936 L76.9458,42.5016 L77.5878,41.8236 C70.5638,33.8106 42.5418,4.0476 25.0758,0.1836 C25.0758,0.1836 24.5268,0.8546 23.7418,1.8136 C21.5998,4.4306 17.7038,9.2536 18.3798,8.7146" id="Fill-17" fill="#383838"></path>
                            <path d="M23.7421,1.8132 C30.6361,6.1442 59.1551,24.4592 76.9461,42.5012 L77.5881,41.8242 C70.5631,33.8102 42.5421,4.0472 25.0761,0.1832 C25.0761,0.1832 24.5271,0.8542 23.7421,1.8132" id="Fill-19" fill="#A8A8A8"></path>
                        </g>
                    </g>
                </g>
            </g>
        </g>
    </g>
</svg>