<?xml version="1.0" encoding="UTF-8"?>
<svg width="49px" height="39px" viewBox="0 0 49 39" version="1.1" xmlns="http://www.w3.org/2000/svg" xmlns:xlink="http://www.w3.org/1999/xlink">
    <!-- Generator: Sketch 49.3 (51167) - http://www.bohemiancoding.com/sketch -->
    <title>mobile-wallets</title>
    <desc>Created with Sketch.</desc>
    <defs>
        <linearGradient x1="1.50669643%" y1="98.4933036%" x2="98.6180786%" y2="1.38192135%" id="linearGradient-1">
            <stop stop-color="#B299D1" offset="0%"></stop>
            <stop stop-color="#D5B1E4" offset="100%"></stop>
        </linearGradient>
    </defs>
    <g id="Desctop" stroke="none" stroke-width="1" fill="none" fill-rule="evenodd">
        <g id="Benefits" transform="translate(-807.000000, -1845.000000)">
            <g id="1-step" transform="translate(0.000000, 1689.000000)">
                <g id="Group-9" transform="translate(314.000000, 133.000000)">
                    <g id="Group-8" transform="translate(493.000000, 23.000000)">
                        <g id="mobile-wallets">
                            <path d="M26.3385093,16 L44.0273982,16 C45.6842524,16 47.0273982,17.3431458 47.0273982,19 L47.0273982,35.4390244 C47.0273982,37.0958786 45.6842524,38.4390244 44.0273982,38.4390244 L26.1333333,38.4390244 C26.2659919,38.1125628 26.3385093,37.7591807 26.3385093,37.3902439 L26.3385093,16 Z" id="Combined-Shape" fill="url(#linearGradient-1)"></path>
                            <path d="M39.3461809,22 L47,22 C48.1045695,22 49,22.8954305 49,24 L49,30 C49,31.1045695 48.1045695,32 47,32 L39.2844852,32 C38.6414715,32 38.0376737,31.6908364 37.6617908,31.1691291 L34.8444444,27.2587891 L37.668968,22.9105246 C38.0378445,22.3426508 38.6690173,22 39.3461809,22 Z" id="Rectangle" fill="#7B6696"></path>
                            <ellipse id="Oval-3" fill="#FFFFFF" cx="40.2888889" cy="26.9512195" rx="2.17777778" ry="1.95121951"></ellipse>
                            <path d="M1.08888889,0 C0.487512161,0 0,0.47258832 0,1.05555556 L0,36.9444444 C0,37.5274117 0.487512161,38 1.08888889,38 L22.8666667,38 C23.4680434,38 23.9555556,37.5274117 23.9555556,36.9444444 L23.9555556,1.05555556 C23.9555556,0.47258832 23.4680434,0 22.8666667,0 L1.08888889,0 Z" id="Path" fill="url(#linearGradient-1)"></path>
                            <rect id="Rectangle-6" fill="#7B6696" x="2.17777778" y="5" width="19.6" height="28.3170732"></rect>
                            <rect id="Rectangle-7" fill="#7B6696" x="8.71111111" y="2" width="6.53333333" height="1"></rect>
                            <ellipse id="Oval" fill="#7B6696" cx="11.4333333" cy="36.4634146" rx="1.63333333" ry="1.46341463"></ellipse>
                        </g>
                    </g>
                </g>
            </g>
        </g>
    </g>
</svg>