<?xml version="1.0" encoding="UTF-8"?>
<svg width="140px" height="160px" viewBox="0 0 140 160" version="1.1" xmlns="http://www.w3.org/2000/svg" xmlns:xlink="http://www.w3.org/1999/xlink">
    <!-- Generator: Sketch 49.3 (51167) - http://www.bohemiancoding.com/sketch -->
    <title>nvs</title>
    <desc>Created with Sketch.</desc>
    <defs>
        <polygon id="path-1" points="0 160 140 160 140 0 0 0"></polygon>
    </defs>
    <g id="Symbols" stroke="none" stroke-width="1" fill="none" fill-rule="evenodd">
        <g id="Icons/products/nvs">
            <g id="nvs">
                <polygon id="Fill-1" fill="#F7F7F7" points="69.9993 -0.0002 0.0003 40.0078 0.0003 119.4188 69.9993 159.9998 139.9993 118.7888 139.9993 40.0078"></polygon>
                <polygon id="Fill-2" fill="#E8E8E8" points="127.3257 47.2482 69.9997 14.4842 12.6747 47.2482 12.6747 112.2812 69.9997 145.5162 127.3257 111.7672"></polygon>
                <polygon id="Fill-3" fill="#FFD833" points="30.1929 55.1134 28.5809 57.2224 45.1129 69.8624 46.7249 67.7534"></polygon>
                <g id="Group-26">
                    <path d="M29.1783,50.5665 C27.4313,49.2305 24.9313,49.5635 23.5953,51.3115 C22.2593,53.0585 22.5923,55.5585 24.3403,56.8945 C26.0873,58.2315 28.5873,57.8975 29.9233,56.1495 C31.2603,54.4025 30.9263,51.9025 29.1783,50.5665" id="Fill-4" fill="#6C578B"></path>
                    <polygon id="Fill-6" fill="#FFD833" points="29.0542 106.2198 27.6522 103.9648 45.3232 92.9748 46.7252 95.2298"></polygon>
                    <path d="M27.7828,112.6105 C24.8418,114.4395 20.9748,113.5385 19.1458,110.5965 C17.3168,107.6565 18.2188,103.7895 21.1588,101.9605 C24.0998,100.1315 27.9678,101.0325 29.7968,103.9735 C31.6258,106.9145 30.7238,110.7815 27.7828,112.6105" id="Fill-8" fill="#6C578B"></path>
                    <polygon id="Fill-10" fill="#FFD833" points="110.9624 54.7306 112.4124 56.9556 94.9814 68.3226 93.5304 66.0976"></polygon>
                    <path d="M111.2369,51.3946 C113.0799,50.1926 115.5479,50.7116 116.7499,52.5546 C117.9509,54.3976 117.4309,56.8656 115.5889,58.0676 C113.7459,59.2686 111.2779,58.7486 110.0769,56.9066 C108.8749,55.0636 109.3949,52.5956 111.2369,51.3946" id="Fill-12" fill="#6C578B"></path>
                    <mask id="mask-2" fill="white">
                        <use xlink:href="#path-1"></use>
                    </mask>
                    <g id="Clip-15"></g>
                    <polygon id="Fill-14" fill="#FFD833" mask="url(#mask-2)" points="69.056 55.876 71.712 55.876 71.712 35.066 69.056 35.066"></polygon>
                    <polygon id="Fill-16" fill="#FFC033" mask="url(#mask-2)" points="102.2281 63.2696 70.2621 44.7596 38.2951 63.2696 38.2951 100.0106 70.2621 118.7876 102.2281 99.7196"></polygon>
                    <polygon id="Fill-17" fill="#FFC033" mask="url(#mask-2)" points="68.934 128.575 71.59 128.575 71.59 110.42 68.934 110.42"></polygon>
                    <path d="M74.0982,130.8947 C74.0982,133.0937 72.3152,134.8777 70.1162,134.8777 C67.9152,134.8777 66.1322,133.0937 66.1322,130.8947 C66.1322,128.6947 67.9152,126.9117 70.1162,126.9117 C72.3152,126.9117 74.0982,128.6947 74.0982,130.8947" id="Fill-18" fill="#6C578B" mask="url(#mask-2)"></path>
                    <polygon id="Fill-19" fill="#FFC033" mask="url(#mask-2)" points="110.397 107.2853 112.01 105.1763 95.478 92.5363 93.865 94.6463"></polygon>
                    <polygon id="Fill-20" fill="#FFD833" mask="url(#mask-2)" points="102.2281 63.2696 70.2621 44.7596 38.2951 63.2696 38.2951 100.0106"></polygon>
                    <path d="M53.7466,88.4923 L53.7466,75.7373 L57.1156,75.7373 L59.7656,80.4113 C60.5226,81.7553 61.2786,83.3443 61.8476,84.7833 L61.9036,84.7833 C61.7146,83.0983 61.6576,81.3773 61.6576,79.4653 L61.6576,75.7373 L64.3086,75.7373 L64.3086,88.4923 L61.2786,88.4923 L58.5546,83.5723 C57.7976,82.2103 56.9656,80.5623 56.3406,79.0673 L56.2836,79.0873 C56.3586,80.7693 56.3966,82.5683 56.3966,84.6513 L56.3966,88.4923 L53.7466,88.4923 Z" id="Fill-21" fill="#4A3777" mask="url(#mask-2)"></path>
                    <path d="M69.8208,88.4923 L65.7328,75.7373 L68.8938,75.7373 L70.4448,81.1313 C70.8808,82.6433 71.2778,84.1023 71.5818,85.6913 L71.6378,85.6913 C71.9598,84.1583 72.3568,82.6433 72.7928,81.1863 L74.4198,75.7373 L77.4858,75.7373 L73.1898,88.4923 L69.8208,88.4923 Z" id="Fill-22" fill="#4A3777" mask="url(#mask-2)"></path>
                    <path d="M78.7974,85.5206 C79.5724,85.9176 80.7654,86.3156 81.9944,86.3156 C83.3194,86.3156 84.0204,85.7666 84.0204,84.9336 C84.0204,84.1386 83.4144,83.6856 81.8814,83.1366 C79.7624,82.3976 78.3804,81.2246 78.3804,79.3716 C78.3804,77.1946 80.1974,75.5286 83.2054,75.5286 C84.6454,75.5286 85.7044,75.8316 86.4614,76.1726 L85.8184,78.4996 C85.3074,78.2536 84.3994,77.8946 83.1494,77.8946 C81.9014,77.8946 81.2954,78.4626 81.2954,79.1246 C81.2954,79.9386 82.0144,80.2976 83.6604,80.9216 C85.9124,81.7546 86.9734,82.9276 86.9734,84.7256 C86.9734,86.8646 85.3254,88.6816 81.8244,88.6816 C80.3684,88.6816 78.9294,88.3016 78.2104,87.9046 L78.7974,85.5206 Z" id="Fill-23" fill="#4A3777" mask="url(#mask-2)"></path>
                    <path d="M117.7544,112.7159 C114.8134,114.5449 110.9464,113.6439 109.1174,110.7019 C107.2884,107.7619 108.1904,103.8949 111.1304,102.0659 C114.0714,100.2369 117.9394,101.1379 119.7684,104.0789 C121.5974,107.0199 120.6954,110.8869 117.7544,112.7159" id="Fill-24" fill="#6C578B" mask="url(#mask-2)"></path>
                    <path d="M73.3121,33.9659 C70.3711,35.7949 66.5031,34.8939 64.6741,31.9519 C62.8451,29.0119 63.7471,25.1449 66.6881,23.3159 C69.6291,21.4869 73.4961,22.3879 75.3251,25.3289 C77.1541,28.2699 76.2521,32.1369 73.3121,33.9659" id="Fill-25" fill="#6C578B" mask="url(#mask-2)"></path>
                </g>
            </g>
        </g>
    </g>
</svg>