<?xml version="1.0" encoding="utf-8"?>
<!-- Generator: Adobe Illustrator 22.0.1, SVG Export Plug-In . SVG Version: 6.00 Build 0)  -->
<svg version="1.1" id="Layer_1" xmlns="http://www.w3.org/2000/svg" xmlns:xlink="http://www.w3.org/1999/xlink" x="0px" y="0px"
	 viewBox="0 0 80 70" style="enable-background:new 0 0 80 70;" xml:space="preserve">
<style type="text/css">
	.st0{fill:#078A7D;}
</style>
<g id="Benefits-m" transform="translate(-144.000000, -1263.000000)">
	<g id="Group-9" transform="translate(0.000000, 902.000000)">
		<g id="Group-11" transform="translate(10.000000, 344.000000)">
			<g id="one" transform="translate(134.000000, 17.000000)">
				<path id="Fill-1" class="st0" d="M25.2,43.4c4.4,0,8.7,0,13.1,0c3.5,0,7,0,10.5,0c0.4,0.4,0.9,0.9,1.3,1.3
					c1.1,1.1,2.3,2.2,3.4,3.4c0.5,0.5,0.9,0.9,1.4,1.4c0,0,0,0,0,0c-9.9,0-19.8,0-29.7,0c0-1,0-2,0-3C25.2,45.5,25.2,44.4,25.2,43.4
					z M25.2,32c3.9,0,7.8,0,11.6,0c0.1,0,0.1,0,0.2,0c1,0.9,2,1.9,3,2.8c1,1,2,1.9,3,2.9c0,0,0,0,0,0.1c-5.9,0-11.8,0-17.8,0
					c-0.1,0-0.2,0-0.2-0.1C25.2,35.7,25.2,33.8,25.2,32z M20.2,0L20.2,0c0.3,0.3,0.5,0.7,0.7,1.1c1.1,1.8,2.3,3.6,3.4,5.4
					c0,0,0,0.1,0.1,0.1C19.1,16,13.8,25.5,8.6,35c3.7,6.5,7.4,13,11.1,19.5c1.6,2.7,3.1,5.4,4.7,8.1c10.5,0,21.1,0,31.6,0
					c0,0,0.1,0,0.1,0c0,0,0.1,0.1,0.1,0.1c1.3,2.4,2.7,4.8,4,7.2c0,0,0.1,0.1,0.1,0.1c0,0,0,0,0,0H20.2c-6.7-11.7-13.4-23.3-20-35
					c4.5-7.8,9-15.7,13.5-23.5c1.2-2.2,2.5-4.3,3.7-6.5C18.3,3.3,19.2,1.7,20.2,0z"/>
				<path id="Fill-2" class="st0" d="M24.7,19.7c8.8,0,17.6,0,26.5,0c1.1,0,2.2,0,3.3,0c0,8.8,0,17.6,0,26.4c0,1.1,0,2.3,0,3.4
					C54,49,53.5,48.6,53,48.1c-1.1-1.1-2.3-2.2-3.4-3.4c-0.4-0.4-0.9-0.9-1.3-1.3c0-5.8,0-11.5,0-17.3c-1.9,0-3.8,0-5.7,0
					c0,3.8,0,7.7,0,11.5c-1-1-2-1.9-3-2.9c-1-0.9-2-1.9-3-2.8c0,0,0-0.1,0-0.2c0-1.9,0-3.8,0-5.6c-3.9,0-7.9,0-11.8,0
					C24.7,24,24.7,21.9,24.7,19.7z M19.7,0h40.1c3.3,5.7,6.5,11.3,9.7,17c3.2,5.7,6.5,11.3,9.7,17c0.2,0.3,0.4,0.7,0.6,1V35
					c-5.7,9.9-11.4,19.8-17,29.8c-1,1.7-2,3.5-3,5.2c0,0-0.1-0.1-0.1-0.1c-1.3-2.4-2.7-4.8-4-7.2c0,0,0-0.1,0-0.1
					c1.6-2.8,3.2-5.6,4.8-8.4c3.7-6.5,7.4-13.1,11.1-19.6c-5.3-9.3-10.6-18.7-15.9-28c-10.6,0-21.2,0-31.8,0c0,0,0-0.1-0.1-0.1
					c-1.1-1.8-2.3-3.6-3.4-5.4C20.2,0.7,20,0.3,19.7,0z"/>
			</g>
		</g>
	</g>
</g>
</svg>
