<?xml version="1.0" encoding="UTF-8"?>
<svg width="61px" height="38px" viewBox="0 0 61 38" version="1.1" xmlns="http://www.w3.org/2000/svg" xmlns:xlink="http://www.w3.org/1999/xlink">
    <!-- Generator: Sketch 49.3 (51167) - http://www.bohemiancoding.com/sketch -->
    <title>online-wallet</title>
    <desc>Created with Sketch.</desc>
    <defs>
        <linearGradient x1="1.50669643%" y1="98.4933036%" x2="98.6180786%" y2="1.38192135%" id="linearGradient-1">
            <stop stop-color="#B299D1" offset="0%"></stop>
            <stop stop-color="#D5B1E4" offset="100%"></stop>
        </linearGradient>
        <ellipse id="path-2" cx="20.4390776" cy="18.9747113" rx="19.4691668" ry="18.9429731"></ellipse>
    </defs>
    <g id="Desctop" stroke="none" stroke-width="1" fill="none" fill-rule="evenodd">
        <g id="Benefits" transform="translate(-1171.000000, -1843.000000)">
            <g id="1-step" transform="translate(0.000000, 1689.000000)">
                <g id="Group-9" transform="translate(314.000000, 133.000000)">
                    <g id="Group-46" transform="translate(857.000000, 21.000000)">
                        <g id="online-wallet">
                            <path d="M40.6195067,15 L56,15 C57.6568542,15 59,16.3431458 59,18 L59,35.001709 C59,36.6585632 57.6568542,38.001709 56,38.001709 L33,38.001709 C32.1220762,38.001709 31.3322313,37.6245989 30.7836152,37.0235289 C36.9037936,33.3538959 41,26.6553081 41,19 C41,17.6321832 40.8692287,16.2949098 40.6195067,15 Z" id="Combined-Shape" fill="url(#linearGradient-1)"></path>
                            <path d="M52.2568719,22 L59,22 C60.1045695,22 61,22.8954305 61,24 L61,29.9876709 C61,31.0922404 60.1045695,31.9876709 59,31.9876709 L52.2279397,31.9876709 C51.5480057,31.9876709 50.9146448,31.6422303 50.5464874,31.0705921 L48,27.1166596 L50.5518335,22.9546082 C50.9154691,22.361517 51.5611794,22 52.2568719,22 Z" id="Rectangle" fill="#7B6696"></path>
                            <ellipse id="Oval-3" fill="#FFFFFF" cx="54" cy="26.972973" rx="2" ry="1.94594595"></ellipse>
                            <g id="Rectangle-9-+-Rectangle-9-+-Rectangle-9-+-Path-2-+-Path-2-Mask">
                                <mask id="mask-3" fill="white">
                                    <use xlink:href="#path-2"></use>
                                </mask>
                                <use id="Mask" fill="url(#linearGradient-1)" xlink:href="#path-2"></use>
                                <path d="M9.8319582,1.08412567 C9.66072041,4.91572918 9.88784698,7.00644917 10.5133379,7.35628564 C11.7359135,8.04007096 12.3897995,10.6615145 13.3213315,10.5326134 C14.5311799,10.3652003 13.4399992,8.46587984 14.2722314,7.35628564 C14.9225968,6.48916983 17.5994684,6.30108063 17.8538428,6.50233194 C19.9220693,8.13863379 20.4650001,11.0260795 19.9203349,12.0972786 C19.049154,13.8106398 14.1475094,14.9526905 12.0230616,16.9630148 C11.1405646,17.798105 12.4993482,19.20077 12.0230616,20.1920898 C11.0482673,22.2209798 5.13989312,17.4737589 5.13989312,21.1424959 C5.13989312,22.238792 6.65187231,26.7498378 8.88579904,27.6166873 C10.2263015,28.1368538 11.6393897,27.5926064 13.0579778,27.6166873 C15.5813907,27.6595228 21.0382396,29.6107275 21.0382396,31.7804616 C21.0382396,37.2026676 11.6805237,38.550941 8.88579904,38.9975703 C5.24629265,39.5792054 1.90607166,37.9634597 -1.13486393,34.1503331 L-0.604045485,11.7130495 L9.8319582,1.08412567 Z" id="Path-2" fill="#7B6696" mask="url(#mask-3)"></path>
                                <path d="M39.5073903,7.50915479 C39.749576,8.40590641 39.8837995,9.38999594 39.9100608,10.4614234 C39.9182423,10.7952177 39.922333,11.1558886 39.922333,11.5434361 C39.922333,11.6035162 39.0879985,8.40584367 37.4673308,8.25086458 C36.814398,8.18842676 35.6227306,7.04459963 34.9208925,7.50915479 C33.7027426,8.3154629 34.1033396,9.50854639 33.0907764,11.0137148 C32.0782133,12.5188832 28.3686505,11.2172038 30.4418228,13.2935912 C32.5149951,15.3699786 33.6162293,12.3601219 35.5213391,12.3266436 C37.8691273,12.2853862 39.7938754,13.4202772 39.7599534,13.6232907 C39.0159488,18.075944 35.9650787,18.8525437 35.8789864,18.8290411 C34.6975737,18.5065244 33.5694133,15.620559 32.5149951,15.3699786 C30.1269802,14.8024717 27.6683891,15.423833 26.1395179,16.5726634 C25.3884442,17.1370383 26.33134,19.3630541 25.8730844,20.2932117 C24.9076271,22.2528764 23.1959746,23.2433753 24.7454163,24.4027389 C27.0303028,26.1123963 26.2367868,25.4579317 32.0782133,25.9559047 C34.6971465,26.1791649 31.6545639,28.5029898 32.0782133,31.0988759 C32.5149951,33.7752308 30.0376794,36.424769 30.8195107,37.4265329 C31.7643298,38.6371339 36.3814557,33.452915 44.6708883,21.873876 L39.5073903,7.50915479 Z" id="Path-3" fill="#7B6696" mask="url(#mask-3)"></path>
                                <path d="M16.7557217,0.0317382812 C19.531599,1.65720724 20.7476512,3.08049196 20.4038781,4.30159243 C19.8882186,6.13324313 20.0518833,7.65707489 21.9136018,8.32503868 C23.7753204,8.99300247 26.8284257,8.26381108 28.6957967,6.6111316 C29.9407106,5.50934527 30.8456199,3.69752683 31.4105245,1.17567627 L16.7557217,0.0317382812 Z" id="Path-4" fill="#7B6696" mask="url(#mask-3)"></path>
                            </g>
                        </g>
                    </g>
                </g>
            </g>
        </g>
    </g>
</svg>