<?xml version="1.0" encoding="UTF-8"?>
<svg width="140px" height="160px" viewBox="0 0 140 160" version="1.1" xmlns="http://www.w3.org/2000/svg" xmlns:xlink="http://www.w3.org/1999/xlink">
    <!-- Generator: Sketch 49.3 (51167) - http://www.bohemiancoding.com/sketch -->
    <title>oversight</title>
    <desc>Created with Sketch.</desc>
    <defs></defs>
    <g id="Desctop" stroke="none" stroke-width="1" fill="none" fill-rule="evenodd">
        <g id="Holders" transform="translate(-936.000000, -1717.000000)">
            <g id="Benefits" transform="translate(0.000000, 660.000000)">
                <g id="Group-8" transform="translate(800.000000, 1057.000000)">
                    <g id="Icons/big/oversight" transform="translate(136.000000, 0.000000)">
                        <g id="Page-1">
                            <polygon id="Fill-1" fill="#F7F7F7" points="69.9336259 -0.0002 0.000100719424 40.0078 0.000100719424 119.4188 69.9336259 159.9998 139.867151 118.7898 139.867151 40.0078"></polygon>
                            <polygon id="Fill-2" fill="#E8E8E8" points="127.204705 47.2488 69.9336259 14.4848 12.6615396 47.2488 12.6615396 112.2818 69.9336259 145.5158 127.204705 111.7668"></polygon>
                            <polygon id="Fill-3" fill="#FFC033" points="113.497496 57.3904 71.6123165 33.4284 29.7271367 57.3904 29.7271367 104.9524 71.6123165 129.2564 113.497496 104.5754"></polygon>
                            <g id="Group-14" transform="translate(29.208633, 33.000000)">
                                <path d="M80.5984029,24.532 C81.8362446,24.532 83.0630072,24.577 84.2887626,24.625 L84.2887626,24.39 L42.4035827,0.428 L0.518402878,24.39 L0.518402878,70.765 C16.385741,43.158 46.2913525,24.532 80.5984029,24.532" id="Fill-4" fill="#FFD833"></path>
                                <polygon id="Fill-6" fill="#D86600" points="20.7863741 36.7107 37.4493957 36.7107 37.4493957 44.4677 20.7863741 44.4677 20.7863741 53.7727 46.8273813 53.7727 46.8273813 36.7107 54.6411942 36.7107 54.6411942 60.4947 20.7863741 60.4947 20.7863741 69.8057 64.0211942 69.8057 64.0211942 26.8797 20.7863741 26.8797"></polygon>
                                <path d="M9.50861871,24.2322 C9.50861871,19.3032 5.4838705,15.3072 0.518402878,15.3072 C5.4838705,15.3072 9.50861871,11.3112 9.50861871,6.3812 C9.50861871,11.3112 13.5323597,15.3072 18.4978273,15.3072 C13.5323597,15.3072 9.50861871,19.3032 9.50861871,24.2322" id="Fill-8" fill="#FFFFFF"></path>
                                <path d="M15.8871799,89.2488 C15.8871799,84.3188 11.8624317,80.3228 6.89696403,80.3228 C11.8624317,80.3228 15.8871799,76.3278 15.8871799,71.3978 C15.8871799,76.3278 19.9119281,80.3228 24.8763885,80.3228 C19.9119281,80.3228 15.8871799,84.3188 15.8871799,89.2488" id="Fill-10" fill="#FFFFFF"></path>
                                <path d="M84.2888633,33.7664 C84.2888633,28.8364 80.2641151,24.8404 75.2986475,24.8404 C80.2641151,24.8404 84.2888633,20.8444 84.2888633,15.9154 C84.2888633,20.8444 88.3136115,24.8404 93.2780719,24.8404 C88.3136115,24.8404 84.2888633,28.8364 84.2888633,33.7664" id="Fill-12" fill="#FFFFFF"></path>
                            </g>
                        </g>
                    </g>
                </g>
            </g>
        </g>
    </g>
</svg>