<?xml version="1.0" encoding="utf-8"?>
<!-- Generator: Adobe Illustrator 22.0.1, SVG Export Plug-In . SVG Version: 6.00 Build 0)  -->
<svg version="1.1" id="Layer_1" xmlns="http://www.w3.org/2000/svg" xmlns:xlink="http://www.w3.org/1999/xlink" x="0px" y="0px"
	 viewBox="0 0 100 70" style="enable-background:new 0 0 100 70;" xml:space="preserve">
<style type="text/css">
	.st0{fill:#8B9096;}
	.st1{fill:#FFFFFF;}
</style>
<title>paper-wallet</title>
<desc>Created with Sketch.</desc>
<g id="Benefits-t" transform="translate(-548.000000, -1175.000000)">
	<g id="Group-12" transform="translate(399.000000, 1147.000000)">
		<g id="Group-3">
			<g id="paper-wallet" transform="translate(149.000000, 28.000000)">
				<rect id="Rectangle-14" y="3.8" class="st0" width="100" height="62.5"/>
				<rect id="Rectangle-14_1_" x="6.2" y="10" class="st1" width="87.5" height="50"/>
				<path id="Combined-Shape" class="st0" d="M59.4,38.1H46.9v-6.2h9.4v-6.2h6.2v6.2h-3.1V35h6.2v6.2h-6.2V38.1z M37.5,13.1h15.6
					v15.6H37.5V13.1z M37.5,41.2h15.6v15.6H37.5V41.2z M65.6,13.1h15.6v15.6H65.6V13.1z M65.6,41.2h15.6v15.6H65.6V41.2z M56.2,47.5
					h6.2v6.2h-6.2V47.5z M75,31.9h6.2v6.2H75V31.9z"/>
				<rect id="Rectangle-15" x="12.5" y="0.6" class="st0" width="15.6" height="68.8"/>
				<path id="Combined-Shape_1_" class="st1" d="M40.6,16.2H50v9.4h-9.4V16.2z M40.6,44.4H50v9.4h-9.4V44.4z M68.8,44.4h9.4v9.4
					h-9.4V44.4z M68.8,16.2h9.4v9.4h-9.4V16.2z"/>
			</g>
		</g>
	</g>
</g>
</svg>
