<?xml version="1.0" encoding="UTF-8"?>
<svg width="52px" height="32px" viewBox="0 0 52 32" version="1.1" xmlns="http://www.w3.org/2000/svg" xmlns:xlink="http://www.w3.org/1999/xlink">
    <!-- Generator: Sketch 49.3 (51167) - http://www.bohemiancoding.com/sketch -->
    <title>Group 7</title>
    <desc>Created with Sketch.</desc>
    <defs>
        <linearGradient x1="20.2104048%" y1="81.3552856%" x2="100%" y2="14.8010254%" id="linearGradient-1">
            <stop stop-color="#B299D1" offset="0%"></stop>
            <stop stop-color="#D5B1E4" offset="100%"></stop>
        </linearGradient>
    </defs>
    <g id="Desctop" stroke="none" stroke-width="1" fill="none" fill-rule="evenodd">
        <g id="Our-partners-1" transform="translate(-784.000000, -1379.000000)">
            <g id="Group-8" transform="translate(784.000000, 1379.000000)">
                <g id="Group-7">
                    <g id="Page-1" transform="translate(4.000000, 0.000000)" fill="url(#linearGradient-1)">
                        <path d="M34.8400287,19.7006473 C26.9493564,11.7626598 30.6608188,15.4976646 26.4143598,11.2167599 C26.4143598,11.2167599 25.1381805,9.93863962 23.4562871,10.6812421 C22.2754328,11.2014658 20.7556697,11.911024 19.6117691,12.4525701 C18.354566,13.1154645 17.4503652,13.3207631 17.0255639,13.3181954 C14.5958295,13.3020082 12.6244098,11.33755 12.6244098,8.89551309 C12.6244098,7.31117535 13.4601408,5.9319129 14.7072455,5.14912145 C16.4607159,3.92860536 20.4964388,1.76911908 20.4964388,1.76911908 C20.4964388,1.76911908 19.2670897,0.201861652 16.5734635,0.201861652 C13.8810581,0.201861652 8.25577055,3.90895742 8.25577055,3.90895742 C8.25577055,3.90895742 6.65965861,4.93768292 4.38473024,4.01143925 L0,2.47510498 L0,17.8076361 C0,17.8076361 1.25187644,18.1721276 2.37724466,18.6344121 C2.63125984,17.9053176 3.04085792,17.232376 3.60959001,16.6764288 C5.47625197,14.8880205 8.56959969,14.8693773 10.267917,16.6284253 C10.7794984,17.16305 11.1362738,17.8010496 11.318268,18.5058075 C12.002744,18.7185857 12.6221904,19.0949105 13.1202332,19.6107804 C13.6334793,20.1419443 13.9890339,20.7834046 14.1728038,21.4850367 C14.856392,21.6978149 15.4749506,22.0754794 15.974769,22.5917958 C16.5373976,23.1757635 16.9123724,23.8808564 17.0874864,24.644893 C17.8019249,24.8542104 18.4473387,25.2440432 18.967576,25.7786679 C19.9879646,26.8330697 20.3503995,28.2639079 20.1305637,29.6436169 C20.1327832,29.6436169 20.1357794,29.6436169 20.137555,29.6467427 C20.1539789,29.6688467 20.7699851,30.3592035 21.1536157,30.7487014 C21.9061176,31.5061515 23.134246,31.5061515 23.8889674,30.7487014 C24.6388059,29.9912514 24.6419132,28.7580088 23.8889674,27.9969863 C23.8620011,27.9699704 21.1748113,25.1424545 21.391207,24.9230898 C21.6057161,24.7055113 25.0294278,28.2888028 25.0931258,28.3545564 C25.844407,29.1103319 27.0719805,29.1103319 27.8267019,28.3545564 C28.5796477,27.5971063 28.5778722,26.3638637 27.8267019,25.6047391 C27.7898592,25.5693505 27.635497,25.4206513 27.5787902,25.3613726 C27.5787902,25.3613726 24.1841532,22.3197389 24.4424963,22.0598504 C24.7038356,21.7981756 28.9203321,25.7564523 28.9273234,25.7564523 C29.685041,26.4432369 30.8524676,26.43799 31.5815544,25.7040951 C32.2911101,24.9907412 32.3063133,23.861655 31.6773234,23.1011907 C31.6638957,23.0606669 28.4639038,19.6967401 28.7135911,19.4433264 C28.9671623,19.1868986 32.1333078,22.4666518 32.140299,22.4736849 C32.8898047,23.2293488 34.1191538,23.2293488 34.8738751,22.4736849 C35.6250454,21.7179094 35.6250454,20.4829922 34.8738751,19.7202953 C34.8634438,19.7137087 34.8500161,19.7071222 34.8400287,19.7006473 M14.9231972,26.6713091 C15.2773092,25.7568989 15.159013,24.7342017 14.4805294,24.0326813 C13.8710706,23.4050638 12.9811852,23.2398426 12.1328034,23.4352055 C12.3703947,22.5887816 12.2390037,21.6878793 11.6265486,21.0520008 C11.0153142,20.4258346 10.1270933,20.257041 9.27871151,20.4546367 C9.51408337,19.6094407 9.38369113,18.7080919 8.77023728,18.0744461 C7.81010653,17.0836768 6.14985271,17.1259869 5.05877487,18.1721276 C3.97380049,19.2196079 3.27844922,21.1174195 4.24690287,22.2346723 C5.21391389,23.3462317 6.32496671,22.6699409 7.17201687,22.475806 C6.93620112,23.3210019 6.23008555,24.1072541 7.09966305,25.2140131 C7.96835277,26.3207722 9.177283,25.6491702 10.0252209,25.4568214 C9.7889613,26.2988915 9.113585,27.1640703 9.9497599,28.18967 C10.7933699,29.2189537 12.1748618,28.6707094 13.0873855,28.3854795 C12.7353819,29.2965407 11.9815484,30.2781558 12.949891,31.3783283 C13.917013,32.4868735 16.1516585,31.9740179 17.2431803,30.9265375 C18.3315948,29.8786107 18.4361305,28.2185837 17.4785521,27.2251352 C16.8174912,26.5430394 15.8321698,26.3844047 14.9231972,26.6713091 M44,3.96823613 L44,17.3672322 C44,17.3672322 41.1493483,17.931887 40.5624168,18.0064598 C39.9768169,18.0805861 38.1371212,18.6780618 36.8041241,17.3890012 C34.7476999,15.4065696 27.4426274,8.09787406 27.4426274,8.09787406 C27.4426274,8.09787406 26.182872,6.85469586 24.1607381,7.9291921 C22.3040636,8.91382139 19.5519551,10.3563814 18.4027279,10.918022 C16.2296719,12.0814921 14.4285945,10.2355913 14.4285945,8.82920132 C14.4285945,7.73862949 15.1051915,6.99859463 16.0723135,6.45392271 C18.6931419,4.85563048 24.2178887,1.7359632 26.5188955,0.506181316 C27.9172552,-0.242114614 28.9251039,-0.306193663 30.8450325,1.32078901 C33.2100702,3.32197548 35.3146564,5.14566074 35.3146564,5.14566074 C35.3146564,5.14566074 36.000908,5.72170236 37.0958698,5.48972281 C39.7839474,4.91803499 44,3.96823613 44,3.96823613" id="Fill-1"></path>
                    </g>
                    <rect id="Rectangle-6" fill="#6C5589" x="48" y="2" width="4" height="17"></rect>
                    <rect id="Rectangle-6" fill="#6C5589" x="0" y="1" width="4" height="18"></rect>
                </g>
            </g>
        </g>
    </g>
</svg>