<svg xmlns="http://www.w3.org/2000/svg" width="50" height="47" viewBox="0 0 50 47">
    <g fill="none" fill-rule="evenodd">
        <path fill="#B09CC9" fill-opacity=".9" d="M0 0h50v47H0z"/>
        <path fill="#FFF" d="M25 27.002c-1.654 0-3-1.346-3-3s1.346-3 3-3 3 1.346 3 3-1.346 3-3 3m0-8c-2.757 0-5 2.243-5 5s2.243 5 5 5 5-2.243 5-5-2.243-5-5-5"/>
        <path fill="#FFF" d="M17 30.002v-11h4.535l2-3h2.93l2 3H33l.001 11H17zm16-13h-3.465l-1.406-2.108a1.994 1.994 0 0 0-1.664-.892h-2.93c-.67 0-1.292.333-1.664.892l-1.406 2.108H17c-1.103 0-2 .897-2 2v11c0 1.103.897 2 2 2h16c1.103 0 2-.897 2-2v-11c0-1.103-.897-2-2-2z"/>
    </g>
</svg>
