<?xml version="1.0" encoding="UTF-8"?>
<svg width="140px" height="160px" viewBox="0 0 140 160" version="1.1" xmlns="http://www.w3.org/2000/svg" xmlns:xlink="http://www.w3.org/1999/xlink">
    <!-- Generator: Sketch 49.3 (51167) - http://www.bohemiancoding.com/sketch -->
    <title>pos-merged-mining-pow</title>
    <desc>Created with Sketch.</desc>
    <defs></defs>
    <g id="Desctop" stroke="none" stroke-width="1" fill="none" fill-rule="evenodd">
        <g id="Holders" transform="translate(-366.000000, -1714.000000)">
            <g id="Benefits" transform="translate(0.000000, 660.000000)">
                <g id="Group-9" transform="translate(230.000000, 1054.000000)">
                    <g id="Icons/big/pos+merged-mining+pow" transform="translate(136.000000, 0.000000)">
                        <g id="Page-1">
                            <polygon id="Fill-1" fill="#F7F7F7" points="69.9336259 -0.0002 0.000100719424 40.0078 0.000100719424 119.4188 69.9336259 159.9998 139.866144 118.7888 139.866144 40.0078"></polygon>
                            <polygon id="Fill-2" fill="#E8E8E8" points="127.204906 47.2482 69.9338273 14.4842 12.661741 47.2482 12.661741 112.2812 69.9338273 145.5162 127.204906 111.7672"></polygon>
                            <polyline id="Stroke-3" stroke="#F7931E" stroke-width="2" points="33.0893525 94.0138 23.6469065 94.0138 23.6469065 120.2398"></polyline>
                            <polyline id="Stroke-4" stroke="#F7931E" stroke-width="2" points="35.1498705 85.9894 19.8747626 85.9894 19.8747626 56.4894"></polyline>
                            <g id="Group-31" transform="translate(15.107914, 12.000000)">
                                <path d="M9.66906475,40.5724 C9.66906475,43.2054 7.51870504,45.3394 4.86676259,45.3394 C2.21582734,45.3394 0.0664748201,43.2054 0.0664748201,40.5724 C0.0664748201,37.9394 2.21582734,35.8054 4.86676259,35.8054 C7.51870504,35.8054 9.66906475,37.9394 9.66906475,40.5724" id="Fill-5" fill="#4A3777"></path>
                                <path d="M54.8826187,21.8839 L54.8826187,21.8309 L54.8252086,21.8579 L15.2334101,40.2009 L15.2334101,73.0099 C15.2334101,91.4449 28.4125468,105.3619 54.7688058,114.7599 L54.7688058,114.8019 C54.7879424,114.7949 54.8060719,114.7879 54.8252086,114.7809 C54.8443453,114.7879 54.8624748,114.7949 54.8826187,114.8019 L54.8826187,114.7599 C81.2388777,105.3619 94.4180144,91.4449 94.4180144,73.0099 L94.4180144,40.2009 L54.8826187,21.8839 Z" id="Fill-7" fill="#F7931E"></path>
                                <path d="M22.4950791,72.632 C22.4950791,87.544 33.2700432,98.796 54.8209784,106.388 L54.8209784,31.294 L22.4950791,46.132 L22.4950791,72.632 Z" id="Fill-9" fill="#FFC033"></path>
                                <path d="M54.8305468,31.2941 L54.8305468,106.3881 C76.3804748,98.7961 87.156446,87.5441 87.156446,72.6321 L87.156446,46.1321 L54.8305468,31.2941 Z" id="Fill-11" fill="#FFC033"></path>
                                <path d="M85.3797554,45.2404 L54.7912662,31.2454 L22.5086763,45.9164 L22.5086763,72.5124 C22.5086763,79.8754 25.1304029,86.3474 30.3668058,91.9314 C34.9575971,65.7704 57.839036,45.7544 85.3797554,45.2404" id="Fill-13" fill="#FFD833"></path>
                                <polygon id="Fill-15" fill="#D86600" points="40.2311655 59.5226 51.480518 59.5226 51.480518 64.7586 40.2311655 64.7586 40.2311655 71.0416 57.8127482 71.0416 57.8127482 59.5226 63.0874245 59.5226 63.0874245 75.5806 40.2311655 75.5806 40.2311655 81.8656 69.4196547 81.8656 69.4196547 52.8856 40.2311655 52.8856"></polygon>
                                <path d="M13.6084029,108.2394 C13.6084029,110.8724 11.4590504,113.0064 8.80710791,113.0064 C6.15617266,113.0064 4.00682014,110.8724 4.00682014,108.2394 C4.00682014,105.6064 6.15617266,103.4714 8.80710791,103.4714 C11.4590504,103.4714 13.6084029,105.6064 13.6084029,108.2394" id="Fill-17" fill="#4A3777"></path>
                                <polyline id="Stroke-19" stroke="#F7931E" stroke-width="2" points="94.3176978 60.9718 104.38964 60.9718 104.38964 83.6388"></polyline>
                                <path d="M109.459957,86.8224 C109.459957,89.4554 107.310604,91.5894 104.658662,91.5894 C102.007727,91.5894 99.8573669,89.4554 99.8573669,86.8224 C99.8573669,84.1894 102.007727,82.0554 104.658662,82.0554 C107.310604,82.0554 109.459957,84.1894 109.459957,86.8224" id="Fill-21" fill="#4A3777"></path>
                                <polyline id="Stroke-23" stroke="#F7931E" stroke-width="2" points="93.6469065 55.9718 99.8572662 55.9718 99.8572662 32.9718"></polyline>
                                <path d="M105.095784,29.8058 C105.095784,32.4388 102.945424,34.5728 100.293482,34.5728 C97.6425468,34.5728 95.4931942,32.4388 95.4931942,29.8058 C95.4931942,27.1728 97.6425468,25.0378 100.293482,25.0378 C102.945424,25.0378 105.095784,27.1728 105.095784,29.8058" id="Fill-25" fill="#4A3777"></path>
                                <path d="M54.8305468,25.9718 L54.8305468,5.9718" id="Stroke-27" stroke="#F7931E" stroke-width="2"></path>
                                <path d="M59.632446,4.8058 C59.632446,7.4388 57.4820863,9.5728 54.8301439,9.5728 C52.1792086,9.5728 50.0298561,7.4388 50.0298561,4.8058 C50.0298561,2.1728 52.1792086,0.0378 54.8301439,0.0378 C57.4820863,0.0378 59.632446,2.1728 59.632446,4.8058" id="Fill-29" fill="#4A3777"></path>
                            </g>
                        </g>
                    </g>
                </g>
            </g>
        </g>
    </g>
</svg>