<?xml version="1.0" encoding="UTF-8"?>
<svg width="34px" height="34px" viewBox="0 0 34 34" version="1.1" xmlns="http://www.w3.org/2000/svg" xmlns:xlink="http://www.w3.org/1999/xlink">
    <!-- Generator: Sketch 49.1 (51147) - http://www.bohemiancoding.com/sketch -->
    <title>Reddit_Color</title>
    <desc>Created with Sketch.</desc>
    <defs></defs>
    <g id="Style" stroke="none" stroke-width="1" fill="none" fill-rule="evenodd">
        <g transform="translate(-255.000000, -3862.000000)" id="Group-24">
            <g transform="translate(180.000000, 3789.000000)">
                <g id="Hover" transform="translate(27.000000, 73.000000)">
                    <g id="Reddit" transform="translate(48.000000, 0.000000)">
                        <path d="M0,17 C0,7.61115879 7.61115879,0 17,0 C26.3888412,0 34,7.61115879 34,17 C34,26.3888412 26.3888412,34 17,34 C7.61115879,34 0,26.3888412 0,17 Z" id="back" fill="#FF733F"></path>
                        <path d="M5.27118644,20.08 C5.27118644,15.7132288 10.308152,12.16 16.5,12.16 C22.691848,12.16 27.7288136,15.7132288 27.7288136,20.08 C27.7288136,24.4467712 22.691848,28 16.5,28 C10.308152,28 5.27118644,24.4467712 5.27118644,20.08 Z" id="Fill-3" fill="#FFFFFF"></path>
                        <path d="M22.6440678,8.42 C22.6440678,7.08540103 23.6893307,6 24.9745763,6 C26.2593438,6 27.3050847,7.08540103 27.3050847,8.42 C27.3050847,9.75459897 26.2593438,10.84 24.9745763,10.84 C23.6893307,10.84 22.6440678,9.75459897 22.6440678,8.42 Z" id="Fill-5" fill="#FFFFFF"></path>
                        <path d="M5.53448091,19.64 C4.58809293,19.0600831 4,17.9591493 4,16.765737 C4,14.9541504 5.33612118,13.48 6.97839002,13.48 C7.773825,13.48 8.52185325,13.82184 9.08474576,14.4422162 L8.42279814,15.1724105 C8.03680758,14.7466244 5.33911529,18.3395219 5.98858745,18.7375095 L5.53448091,19.64 Z" id="Fill-7" fill="#FFFFFF"></path>
                        <path d="M27.011315,18.7375095 C27.660819,18.3395219 24.9629943,14.7466244 24.5769848,15.1724105 L23.9152542,14.4422162 C24.4779248,13.82184 25.2259898,13.48 26.0214638,13.48 C27.6638133,13.48 29,14.9541504 29,16.765737 C29,17.9591493 28.4118782,19.0600831 27.4659428,19.64 L27.011315,18.7375095 Z" id="Fill-9" fill="#FFFFFF"></path>
                        <path d="M11.2033898,18.9797301 C11.2033898,17.8867485 11.9618968,17 12.8987672,17 C13.8347134,17 14.5932203,17.8867485 14.5932203,18.9797301 C14.5932203,20.0737914 13.8347134,20.96 12.8987672,20.96 C11.9618968,20.96 11.2033898,20.0737914 11.2033898,18.9797301 Z M18.4067797,18.9797301 C18.4067797,17.8867485 19.1652866,17 20.102157,17 C21.0381032,17 21.7966102,17.8867485 21.7966102,18.9797301 C21.7966102,20.0737914 21.0381032,20.96 20.102157,20.96 C19.1652866,20.96 18.4067797,20.0737914 18.4067797,18.9797301 Z M16.6509553,24.92 C13.7790936,24.92 12.6303009,23.5554575 12.5829849,23.4976592 C12.4211019,23.2998885 12.4429585,23.0018503 12.6322223,22.8329788 C12.8202852,22.6651124 13.1022594,22.686724 13.2643826,22.8817304 C13.2903223,22.9111321 14.2491307,23.9776364 16.6509553,23.9776364 C19.0945717,23.9776364 20.1660256,22.8731863 20.1768338,22.8623805 C20.3497652,22.6779286 20.6346216,22.6736565 20.8123566,22.8545903 C20.9891309,23.0352728 20.995856,23.3297929 20.8250863,23.5167578 C20.7724863,23.5743048 19.5081659,24.92 16.6509553,24.92 Z" id="Combined-Shape" fill="#FF733F"></path>
                        <path d="M16.3283591,13.04 C16.2771574,13.04 16.2254611,13.0307341 16.1742595,13.0116727 C15.9325977,12.9206017 15.8062015,12.6373285 15.8905481,12.3786763 L17.9883305,6 L23.1354539,7.31708785 C23.3845361,7.38062575 23.538141,7.64907341 23.4787768,7.91540313 C23.4189179,8.18199759 23.1681042,8.34613718 22.9197639,8.28286402 L18.5854354,7.17386282 L16.76617,12.7080144 C16.6988906,12.9123947 16.5195613,13.04 16.3283591,13.04" id="Fill-15" fill="#FFFFFF"></path>
                    </g>
                </g>
            </g>
        </g>
    </g>
</svg>