<?xml version="1.0" encoding="UTF-8"?>
<svg width="34px" height="34px" viewBox="0 0 34 34" version="1.1" xmlns="http://www.w3.org/2000/svg" xmlns:xlink="http://www.w3.org/1999/xlink">
    <!-- Generator: Sketch 49.1 (51147) - http://www.bohemiancoding.com/sketch -->
    <title>Reddit_Color</title>
    <desc>Created with Sketch.</desc>
    <defs>
        <path d="M0,17 C0,7.61115879 7.61115879,0 17,0 C26.3888412,0 34,7.61115879 34,17 C34,26.3888412 26.3888412,34 17,34 C7.61115879,34 0,26.3888412 0,17 Z" id="path-1"></path>
    </defs>
    <g id="Symbols" stroke="none" stroke-width="1" fill="none" fill-rule="evenodd">
        <g id="Footer-down" transform="translate(-955.000000, -400.000000)">
            <g id="Group-34">
                <g id="Group-19">
                    <g id="Group-25" transform="translate(668.000000, 400.000000)">
                        <g id="Group-24" transform="translate(239.000000, 0.000000)">
                            <g id="Reddit" transform="translate(48.000000, 0.000000)">
                                <g id="back">
                                    <use fill="#FF4500" fill-rule="evenodd" xlink:href="#path-1"></use>
                                    <path stroke="#FF4500" stroke-width="1" d="M0.5,17 C0.5,26.1126988 7.88730116,33.5 17,33.5 C26.1126988,33.5 33.5,26.1126988 33.5,17 C33.5,7.88730116 26.1126988,0.5 17,0.5 C7.88730116,0.5 0.5,7.88730116 0.5,17 Z"></path>
                                </g>
                                <g transform="translate(4.000000, 6.000000)">
                                    <path d="M1,14 C1,9.58912 5.93432554,6 12,6 C18.0656745,6 23,9.58912 23,14 C23,18.41088 18.0656745,22 12,22 C5.93432554,22 1,18.41088 1,14 Z" id="Fill-3" fill="#FFFFFF"></path>
                                    <path d="M19,2.5 C19,1.12128205 20.1212821,0 21.5,0 C22.8782051,0 24,1.12128205 24,2.5 C24,3.87871795 22.8782051,5 21.5,5 C20.1212821,5 19,3.87871795 19,2.5 Z" id="Fill-5" fill="#FFFFFF"></path>
                                    <path d="M1.50890623,13 C0.578291378,12.4351459 0,11.3628077 0,10.2003932 C0,8.43586077 1.3138525,7 2.92875018,7 C3.71092792,7 4.44648903,7.33296099 5,7.93722354 L4.34908484,8.64845181 C3.96952745,8.23372503 1.3167967,11.7333006 1.95544433,12.1209508 L1.50890623,13 Z" id="Fill-7" fill="#FFFFFF"></path>
                                    <path d="M23.0444597,12.1209508 C23.6831387,11.7333006 21.0302778,8.23372503 20.6507017,8.64845181 L20,7.93722354 C20.5532928,7.33296099 21.28889,7 22.0711061,7 C23.686083,7 25,8.43586077 25,10.2003932 C25,11.3628077 24.4216802,12.4351459 23.4915105,13 L23.0444597,12.1209508 Z" id="Fill-9" fill="#FFFFFF"></path>
                                    <path d="M7,12.9997273 C7,11.8957055 7.78763359,11 8.76047983,11 C9.73236641,11 10.52,11.8957055 10.52,12.9997273 C10.52,14.1048398 9.73236641,15 8.76047983,15 C7.78763359,15 7,14.1048398 7,12.9997273 Z M14.48,12.9997273 C14.48,11.8957055 15.2676336,11 16.2404798,11 C17.2123664,11 18,11.8957055 18,12.9997273 C18,14.1048398 17.2123664,15 16.2404798,15 C15.2676336,15 14.48,14.1048398 14.48,12.9997273 Z M12.656752,19 C9.67461077,19 8.48170442,17.6216743 8.43257154,17.5632921 C8.26447225,17.3635238 8.28716815,17.0624751 8.48369966,16.8918978 C8.67898414,16.7223358 8.97178616,16.7441656 9.14013485,16.9411418 C9.16707064,16.9708405 10.1626973,18.0481176 12.656752,18.0481176 C15.1942032,18.0481176 16.306801,16.9325114 16.3180242,16.9215965 C16.4975962,16.7352814 16.7933911,16.7309662 16.9779511,16.9137276 C17.1615135,17.0962352 17.1684969,17.3937302 16.9911696,17.5825836 C16.9365498,17.6407119 15.6236794,19 12.656752,19 Z" id="Combined-Shape" fill="#FF4500"></path>
                                    <path d="M12.4866344,7 C12.4329296,7 12.3787059,6.9907867 12.3250011,6.97183363 C12.0715247,6.88128008 11.9389491,6.59961643 12.0274193,6.34243381 L14.22776,0 L19.6265205,1.30960439 C19.8877801,1.37278129 20.0488946,1.63970367 19.9866281,1.90452016 C19.9238428,2.16959988 19.660767,2.33280686 19.4002857,2.2698932 L14.8540567,1.16719314 L12.9458495,6.66990072 C12.8752808,6.87311974 12.6871842,7 12.4866344,7" id="Fill-15" fill="#FFFFFF"></path>
                                </g>
                            </g>
                        </g>
                    </g>
                </g>
            </g>
        </g>
    </g>
</svg>