<?xml version="1.0" encoding="UTF-8"?>
<svg width="140px" height="160px" viewBox="0 0 140 160" version="1.1" xmlns="http://www.w3.org/2000/svg" xmlns:xlink="http://www.w3.org/1999/xlink">
    <!-- Generator: Sketch 49.3 (51167) - http://www.bohemiancoding.com/sketch -->
    <title>return</title>
    <desc>Created with Sketch.</desc>
    <defs></defs>
    <g id="return" stroke="none" stroke-width="1" fill="none" fill-rule="evenodd">
        <g id="Group-20">
            <polygon id="Fill-1" fill="#F7F7F7" points="0 40.007 0 119.418 69.9989918 160 70.0020163 160 140 118.789 140 40.007 70 0"></polygon>
            <polygon id="Fill-2" fill="#E8E8E8" points="128 46.7562485 70.5005056 14 13 46.7562485 13 111.773863 70.5005056 145 128 111.258985"></polygon>
            <g id="Group-19" transform="translate(16.000000, 16.000000)">
                <path d="M58.0598325,78.4526 C58.0598325,71.2236 54.1708752,64.9566 46.271935,64.9566 C41.2887043,64.9566 37.1556786,67.9696 35.3342427,71.9446 C34.8471145,72.9086 34.6050632,74.3556 34.6050632,76.5236 C34.9691487,84.8396 38.9801402,92.3096 47.3652,92.3096 C53.9278154,92.3096 58.0598325,86.4056 58.0598325,78.4526 Z M68.1463111,39.1686 C66.0808068,39.0486 63.8932684,39.1686 60.9765504,39.4096 C44.5705162,40.7356 37.2777128,49.0506 35.2122085,58.2086 L35.576294,58.2086 C39.4652513,54.2326 44.9335932,51.9416 52.3474222,51.9416 C65.5946872,51.9416 76.7754393,61.2216 76.7754393,77.4886 C76.7754393,93.0316 64.7434735,105.8056 47.6082598,105.8056 C26.5840889,105.8056 16.2535419,90.2616 16.2535419,71.5836 C16.2535419,56.8836 21.7218838,44.5926 30.2289778,36.7596 C38.1289265,29.6506 48.3374393,25.7936 60.7334906,25.1906 C64.1363282,24.9506 66.3238667,24.9506 68.1463111,25.0696 L68.1463111,39.1686 Z" id="Fill-3" fill="#D86600"></path>
                <path d="M16.8452564,33.0249 C25.901,33.0249 33.2432222,25.7469 33.2432222,16.7669 C33.2432222,7.7879 25.901,0.5079 16.8452564,0.5079 C7.78951282,0.5079 0.448299145,7.7879 0.448299145,16.7669 C0.448299145,25.7469 7.78951282,33.0249 16.8452564,33.0249" id="Fill-5" fill="#4A3777"></path>
                <path d="M19.6124068,7.7221 L17.4299111,9.9631 L20.516065,13.1321 L13.4400991,13.1321 C10.0352444,13.1321 7.26678291,15.9761 7.26678291,19.4721 C7.26678291,22.9681 10.0352444,25.8121 13.4400991,25.8121 L14.9831761,25.8121 L14.9831761,22.6421 L13.4400991,22.6421 C11.7376718,22.6421 10.3539453,21.2201 10.3539453,19.4721 C10.3539453,17.7261 11.7376718,16.3021 13.4400991,16.3021 L20.516065,16.3021 L17.4299111,19.4721 L19.6124068,21.7131 L26.4231248,14.7171 L19.6124068,7.7221 Z" id="Fill-7" fill="#FFFFFF"></path>
                <path d="M61.3006974,78.7163 C61.3006974,71.4873 57.4117402,65.2203 49.5128,65.2203 C44.5295692,65.2203 40.3965436,68.2333 38.5740991,72.2093 C38.0879795,73.1723 37.8459282,74.6193 37.8459282,76.7873 C38.2090051,85.1033 42.2199966,92.5733 50.606065,92.5733 C57.1686803,92.5733 61.3006974,86.6693 61.3006974,78.7163 Z M71.3871761,39.4333 C69.3216718,39.3123 67.1341333,39.4333 64.2174154,39.6743 C47.8113812,40.9993 40.5185778,49.3143 38.4530735,58.4723 L38.817159,58.4723 C42.7061162,54.4963 48.1744581,52.2063 55.5882872,52.2063 C68.8355521,52.2063 80.0163043,61.4853 80.0163043,77.7523 C80.0163043,93.2963 67.9843385,106.0693 50.8491248,106.0693 C29.8239453,106.0693 19.4933983,90.5253 19.4933983,71.8473 C19.4933983,57.1473 24.9627487,44.8563 33.4698427,37.0233 C41.3697915,29.9143 51.5783043,26.0583 63.973347,25.4543 C67.3771932,25.2153 69.5647316,25.2153 71.3871761,25.3343 L71.3871761,39.4333 Z" id="Fill-9" fill="#FFD833"></path>
                <path d="M64.2701624,78.2661 C64.2701624,71.0371 60.3812051,64.7701 52.482265,64.7701 C47.4990342,64.7701 43.3660085,67.7831 41.5445726,71.7581 C41.0574444,72.7221 40.8153932,74.1691 40.8153932,76.3371 C41.1784701,84.6531 45.1904701,92.1231 53.5755299,92.1231 C60.1381453,92.1231 64.2701624,86.2191 64.2701624,78.2661 Z M74.356641,38.9821 C72.2911368,38.8621 70.1035983,38.9821 67.1868803,39.2231 C50.7808462,40.5491 43.4880427,48.8641 41.4225385,58.0221 L41.7866239,58.0221 C45.6755812,54.0451 51.1439231,51.7551 58.5577521,51.7551 C71.8050171,51.7551 82.9857692,61.0351 82.9857692,77.3021 C82.9857692,92.8451 70.9538034,105.6191 53.8185897,105.6191 C32.7944188,105.6191 22.4638718,90.0751 22.4638718,71.3971 C22.4638718,56.6971 27.9322137,44.4061 36.4393077,36.5731 C44.3392564,29.4641 54.5477692,25.6071 66.9438205,25.0041 C70.3466581,24.7641 72.5341966,24.7641 74.356641,24.8831 L74.356641,38.9821 Z" id="Fill-11" fill="#FFC033"></path>
                <path d="M113.124079,58.2397 C113.124079,64.2807 109.273446,67.4337 105.063771,67.4337 C100.675583,67.4337 97.1819761,64.1467 97.1365915,58.7277 C97.1365915,53.5787 100.315532,49.6707 105.287668,49.6707 C110.304181,49.6707 113.124079,53.3107 113.124079,58.2397 Z M84.4631897,67.5207 L101.167754,37.6807 L104.839874,37.6807 L88.0909333,67.5207 L84.4631897,67.5207 Z M92.1664718,46.2507 C92.1664718,52.2917 88.3158393,55.4447 84.1061641,55.4447 C79.6715829,55.4447 76.1779761,52.1577 76.1779761,46.7387 C76.1779761,41.5897 79.3579248,37.6807 84.3300615,37.6807 C89.3455658,37.6807 92.1664718,41.3217 92.1664718,46.2507 Z" id="Fill-13" fill="#D86600"></path>
                <path d="M104.546588,58.5502 C104.501203,61.5702 105.53093,63.7452 107.501631,63.7452 C109.426947,63.7452 110.367921,61.7932 110.367921,58.5502 C110.367921,55.6212 109.606468,53.3552 107.501631,53.3552 C105.442178,53.3552 104.546588,55.6652 104.546588,58.5502 Z M115.427802,58.2392 C115.427802,64.2802 111.577169,67.4342 107.366485,67.4342 C102.978297,67.4342 99.4846906,64.1472 99.439306,58.7282 C99.439306,53.5782 102.619255,49.6702 107.591391,49.6702 C112.606896,49.6702 115.427802,53.3112 115.427802,58.2392 Z M86.7659043,67.5212 L103.470468,37.6812 L107.142588,37.6812 L90.3946564,67.5212 L86.7659043,67.5212 Z M83.542588,46.5612 C83.542588,49.5802 84.5723145,51.7562 86.5420068,51.7562 C88.4693402,51.7562 89.4082974,49.8042 89.4082974,46.5612 C89.4082974,43.6322 88.6024684,41.3652 86.4976308,41.3652 C84.4835624,41.3652 83.542588,43.6762 83.542588,46.5612 Z M94.4691863,46.2502 C94.4691863,52.2912 90.6185538,55.4452 86.4088786,55.4452 C81.975306,55.4452 78.4816991,52.1572 78.4816991,46.7382 C78.4816991,41.5892 81.6616479,37.6812 86.6327761,37.6812 C91.6482803,37.6812 94.4691863,41.3212 94.4691863,46.2502 Z" id="Fill-15" fill="#FFD833"></path>
                <path d="M106.563682,58.5502 C106.518297,61.5702 107.548024,63.7452 109.518725,63.7452 C111.444041,63.7452 112.385015,61.7932 112.385015,58.5502 C112.385015,55.6212 111.623562,53.3552 109.518725,53.3552 C107.459272,53.3552 106.563682,55.6652 106.563682,58.5502 Z M117.444896,58.2392 C117.444896,64.2802 113.594263,67.4342 109.383579,67.4342 C104.995391,67.4342 101.501785,64.1472 101.4564,58.7282 C101.4564,53.5782 104.636349,49.6702 109.608485,49.6702 C114.62399,49.6702 117.444896,53.3112 117.444896,58.2392 Z M88.7829983,67.5212 L105.487562,37.6812 L109.159682,37.6812 L92.4117504,67.5212 L88.7829983,67.5212 Z M85.5596821,46.5612 C85.5596821,49.5802 86.5894085,51.7562 88.5591009,51.7562 C90.4864342,51.7562 91.4253915,49.8042 91.4253915,46.5612 C91.4253915,43.6322 90.6195624,41.3652 88.5147248,41.3652 C86.5006564,41.3652 85.5596821,43.6762 85.5596821,46.5612 Z M96.4862803,46.2502 C96.4862803,52.2912 92.6356479,55.4452 88.4259726,55.4452 C83.9924,55.4452 80.4987932,52.1572 80.4987932,46.7382 C80.4987932,41.5892 83.6787419,37.6812 88.6498701,37.6812 C93.6653744,37.6812 96.4862803,41.3212 96.4862803,46.2502 Z" id="Fill-17" fill="#FFC033"></path>
            </g>
        </g>
    </g>
</svg>