<?xml version="1.0" encoding="UTF-8"?>
<svg width="92px" height="106px" viewBox="0 0 92 106" version="1.1" xmlns="http://www.w3.org/2000/svg" xmlns:xlink="http://www.w3.org/1999/xlink">
    <!-- Generator: Sketch 48.2 (47327) - http://www.bohemiancoding.com/sketch -->
    <title>service-icon-2</title>
    <desc>Created with Sketch.</desc>
    <defs>
        <linearGradient x1="1.50669643%" y1="98.4933036%" x2="98.6180786%" y2="1.38192135%" id="linearGradient-1">
            <stop stop-color="#B299D1" offset="0%"></stop>
            <stop stop-color="#D5B1E4" offset="100%"></stop>
        </linearGradient>
    </defs>
    <g id="Tech-Solutions" stroke="none" stroke-width="1" fill="none" fill-rule="evenodd" transform="translate(-532.000000, -757.000000)">
        <g id="2" transform="translate(450.000000, 757.000000)">
            <g id="Big-icons/EMCSSL" transform="translate(82.000000, 0.000000)">
                <g id="Group-3">
                    <polygon id="Page-1" fill="#F6F2FB" transform="translate(46.000000, 53.000000) rotate(-270.000000) translate(-46.000000, -53.000000) " points="19.5051456 7 -7 53.0001298 19.5051456 99 72.1151068 99 99 53 71.6983107 7"></polygon>
                    <path d="M48.0039062,25.0017949 L48.0078125,25.0035897 L48.0039062,25.0017949 Z M48.0078125,25.0035897 L72.0078125,36.0312489 C72.0078125,38.0768226 72.0078125,44.6419271 72.0078125,55.7265625 C72.0078125,66.8093942 64.0078125,75.1721366 48.0078125,80.8147896 Z M48,80.8147896 C32,75.1721366 24,66.8093942 24,55.7265625 C24,44.6419271 24,38.0768226 24,36.0312489 L48,25.0035897 L48,80.8147896 Z" id="Combined-Shape" fill="url(#linearGradient-1)"></path>
                    <path d="M47.9941406,32.1608887 L47.9941406,74.0534668 C35.3313802,69.0385946 29,62.6066276 29,54.7575659 C29,46.9085042 29,42.2597351 29,40.8112586 L47.9941406,32.1608887 Z" id="Path-2" fill="#7B6696"></path>
                    <path d="M49.2433943,43.380566 L48,40.6503699 L51,40.6503699 L51,42.5805672 L49.2433943,43.380566 Z M66.9941406,35.2964665 L66.9941406,32 L48,40.6503699 L48,54.5966772 C48,62.4457389 54.3313802,68.8777059 66.9941406,73.8925781 L66.9941406,70.6553995 C56.1083132,66.1341711 51,60.7468608 51,54.5966772 L51,42.5805672 L66.9941406,35.2964665 Z M51,40.6503699 L48,40.6503699 L49.2433943,43.380566 L51,42.5805672 L51,40.6503699 Z M66.9941406,35.2964665 L66.9941406,32 L48,40.6503699 L48,54.5966772 C48,62.4457389 54.3313802,68.8777059 66.9941406,73.8925781 L66.9941406,70.6553995 C56.1083132,66.1341711 51,60.7468608 51,54.5966772 L51,42.5805672 L66.9941406,35.2964665 Z" id="Path-2" fill="#7B6696" fill-rule="nonzero" transform="translate(57.497070, 52.946289) scale(-1, 1) translate(-57.497070, -52.946289) "></path>
                </g>
            </g>
        </g>
    </g>
</svg>