<?xml version="1.0" encoding="UTF-8"?>
<svg width="25px" height="25px" viewBox="0 0 25 25" version="1.1" xmlns="http://www.w3.org/2000/svg" xmlns:xlink="http://www.w3.org/1999/xlink">
    <!-- Generator: Sketch 48.2 (47327) - http://www.bohemiancoding.com/sketch -->
    <title>api</title>
    <desc>Created with Sketch.</desc>
    <defs>
        <linearGradient x1="50%" y1="100%" x2="50%" y2="0%" id="linearGradient-1">
            <stop stop-color="#B299D1" offset="0%"></stop>
            <stop stop-color="#D5B1E4" offset="100%"></stop>
        </linearGradient>
    </defs>
    <g id="Symbols" stroke="none" stroke-width="1" fill="none" fill-rule="evenodd">
        <g id="api">
            <g id="Group-6" transform="translate(12.000000, 12.500000) rotate(-315.000000) translate(-12.000000, -12.500000) translate(3.000000, -4.000000)">
                <path d="M9.42708719,22.4722325 C12.8401318,22.4722325 15.6069511,20.275644 15.6069511,14.0701084 C15.6069511,7.86457271 12.8401318,0 9.42708719,0 C6.01404258,0 3.24722325,7.86457271 3.24722325,14.0701084 C3.24722325,20.275644 6.01404258,22.4722325 9.42708719,22.4722325 Z" id="Oval-3" fill="url(#linearGradient-1)"></path>
                <path d="M3.24127804,23.5888006 L6.40148127,21.1384923 L3.74168187,13.4833395 L3.09632477,14.0490199 C1.23523634,15.6803358 0.444357082,18.2164377 1.04827837,20.6164628 L1.65875746,23.0425491 C1.79352831,23.5781378 2.3369621,23.9030649 2.87255081,23.768294 C3.00654004,23.7345782 3.13208872,23.6734621 3.24127804,23.5888006 Z" id="Path-12" fill="#7B6696"></path>
                <path d="M14.628655,23.5888006 L17.7888583,21.1384923 L15.1290589,13.4833395 L14.4837018,14.0490199 C12.6226133,15.6803358 11.8317341,18.2164377 12.4356554,20.6164628 L13.0461345,23.0425491 C13.1809053,23.5781378 13.7243391,23.9030649 14.2599278,23.768294 C14.393917,23.7345782 14.5194657,23.6734621 14.628655,23.5888006 Z" id="Path-12" fill="#7B6696" transform="translate(15.012487, 18.641051) scale(-1, 1) translate(-15.012487, -18.641051) "></path>
                <circle id="Oval-5" fill="#7B6696" cx="9.42708719" cy="7.30347556" r="2.80902906"></circle>
                <path d="M5.4944465,23.5958441 C6.83118583,25.093993 8.15130148,25.8430674 9.45479343,25.8430674 C10.7582854,25.8430674 12.0599302,25.093993 13.3597279,23.5958441 C13.3597279,23.8800389 13.3597279,24.8770064 13.3597279,26.5867468 C13.3597279,28.2964873 12.0488476,30.2958174 9.42708719,32.5847371 C6.80532673,30.3228835 5.4944465,28.3235534 5.4944465,26.5867468 C5.4944465,24.8499403 5.4944465,23.8529727 5.4944465,23.5958441 Z" id="Rectangle-30" fill="#7B6696"></path>
            </g>
        </g>
    </g>
</svg>