<?xml version="1.0" encoding="UTF-8"?>
<svg width="92px" height="106px" viewBox="0 0 92 106" version="1.1" xmlns="http://www.w3.org/2000/svg" xmlns:xlink="http://www.w3.org/1999/xlink">
    <!-- Generator: Sketch 48.2 (47327) - http://www.bohemiancoding.com/sketch -->
    <title>service-icon-1</title>
    <desc>Created with Sketch.</desc>
    <defs>
        <linearGradient x1="1.50669643%" y1="98.4933036%" x2="98.6180786%" y2="1.38192135%" id="linearGradient-1">
            <stop stop-color="#B299D1" offset="0%"></stop>
            <stop stop-color="#D5B1E4" offset="100%"></stop>
        </linearGradient>
        <path d="M0,0.05859375 L42,0.05859375 L42,7 C42,9.209139 40.209139,11 38,11 L4,11 C1.790861,11 -1.73547709e-16,9.209139 -4.4408921e-16,7 L0,0.05859375 Z" id="path-2"></path>
    </defs>
    <g id="Big-icons/EMCDNS" stroke="none" stroke-width="1" fill="none" fill-rule="evenodd">
        <g id="service-icon-1">
            <polygon fill="#F6F2FB" transform="translate(46.000000, 53.000000) rotate(-270.000000) translate(-46.000000, -53.000000) " points="19.5051456 7 -7 53.0001298 19.5051456 99 72.1151068 99 99 53 71.6983107 7"></polygon>
            <g id="Group-20" transform="translate(25.000000, 25.000000)">
                <path d="M8.5,22.5 L33.5,22.5 L33.5,14 C33.5,7.09644063 27.9035594,1.5 21,1.5 C14.0964406,1.5 8.5,7.09644063 8.5,14 L8.5,22.5 Z" id="Rectangle-5" stroke="#7B6696" stroke-width="3"></path>
                <rect id="Rectangle-5" fill="url(#linearGradient-1)" x="0" y="21" width="42" height="35" rx="4"></rect>
                <g id="Rectangle" transform="translate(0.000000, 45.000000)">
                    <mask id="mask-3" fill="white">
                        <use xlink:href="#path-2"></use>
                    </mask>
                    <use id="Mask" fill="#896DAD" xlink:href="#path-2"></use>
                    <path d="M6.75570505,-5 L10.80079,-2.06107374 L-0.954915028,14.1192661 L-5,11.1803399 L6.75570505,-5 Z M18.755705,-5 L22.80079,-2.06107374 L11.045085,14.1192661 L7,11.1803399 L18.755705,-5 Z M31.35531,-5 L35.400395,-2.06107374 L23.64469,14.1192661 L19.599605,11.1803399 L31.35531,-5 Z M43.35531,-5 L47.400395,-2.06107374 L35.64469,14.1192661 L31.599605,11.1803399 L43.35531,-5 Z" id="Combined-Shape" fill="#B397D6" mask="url(#mask-3)"></path>
                </g>
                <path d="M20.4155973,33.7532081 C19.5779733,33.3493467 19,32.4921698 19,31.5 C19,30.1192881 20.1192881,29 21.5,29 C22.8807119,29 24,30.1192881 24,31.5 C24,32.4921698 23.4220267,33.3493467 22.5844027,33.7532081 L24,38 L19,38 L20.4155973,33.7532081 Z" id="Combined-Shape" fill="#7B6696"></path>
            </g>
        </g>
    </g>
</svg>