<?xml version="1.0" encoding="UTF-8"?>
<svg width="30px" height="30px" viewBox="0 0 30 30" version="1.1" xmlns="http://www.w3.org/2000/svg" xmlns:xlink="http://www.w3.org/1999/xlink">
    <!-- Generator: Sketch 49.1 (51147) - http://www.bohemiancoding.com/sketch -->
    <title>In_Color</title>
    <desc>Created with Sketch.</desc>
    <defs></defs>
    <g id="Desctop" stroke="none" stroke-width="1" fill="none" fill-rule="evenodd">
        <g id="Team" transform="translate(-762.000000, -563.000000)">
            <g id="1" transform="translate(545.000000, 290.000000)">
                <g id="Group" transform="translate(0.000000, 274.000000)">
                    <g id="Group-12" transform="translate(218.000000, 0.000000)">
                        <g id="In">
                            <path d="M0,14 C0,6.26801312 6.26801312,0 14,0 C21.7319869,0 28,6.26801312 28,14 C28,21.7319869 21.7319869,28 14,28 C6.26801312,28 0,21.7319869 0,14 Z" id="back" stroke="#55ACEE" fill="#55ACEE"></path>
                            <path d="M14.4908519,10.8178129 L14.5265253,11.4060513 L13.9319679,11.3340221 C11.7677788,11.0579102 9.8770862,10.1215308 8.27178114,8.54889358 L7.48696533,7.7685774 L7.28481581,8.34481089 C6.85673446,9.62933137 7.13023088,10.985881 8.02206702,11.8982507 C8.49771296,12.402455 8.39069263,12.4744842 7.57020337,12.1743626 C7.28481581,12.0783237 7.03510169,12.0062945 7.01131939,12.0423091 C6.92808135,12.1263432 7.21346892,13.2187858 7.43940074,13.6509609 C7.7485706,14.2512041 8.37880148,14.8394425 9.0684881,15.1875836 L9.65115438,15.4636954 L8.96146776,15.4757003 C8.29556344,15.4757003 8.27178114,15.4877052 8.34312803,15.7398073 C8.580951,16.5201235 9.52035174,17.3484591 10.5667728,17.7086051 L11.304024,17.9607072 L10.661902,18.3448629 C9.71061012,18.8970866 8.59284215,19.2092131 7.47507419,19.2332228 C6.9399725,19.2452277 6.5,19.2932472 6.5,19.3292618 C6.5,19.4493104 7.95072013,20.1215828 8.79499168,20.3856898 C11.3278063,21.166006 14.3362669,20.8298698 16.5955852,19.4973299 C18.2008902,18.5489456 19.8061953,16.6641819 20.5553376,14.8394425 C20.9596367,13.8670485 21.3639357,12.0903286 21.3639357,11.2379832 C21.3639357,10.6857594 21.3996092,10.6137302 22.0655135,9.95346271 C22.4579214,9.56930705 22.826547,9.1491368 22.8978939,9.02908816 C23.0168054,8.80099573 23.0049143,8.80099573 22.3984657,9.00507843 C21.387718,9.36522436 21.2450243,9.3172049 21.7444525,8.77698601 C22.1130781,8.39283035 22.5530506,7.69654821 22.5530506,7.49246552 C22.5530506,7.45645093 22.3746834,7.51647525 22.1725339,7.62451903 C21.9584932,7.74456767 21.4828472,7.92464064 21.1261128,8.03268442 L20.4839908,8.23676711 L19.9013245,7.84060659 C19.5802635,7.62451903 19.1283998,7.38442174 18.8905768,7.31239256 C18.2841283,7.14432446 17.3566187,7.16833418 16.8096258,7.36041201 C15.3232323,7.90063091 14.3838315,9.29319517 14.4908519,10.8178129 Z" id="Shape" fill="#FFFFFF"></path>
                        </g>
                    </g>
                </g>
            </g>
        </g>
    </g>
</svg>