<svg xmlns="http://www.w3.org/2000/svg" width="30" height="30" viewBox="0 0 30 30">
    <g fill="none" fill-rule="evenodd">
        <path fill="#007CB5" stroke="#007CB5" d="M1 15C1 7.268 7.268 1 15 1s14 6.268 14 14-6.268 14-14 14S1 22.732 1 15z"/>
        <path fill="#FEFEFE" d="M9.445 5.118a1.856 1.856 0 1 1-.002 3.712 1.856 1.856 0 0 1 .002-3.712zM7.843 20.534V10.236h3.203v10.298H7.843zm5.21-10.298h3.069v1.408h.043c.427-.81 1.472-1.663 3.029-1.663 3.24 0 3.839 2.132 3.839 4.906v5.647h-3.2v-5.008c0-1.194-.021-2.73-1.663-2.73-1.665 0-1.92 1.301-1.92 2.645v5.093h-3.196V10.236z"/>
    </g>
</svg>
