<?xml version="1.0" encoding="UTF-8"?>
<svg width="140px" height="160px" viewBox="0 0 140 160" version="1.1" xmlns="http://www.w3.org/2000/svg" xmlns:xlink="http://www.w3.org/1999/xlink">
    <!-- Generator: Sketch 49.3 (51167) - http://www.bohemiancoding.com/sketch -->
    <title>sll</title>
    <desc>Created with Sketch.</desc>
    <defs></defs>
    <g id="Symbols" stroke="none" stroke-width="1" fill="none" fill-rule="evenodd">
        <g id="Icons/products/sll">
            <g id="sll">
                <polygon id="Fill-1" fill="#F7F7F7" points="70 0 0 40.008 0 119.419 70 160 140 118.789 140 40.008"></polygon>
                <polygon id="Fill-2" fill="#E8E8E8" points="128 46.7559985 70.4994949 14 13 46.7559985 13 111.773116 70.4994949 145 128 111.259242"></polygon>
                <g id="Group-29" transform="translate(38.000000, 29.000000)">
                    <path d="M7.68630337,38.0059 L59.1400112,38.0059 C63.0231573,38.0059 66.1711348,41.1189 66.1711348,44.9589 L66.1711348,85.4639 C66.1711348,89.3039 63.0231573,92.4169 59.1400112,92.4169 L7.68630337,92.4169 C3.8031573,92.4169 0.655179775,89.3039 0.655179775,85.4639 L0.655179775,44.9589 C0.655179775,41.1189 3.8031573,38.0059 7.68630337,38.0059" id="Fill-3" fill="#FFC033"></path>
                    <path d="M0.65558427,76.6465 L66.1715393,76.6465 L66.1715393,85.4635 C66.1715393,89.3035 63.0235618,92.4175 59.1404157,92.4175 L7.68670787,92.4175 C3.8035618,92.4175 0.65558427,89.3035 0.65558427,85.4635 L0.65558427,76.6465 Z" id="Fill-5" fill="#F7931E"></path>
                    <path d="M0.65558427,76.6465 L0.65558427,85.4635 C0.65558427,89.3035 3.8035618,92.4175 7.68670787,92.4175 L21.5012022,92.4175 L5.55401124,76.6465 L0.65558427,76.6465 Z" id="Fill-7" fill="#D86600"></path>
                    <polygon id="Fill-9" fill="#D86600" points="19.4359551 76.6465 35.3841573 92.4175 52.4224719 92.4175 36.4752809 76.6465"></polygon>
                    <path d="M66.1711348,85.4639 L66.1711348,76.6469 L49.9215843,76.6469 L63.9464157,90.5159 C65.3085506,89.2469 66.1711348,87.4599 66.1711348,85.4639" id="Fill-11" fill="#D86600"></path>
                    <path d="M7.68630337,38.0059 L59.1400112,38.0059 C63.0231573,38.0059 66.1711348,41.1189 66.1711348,44.9589 C66.1711348,44.9589 22.9964157,56.8559 0.655179775,76.6469 L0.655179775,44.9589 C0.655179775,41.1189 3.8031573,38.0059 7.68630337,38.0059" id="Fill-13" fill="#FFD833"></path>
                    <path d="M31.0735618,58.7656 C29.2664831,57.9046 28.018618,56.0756 28.018618,53.9576 C28.018618,51.0116 30.4344607,48.6236 33.4125506,48.6236 C36.3926629,48.6236 38.8074944,51.0116 38.8074944,53.9576 C38.8074944,56.0756 37.5606404,57.9046 35.7525506,58.7656 L38.8074944,67.8276 L28.018618,67.8276 L31.0735618,58.7656 Z" id="Fill-15" fill="#D86600"></path>
                    <path d="M21.854427,19.3135 C21.854427,12.2305 27.6821798,6.4675 34.844764,6.4675 C42.0083596,6.4675 47.8351011,12.2305 47.8351011,19.3135 L47.8351011,38.0055 L54.0845393,38.0055 C54.0855506,37.9445 54.087573,33.6075 54.087573,33.5425 L54.087573,19.3755 C54.087573,8.7865 45.3777978,0.1735 34.6698202,0.1735 C23.9618427,0.1735 15.2520674,8.7865 15.2520674,19.3755 L21.854427,19.3135 Z" id="Fill-17" fill="#4A3777"></path>
                    <path d="M3.54539326,31.618 C4.22191011,31.961 5.26146067,32.304 6.33438202,32.304 C7.49022472,32.304 8.10101124,31.83 8.10101124,31.112 C8.10101124,30.427 7.57213483,30.035 6.23629213,29.561 C4.38674157,28.925 3.18235955,27.913 3.18235955,26.313 C3.18235955,24.435 4.76696629,23 7.3911236,23 C8.64505618,23 9.57033708,23.261 10.2306742,23.555 L9.6694382,25.561 C9.22348315,25.349 8.43168539,25.04 7.34157303,25.04 C6.25247191,25.04 5.72359551,25.53 5.72359551,26.101 C5.72359551,26.803 6.35157303,27.113 7.78752809,27.651 C9.75134831,28.37 10.6766292,29.382 10.6766292,30.932 C10.6766292,32.777 9.23966292,34.345 6.18674157,34.345 C4.91460674,34.345 3.66067416,34.017 3.03370787,33.675 L3.54539326,31.618 Z" id="Fill-19" fill="#4A3777"></path>
                    <path d="M11.6352809,31.618 C12.3117978,31.961 13.3513483,32.304 14.4242697,32.304 C15.5801124,32.304 16.1908989,31.83 16.1908989,31.112 C16.1908989,30.427 15.6620225,30.035 14.3261798,29.561 C12.4766292,28.925 11.2722472,27.913 11.2722472,26.313 C11.2722472,24.435 12.8568539,23 15.4810112,23 C16.7349438,23 17.6602247,23.261 18.3205618,23.555 L17.7593258,25.561 C17.3133708,25.349 16.521573,25.04 15.4314607,25.04 C14.3423596,25.04 13.8134831,25.53 13.8134831,26.101 C13.8134831,26.803 14.4414607,27.113 15.8774157,27.651 C17.841236,28.37 18.7665169,29.382 18.7665169,30.932 C18.7665169,32.777 17.3295506,34.345 14.2766292,34.345 C13.0044944,34.345 11.7505618,34.017 11.1235955,33.675 L11.6352809,31.618 Z" id="Fill-19" fill="#4A3777"></path>
                    <polygon id="Fill-23" fill="#4A3777" points="20.2247191 23 22.7497753 23 22.7497753 31.912 27.1739326 31.912 27.1739326 34.001 20.2247191 34.001"></polygon>
                    <path d="M73.7059551,99.0664 C82.3540449,99.0664 89.3649438,92.1324 89.3649438,83.5814 C89.3649438,75.0284 82.3540449,68.0944 73.7059551,68.0944 C65.0568539,68.0944 58.0459551,75.0284 58.0459551,83.5814 C58.0459551,92.1324 65.0568539,99.0664 73.7059551,99.0664" id="Fill-25" fill="#39B54A"></path>
                    <path d="M72.5693258,85.6162 L78.9350562,78.2322 C79.7723596,77.2622 81.2467416,77.1452 82.2286517,77.9732 C83.2095506,78.8012 83.3268539,80.2592 82.4905618,81.2292 L74.5240449,90.4692 C73.654382,91.4762 72.107191,91.5562 71.1364045,90.6432 L66.6465169,86.4202 C65.7111236,85.5412 65.6747191,84.0792 66.5635955,83.1542 C67.4524719,82.2302 68.9308989,82.1932 69.8652809,83.0732 L72.5693258,85.6162 Z" id="Fill-27" fill="#FFFFFF"></path>
                </g>
            </g>
        </g>
    </g>
</svg>