<?xml version="1.0" encoding="UTF-8"?>
<svg width="46px" height="44px" viewBox="0 0 46 44" version="1.1" xmlns="http://www.w3.org/2000/svg" xmlns:xlink="http://www.w3.org/1999/xlink">
    <!-- Generator: Sketch 49.3 (51167) - http://www.bohemiancoding.com/sketch -->
    <title>team</title>
    <desc>Created with Sketch.</desc>
    <defs>
        <linearGradient x1="1.50669643%" y1="98.4933036%" x2="74.3776446%" y2="15.6922656%" id="linearGradient-1">
            <stop stop-color="#B299D1" offset="0%"></stop>
            <stop stop-color="#D5B1E4" offset="100%"></stop>
        </linearGradient>
        <linearGradient x1="1.50669643%" y1="98.4933036%" x2="71.5203327%" y2="18.8390711%" id="linearGradient-2">
            <stop stop-color="#B299D1" offset="0%"></stop>
            <stop stop-color="#D5B1E4" offset="100%"></stop>
        </linearGradient>
        <path d="M23.6655249,30.3838825 C22.6089145,29.8489643 21.9492,28.7812631 21.9492,27.5967 L21.9492,24.5393135 L22.1723538,24.2640097 C22.3441747,24.0520349 22.521919,23.8162043 22.7077372,23.5528905 C23.6476774,22.2286444 24.3985048,20.7559773 24.9409047,19.1683965 L25.0801973,18.7606929 L25.4721831,18.5818863 C26.2525218,18.2259302 26.7502,17.4576623 26.7502,16.6017 L26.7502,13.3967 C26.7502,12.8766691 26.5536723,12.3640743 26.1983841,11.9602116 L25.9492,11.6769593 L25.9492,7.0417 C25.9983889,6.52980228 25.9870652,5.93566151 25.8591773,5.26553258 C25.6645239,4.24555395 25.2390531,3.2961663 24.5251962,2.48285882 C23.0981542,0.854812635 20.7154365,0.00340684191 17.3763096,-0.000300615572 C14.0349635,0.00340684191 11.6522458,0.854812635 10.2247623,2.48336213 C9.51134687,3.2961663 9.0858761,4.24555395 8.8912227,5.26553258 C8.76333485,5.93566151 8.75201114,6.52980228 8.79549197,6.93500657 L8.8012,11.6769593 L8.55201588,11.9602116 C8.19672773,12.3640743 8.0002,12.8766691 8.0002,13.3967 L8.0002,16.6017 C8.0002,17.4576623 8.49787817,18.2259302 9.27821688,18.5818863 L9.67020266,18.7606929 L9.80949532,19.1683965 C10.3518952,20.7559773 11.1027226,22.2286444 12.0442482,23.5551306 C12.228481,23.8162043 12.4062253,24.0520349 12.5780462,24.2640097 L12.8012,24.5393135 L12.8012,27.5967 C12.8012,28.7812631 12.1414855,29.8489643 11.0801796,30.3862442 L3.4352682,34.2061999 C1.31390082,35.2664526 0.000199999995,37.3926708 0.000199999995,39.7647 L0.000199999995,41.9997 C3.04938307,43.3330333 8.89900716,43.9997 17.5490723,43.9997 C26.1991374,43.9997 31.9328466,43.3330333 34.7502,41.9997 L34.7502,39.7647 C34.7502,37.3927038 33.4365358,35.2665118 31.3152204,34.2062442 L23.6655249,30.3838825 Z" id="path-3"></path>
    </defs>
    <g id="Desctop" stroke="none" stroke-width="1" fill="none" fill-rule="evenodd">
        <g id="Our-partners-1" transform="translate(-1186.000000, -1367.000000)">
            <g id="Group-46" transform="translate(1186.000000, 1367.000000)">
                <g id="team">
                    <path d="M36.7502,39.8653378 L36.7502,39.7647 C36.7502,36.6351711 35.008508,33.8162513 32.2092682,32.4172001 L31.7622,33.3117 L32.2091796,32.4171558 L26.3487708,29.4888679 L26.8631748,29.2318341 C27.4109804,28.9545027 27.7530732,28.4044114 27.7530732,27.7880348 L27.7530732,25.728621 C27.6128837,25.5556698 27.4673609,25.3629093 27.315743,25.1480537 C26.7007794,24.2816549 26.1849833,23.3352174 25.7781746,22.3226531 C26.1250226,21.6373431 26.4327497,20.9268174 26.699693,20.1941159 C27.9608522,19.4482853 28.7502,18.0926227 28.7502,16.6017 L28.7502,13.3967 C28.7502,12.5187435 28.466053,11.6626965 27.9492,10.9506761 L27.9492,7.0924509 C27.9604568,6.97620439 27.9687049,6.85265823 27.9734057,6.7225833 C29.0678268,6.24374722 30.4133689,6.00176037 31.9999,6 C34.746547,6.0030476 36.7709135,6.72609005 38.0204284,8.15160368 C39.4642276,9.79654431 39.3301334,11.7934824 39.2943241,12.1271943 L39.2943241,15.3713616 C39.6844165,15.814787 39.9046054,16.3831639 39.9046054,16.9690645 L39.9046054,19.4109518 C39.9046054,20.3678974 39.3453713,21.2204627 38.485187,21.6128409 C38.0470949,22.8951174 37.440623,24.0821566 36.684057,25.1480537 C36.5324391,25.3629093 36.3869163,25.5556698 36.2467268,25.728621 L36.2467268,27.7880348 C36.2467268,28.4044114 36.5888196,28.9545027 37.1366252,29.2318341 L42.9613455,32.1422895 C44.8363797,33.0794256 45.9998,34.9636026 45.9998,37.0588258 L45.9998,38.9804688 C42.9166,39.420929 39.8334,39.7158854 36.7502,39.8653378 Z" id="Combined-Shape" fill="url(#linearGradient-1)"></path>
                    <g id="Rectangle-5">
                        <mask id="mask-4" fill="white">
                            <use xlink:href="#path-3"></use>
                        </mask>
                        <use id="Mask" fill="url(#linearGradient-2)" fill-rule="nonzero" xlink:href="#path-3"></use>
                        <polygon fill="#7B6696" mask="url(#mask-4)" points="0 29 12.5367432 29 17.5 32.0606689 22.2696533 29 35 29 35 43 17.6491699 45 0 43"></polygon>
                    </g>
                </g>
            </g>
        </g>
    </g>
</svg>