<?xml version="1.0" encoding="UTF-8"?>
<svg width="1440px" height="210px" viewBox="0 0 1440 210" version="1.1" xmlns="http://www.w3.org/2000/svg" xmlns:xlink="http://www.w3.org/1999/xlink">
    <!-- Generator: Sketch 49.3 (51167) - http://www.bohemiancoding.com/sketch -->
    <title>technology-header</title>
    <desc>Created with Sketch.</desc>
    <defs>
        <linearGradient x1="0%" y1="55.2971959%" x2="100%" y2="55.2971972%" id="linearGradient-1">
            <stop stop-color="#412E5B" offset="0%"></stop>
            <stop stop-color="#412E5B" stop-opacity="0" offset="100%"></stop>
        </linearGradient>
        <linearGradient x1="100%" y1="54.469636%" x2="0%" y2="54.4696331%" id="linearGradient-2">
            <stop stop-color="#412E5B" offset="0%"></stop>
            <stop stop-color="#412E5B" stop-opacity="0" offset="100%"></stop>
        </linearGradient>
    </defs>
    <g id="Desctop" stroke="none" stroke-width="1" fill="none" fill-rule="evenodd">
        <g id="Tech-Solutions-ssl" transform="translate(0.000000, -119.000000)">
            <g id="Banner" transform="translate(0.000000, 119.000000)">
                <g id="technology-header">
                    <path d="M2,165.452683 C62.4114583,103.658707 151.794271,72.7617187 270.148438,72.7617188 C447.679687,72.7617188 487.22265,164.413007 775.671875,165.452683 C1064.1211,166.49236 1142.57031,11.6666667 1442,11.6666667 C1442,57.7736009 1442,123.884712 1442,210 L757.765625,210 L2,210 L2,165.452683 Z" id="Rectangle-35" fill="#9072B6" opacity="0.262850996"></path>
                    <path d="M1442,123.442555 L1442,208.939394 L686.234375,208.939394 L2,208.939394 L0,1.06060606 C299.429688,1.06060606 301.215015,153.525427 487.238281,152.855469 C673.261548,152.18551 801.523438,49.3984375 979.054687,49.3984375 C1097.40885,49.3984375 1290.31771,86.982996 1442,123.442555 Z" id="Rectangle-35" fill="#8F75AF" opacity="0.128396739"></path>
                    <rect id="Rectangle-36" fill="url(#linearGradient-1)" x="0" y="0" width="170" height="210"></rect>
                    <rect id="Rectangle-36" fill="url(#linearGradient-2)" x="1270" y="0" width="170" height="210"></rect>
                </g>
            </g>
        </g>
    </g>
</svg>