<?xml version="1.0" encoding="UTF-8"?>
<svg width="140px" height="160px" viewBox="0 0 140 160" version="1.1" xmlns="http://www.w3.org/2000/svg" xmlns:xlink="http://www.w3.org/1999/xlink">
    <!-- Generator: Sketch 49.3 (51167) - http://www.bohemiancoding.com/sketch -->
    <title>tts</title>
    <desc>Created with Sketch.</desc>
    <defs></defs>
    <g id="Symbols" stroke="none" stroke-width="1" fill="none" fill-rule="evenodd">
        <g id="Icons/products/tts">
            <g id="tts">
                <polygon id="Fill-1" fill="#F7F7F7" points="70.0002 -0.0002 0.0002 40.0078 0.0002 119.4188 70.0002 159.9998 139.9992 118.7888 139.9992 40.0078"></polygon>
                <polygon id="Fill-2" fill="#E8E8E8" points="127.3259 47.2489 69.9999 14.4839 12.6749 47.2489 12.6749 112.2819 69.9999 145.5159 127.3259 111.7669"></polygon>
                <g id="Group-21" transform="translate(39.000000, 31.000000)">
                    <path d="M64.1824,82.8104 C64.1824,86.7544 60.9624,89.9524 56.9904,89.9524 L7.9224,89.9524 C3.9504,89.9524 0.7294,86.7544 0.7294,82.8104 L0.7294,15.0924 C0.7294,11.1494 3.9504,7.9524 7.9224,7.9524 L56.9904,7.9524 C60.9624,7.9524 64.1824,11.1494 64.1824,15.0924 L64.1824,82.8104 Z" id="Fill-3" fill="#4A3777"></path>
                    <polygon id="Fill-5" fill="#FFFFFF" points="60.034 83.952 4.878 83.952 4.878 14.821 60.034 14.821 60.034 24.331"></polygon>
                    <path d="M44.6687,10.702 C43.3317,10.702 42.2487,9.626 42.2487,8.3 L42.2487,4.049 C42.2487,2.282 40.8077,0.85 39.0277,0.85 L25.8837,0.85 C24.1057,0.85 22.6627,2.282 22.6627,4.049 L22.6627,8.3 C22.6627,9.626 21.5797,10.702 20.2427,10.702 C17.6897,10.702 15.6197,12.757 15.6197,15.293 L15.6197,18.202 L49.2917,18.202 L49.2917,15.293 C49.2917,12.757 47.2227,10.702 44.6687,10.702" id="Fill-7" fill="#86D8F2"></path>
                    <path d="M53.9353,41.1249 L11.1103,41.1249 C10.0013,41.1249 9.1023,40.2269 9.1023,39.1179 L9.1023,26.2959 C9.1023,25.1869 10.0013,24.2879 11.1103,24.2879 L53.9353,24.2879 C55.0443,24.2879 55.9433,25.1869 55.9433,26.2959 L55.9433,39.1179 C55.9433,40.2269 55.0443,41.1249 53.9353,41.1249" id="Fill-9" fill="#FFC033"></path>
                    <path d="M53.8601,51.4374 L11.1851,51.4374 C10.0351,51.4374 9.1021,50.5054 9.1021,49.3554 C9.1021,48.2054 10.0351,47.2724 11.1851,47.2724 L53.8601,47.2724 C55.0101,47.2724 55.9431,48.2054 55.9431,49.3554 C55.9431,50.5054 55.0101,51.4374 53.8601,51.4374" id="Fill-11" fill="#86D8F2"></path>
                    <path d="M53.7263,62.3007 L11.0513,62.3007 C9.9013,62.3007 8.9683,61.3677 8.9683,60.2177 C8.9683,59.0677 9.9013,58.1347 11.0513,58.1347 L53.7263,58.1347 C54.8763,58.1347 55.8093,59.0677 55.8093,60.2177 C55.8093,61.3677 54.8763,62.3007 53.7263,62.3007" id="Fill-13" fill="#86D8F2"></path>
                    <path d="M33.4636,73.163 L11.1856,73.163 C10.0346,73.163 9.1026,72.23 9.1026,71.08 C9.1026,69.93 10.0346,68.997 11.1856,68.997 L33.4636,68.997 C34.6136,68.997 35.5466,69.93 35.5466,71.08 C35.5466,72.23 34.6136,73.163 33.4636,73.163" id="Fill-15" fill="#86D8F2"></path>
                    <path d="M60.034,101.3886 C68.648,101.3886 75.631,94.4546 75.631,85.9036 C75.631,77.3506 68.648,70.4176 60.034,70.4176 C51.42,70.4176 44.437,77.3506 44.437,85.9036 C44.437,94.4546 51.42,101.3886 60.034,101.3886" id="Fill-17" fill="#39B54A"></path>
                    <path d="M58.9021,87.9384 L65.2431,80.5544 C66.0761,79.5844 67.5451,79.4684 68.5221,80.2954 C69.5001,81.1244 69.6171,82.5824 68.7831,83.5514 L60.8481,92.7914 C59.9831,93.7994 58.4421,93.8784 57.4751,92.9654 L53.0031,88.7434 C52.0711,87.8634 52.0351,86.4014 52.9201,85.4774 C53.8051,84.5524 55.2781,84.5164 56.2091,85.3954 L58.9021,87.9384 Z" id="Fill-19" fill="#FFFFFF"></path>
                </g>
            </g>
        </g>
    </g>
</svg>