<?xml version="1.0" encoding="UTF-8"?>
<svg width="28px" height="24px" viewBox="0 0 28 24" version="1.1" xmlns="http://www.w3.org/2000/svg" xmlns:xlink="http://www.w3.org/1999/xlink">
    <!-- Generator: Sketch 48.2 (47327) - http://www.bohemiancoding.com/sketch -->
    <title>Page 1</title>
    <desc>Created with Sketch.</desc>
    <defs></defs>
    <g id="Our-Social-Channels" stroke="none" stroke-width="1" fill="none" fill-rule="evenodd" transform="translate(-632.000000, -304.000000)">
        <g id="Group-6" transform="translate(287.000000, 294.000000)" fill="#1DA1F2">
            <g id="Page-1" transform="translate(345.000000, 10.000000)">
                <path d="M8.80576708,24 C19.3723667,24 25.1505564,14.7674766 25.1505564,6.76171444 C25.1505564,6.49917858 25.1455346,6.23804036 25.1340961,5.9784469 C26.2556277,5.12323762 27.2308302,4.05602825 28,2.84133095 C26.9706739,3.32359071 25.8629521,3.6485055 24.701037,3.79518427 C25.8869451,3.04516588 26.7975618,1.8584214 27.2269243,0.443567173 C26.1168312,1.13760636 24.8878194,1.6423755 23.5792961,1.91417993 C22.531208,0.736630459 21.0381342,0 19.3861766,0 C16.2134557,0 13.6405589,2.71341 13.6405589,6.05840669 C13.6405589,6.53382537 13.6910557,6.99622392 13.7897477,7.43979109 C9.01535679,7.18659736 4.78164458,4.77559277 1.94880073,1.10957997 C1.45485252,2.00480592 1.17070327,3.04516588 1.17070327,4.15489297 C1.17070327,6.25687174 2.18496404,8.11235073 3.72707005,9.19795013 C2.78492767,9.16749626 1.89955935,8.89422063 1.12536773,8.43998725 C1.12411228,8.46529191 1.12411228,8.49081725 1.12411228,8.51737243 C1.12411228,11.451904 3.10443865,13.9016012 5.73285407,14.4571267 C5.25034438,14.5955668 4.74258627,14.6702302 4.21843762,14.6702302 C3.84836007,14.6702302 3.48853534,14.6315377 3.13854493,14.5609936 C3.86970265,16.9680995 5.99042972,18.7197116 8.50522729,18.769144 C6.53857133,20.3940858 4.06185562,21.362504 1.37045866,21.362504 C0.906710906,21.362504 0.449658862,21.3344776 0,21.2787191 C2.54248713,22.9970821 5.56099748,24 8.80576708,24" id="Fill-1"></path>
            </g>
        </g>
    </g>
</svg>