<svg xmlns="http://www.w3.org/2000/svg" xmlns:xlink="http://www.w3.org/1999/xlink" width="25" height="21" viewBox="0 0 25 21">
    <defs>
        <path id="a" d="M0 0h25v21H0z"/>
    </defs>
    <g fill="none" fill-rule="evenodd">
        <mask id="b" fill="#fff">
            <use xlink:href="#a"/>
        </mask>
        <path fill="#1DA1F2" d="M7.862 21c9.435 0 14.594-8.078 14.594-15.083 0-.23-.005-.459-.015-.686A10.641 10.641 0 0 0 25 2.486a9.983 9.983 0 0 1-2.946.835A5.292 5.292 0 0 0 24.31.388a10.077 10.077 0 0 1-3.257 1.287A5.048 5.048 0 0 0 17.309 0c-2.833 0-5.13 2.374-5.13 5.301 0 .416.045.82.133 1.209C8.05 6.288 4.27 4.179 1.74.97a5.418 5.418 0 0 0-.695 2.666c0 1.839.906 3.462 2.283 4.412a4.965 4.965 0 0 1-2.323-.663l-.001.068c0 2.567 1.768 4.71 4.115 5.197a4.988 4.988 0 0 1-2.317.09c.653 2.107 2.547 3.64 4.792 3.683A10.083 10.083 0 0 1 0 18.619 14.18 14.18 0 0 0 7.862 21" mask="url(#b)"/>
    </g>
</svg>
