<?xml version="1.0" encoding="utf-8"?>
<!-- Generator: Adobe Illustrator 22.0.1, SVG Export Plug-In . SVG Version: 6.00 Build 0)  -->
<svg version="1.1" id="Layer_1" xmlns="http://www.w3.org/2000/svg" xmlns:xlink="http://www.w3.org/1999/xlink" x="0px" y="0px"
	 viewBox="0 0 41 50" style="enable-background:new 0 0 41 50;" xml:space="preserve">
<style type="text/css">
	.st0{fill:#7B6798;}
	.st1{fill:#34A800;}
	.st2{fill:#BEBEBE;}
</style>
<g id="Desctop">
	<g id="Benefits-2" transform="translate(-1265.000000, -2656.000000)">
		<g id="Table" transform="translate(345.000000, 2543.000000)">
			<g id="Row-1" transform="translate(25.000000, 82.000000)">
				<g id="Verification" transform="translate(791.000000, 31.000000)">
					<g id="Icons_x2F_small_x2F_type-3" transform="translate(104.000000, 0.000000)">
						<path id="Fill-1" class="st0" d="M23,21.5c0,0-3.8,1.5-10.6,1.5C5.5,23,2,21.5,2,21.5c0-3,5.9-4.5,8.2-4.5v-2.2
							c-0.5-0.4-1.6-1.7-2-2.5c0,0-0.1,0-0.1,0c-0.6,0-1-1.4-1-1.8c0-0.5,0.2-0.7,0.5-0.8C7.3,7,7.2,5.7,8,4.2S10.2,2,12.5,2
							s3.8,0.8,4.5,2.2c0.5,1.1,0.7,2.7,0.7,3.8c-3.2,0.4-5.7,3.1-5.7,6.4c0,3.6,2.9,6.5,6.5,6.5h4.4C23,21.2,23,21.3,23,21.5
							 M34.5,19H24.3h-2.5h-3.3c-1.6,0-2.9-0.8-3.7-2c0,0,0,0,0,0c-0.5-0.7-0.8-1.6-0.8-2.5c0-2.3,1.7-4.1,3.8-4.4
							c0.2,0,0.4-0.1,0.7-0.1h1.3h14.7c2.5,0,4.5,2,4.5,4.5S37,19,34.5,19 M34.5,8H19.6c0-1.3-0.2-3.2-0.9-4.6C18,1.9,16.3,0,12.5,0
							S7,1.9,6.2,3.4C5.3,5.2,5.3,6.8,5.5,8.9c-0.3,0.4-0.4,1-0.4,1.6c0,0.9,0.5,2.7,1.8,3.4c0.3,0.5,0.7,1,1.1,1.4
							c-3.3,0.6-8,2.4-8,6.2v1.3l1.2,0.5c0.2,0.1,4,1.7,11.2,1.7c7.1,0,11.2-1.6,11.3-1.6l1.2-0.5v-1.3c0-0.2,0-0.3,0-0.5h9.6
							c3.6,0,6.5-2.9,6.5-6.5S38.1,8,34.5,8"/>
						<path id="Fill-3" class="st1" d="M20.7,12.3l-2.2,2.6l-0.6-0.6c0,0-0.1,0-0.1-0.1c-0.4-0.3-1-0.3-1.3,0.1
							c-0.4,0.4-0.4,1,0,1.4l1.7,1.7l0.4,0.4l0.2-0.3l1.4-1.6l2-2.3c0.4-0.4,0.3-1.1-0.1-1.4C21.7,11.9,21.1,11.9,20.7,12.3"/>
						<path id="Fill-5" class="st1" d="M27.7,12.3l-2.2,2.6l-0.6-0.6c-0.4-0.4-1-0.4-1.4,0c-0.4,0.4-0.4,1,0,1.4l2.2,2.2l3.6-4.2
							c0.4-0.4,0.3-1.1-0.1-1.4C28.7,11.9,28.1,11.9,27.7,12.3"/>
						<path id="Fill-7" class="st1" d="M34.7,12.3l-2.2,2.6l-0.6-0.6c-0.4-0.4-1-0.4-1.4,0c-0.4,0.4-0.4,1,0,1.4l2.2,2.2l3.6-4.2
							c0.4-0.4,0.3-1.1-0.1-1.4C35.7,11.9,35.1,11.9,34.7,12.3"/>
					</g>
				</g>
			</g>
		</g>
	</g>
</g>
<g id="Desctop_1_">
	<g id="Benefits-2_1_" transform="translate(-1265.000000, -2771.000000)">
		<g id="Table_1_" transform="translate(345.000000, 2543.000000)">
			<g id="Row-1_1_" transform="translate(15.000000, 193.000000)">
				<g id="Verification_1_" transform="translate(801.000000, 35.000000)">
					<g id="Icons_x2F_small_x2F_type-3-grey" transform="translate(104.000000, 0.000000)">
						<path id="Fill-1_1_" class="st2" d="M23,46.5c0,0-3.8,1.5-10.6,1.5C5.5,48,2,46.5,2,46.5c0-3,5.9-4.5,8.2-4.5v-2.2
							c-0.5-0.4-1.6-1.7-2-2.5c0,0-0.1,0-0.1,0c-0.6,0-1-1.4-1-1.8c0-0.5,0.2-0.7,0.5-0.8C7.3,32,7.2,30.8,8,29.2s2.3-2.2,4.5-2.2
							s3.8,0.8,4.5,2.2c0.5,1.1,0.7,2.7,0.7,3.8c-3.2,0.4-5.7,3.1-5.7,6.4c0,3.6,2.9,6.5,6.5,6.5h4.4C23,46.2,23,46.3,23,46.5
							 M34.5,44H24.3h-2.5h-3.3c-1.6,0-2.9-0.8-3.7-2c0,0,0,0,0,0c-0.5-0.7-0.8-1.6-0.8-2.5c0-2.3,1.7-4.1,3.8-4.4
							c0.2,0,0.4-0.1,0.7-0.1h1.3h14.7c2.5,0,4.5,2,4.5,4.5C39,42,37,44,34.5,44 M34.5,33H19.6c0-1.3-0.2-3.2-0.9-4.6
							C18,26.9,16.3,25,12.5,25S7,26.9,6.2,28.4c-0.9,1.8-0.9,3.4-0.7,5.5c-0.3,0.4-0.4,1-0.4,1.6c0,0.9,0.5,2.7,1.8,3.4
							c0.3,0.5,0.7,1,1.1,1.4c-3.3,0.6-8,2.4-8,6.2v1.3l1.2,0.5c0.2,0.1,4,1.7,11.2,1.7c7.1,0,11.2-1.6,11.3-1.6l1.2-0.5v-1.3
							c0-0.2,0-0.3,0-0.5h9.6c3.6,0,6.5-2.9,6.5-6.5S38.1,33,34.5,33"/>
						<path id="Fill-3_1_" class="st2" d="M20.7,37.3l-2.2,2.5l-0.6-0.6c0,0-0.1,0-0.1-0.1c-0.4-0.3-1-0.3-1.3,0.1
							c-0.4,0.4-0.4,1,0,1.4l1.7,1.7l0.4,0.4l0.2-0.3l1.4-1.6l2-2.3c0.4-0.4,0.3-1-0.1-1.4C21.7,36.9,21.1,36.9,20.7,37.3"/>
						<path id="Fill-5_1_" class="st2" d="M27.7,37.3l-2.2,2.5l-0.6-0.6c-0.4-0.4-1-0.4-1.4,0c-0.4,0.4-0.4,1,0,1.4l2.2,2.2l3.6-4.2
							c0.4-0.4,0.3-1-0.1-1.4C28.7,36.9,28.1,36.9,27.7,37.3"/>
						<path id="Fill-7_1_" class="st2" d="M34.7,37.3l-2.2,2.5l-0.6-0.6c-0.4-0.4-1-0.4-1.4,0c-0.4,0.4-0.4,1,0,1.4l2.2,2.2l3.6-4.2
							c0.4-0.4,0.3-1-0.1-1.4C35.7,36.9,35.1,36.9,34.7,37.3"/>
					</g>
				</g>
			</g>
		</g>
	</g>
</g>
</svg>
