<?xml version="1.0" encoding="utf-8"?>
<!-- Generator: Adobe Illustrator 22.0.1, SVG Export Plug-In . SVG Version: 6.00 Build 0)  -->
<svg version="1.1" id="Layer_1" xmlns="http://www.w3.org/2000/svg" xmlns:xlink="http://www.w3.org/1999/xlink" x="0px" y="0px"
	 viewBox="0 0 25 50" style="enable-background:new 0 0 25 50;" xml:space="preserve">
<style type="text/css">
	.st0{fill:#7B6798;}
	.st1{fill:#34A800;}
	.st2{fill:#BEBEBE;}
</style>
<g id="Desctop">
	<g id="Benefits-2" transform="translate(-1161.000000, -2656.000000)">
		<g id="Table" transform="translate(345.000000, 2543.000000)">
			<g id="Row-1" transform="translate(25.000000, 82.000000)">
				<g id="Verification" transform="translate(791.000000, 31.000000)">
					<g id="Icons_x2F_small_x2F_type-1">
						<g id="Group-6">
							<path id="Fill-1" class="st0" d="M12.4,23C5.5,23,2,21.5,2,21.5c0-3,5.9-4.5,8.2-4.5v-2.2c-0.5-0.4-1.6-1.7-2-2.5
								c0,0-0.1,0-0.1,0c-0.6,0-1-1.4-1-1.8c0-0.5,0.2-0.7,0.5-0.8C7.3,7,7.2,5.7,8,4.2S10.2,2,12.5,2s3.7,0.8,4.5,2.2
								c0.5,1.1,0.7,2.7,0.7,3.8c-3.2,0.4-5.7,3.1-5.7,6.4c0,3.6,2.9,6.5,6.5,6.5c1.5,0,2.8-0.5,3.9-1.3c0.4,0.5,0.6,1.1,0.6,1.8
								C23,21.5,19.2,23,12.4,23 M22.3,16.9c-0.4,0.6-0.9,1.1-1.5,1.4c-0.7,0.4-1.5,0.7-2.3,0.7c-1.6,0-2.9-0.8-3.7-2c0,0,0,0,0,0
								c-0.5-0.7-0.8-1.6-0.8-2.5c0-2.3,1.7-4.1,3.8-4.4c0.2,0,0.4-0.1,0.7-0.1c0.5,0,0.9,0.1,1.3,0.2c1.8,0.6,3.2,2.3,3.2,4.3
								C23,15.4,22.7,16.2,22.3,16.9 M25,14.5c0-3.2-2.3-5.9-5.4-6.4c0-1.3-0.2-3.3-0.9-4.7C18,1.9,16.3,0,12.5,0
								C8.7,0,7,1.9,6.2,3.4C5.3,5.2,5.3,6.8,5.5,8.9c-0.3,0.4-0.4,1-0.4,1.6c0,0.9,0.5,2.7,1.8,3.4c0.3,0.5,0.7,1,1.1,1.4
								c-3.3,0.6-8,2.4-8,6.2v1.3l1.2,0.5c0.2,0.1,4,1.7,11.2,1.7c7.1,0,11.2-1.6,11.3-1.6l1.2-0.5v-1.3c0-0.8-0.2-2.1-1.2-3.2
								C24.5,17.2,25,15.9,25,14.5"/>
							<path id="Fill-4" class="st1" d="M19.7,12.3l-2.2,2.6l-0.1-0.1l-0.5-0.5c-0.4-0.4-1-0.4-1.4,0c-0.4,0.4-0.4,1,0,1.4l1.5,1.5
								l0.7,0.7l0.4-0.5l1.4-1.6l1.8-2.1c0.4-0.4,0.3-1.1-0.1-1.4C20.7,11.9,20.1,11.9,19.7,12.3"/>
						</g>
					</g>
				</g>
			</g>
		</g>
	</g>
</g>
<g id="Desctop_1_">
	<g id="Benefits-2_1_" transform="translate(-1161.000000, -2886.000000)">
		<g id="Table_1_" transform="translate(345.000000, 2543.000000)">
			<g id="Row-1_1_" transform="translate(25.000000, 312.000000)">
				<g id="Verification_1_" transform="translate(791.000000, 31.000000)">
					<g id="Icons_x2F_small_x2F_type-1-grey">
						<g id="Group-6_1_">
							<path id="Fill-1_1_" class="st2" d="M12.4,48C5.5,48,2,46.5,2,46.5c0-3,5.9-4.5,8.2-4.5v-2.2c-0.5-0.4-1.6-1.7-2-2.5
								c0,0-0.1,0-0.1,0c-0.6,0-1-1.4-1-1.8c0-0.5,0.2-0.7,0.5-0.8C7.3,32,7.2,30.8,8,29.2s2.3-2.2,4.5-2.2s3.7,0.8,4.5,2.2
								c0.5,1.1,0.7,2.7,0.7,3.8c-3.2,0.4-5.7,3.1-5.7,6.4c0,3.6,2.9,6.5,6.5,6.5c1.5,0,2.8-0.5,3.9-1.3c0.4,0.5,0.6,1.1,0.6,1.8
								C23,46.5,19.2,48,12.4,48 M22.3,41.9c-0.4,0.6-0.9,1.1-1.5,1.4c-0.7,0.4-1.5,0.7-2.3,0.7c-1.6,0-2.9-0.8-3.7-2c0,0,0,0,0,0
								c-0.5-0.7-0.8-1.6-0.8-2.5c0-2.3,1.7-4.1,3.8-4.4c0.2,0,0.4-0.1,0.7-0.1c0.5,0,0.9,0.1,1.3,0.2c1.8,0.6,3.2,2.3,3.2,4.3
								C23,40.4,22.7,41.2,22.3,41.9 M25,39.5c0-3.2-2.3-5.9-5.4-6.4c0-1.3-0.2-3.3-0.9-4.7C18,26.9,16.3,25,12.5,25
								c-3.8,0-5.5,1.8-6.2,3.3c-0.9,1.8-0.9,3.4-0.7,5.5c-0.3,0.4-0.4,1-0.4,1.6c0,0.9,0.5,2.7,1.8,3.4c0.3,0.5,0.7,1,1.1,1.4
								c-3.3,0.6-8,2.4-8,6.2v1.3l1.2,0.5c0.2,0.1,4,1.7,11.2,1.7c7.1,0,11.2-1.6,11.3-1.6l1.2-0.5v-1.3c0-0.8-0.2-2.1-1.2-3.2
								C24.5,42.2,25,40.9,25,39.5"/>
							<path id="Fill-4_1_" class="st2" d="M19.7,37.3l-2.2,2.6l-0.1-0.1l-0.5-0.5c-0.4-0.4-1-0.4-1.4,0c-0.4,0.4-0.4,1,0,1.4
								l1.5,1.5l0.7,0.7l0.4-0.5l1.4-1.6l1.8-2.1c0.4-0.4,0.3-1-0.1-1.4C20.7,36.9,20.1,36.9,19.7,37.3"/>
						</g>
					</g>
				</g>
			</g>
		</g>
	</g>
</g>
</svg>
