<?xml version="1.0" encoding="UTF-8"?>
<svg width="140px" height="160px" viewBox="0 0 140 160" version="1.1" xmlns="http://www.w3.org/2000/svg" xmlns:xlink="http://www.w3.org/1999/xlink">
    <!-- Generator: sketchtool 52 (66869) - http://www.bohemiancoding.com/sketch -->
    <title>4D54CA93-6EFD-4885-888C-D686F56A8429</title>
    <desc>Created with sketchtool.</desc>
    <g id="Desctop" stroke="none" stroke-width="1" fill="none" fill-rule="evenodd">
        <g id="Bounty-program" transform="translate(-230.000000, -2416.000000)">
            <g id="Video" transform="translate(165.000000, 2355.000000)">
                <g id="Icons/business/agriculture" transform="translate(65.000000, 61.000000)">
                    <g id="Icons/bounty-program/video">
                        <g id="Group-28">
                            <polygon id="Fill-1" fill="#F7F7F7" points="70.0002 -0.0002 0.0002 40.0078 0.0002 119.4188 70.0002 159.9998 140.0002 118.7888 140.0002 40.0078"></polygon>
                            <polygon id="Fill-2" fill="#E8E8E8" points="127 47.5059 70 14.9999 13 47.5059 13 112.0269 70 144.9999 127 111.5169"></polygon>
                            <g id="Group-27" transform="translate(6.000000, 8.000000)">
                                <path d="M35.5571,113.9619 C35.1701,113.9619 34.7831,113.8139 34.4901,113.5159 C33.9081,112.9269 33.9131,111.9769 34.5031,111.3949 L38.3701,107.5749 L34.5501,103.7069 C33.9671,103.1179 33.9731,102.1679 34.5621,101.5859 C35.1521,101.0059 36.1021,101.0079 36.6831,101.5999 L42.6121,107.6009 L36.6111,113.5289 C36.3191,113.8169 35.9381,113.9619 35.5571,113.9619" id="Fill-3" fill="#7B6798"></path>
                                <path d="M22.6201,66.8662 C22.0441,66.8662 21.4951,66.5332 21.2471,65.9722 C20.9121,65.2152 21.2551,64.3292 22.0131,63.9942 C23.9711,63.1302 26.0371,62.5382 28.1561,62.2362 C28.9781,62.1192 29.7361,62.6902 29.8521,63.5112 C29.9691,64.3302 29.3991,65.0902 28.5791,65.2072 C26.7331,65.4702 24.9321,65.9842 23.2251,66.7382 C23.0281,66.8252 22.8221,66.8662 22.6201,66.8662 M13.4661,74.3932 C13.1691,74.3932 12.8691,74.3052 12.6071,74.1222 C11.9291,73.6472 11.7641,72.7122 12.2391,72.0332 C13.4651,70.2812 14.9251,68.7042 16.5771,67.3452 C17.2161,66.8182 18.1621,66.9112 18.6881,67.5512 C19.2141,68.1902 19.1221,69.1362 18.4831,69.6622 C17.0411,70.8482 15.7671,72.2242 14.6961,73.7542 C14.4051,74.1712 13.9391,74.3932 13.4661,74.3932 M9.5471,85.5722 C9.5151,85.5722 9.4821,85.5712 9.4491,85.5692 C8.6221,85.5162 7.9951,84.8032 8.0481,83.9762 C8.1851,81.8362 8.6131,79.7302 9.3201,77.7172 C9.5941,76.9342 10.4481,76.5232 11.2321,76.7982 C12.0141,77.0712 12.4251,77.9282 12.1511,78.7092 C11.5351,80.4652 11.1621,82.3022 11.0421,84.1682 C10.9911,84.9622 10.3311,85.5722 9.5471,85.5722 M11.9871,97.1662 C11.4461,97.1662 10.9231,96.8732 10.6561,96.3602 C9.6641,94.4622 8.9391,92.4382 8.5001,90.3452 C8.3301,89.5342 8.8501,88.7392 9.6611,88.5692 C10.4721,88.3912 11.2671,88.9192 11.4371,89.7292 C11.8191,91.5532 12.4511,93.3172 13.3151,94.9712 C13.6981,95.7062 13.4141,96.6122 12.6801,96.9962 C12.4581,97.1112 12.2201,97.1662 11.9871,97.1662 M20.0871,105.8122 C19.8221,105.8122 19.5531,105.7422 19.3091,105.5942 C17.4831,104.4832 15.8151,103.1292 14.3521,101.5672 C13.7851,100.9642 13.8161,100.0132 14.4201,99.4472 C15.0251,98.8822 15.9751,98.9112 16.5401,99.5162 C17.8181,100.8792 19.2741,102.0612 20.8681,103.0312 C21.5761,103.4612 21.8011,104.3842 21.3701,105.0922 C21.0881,105.5552 20.5941,105.8122 20.0871,105.8122 M31.5001,109.0002 C29.3511,109.0002 27.2231,108.7102 25.1721,108.1372 C24.3741,107.9142 23.9081,107.0872 24.1311,106.2892 C24.3531,105.4902 25.1841,105.0212 25.9791,105.2482 C27.7661,105.7472 29.6241,106.0002 31.5001,106.0002 C32.3281,106.0002 33.0001,106.6722 33.0001,107.5002 C33.0001,108.3282 32.3281,109.0002 31.5001,109.0002" id="Fill-5" fill="#7B6798"></path>
                                <path d="M25,51 C25,30.013 42.033,13 63.044,13 C84.056,13 101.088,30.013 101.088,51 C101.088,71.986 84.056,89 63.044,89 C42.033,89 25,71.986 25,51" id="Fill-7" fill="#CE1312"></path>
                                <path d="M45.9326,84.9365 C51.0786,87.5305 56.8876,88.9995 63.0446,88.9995 C82.8376,88.9995 99.0946,73.9005 100.9126,54.6065 C97.1176,53.5665 93.1256,52.9995 88.9996,52.9995 C68.6916,52.9995 51.5316,66.4565 45.9326,84.9365" id="Fill-9" fill="#9E0707"></path>
                                <g id="Group" transform="translate(49.000000, 64.000000)">
                                    <path d="M77.3682,39.3125 C77.3682,60.4725 60.2152,77.6255 39.0552,77.6255 C17.8962,77.6255 0.7432,60.4725 0.7432,39.3125 C0.7432,18.1535 17.8962,0.9995 39.0552,0.9995 C60.2152,0.9995 77.3682,18.1535 77.3682,39.3125" id="Fill-11" fill="#FFD833"></path>
                                    <path d="M62.9663,56.0576 C40.0123,56.0576 21.4053,37.4496 21.4053,14.4966 C21.4053,10.9246 21.9043,7.4776 22.7513,4.1696 C9.6863,10.3516 0.6243,23.6176 0.6243,39.0336 C0.6243,60.3466 17.9023,77.6246 39.2173,77.6246 C55.0773,77.6246 68.6903,68.0496 74.6243,54.3706 C70.9223,55.4496 67.0173,56.0576 62.9663,56.0576" id="Fill-13" fill="#FFB012"></path>
                                    <polygon id="Fill-15" fill="#C95600" points="21.625 20.6348 21.625 28.9888 35.266 28.9888 35.266 35.5278 21.625 35.5278 21.625 43.8808 43.375 43.8688 43.375 28.9888 49.518 28.9888 49.518 49.2668 21.625 49.2668 21.625 57.6218 49.518 57.6218 49.518 57.6248 57.625 57.6248 57.625 20.6248"></polygon>
                                    <path d="M38.626,72.625 C20.43,72.625 5.625,57.82 5.625,39.626 C5.625,21.429 20.43,6.625 38.626,6.625 C56.822,6.625 71.625,21.429 71.625,39.626 C71.625,57.82 56.822,72.625 38.626,72.625 M38.626,9.562 C22.049,9.562 8.562,23.05 8.562,39.626 C8.562,56.202 22.049,69.688 38.626,69.688 C55.202,69.688 68.688,56.202 68.688,39.626 C68.688,23.05 55.202,9.562 38.626,9.562" id="Fill-17" fill="#C95600"></path>
                                </g>
                                <path d="M58.8057,57.0059 L58.8047,45.3679 L69.7527,51.2069 L58.8057,57.0059 Z M82.8457,43.3509 C82.8457,43.3509 82.4487,40.4959 81.2347,39.2399 C79.6937,37.5899 77.9657,37.5819 77.1747,37.4859 C71.5037,37.0669 62.9977,37.0669 62.9977,37.0669 L62.9807,37.0669 C62.9807,37.0669 54.4747,37.0669 48.8047,37.4859 C48.0117,37.5819 46.2857,37.5899 44.7427,39.2399 C43.5287,40.4959 43.1337,43.3509 43.1337,43.3509 C43.1337,43.3509 42.7287,46.7039 42.7287,50.0549 L42.7287,53.1979 C42.7287,56.5499 43.1337,59.9019 43.1337,59.9019 C43.1337,59.9019 43.5287,62.7549 44.7427,64.0129 C46.2857,65.6629 48.3097,65.6109 49.2117,65.7829 C52.4537,66.1019 62.9897,66.1999 62.9897,66.1999 C62.9897,66.1999 71.5037,66.1869 77.1747,65.7679 C77.9657,65.6699 79.6937,65.6629 81.2347,64.0129 C82.4487,62.7549 82.8457,59.9019 82.8457,59.9019 C82.8457,59.9019 83.2507,56.5499 83.2507,53.1979 L83.2507,50.0549 C83.2507,46.7039 82.8457,43.3509 82.8457,43.3509 Z" id="Fill-19" fill="#FFFFFF"></path>
                                <path d="M81.2344,64.0127 C82.4484,62.7557 82.8454,59.9017 82.8454,59.9017 C82.8454,59.9017 83.2354,56.6617 83.2494,53.3667 C73.1614,54.6547 64.1244,59.2847 57.2694,66.1097 C60.3284,66.1747 62.9894,66.2007 62.9894,66.2007 C62.9894,66.2007 71.5044,66.1867 77.1744,65.7677 C77.9654,65.6697 79.6934,65.6617 81.2344,64.0127" id="Fill-21" fill="#BCBCBC"></path>
                                <path d="M19.3779,37.9531 C29.6929,37.9531 38.0549,29.5921 38.0549,19.2771 C38.0549,8.9621 29.6929,0.6001 19.3779,0.6001 C9.0639,0.6001 0.7019,8.9621 0.7019,19.2771 C0.7019,29.5921 9.0639,37.9531 19.3779,37.9531" id="Fill-23" fill="#39B54A"></path>
                                <path d="M28.5,17 L22,17 L22,10.5 C22,9.119 20.881,8 19.5,8 C18.119,8 17,9.119 17,10.5 L17,17 L10.5,17 C9.119,17 8,18.119 8,19.5 C8,20.881 9.119,22 10.5,22 L17,22 L17,28.5 C17,29.881 18.119,31 19.5,31 C20.881,31 22,29.881 22,28.5 L22,22 L28.5,22 C29.881,22 31,20.881 31,19.5 C31,18.119 29.881,17 28.5,17" id="Fill-25" fill="#FFFFFF"></path>
                            </g>
                        </g>
                    </g>
                </g>
            </g>
        </g>
    </g>
</svg>