<?xml version="1.0" encoding="UTF-8"?>
<svg width="34px" height="34px" viewBox="0 0 34 34" version="1.1" xmlns="http://www.w3.org/2000/svg" xmlns:xlink="http://www.w3.org/1999/xlink">
    <!-- Generator: sketchtool 52 (66869) - http://www.bohemiancoding.com/sketch -->
    <title>98992918-D25D-4112-8F97-22EE56FA7B80</title>
    <desc>Created with sketchtool.</desc>
    <defs>
        <rect id="path-1" x="0" y="0" width="350" height="88"></rect>
        <filter x="-4.3%" y="-17.0%" width="108.6%" height="134.1%" filterUnits="objectBoundingBox" id="filter-2">
            <feOffset dx="0" dy="0" in="SourceAlpha" result="shadowOffsetOuter1"></feOffset>
            <feGaussianBlur stdDeviation="5" in="shadowOffsetOuter1" result="shadowBlurOuter1"></feGaussianBlur>
            <feColorMatrix values="0 0 0 0 0.482352941   0 0 0 0 0.4   0 0 0 0 0.588235294  0 0 0 0.2 0" type="matrix" in="shadowBlurOuter1"></feColorMatrix>
        </filter>
    </defs>
    <g id="Desctop" stroke="none" stroke-width="1" fill="none" fill-rule="evenodd">
        <g id="Bounty-program" transform="translate(-632.000000, -688.000000)">
            <rect fill="#FFFFFF" x="0" y="0" width="1440" height="7312"></rect>
            <g id="Bg" transform="translate(0.000000, 591.000000)" fill="#F6F2FB">
                <polygon id="Rectangle-40" points="0 0 1440 0 1440 5646 0 5646"></polygon>
            </g>
            <g id="Buttons" transform="translate(165.000000, 661.000000)">
                <g id="Video" transform="translate(380.000000, 0.000000)">
                    <g id="Bg">
                        <g id="Rectangle-7">
                            <use fill="black" fill-opacity="1" filter="url(#filter-2)" xlink:href="#path-1"></use>
                            <use fill="#FFFFFF" fill-rule="evenodd" xlink:href="#path-1"></use>
                        </g>
                    </g>
                    <g id="Link" transform="translate(87.000000, 27.000000)">
                        <g id="Icons/general-documentations-3">
                            <g id="Icons/bounty-program/video">
                                <g id="Video">
                                    <path d="M0,17 C0,7.61107895 7.52106494,0 16.7986494,0 C26.0766753,0 33.5972987,7.61107895 33.5972987,17 C33.5972987,26.3884737 26.0766753,34 16.7986494,34 C7.52106494,34 0,26.3884737 0,17" id="Fill-7" fill="#CE1312"></path>
                                    <path d="M14.9271922,19.68685 L14.9267506,14.4803763 L19.7609325,17.0925605 L14.9271922,19.68685 Z M25.5422571,13.5780342 C25.5422571,13.5780342 25.3669584,12.3007974 24.8309065,11.7389026 C24.1504649,11.0007447 23.3874519,10.9971658 23.0381792,10.9542184 C20.5341013,10.7667711 16.7782052,10.7667711 16.7782052,10.7667711 L16.7706987,10.7667711 C16.7706987,10.7667711 13.0148026,10.7667711 10.5111662,10.9542184 C10.1610104,10.9971658 9.39888052,11.0007447 8.71755584,11.7389026 C8.1815039,12.3007974 8.00708831,13.5780342 8.00708831,13.5780342 C8.00708831,13.5780342 7.82825714,15.0780605 7.82825714,16.5771921 L7.82825714,17.9832711 C7.82825714,19.48285 8.00708831,20.9824289 8.00708831,20.9824289 C8.00708831,20.9824289 8.1815039,22.2587711 8.71755584,22.8215605 C9.39888052,23.5597184 10.2925948,23.5364553 10.6908805,23.6134026 C12.122413,23.7561132 16.7746727,23.7999553 16.7746727,23.7999553 C16.7746727,23.7999553 20.5341013,23.7941395 23.0381792,23.6066921 C23.3874519,23.56285 24.1504649,23.5597184 24.8309065,22.8215605 C25.3669584,22.2587711 25.5422571,20.9824289 25.5422571,20.9824289 C25.5422571,20.9824289 25.7210883,19.48285 25.7210883,17.9832711 L25.7210883,16.5771921 C25.7210883,15.0780605 25.5422571,13.5780342 25.5422571,13.5780342 Z" id="Fill-19" fill="#FFFFFF"></path>
                                </g>
                            </g>
                        </g>
                    </g>
                </g>
            </g>
        </g>
    </g>
</svg>