<?xml version="1.0" encoding="utf-8"?>
<!-- Generator: Adobe Illustrator 22.0.1, SVG Export Plug-In . SVG Version: 6.00 Build 0)  -->
<svg version="1.1" id="Layer_1" xmlns="http://www.w3.org/2000/svg" xmlns:xlink="http://www.w3.org/1999/xlink" x="0px" y="0px"
	 viewBox="0 0 71 31" style="enable-background:new 0 0 71 31;" xml:space="preserve">
<style type="text/css">
	.st0{fill:#0066B2;}
	.st1{fill:#F9A633;}
</style>
<g id="Desctop">
	<g id="Benefits" transform="translate(-831.000000, -3703.000000)">
		<g id="_x32_-step" transform="translate(0.000000, 2594.000000)">
			<g id="Buy-emercoin" transform="translate(345.000000, 917.000000)">
				<g id="Card" transform="translate(478.000000, 185.000000)">
					<g id="Visa">
						<g transform="translate(8.000000, 7.000000)">
							<polygon id="Fill-1" class="st0" points="30.2,7 27.4,24.1 31.9,24.1 34.7,7 							"/>
							<path id="Fill-2" class="st0" d="M23.7,7l-4.2,11.8l-0.5-2.5l0,0l-1.5-7.7c0,0-0.2-1.5-2.1-1.5h-7L8.2,7.2c0,0,2.1,0.4,4.7,2
								l3.9,14.9h4.6L28.5,7H23.7z"/>
							<path id="Fill-4" class="st0" d="M53.8,18l2.3-6.4l1.3,6.4H53.8z M58.7,24.1h4.1L59.2,7h-3.6c-1.7,0-2.1,1.3-2.1,1.3
								l-6.6,15.8h4.6l0.9-2.5h5.7L58.7,24.1z"/>
							<path id="Fill-6" class="st0" d="M47.3,11.1l0.6-3.7c0,0-2-0.7-4-0.7c-2.2,0-7.5,1-7.5,5.7c0,4.4,6.2,4.5,6.2,6.8
								c0,2.3-5.5,1.9-7.3,0.4l-0.7,3.8c0,0,2,1,5,1s7.6-1.6,7.6-5.9c0-4.4-6.2-4.9-6.2-6.8C41.1,9.8,45.4,10,47.3,11.1"/>
							<path id="Fill-9" class="st1" d="M18.9,16.2l-1.5-7.7c0,0-0.2-1.5-2.1-1.5h-7L8.2,7.2c0,0,3.4,0.7,6.6,3.3
								C17.9,13.1,18.9,16.2,18.9,16.2"/>
						</g>
					</g>
				</g>
			</g>
		</g>
	</g>
</g>
</svg>
