<svg xmlns="http://www.w3.org/2000/svg" width="34" height="34" viewBox="0 0 34 34">
    <g fill="none" fill-rule="evenodd">
        <path fill="#B10B0A" d="M0 17C0 7.611 7.611 0 17 0s17 7.611 17 17-7.611 17-17 17S0 26.389 0 17z"/>
        <path fill="#FFF" d="M26.21 13.578s-.18-1.277-.73-1.84c-.698-.737-1.48-.74-1.84-.784-2.569-.187-6.423-.187-6.423-.187h-.008s-3.854 0-6.423.187c-.36.043-1.141.047-1.84.785-.55.562-.73 1.84-.73 1.84s-.183 1.499-.183 2.998v1.406c0 1.5.183 3 .183 3s.18 1.276.73 1.838c.699.739 1.616.716 2.024.793 1.47.142 6.243.186 6.243.186s3.858-.006 6.427-.193c.36-.044 1.142-.047 1.84-.786.55-.562.73-1.839.73-1.839s.183-1.499.183-2.999v-1.406c0-1.5-.183-2.999-.183-2.999z"/>
        <path fill="#CE1312" d="M15.317 19.687V14.48l4.96 2.613z"/>
    </g>
</svg>
